<svg width="48" height="48" viewBox="0 0 48 48" fill="none" xmlns="http://www.w3.org/2000/svg">
<path d="M1 5C1 2.79086 2.79086 1 5 1H43C45.2091 1 47 2.79086 47 5V43C47 45.2091 45.2091 47 43 47H5C2.79086 47 1 45.2091 1 43V5Z" fill="#8797AA"/>
<path fill-rule="evenodd" clip-rule="evenodd" d="M7.99997 13.9999C9.02625 13.0763 10.607 13.1595 11.5306 14.1858L18.5572 21.993C19.584 23.134 19.584 24.8659 18.5572 26.0068L11.5306 33.8141C10.607 34.8404 9.02625 34.9236 7.99997 33.9999C6.9737 33.0763 6.8905 31.4956 7.81415 30.4693L13.6366 23.9999L7.81415 17.5306C6.8905 16.5043 6.9737 14.9236 7.99997 13.9999Z" fill="white"/>
<path fill-rule="evenodd" clip-rule="evenodd" d="M40.0001 33.5C40.0001 34.8807 38.8808 36 37.5001 36H22.5001C21.1194 36 20.0001 34.8807 20.0001 33.5C20.0001 32.1192 21.1194 31 22.5001 31H37.5001C38.8808 31 40.0001 32.1192 40.0001 33.5Z" fill="white"/>
</svg>
