<svg width="48" height="48" viewBox="0 0 48 48" fill="none" xmlns="http://www.w3.org/2000/svg">
<path fill-rule="evenodd" clip-rule="evenodd" d="M4.31684 9.2613C2.9455 9.98306 2.08691 11.4052 2.08691 12.9549V39.6523C2.08691 41.9575 3.95564 43.8262 6.26083 43.8262H23.839C22.3088 42.7632 21.935 40.3426 22.9564 38.8001C23.0324 38.6853 23.1914 38.5764 23.3415 38.4736C23.4449 38.4028 23.5441 38.3349 23.609 38.2699C22.4963 37.1613 21.8485 35.4076 22.748 34.0491C22.838 33.9132 23.0225 33.7857 23.1947 33.6667C23.3029 33.5919 23.4063 33.5205 23.4781 33.4525C22.1575 31.8099 22.4315 28.8389 24.4174 27.6523L34.2204 21.3914C35.2443 20.7796 36.5322 20.7797 37.5561 21.3915L41.7391 24.1351V12.9549C41.7391 11.4052 40.8805 9.98306 39.5092 9.26129L23.857 1.02331C22.6401 0.382854 21.1859 0.382855 19.969 1.02331L4.31684 9.2613ZM9.39126 16.174C9.39126 14.7333 10.5592 13.5653 12 13.5653H27.6521C29.0929 13.5653 30.2608 14.7333 30.2608 16.174C30.2608 17.6147 29.0929 18.7827 27.6521 18.7827H12C10.5592 18.7827 9.39126 17.6147 9.39126 16.174ZM12 22.9566C10.5592 22.9566 9.39126 24.1246 9.39126 25.5653C9.39126 27.006 10.5592 28.174 12 28.174H18.2608C19.7016 28.174 20.8695 27.006 20.8695 25.5653C20.8695 24.1246 19.7016 22.9566 18.2608 22.9566H12Z" fill="white"/>
<path fill-rule="evenodd" clip-rule="evenodd" d="M36 45.1049L27.054 39.6413C26.4428 39.2679 25.6472 39.4505 25.2575 40.0537C24.8515 40.6818 25.0407 41.523 25.6758 41.9143L35.1717 47.7651C35.68 48.0783 36.32 48.0783 36.8283 47.7651L46.3241 41.9143C46.9593 41.523 47.1484 40.6818 46.7425 40.0537C46.3528 39.4506 45.5572 39.2679 44.9459 39.6413L36 45.1049Z" fill="white"/>
<path fill-rule="evenodd" clip-rule="evenodd" d="M36 40.3198L27.054 34.8562C26.4428 34.4829 25.6472 34.6655 25.2575 35.2686C24.8515 35.8968 25.0407 36.738 25.6758 37.1293L35.1717 42.9801C35.68 43.2933 36.32 43.2933 36.8283 42.9801L46.3241 37.1293C46.9593 36.738 47.1484 35.8968 46.7425 35.2686C46.3528 34.6655 45.5572 34.4829 44.9459 34.8562L36 40.3198Z" fill="white"/>
<path d="M35.4503 24.155C35.7879 23.9483 36.212 23.9483 36.5497 24.155L45.932 29.8994C46.947 30.5209 46.947 32.0029 45.932 32.6243L36.5497 38.3687C36.212 38.5754 35.7879 38.5754 35.4503 38.3687L26.068 32.6243C25.053 32.0029 25.053 30.5209 26.068 29.8994L35.4503 24.155Z" fill="white"/>
</svg>
