<svg width="48" height="48" viewBox="0 0 48 48" fill="none" xmlns="http://www.w3.org/2000/svg">
<path d="M1.04346 12.9549C1.04346 11.4052 1.90204 9.98306 3.27338 9.2613L18.9256 1.02331C20.1424 0.382855 21.5967 0.382854 22.8135 1.02331L38.4657 9.26129C39.837 9.98306 40.6956 11.4052 40.6956 12.9549V39.6523C40.6956 41.9575 38.8269 43.8262 36.5217 43.8262H5.21737C2.91218 43.8262 1.04346 41.9575 1.04346 39.6523V12.9549Z" fill="white" fill-opacity="0.5"/>
<path d="M8.34766 16.1739C8.34766 14.7331 9.51561 13.5652 10.9564 13.5652H26.6085C28.0493 13.5652 29.2172 14.7331 29.2172 16.1739C29.2172 17.6146 28.0493 18.7826 26.6085 18.7826H10.9564C9.51561 18.7826 8.34766 17.6146 8.34766 16.1739Z" fill="white"/>
<path d="M8.34766 25.5652C8.34766 24.1244 9.51561 22.9565 10.9564 22.9565H17.2172C18.658 22.9565 19.8259 24.1244 19.8259 25.5652C19.8259 27.0059 18.658 28.1739 17.2172 28.1739H10.9564C9.51561 28.1739 8.34766 27.0059 8.34766 25.5652Z" fill="white"/>
<path fill-rule="evenodd" clip-rule="evenodd" d="M34.9565 45.1049L26.0106 39.6413C25.3993 39.2679 24.6037 39.4505 24.214 40.0537C23.8081 40.6818 23.9972 41.523 24.6324 41.9143L34.1282 47.7651C34.6365 48.0783 35.2765 48.0783 35.7848 47.7651L45.2807 41.9143C45.9158 41.523 46.105 40.6818 45.699 40.0537C45.3093 39.4506 44.5137 39.2679 43.9025 39.6413L34.9565 45.1049Z" fill="white"/>
<path fill-rule="evenodd" clip-rule="evenodd" d="M34.9565 40.3198L26.0106 34.8562C25.3993 34.4829 24.6037 34.6655 24.214 35.2686C23.8081 35.8968 23.9972 36.738 24.6324 37.1293L34.1282 42.9801C34.6365 43.2933 35.2765 43.2933 35.7848 42.9801L45.2807 37.1293C45.9158 36.738 46.105 35.8968 45.699 35.2686C45.3093 34.6655 44.5137 34.4829 43.9025 34.8562L34.9565 40.3198Z" fill="white"/>
<path d="M34.4069 24.155C34.7445 23.9483 35.1686 23.9483 35.5062 24.155L44.8886 29.8994C45.9035 30.5209 45.9035 32.0029 44.8886 32.6243L35.5062 38.3687C35.1686 38.5754 34.7445 38.5754 34.4069 38.3687L25.0245 32.6243C24.0095 32.0029 24.0095 30.5209 25.0245 29.8994L34.4069 24.155Z" fill="white"/>
</svg>
