<svg width="48" height="48" viewBox="0 0 48 48" fill="none" xmlns="http://www.w3.org/2000/svg">
<path fill-rule="evenodd" clip-rule="evenodd" d="M5 1C2.79086 1 1 2.79086 1 5V43C1 45.2091 2.79086 47 5 47H43C45.2091 47 47 45.2091 47 43V5C47 2.79086 45.2091 1 43 1H5ZM25.4003 15.2179C25.8726 13.9204 27.3072 13.2515 28.6046 13.7237C29.902 14.1959 30.571 15.6305 30.0988 16.928L23.6004 34.7821C23.1282 36.0796 21.6936 36.7486 20.3961 36.2763C19.0987 35.8041 18.4297 34.3695 18.9019 33.072L25.4003 15.2179ZM41.735 24.1653C42.334 24.5606 42.334 25.4394 41.735 25.8347L34.0507 30.905C33.3859 31.3437 32.5 30.8668 32.5 30.0703V19.9297C32.5 19.1332 33.3859 18.6563 34.0507 19.095L41.735 24.1653ZM6.5 25.866C5.83333 25.4811 5.83333 24.5189 6.5 24.134L15.5 18.9378C16.1667 18.5529 17 19.034 17 19.8038V30.1962C17 30.966 16.1667 31.4471 15.5 31.0622L6.5 25.866Z" fill="white"/>
</svg>
