<svg width="48" height="44" viewBox="0 0 48 44" fill="none" xmlns="http://www.w3.org/2000/svg">
<path fill-rule="evenodd" clip-rule="evenodd" d="M8.5 0C7.11929 0 6 1.11929 6 2.5C6 3.88071 7.11929 5 8.5 5H40C41.6569 5 43 6.34315 43 8V35.5C43 36.8807 44.1193 38 45.5 38C46.8807 38 48 36.8807 48 35.5V4.5C48 2.01472 45.9853 0 43.5 0H8.5ZM40 12C40 9.79086 38.2091 8 36 8H4C1.79086 8 0 9.79086 0 12V40C0 42.2091 1.79086 44 4 44H36C38.2091 44 40 42.2091 40 40V12Z" fill="white" fill-opacity="0.5"/>
<path fill-rule="evenodd" clip-rule="evenodd" d="M9.64293 18.106C10.6027 17.1297 12.1588 17.1297 13.1186 18.106C14.0784 19.0823 14.0784 20.6652 13.1186 21.6415L8.72973 26.106L13.1186 30.5705C14.0784 31.5468 14.0784 33.1297 13.1186 34.106C12.1588 35.0823 10.6027 35.0823 9.64293 34.106L3.8638 28.2273C2.71207 27.0558 2.71207 25.1563 3.8638 23.9847L9.64293 18.106Z" fill="white"/>
<path fill-rule="evenodd" clip-rule="evenodd" d="M30.3571 18.106C29.3973 17.1297 27.8412 17.1297 26.8814 18.106C25.9216 19.0823 25.9216 20.6652 26.8814 21.6415L31.2703 26.106L26.8814 30.5705C25.9216 31.5468 25.9216 33.1297 26.8814 34.106C27.8412 35.0823 29.3973 35.0823 30.3571 34.106L36.1362 28.2273C37.2879 27.0558 37.2879 25.1563 36.1362 23.9847L30.3571 18.106Z" fill="white"/>
<path fill-rule="evenodd" clip-rule="evenodd" d="M17.051 36.1061C15.7509 35.7093 15.0132 34.3156 15.4032 32.9932L19.8892 17.7823C20.2792 16.4598 21.6493 15.7093 22.9494 16.1061C24.2495 16.5028 24.9872 17.8965 24.5972 19.219L20.1112 34.4299C19.7212 35.7524 18.3511 36.5028 17.051 36.1061Z" fill="white"/>
</svg>
