<svg width="46" height="46" viewBox="0 0 46 46" fill="none" xmlns="http://www.w3.org/2000/svg">
<path d="M0 4C0 1.79086 1.79086 0 4 0H42C44.2091 0 46 1.79086 46 4V42C46 44.2091 44.2091 46 42 46H4C1.79086 46 0 44.2091 0 42V4Z" fill="white" fill-opacity="0.5"/>
<path d="M24.4003 14.2179C24.8726 12.9205 26.3072 12.2515 27.6046 12.7237C28.902 13.1959 29.571 14.6306 29.0988 15.928L22.6004 33.7822C22.1282 35.0796 20.6936 35.7486 19.3961 35.2763C18.0987 34.8041 17.4297 33.3695 17.9019 32.0721L24.4003 14.2179Z" fill="white"/>
<path d="M40.735 23.1653C41.334 23.5606 41.334 24.4394 40.735 24.8347L33.0507 29.905C32.3859 30.3437 31.5 29.8669 31.5 29.0703V18.9297C31.5 18.1332 32.3859 17.6563 33.0507 18.095L40.735 23.1653Z" fill="white"/>
<path d="M5.5 23.134C4.83333 23.5189 4.83333 24.4811 5.5 24.866L14.5 30.0622C15.1667 30.4471 16 29.966 16 29.1962V18.8039C16 18.0341 15.1667 17.5529 14.5 17.9378L5.5 23.134Z" fill="white"/>
</svg>
