<svg width="48" height="48" viewBox="0 0 48 48" fill="none" xmlns="http://www.w3.org/2000/svg">
<path fill-rule="evenodd" clip-rule="evenodd" d="M32.9864 8.01442C40.0886 11.382 45 18.6174 45 27C45 28.2798 44.8855 29.5329 44.6662 30.7496C46.6931 32.3032 48 34.749 48 37.5C48 42.1944 44.1944 46 39.5 46C37.9085 46 36.4192 45.5626 35.1456 44.8015C31.9155 46.8281 28.0946 48 24 48C19.9054 48 16.0845 46.8281 12.8544 44.8015C11.5809 45.5626 10.0915 46 8.5 46C3.80558 46 0 42.1944 0 37.5C0 34.749 1.30693 32.3032 3.33379 30.7496C3.11449 29.5329 3 28.2798 3 27C3 18.2149 8.39454 10.6897 16.0518 7.55628C16.5213 3.30598 20.1246 0 24.5 0C29.0314 0 32.7347 3.54594 32.9864 8.01442ZM16.2482 41.0001C16.7311 39.9327 17 38.7478 17 37.5C17 32.8056 13.1944 29 8.5 29C8.37428 29 8.2492 29.0027 8.1248 29.0081C8.04244 28.3503 8 27.6801 8 27C8 20.656 11.6922 15.1743 17.045 12.5866C18.4901 15.2171 21.2868 17 24.5 17C27.5487 17 30.2226 15.3949 31.7226 12.9837C36.6576 15.7086 40 20.9639 40 27C40 27.6801 39.9576 28.3503 39.8752 29.0081C39.7508 29.0027 39.6257 29 39.5 29C34.8056 29 31 32.8056 31 37.5C31 38.7478 31.2689 39.9327 31.7518 41.0001C29.4553 42.2744 26.8124 43 24 43C21.1876 43 18.5447 42.2744 16.2482 41.0001Z" fill="white"/>
</svg>
