<svg width="48" height="48" viewBox="0 0 48 48" fill="none" xmlns="http://www.w3.org/2000/svg">
<path fill-rule="evenodd" clip-rule="evenodd" d="M5 1C2.79086 1 1 2.79086 1 5V43C1 45.2091 2.79086 47 5 47H43C45.2091 47 47 45.2091 47 43V5C47 2.79086 45.2091 1 43 1H5ZM15.5749 39.9982C14.1942 39.9982 13.0749 38.8789 13.0749 37.4982V35.5685C10.4042 34.5822 8.5 32.0135 8.5 29C8.5 25.9865 10.4042 23.4178 13.0749 22.4315V10.5018C13.0749 9.12112 14.1942 8.00183 15.5749 8.00183C16.9557 8.00183 18.0749 9.12112 18.0749 10.5018V22.4888C20.6668 23.5146 22.5 26.0432 22.5 29C22.5 31.9568 20.6668 34.4854 18.0749 35.5112V37.4982C18.0749 38.8789 16.9557 39.9982 15.5749 39.9982ZM32.5951 39.9918C31.2144 39.9918 30.0951 38.8725 30.0951 37.4918V26.5759C27.4138 25.5951 25.5 23.021 25.5 20C25.5 16.979 27.4138 14.4049 30.0951 13.4241V10.5082C30.0951 9.12753 31.2144 8.00824 32.5951 8.00824C33.9758 8.00824 35.0951 9.12753 35.0951 10.5082V13.4968C37.6763 14.5277 39.5 17.0509 39.5 20C39.5 22.9491 37.6763 25.4723 35.0951 26.5032V37.4918C35.0951 38.8725 33.9758 39.9918 32.5951 39.9918Z" fill="white"/>
</svg>
