<svg width="48" height="48" viewBox="0 0 48 48" fill="none" xmlns="http://www.w3.org/2000/svg">
<path d="M44 6C46.2091 6 48 7.79086 48 10V31C48 33.2091 46.2091 35 44 35H13C10.7909 35 9 33.2091 9 31V10C9 7.79086 10.7909 6 13 6H44ZM44 10C43.0132 9.03475 41.4304 9.05159 40.4648 10.0381L31.0439 19.666L23.4053 14.8564C22.5721 14.3319 21.4807 14.4919 20.833 15.2334L12.7617 24.4727C11.8535 25.5125 11.9602 27.0917 13 28C14.0398 28.9082 15.6191 28.8015 16.5273 27.7617L22.9111 20.4541L30.4297 25.1875C31.2268 25.6894 32.2661 25.5668 32.9248 24.8936L44.0381 13.5352C45.0037 12.5483 44.9868 10.9656 44 10Z" fill="white"/>
<path d="M5 37C5 38.1046 5.89543 39 7 39H45.5C46.8807 39 48 40.1193 48 41.5C48 42.8807 46.8807 44 45.5 44H4C1.79086 44 0 42.2091 0 40V8.5C0 7.11929 1.11929 6 2.5 6C3.88071 6 5 7.11929 5 8.5V37Z" fill="white"/>
</svg>
