<svg width="48" height="48" viewBox="0 0 48 48" fill="none" xmlns="http://www.w3.org/2000/svg">
<path d="M20.494 25.4726C21.1162 25.829 21.5 26.4911 21.5 27.2081V43.2668C21.5 44.7848 19.8751 45.7495 18.5423 45.0226L3.04234 36.5685C2.39979 36.2181 2 35.5446 2 34.8127V18.3302C2 16.7937 3.66071 15.8311 4.99403 16.5948L20.494 25.4726ZM46 34.8127C46 35.5446 45.6002 36.2181 44.9577 36.5685L29.4577 45.0226C28.1249 45.7495 26.5 44.7848 26.5 43.2668V27.2081C26.5 26.4911 26.8838 25.829 27.506 25.4726L43.006 16.5948C44.3393 15.8311 46 16.7937 46 18.3302V34.8127ZM41.8535 9.73808C42.5401 10.1126 42.5503 11.095 41.8716 11.4837L24.9939 21.1496C24.3782 21.5022 23.6218 21.5022 23.0061 21.1496L18.4233 18.5254C17.7539 18.142 17.7522 17.1772 18.4202 16.7915L35.1137 7.15315C35.7175 6.8045 36.4594 6.79552 37.0715 7.12944L41.8535 9.73808ZM29.3801 2.93406C30.0655 3.30781 30.0774 4.28767 29.4014 4.678L12.8905 14.2111C12.2738 14.5671 11.5144 14.5685 10.8966 14.2146L6.12771 11.4838C5.44891 11.0951 5.45911 10.1126 6.14581 9.73808L23.0424 0.522296C23.6393 0.196734 24.3607 0.196715 24.9576 0.522244L29.3801 2.93406Z" fill="white"/>
</svg>
