<svg width="48" height="48" viewBox="0 0 48 48" fill="none" xmlns="http://www.w3.org/2000/svg">
<g clip-path="url(#clip0_16072_1761)">
<path d="M41 23C41 13.0589 32.9411 5 23 5C13.0589 5 5 13.0589 5 23C5 32.9411 13.0589 41 23 41V46C10.2975 46 0 35.7025 0 23C0 10.2975 10.2975 0 23 0C35.7025 0 46 10.2975 46 23C46 35.7025 35.7025 46 23 46V41C32.9411 41 41 32.9411 41 23Z" fill="white"/>
<path d="M47.2742 43.6797C48.224 44.6818 48.1818 46.2641 47.1798 47.214C46.1778 48.1639 44.5955 48.1217 43.6456 47.1197L36.72 39.8143C35.7701 38.8123 35.8123 37.2299 36.8143 36.28C37.8163 35.3301 39.3987 35.3723 40.3486 36.3744L47.2742 43.6797Z" fill="white"/>
<path d="M21.0013 24.1486C21.31 24.3274 21.5 24.6571 21.5 25.0139V33.9606C21.5 34.7218 20.6835 35.2039 20.017 34.8362L11.517 30.1475C11.1981 29.9716 11 29.6361 11 29.2719V20.0895C11 19.3191 11.8346 18.838 12.5013 19.2242L21.0013 24.1486ZM35 29.2719C35 29.6361 34.8019 29.9716 34.483 30.1475L25.983 34.8362C25.3165 35.2039 24.5 34.7218 24.5 33.9606V25.0139C24.5 24.6571 24.69 24.3274 24.9987 24.1486L33.4987 19.2242C34.1654 18.838 35 19.3191 35 20.0895V29.2719ZM31.9183 14.9209C32.5993 15.2967 32.6094 16.272 31.9364 16.6618L24.0024 21.2573C23.3824 21.6164 22.6176 21.6164 21.9976 21.2573L14.0628 16.6619C13.3897 16.272 13.3999 15.2967 14.0809 14.9209L22.0338 10.5331C22.6352 10.2013 23.3648 10.2013 23.9662 10.5331L31.9183 14.9209Z" fill="white"/>
</g>
<defs>
<clipPath id="clip0_16072_1761">
<rect width="48" height="48" fill="white"/>
</clipPath>
</defs>
</svg>
