<svg width="48" height="48" viewBox="0 0 48 48" fill="none" xmlns="http://www.w3.org/2000/svg">
<path d="M26.501 7L26.5001 17.1206C26.5 17.9008 26.9536 18.6098 27.6619 18.9367L37.1755 23.3279C38.592 23.9817 39.4991 25.3994 39.4992 26.9595L39.5 39H34.5L34.4991 28.8782C34.4991 28.0982 34.0455 27.3893 33.3372 27.0625L24.8371 23.1397C24.3053 22.8943 23.6927 22.8943 23.1609 23.1397L14.6619 27.0624C13.9536 27.3893 13.5 28.0982 13.5 28.8783V39H8.5V26.9596C8.5 25.3994 9.40707 23.9817 10.8236 23.3278L20.3363 18.9367C21.0445 18.6097 21.498 17.9009 21.498 17.1208V7.00098H21.501L26.501 7Z" fill="#8797AA"/>
<path d="M18 41C18 44.866 14.866 48 11 48C7.13401 48 4 44.866 4 41C4 37.134 7.13401 34 11 34C14.866 34 18 37.134 18 41Z" fill="white"/>
<path d="M44 41C44 44.866 40.866 48 37 48C33.134 48 30 44.866 30 41C30 37.134 33.134 34 37 34C40.866 34 44 37.134 44 41Z" fill="white"/>
<path d="M31 7C31 10.866 27.866 14 24 14C20.134 14 17 10.866 17 7C17 3.13401 20.134 0 24 0C27.866 0 31 3.13401 31 7Z" fill="white"/>
</svg>
