<svg width="48" height="48" viewBox="0 0 48 48" fill="none" xmlns="http://www.w3.org/2000/svg">
<path d="M26.501 17.1198C26.501 17.8999 26.9545 18.6088 27.6628 18.9357L38.0479 23.7295C38.9331 24.1385 39.5 25.0248 39.5 26L39.501 39H34.501L34.5001 28.8791C34.5 28.0991 34.0465 27.3903 33.3383 27.0634L24.8382 23.1398C24.3063 22.8943 23.6937 22.8943 23.1618 23.1398L14.661 27.0633C13.9527 27.3902 13.4991 28.0992 13.4991 28.8794L13.5 39H8.50098V25.9996C8.50098 25.0247 9.0679 24.1389 9.95312 23.7305L20.3363 18.9376C21.0445 18.6107 21.498 17.9018 21.498 17.1218V7.00098H21.501L26.501 7V17.1198Z" fill="white"/>
<path d="M18 41C18 44.866 14.866 48 11 48C7.13401 48 4 44.866 4 41C4 37.134 7.13401 34 11 34C14.866 34 18 37.134 18 41Z" fill="white"/>
<path d="M44 41C44 44.866 40.866 48 37 48C33.134 48 30 44.866 30 41C30 37.134 33.134 34 37 34C40.866 34 44 37.134 44 41Z" fill="white"/>
<path d="M31 7C31 10.866 27.866 14 24 14C20.134 14 17 10.866 17 7C17 3.13401 20.134 0 24 0C27.866 0 31 3.13401 31 7Z" fill="white"/>
</svg>
