<svg width="48" height="48" viewBox="0 0 48 48" fill="none" xmlns="http://www.w3.org/2000/svg">
<path d="M9 10C9 7.79086 10.7909 6 13 6H44C46.2091 6 48 7.79086 48 10V31C48 33.2091 46.2091 35 44 35H13C10.7909 35 9 33.2091 9 31V10Z" fill="#8797AA"/>
<path d="M43.9997 10.9997C44.9868 11.9652 45.0042 13.5482 44.0385 14.5352L32.9249 25.894C32.2661 26.5672 31.2269 26.6896 30.4298 26.1877L22.9111 21.4541L16.5274 28.7619C15.6191 29.8017 14.0399 29.9083 13.0001 29.0001C11.9602 28.0918 11.8536 26.5125 12.7619 25.4726L20.8331 16.2331C21.4808 15.4916 22.5718 15.3318 23.405 15.8563L31.0439 20.666L40.4648 11.0384C41.4303 10.0517 43.0128 10.0344 43.9997 10.9997Z" fill="white"/>
<path d="M5 37C5 38.1046 5.89543 39 7 39H45.5C46.8807 39 48 40.1193 48 41.5C48 42.8807 46.8807 44 45.5 44H4C1.79086 44 0 42.2091 0 40V8.5C0 7.11929 1.11929 6 2.5 6C3.88071 6 5 7.11929 5 8.5V37Z" fill="white"/>
</svg>
