<svg width="48" height="48" viewBox="0 0 48 48" fill="none" xmlns="http://www.w3.org/2000/svg">
<path d="M22.4738 0.901839C23.4152 0.345545 24.5848 0.345546 25.5262 0.90184L33.5262 5.62911C34.4396 6.16886 35 7.15093 35 8.21189V17.7881C35 18.8491 34.4396 19.8311 33.5262 20.3709L25.5262 25.0982C24.5848 25.6545 23.4152 25.6545 22.4738 25.0982L14.4738 20.3709C13.5604 19.8311 13 18.8491 13 17.7881V8.21189C13 7.15093 13.5604 6.16886 14.4738 5.62911L22.4738 0.901839Z" fill="white"/>
<path fill-rule="evenodd" clip-rule="evenodd" d="M21 30.9555C21 29.898 20.4432 28.9186 19.5345 28.3777L12.0345 23.9134C11.0889 23.3505 9.9111 23.3505 8.96555 23.9134L1.46555 28.3777C0.556809 28.9186 0 29.898 0 30.9555V40.0445C0 41.102 0.55681 42.0814 1.46555 42.6224L8.96555 47.0866C9.9111 47.6495 11.0889 47.6495 12.0345 47.0866L19.5345 42.6224C20.4432 42.0814 21 41.102 21 40.0445V30.9555ZM8 38.0744C8 37.7187 7.81109 37.3898 7.50387 37.2106L3.50387 34.8773C2.83721 34.4884 2 34.9692 2 35.741V39.4256C2 39.7813 2.18891 40.1102 2.49613 40.2894L6.49613 42.6227C7.16279 43.0116 8 42.5308 8 41.759V38.0744Z" fill="white"/>
<path fill-rule="evenodd" clip-rule="evenodd" d="M48 30.9555C48 29.898 47.4432 28.9186 46.5345 28.3777L39.0345 23.9134C38.0889 23.3505 36.9111 23.3505 35.9655 23.9134L28.4655 28.3777C27.5568 28.9186 27 29.898 27 30.9555V40.0445C27 41.102 27.5568 42.0814 28.4655 42.6224L35.9655 47.0866C36.9111 47.6495 38.0889 47.6495 39.0345 47.0866L46.5345 42.6224C47.4432 42.0814 48 41.102 48 40.0445V30.9555ZM35 38.0744C35 37.7187 34.8111 37.3898 34.5039 37.2106L30.5039 34.8773C29.8372 34.4884 29 34.9692 29 35.741V39.4256C29 39.7813 29.1889 40.1102 29.4961 40.2894L33.4961 42.6227C34.1628 43.0116 35 42.5308 35 41.759V38.0744Z" fill="white"/>
</svg>
