<svg width="48" height="48" viewBox="0 0 48 48" fill="none" xmlns="http://www.w3.org/2000/svg">
<path fill-rule="evenodd" clip-rule="evenodd" d="M25.0401 0.632912C24.4013 0.244108 23.5991 0.244107 22.9603 0.632911L5.21018 11.4373C3.28997 12.6062 3.28996 15.3937 5.21018 16.5625L22.9603 27.367C23.5991 27.7558 24.4013 27.7558 25.0401 27.367L42.7902 16.5625C44.7104 15.3937 44.7104 12.6062 42.7902 11.4373L25.0401 0.632912ZM24.0002 31.0365L7.07571 20.7602C5.91926 20.058 4.41417 20.4015 3.67684 21.5358C2.9089 22.7173 3.26672 24.2995 4.4683 25.0355L22.4331 36.04C23.3948 36.6291 24.6056 36.6291 25.5672 36.04L43.5321 25.0355C44.7337 24.2995 45.0915 22.7173 44.3235 21.5358C43.5862 20.4015 42.0811 20.058 40.9247 20.7602L24.0002 31.0365ZM24.0002 40.0365L7.07571 29.7602C5.91926 29.058 4.41417 29.4015 3.67684 30.5358C2.9089 31.7173 3.26671 33.2995 4.4683 34.0355L22.4331 45.04C23.3948 45.6291 24.6056 45.6291 25.5672 45.04L43.5321 34.0355C44.7337 33.2995 45.0915 31.7173 44.3235 30.5358C43.5862 29.4015 42.0811 29.058 40.9247 29.7602L24.0002 40.0365Z" fill="white"/>
</svg>
