<svg width="48" height="48" viewBox="0 0 48 48" fill="none" xmlns="http://www.w3.org/2000/svg">
<path fill-rule="evenodd" clip-rule="evenodd" d="M4 2C1.79086 2 0 3.79086 0 6V34C0 36.2091 1.79086 38 4 38H44C46.2091 38 48 36.2091 48 34V6C48 3.79086 46.2091 2 44 2H4ZM9.5 42C8.11929 42 7 43.1193 7 44.5C7 45.8807 8.11929 47 9.5 47H38.5C39.8807 47 41 45.8807 41 44.5C41 43.1193 39.8807 42 38.5 42H9.5Z" fill="white" fill-opacity="0.5"/>
<path fill-rule="evenodd" clip-rule="evenodd" d="M19.7676 26.2322C20.7439 27.2085 20.7439 28.7915 19.7676 29.7678C18.7913 30.7441 17.2084 30.7441 16.2321 29.7678L8.93919 22.4749C7.57235 21.108 7.57236 18.892 8.93919 17.5251L16.2321 10.2322C17.2084 9.25592 18.7913 9.25592 19.7676 10.2322C20.7439 11.2085 20.7439 12.7915 19.7676 13.7678L13.5354 20L19.7676 26.2322ZM28.2324 13.7678C27.2561 12.7915 27.2561 11.2085 28.2324 10.2322C29.2087 9.25592 30.7916 9.25592 31.7679 10.2322L39.0608 17.5251C40.4277 18.892 40.4276 21.108 39.0608 22.4749L31.7679 29.7678C30.7916 30.7441 29.2087 30.7441 28.2324 29.7678C27.2561 28.7915 27.2561 27.2085 28.2324 26.2322L34.4646 20L28.2324 13.7678Z" fill="white"/>
</svg>
