<svg width="48" height="48" viewBox="0 0 48 48" fill="none" xmlns="http://www.w3.org/2000/svg">
<path d="M9 43.5C9 42.1193 10.1193 41 11.5 41H36.5C37.8807 41 39 42.1193 39 43.5C39 44.8807 37.8807 46 36.5 46H11.5C10.1193 46 9 44.8807 9 43.5Z" fill="white" fill-opacity="0.5"/>
<path d="M0 5C0 2.79086 1.79086 1 4 1H44C46.2091 1 48 2.79086 48 5V33C48 35.2091 46.2091 37 44 37H4C1.79086 37 0 35.2091 0 33V5Z" fill="white" fill-opacity="0.5"/>
<path d="M21.5 10.5C21.5 9.11929 22.6193 8 24 8C25.3807 8 26.5 9.11929 26.5 10.5V27.5C26.5 28.8807 25.3807 30 24 30C22.6193 30 21.5 28.8807 21.5 27.5V10.5Z" fill="white"/>
<path d="M10.5 16.5C10.5 15.1193 11.6193 14 13 14C14.3807 14 15.5 15.1193 15.5 16.5V27.5C15.5 28.8807 14.3807 30 13 30C11.6193 30 10.5 28.8807 10.5 27.5V16.5Z" fill="white"/>
<path d="M32.5 20.5C32.5 19.1193 33.6193 18 35 18C36.3807 18 37.5 19.1193 37.5 20.5V27.5C37.5 28.8807 36.3807 30 35 30C33.6193 30 32.5 28.8807 32.5 27.5V20.5Z" fill="white"/>
</svg>
