<svg width="48" height="48" viewBox="0 0 48 48" fill="none" xmlns="http://www.w3.org/2000/svg">
<path fill-rule="evenodd" clip-rule="evenodd" d="M0 6C0 3.79086 1.79086 2 4 2H44C46.2091 2 48 3.79086 48 6V34C48 36.2091 46.2091 38 44 38H4C1.79086 38 0 36.2091 0 34V6ZM21.5 11.5C21.5 10.1193 22.6193 9 24 9C25.3807 9 26.5 10.1193 26.5 11.5V28.5C26.5 29.8807 25.3807 31 24 31C22.6193 31 21.5 29.8807 21.5 28.5V11.5ZM13 15C11.6193 15 10.5 16.1193 10.5 17.5V28.5C10.5 29.8807 11.6193 31 13 31C14.3807 31 15.5 29.8807 15.5 28.5V17.5C15.5 16.1193 14.3807 15 13 15ZM32.5 21.5C32.5 20.1193 33.6193 19 35 19C36.3807 19 37.5 20.1193 37.5 21.5V28.5C37.5 29.8807 36.3807 31 35 31C33.6193 31 32.5 29.8807 32.5 28.5V21.5ZM11.5 42C10.1193 42 9 43.1193 9 44.5C9 45.8807 10.1193 47 11.5 47H36.5C37.8807 47 39 45.8807 39 44.5C39 43.1193 37.8807 42 36.5 42H11.5Z" fill="white"/>
</svg>
