<svg width="48" height="48" viewBox="0 0 48 48" fill="none" xmlns="http://www.w3.org/2000/svg">
<path fill-rule="evenodd" clip-rule="evenodd" d="M25.9154 1.04481C24.7215 0.393591 23.2785 0.39359 22.0846 1.04481L4.08459 10.863C2.79955 11.5639 2 12.9108 2 14.3746V33.6255C2 35.0893 2.79955 36.4362 4.08459 37.1371L22.0846 46.9553C23.2785 47.6065 24.7215 47.6065 25.9154 46.9553L43.9154 37.1371C45.2005 36.4362 46 35.0893 46 33.6255V14.3746C46 12.9108 45.2005 11.5639 43.9154 10.863L25.9154 1.04481ZM32.5808 16.1003L23.9999 21.1058L15.419 16.1003C14.2264 15.4046 12.6956 15.8074 11.9999 17.0001C11.3042 18.1927 11.7071 19.7235 12.8997 20.4192L21.4999 25.436V34.5001C21.4999 35.8808 22.6192 37.0001 23.9999 37.0001C25.3806 37.0001 26.4999 35.8808 26.4999 34.5001V25.436L35.1001 20.4192C36.2928 19.7235 36.6956 18.1927 35.9999 17.0001C35.3042 15.8074 33.7734 15.4046 32.5808 16.1003Z" fill="white"/>
</svg>
