<svg width="48" height="48" viewBox="0 0 48 48" fill="none" xmlns="http://www.w3.org/2000/svg">
<g clip-path="url(#clip0_3347_108)">
<path d="M41.5 24C41.5 33.665 33.665 41.5 24 41.5C14.335 41.5 6.5 33.665 6.5 24C6.5 14.335 14.335 6.5 24 6.5C33.665 6.5 41.5 14.335 41.5 24Z" fill="#8797AA"/>
<path d="M23.9866 13.0229C19.5093 10.4379 13.6327 11.9564 11.0093 16.5002C8.38594 21.044 9.71477 26.7226 14.4865 29.4775C19.2583 32.2325 22.9545 29.7477 22.9545 29.7477C22.9545 29.7477 22.5275 27.5123 22.7713 25.4629C21.4124 26.4515 18.545 27.2019 16.4865 26.0134C13.8559 24.4946 12.9546 21.1309 14.4734 18.5002C15.9922 15.8696 19.3886 14.9871 21.9866 16.4871C24.5846 17.987 24.7456 20.743 24.6585 22.1941C24.5714 23.6452 24.2727 26.0141 24.4149 27.8801C24.557 29.7462 25.0674 32.1223 28.1108 33.8794C31.1543 35.6365 35.1951 34.6091 36.99 31.5002C38.785 28.3913 37.6419 24.371 34.6109 22.621C31.5799 20.8711 30.3075 21.8639 30.3075 21.8639C29.6046 23.3426 29.2655 24.9836 29.5538 26.5218C30.3316 25.7073 31.5922 25.497 32.6109 26.0851C33.8066 26.7755 34.2163 28.3045 33.5259 29.5002C32.8356 30.696 31.3066 31.1056 30.1109 30.4153C29.4784 30.0502 28.9136 29.3346 28.6885 28.8792C27.8894 27.2632 28.3658 24.688 28.6785 22.3209C28.9911 19.9538 28.4639 15.6079 23.9866 13.0229Z" fill="white"/>
<path d="M40.9826 9.97129C41.7984 10.088 42.3973 9.22335 42.0012 8.50073L38.3665 1.8692C38.0092 1.21731 37.0908 1.16933 36.6675 1.78044L35.7885 3.04944C24.3437 -3.39277 9.81732 0.565241 3.23512 11.9681C-1.23409 19.7105 -0.822876 28.5927 2.93693 35.4949C3.46236 36.4595 4.71179 36.7074 5.63375 36.1103C6.56688 35.506 6.82895 34.2535 6.31286 33.2688C3.23697 27.4001 3.14184 20.1309 6.69939 13.9678C12.1218 4.57408 24.0139 1.24333 33.4991 6.35484L32.8162 7.34083C32.3929 7.95194 32.7607 8.79485 33.4966 8.90014L40.9826 9.97129Z" fill="#8797AA"/>
<path d="M12.8311 45.1986L12.0482 46.329C11.6249 46.9401 10.7065 46.8921 10.3492 46.2402L6.71445 39.6087C6.31839 38.8861 6.91728 38.0214 7.73302 38.1381L15.2191 39.2093C15.955 39.3146 16.3228 40.1575 15.8995 40.7686L15.1285 41.8817C24.5123 46.5504 36.0308 43.1662 41.3421 33.965C44.8995 27.8021 44.7936 20.571 41.7159 14.7093C41.2024 13.7313 41.4474 12.4944 42.3699 11.8867C43.2921 11.2791 44.5403 11.5311 45.0758 12.4969C49.0589 19.6807 49.2877 28.2012 44.8063 35.9647C38.3345 47.1764 24.1826 51.1908 12.8311 45.1986Z" fill="#8797AA"/>
</g>
<defs>
<clipPath id="clip0_3347_108">
<rect width="48" height="48" fill="white"/>
</clipPath>
</defs>
</svg>
