<svg width="48" height="48" viewBox="0 0 48 48" fill="none" xmlns="http://www.w3.org/2000/svg">
<path fill-rule="evenodd" clip-rule="evenodd" d="M2.23024 18.5211C2.82645 20.3124 3.61661 22.1538 4.57948 23.9935C3.60425 25.8485 2.8037 27.7055 2.20049 29.5106C1.26567 32.3082 0.768666 35.0896 0.904412 37.6095C1.0403 40.1321 1.82806 42.5773 3.657 44.3761C5.4733 46.1625 7.91399 46.934 10.4338 47.0649C12.9523 47.1957 15.7279 46.703 18.5212 45.7733C20.3124 45.1771 22.1537 44.387 23.9933 43.4242C25.8483 44.3995 27.7054 45.2001 29.5106 45.8033C32.3082 46.7382 35.0896 47.2352 37.6095 47.0994C40.1321 46.9635 42.5773 46.1758 44.3761 44.3468C46.1625 42.5305 46.9339 40.0898 47.0648 37.57C47.1957 35.0515 46.703 32.2759 45.7733 29.4826C45.1647 27.6541 44.3541 25.7733 43.3639 23.8955C44.2898 22.068 45.0456 20.241 45.6164 18.466C46.5154 15.6706 46.9858 12.911 46.8806 10.4229C46.776 7.95027 46.0884 5.53406 44.4424 3.72658C42.7262 1.84186 40.2764 1.06933 37.7921 0.938773C35.2965 0.807624 32.5057 1.30099 29.6875 2.22732C27.8548 2.82971 25.9619 3.63127 24.0696 4.6106C22.1948 3.62119 20.3174 2.80995 18.493 2.20029C15.6954 1.26545 12.914 0.768426 10.394 0.904166C7.87144 1.04005 5.42623 1.82782 3.62738 3.65679C1.84099 5.47311 1.06954 7.91382 0.938654 10.4337C0.807837 12.9522 1.3005 15.7277 2.23024 18.5211ZM10.663 5.89693C8.95539 5.98891 7.85485 6.48905 7.19215 7.16285C6.51701 7.8493 6.02116 8.97495 5.93192 10.693C5.84261 12.4124 6.17698 14.5464 6.97436 16.9421C7.18865 17.5859 7.43389 18.2411 7.70878 18.9039C9.21436 16.7776 10.9332 14.723 12.8282 12.828C14.7266 10.9296 16.799 9.21285 18.9481 7.71195C18.2586 7.42303 17.5772 7.16605 16.9083 6.94253C14.5065 6.13995 12.3733 5.8048 10.663 5.89693ZM16.9422 41.0292C17.5859 40.8149 18.2411 40.5697 18.9038 40.2949C16.7775 38.7893 14.723 37.0706 12.828 35.1756C10.9264 33.274 9.20512 31.2145 7.70002 29.0845C7.41604 29.7641 7.16313 30.4357 6.94274 31.0953C6.14018 33.497 5.80504 35.6303 5.89717 37.3406C5.98916 39.0482 6.4893 40.1487 7.16308 40.8114C7.8495 41.4865 8.97514 41.9824 10.6932 42.0716C12.4126 42.1609 14.5465 41.8266 16.9422 41.0292ZM31.0953 41.0611C30.4357 40.8407 29.764 40.5877 29.0844 40.3037C31.2145 38.7986 33.274 37.0773 35.1757 35.1756C37.0847 33.2666 38.7939 31.1978 40.2778 29.0589C40.5596 29.7356 40.8105 30.4045 41.0292 31.0616C41.8265 33.4572 42.1609 35.5912 42.0716 37.3106C41.9823 39.0286 41.4865 40.1543 40.8113 40.8408C40.1487 41.5145 39.0481 42.0147 37.3405 42.1067C35.6303 42.1988 33.497 41.8637 31.0953 41.0611ZM40.8565 16.9352C40.6626 17.538 40.4428 18.1505 40.1976 18.7697C38.7179 16.6928 37.0328 14.6852 35.1756 12.828C33.2988 10.9512 31.2654 9.24722 29.1609 7.75203C29.867 7.46096 30.5646 7.20221 31.2488 6.9773C33.685 6.17654 35.8363 5.84289 37.5297 5.93188C39.2343 6.02147 40.2203 6.51623 40.7456 7.09304C41.3411 7.74708 41.8107 8.87661 41.8851 10.6342C41.9587 12.3763 41.6296 14.5313 40.8565 16.9352ZM16.5 19.4999C16.5 18.1192 17.6193 16.9999 19 16.9999H29C30.3807 16.9999 31.5 18.1192 31.5 19.4999C31.5 20.8807 30.3807 21.9999 29 21.9999H26.5V30.4999C26.5 31.8807 25.3807 32.9999 24 32.9999C22.6193 32.9999 21.5 31.8807 21.5 30.4999V21.9999H19C17.6193 21.9999 16.5 20.8807 16.5 19.4999Z" fill="white"/>
</svg>
