<svg width="48" height="48" viewBox="0 0 48 48" fill="none" xmlns="http://www.w3.org/2000/svg">
<path fill-rule="evenodd" clip-rule="evenodd" d="M8 0C6.89542 0 6 0.895447 6 2V26H2C0.895416 26 0 26.8954 0 28V46C0 47.1046 0.895447 48 2 48H46C47.1046 48 48 47.1046 48 46V28C48 26.8954 47.1046 26 46 26H42V7C42 5.89545 41.1046 5 40 5H36C34.8954 5 34 5.89545 34 7V26H29V7C29 5.89545 28.1046 5 27 5H23C21.8954 5 21 5.89545 21 7V26H16V2C16 0.895447 15.1046 0 14 0H8ZM34 26H42V35L38 33.5L34 35V26ZM8.5 37C7.11929 37 6 38.1193 6 39.5C6 40.8807 7.11929 42 8.5 42H20.5C21.8807 42 23 40.8807 23 39.5C23 38.1193 21.8807 37 20.5 37H8.5Z" fill="white"/>
</svg>
