<svg width="48" height="48" viewBox="0 0 48 48" fill="none" xmlns="http://www.w3.org/2000/svg">
<path fill-rule="evenodd" clip-rule="evenodd" d="M14.9999 2C13.8953 2 12.9999 2.89543 12.9999 4C12.9999 5.10458 13.8953 6 14.9999 6H15.9999V12H16.0061L1.91078 40.2122C0.582044 42.8718 2.51606 46 5.48903 46H42.5108C45.4838 46 47.4177 42.8718 46.089 40.2122L31.9938 12H31.9999V6H32.9999C34.1045 6 34.9999 5.10458 34.9999 4C34.9999 2.89543 34.1045 2 32.9999 2H14.9999ZM31.3638 18.5882C30.7107 16.8465 28.2418 16.8616 27.6101 18.6111L22.816 31.887L19.4089 23.8338C18.7639 22.3093 16.6518 22.1835 15.8305 23.6208L12.0492 30.238H10C8.61928 30.238 7.50001 31.3573 7.50001 32.738C7.50001 34.1188 8.61928 35.238 10 35.238H13.7902C14.5079 35.238 15.1705 34.8535 15.5267 34.2303L17.1652 31.3629L21.1949 40.8875C21.9038 42.563 24.3 42.4987 24.9179 40.7876L29.5443 27.9761L31.7808 33.9403C32.0736 34.7209 32.8198 35.238 33.6535 35.238H38C39.3807 35.238 40.5 34.1188 40.5 32.738C40.5 31.3573 39.3807 30.238 38 30.238H35.7325L31.3638 18.5882Z" fill="white"/>
</svg>
