<svg width="48" height="48" viewBox="0 0 48 48" fill="none" xmlns="http://www.w3.org/2000/svg">
<path d="M48 24C48 37.2548 37.2548 48 24 48C10.7452 48 0 37.2548 0 24C0 10.7452 10.7452 0 24 0C37.2548 0 48 10.7452 48 24Z" fill="#8797AA"/>
<path fill-rule="evenodd" clip-rule="evenodd" d="M15.0002 10.9981C13.7652 11.6156 13.2647 13.1173 13.8822 14.3522L21.3169 29.2217C22.4225 31.4329 25.5779 31.4329 26.6835 29.2217L34.1182 14.3522C34.7357 13.1173 34.2351 11.6156 33.0002 10.9981C31.7652 10.3806 30.2636 10.8812 29.6461 12.1162L24.0002 23.408L18.3543 12.1162C17.7368 10.8812 16.2351 10.3806 15.0002 10.9981ZM30.5 38.0001C31.8807 38.0001 33 36.8808 33 35.5001C33 34.1194 31.8807 33.0001 30.5 33.0001H17.5C16.1193 33.0001 15 34.1194 15 35.5001C15 36.8808 16.1193 38.0001 17.5 38.0001H30.5Z" fill="white"/>
</svg>
