<svg width="48" height="48" viewBox="0 0 48 48" fill="none" xmlns="http://www.w3.org/2000/svg">
<path d="M24 12.21C24 12.9923 24.8581 13.4725 25.5244 13.0625L29.9756 10.3223C30.297 10.1245 30.703 10.1245 31.0244 10.3223L35.4756 13.0625C36.1419 13.4725 37 12.9923 37 12.21V0H40C42.2091 5.15405e-07 44 1.79086 44 4V44C44 46.2091 42.2091 48 40 48H8C5.79086 48 4 46.2091 4 44V4C4 1.79086 5.79086 3.22128e-08 8 0H24V12.21ZM12.5 30C11.1193 30 10 31.1193 10 32.5C10 33.8807 11.1193 35 12.5 35H22.5C23.8807 35 25 33.8807 25 32.5C25 31.1193 23.8807 30 22.5 30H12.5ZM12.5 21C11.1193 21 10 22.1193 10 23.5C10 24.8807 11.1193 26 12.5 26H30.5C31.8807 26 33 24.8807 33 23.5C33 22.1193 31.8807 21 30.5 21H12.5Z" fill="white"/>
</svg>
