<svg width="48" height="48" viewBox="0 0 48 48" fill="none" xmlns="http://www.w3.org/2000/svg">
<path fill-rule="evenodd" clip-rule="evenodd" d="M2 0C0.895431 0 0 0.895432 0 2V41C0 42.1046 0.89543 43 2 43H25.4527C24.8399 42.2258 24.5 41.5139 24.5 41C24.5 39 29.6487 34 36 34C36.6822 34 37.3505 34.0577 38 34.1631V2C38 0.895431 37.1046 0 36 0H2Z" fill="#8797AA"/>
<path fill-rule="evenodd" clip-rule="evenodd" d="M47.5 41C47.5 43 42.3513 48 36 48C29.6487 48 24.5 43 24.5 41C24.5 39 29.6487 34 36 34C42.3513 34 47.5 39 47.5 41ZM41.5 41C41.5 44.0376 39.0376 46.5 36 46.5C32.9624 46.5 30.5 44.0376 30.5 41C30.5 37.9624 32.9624 35.5 36 35.5C39.0376 35.5 41.5 37.9624 41.5 41ZM36 43.75C37.5188 43.75 38.75 42.5188 38.75 41C38.75 39.4812 37.5188 38.25 36 38.25C34.4812 38.25 33.25 39.4812 33.25 41C33.25 42.5188 34.4812 43.75 36 43.75Z" fill="white"/>
<path fill-rule="evenodd" clip-rule="evenodd" d="M9 14C9 13.4477 9.44771 13 10 13H13C13.5523 13 14 13.4477 14 14V28C14 28.5523 13.5523 29 13 29H10C9.44771 29 9 28.5523 9 28V14ZM17 16C17 15.4477 17.4477 15 18 15H21C21.5523 15 22 15.4477 22 16V26C22 26.5523 21.5523 27 21 27H18C17.4477 27 17 26.5523 17 26V16ZM26 17C25.4477 17 25 17.4477 25 18V24C25 24.5523 25.4477 25 26 25H29C29.5523 25 30 24.5523 30 24V18C30 17.4477 29.5523 17 29 17H26Z" fill="white"/>
</svg>
