<svg width="48" height="48" viewBox="0 0 48 48" fill="none" xmlns="http://www.w3.org/2000/svg">
<path fill-rule="evenodd" clip-rule="evenodd" d="M27.9999 4C27.9999 6.20914 26.209 8 23.9999 8C21.7908 8 19.9999 6.20914 19.9999 4C19.9999 1.79086 21.7908 0 23.9999 0C26.209 0 27.9999 1.79086 27.9999 4ZM9.99989 8C8.51933 8 7.22664 8.8044 6.53502 10H2.16859C1.00029 10 0.0807127 10.9971 0.17513 12.1616L2.85081 45.1616C2.93501 46.2001 3.80237 47 4.84426 47H43.1555C44.1974 47 45.0647 46.2001 45.1489 45.1616L47.8246 12.1616C47.919 10.9972 46.9994 10 45.8311 10H41.8739C41.9561 9.68038 41.9999 9.3453 41.9999 9C41.9999 6.79086 40.209 5 37.9999 5C35.7908 5 33.9999 6.79086 33.9999 9C33.9999 9.3453 34.0436 9.68038 34.1259 10H13.4648C12.7731 8.8044 11.4805 8 9.99989 8ZM14.9999 17C13.6192 17 12.4999 18.1193 12.4999 19.5V20C12.4999 26.3513 17.6486 31.5 23.9999 31.5C30.3511 31.5 35.4999 26.3513 35.4999 20V19.5C35.4999 18.1193 34.3806 17 32.9999 17C31.6192 17 30.4999 18.1193 30.4999 19.5V20C30.4999 23.5899 27.5897 26.5 23.9999 26.5C20.41 26.5 17.4999 23.5899 17.4999 20V19.5C17.4999 18.1193 16.3806 17 14.9999 17Z" fill="white"/>
</svg>
