<svg width="48" height="48" viewBox="0 0 48 48" fill="none" xmlns="http://www.w3.org/2000/svg">
<path d="M0.17513 12.1616C0.0807127 10.9971 1.00029 10 2.16859 10H45.8311C46.9994 10 47.919 10.9972 47.8246 12.1616L45.1489 45.1616C45.0647 46.2001 44.1974 47 43.1555 47H4.84426C3.80237 47 2.93501 46.2001 2.85081 45.1616L0.17513 12.1616Z" fill="#8797AA"/>
<path fill-rule="evenodd" clip-rule="evenodd" d="M24 8C26.2092 8 28 6.20914 28 4C28 1.79086 26.2092 0 24 0C21.7909 0 20 1.79086 20 4C20 6.20914 21.7909 8 24 8ZM13.4649 10H6.53516C7.22678 8.8044 8.51946 8 10 8C11.4806 8 12.7733 8.8044 13.4649 10ZM41.874 10H34.126C34.0438 9.68038 34 9.3453 34 9C34 6.79086 35.7909 5 38 5C40.2092 5 42 6.79086 42 9C42 9.3453 41.9563 9.68038 41.874 10Z" fill="white"/>
<path fill-rule="evenodd" clip-rule="evenodd" d="M17.5 20C17.5 23.5899 20.4101 26.5 24 26.5C27.5899 26.5 30.5 23.5899 30.5 20H35.5C35.5 26.3513 30.3513 31.5 24 31.5C17.6487 31.5 12.5 26.3513 12.5 20H17.5Z" fill="white"/>
<path d="M12.5 19.5C12.5 18.1193 13.6193 17 15 17C16.3807 17 17.5 18.1193 17.5 19.5V20H12.5V19.5Z" fill="white"/>
<path d="M30.5 19.5C30.5 18.1193 31.6193 17 33 17C34.3807 17 35.5 18.1193 35.5 19.5V20H30.5V19.5Z" fill="white"/>
</svg>
