<svg width="48" height="48" viewBox="0 0 48 48" fill="none" xmlns="http://www.w3.org/2000/svg">
<g clip-path="url(#clip0_4315_2377)">
<path d="M6 25C6 22.7909 7.79086 21 10 21H38C40.2091 21 42 22.7909 42 25V44C42 46.2091 40.2091 48 38 48H10C7.79086 48 6 46.2091 6 44V25Z" fill="url(#paint0_linear_4315_2377)"/>
<circle cx="24" cy="4" r="4" fill="url(#paint1_linear_4315_2377)"/>
<circle cx="10" cy="12.0002" r="4" fill="url(#paint2_linear_4315_2377)"/>
<circle cx="38" cy="9.00024" r="4" fill="url(#paint3_linear_4315_2377)"/>
<foreignObject x="-2.64258" y="6.99976" width="56.2856" height="44.0002"><div xmlns="http://www.w3.org/1999/xhtml" style="backdrop-filter:blur(1.5px);clip-path:url(#bgblur_1_4315_2377_clip_path);height:100%;width:100%"></div></foreignObject><g filter="url(#filter0_ii_4315_2377)" data-figma-bg-blur-radius="3">
<path d="M0.372327 14.3414C0.172155 12.006 2.01379 9.99976 4.35771 9.99976H43.6427C45.9866 9.99976 47.8282 12.006 47.6281 14.3414L45.3138 41.3416C45.1364 43.4107 43.4051 45 41.3284 45H6.67201C4.59528 45 2.86397 43.4107 2.68662 41.3416L0.372327 14.3414Z" fill="white" fill-opacity="0.4"/>
</g>
<path fill-rule="evenodd" clip-rule="evenodd" d="M43.6427 10.9998H4.35771C2.59977 10.9998 1.21854 12.5044 1.36867 14.256L3.68296 41.2562C3.81598 42.8081 5.11446 44 6.67201 44H41.3284C42.8859 44 44.1844 42.8081 44.3174 41.2562L46.6317 14.256C46.7818 12.5044 45.4006 10.9998 43.6427 10.9998ZM4.35771 9.99976C2.01379 9.99976 0.172155 12.006 0.372327 14.3414L2.68662 41.3416C2.86397 43.4107 4.59528 45 6.67201 45H41.3284C43.4051 45 45.1364 43.4107 45.3138 41.3416L47.6281 14.3414C47.8282 12.006 45.9866 9.99976 43.6427 9.99976H4.35771Z" fill="url(#paint4_radial_4315_2377)" fill-opacity="0.4"/>
<g filter="url(#filter1_d_4315_2377)">
<path fill-rule="evenodd" clip-rule="evenodd" d="M12.5 19.5002C12.5 18.1195 13.6193 17.0002 15 17.0002C16.3807 17.0002 17.5 18.1195 17.5 19.5002V20.0002C17.5 23.5901 20.4101 26.5002 24 26.5002C27.5899 26.5002 30.5 23.5901 30.5 20.0002V19.5002C30.5 18.1195 31.6193 17.0002 33 17.0002C34.3807 17.0002 35.5 18.1195 35.5 19.5002V20.0002C35.5 26.3515 30.3513 31.5002 24 31.5002C17.6487 31.5002 12.5 26.3515 12.5 20.0002V19.5002Z" fill="white"/>
</g>
</g>
<defs>
<filter id="filter0_ii_4315_2377" x="-2.64258" y="6.99976" width="56.2856" height="44.0002" filterUnits="userSpaceOnUse" color-interpolation-filters="sRGB">
<feFlood flood-opacity="0" result="BackgroundImageFix"/>
<feBlend mode="normal" in="SourceGraphic" in2="BackgroundImageFix" result="shape"/>
<feColorMatrix in="SourceAlpha" type="matrix" values="0 0 0 0 0 0 0 0 0 0 0 0 0 0 0 0 0 0 127 0" result="hardAlpha"/>
<feOffset dy="0.736477"/>
<feGaussianBlur stdDeviation="3.25"/>
<feComposite in2="hardAlpha" operator="arithmetic" k2="-1" k3="1"/>
<feColorMatrix type="matrix" values="0 0 0 0 0.00392157 0 0 0 0 0.419608 0 0 0 0 1 0 0 0 0.2 0"/>
<feBlend mode="normal" in2="shape" result="effect1_innerShadow_4315_2377"/>
<feColorMatrix in="SourceAlpha" type="matrix" values="0 0 0 0 0 0 0 0 0 0 0 0 0 0 0 0 0 0 127 0" result="hardAlpha"/>
<feOffset dx="6" dy="6"/>
<feGaussianBlur stdDeviation="6.75"/>
<feComposite in2="hardAlpha" operator="arithmetic" k2="-1" k3="1"/>
<feColorMatrix type="matrix" values="0 0 0 0 0.00392157 0 0 0 0 0.419608 0 0 0 0 1 0 0 0 0.25 0"/>
<feBlend mode="normal" in2="effect1_innerShadow_4315_2377" result="effect2_innerShadow_4315_2377"/>
</filter>
<clipPath id="bgblur_1_4315_2377_clip_path" transform="translate(2.64258 -6.99976)"><path d="M0.372327 14.3414C0.172155 12.006 2.01379 9.99976 4.35771 9.99976H43.6427C45.9866 9.99976 47.8282 12.006 47.6281 14.3414L45.3138 41.3416C45.1364 43.4107 43.4051 45 41.3284 45H6.67201C4.59528 45 2.86397 43.4107 2.68662 41.3416L0.372327 14.3414Z"/>
</clipPath><filter id="filter1_d_4315_2377" x="8.5" y="14.0002" width="31" height="22.5" filterUnits="userSpaceOnUse" color-interpolation-filters="sRGB">
<feFlood flood-opacity="0" result="BackgroundImageFix"/>
<feColorMatrix in="SourceAlpha" type="matrix" values="0 0 0 0 0 0 0 0 0 0 0 0 0 0 0 0 0 0 127 0" result="hardAlpha"/>
<feOffset dy="1"/>
<feGaussianBlur stdDeviation="2"/>
<feComposite in2="hardAlpha" operator="out"/>
<feColorMatrix type="matrix" values="0 0 0 0 0.00392157 0 0 0 0 0.419608 0 0 0 0 1 0 0 0 0.4 0"/>
<feBlend mode="normal" in2="BackgroundImageFix" result="effect1_dropShadow_4315_2377"/>
<feBlend mode="normal" in="SourceGraphic" in2="effect1_dropShadow_4315_2377" result="shape"/>
</filter>
<linearGradient id="paint0_linear_4315_2377" x1="34.2857" y1="23.8929" x2="2.76239" y2="67.6866" gradientUnits="userSpaceOnUse">
<stop stop-color="#016BFF"/>
<stop offset="1" stop-color="#0056CD"/>
</linearGradient>
<linearGradient id="paint1_linear_4315_2377" x1="26.2857" y1="0.857143" x2="16.4444" y2="11.1111" gradientUnits="userSpaceOnUse">
<stop stop-color="#016BFF"/>
<stop offset="1" stop-color="#0056CD"/>
</linearGradient>
<linearGradient id="paint2_linear_4315_2377" x1="12.2857" y1="8.85739" x2="2.44444" y2="19.1114" gradientUnits="userSpaceOnUse">
<stop stop-color="#016BFF"/>
<stop offset="1" stop-color="#0056CD"/>
</linearGradient>
<linearGradient id="paint3_linear_4315_2377" x1="40.2857" y1="5.85739" x2="30.4444" y2="16.1114" gradientUnits="userSpaceOnUse">
<stop stop-color="#016BFF"/>
<stop offset="1" stop-color="#0056CD"/>
</linearGradient>
<radialGradient id="paint4_radial_4315_2377" cx="0" cy="0" r="1" gradientUnits="userSpaceOnUse" gradientTransform="translate(23.5002 46) rotate(-89.2043) scale(36.0035 45.8539)">
<stop stop-color="white"/>
<stop offset="1" stop-color="#016BFF" stop-opacity="0.5"/>
</radialGradient>
<clipPath id="clip0_4315_2377">
<rect width="48" height="48" fill="white"/>
</clipPath>
</defs>
</svg>
