<svg width="48" height="48" viewBox="0 0 48 48" fill="none" xmlns="http://www.w3.org/2000/svg">
<path fill-rule="evenodd" clip-rule="evenodd" d="M2 6C2 3.79086 3.79086 2 6 2H18C20.2091 2 22 3.79086 22 6V18C22 20.2091 20.2091 22 18 22H6C3.79086 22 2 20.2091 2 18V6ZM2 30C2 27.7909 3.79086 26 6 26H18C20.2091 26 22 27.7909 22 30V42C22 44.2091 20.2091 46 18 46H6C3.79086 46 2 44.2091 2 42V30ZM30 26C27.7909 26 26 27.7909 26 30V42C26 44.2091 27.7909 46 30 46H42C44.2091 46 46 44.2091 46 42V30C46 27.7909 44.2091 26 42 26H30Z" fill="white"/>
<path fill-rule="evenodd" clip-rule="evenodd" d="M41 9C41 7.89543 40.1046 7 39 7H33C31.8954 7 31 7.89543 31 9V15C31 16.1046 31.8954 17 33 17H39C40.1046 17 41 16.1046 41 15V9ZM30 2C27.7909 2 26 3.79086 26 6V18C26 20.2091 27.7909 22 30 22H42C44.2091 22 46 20.2091 46 18V6C46 3.79086 44.2091 2 42 2H30Z" fill="white"/>
</svg>
