<svg width="48" height="48" viewBox="0 0 48 48" fill="none" xmlns="http://www.w3.org/2000/svg">
<path d="M0 34C0 31.7909 1.79086 30 4 30H44C46.2091 30 48 31.7909 48 34V44C48 46.2091 46.2091 48 44 48H4C1.79086 48 0 46.2091 0 44V34Z" fill="#8797AA"/>
<path d="M0 13C0 10.7909 1.79086 9 4 9H44C46.2091 9 48 10.7909 48 13V23C48 25.2091 46.2091 27 44 27H4C1.79086 27 0 25.2091 0 23V13Z" fill="white" fill-opacity="0.5"/>
<path d="M15 18C15 16.6193 16.1193 15.5 17.5 15.5H30.5C31.8807 15.5 33 16.6193 33 18C33 19.3807 31.8807 20.5 30.5 20.5H17.5C16.1193 20.5 15 19.3807 15 18Z" fill="white"/>
<path d="M15 39C15 37.6353 16.1063 36.5291 17.4709 36.5291H30.5291C31.8937 36.5291 33 37.6353 33 39C33 40.3646 31.8937 41.4709 30.5291 41.4709H17.4709C16.1063 41.4709 15 40.3646 15 39Z" fill="white"/>
<path d="M6.80062 1.43926C7.56059 0.527291 8.68638 0 9.8735 0H38.1265C39.3136 0 40.4394 0.527292 41.1994 1.43926L45 6H3L6.80062 1.43926Z" fill="#8797AA"/>
</svg>
