<svg width="48" height="48" viewBox="0 0 48 48" fill="none" xmlns="http://www.w3.org/2000/svg">
<path d="M5.14809 24C2.35833 24 1.079 20.5253 3.20269 18.7163L22.0547 2.65719C23.1758 1.70216 24.8243 1.70216 25.9455 2.65719L44.7974 18.7163C46.9211 20.5253 45.6418 24 42.852 24H5.14809Z" fill="#8797AA"/>
<path d="M11.0001 46C8.79091 46 7.00005 44.2091 7.00005 42V24H41.0001V42C41.0001 44.2091 39.2092 46 37.0001 46H11.0001Z" fill="#8797AA"/>
<path d="M24 34C21.2386 34 19 36.2386 19 39V46H29V39C29 36.2386 26.7614 34 24 34Z" fill="white"/>
</svg>
