<svg width="48" height="48" viewBox="0 0 48 48" fill="none" xmlns="http://www.w3.org/2000/svg">
<path fill-rule="evenodd" clip-rule="evenodd" d="M18.8327 4.11393C18.7545 4.47911 18.4786 4.76823 18.1216 4.87785C16.8844 5.25772 15.6983 5.75435 14.5762 6.35489C14.2457 6.53177 13.8445 6.52313 13.5298 6.31949L10.9518 4.65137C10.5559 4.3952 10.0349 4.4504 9.70146 4.78383L4.78382 9.70147C4.45039 10.0349 4.39519 10.5559 4.65136 10.9518L6.31948 13.5298C6.52312 13.8446 6.53176 14.2458 6.35488 14.5763C5.75434 15.6984 5.25772 16.8844 4.87785 18.1216C4.76823 18.4786 4.47911 18.7545 4.11393 18.8327L0.790471 19.5449C0.3294 19.6437 0 20.0512 0 20.5227V27.4773C0 27.9488 0.3294 28.3563 0.790471 28.4551L4.11393 29.1673C4.47911 29.2455 4.76823 29.5214 4.87785 29.8784C5.26605 31.1427 5.77619 32.3537 6.39455 33.4975C6.57356 33.8286 6.56575 34.2317 6.36126 34.5478L4.65137 37.1903C4.3952 37.5862 4.4504 38.1072 4.78383 38.4407L9.70147 43.3583C10.0349 43.6917 10.5559 43.7469 10.9518 43.4908L13.6504 41.7446C13.9631 41.5423 14.3614 41.5324 14.6909 41.706C15.779 42.2793 16.9265 42.7552 18.1216 43.1222C18.4786 43.2318 18.7545 43.5209 18.8327 43.8861L19.5449 47.2095C19.6437 47.6706 20.0512 48 20.5227 48H27.4773C27.9488 48 28.3563 47.6706 28.4551 47.2095L29.1673 43.8861C29.2455 43.5209 29.5214 43.2318 29.8784 43.1222C31.1008 42.7468 32.2732 42.2575 33.3834 41.6667C33.7135 41.4909 34.1137 41.5 34.4277 41.7032L37.1903 43.4908C37.5862 43.7469 38.1073 43.6917 38.4407 43.3583L43.3583 38.4407C43.6917 38.1072 43.7469 37.5862 43.4908 37.1903L41.7032 34.4277C41.5 34.1137 41.4909 33.7135 41.6667 33.3834C42.2575 32.2732 42.7468 31.1008 43.1222 29.8784C43.2318 29.5214 43.5209 29.2455 43.8861 29.1673L47.2095 28.4551C47.6706 28.3563 48 27.9488 48 27.4773V20.5227C48 20.0512 47.6706 19.6437 47.2095 19.5449L43.8861 18.8327C43.5209 18.7545 43.2318 18.4786 43.1222 18.1216C42.7552 16.9265 42.2793 15.779 41.706 14.6909C41.5324 14.3614 41.5423 13.9631 41.7446 13.6504L43.4908 10.9518C43.747 10.5559 43.6918 10.0349 43.3583 9.70147L38.4407 4.78383C38.1073 4.4504 37.5862 4.3952 37.1903 4.65137L34.5478 6.36127C34.2317 6.56576 33.8286 6.57356 33.4975 6.39455C32.3537 5.77619 31.1427 5.26605 29.8784 4.87785C29.5214 4.76823 29.2455 4.47911 29.1673 4.11393L28.4551 0.79047C28.3563 0.329399 27.9488 0 27.4773 0H20.5227C20.0512 0 19.6437 0.3294 19.5449 0.790471L18.8327 4.11393ZM18.5 24C18.5 20.9624 20.9624 18.5 24 18.5C27.0376 18.5 29.5 20.9624 29.5 24C29.5 27.0376 27.0376 29.5 24 29.5C20.9624 29.5 18.5 27.0376 18.5 24ZM24 13.5C18.201 13.5 13.5 18.201 13.5 24C13.5 29.799 18.201 34.5 24 34.5C29.799 34.5 34.5 29.799 34.5 24C34.5 18.201 29.799 13.5 24 13.5Z" fill="white"/>
</svg>
