<svg width="48" height="48" viewBox="0 0 48 48" fill="none" xmlns="http://www.w3.org/2000/svg">
<path d="M3.20269 18.7163C1.079 20.5253 2.35833 24 5.14809 24H7.00005V42C7.00005 44.2091 8.79091 46 11.0001 46L19.0001 46V39C19.0001 36.2386 21.2386 34 24.0001 34C26.7615 34 29.0001 36.2386 29.0001 39V46L37.0001 46C39.2092 46 41.0001 44.2091 41.0001 42V24H42.852C45.6418 24 46.9211 20.5253 44.7974 18.7163L25.9455 2.65719C24.8243 1.70216 23.1758 1.70216 22.0547 2.65719L3.20269 18.7163Z" fill="white"/>
</svg>
