<svg width="175" height="30" viewBox="0 0 175 30" fill="none" xmlns="http://www.w3.org/2000/svg">
<path fill-rule="evenodd" clip-rule="evenodd" d="M11.4434 0C12.276 0.364583 13.0724 0.802083 13.7964 1.38542C15.7149 2.84375 17.1267 4.66667 18.2127 6.78125C19.371 9.00521 20.0588 11.375 20.4932 13.8542C20.819 15.7865 21 17.7552 21 19.724C21 19.9792 21 20.2344 21 20.4896C21 20.7083 20.9276 20.8542 20.7104 20.9635C20.4932 21.0365 20.3484 21 20.1674 20.8542C19.3348 20.0885 18.3575 19.5781 17.2715 19.25C16.5475 19.0313 15.8597 18.9219 15.0995 18.8854C14.4842 18.8854 14.1222 18.4115 14.267 17.7917C14.5566 16.6615 14.7738 15.5313 14.9548 14.3646C15.3529 11.2656 15.2443 8.23958 14.1946 5.28646C13.6516 3.79167 12.8914 2.44271 11.8054 1.27604C11.6244 1.05729 11.4072 0.875 11.19 0.692708C10.9367 0.4375 10.9367 0.255208 11.19 0.0364581C11.2624 -2.0916e-07 11.371 0 11.4434 0Z" fill="#016BFF"/>
<path fill-rule="evenodd" clip-rule="evenodd" d="M18.5582 26.9194C15.1669 26.9194 11.7383 26.9597 8.34698 26.9194C4.62025 26.879 1.7134 24.0567 1.11712 20.3069C0.409041 16.033 2.98049 11.9204 6.96809 11.1543C9.42774 10.6705 11.6265 11.3156 13.4526 13.2107C13.8253 13.6139 13.8625 14.1783 13.4899 14.5412C13.1545 14.9041 12.6327 14.9041 12.2601 14.5009C10.1731 12.2833 6.85629 12.1623 4.69478 14.3396C3.09229 15.9927 2.53328 18.049 3.12956 20.3472C3.72583 22.6455 5.21653 24.0163 7.37803 24.5405C7.71344 24.6211 8.04884 24.6615 8.42152 24.6615C15.2414 24.6615 22.0241 24.6615 28.844 24.6615C29.403 24.6615 29.813 24.984 29.962 25.5082C30.1484 26.2742 29.6266 26.9597 28.8813 27C28.1359 27 27.3533 27 26.608 27C23.962 26.9194 21.2415 26.9194 18.5582 26.9194Z" fill="#016BFF"/>
<path fill-rule="evenodd" clip-rule="evenodd" d="M44 17.3824C44 22.0896 40.5043 26.0184 35.6338 26.8709C34.9268 26.9821 34.2198 27.0562 33.5128 26.945C33.12 26.8709 32.9236 26.6114 32.9236 26.2037C32.9629 25.9072 33.1592 25.7219 33.552 25.6848C35.7123 25.5365 37.5584 24.7582 39.0902 23.3497C40.5042 22.0525 41.3291 20.4587 41.5255 18.6055C41.8397 16.011 40.9756 13.7501 39.051 11.8968C37.4798 10.4143 35.5552 9.6359 33.3164 9.56177C31.5096 9.48764 29.8206 9.96948 28.328 10.8961C28.1317 11.0073 27.9353 11.1185 27.6996 11.1926C27.4639 11.2667 27.189 11.1555 27.0711 11.0073C26.9533 10.822 26.9926 10.6366 27.1104 10.4513C27.189 10.3031 27.3461 10.2289 27.4639 10.1177C29.4278 8.67222 31.6274 7.93094 34.1019 8.00506C36.655 8.07919 38.8546 8.93168 40.7399 10.5996C42.4289 12.0822 43.4501 13.9354 43.8429 16.0851C43.9607 16.4558 44 16.9376 44 17.3824Z" fill="#016BFF"/>
<path fill-rule="evenodd" clip-rule="evenodd" d="M54.5213 11.8755C54.5213 10.9245 54.5213 9.97358 54.5213 9.02264C54.5213 8.85283 54.4851 8.78491 54.2681 8.78491C52.9298 8.78491 51.5915 8.78491 50.217 8.78491C50.0362 8.78491 50 8.75094 50 8.58113C50 8.20755 50 7.83396 50 7.49434C50 7.32453 50.0723 7.29057 50.217 7.29057C51.5553 7.29057 52.8936 7.29057 54.2681 7.29057C54.4489 7.29057 54.5213 7.2566 54.5213 7.05283C54.5213 6.74717 54.5213 6.47547 54.5213 6.16981C54.5213 6.03396 54.5574 6 54.7021 6C55.1723 6 55.6064 6 56.0766 6C56.2213 6 56.2574 6.06792 56.2574 6.16981C56.2574 6.47547 56.2574 6.78113 56.2574 7.08679C56.2574 7.22264 56.2936 7.29057 56.4383 7.29057C57.8128 7.29057 59.1511 7.29057 60.5255 7.29057C60.6702 7.29057 60.7426 7.2566 60.7064 7.08679C60.7064 6.78113 60.7064 6.47547 60.7064 6.16981C60.7064 6.03396 60.7426 6 60.8872 6C61.3574 6 61.7915 6 62.2617 6C62.4064 6 62.4426 6.03396 62.4426 6.16981C62.4426 6.47547 62.4426 6.74717 62.4426 7.05283C62.4426 7.22264 62.4787 7.29057 62.6957 7.29057C64.034 7.29057 65.3723 7.29057 66.7468 7.29057C66.9638 7.29057 67 7.35849 67 7.5283C67 7.86792 67 8.24151 67 8.58113C67 8.75094 66.9638 8.78491 66.783 8.78491C65.4447 8.78491 64.0702 8.78491 62.7319 8.78491C62.5149 8.78491 62.4787 8.81887 62.4787 9.02264C62.4787 9.36226 62.4787 9.66792 62.4787 10.0075C62.4787 10.1434 62.4426 10.1774 62.2979 10.1774C61.8277 10.1774 61.3936 10.1774 60.9234 10.1774C60.7787 10.1774 60.7426 10.1434 60.7426 10.0075C60.7426 9.66792 60.7426 9.29434 60.7426 8.95472C60.7426 8.85283 60.7064 8.78491 60.5617 8.81887C59.1872 8.81887 57.8128 8.81887 56.4021 8.81887C56.2213 8.81887 56.2574 8.92075 56.2574 9.02264C56.2574 10.9245 56.2574 12.8264 56.2574 14.7283C56.2574 14.9321 56.2213 15 56.0043 15C55.6064 14.966 55.2085 15 54.7745 15C54.5936 15 54.5574 14.966 54.5574 14.7962C54.5574 13.8113 54.5574 12.8264 54.5213 11.8755C54.5574 11.8755 54.5574 11.8755 54.5213 11.8755Z" fill="#016BFF"/>
<path fill-rule="evenodd" clip-rule="evenodd" d="M24.7301 18.7301C24.6934 16.5316 24.3995 14.368 23.7382 12.2393C23.334 10.9133 22.8196 9.58723 22.0848 8.36585C22.0114 8.26117 21.9379 8.15648 22.0848 8.05179C22.2318 7.9471 22.342 8.01689 22.4522 8.12158C23.5545 9.06378 24.473 10.1805 25.2445 11.4018C26.6774 13.6352 27.5591 16.043 27.8898 18.6603C28.0367 20.0212 28.0367 21.3473 27.8898 22.7082C27.8898 22.8478 27.8163 22.9525 27.6326 22.9874C27.4856 23.0223 27.3754 22.9874 27.3019 22.8478C27.0815 22.3593 26.6774 22.0103 26.2732 21.6962C26.016 21.4869 25.7221 21.3124 25.3915 21.1379C24.9506 20.8936 24.7301 20.5447 24.7301 20.0561C24.7301 19.6025 24.7301 19.1837 24.7301 18.7301Z" fill="#016BFF"/>
<path fill-rule="evenodd" clip-rule="evenodd" d="M77 16.4519C77 17.9006 77 19.3829 77 20.8316C77 21 76.8859 21 76.7717 21C75.25 21 73.6902 21 72.1685 21C71.5217 21 70.837 21 70.1902 21C70.0761 21 70 21 70 20.8316C70 19.2145 70 17.5974 70 16.014C70.0761 15.9803 70.1522 16.014 70.2283 16.0476C70.5707 16.2161 70.9511 16.3845 71.2935 16.5193C71.4457 16.5867 71.5978 16.6204 71.6359 16.8225C71.6739 17.5974 71.6359 18.3722 71.6359 19.1471C71.6359 19.5514 71.6359 19.5514 72.0924 19.5514C72.5489 19.5514 72.5109 19.5514 72.5489 19.1471C72.5489 18.6417 72.5109 18.1701 72.5489 17.6647C72.587 17.53 72.663 17.4963 72.7772 17.4289C73.1956 17.1594 73.6522 17.0583 74.1467 16.9909C74.2609 16.9909 74.337 16.9573 74.413 17.0583C74.4511 17.1594 74.4511 17.2605 74.4511 17.3615C74.4511 18.0016 74.4511 18.6417 74.4511 19.2818C74.4511 19.5177 74.4891 19.5514 74.7554 19.5514C75.4783 19.5514 75.3641 19.6187 75.4022 19.0123C75.4022 18.4396 75.4022 17.8332 75.4022 17.2605C75.4022 17.1594 75.4022 17.0583 75.4402 16.9573C75.4783 16.8562 75.5924 16.8562 75.6685 16.8225C76.125 16.7551 76.5815 16.6877 76.962 16.4519C76.8859 16.4182 76.962 16.4182 77 16.4519Z" fill="#016BFF"/>
<path fill-rule="evenodd" clip-rule="evenodd" d="M28.6348 9C28.4527 7.38604 27.8702 5.94656 26.8872 4.81242C24.9576 2.58777 22.1906 2.06432 19.7877 3.5038C19.6421 3.59104 19.5329 3.67828 19.3873 3.63466C19.2052 3.59104 19.0596 3.46018 19.0232 3.24208C18.9504 2.98035 19.0596 2.80587 19.2052 2.67501C19.4601 2.4569 19.7513 2.2388 20.0426 2.06432C22.9916 0.232251 26.5595 0.799319 28.9988 3.5038C29.8726 4.46345 30.528 5.64121 30.9648 6.94983C31.0377 7.16793 31.0012 7.25517 30.8192 7.38604C30.0182 7.86586 29.2901 8.38931 28.6348 9Z" fill="#016BFF"/>
<path fill-rule="evenodd" clip-rule="evenodd" d="M81.9953 9C80.4059 9 78.8165 9 77.2271 9C77.0378 9 77 8.97069 77 8.82415C77 8.50176 77 8.20868 77 7.88629C77 7.73975 77.0757 7.71044 77.2271 7.71044C78.5137 7.71044 79.7625 7.71044 81.0492 7.71044C81.2384 7.71044 81.2763 7.68113 81.2384 7.53459C81.0492 7.12428 80.8978 6.71397 80.7086 6.33296C80.6708 6.21573 80.6708 6.18642 80.8221 6.18642C81.2763 6.1278 81.6925 6.06919 82.1466 6.01057C82.298 5.98126 82.3737 6.01057 82.4115 6.1278C82.6008 6.59673 82.79 7.06566 82.9413 7.5639C82.9792 7.68113 83.0549 7.73975 83.2062 7.73975C84.3794 7.73975 85.5903 7.73975 86.7635 7.73975C86.9527 7.73975 87.0284 7.76906 86.9905 7.9156C86.9905 8.20868 86.9905 8.50176 86.9905 8.79484C86.9905 8.94138 86.9527 9 86.7256 9C85.1741 9 83.5847 9 81.9953 9Z" fill="#016BFF"/>
<path fill-rule="evenodd" clip-rule="evenodd" d="M63.018 11.6058C62.0638 11.6058 61.1493 11.6058 60.1951 11.6058C60.0361 11.6058 59.9565 11.6423 59.9168 11.7883C59.5987 12.7737 59.2409 13.7591 58.9228 14.7445C58.8433 14.927 58.7638 15 58.565 15C58.0878 15 57.6505 15 57.1734 15C57.0143 15 56.9746 14.9635 57.0143 14.8175C57.571 13.2482 58.0879 11.7153 58.6445 10.146C58.6842 10.0365 58.7638 10 58.883 10C61.1891 10 63.4951 10 65.8012 10.0365C65.9602 10.0365 66 10.1095 66 10.2555C66 10.6569 66 11.0584 66 11.4963C66 11.6423 65.9602 11.6788 65.8012 11.6788C64.8867 11.5693 63.9325 11.6058 63.018 11.6058Z" fill="#016BFF"/>
<path fill-rule="evenodd" clip-rule="evenodd" d="M77.1502 16.3007C76.6867 16.7124 76.1073 16.8039 75.5665 16.8954C75.2189 17.0784 74.8326 17.0784 74.485 17.0327C73.8283 17.1242 73.2103 17.3072 72.7082 17.8562C72.5536 18.2222 72.2833 18.4967 72.1674 18.9085C72.1674 18.9542 72.1288 19 72.0901 19C72.0515 19 72.0129 18.9542 72.0129 18.9085C71.9743 18.7712 71.9743 18.5882 72.0129 18.451C72.0515 18.1765 72.0515 17.9477 72.0515 17.6732C72.0515 17.3987 71.9742 17.2157 71.8584 16.9869C71.7811 16.8954 71.7425 16.8039 71.7039 16.6667C71.588 16.5294 71.4721 16.4379 71.3176 16.3922C70.8927 16.1634 70.5064 15.9346 70.1202 15.6601C69.2704 15.0654 69.0773 14.0588 69.0386 13.0065C69.0386 12.6863 69 12.366 69 12C69.309 12.6405 69.5408 13.281 70.1202 13.6013C70.3519 13.7843 70.6223 13.8301 70.8927 13.9216C71.2017 14.0131 71.4721 14.1046 71.7425 14.2876C72.0129 14.3333 72.1288 14.5621 72.2833 14.7909C72.4378 14.9739 72.5536 15.2026 72.6309 15.3856C72.6695 15.4771 72.7081 15.5686 72.824 15.5686C73.2489 14.9739 73.7897 14.7451 74.4077 14.6536C74.485 14.6536 74.5236 14.6078 74.6009 14.6078C74.9485 14.4706 75.3348 14.4248 75.6824 14.4248C76.2618 14.3333 76.8026 14.1503 77.3047 13.8301C77.5365 13.7386 77.7296 13.5098 78 13.3268C77.8455 14.4248 77.8841 15.4771 77.1502 16.3007Z" fill="#016BFF"/>
<path fill-rule="evenodd" clip-rule="evenodd" d="M73.514 24C72.4182 24 71.3225 24 70.2267 24C70.0378 24 70 23.9556 70 23.7333C70 23.2444 70 22.7556 70 22.2222C70 22.0889 70 22 70.1889 22C72.4182 22 74.6097 22 76.839 22C76.9524 22 77.028 22.0444 76.9902 22.2222C76.9902 22.7556 76.9902 23.2444 76.9902 23.7778C76.9902 23.9556 76.9524 24 76.8012 24C75.7433 24 74.6097 24 73.514 24Z" fill="#016BFF"/>
<path fill-rule="evenodd" clip-rule="evenodd" d="M80.3443 18.0065C80.541 18.0065 80.7049 18.0065 80.9016 18.0065C81 18.0065 81 18.0401 81 18.1411C80.8361 19.488 80.7049 20.8685 80.541 22.2154C80.4754 22.7542 80.4098 23.2929 80.377 23.8316C80.377 23.9663 80.3443 24 80.2131 24C79.8525 24 79.5246 24 79.1639 24C79.0328 24 79 23.9663 79 23.8316C79.0984 23.0235 79.1639 22.2154 79.2623 21.4073C79.3607 20.3635 79.4918 19.3196 79.5902 18.2422C79.6229 18.0738 79.6557 17.9728 79.8525 18.0065C80.0164 18.0065 80.1803 18.0065 80.3443 18.0065Z" fill="#016BFF"/>
<path fill-rule="evenodd" clip-rule="evenodd" d="M86.0164 24C85.7705 24 85.4754 24 85.2295 24C85.0328 24 84.9836 23.933 84.9344 23.8324C84.8361 23.2961 84.7869 22.7933 84.6885 22.257C84.4918 21.0838 84.2951 19.9441 84.0984 18.771C84.0492 18.5698 84.0492 18.3687 84 18.1676C84 18.067 84 18 84.1967 18C84.7377 18 85.2787 18 85.8689 18C86.0164 18 86.0656 18.0335 86.0656 18.1341C86.2623 19.5084 86.5082 20.8492 86.7049 22.2235C86.8033 22.7598 86.9016 23.2961 87 23.8324C87 23.933 87 23.9665 86.8033 23.9665C86.5574 24 86.3115 24 86.0164 24Z" fill="#016BFF"/>
<path fill-rule="evenodd" clip-rule="evenodd" d="M51 12.5C51 11.7361 51 10.9722 51 10.2083C51 10.0347 51.0417 10 51.25 10C51.75 10 52.25 10 52.7917 10C52.9583 10 53 10.0347 53 10.1736C53 11.7361 53 13.2639 53 14.8264C53 14.9653 52.9583 15 52.7917 15C52.2917 15 51.75 15 51.25 15C51.0833 15 51.0417 14.9653 51.0417 14.8264C51 14.0625 51 13.2986 51 12.5Z" fill="#016BFF"/>
<path fill-rule="evenodd" clip-rule="evenodd" d="M63.5263 14.9648C63.4079 14.9648 63.2658 14.9648 63.1474 14.9648C63.0763 14.9648 63.0053 14.9297 62.9816 14.8242C62.6737 13.9455 62.3421 13.0667 62.0342 12.188C61.9632 12.0122 62.0105 11.9771 62.1053 12.0122C62.3658 12.0122 62.6263 12.0122 62.8632 12.0122C62.9342 12.0122 62.9816 12.0474 63.0053 12.1528C63.3368 13.0667 63.6447 13.9455 63.9763 14.8594C64.0237 15 64 15 63.9053 15C63.7868 14.9297 63.6447 14.9648 63.5263 14.9648Z" fill="#016BFF"/>
<path fill-rule="evenodd" clip-rule="evenodd" d="M67 22.6154C67 22.4231 66.9638 22.3846 66.7825 22.3846C66.42 22.3846 66.0938 22.3846 65.7313 22.3846C65.5501 22.3846 65.4776 22.3462 65.4776 22.1154C65.4776 20.1538 65.4776 18.2308 65.4776 16.2692C65.4776 16.0385 65.4051 16 65.2239 16C60.8742 16 56.4883 16 52.1386 16C51.9211 16 51.8849 16.0769 51.8849 16.2692C51.8849 18.2308 51.8849 20.1923 51.8849 22.1154C51.8849 22.3077 51.8486 22.3462 51.6674 22.3462C51.1962 22.3462 50.6887 22.3462 50.2175 22.3462C50.0362 22.3462 50 22.3846 50 22.5769C50 22.9615 50 23.3462 50 23.7308C50 23.9615 50.0363 24 50.2537 24C53.0085 24 55.7633 24 58.4819 24C60.548 24 62.6503 24 64.7164 24C65.4051 24 66.0938 24 66.7825 24C66.9275 24 66.9638 23.9615 66.9638 23.8077C67 23.4615 67 23.0385 67 22.6154ZM55.8721 20.0769C55.8721 20.7692 55.8721 21.5 55.8721 22.1923C55.8721 22.3462 55.8358 22.4231 55.6908 22.3846C55.0384 22.3846 54.4222 22.3846 53.7697 22.3846C53.6247 22.3846 53.5885 22.3462 53.5885 22.1923C53.5885 20.7692 53.5885 19.3462 53.5885 17.8846C53.5885 17.7308 53.6247 17.6923 53.7697 17.6923C54.4222 17.6923 55.0384 17.6923 55.6908 17.6923C55.8358 17.6923 55.8721 17.7308 55.8721 17.9231C55.8358 18.6154 55.8721 19.3462 55.8721 20.0769ZM59.8593 20.0385C59.8593 20.7308 59.8593 21.4615 59.8593 22.1538C59.8593 22.3462 59.823 22.3846 59.6418 22.3846C58.9893 22.3846 58.3006 22.3846 57.6482 22.3846C57.5032 22.3846 57.467 22.3462 57.467 22.1923C57.467 20.7692 57.467 19.3462 57.467 17.9231C57.467 17.7692 57.5032 17.7308 57.6844 17.7308C58.3369 17.7308 58.9893 17.7308 59.6418 17.7308C59.823 17.7308 59.8593 17.7692 59.8593 17.9615C59.8593 18.6538 59.8593 19.3462 59.8593 20.0385ZM63.6653 22.3846C63.0128 22.3846 62.3241 22.3846 61.6716 22.3846C61.5267 22.3846 61.4904 22.3462 61.4904 22.1923C61.4904 21.4615 61.4904 20.7692 61.4904 20.0385C61.4904 19.3462 61.4904 18.6154 61.4904 17.9231C61.4904 17.7692 61.5267 17.7308 61.6716 17.7308C62.3241 17.7308 63.0128 17.7308 63.6653 17.7308C63.8102 17.7308 63.8465 17.7692 63.8465 17.9231C63.8465 19.3462 63.8465 20.7692 63.8465 22.2308C63.8465 22.3462 63.8102 22.3846 63.6653 22.3846Z" fill="#016BFF"/>
<path fill-rule="evenodd" clip-rule="evenodd" d="M85.9361 10.2373C85.9361 10.0395 85.9041 10 85.7443 10C83.5708 10 81.3653 10 79.1918 10C79.032 10 79 10.0395 79 10.2373C79 12.1751 79 14.0734 79 16.0113C79 16.209 79.0639 16.2486 79.2237 16.2486C80.0228 16.2486 80.8539 16.2486 81.653 16.2486C81.7808 16.2486 81.8447 16.2881 81.8447 16.4463C81.8447 18.3842 81.8447 20.322 81.8447 22.2599C81.8447 22.4181 81.8128 22.4576 81.6849 22.4576C81.3333 22.4576 81.0137 22.4576 80.5982 22.4576C80.8858 22.9322 81.1735 23.4068 81.4292 23.8418C81.4931 23.9605 81.589 24 81.7169 24C82.1644 24 82.6119 24 83.0913 24C83.2831 24 83.3151 23.9209 83.3151 23.7232C83.3151 21.3107 83.3151 18.8983 83.3151 16.4859C83.3151 16.2881 83.347 16.209 83.5388 16.209C84.3059 16.209 85.0411 16.209 85.8082 16.209C85.968 16.209 86 16.1695 86 15.9718C85.9361 14.0339 85.9361 12.1356 85.9361 10.2373ZM84.3699 14.5085C83.7306 14.5085 83.1233 14.5085 82.484 14.5085C81.8447 14.5085 81.2055 14.5085 80.5662 14.5085C80.4384 14.5085 80.4064 14.4689 80.4064 14.2712C80.4064 13.4802 80.4064 12.6497 80.4064 11.8192C80.4064 11.661 80.4384 11.5819 80.5662 11.5819C81.8447 11.5819 83.1233 11.5819 84.3699 11.5819C84.4977 11.5819 84.5297 11.6215 84.5297 11.7797C84.5297 12.6102 84.5297 13.4011 84.5297 14.2316C84.5616 14.5085 84.4977 14.548 84.3699 14.5085Z" fill="#016BFF"/>
<path fill-rule="evenodd" clip-rule="evenodd" d="M77 14.5861C77 13.5502 77 12.5143 77 11.4785C77 11.2999 76.9604 11.2642 76.7624 11.2642C76.4455 11.2642 76.1683 11.2642 75.8515 11.2642C75.6139 11.2642 75.4158 11.2642 75.1386 11.2642C75.5346 10.6926 75.8911 10.1569 76.2079 9.62106C76.5248 9.12099 76.802 8.62092 76.6832 8.01368C76.6832 7.97796 76.6832 7.94225 76.6832 7.87081C76.7228 7.65649 76.6436 7.58505 76.4059 7.58505C75.297 7.58505 74.1881 7.58505 73.0792 7.58505C72.9208 7.58505 72.8416 7.58505 72.9208 7.40645C73.0396 7.15642 73.1188 6.90638 73.2376 6.65635C73.2772 6.54919 73.2772 6.47775 73.1584 6.44203C72.6832 6.29915 72.2079 6.15627 71.7723 6.01339C71.6139 5.97768 71.5743 6.0134 71.5743 6.12055C71.495 6.33487 71.4554 6.54919 71.3762 6.72778C70.901 7.94225 70.1089 9.01383 69.1584 10.014C69.0396 10.1211 69 10.2283 69 10.3712C69 10.6926 69 11.0141 69 11.3356C69 11.6571 69 11.9428 69 12.3C69.2772 12.1214 69.4356 11.9785 69.6733 11.7999C69.6733 12.7287 69.6733 13.6216 69.6733 14.5146C69.7129 14.6932 69.9109 14.6932 70.0693 14.7289C70.4257 14.8361 70.8218 14.9075 71.1782 15.0504C71.2574 15.0861 71.3366 15.0861 71.3366 15.0147C71.3762 14.9075 71.3762 14.8004 71.3762 14.7289C71.3762 14.2289 71.3762 13.7288 71.3762 13.193C71.3762 12.6215 71.297 12.6929 71.9307 12.6929C72.3267 12.6929 72.3267 12.6929 72.3267 13.0501C72.3267 13.9074 72.3267 14.7647 72.3267 15.6219C72.3267 15.7291 72.3267 15.8362 72.3663 15.9434C72.4455 16.0506 72.5248 15.9791 72.5644 15.9434C72.9604 15.5862 73.4752 15.4433 73.9901 15.3719C74.1089 15.3362 74.1881 15.3362 74.2277 15.229C74.2673 15.1219 74.2673 15.0147 74.2673 14.9075C74.2673 14.2646 74.2673 13.6216 74.2673 12.9787C74.2673 12.7644 74.3069 12.7287 74.5446 12.7287C74.6634 12.7287 74.7822 12.7287 74.8614 12.7287C75.1782 12.7287 75.2178 12.7287 75.2178 13.0144C75.2178 13.5859 75.2178 14.1932 75.2178 14.7647C75.2178 14.8718 75.2178 14.979 75.2574 15.0861C75.3366 15.1933 75.4554 15.1576 75.5346 15.1576C75.9703 15.0861 76.3663 14.979 76.7624 14.8004C76.8416 14.7647 76.9604 14.7289 77 14.5861C77 14.6932 77 14.6218 77 14.5861ZM73.5941 10.6569C73.2772 11.1213 72.9208 11.2999 72.2871 11.2642C71.6535 11.2284 70.9802 11.2642 70.3069 11.2642C70.5446 10.9784 70.7822 10.6926 71.0198 10.4069C71.3366 10.014 71.6535 9.58534 71.9307 9.15671C71.9703 9.08527 72.0495 9.01383 72.1683 9.01383C73 9.01383 73.8713 9.01383 74.7426 9.01383C74.3861 9.62106 73.9505 10.1211 73.5941 10.6569Z" fill="#016BFF"/>
<path d="M92 25.0706V7.3149H97.85C99.1706 7.3149 100.178 7.39968 100.873 7.56925C101.846 7.80341 102.677 8.22731 103.364 8.84097C104.26 9.63226 104.928 10.6456 105.368 11.881C105.816 13.1083 106.04 14.5133 106.04 16.0958C106.04 17.4443 105.889 18.6393 105.588 19.6809C105.287 20.7225 104.901 21.5864 104.43 22.2728C103.959 22.951 103.441 23.488 102.877 23.8836C102.321 24.2712 101.646 24.5659 100.85 24.7678C100.063 24.9696 99.1551 25.0706 98.128 25.0706H92ZM94.2473 22.9753H97.8731C98.9929 22.9753 99.8695 22.8662 100.503 22.6482C101.144 22.4302 101.653 22.1234 102.032 21.7278C102.565 21.1706 102.978 20.4237 103.271 19.4871C103.573 18.5424 103.723 17.3999 103.723 16.0595C103.723 14.2024 103.43 12.7773 102.843 11.7841C102.264 10.7829 101.557 10.1127 100.723 9.77356C100.12 9.53133 99.1512 9.41022 97.8152 9.41022H94.2473V22.9753Z" fill="#016BFF"/>
<path d="M117.3 20.9284L119.454 21.207C119.114 22.5231 118.485 23.5445 117.566 24.2712C116.647 24.9979 115.473 25.3612 114.045 25.3612C112.245 25.3612 110.816 24.7839 109.758 23.6293C108.708 22.4666 108.183 20.8396 108.183 18.7483C108.183 16.5843 108.716 14.9049 109.782 13.7098C110.847 12.5148 112.23 11.9173 113.929 11.9173C115.574 11.9173 116.917 12.5027 117.96 13.6735C119.003 14.8443 119.524 16.4915 119.524 18.6151C119.524 18.7443 119.52 18.938 119.512 19.1964H110.338C110.415 20.6094 110.797 21.6914 111.484 22.4423C112.172 23.1933 113.029 23.5687 114.056 23.5687C114.821 23.5687 115.473 23.3588 116.014 22.9389C116.554 22.519 116.983 21.8489 117.3 20.9284ZM110.453 17.4039H117.323C117.23 16.3219 116.968 15.5104 116.535 14.9695C115.871 14.1297 115.01 13.7098 113.952 13.7098C112.994 13.7098 112.187 14.0449 111.531 14.7151C110.882 15.3853 110.523 16.2816 110.453 17.4039Z" fill="#016BFF"/>
<path d="M125.501 25.0706L120.821 12.208H123.022L125.663 19.911C125.949 20.7427 126.212 21.6066 126.451 22.5029C126.636 21.8246 126.895 21.0091 127.227 20.0563L129.961 12.208H132.104L127.447 25.0706H125.501Z" fill="#016BFF"/>
<path d="M133.529 16.4229C133.529 13.4757 134.286 11.1704 135.799 9.50711C137.313 7.8357 139.267 7 141.661 7C143.229 7 144.642 7.39161 145.901 8.17483C147.16 8.95805 148.117 10.0521 148.774 11.4571C149.438 12.854 149.77 14.4406 149.77 16.217C149.77 18.0176 149.422 19.6284 148.727 21.0495C148.032 22.4706 147.048 23.5485 145.773 24.2833C144.499 25.01 143.124 25.3734 141.649 25.3734C140.051 25.3734 138.622 24.9696 137.363 24.1622C136.104 23.3547 135.151 22.2526 134.502 20.8557C133.853 19.4588 133.529 17.9812 133.529 16.4229ZM135.846 16.4592C135.846 18.5989 136.394 20.2865 137.491 21.5219C138.595 22.7492 139.977 23.3628 141.638 23.3628C143.329 23.3628 144.719 22.7411 145.808 21.4976C146.905 20.2542 147.453 18.4899 147.453 16.2048C147.453 14.7595 147.217 13.4999 146.746 12.426C146.283 11.344 145.6 10.5083 144.696 9.9189C143.8 9.3214 142.792 9.02264 141.673 9.02264C140.082 9.02264 138.711 9.59593 137.56 10.7425C136.417 11.881 135.846 13.7866 135.846 16.4592Z" fill="#016BFF"/>
<path d="M152.411 30V12.208H154.311V13.8794C154.759 13.2254 155.265 12.7369 155.828 12.4139C156.392 12.0829 157.076 11.9173 157.879 11.9173C158.929 11.9173 159.856 12.1999 160.659 12.7651C161.462 13.3303 162.068 14.1297 162.478 15.1632C162.887 16.1887 163.092 17.3151 163.092 18.5424C163.092 19.8585 162.864 21.0455 162.408 22.1032C161.96 23.1529 161.304 23.9603 160.439 24.5255C159.582 25.0827 158.678 25.3612 157.728 25.3612C157.033 25.3612 156.408 25.2078 155.851 24.901C155.303 24.5942 154.851 24.2066 154.496 23.7383V30H152.411ZM154.299 18.712C154.299 20.3672 154.62 21.5905 155.261 22.3818C155.902 23.1731 156.678 23.5687 157.589 23.5687C158.516 23.5687 159.307 23.161 159.964 22.3454C160.628 21.5219 160.96 20.2501 160.96 18.5303C160.96 16.8912 160.636 15.6639 159.987 14.8483C159.346 14.0328 158.578 13.6251 157.682 13.6251C156.794 13.6251 156.006 14.0611 155.319 14.9331C154.639 15.7971 154.299 17.0567 154.299 18.712Z" fill="#016BFF"/>
<path d="M164.783 21.2312L166.845 20.892C166.961 21.756 167.281 22.4181 167.806 22.8784C168.339 23.3386 169.081 23.5687 170.03 23.5687C170.988 23.5687 171.699 23.3669 172.162 22.9631C172.625 22.5513 172.857 22.0709 172.857 21.5219C172.857 21.0293 172.652 20.6417 172.243 20.3591C171.957 20.1653 171.247 19.9191 170.112 19.6203C168.582 19.2166 167.521 18.8694 166.926 18.5787C166.339 18.28 165.891 17.8722 165.582 17.3554C165.281 16.8306 165.13 16.2533 165.13 15.6235C165.13 15.0502 165.254 14.5213 165.501 14.0369C165.756 13.5443 166.1 13.1366 166.532 12.8136C166.856 12.5633 167.297 12.3533 167.853 12.1838C168.416 12.0061 169.019 11.9173 169.66 11.9173C170.625 11.9173 171.471 12.0627 172.197 12.3533C172.93 12.644 173.471 13.0397 173.818 13.5403C174.166 14.0328 174.405 14.6949 174.537 15.5266L172.498 15.8173C172.405 15.1552 172.135 14.6384 171.687 14.267C171.247 13.8956 170.621 13.7098 169.81 13.7098C168.853 13.7098 168.169 13.8754 167.76 14.2064C167.351 14.5375 167.146 14.925 167.146 15.3691C167.146 15.6517 167.231 15.9061 167.401 16.1322C167.571 16.3663 167.837 16.5601 168.2 16.7135C168.409 16.7943 169.023 16.98 170.042 17.2707C171.517 17.6825 172.544 18.0216 173.123 18.288C173.71 18.5464 174.17 18.9259 174.502 19.4265C174.834 19.9272 175 20.5489 175 21.2917C175 22.0184 174.795 22.7048 174.386 23.3507C173.984 23.9886 173.401 24.4852 172.637 24.8404C171.872 25.1876 171.007 25.3612 170.042 25.3612C168.443 25.3612 167.223 25.014 166.381 24.3196C165.547 23.6252 165.015 22.5958 164.783 21.2312Z" fill="#016BFF"/>
</svg>
