<svg width="24" height="16" viewBox="0 0 24 16" fill="none" xmlns="http://www.w3.org/2000/svg">
<path fill-rule="evenodd" clip-rule="evenodd" d="M11.783 3.0718e-06C10.8062 -0.00115612 9.85376 0.325791 9.06083 0.934493C8.89768 1.03994 8.82035 1.24843 8.87168 1.44443C8.92301 1.64044 9.09043 1.77597 9.28117 1.77592C9.31213 1.77545 9.34294 1.77117 9.37298 1.76319C9.41017 1.75251 9.44642 1.73842 9.48132 1.72107C10.448 1.14681 11.6178 1.11752 12.6086 1.64277C13.5995 2.16802 14.2842 3.18037 14.4391 4.34919C14.9796 3.93939 15.5773 3.62304 16.2101 3.41177C15.5761 1.37676 13.793 0.00262886 11.783 3.0718e-06ZM12.6974 12.1052C12.4493 9.92515 11.871 7.80261 10.9852 5.82039C10.7135 5.21344 10.4135 4.62138 10.0863 4.04643C9.24253 2.70579 8.12469 1.58683 6.81695 0.773765C6.55345 0.610181 6.28078 0.459331 6.00443 0.322194C5.75745 0.20073 5.5215 0.566101 5.70696 0.768867C6.57588 1.7195 7.25848 2.84538 7.71486 4.08071C7.71741 4.08675 7.71955 4.09297 7.72129 4.09932C7.76352 4.21393 7.80484 4.32952 7.84248 4.44706L7.84699 4.46015C7.85557 4.48498 7.86405 4.50953 7.87186 4.5362C8.11782 5.29858 8.28739 6.08662 8.37774 6.88711C8.54765 8.3522 8.45133 9.8385 8.09404 11.2647C8.06841 11.3601 8.06092 11.46 8.07201 11.5586C8.11434 11.9171 8.39893 12.1868 8.73764 12.1894C8.77684 12.1931 8.81634 12.1915 8.85515 12.1845L8.90214 12.1765C8.96246 12.1663 9.02273 12.156 9.08468 12.1483C10.1112 12.0131 11.1501 12.2576 12.0281 12.8408L12.0502 12.8525C12.1997 12.9428 12.3841 12.9354 12.5268 12.8335C12.6695 12.7316 12.7462 12.5525 12.725 12.3706C12.7256 12.3641 12.7256 12.3575 12.725 12.351V12.3118C12.7155 12.2621 12.7095 12.2097 12.7038 12.159C12.7017 12.1407 12.6996 12.1227 12.6974 12.1052ZM16.8758 13.1631C16.4509 11.7572 15.906 10.3958 15.248 9.09602C14.8857 8.37769 14.4924 7.68613 14.0682 7.02134C13.2681 5.87733 12.2944 4.88409 11.1872 4.0827C11.1398 4.04272 11.0789 4.02567 11.0192 4.03569C10.9634 4.04596 10.9137 4.07954 10.8811 4.12898C10.8486 4.17843 10.8358 4.23968 10.8457 4.29918C10.8512 4.33183 10.8631 4.36287 10.8806 4.39028C11.0091 4.61068 11.134 4.83402 11.2542 5.06225C12.3196 7.06817 13.0523 9.25531 13.4201 11.5273C13.4476 11.6997 13.4742 11.8711 13.4972 12.0435L13.5192 12.1414V12.209C13.591 12.6458 13.9437 12.9666 14.3593 12.9731H14.3648C15.1093 12.9817 15.8431 13.1635 16.515 13.5059H16.5269C16.5762 13.5357 16.6336 13.5464 16.6894 13.5363C16.7549 13.5243 16.8132 13.4851 16.8514 13.4272C16.8896 13.3693 16.9047 13.2975 16.8933 13.2277C16.8896 13.2056 16.8837 13.1839 16.8758 13.1631ZM14.9891 4.52059C15.8656 3.97901 16.8609 3.69446 17.8738 3.69581L17.8793 3.70757C20.9863 3.70227 23.5389 6.32387 23.6522 9.63662C23.7656 12.9494 21.3989 15.7625 18.2998 15.9989C18.2842 16.0004 18.2685 16.0004 18.253 15.9989H18.2016H18.1804H11.335C11.6973 15.7302 11.9775 15.4688 12.2267 15.2363C12.7124 14.7831 13.0799 14.4402 13.7074 14.369C14.2991 14.2854 14.9524 14.3191 15.6396 14.3546C16.3941 14.3935 17.1895 14.4346 17.9895 14.3249C18.0195 14.3147 18.0502 14.3068 18.0813 14.3014C19.7768 14.0204 21.158 12.7001 21.6052 10.9327C22.0524 9.16535 21.4816 7.2828 20.149 6.12967C18.8164 4.97654 16.9721 4.76934 15.4436 5.60103C15.4166 5.61497 15.3886 5.62675 15.36 5.63629C15.3058 5.65564 15.2491 5.66556 15.192 5.66568C14.9362 5.66486 14.7138 5.47801 14.6532 5.21284C14.5925 4.94768 14.7091 4.67255 14.9358 4.54606H14.945C14.9597 4.53626 14.9744 4.52843 14.9891 4.52059ZM7.44172 13.8337C8.02519 13.503 8.45841 13.2575 9.01037 13.6363C8.82124 13.7137 8.22079 14.3514 8.05094 14.5346L8.01606 14.5698L8.00137 14.5855C7.12426 15.49 5.95183 15.9951 4.73198 15.9941H4.7026C2.09734 15.9854 -0.00806621 13.7251 2.32332e-05 10.9455C0.00815945 8.16592 2.12672 5.91962 4.73198 5.92825C5.18923 5.92857 5.64395 6.00052 6.0816 6.14182L6.10914 6.14868L6.14311 6.15749H6.15413L6.17433 6.16533C6.40148 6.25664 6.5342 6.50898 6.4889 6.76341C6.44361 7.01784 6.23342 7.20069 5.99071 7.19679H5.965H5.92369L5.88513 7.18993C4.59911 6.87687 3.25756 7.36441 2.41805 8.44991C1.57853 9.53541 1.3846 11.0333 1.91687 12.3209C2.44913 13.6086 3.61656 14.4659 4.93396 14.5365C5.00925 14.5444 5.08362 14.5444 5.15982 14.5444C6.20556 14.5344 6.89065 14.1461 7.44172 13.8337Z" fill="white"/>
</svg>
