<svg width="48" height="48" viewBox="0 0 48 48" fill="none" xmlns="http://www.w3.org/2000/svg">
<path fill-rule="evenodd" clip-rule="evenodd" d="M8.5 7.57153C8.5 6.74311 9.17157 6.07153 10 6.07153H14.5C15.8807 6.07153 17 4.95224 17 3.57153C17 2.19082 15.8807 1.07153 14.5 1.07153H10C6.41015 1.07153 3.5 3.98168 3.5 7.57153V11.7858C3.5 13.1665 4.61929 14.2858 6 14.2858C7.38071 14.2858 8.5 13.1665 8.5 11.7858V7.57153ZM32.5 6.07153H38C38.8284 6.07153 39.5 6.74311 39.5 7.57153V12.2144C39.5 13.5951 40.6193 14.7144 42 14.7144C43.3807 14.7144 44.5 13.5951 44.5 12.2144V7.57153C44.5 3.98168 41.5899 1.07153 38 1.07153H32.5C31.1193 1.07153 30 2.19082 30 3.57153C30 4.95224 31.1193 6.07153 32.5 6.07153ZM8.5 36.3572C8.5 34.9765 7.38071 33.8572 6 33.8572C4.61929 33.8572 3.5 34.9765 3.5 36.3572V40.5715C3.5 44.1614 6.41015 47.0715 10 47.0715H14.5C15.8807 47.0715 17 45.9522 17 44.5715C17 43.1908 15.8807 42.0715 14.5 42.0715H10C9.17157 42.0715 8.5 41.4 8.5 40.5715V36.3572ZM39.5 36.7858V40.5715C39.5 41.4 38.8284 42.0715 38 42.0715H32.5C31.1193 42.0715 30 43.1908 30 44.5715C30 45.9522 31.1193 47.0715 32.5 47.0715H38C41.5899 47.0715 44.5 44.1614 44.5 40.5715V36.7858C44.5 35.4051 43.3807 34.2858 42 34.2858C40.6193 34.2858 39.5 35.4051 39.5 36.7858ZM28.0018 30.3163C28.4763 31.6207 27.5103 33 26.1223 33H25.692C24.8165 33 24.0427 32.4305 23.7824 31.5945L23.362 30.244H17.668L17.2113 31.6271C16.9408 32.4465 16.1751 33 15.3122 33H14.8557C13.4677 33 12.5017 31.6207 12.9762 30.3163L18.2552 15.8043C18.5426 15.0141 19.2938 14.488 20.1347 14.488H20.8433C21.6842 14.488 22.4353 15.0141 22.7228 15.8043L28.0018 30.3163ZM22.166 26.448L20.606 21.508L18.942 26.448H22.166ZM35.4083 31C35.4083 32.1046 34.5128 33 33.4083 33H32.8583C31.7537 33 30.8583 32.1046 30.8583 31V16.488C30.8583 15.3835 31.7537 14.488 32.8583 14.488H33.4083C34.5128 14.488 35.4083 15.3835 35.4083 16.488V31Z" fill="#081E40"/>
</svg>
