<svg width="48" height="48" viewBox="0 0 48 48" fill="none" xmlns="http://www.w3.org/2000/svg">
<path d="M44 4C46.2091 4 48 5.79086 48 8V40C48 42.2091 46.2091 44 44 44H4C1.79086 44 4.96084e-07 42.2091 0 40V8C4.63871e-07 5.79086 1.79086 4 4 4H44ZM11.2051 17L7 30H11.2051L11.8916 27.1494H15.6846L16.3711 30H20.5986L16.5771 17H11.2051ZM21.6904 17V30H31.1299L29.2256 26.9893H25.8047V17H21.6904ZM32.5605 17V30H42L40.0957 26.9893H36.6748V17H32.5605ZM13.8564 19.8047L15.1377 24.6172H12.416L13.7646 19.8047H13.8564Z" fill="#081E40"/>
</svg>
