<svg width="48" height="48" viewBox="0 0 48 48" fill="none" xmlns="http://www.w3.org/2000/svg">
<path fill-rule="evenodd" clip-rule="evenodd" d="M9.84825 7.95817C5.30905 9.31331 2 13.5202 2 18.5C2 24.4075 6.65686 29.2274 12.4999 29.4888V34.4312C12.4999 34.8465 12.3277 35.2433 12.0242 35.5269L11.0182 36.4674C10.0779 35.8555 8.95549 35.5 7.75 35.5C4.43629 35.5 1.75 38.1863 1.75 41.5C1.75 44.8137 4.43629 47.5 7.75 47.5C11.0637 47.5 13.75 44.8137 13.75 41.5C13.75 41.262 13.7361 41.0272 13.7092 40.7964L15.4388 39.1795C16.7536 37.9503 17.4999 36.231 17.4999 34.4312V29.5H31.4998V34.4695C31.4998 36.2694 32.2461 37.9887 33.5608 39.2178L34.4535 39.945C34.3208 40.441 34.25 40.9622 34.25 41.5C34.25 44.8137 36.9363 47.5 40.25 47.5C43.5637 47.5 46.25 44.8137 46.25 41.5C46.25 38.1863 43.5637 35.5 40.25 35.5C39.3113 35.5 38.4229 35.7156 37.6317 36.0999L36.9754 35.5653C36.672 35.2816 36.4998 34.8849 36.4998 34.4695V29.3986C41.8654 28.6671 46 24.0664 46 18.5C46 14.5258 43.8949 11.0516 40.7447 9.119C40.5966 9.02813 40.4719 8.90342 40.381 8.75529C38.4484 5.60513 34.9742 3.5 31 3.5C30.9089 3.5 30.8179 3.50112 30.7272 3.50335C30.4722 3.50961 30.2223 3.42775 30.0216 3.27022C27.8147 1.53786 25.0289 0.5 22 0.5C17.0158 0.5 12.6901 3.30257 10.5081 7.41902C10.3698 7.67995 10.1312 7.87369 9.84825 7.95817ZM28.3697 8.6591C28.5149 8.84996 28.7698 8.92297 28.9959 8.84286C29.6226 8.62084 30.2972 8.5 31 8.5C33.6135 8.5 35.8368 10.171 36.6596 12.5029C36.7152 12.6605 36.8395 12.7848 36.9971 12.8404C39.329 13.6632 41 15.8865 41 18.5C41 21.8137 38.3137 24.5 35 24.5H13C9.68629 24.5 7 21.8137 7 18.5C7 15.1863 9.68629 12.5 13 12.5C13.1032 12.5 13.2059 12.5026 13.3078 12.5078C13.3801 12.5114 13.452 12.5163 13.5235 12.5225C13.8108 12.5474 14.0769 12.3491 14.1283 12.0653C14.1559 11.9126 14.1879 11.7613 14.2241 11.6118C15.0727 8.10475 18.2322 5.5 22 5.5C22.2761 5.5 22.5489 5.51398 22.8177 5.54128C22.8787 5.54747 22.9394 5.55434 23 5.56189C23.6986 5.64901 24.3693 5.82622 25 6.08152C25.2702 6.19088 25.533 6.31458 25.7876 6.45166C26.7985 6.99603 27.6788 7.75151 28.3697 8.6591ZM26.5 33.5C26.5 32.1193 25.3807 31 24 31C22.6193 31 21.5 32.1193 21.5 33.5V43.5C21.5 44.8807 22.6193 46 24 46C25.3807 46 26.5 44.8807 26.5 43.5V33.5ZM7.75 43.5C8.85457 43.5 9.75 42.6046 9.75 41.5C9.75 40.3954 8.85457 39.5 7.75 39.5C6.64543 39.5 5.75 40.3954 5.75 41.5C5.75 42.6046 6.64543 43.5 7.75 43.5ZM40.25 43.5C39.1454 43.5 38.25 42.6046 38.25 41.5C38.25 40.3954 39.1454 39.5 40.25 39.5C41.3546 39.5 42.25 40.3954 42.25 41.5C42.25 42.6046 41.3546 43.5 40.25 43.5Z" fill="#081E40"/>
</svg>
