<svg width="48" height="48" viewBox="0 0 48 48" fill="none" xmlns="http://www.w3.org/2000/svg">
<path d="M38.719 4.77818C39.8906 3.60661 41.7901 3.60661 42.9617 4.77818Lnan nanL42.9617 4.77818C44.1332 5.94975 44.1332 7.84925 42.9617 9.02082L39.4261 12.5564L35.1835 8.31371L38.719 4.77818Z" fill="#081E40"/>
<path fill-rule="evenodd" clip-rule="evenodd" d="M35.5371 21.3951C35.1466 21.7856 34.5134 21.7856 34.1229 21.3951L26.6983 13.9704C26.3077 13.5799 26.3077 12.9467 26.6983 12.5562L27.2286 12.0259C29.6694 9.58512 33.6266 9.58512 36.0674 12.0259C38.5082 14.4667 38.5082 18.424 36.0674 20.8647L35.5371 21.3951ZM23.6931 8.49036C28.0865 4.09696 35.2096 4.09696 39.603 8.49036C43.9964 12.8838 43.9964 20.0069 39.603 24.4003L36.3274 27.6758C35.5004 28.5028 34.1596 28.5028 33.3326 27.6758L20.4175 14.7607C19.5905 13.9337 19.5905 12.5929 20.4175 11.7659L23.6931 8.49036ZM12.5562 26.6985C12.9467 26.3079 13.5799 26.3079 13.9704 26.6985L21.3951 34.1231C21.7856 34.5136 21.7856 35.1468 21.3951 35.5373L20.8647 36.0676C18.424 38.5084 14.4667 38.5084 12.0259 36.0676C9.58512 33.6268 9.58512 29.6696 12.0259 27.2288L12.5562 26.6985ZM24.4003 39.6032C20.0069 43.9966 12.8838 43.9966 8.49036 39.6032C4.09696 35.2098 4.09696 28.0866 8.49036 23.6933L11.7659 20.4177C12.5929 19.5907 13.9337 19.5907 14.7607 20.4177L27.6758 33.3328C28.5028 34.1598 28.5028 35.5006 27.6758 36.3276L24.4003 39.6032Z" fill="#081E40"/>
<path d="M9.02073 42.9619C7.84916 44.1335 5.94967 44.1335 4.77809 42.9619Lnan nanL4.77809 42.9619C3.60652 41.7904 3.60652 39.8909 4.77809 38.7193L8.31363 35.1838L12.5563 39.4264L9.02073 42.9619Z" fill="#081E40"/>
<path d="M17.8592 19.9809C18.8355 19.0046 20.4184 19.0046 21.3947 19.9809L-nan -nanL21.3947 19.9809C22.371 20.9572 22.371 22.5401 21.3947 23.5164L18.9198 25.9913L15.3843 22.4558L17.8592 19.9809Z" fill="#081E40"/>
<path d="M24.2234 26.3449C25.1998 25.3686 26.7827 25.3686 27.759 26.3449L-nan -nanL27.759 26.3449C28.7353 27.3212 28.7353 28.9041 27.759 29.8804L25.2841 32.3553L21.7486 28.8198L24.2234 26.3449Z" fill="#081E40"/>
</svg>
