<svg width="48" height="48" viewBox="0 0 48 48" fill="none" xmlns="http://www.w3.org/2000/svg">
<path d="M48 24C48 37.2548 37.2548 48 24 48C10.7452 48 0 37.2548 0 24C0 10.7452 10.7452 0 24 0C37.2548 0 48 10.7452 48 24Z" fill="#F5F7F9"/>
<path d="M24.2889 12.0095C24.4187 11.9968 24.5496 11.9969 24.6795 12.0095C24.7167 12.0131 24.7533 12.0195 24.7899 12.0251C24.8178 12.0294 24.846 12.0323 24.8738 12.0378C24.9082 12.0446 24.9417 12.0547 24.9754 12.0632C25.0063 12.071 25.0376 12.0774 25.0682 12.0866C25.0963 12.0952 25.1236 12.1062 25.1512 12.1159C25.1835 12.1273 25.2161 12.138 25.2479 12.1511C25.2812 12.1649 25.3131 12.1815 25.3455 12.197C25.3728 12.21 25.4008 12.2217 25.4275 12.2361C25.4563 12.2515 25.4836 12.2691 25.5115 12.2859C25.5389 12.3023 25.5668 12.3178 25.5936 12.3357C25.7035 12.409 25.8061 12.4926 25.8992 12.5857L34.3846 21.071C35.1655 21.852 35.1653 23.1181 34.3846 23.8991C33.6035 24.6802 32.3375 24.6802 31.5565 23.8991L26.4852 18.8279V33.7995C26.4849 34.9038 25.5895 35.7994 24.4852 35.7995C23.3807 35.7995 22.4854 34.9039 22.4852 33.7995V18.8279L17.4139 23.8991C16.6328 24.6802 15.3668 24.6802 14.5857 23.8991C13.8048 23.1181 13.8047 21.852 14.5857 21.071L23.0711 12.5857C23.118 12.5388 23.1672 12.494 23.2186 12.4519C23.2337 12.4395 23.25 12.4286 23.2654 12.4167C23.2988 12.391 23.332 12.3651 23.367 12.3415L23.3846 12.3298C23.4154 12.3095 23.4476 12.2916 23.4793 12.2732C23.4986 12.2619 23.5172 12.2496 23.5369 12.239C23.5731 12.2195 23.6102 12.2024 23.6473 12.1853C23.6704 12.1746 23.693 12.1629 23.7166 12.1531C23.7538 12.1376 23.792 12.1252 23.8299 12.112C23.8537 12.1038 23.877 12.094 23.9012 12.0866C23.9317 12.0774 23.9631 12.071 23.994 12.0632C24.028 12.0546 24.0618 12.0447 24.0965 12.0378C24.1233 12.0325 24.1505 12.0293 24.1775 12.0251C24.2144 12.0194 24.2514 12.0131 24.2889 12.0095Z" fill="#BDC6D0"/>
</svg>
