<svg width="48" height="48" viewBox="0 0 48 48" fill="none" xmlns="http://www.w3.org/2000/svg">
<path fill-rule="evenodd" clip-rule="evenodd" d="M33 14C33 18.9706 28.9706 23 24 23C19.0294 23 15 18.9706 15 14C15 9.02944 19.0294 5 24 5C28.9706 5 33 9.02944 33 14ZM38 14C38 21.732 31.732 28 24 28C22.2977 28 20.6663 27.6962 19.1571 27.1398C11.2876 29.2677 5.5 36.461 5.5 45.0001C5.5 46.3808 4.38071 47.5001 3 47.5001C1.61929 47.5001 0.5 46.3808 0.5 45.0001C0.5 35.6137 6.00136 27.5167 13.9537 23.7505C11.5066 21.2296 10 17.7907 10 14C10 6.26801 16.268 0 24 0C31.732 0 38 6.26801 38 14Z" fill="#081E40"/>
<path fill-rule="evenodd" clip-rule="evenodd" d="M44.8238 34.7902C45.7682 35.7974 45.7171 37.3795 44.7099 38.3239L37.4162 45.1616C36.0381 46.4536 33.8833 46.4189 32.5476 45.0831L27.5 40.0355L21.7678 45.7678C20.7915 46.7441 19.2085 46.7441 18.2322 45.7678C17.2559 44.7915 17.2559 43.2086 18.2322 42.2322L25.0251 35.4393C26.392 34.0725 28.608 34.0725 29.9749 35.4393L35.0561 40.5206L41.2901 34.6762C42.2974 33.7318 43.8795 33.7829 44.8238 34.7902Z" fill="#016BFF"/>
</svg>
