<svg width="48" height="48" viewBox="0 0 48 48" fill="none" xmlns="http://www.w3.org/2000/svg">
<g clip-path="url(#clip0_4566_60)">
<path fill-rule="evenodd" clip-rule="evenodd" d="M24 23C28.9706 23 33 18.9706 33 14C33 9.02944 28.9706 5 24 5C19.0294 5 15 9.02944 15 14C15 18.9706 19.0294 23 24 23ZM24 28C31.732 28 38 21.732 38 14C38 6.26801 31.732 0 24 0C16.268 0 10 6.26801 10 14C10 21.732 16.268 28 24 28Z" fill="#016BFF"/>
<path fill-rule="evenodd" clip-rule="evenodd" d="M24.5146 33.5C15.9624 33.5 8.66525 38.9004 5.8593 46.4854C5.38026 47.7803 3.94215 48.4418 2.64721 47.9627C1.35226 47.4837 0.690846 46.0456 1.16989 44.7506C4.67826 35.2669 13.803 28.5 24.5146 28.5C35.2262 28.5 44.3509 35.2669 47.8593 44.7506C48.3383 46.0456 47.6769 47.4837 46.382 47.9627C45.087 48.4418 43.6489 47.7803 43.1699 46.4854C40.3639 38.9004 33.0668 33.5 24.5146 33.5Z" fill="#081E40"/>
</g>
<defs>
<clipPath id="clip0_4566_60">
<rect width="48" height="48" fill="white"/>
</clipPath>
</defs>
</svg>
