<svg width="48" height="48" viewBox="0 0 48 48" fill="none" xmlns="http://www.w3.org/2000/svg">
<rect x="14" y="22" width="20" height="5" rx="2.5" fill="#016BFF"/>
<path fill-rule="evenodd" clip-rule="evenodd" d="M9.5 12V5.5H23.4549L24.4875 7.56525C25.0804 8.75099 26.2923 9.5 27.618 9.5H38.5V12H9.5ZM4.5 12V5C4.5 2.51472 6.51472 0.5 9 0.5H24.382C25.7077 0.5 26.9196 1.24901 27.5125 2.43475L28.5451 4.5H39C41.4853 4.5 43.5 6.51472 43.5 9V12H45.8039C46.9822 12 47.9052 13.0135 47.7952 14.1867L45.1702 42.1867C45.0738 43.2144 44.2112 44 43.1789 44H4.82146C3.78922 44 2.92654 43.2144 2.83019 42.1867L0.205193 14.1867C0.0952092 13.0135 1.01815 12 2.19646 12H4.5ZM7.55337 39L5.49087 17H42.5095L40.447 39H7.55337Z" fill="#081E40"/>
</svg>
