<svg width="48" height="48" viewBox="0 0 48 48" fill="none" xmlns="http://www.w3.org/2000/svg">
<path fill-rule="evenodd" clip-rule="evenodd" d="M30.5 7C30.5 5.61929 31.6193 4.5 33 4.5C38.284 4.5 42.5 8.84102 42.5 14.112C42.5 18.5665 39.4985 22.3423 35.3825 23.4187C34.0467 23.768 32.6806 22.9683 32.3313 21.6325C31.982 20.2967 32.7817 18.9306 34.1175 18.5813C36.0398 18.0786 37.5 16.2854 37.5 14.112C37.5 11.5273 35.448 9.5 33 9.5C31.6193 9.5 30.5 8.38071 30.5 7Z" fill="#016BFF"/>
<path fill-rule="evenodd" clip-rule="evenodd" d="M20 19C22.7614 19 25 16.7614 25 14C25 11.2386 22.7614 9 20 9C17.2386 9 15 11.2386 15 14C15 16.7614 17.2386 19 20 19ZM30 14C30 16.6709 28.9529 19.0973 27.2467 20.891C34.4279 23.7673 39.5 30.7913 39.5 39C39.5 40.5767 39.3124 42.1129 38.9571 43.5861C38.6334 44.9283 37.2829 45.754 35.9406 45.4303C34.5984 45.1066 33.7727 43.7561 34.0964 42.4139C34.3598 41.3216 34.5 40.1788 34.5 39C34.5 30.9919 28.0081 24.5 20 24.5C11.9919 24.5 5.5 30.9919 5.5 39C5.5 40.1788 5.64016 41.3216 5.90358 42.4139C6.22729 43.7561 5.40161 45.1066 4.05938 45.4303C2.71715 45.754 1.36664 44.9283 1.04294 43.5861C0.687636 42.1129 0.5 40.5767 0.5 39C0.5 30.7913 5.57211 23.7673 12.7533 20.891C11.0471 19.0973 10 16.6709 10 14C10 8.47715 14.4772 4 20 4C25.5228 4 30 8.47715 30 14ZM41.0454 23.5517C40.0443 22.6008 38.462 22.6415 37.511 23.6425C36.5601 24.6436 36.6008 26.226 37.6018 27.1769C40.7205 30.1394 42.4913 34.443 42.0601 39.0496C41.9502 40.2233 41.7042 41.348 41.3401 42.411C40.8927 43.7172 41.589 45.1388 42.8952 45.5862C44.2014 46.0336 45.623 45.3373 46.0704 44.0311C46.5614 42.5974 46.8914 41.0854 47.0383 39.5155C47.6185 33.3175 45.2281 27.525 41.0454 23.5517Z" fill="#081E40"/>
</svg>
