<svg width="48" height="48" viewBox="0 0 48 48" fill="none" xmlns="http://www.w3.org/2000/svg">
<g clip-path="url(#clip0_4461_20)">
<path fill-rule="evenodd" clip-rule="evenodd" d="M48 24C48 37.2548 37.2548 48 24 48C10.7452 48 0 37.2548 0 24C0 10.7452 10.7452 0 24 0C37.2548 0 48 10.7452 48 24ZM24 6.5C25.3807 6.5 26.5 7.61929 26.5 9V21.5H39C40.3807 21.5 41.5 22.6193 41.5 24C41.5 25.3807 40.3807 26.5 39 26.5H24C22.6193 26.5 21.5 25.3807 21.5 24C21.5 23.999 21.5 23.9979 21.5 23.9969L21.5 9C21.5 7.61929 22.6193 6.5 24 6.5Z" fill="#081E40"/>
</g>
<defs>
<clipPath id="clip0_4461_20">
<rect width="48" height="48" fill="white"/>
</clipPath>
</defs>
</svg>
