<svg width="48" height="48" viewBox="0 0 48 48" fill="none" xmlns="http://www.w3.org/2000/svg">
<path fill-rule="evenodd" clip-rule="evenodd" d="M9.78071 2.97614C9.38038 2.47573 8.6193 2.47573 8.21897 2.97613L2.29959 10.3754C1.77578 11.0301 2.24196 12 3.08046 12H5.99997V36H3.08025C2.24174 36 1.77557 36.9699 2.29938 37.6246L8.21875 45.0239C8.61908 45.5243 9.38016 45.5243 9.78049 45.0239L15.6999 37.6246C16.2237 36.9699 15.7575 36 14.919 36H12V12H14.9192C15.7577 12 16.2239 11.0301 15.7001 10.3754L9.78071 2.97614Z" fill="#016BFF"/>
<path fill-rule="evenodd" clip-rule="evenodd" d="M19 7C19 5.61929 20.1193 4.5 21.5 4.5L43.5 4.5C44.8807 4.5 46 5.61929 46 7C46 8.38071 44.8807 9.5 43.5 9.5L21.5 9.5C20.1193 9.5 19 8.38071 19 7ZM19 24C19 22.6193 20.1193 21.5 21.5 21.5L43.5 21.5C44.8807 21.5 46 22.6193 46 24C46 25.3807 44.8807 26.5 43.5 26.5L21.5 26.5C20.1193 26.5 19 25.3807 19 24ZM21.5 38.5C20.1193 38.5 19 39.6193 19 41C19 42.3807 20.1193 43.5 21.5 43.5L43.5 43.5C44.8807 43.5 46 42.3807 46 41C46 39.6193 44.8807 38.5 43.5 38.5L21.5 38.5Z" fill="#081E40"/>
</svg>
