<svg width="48" height="48" viewBox="0 0 48 48" fill="none" xmlns="http://www.w3.org/2000/svg">
<path fill-rule="evenodd" clip-rule="evenodd" d="M25.2451 7.26085C25.3365 7.3586 25.4265 7.45769 25.5149 7.55811C25.6491 7.71043 25.7799 7.86577 25.9072 8.02404C26.5527 8.82679 27.1075 9.70471 27.5558 10.6435L27.5578 10.6476C28.3848 12.381 28.8485 14.3219 28.8485 16.3804C28.8485 23.823 22.8171 29.8544 15.3745 29.8544C13.3456 29.8544 11.4262 29.4019 9.70773 28.5936C8.74521 28.1409 7.8457 27.5765 7.02529 26.9175C6.86281 26.787 6.70344 26.6528 6.54729 26.515C6.2388 26.2427 5.94289 25.9565 5.66055 25.6573L5.6567 25.6532C5.65384 25.6502 5.65098 25.6472 5.64812 25.6441C5.64812 25.6505 5.6478 25.6562 5.64722 25.6612L5.64644 25.6667C5.64177 25.6943 5.62837 25.6994 5.61884 25.6851C5.61674 25.6826 5.61463 25.6801 5.61252 25.6776C5.60292 25.6664 5.59321 25.6552 5.58337 25.6441C5.20873 25.2229 4.65643 24.959 4.04365 24.959C3.43536 24.959 2.89323 25.2236 2.51997 25.6441C2.21771 25.9847 2.0262 26.4275 2 26.9148C2.03247 27.2841 2.07405 27.6508 2.1245 28.0147C2.14973 28.1966 2.17718 28.3779 2.20683 28.5584C2.22217 28.6518 2.23809 28.745 2.2546 28.838C2.28977 29.0362 2.3276 29.2334 2.36802 29.4297C2.36924 29.4356 2.37046 29.4416 2.37168 29.4475C2.37507 29.4638 2.37847 29.4802 2.38189 29.4965C4.47291 39.4919 13.3317 47.0059 23.9532 47.0059C36.1331 47.0059 46 37.1389 46 24.959C46 14.3149 38.459 5.44605 28.4372 3.371C28.4239 3.36826 28.4099 3.36536 28.3967 3.36265C28.244 3.33133 28.0907 3.30159 27.9368 3.27344C27.8749 3.26211 27.8129 3.25103 27.7508 3.24022C27.7449 3.2392 27.7391 3.23819 27.7332 3.23717C27.1369 3.13385 26.5324 3.05445 25.9207 3C24.8198 3.07027 23.9473 3.95448 23.9473 5.06707C23.9473 5.67577 24.2047 6.21426 24.6142 6.59485C24.622 6.60266 24.6149 6.60583 24.607 6.60844C24.6047 6.60921 24.6024 6.60999 24.6005 6.6109L24.5973 6.61299C24.8202 6.82147 25.0368 7.03797 25.2451 7.26085ZM33.2609 11.7574C33.143 11.3034 33.637 10.9233 34.0154 11.2005C38.2495 14.3019 41 19.3088 41 24.959C41 34.3775 33.3717 42.0059 23.9532 42.0059C18.3045 42.0059 13.2975 39.2548 10.1974 35.0209C9.92035 34.6425 10.3004 34.1486 10.7543 34.2665C12.2292 34.6499 13.7773 34.8544 15.3745 34.8544C25.5786 34.8544 33.8485 26.5844 33.8485 16.3804C33.8485 14.7804 33.644 13.2317 33.2609 11.7574Z" fill="#081E40"/>
</svg>
