<svg width="48" height="48" viewBox="0 0 48 48" fill="none" xmlns="http://www.w3.org/2000/svg">
<path fill-rule="evenodd" clip-rule="evenodd" d="M5.66667 6C4.74619 6 4 6.74619 4 7.66667V9.33333C4 10.2538 4.74619 11 5.66667 11H42.3333C43.2538 11 44 10.2538 44 9.33333V7.66667C44 6.74619 43.2538 6 42.3333 6H5.66667ZM18.1667 16.8333C17.2462 16.8333 16.5 17.5795 16.5 18.5V20.1667C16.5 21.0871 17.2462 21.8333 18.1667 21.8333H42.3333C43.2538 21.8333 44 21.0871 44 20.1667V18.5C44 17.5795 43.2538 16.8333 42.3333 16.8333H18.1667ZM4 28.5C4 27.5795 4.74619 26.8333 5.66667 26.8333H42.3333C43.2538 26.8333 44 27.5795 44 28.5V30.1667C44 31.0871 43.2538 31.8333 42.3333 31.8333H5.66667C4.74619 31.8333 4 31.0871 4 30.1667V28.5ZM18.1667 37.6667C17.2462 37.6667 16.5 38.4129 16.5 39.3333V41C16.5 41.9205 17.2462 42.6667 18.1667 42.6667H42.3333C43.2538 42.6667 44 41.9205 44 41V39.3333C44 38.4129 43.2538 37.6667 42.3333 37.6667H18.1667Z" fill="#081E40"/>
</svg>
