<svg width="48" height="48" viewBox="0 0 48 48" fill="none" xmlns="http://www.w3.org/2000/svg">
<path fill-rule="evenodd" clip-rule="evenodd" d="M16 1.5C17.3807 1.5 18.5 2.61929 18.5 4V5.5H29.5V4C29.5 2.61929 30.6193 1.5 32 1.5C33.3807 1.5 34.5 2.61929 34.5 4V5.5H42C44.2091 5.5 46 7.29086 46 9.5V42.5C46 44.7091 44.2091 46.5 42 46.5H6C3.79086 46.5 2 44.7091 2 42.5V9.5C2 7.29086 3.79086 5.5 6 5.5H13.5V4C13.5 2.61929 14.6193 1.5 16 1.5ZM29.5 10.5C29.5 11.8807 30.6193 13 32 13C33.3807 13 34.5 11.8807 34.5 10.5H39C40.1046 10.5 41 11.3954 41 12.5V15.5H7V12.5C7 11.3954 7.89543 10.5 9 10.5H13.5C13.5 11.8807 14.6193 13 16 13C17.3807 13 18.5 11.8807 18.5 10.5H29.5ZM7 20.5V39.5C7 40.6046 7.89543 41.5 9 41.5H39C40.1046 41.5 41 40.6046 41 39.5V20.5H7ZM11 27C11 25.6193 12.1193 24.5 13.5 24.5H14.5C15.8807 24.5 17 25.6193 17 27C17 28.3807 15.8807 29.5 14.5 29.5H13.5C12.1193 29.5 11 28.3807 11 27ZM23.5 24.5C22.1193 24.5 21 25.6193 21 27C21 28.3807 22.1193 29.5 23.5 29.5H24.5C25.8807 29.5 27 28.3807 27 27C27 25.6193 25.8807 24.5 24.5 24.5H23.5ZM31 27C31 25.6193 32.1193 24.5 33.5 24.5H34.5C35.8807 24.5 37 25.6193 37 27C37 28.3807 35.8807 29.5 34.5 29.5H33.5C32.1193 29.5 31 28.3807 31 27ZM13.5 32.5C12.1193 32.5 11 33.6193 11 35C11 36.3807 12.1193 37.5 13.5 37.5H14.5C15.8807 37.5 17 36.3807 17 35C17 33.6193 15.8807 32.5 14.5 32.5H13.5ZM21 35C21 33.6193 22.1193 32.5 23.5 32.5H24.5C25.8807 32.5 27 33.6193 27 35C27 36.3807 25.8807 37.5 24.5 37.5H23.5C22.1193 37.5 21 36.3807 21 35ZM33.5 32.5C32.1193 32.5 31 33.6193 31 35C31 36.3807 32.1193 37.5 33.5 37.5H34.5C35.8807 37.5 37 36.3807 37 35C37 33.6193 35.8807 32.5 34.5 32.5H33.5Z" fill="#081E40"/>
</svg>
