<svg width="48" height="48" viewBox="0 0 48 48" fill="none" xmlns="http://www.w3.org/2000/svg">
<path fill-rule="evenodd" clip-rule="evenodd" d="M12.6667 4C11.7462 4 11 4.74619 11 5.66667V42.3333C11 43.2538 11.7462 44 12.6667 44H17.6667H26.8333C33.2767 44 38.5 38.7767 38.5 32.3333C38.5 29.0689 37.1592 26.1175 34.9983 24C37.1592 21.8825 38.5 18.9311 38.5 15.6667C38.5 9.22335 33.2767 4 26.8333 4H17.6667H12.6667ZM17.6667 10.6667V20.6667H26.8333C29.5948 20.6667 31.8333 18.4281 31.8333 15.6667C31.8333 12.9052 29.5948 10.6667 26.8333 10.6667H17.6667ZM17.6667 27.3333V37.3333H26.8333C29.5948 37.3333 31.8333 35.0948 31.8333 32.3333C31.8333 29.5719 29.5948 27.3333 26.8333 27.3333H17.6667Z" fill="#081E40"/>
</svg>
