<svg width="48" height="48" viewBox="0 0 48 48" fill="none" xmlns="http://www.w3.org/2000/svg">
<path fill-rule="evenodd" clip-rule="evenodd" d="M24 14C22.6193 14 21.5 12.8807 21.5 11.5V6C21.5 4.61929 22.6193 3.5 24 3.5C25.3807 3.5 26.5 4.61929 26.5 6V11.5C26.5 12.8807 25.3807 14 24 14ZM29 30C29.5523 30 30 29.5523 30 29V27C30 23.6863 27.3137 21 24 21C20.6863 21 18 23.6863 18 27V29C18 29.5523 18.4477 30 19 30H29ZM24 16C17.9249 16 13 20.9249 13 27V32.5217C13 33.8904 14.1096 35 15.4783 35H32.5217C33.8904 35 35 33.8904 35 32.5217V27C35 20.9249 30.0751 16 24 16ZM1.5 41C1.5 39.6193 2.61929 38.5 4 38.5H43.5C44.8807 38.5 46 39.6193 46 41C46 42.3807 44.8807 43.5 43.5 43.5H4C2.61929 43.5 1.5 42.3807 1.5 41ZM40 26C38.6193 26 37.5 27.1193 37.5 28.5C37.5 29.8807 38.6193 31 40 31H45.5C46.8807 31 48 29.8807 48 28.5C48 27.1193 46.8807 26 45.5 26H40ZM35.4117 14.563C34.3454 15.4401 34.192 17.0156 35.0691 18.0819C35.9462 19.1482 37.5216 19.3017 38.588 18.4246L42.8357 14.9307C43.902 14.0536 44.0554 12.4782 43.1783 11.4118C42.3012 10.3455 40.7258 10.1921 39.6594 11.0692L35.4117 14.563ZM13.1785 18.0819C14.0556 17.0156 13.9022 15.4401 12.8358 14.563L8.58812 11.0692C7.52178 10.1921 5.94632 10.3455 5.06923 11.4118C4.19214 12.4782 4.34555 14.0536 5.41189 14.9307L9.6596 18.4246C10.7259 19.3017 12.3014 19.1482 13.1785 18.0819ZM3 26C1.61929 26 0.5 27.1193 0.5 28.5C0.5 29.8807 1.61929 31 3 31H8.5C9.88071 31 11 29.8807 11 28.5C11 27.1193 9.88071 26 8.5 26H3Z" fill="#081E40"/>
</svg>
