<svg width="48" height="48" viewBox="0 0 48 48" fill="none" xmlns="http://www.w3.org/2000/svg">
<path fill-rule="evenodd" clip-rule="evenodd" d="M5.66667 6C4.74619 6 4 6.74619 4 7.66667V9.33333C4 10.2538 4.74619 11 5.66667 11H42.3333C43.2538 11 44 10.2538 44 9.33333V7.66667C44 6.74619 43.2538 6 42.3333 6H5.66667ZM11.5 16.8333C10.5795 16.8333 9.83333 17.5795 9.83333 18.5V20.1667C9.83333 21.0871 10.5795 21.8333 11.5 21.8333H35.6667C36.5871 21.8333 37.3333 21.0871 37.3333 20.1667V18.5C37.3333 17.5795 36.5871 16.8333 35.6667 16.8333H11.5ZM4 28.5C4 27.5795 4.74619 26.8333 5.66667 26.8333H42.3333C43.2538 26.8333 44 27.5795 44 28.5V30.1667C44 31.0871 43.2538 31.8333 42.3333 31.8333H5.66667C4.74619 31.8333 4 31.0871 4 30.1667V28.5ZM11.5 37.6667C10.5795 37.6667 9.83333 38.4129 9.83333 39.3333V41C9.83333 41.9205 10.5795 42.6667 11.5 42.6667H35.6667C36.5871 42.6667 37.3333 41.9205 37.3333 41V39.3333C37.3333 38.4129 36.5871 37.6667 35.6667 37.6667H11.5Z" fill="#081E40"/>
</svg>
