<svg width="48" height="48" viewBox="0 0 48 48" fill="none" xmlns="http://www.w3.org/2000/svg">
<path fill-rule="evenodd" clip-rule="evenodd" d="M8 7.5C7.72386 7.5 7.5 7.72386 7.5 8V15.1818C7.5 16.5625 6.38071 17.6818 5 17.6818C3.61929 17.6818 2.5 16.5625 2.5 15.1818V6C2.5 4.067 4.06701 2.5 6 2.5H29.4C30.6926 2.5 31.88 3.21242 32.4882 4.35294L34.0868 7.35033C34.9913 9.04628 36.7156 10.147 38.6347 10.2536L42.1941 10.4514C44.0489 10.5544 45.5 12.0884 45.5 13.946V43C45.5 44.933 43.933 46.5 42 46.5H6C4.06701 46.5 2.5 44.933 2.5 43V34.4773C2.5 33.0966 3.61929 31.9773 5 31.9773C6.38071 31.9773 7.5 33.0966 7.5 34.4773V41C7.5 41.2761 7.72386 41.5 8 41.5H40C40.2761 41.5 40.5 41.2761 40.5 41V15.838C40.5 15.5726 40.2927 15.3534 40.0277 15.3387L38.3573 15.2459C34.6936 15.0424 31.4019 12.941 29.6751 9.70327L28.6412 7.76471C28.5543 7.60177 28.3847 7.5 28.2 7.5H8ZM1.5 25C1.5 23.6193 2.61929 22.5 4 22.5L22.9645 22.5L21.2322 20.7678C20.2559 19.7915 20.2559 18.2085 21.2322 17.2322C22.2085 16.2559 23.7915 16.2559 24.7678 17.2322L30.5607 23.0251C31.9275 24.392 31.9275 26.608 30.5607 27.9749L24.7678 33.7678C23.7915 34.7441 22.2085 34.7441 21.2322 33.7678C20.2559 32.7915 20.2559 31.2085 21.2322 30.2322L23.9645 27.5L4 27.5C2.61929 27.5 1.5 26.3807 1.5 25Z" fill="#081E40"/>
</svg>
