<svg width="48" height="48" viewBox="0 0 48 48" fill="none" xmlns="http://www.w3.org/2000/svg">
<path fill-rule="evenodd" clip-rule="evenodd" d="M17 5.66667C17 4.74619 17.7462 4 18.6667 4H38.6667C39.5871 4 40.3333 4.74619 40.3333 5.66667V9C40.3333 9.92047 39.5871 10.6667 38.6667 10.6667H33.0088L21.519 37.3333H28.6667C29.5871 37.3333 30.3333 38.0795 30.3333 39V42.3333C30.3333 43.2538 29.5871 44 28.6667 44H8.66667C7.74619 44 7 43.2538 7 42.3333V39C7 38.0795 7.74619 37.3333 8.66667 37.3333H14.26L25.7498 10.6667H18.6667C17.7462 10.6667 17 9.92047 17 9V5.66667Z" fill="#081E40"/>
</svg>
