<svg width="49" height="48" viewBox="0 0 49 48" fill="none" xmlns="http://www.w3.org/2000/svg">
<path fill-rule="evenodd" clip-rule="evenodd" d="M37.2119 13.0214C43.1739 13.0214 48.0153 17.7803 48.0153 23.779C48.0153 29.6976 43.1739 34.5168 37.2119 34.5168C34.3109 34.5168 31.61 33.397 29.5693 31.3774L24.0077 26.4583L18.3458 31.4776C16.4053 33.4168 13.6844 34.5366 10.8034 34.5366C4.84146 34.5366 0 29.6976 0 23.779C0 17.8604 4.84146 13.0214 10.8034 13.0214C13.6844 13.0214 16.4053 14.1409 18.446 16.1806L24.0077 21.0997L29.6695 16.0806C31.61 14.1411 34.3309 13.0214 37.2119 13.0214ZM15.605 28.5577L21.0067 23.779L15.6851 19.0801C14.3245 17.7205 12.6241 17.0204 10.8034 17.0204C7.06217 17.0204 4.00119 20.0397 4.00119 23.779C4.00119 27.5183 7.06217 30.5376 10.8034 30.5376C12.6241 30.5376 14.3245 29.8377 15.605 28.558V28.5577ZM32.4103 19L27.0086 23.779L32.3302 28.4779C33.6908 29.8375 35.4113 30.5376 37.2119 30.5376C40.9531 30.5376 44.0141 27.5183 44.0141 23.779C44.0141 20.0397 40.9531 17.0204 37.2119 17.0204C35.3912 17.0204 33.6908 17.7202 32.4103 19ZM5.61597 20.7841V26.0001H7.15197C7.66397 26.0001 8.1093 25.9067 8.48797 25.7201C8.87197 25.5281 9.17063 25.2374 9.38397 24.8481C9.5973 24.4587 9.70397 23.9654 9.70397 23.3681C9.70397 22.7707 9.59463 22.2827 9.37597 21.9041C9.16263 21.5201 8.8613 21.2374 8.47197 21.0561C8.08263 20.8747 7.6213 20.7841 7.08797 20.7841H5.61597ZM7.01597 25.0481H6.79197V21.7361H7.01597C7.31463 21.7361 7.5733 21.7867 7.79197 21.8881C8.01597 21.9841 8.1893 22.1521 8.31197 22.3921C8.43463 22.6267 8.49597 22.9521 8.49597 23.3681C8.49597 23.7841 8.43463 24.1147 8.31197 24.3601C8.1893 24.6054 8.01597 24.7814 7.79197 24.8881C7.5733 24.9947 7.31463 25.0481 7.01597 25.0481ZM12.3741 26.096C11.9954 26.096 11.6541 26.0134 11.3501 25.848C11.0461 25.6827 10.8061 25.4454 10.6301 25.136C10.4541 24.8267 10.3661 24.4534 10.3661 24.016C10.3661 23.584 10.4541 23.2134 10.6301 22.904C10.8114 22.5947 11.0461 22.3574 11.3341 22.192C11.6221 22.0214 11.9234 21.936 12.2381 21.936C12.6168 21.936 12.9288 22.0214 13.1741 22.192C13.4248 22.3574 13.6114 22.584 13.7341 22.872C13.8621 23.1547 13.9261 23.4774 13.9261 23.84C13.9261 23.9414 13.9208 24.0427 13.9101 24.144C13.8994 24.24 13.8888 24.312 13.8781 24.36H11.5021C11.5554 24.648 11.6754 24.8614 11.8621 25C12.0488 25.1334 12.2728 25.2 12.5341 25.2C12.8168 25.2 13.1021 25.112 13.3901 24.936L13.7821 25.648C13.5794 25.7867 13.3528 25.896 13.1021 25.976C12.8514 26.056 12.6088 26.096 12.3741 26.096ZM11.4941 23.584H12.9261C12.9261 23.3654 12.8728 23.1867 12.7661 23.048C12.6648 22.904 12.4968 22.832 12.2621 22.832C12.0808 22.832 11.9181 22.896 11.7741 23.024C11.6301 23.1467 11.5368 23.3334 11.4941 23.584ZM15.6038 26.0001L14.2678 22.0321H15.4518L15.9638 23.9041C16.0172 24.1014 16.0678 24.3041 16.1158 24.5121C16.1692 24.7148 16.2225 24.9201 16.2758 25.1281H16.3078C16.3558 24.9201 16.4038 24.7148 16.4518 24.5121C16.5052 24.3041 16.5585 24.1014 16.6118 23.9041L17.1318 22.0321H18.2598L16.9638 26.0001H15.6038ZM32.736 26.096C32.2667 26.096 31.8534 25.9867 31.496 25.768C31.144 25.5493 30.8667 25.2373 30.664 24.832C30.4667 24.4213 30.368 23.9333 30.368 23.368C30.368 22.7973 30.4667 22.3147 30.664 21.92C30.8667 21.52 31.144 21.216 31.496 21.008C31.8534 20.7947 32.2667 20.688 32.736 20.688C33.2054 20.688 33.616 20.7947 33.968 21.008C34.3254 21.216 34.6027 21.52 34.8 21.92C35.0027 22.32 35.104 22.8027 35.104 23.368C35.104 23.9333 35.0027 24.4213 34.8 24.832C34.6027 25.2373 34.3254 25.5493 33.968 25.768C33.616 25.9867 33.2054 26.096 32.736 26.096ZM32.736 25.08C33.0934 25.08 33.376 24.9253 33.584 24.616C33.792 24.3067 33.896 23.8907 33.896 23.368C33.896 22.8453 33.792 22.4373 33.584 22.144C33.376 21.8507 33.0934 21.704 32.736 21.704C32.3787 21.704 32.096 21.8507 31.888 22.144C31.68 22.4373 31.576 22.8453 31.576 23.368C31.576 23.8907 31.68 24.3067 31.888 24.616C32.096 24.9253 32.3787 25.08 32.736 25.08ZM35.9888 22.032V27.472H37.1648V26.312L37.1248 25.68C37.2634 25.8134 37.4128 25.9174 37.5728 25.992C37.7328 26.0614 37.8981 26.096 38.0688 26.096C38.3568 26.096 38.6261 26.0134 38.8768 25.848C39.1328 25.6774 39.3408 25.432 39.5008 25.112C39.6608 24.792 39.7408 24.4054 39.7408 23.952C39.7408 23.3387 39.6021 22.8507 39.3248 22.488C39.0474 22.12 38.6688 21.936 38.1888 21.936C37.9808 21.936 37.7781 21.984 37.5808 22.08C37.3888 22.1707 37.2154 22.2854 37.0608 22.424H37.0288L36.9488 22.032H35.9888ZM38.3168 24.856C38.1728 25.0427 37.9994 25.136 37.7968 25.136C37.6954 25.136 37.5914 25.1174 37.4848 25.08C37.3781 25.0427 37.2714 24.976 37.1648 24.88V23.256C37.3888 23.016 37.6154 22.896 37.8448 22.896C38.3034 22.896 38.5328 23.2534 38.5328 23.968C38.5328 24.3734 38.4608 24.6694 38.3168 24.856ZM40.8957 25.944C41.173 26.0454 41.4424 26.096 41.7037 26.096C42.237 26.096 42.6424 25.9734 42.9197 25.728C43.197 25.4774 43.3357 25.1734 43.3357 24.816C43.3357 24.5707 43.2797 24.3734 43.1677 24.224C43.0611 24.0694 42.925 23.9467 42.7597 23.856C42.5997 23.76 42.4344 23.6827 42.2637 23.624C42.0611 23.5494 41.8824 23.48 41.7277 23.416C41.5784 23.3467 41.5037 23.248 41.5037 23.12C41.5037 22.912 41.6557 22.808 41.9597 22.808C42.0984 22.808 42.237 22.8374 42.3757 22.896C42.5144 22.9547 42.653 23.0374 42.7917 23.144L43.3197 22.44C43.1544 22.312 42.9544 22.1974 42.7197 22.096C42.4904 21.9894 42.2237 21.936 41.9197 21.936C41.4664 21.936 41.0984 22.0507 40.8157 22.28C40.5384 22.5094 40.3997 22.808 40.3997 23.176C40.3997 23.3947 40.453 23.5814 40.5597 23.736C40.6664 23.8854 40.7971 24.008 40.9517 24.104C41.1117 24.2 41.2717 24.28 41.4317 24.344C41.5704 24.3974 41.701 24.4507 41.8237 24.504C41.9464 24.552 42.045 24.6054 42.1197 24.664C42.1997 24.7227 42.2397 24.7974 42.2397 24.888C42.2397 24.9894 42.1997 25.072 42.1197 25.136C42.0397 25.1947 41.9117 25.224 41.7357 25.224C41.5704 25.224 41.4024 25.1894 41.2317 25.12C41.0664 25.0454 40.8931 24.9414 40.7117 24.808L40.1837 25.544C40.3864 25.7094 40.6237 25.8427 40.8957 25.944Z" fill="#081E40"/>
</svg>
