<svg width="48" height="48" viewBox="0 0 48 48" fill="none" xmlns="http://www.w3.org/2000/svg">
<g clip-path="url(#clip0_2211_6367)">
<path fill-rule="evenodd" clip-rule="evenodd" d="M17.8757 1.06109C18.3498 0.665733 18.927 0.475653 19.4994 0.481077C20.0721 0.475481 20.6496 0.665564 21.1239 1.06111L27.1009 6.04601C28.1612 6.93035 28.3039 8.50682 27.4195 9.56716C26.5352 10.6275 24.9587 10.7702 23.8984 9.88583L22 8.30253L22 17.7062C22 19.0869 20.8807 20.2062 19.5 20.2062C18.1193 20.2062 17 19.0869 17 17.7062L17 8.30209L15.101 9.88587C14.0406 10.7702 12.4641 10.6275 11.5798 9.56714C10.6955 8.50679 10.8382 6.93032 11.8986 6.046L17.8757 1.06109ZM14 24.4999C12.6193 24.4999 11.5 25.6192 11.5 26.9999C11.5 28.3806 12.6193 29.4999 14 29.4999L34 29.4999C35.3807 29.4999 36.5 28.3806 36.5 26.9999C36.5 25.6192 35.3807 24.4999 34 24.4999L14 24.4999ZM14 34.4999C12.6193 34.4999 11.5 35.6192 11.5 36.9999C11.5 38.3806 12.6193 39.4999 14 39.4999H28C29.3807 39.4999 30.5 38.3806 30.5 36.9999C30.5 35.6192 29.3807 34.4999 28 34.4999H14ZM8 13.4999C5.79086 13.4999 4 15.2908 4 17.4999V44.4999C4 46.7091 5.79086 48.4999 8 48.4999H40C42.2091 48.4999 44 46.7091 44 44.4999V17.4999C44 15.2908 42.2091 13.4999 40 13.4999H28.5C27.1193 13.4999 26 14.6192 26 15.9999C26 17.3806 27.1193 18.4999 28.5 18.4999H37.5C38.3284 18.4999 39 19.1715 39 19.9999V41.9999C39 42.8284 38.3284 43.4999 37.5 43.4999H10.5C9.67157 43.4999 9 42.8284 9 41.9999V18.4999H10.5C11.8807 18.4999 13 17.3806 13 15.9999C13 14.6192 11.8807 13.4999 10.5 13.4999H8Z" fill="#081E40"/>
</g>
<defs>
<clipPath id="clip0_2211_6367">
<rect width="48" height="48" fill="white"/>
</clipPath>
</defs>
</svg>
