<svg width="48" height="48" viewBox="0 0 48 48" fill="none" xmlns="http://www.w3.org/2000/svg">
<path fill-rule="evenodd" clip-rule="evenodd" d="M1.5 4.5C1.5 2.84315 2.84315 1.5 4.5 1.5H43.5C45.1569 1.5 46.5 2.84315 46.5 4.5V43.5C46.5 45.1569 45.1569 46.5 43.5 46.5H4.5C2.84315 46.5 1.5 45.1569 1.5 43.5V4.5ZM7.5 6.5C6.94772 6.5 6.5 6.94772 6.5 7.5V40.5C6.5 41.0523 6.94772 41.5 7.5 41.5H40.5C41.0523 41.5 41.5 41.0523 41.5 40.5V7.5C41.5 6.94772 41.0523 6.5 40.5 6.5H7.5Z" fill="#081E40"/>
<path d="M35.3394 25.7756C35.0403 26.1377 34.4523 25.9251 34.4539 25.4555L34.4589 23.9913C34.4594 23.8567 34.5686 23.7479 34.7032 23.7479C34.7782 23.7479 34.849 23.7134 34.8954 23.6545L36.973 21.0093C37.0678 20.8886 37.2127 20.8182 37.3662 20.8182H39.0218C39.4432 20.8182 39.6756 21.3074 39.4095 21.634L36.8044 24.8314C36.7095 24.948 36.5671 25.0156 36.4168 25.0156H36.2027C36.0536 25.0156 35.9122 25.0822 35.8173 25.1972L35.3394 25.7756ZM32.6001 29C32.3239 29 32.1001 28.7761 32.1001 28.5V18.5909C32.1001 18.3148 32.3239 18.0909 32.6001 18.0909H34.2048C34.481 18.0909 34.7048 18.3148 34.7048 18.5909V28.5C34.7048 28.7761 34.481 29 34.2048 29H32.6001ZM37.4577 29C37.2859 29 37.1262 28.9119 37.0346 28.7665L35.2452 25.9266C35.1244 25.7349 35.1476 25.486 35.3017 25.32L36.3209 24.2217C36.5419 23.9835 36.9277 24.0161 37.1057 24.2878L39.6845 28.2261C39.9023 28.5586 39.6637 29 39.2662 29H37.4577Z" fill="#081E40"/>
<path d="M26.2866 29C26.0104 29 25.7866 28.7761 25.7866 28.5V21.3182C25.7866 21.042 26.0104 20.8182 26.2866 20.8182H27.8168C28.0929 20.8182 28.3168 21.042 28.3168 21.3182V22.2613C28.3168 22.288 28.3384 22.3097 28.3652 22.3097C28.3869 22.3097 28.406 22.2951 28.412 22.2741C28.5619 21.7523 28.8018 21.3628 29.1317 21.1058C29.4691 20.8395 29.8615 20.7063 30.3089 20.7063C30.4297 20.7063 30.554 20.7152 30.6818 20.733C30.8961 20.7568 31.0387 20.9506 31.0387 21.1662V22.5648C31.0387 22.8105 30.7925 22.9948 30.5487 22.9648C30.3498 22.94 30.1722 22.9276 30.016 22.9276C29.707 22.9276 29.4283 22.9968 29.1797 23.1353C28.9347 23.2702 28.7411 23.4602 28.5991 23.7053C28.4606 23.9467 28.3913 24.2308 28.3913 24.5575V28.5C28.3913 28.7761 28.1675 29 27.8913 29H26.2866Z" fill="#081E40"/>
<path d="M20.3187 29.1545C19.4593 29.1545 18.7207 28.9787 18.1028 28.6271C17.4885 28.272 17.0144 27.7784 16.6806 27.1463C16.3503 26.5107 16.1852 25.7738 16.1852 24.9357C16.1852 24.0941 16.3503 23.3572 16.6806 22.7251C17.0144 22.0895 17.4885 21.5959 18.1028 21.2443C18.7207 20.8892 19.4593 20.7116 20.3187 20.7116C21.1781 20.7116 21.915 20.8892 22.5293 21.2443C23.1472 21.5959 23.6213 22.0895 23.9515 22.7251C24.2853 23.3572 24.4522 24.0941 24.4522 24.9357C24.4522 25.7738 24.2853 26.5107 23.9515 27.1463C23.6213 27.7784 23.1472 28.272 22.5293 28.6271C21.915 28.9787 21.1781 29.1545 20.3187 29.1545ZM20.3347 27.1889C20.6472 27.1889 20.9118 27.093 21.1284 26.9013C21.345 26.7095 21.5101 26.4432 21.6238 26.1023C21.7409 25.7614 21.7995 25.3672 21.7995 24.9197C21.7995 24.4652 21.7409 24.0675 21.6238 23.7266C21.5101 23.3857 21.345 23.1193 21.1284 22.9276C20.9118 22.7358 20.6472 22.6399 20.3347 22.6399C20.0115 22.6399 19.7381 22.7358 19.5144 22.9276C19.2942 23.1193 19.1255 23.3857 19.0083 23.7266C18.8947 24.0675 18.8379 24.4652 18.8379 24.9197C18.8379 25.3672 18.8947 25.7614 19.0083 26.1023C19.1255 26.4432 19.2942 26.7095 19.5144 26.9013C19.7381 27.093 20.0115 27.1889 20.3347 27.1889Z" fill="#081E40"/>
<path d="M8.82564 29C8.5495 29 8.32564 28.7761 8.32564 28.5V18.5909C8.32564 18.3148 8.5495 18.0909 8.82564 18.0909H15.2724C15.5485 18.0909 15.7724 18.3148 15.7724 18.5909V19.7322C15.7724 20.0084 15.5485 20.2322 15.2724 20.2322H11.4624C11.1862 20.2322 10.9624 20.4561 10.9624 20.7322V21.9695C10.9624 22.2456 11.1862 22.4695 11.4624 22.4695H14.7983C15.0744 22.4695 15.2983 22.6933 15.2983 22.9695V24.1161C15.2983 24.3923 15.0744 24.6161 14.7983 24.6161H11.4624C11.1862 24.6161 10.9624 24.84 10.9624 25.1161V28.5C10.9624 28.7761 10.7385 29 10.4624 29H8.82564Z" fill="#081E40"/>
</svg>
