<svg width="48" height="48" viewBox="0 0 48 48" fill="none" xmlns="http://www.w3.org/2000/svg">
<path fill-rule="evenodd" clip-rule="evenodd" d="M18.5 10C20.9853 10 23 12.0147 23 14.5C23 16.4591 21.7475 18.1243 20 18.7422V25.8203C21.334 25.228 22.9104 25.111 24.1201 25.0059C25.6536 24.8725 26.7358 24.7522 27.4795 24.3428C27.7967 24.1681 28.0217 23.9513 28.1826 23.6494C28.1873 23.6407 28.1907 23.6311 28.1953 23.6221C26.6088 22.9265 25.5 21.3433 25.5 19.5C25.5 17.0147 27.5147 15 30 15C32.4853 15 34.5 17.0147 34.5 19.5C34.5 21.5346 33.1492 23.252 31.2959 23.8086C31.1864 24.2577 31.0345 24.6763 30.8291 25.0615C30.3612 25.939 29.6874 26.5508 28.9268 26.9697C27.5142 27.7477 25.7213 27.8775 24.3799 27.9941C22.8464 28.1275 21.7642 28.2478 21.0205 28.6572C20.7033 28.8319 20.4783 29.0487 20.3174 29.3506C20.3128 29.3592 20.3083 29.368 20.3037 29.377C21.8909 30.0723 23 31.6563 23 33.5C23 35.9853 20.9853 38 18.5 38C16.0147 38 14 35.9853 14 33.5C14 31.5408 15.2523 29.8747 17 29.2568V18.7422C15.2525 18.1243 14 16.4591 14 14.5C14 12.0147 16.0147 10 18.5 10ZM18.5 32C17.6716 32 17 32.6716 17 33.5C17 34.3284 17.6716 35 18.5 35C19.3284 35 20 34.3284 20 33.5C20 32.6716 19.3284 32 18.5 32ZM30 18C29.1716 18 28.5 18.6716 28.5 19.5C28.5 20.3284 29.1716 21 30 21C30.8284 21 31.5 20.3284 31.5 19.5C31.5 18.6716 30.8284 18 30 18ZM18.5 13C17.6716 13 17 13.6716 17 14.5C17 15.3284 17.6716 16 18.5 16C19.3284 16 20 15.3284 20 14.5C20 13.6716 19.3284 13 18.5 13Z" fill="#081E40"/>
<path fill-rule="evenodd" clip-rule="evenodd" d="M42 2C44.2091 2 46 3.79086 46 6V42C46 44.14 44.3194 45.8879 42.2061 45.9951L42 46H6L5.79395 45.9951C3.7488 45.8913 2.10865 44.2512 2.00488 42.2061L2 42V6C2 3.79086 3.79086 2 6 2H42ZM7 39C7 40.1046 7.89543 41 9 41H39C40.1046 41 41 40.1046 41 39V9C41 7.89543 40.1046 7 39 7H9C7.89543 7 7 7.89543 7 9V39Z" fill="#081E40"/>
</svg>
