<svg width="48" height="48" viewBox="0 0 48 48" fill="none" xmlns="http://www.w3.org/2000/svg">
<path d="M47.0967 21.8622L26.1387 0.905709C25.8516 0.618568 25.5108 0.390792 25.1357 0.235389C24.7606 0.0799855 24.3585 0 23.9525 0C23.5464 0 23.1444 0.0799855 22.7692 0.235389C22.3941 0.390792 22.0533 0.618568 21.7662 0.905709L16.8972 5.77471L20.5617 9.43921C21.4014 9.03816 22.3448 8.90731 23.262 9.06468C24.1792 9.22204 25.025 9.65987 25.683 10.3179C26.341 10.9759 26.7789 11.8217 26.9362 12.7389C27.0936 13.6561 26.9628 14.5995 26.5617 15.4392L32.5602 21.4377C33.5181 20.9802 34.6069 20.876 35.6342 21.1436C36.6614 21.4112 37.561 22.0334 38.1739 22.9001C38.7868 23.7668 39.0736 24.8223 38.9835 25.8801C38.8935 26.9378 38.4324 27.9296 37.6818 28.6802C36.9311 29.4309 35.9393 29.892 34.8816 29.982C33.8238 30.0721 32.7683 29.7853 31.9016 29.1724C31.0349 28.5595 30.4127 27.6599 30.1451 26.6327C29.8775 25.6054 29.9817 24.5166 30.4392 23.5587L24.4407 17.5602C24.2978 17.629 24.151 17.6896 24.0012 17.7417V30.2562C25.002 30.6101 25.8455 31.3063 26.3827 32.2219C26.9198 33.1375 27.1159 34.2136 26.9364 35.2598C26.7569 36.306 26.2133 37.2552 25.4017 37.9394C24.5901 38.6236 23.5627 38.9988 22.5012 38.9988C21.4397 38.9988 20.4123 38.6236 19.6007 37.9394C18.7891 37.2552 18.2455 36.306 18.066 35.2598C17.8865 34.2136 18.0826 33.1375 18.6198 32.2219C19.1569 31.3063 20.0004 30.6101 21.0012 30.2562V17.7417C20.4062 17.5314 19.862 17.1982 19.4041 16.7639C18.9462 16.3296 18.5848 15.8038 18.3433 15.2207C18.1019 14.6376 17.9857 14.0102 18.0025 13.3794C18.0193 12.7485 18.1686 12.1281 18.4407 11.5587L14.7762 7.89421L0.905709 21.7632C0.618568 22.0503 0.390792 22.3911 0.235389 22.7662C0.0799855 23.1414 0 23.5434 0 23.9495C0 24.3555 0.0799855 24.7576 0.235389 25.1327C0.390792 25.5078 0.618568 25.8486 0.905709 26.1357L21.8652 47.0922C22.1523 47.3793 22.4931 47.6071 22.8682 47.7625C23.2434 47.9179 23.6454 47.9979 24.0515 47.9979C24.4575 47.9979 24.8596 47.9179 25.2347 47.7625C25.6098 47.6071 25.9506 47.3793 26.2377 47.0922L47.0967 26.2332C47.3839 25.9461 47.6116 25.6053 47.767 25.2302C47.9224 24.8551 48.0024 24.453 48.0024 24.047C48.0024 23.6409 47.9224 23.2389 47.767 22.8637C47.6116 22.4886 47.3839 22.1478 47.0967 21.8607V21.8622Z" fill="#081E40"/>
</svg>
