<svg width="48" height="48" viewBox="0 0 48 48" fill="none" xmlns="http://www.w3.org/2000/svg">
<path d="M24 0.499878C24.3643 0.499648 24.7303 0.578749 25.0703 0.740113C25.257 0.828373 25.4346 0.940343 25.5977 1.07605C27.7954 2.82311 31.1162 4.44999 34.417 5.65027C37.7899 6.87679 40.7023 7.49988 42 7.49988C43.3807 7.49988 44.5 8.61921 44.5 9.99988C44.5 10.0842 44.4955 10.1677 44.4873 10.2499C44.4955 10.3321 44.5 10.4155 44.5 10.4999V27.0624L44.4971 27.1249C44.1987 33.0914 40.3853 38.295 36.3447 41.8719C34.2867 43.6938 32.0633 45.1916 29.9805 46.246C27.967 47.2652 25.8304 47.9999 24 47.9999C22.1982 47.9999 20.0776 47.3165 18.0488 46.3231C15.9592 45.2999 13.7254 43.8295 11.6553 41.9969C7.56029 38.3719 3.79499 33.0384 3.50293 26.6132L3.5 26.5565V9.99988C3.50007 8.61922 4.61933 7.49988 6 7.49988C7.29767 7.49988 10.2101 6.87679 13.583 5.65027C16.8838 4.44999 20.2046 2.82311 22.4023 1.07605C22.5654 0.940343 22.743 0.828373 22.9297 0.740113C23.2697 0.578749 23.6357 0.499648 24 0.499878ZM24 6.0907C21.4041 7.82696 18.2272 9.28214 15.292 10.3495C12.914 11.2142 10.4964 11.8953 8.5 12.244V26.4403C8.72695 30.9938 11.4537 35.1402 14.9697 38.2528C16.712 39.7951 18.5722 41.0123 20.248 41.8329C21.9848 42.6832 23.3018 42.9999 24 42.9999C24.6695 42.9999 25.9706 42.672 27.7227 41.785C29.4054 40.9332 31.2759 39.6808 33.0303 38.1278C36.5971 34.9703 39.2751 30.9482 39.5 26.9344V12.244C37.5036 11.8953 35.086 11.2142 32.708 10.3495C29.7728 9.28214 26.5959 7.82696 24 6.0907ZM17.5 13.9999C18.3284 13.9999 18.9999 14.5596 19 15.2499V32.7499C19 33.4403 18.3284 33.9999 17.5 33.9999C16.6716 33.9999 16 33.4403 16 32.7499V15.2499C16.0001 14.5596 16.6716 13.9999 17.5 13.9999ZM28 13.9999C31.3137 13.9999 33.9999 16.7981 34 20.2499C34 23.7016 31.3137 26.4999 28 26.4999H25V32.7499C25 33.4403 24.1627 33.9999 23.5 33.9999C22.8373 33.9999 22 33.4403 22 32.7499V15.2499C22.0001 14.5595 22.5375 13.9999 23.2002 13.9999H28ZM25 23.4999H28C29.9883 23.4999 31 22.321 31 20.2499C31 18.1789 29.9882 16.9999 28 16.9999H25V23.4999Z" fill="#081E40"/>
</svg>
