<svg width="48" height="48" viewBox="0 0 48 48" fill="none" xmlns="http://www.w3.org/2000/svg">
<path fill-rule="evenodd" clip-rule="evenodd" d="M6 2C3.79086 2 2 3.79086 2 6V42C2 44.2091 3.79086 46 6 46H42C44.2091 46 46 44.2091 46 42V6C46 3.79086 44.2091 2 42 2H6ZM7 9C7 7.89543 7.89543 7 9 7H39C40.1046 7 41 7.89543 41 9V39C41 40.1046 40.1046 41 39 41H9C7.89543 41 7 40.1046 7 39V9ZM31 14C31 12.6193 29.8807 11.5 28.5 11.5C27.1193 11.5 26 12.6193 26 14V27C26 28.7558 25.4972 29.7333 25.0193 30.253C24.5342 30.7804 23.8858 31.0467 23.1905 31.0632C21.7184 31.0983 20.5 30.1074 20.5 28.5C20.5 27.1193 19.3807 26 18 26C16.6193 26 15.5 27.1193 15.5 28.5C15.5 33.3926 19.5316 36.1517 23.3095 36.0618C25.2392 36.0158 27.2158 35.2509 28.6995 33.6377C30.1903 32.0167 31 29.7442 31 27V14Z" fill="#081E40"/>
</svg>
