<svg width="48" height="48" viewBox="0 0 48 48" fill="none" xmlns="http://www.w3.org/2000/svg">
<path d="M24 0C37.2548 0 48 10.7452 48 24C48 37.2548 37.2548 48 24 48C10.7452 48 0 37.2548 0 24C0 10.7452 10.7452 0 24 0ZM24 5C13.5066 5 5 13.5066 5 24C5 34.4934 13.5066 43 24 43C34.4934 43 43 34.4934 43 24C43 13.5066 34.4934 5 24 5ZM14.7695 22.8994H14.8242L18.6221 17.5898H22.1494L18.0996 22.9717L22.9062 31H19.3955L16.2275 25.5098L14.7695 27.4902V31H11.5479V17.5898H14.7695V22.8994ZM30.25 23.3857C30.5199 24.1596 30.7363 25.0056 30.9883 25.8154H31.0781C31.348 25.0056 31.5645 24.1596 31.8164 23.3857L33.8682 17.5898H37.3604V31H34.4258V26.4102C34.4258 25.0782 34.6784 22.7382 34.8584 21.4062H34.7676L33.6523 24.9697L31.8516 29.8662H30.0879L28.2695 24.9697L27.1904 21.4062H27.1182C27.2802 22.7383 27.5322 25.0783 27.5322 26.4102V31H24.6523V17.5898H28.126L30.25 23.3857Z" fill="#081E40"/>
</svg>
