<svg width="48" height="48" viewBox="0 0 48 48" fill="none" xmlns="http://www.w3.org/2000/svg">
<path fill-rule="evenodd" clip-rule="evenodd" d="M25 9C25 7.89543 24.1046 7 23 7H9C7.89543 7 7 7.89543 7 9V29C7 30.1046 7.89543 31 9 31H18V16C18 13.7909 19.7909 12 22 12H25V9ZM30 12V6C30 3.79086 28.2091 2 26 2H6C3.79086 2 2 3.79086 2 6V32C2 34.2091 3.79086 36 6 36H18V42C18 44.2091 19.7909 46 22 46H42C44.2091 46 46 44.2091 46 42V29.5C46 28.1193 44.8807 27 43.5 27C42.1193 27 41 28.1193 41 29.5V39C41 40.1046 40.1046 41 39 41H25C23.8954 41 23 40.1046 23 39V36H26C28.2091 36 30 34.2091 30 32V17H35.6232L33.5583 18.4576C32.4303 19.2538 32.1613 20.8137 32.9576 21.9417C33.7538 23.0697 35.3137 23.3387 36.4417 22.5424L44.8943 16.5759C45.0269 16.4868 45.1522 16.3841 45.2679 16.2682C45.4786 16.058 45.6456 15.8162 45.7665 15.5559C45.9241 15.2187 46.0005 14.8581 46.0002 14.5C46.0005 14.1419 45.9241 13.7813 45.7665 13.4441C45.6456 13.1838 45.4786 12.942 45.2679 12.7318C45.1522 12.6159 45.0269 12.5132 44.8943 12.4241L36.4417 6.45758C35.3137 5.66135 33.7538 5.93029 32.9576 7.05829C32.1613 8.18629 32.4303 9.74619 33.5583 10.5424L35.6232 12H30ZM25 17C23.8954 17 23 17.8954 23 19V31C24.1046 31 25 30.1046 25 29V17Z" fill="#081E40"/>
</svg>
