<svg width="48" height="48" viewBox="0 0 48 48" fill="none" xmlns="http://www.w3.org/2000/svg">
<path fill-rule="evenodd" clip-rule="evenodd" d="M26 36C28.2091 36 30 34.2091 30 32L30 17L39 17C40.1046 17 41 17.8954 41 19L41 39C41 40.1046 40.1046 41 39 41H25C23.8954 41 23 40.1046 23 39V36H26ZM23 31C24.1046 31 25 30.1046 25 29L25 17C23.8954 17 23 17.8954 23 19L23 31ZM25 12H22C19.7908 12 18 13.7909 18 16L18 31L12.3765 31L14.4415 29.5424C15.5695 28.7461 15.8384 27.1863 15.0422 26.0583C14.246 24.9303 12.6861 24.6613 11.5581 25.4575L3.10336 31.4256C2.97738 31.5103 2.85808 31.6074 2.74736 31.7165C2.52627 31.9332 2.3523 32.1844 2.22801 32.4554C2.07343 32.7906 1.99875 33.1485 1.99958 33.5038C1.99981 33.8563 2.07441 34.2112 2.22764 34.5438C2.35201 34.8152 2.5262 35.0668 2.74763 35.2838C2.85826 35.3927 2.97746 35.4897 3.10332 35.5744L11.5581 41.5425C12.6861 42.3387 14.246 42.0697 15.0422 40.9417C15.8384 39.8137 15.5695 38.2539 14.4415 37.4576L12.3765 36L18 36V42C18 44.2091 19.7908 46 22 46L42 46C44.2091 46 46 44.2091 46 42L46 16C46 13.7909 44.2091 12 42 12L30 12V6C30 3.79086 28.2091 2 26 2L5.99999 2C3.79085 2 1.99999 3.79086 1.99999 6L1.99999 18.5C1.99999 19.8807 3.11928 21 4.49999 21C5.8807 21 6.99999 19.8807 6.99999 18.5L6.99999 9C6.99999 7.89543 7.89542 7 8.99999 7L23 7C24.1046 7 25 7.89543 25 9V12Z" fill="#081E40"/>
</svg>
