<svg width="48" height="48" viewBox="0 0 48 48" fill="none" xmlns="http://www.w3.org/2000/svg">
<path fill-rule="evenodd" clip-rule="evenodd" d="M42 11C42 9.89543 41.1046 9 40 9H8C6.89543 9 6 9.89543 6 11V31C6 32.1046 6.89543 33 8 33H40C41.1046 33 42 32.1046 42 31V11ZM4 4C2.34315 4 1 5.34315 1 7V35C1 36.6569 2.34315 38 4 38H44C45.6569 38 47 36.6569 47 35V7C47 5.34315 45.6569 4 44 4H4Z" fill="#081E40"/>
<path fill-rule="evenodd" clip-rule="evenodd" d="M37 14C37 15.1046 36.1046 16 35 16H13C11.8954 16 11 15.1046 11 14C11 12.8954 11.8954 12 13 12H35C36.1046 12 37 12.8954 37 14Z" fill="#081E40"/>
<path fill-rule="evenodd" clip-rule="evenodd" d="M37 21C37 22.1046 36.1046 23 35 23H13C11.8954 23 11 22.1046 11 21C11 19.8954 11.8954 19 13 19H35C36.1046 19 37 19.8954 37 21Z" fill="#081E40"/>
<path fill-rule="evenodd" clip-rule="evenodd" d="M37 28C37 29.1046 36.1046 30 35 30H13C11.8954 30 11 29.1046 11 28C11 26.8954 11.8954 26 13 26H35C36.1046 26 37 26.8954 37 28Z" fill="#081E40"/>
<path fill-rule="evenodd" clip-rule="evenodd" d="M19 35C19.9763 35.9763 19.9763 37.5592 19 38.5355L12.5355 45C11.5592 45.9763 9.97631 45.9763 9 45C8.02369 44.0237 8.02369 42.4408 9 41.4645L15.4645 35C16.4408 34.0237 18.0237 34.0237 19 35Z" fill="#081E40"/>
<path fill-rule="evenodd" clip-rule="evenodd" d="M29 35C28.0237 35.9763 28.0237 37.5592 29 38.5355L35.4645 45C36.4408 45.9763 38.0237 45.9763 39 45C39.9763 44.0237 39.9763 42.4408 39 41.4645L32.5355 35C31.5592 34.0237 29.9763 34.0237 29 35Z" fill="#081E40"/>
<path d="M30 13C30 11.8954 30.8954 11 32 11C33.1046 11 34 11.8954 34 13V15C34 16.1046 33.1046 17 32 17C30.8954 17 30 16.1046 30 15V13Z" fill="#081E40"/>
<path d="M24 27C24 25.8954 24.8954 25 26 25C27.1046 25 28 25.8954 28 27V29C28 30.1046 27.1046 31 26 31C24.8954 31 24 30.1046 24 29V27Z" fill="#081E40"/>
<path d="M14 20C14 18.8954 14.8954 18 16 18C17.1046 18 18 18.8954 18 20V22C18 23.1046 17.1046 24 16 24C14.8954 24 14 23.1046 14 22V20Z" fill="#081E40"/>
</svg>
