<svg width="48" height="48" viewBox="0 0 48 48" fill="none" xmlns="http://www.w3.org/2000/svg">
<path fill-rule="evenodd" clip-rule="evenodd" d="M11.5903 41.5908H37.5903C38.6949 41.5908 39.5903 40.6954 39.5903 39.5908V16.5908H29.5903C27.9335 16.5908 26.5903 15.2477 26.5903 13.5908V5.59082H11.5903C10.4858 5.59082 9.59033 6.48625 9.59033 7.59082V39.5908C9.59033 40.6954 10.4858 41.5908 11.5903 41.5908ZM30.5903 7.85914L35.9099 12.5908H30.5903V7.85914ZM11.5903 1.59082C8.27662 1.59082 5.59033 4.27711 5.59033 7.59082V39.5908C5.59033 42.9045 8.27662 45.5908 11.5903 45.5908H37.5903C40.904 45.5908 43.5903 42.9045 43.5903 39.5908V15.8645C43.5903 14.7225 43.1021 13.6348 42.2488 12.8758L30.6987 2.60207C29.9663 1.95067 29.0203 1.59082 28.0402 1.59082H11.5903ZM23.1387 37.2747C22.0511 37.0101 21.3786 35.8991 21.6366 34.7934L24.6049 22.0752C24.863 20.9694 25.9539 20.2875 27.0416 20.5522C28.1293 20.8169 28.8018 21.9278 28.5437 23.0336L25.5754 35.7518C25.3174 36.8575 24.2264 37.5394 23.1387 37.2747ZM20.4233 22.3251C19.6329 21.5211 18.3514 21.5211 17.561 22.3251L12.8017 27.1664C11.8532 28.1312 11.8532 29.6955 12.8017 30.6603L17.561 35.5016C18.3514 36.3056 19.6329 36.3056 20.4233 35.5016C21.2137 34.6976 21.2137 33.394 20.4233 32.59L16.8089 28.9133L20.4233 25.2367C21.2137 24.4327 21.2137 23.1291 20.4233 22.3251ZM29.7574 22.3251C30.5478 21.5211 31.8293 21.5211 32.6197 22.3251L37.379 27.1664C38.3274 28.1312 38.3274 29.6955 37.379 30.6603L32.6197 35.5016C31.8293 36.3056 30.5478 36.3056 29.7574 35.5016C28.9669 34.6976 28.9669 33.394 29.7574 32.59L33.3717 28.9133L29.7574 25.2367C28.9669 24.4327 28.9669 23.1291 29.7574 22.3251Z" fill="#0D1F3E"/>
</svg>
