<svg width="48" height="48" viewBox="0 0 48 48" fill="none" xmlns="http://www.w3.org/2000/svg">
<path fill-rule="evenodd" clip-rule="evenodd" d="M14.3157 17.9286C14.16 18.255 14.0025 18.5851 13.8361 18.918L13.7931 19.0039L13.7437 19.0862C13.043 20.2541 11.8038 21.1161 10.9633 21.6949C10.7429 21.8467 10.5261 21.9936 10.3123 22.1385L10.3123 22.1385L10.3122 22.1386C9.54363 22.6594 8.81307 23.1545 8.08683 23.759C6.35998 25.1963 5 26.9782 5 30C5 31.563 5.38337 32.6219 5.89594 33.3763C6.41926 34.1464 7.18874 34.7614 8.19983 35.2429C10.3008 36.2434 13.0833 36.5 15.5 36.5C16.8807 36.5 18 37.6193 18 39C18 40.3808 16.8807 41.5 15.5 41.5C12.9167 41.5 9.19916 41.2567 6.05017 39.7572C4.43626 38.9887 2.89324 37.8537 1.76031 36.1864C0.616626 34.5032 0 32.4371 0 30C0 25.0219 2.44002 21.9537 4.88817 19.916C5.82477 19.1364 6.81796 18.4646 7.60482 17.9324C7.79183 17.8059 7.96719 17.6873 8.12736 17.577C8.57541 17.2684 8.90471 17.0273 9.15073 16.8162C9.31207 16.6779 9.3949 16.5879 9.43183 16.5441C9.51081 16.3817 9.59662 16.1989 9.69036 15.9992L9.69045 15.9991C10.3472 14.6 11.3931 12.372 13.2015 10.5257C15.4969 8.18206 18.8838 6.5 24 6.5C29.1162 6.5 32.5031 8.18206 34.7985 10.5257C36.6069 12.372 37.6528 14.6 38.3096 15.9991L38.3096 15.9992C38.4034 16.1989 38.4892 16.3817 38.5682 16.5441C38.6051 16.5879 38.6879 16.6779 38.8493 16.8162C39.0953 17.0273 39.4246 17.2684 39.8726 17.577C40.0328 17.6873 40.2082 17.8059 40.3952 17.9324C41.182 18.4646 42.1752 19.1364 43.1118 19.916C45.56 21.9537 48 25.0219 48 30C48 32.4371 47.3834 34.5032 46.2397 36.1864C45.1068 37.8537 43.5637 38.9887 41.9498 39.7572C38.8008 41.2567 35.0833 41.5 32.5 41.5C31.1193 41.5 30 40.3808 30 39C30 37.6193 31.1193 36.5 32.5 36.5C34.9167 36.5 37.6992 36.2434 39.8002 35.2429C40.8113 34.7614 41.5807 34.1464 42.1041 33.3763C42.6166 32.6219 43 31.563 43 30C43 26.9782 41.64 25.1963 39.9132 23.759C39.1869 23.1545 38.4563 22.6594 37.6877 22.1385C37.4739 21.9936 37.2571 21.8467 37.0367 21.6949C36.1962 21.1161 34.957 20.2541 34.2563 19.0862L34.2069 19.0039L34.1639 18.918C33.9975 18.5852 33.8401 18.2552 33.6844 17.9289L33.6844 17.9287L33.6843 17.9286C33.0195 16.535 32.3871 15.2093 31.2265 14.0243C29.9469 12.7179 27.8838 11.5 24 11.5C20.1162 11.5 18.0531 12.7179 16.7735 14.0243C15.6129 15.2093 14.9805 16.535 14.3157 17.9286ZM16.4577 22.09C15.9713 20.8134 14.1706 20.7985 13.6632 22.0669L9.42544 32.6614C9.06649 33.5588 9.50296 34.5773 10.4003 34.9362C11.2977 35.2952 12.3162 34.8587 12.6751 33.9613L13.2545 32.3115H16.6983L17.4149 34.4344C17.759 35.3375 18.7701 35.7908 19.6733 35.4467C20.5764 35.1027 21.0297 34.0916 20.6856 33.1884L16.4577 22.09ZM15.5169 28.8115L15.0105 27.3115L14.4837 28.8115H15.5169ZM26.5508 21.5H23.8008H23.5508V21.5174C22.7027 21.6361 22.0508 22.3502 22.0508 23.2133V33.7867C22.0508 34.7329 22.8343 35.5 23.8008 35.5C24.7673 35.5 25.5508 34.7329 25.5508 33.7867V30.5H26.5508C29.0361 30.5 31.0508 28.4853 31.0508 26C31.0508 23.5147 29.0361 21.5 26.5508 21.5ZM25.5508 27V25H26.5508C27.1031 25 27.5508 25.4477 27.5508 26C27.5508 26.5523 27.1031 27 26.5508 27H25.5508ZM36.0508 23.2133C36.0508 22.2671 35.2673 21.5 34.3008 21.5C33.3343 21.5 32.5508 22.2671 32.5508 23.2133V33.7867C32.5508 34.7329 33.3343 35.5 34.3008 35.5C35.2673 35.5 36.0508 34.7329 36.0508 33.7867V23.2133Z" fill="#081E40"/>
</svg>
