<svg width="48" height="48" viewBox="0 0 48 48" fill="none" xmlns="http://www.w3.org/2000/svg">
<path d="M2.66007 19.3008L21.1495 2.61519C21.9152 1.92424 23.0807 1.92878 23.8409 2.62567L26.8936 5.42399C27.7577 6.216 27.7585 7.57788 26.8954 8.37095L10.3234 23.5993C10.1173 23.7887 10 24.0558 10 24.3357V36.8965C10 37.4488 10.4477 37.8965 11 37.8965H37C37.5523 37.8965 38 37.4488 38 36.8965V24.3649C38 24.0681 37.8682 23.7866 37.6402 23.5966L35.3351 21.6757C35.1431 21.5157 34.8624 21.5221 34.6779 21.6906L25.1743 30.3678C24.5324 30.9539 23.5 30.4985 23.5 29.6293V21.3376C23.5 21.0566 23.6182 20.7885 23.8257 20.5991L33.6544 11.6251C34.417 10.9288 35.5842 10.9276 36.3483 11.6222L45.3453 19.8013C45.7623 20.1804 46 20.7177 46 21.2812V43.8965C46 45.0011 45.1046 45.8965 44 45.8965H4C2.89543 45.8965 2 45.0011 2 43.8965V20.7856C2 20.2196 2.23985 19.68 2.66007 19.3008Z" fill="#081E40"/>
</svg>
