<svg width="48" height="48" viewBox="0 0 48 48" fill="none" xmlns="http://www.w3.org/2000/svg">
<path fill-rule="evenodd" clip-rule="evenodd" d="M4 4C4 2.34315 5.34315 1 7 1H41C42.6569 1 44 2.34315 44 4V31.0355L28.8019 46.2336C27.2144 47.8212 24.5 46.6968 24.5 44.4517V30.02C24.5 28.6284 25.6281 27.5 27.02 27.5H37C38.1046 27.5 39 26.6046 39 25.5V8C39 6.89543 38.1046 6 37 6H11C9.89543 6 9 6.89543 9 8V40C9 41.1046 9.89543 42 11 42H16C17.3807 42 18.5 43.1193 18.5 44.5C18.5 45.8807 17.3807 47 16 47H7C5.34315 47 4 45.6569 4 44V4ZM35.4645 32.5H29.5V38.4645L35.4645 32.5Z" fill="#081E40"/>
<path fill-rule="evenodd" clip-rule="evenodd" d="M36 14C36 15.1046 35.1046 16 34 16H14C12.8954 16 12 15.1046 12 14C12 12.8954 12.8954 12 14 12H34C35.1046 12 36 12.8954 36 14Z" fill="#081E40"/>
<path fill-rule="evenodd" clip-rule="evenodd" d="M36 22C36 23.1046 35.1046 24 34 24H14C12.8954 24 12 23.1046 12 22C12 20.8954 12.8954 20 14 20H34C35.1046 20 36 20.8954 36 22Z" fill="#081E40"/>
</svg>
