<svg width="48" height="48" viewBox="0 0 48 48" fill="none" xmlns="http://www.w3.org/2000/svg">
<path fill-rule="evenodd" clip-rule="evenodd" d="M23.5 37.25C31.7843 37.25 38.5 30.5343 38.5 22.25C38.5 13.9657 31.7843 7.25 23.5 7.25C15.433 7.25 8.85329 13.6181 8.51376 21.6016H10.9244C11.7812 21.6016 12.2412 22.6086 11.6803 23.2563L6.8125 28.8772C6.41373 29.3376 5.69941 29.3376 5.30064 28.8772L0.432794 23.2563C-0.128082 22.6086 0.331971 21.6016 1.18872 21.6016H3.51031C3.85255 10.856 12.6713 2.25 23.5 2.25C34.5457 2.25 43.5 11.2043 43.5 22.25C43.5 28.2235 40.8812 33.5853 36.7291 37.25H40.3516V34.9389C40.3516 34.0821 41.3586 33.6221 42.0063 34.1829L47.6272 39.0508C48.0876 39.4496 48.0876 40.1639 47.6272 40.5626L42.0063 45.4305C41.3586 45.9914 40.3516 45.5313 40.3516 44.6746V42.25L23.5 42.25L2.5 42.25C1.11929 42.25 0 41.1307 0 39.75C0 38.3693 1.11929 37.25 2.5 37.25H23V37.2418C23.166 37.2473 23.3327 37.25 23.5 37.25Z" fill="#081E40"/>
</svg>
