<svg width="48" height="48" viewBox="0 0 48 48" fill="none" xmlns="http://www.w3.org/2000/svg">
<path fill-rule="evenodd" clip-rule="evenodd" d="M7 7.5C7 7.22386 7.22386 7 7.5 7H40.5C40.7761 7 41 7.22386 41 7.5V40.5C41 40.7761 40.7761 41 40.5 41H7.5C7.22386 41 7 40.7761 7 40.5V7.5ZM2 6C2 3.79086 3.79086 2 6 2H42C44.2091 2 46 3.79086 46 6V42C46 44.2091 44.2091 46 42 46H6C3.79086 46 2 44.2091 2 42V6ZM17.7737 26.2202C17.7737 28.7042 15.7037 30.1082 13.0217 30.1082C11.5101 30.1082 10.2814 29.8578 9.21727 29.1456C8.69228 28.7943 8.70218 28.0557 9.14887 27.609C9.5978 27.1601 10.3242 27.1814 10.8976 27.4541C11.5422 27.7607 12.2807 27.8762 13.0577 27.8762C14.5337 27.8762 15.3257 27.3182 15.3257 26.2922C15.3257 25.8422 15.1997 25.4642 14.9297 25.2122C14.6777 24.9782 14.3897 24.8522 13.7957 24.7622L12.2477 24.5462C11.1497 24.3842 10.3397 24.0422 9.76374 23.4842C9.15174 22.8722 8.84574 22.0442 8.84574 20.9642C8.84574 18.6782 10.5377 17.0762 13.3097 17.0762C14.6157 17.0762 15.6553 17.313 16.5527 17.8669C17.0858 18.196 17.0832 18.9326 16.6376 19.3731C16.2078 19.798 15.521 19.7776 14.9641 19.5426C14.388 19.2996 13.7864 19.2542 13.2377 19.2542C11.9057 19.2542 11.2577 19.9922 11.2577 20.8742C11.2577 21.1982 11.3657 21.5402 11.6357 21.7922C11.8877 22.0262 12.3017 22.2242 12.8237 22.2962L14.3357 22.5122C15.5057 22.6742 16.2437 22.9982 16.7837 23.5022C17.4677 24.1502 17.7737 25.0862 17.7737 26.2202ZM28.8138 29.8832C29.1767 29.5203 29.1767 28.932 28.8138 28.5692L28.3728 28.1282C29.1655 26.9656 29.1652 25.5789 29.1648 23.7151L29.1648 23.5922L29.1648 23.5024C29.1651 21.3348 29.1652 19.7586 27.8868 18.4802C26.9868 17.5802 25.8888 17.0762 24.4308 17.0762C22.9728 17.0762 21.8568 17.5802 20.9568 18.4802C19.6952 19.7418 19.6958 21.2935 19.6968 23.4174L19.6968 23.5922L19.6968 23.767C19.6958 25.8909 19.6952 27.4425 20.9568 28.7042C21.8568 29.6042 22.9728 30.1082 24.4308 30.1082C25.4388 30.1082 26.3028 29.8742 27.0228 29.4062L27.4998 29.8832C27.8627 30.246 28.451 30.246 28.8138 29.8832ZM26.0328 19.9922C26.5188 20.5322 26.6628 21.1262 26.6628 23.5922C26.6628 24.8882 26.6268 25.6262 26.4288 26.1842L26.1291 25.8845C25.7671 25.5224 25.1806 25.5204 24.8161 25.88C24.4459 26.2452 24.4463 26.8427 24.8169 27.2074L25.2588 27.6422C25.0248 27.8042 24.7368 27.8762 24.4308 27.8762C23.7468 27.8762 23.1708 27.6062 22.8108 27.1922C22.3248 26.6522 22.1988 26.0582 22.1988 23.5922C22.1988 21.1262 22.3248 20.5322 22.8108 19.9922C23.1708 19.5782 23.7468 19.3082 24.4308 19.3082C25.1148 19.3082 25.6728 19.5782 26.0328 19.9922ZM38.8953 30.0001C39.5116 30.0001 40.0113 29.5004 40.0113 28.8841C40.0113 28.2677 39.5116 27.7681 38.8953 27.7681H34.6973C34.4211 27.7681 34.1973 27.5442 34.1973 27.2681V18.4351C34.1973 17.7442 33.6372 17.1841 32.9463 17.1841C32.2553 17.1841 31.6953 17.7442 31.6953 18.4351V29.0001C31.6953 29.5524 32.143 30.0001 32.6953 30.0001H38.8953Z" fill="#081E40"/>
</svg>
