<svg width="48" height="48" viewBox="0 0 48 48" fill="none" xmlns="http://www.w3.org/2000/svg">
<path d="M28.5508 0C30.1207 0 31.6285 0.6153 32.75 1.71387L44.1982 12.9297C45.3503 14.0583 46 15.6031 46 17.2158V40.1631C46 44.3558 42.6389 47.7791 38.4121 47.9893L38 48H16L15.5879 47.9893C11.3611 47.7791 8 44.3558 8 40.1631V35.2656H4C2.89554 35.2656 2.00018 34.37 2 33.2656V22.5713C2.00007 21.4668 2.89547 20.5713 4 20.5713H8V7.83691C8 3.50881 11.5817 3.15554e-08 16 0H28.5508ZM16 3.91797C13.7909 3.91797 12 5.67286 12 7.83691V20.5713H30C31.1045 20.5713 31.9999 21.4668 32 22.5713V33.2656C31.9998 34.37 31.1045 35.2656 30 35.2656H12V40.1631C12 42.3271 13.7909 44.082 16 44.082H38C40.2091 44.082 42 42.3271 42 40.1631V18.6943C42 16.4852 40.2091 14.6943 38 14.6943H33L32.7959 14.6836C31.7872 14.5834 31 13.7489 31 12.7344V7.91797C30.9998 5.70901 29.209 3.91797 27 3.91797H16ZM6 23.6631V24.8154H8.58008V32.3262H9.99609V24.8154H12.5879V23.6631H6ZM12.4248 32.3262H13.8525L14.5967 29.8701H17.6689L18.4131 32.3262H19.8887L16.9609 23.6631H15.3525L12.4248 32.3262ZM21.0537 32.3262H22.4453V28.835H23.8857L25.8779 32.3262H27.4502L25.29 28.6592C26.4059 28.3182 27.1377 27.5186 27.1377 26.1787C27.1377 24.2979 25.7693 23.6631 23.9453 23.6631H21.0537V32.3262ZM16.1572 24.7441C16.4332 25.7196 16.6964 26.6838 16.9844 27.624L17.333 28.7881H14.9326L15.2812 27.624C15.5692 26.6838 15.8445 25.7314 16.1084 24.7441H16.1572ZM23.7773 24.7676C25.0493 24.7676 25.7578 25.1325 25.7578 26.1787C25.7578 27.2249 25.0493 27.7422 23.7773 27.7422H22.4453V24.7676H23.7773Z" fill="#081E40"/>
</svg>
