<svg width="36" height="48" viewBox="0 0 36 48" fill="none" xmlns="http://www.w3.org/2000/svg">
<path d="M18 0C27.9222 3.03383e-06 35.9983 8.54816 36 19.0695L35.9874 19.7985C35.8614 23.3987 34.7696 26.89 32.8368 29.8622C32.7474 30.0257 32.626 30.2381 32.4781 30.4487L32.4654 30.4659L21.064 46.3948L21.009 46.4723L20.9477 46.545C20.2096 47.422 19.1898 48 18 48C16.8673 48 15.8363 47.4778 15.1091 46.6215L15.0451 46.545L14.9865 46.4636L3.53275 30.4678L3.51292 30.441C3.35695 30.2168 3.23232 30.0013 3.13432 29.8249C1.08995 26.672 8.03761e-05 22.9387 0 19.0733C0 8.55057 8.07522 0 18 0ZM17.9991 10.8406C20.0611 10.8406 22.0419 11.6944 23.5195 13.2207C24.9971 14.7469 25.8552 16.8248 25.9111 19.0121L25.912 19.0485V19.0848C25.9068 21.308 25.0715 23.4385 23.5889 25.0092C22.1062 26.58 20.0969 27.4633 18.0018 27.4649H17.9991C15.9049 27.4638 13.8944 26.5834 12.4102 25.0112C10.9269 23.4398 10.0917 21.3079 10.0871 19.0839L10.0862 19.0485L10.0871 19.0121C10.1429 16.8248 11.0012 14.7469 12.4787 13.2207C13.9563 11.6944 15.9371 10.8406 17.9991 10.8406ZM17.9991 15.7385C17.1396 15.7386 16.3136 16.0944 15.6977 16.7305C15.0898 17.3586 14.7339 18.2109 14.7025 19.1097C14.7133 20.0238 15.0604 20.8977 15.6707 21.5443C16.2876 22.1979 17.1245 22.565 17.9991 22.566C18.8723 22.5651 19.7095 22.1979 20.3275 21.5434C20.9382 20.8964 21.2843 20.0215 21.2948 19.1068C21.2627 18.209 20.9079 17.3579 20.3005 16.7305C19.6845 16.0943 18.8587 15.7385 17.9991 15.7385ZM4.61539 19.0733C4.61547 21.9805 5.43963 24.7669 6.97446 27.1081L7.02945 27.1923L7.07722 27.2803C7.15109 27.4157 7.19209 27.4828 7.22326 27.5281L18 42.5778L28.7776 27.5214C28.7865 27.5087 28.8028 27.4835 28.8227 27.4496C28.8418 27.4171 28.8552 27.3914 28.8597 27.3827L28.9219 27.2612L28.9967 27.1483C30.5547 24.7816 31.3882 21.9632 31.3846 19.0762V19.0733C31.3846 11.2636 25.3819 4.89796 18 4.89796C10.6169 4.89796 4.61539 11.2634 4.61539 19.0733Z" fill="black"/>
</svg>
