<svg width="48" height="48" viewBox="0 0 48 48" fill="none" xmlns="http://www.w3.org/2000/svg">
<g clip-path="url(#clip0_10044_266)">
<path d="M44.3213 26.7949C45.438 26.1963 46.8486 26.5294 47.5723 27.6025C48.296 28.6757 48.0761 30.1079 47.1026 30.9189L46.8975 31.0723L26.5166 44.8184C24.996 45.8439 23.0041 45.8439 21.4834 44.8184L1.10256 31.0723L0.897479 30.9189C-0.0760373 30.1079 -0.295936 28.6757 0.427752 27.6025C1.1515 26.5294 2.562 26.1962 3.67873 26.7949L3.89748 26.9277L23.4409 40.1073C23.7788 40.3352 24.2212 40.3352 24.5591 40.1073L44.1026 26.9277L44.3213 26.7949ZM44.1358 13.9053C45.2927 13.1519 46.8413 13.4789 47.5948 14.6357C48.3481 15.7927 48.0212 17.3413 46.8643 18.0947L26.4551 31.3848C25.0558 32.2957 23.2759 32.3528 21.8291 31.5557L21.5449 31.3848L1.13576 18.0947L0.928729 17.9443C-0.057651 17.1491 -0.300972 15.7204 0.405291 14.6357C1.11159 13.5513 2.51644 13.196 3.6426 13.7764L3.86428 13.9053L23.4544 26.6613C23.7861 26.8773 24.214 26.8773 24.5457 26.6613L44.1358 13.9053ZM45.2559 2.5127C46.5164 2.64082 47.5 3.70566 47.5 5C47.5 6.29434 46.5164 7.35918 45.2559 7.4873L45 7.5H3.00002C1.61932 7.49998 0.500018 6.3807 0.500018 5C0.500018 3.6193 1.61932 2.50002 3.00002 2.5H45L45.2559 2.5127Z" fill="#081E40"/>
</g>
<defs>
<clipPath id="clip0_10044_266">
<rect width="48" height="48" fill="white"/>
</clipPath>
</defs>
</svg>
