<svg width="48" height="48" viewBox="0 0 48 48" fill="none" xmlns="http://www.w3.org/2000/svg">
<path fill-rule="evenodd" clip-rule="evenodd" d="M2 6C2 3.79086 3.79086 2 6 2H16.4036C17.425 2 18.4076 2.39068 19.1501 3.09195L25.8378 9.40805C26.5803 10.1093 27.5629 10.5 28.5843 10.5H42C44.2091 10.5 46 12.2909 46 14.5V41.7684C46 43.9776 44.2091 45.7684 42 45.7684H22.5C21.1193 45.7684 20 44.6491 20 43.2684C20 41.8877 21.1193 40.7684 22.5 40.7684H39C40.1046 40.7684 41 39.873 41 38.7684V17.5C41 16.3954 40.1046 15.5 39 15.5H26.5964C25.575 15.5 24.5924 15.1093 23.8499 14.4081L16.5841 7.54597C16.2129 7.19534 15.7216 7 15.2109 7H9C7.89543 7 7 7.89543 7 9V18.5C7 19.8807 5.88071 21 4.5 21C3.11929 21 2 19.8807 2 18.5V6ZM10.0001 28.4404L6.09125 32.3494C5.21259 33.2281 3.78797 33.2281 2.90927 32.3494C2.03057 31.4708 2.03054 30.0461 2.90921 29.1674L8.40897 23.6675C9.28762 22.7888 10.7123 22.7887 11.5909 23.6674L11.5927 23.6691L17.0912 29.1674C17.9699 30.046 17.97 31.4706 17.0913 32.3493C16.2126 33.228 14.788 33.2281 13.9093 32.3494L10.0001 28.4404ZM10.0001 40.56L6.09933 36.619C5.22518 35.7258 3.80058 35.7185 2.9174 36.6026C2.03421 37.4668 2.02688 38.8914 2.90103 39.7845L8.40051 45.3409C8.40592 45.3363 8.41169 45.3421 8.41714 45.3575C9.1899 46.1124 10.3772 46.2025 11.2476 45.6314C11.3689 45.5404 11.484 45.4464 11.591 45.3494C11.5947 45.3358 11.5983 45.332 11.602 45.3383L17.0994 39.7846C17.9736 38.8915 17.9663 37.4669 17.0832 36.6027C16.2 35.7185 14.7754 35.7257 13.9012 36.6189L10.0001 40.56Z" fill="#081E40"/>
</svg>
