<svg width="48" height="48" viewBox="0 0 48 48" fill="none" xmlns="http://www.w3.org/2000/svg">
<g clip-path="url(#clip0_10044_267)">
<path d="M45.2557 40.5123C46.5161 40.6404 47.4996 41.7055 47.4998 42.9996C47.4998 44.294 46.5162 45.3588 45.2557 45.4869L44.9998 45.4996H2.99984C1.61919 45.4996 0.499844 44.3803 0.499844 42.9996C0.50006 41.6191 1.61932 40.4997 2.99984 40.4996H44.9998L45.2557 40.5123ZM21.5448 15.1149C22.944 14.2041 24.724 14.1469 26.1707 14.944L26.4549 15.1149L46.8641 28.4049L47.0711 28.5553C48.0575 29.3504 48.3007 30.7792 47.5946 31.8639C46.8883 32.9484 45.4834 33.3036 44.3573 32.7232L44.1356 32.5943L23.9998 19.483L3.8641 32.5943C2.70713 33.3477 1.15858 33.0208 0.405117 31.8639C-0.348011 30.7069 -0.0212061 29.1583 1.13559 28.4049L21.5448 15.1149ZM21.6073 1.5504C23.0701 0.632018 24.9295 0.632071 26.3924 1.5504L46.8289 14.3824L47.0389 14.5289C48.0384 15.3076 48.305 16.7325 47.617 17.8287C46.9286 18.925 45.5292 19.304 44.3934 18.7418L44.1707 18.6168L23.9998 5.95177L3.82895 18.6168C2.65966 19.3508 1.11683 18.998 0.382656 17.8287C-0.351107 16.6595 0.00161386 15.1165 1.17074 14.3824L21.6073 1.5504Z" fill="#081E40"/>
</g>
<defs>
<clipPath id="clip0_10044_267">
<rect width="48" height="48" fill="white"/>
</clipPath>
</defs>
</svg>
