<svg width="48" height="48" viewBox="0 0 48 48" fill="none" xmlns="http://www.w3.org/2000/svg">
<path fill-rule="evenodd" clip-rule="evenodd" d="M2 6C2 3.79086 3.79086 2 6 2H16.4036C17.425 2 18.4076 2.39068 19.1501 3.09195L25.8378 9.40805C26.5803 10.1093 27.5629 10.5 28.5843 10.5H42C44.2091 10.5 46 12.2909 46 14.5V42C46 44.2091 44.2091 46 42 46H22.5C21.1193 46 20 44.8807 20 43.5C20 42.1193 21.1193 41 22.5 41H39C40.1046 41 41 40.1046 41 39V17.5C41 16.3954 40.1046 15.5 39 15.5H26.5964C25.575 15.5 24.5924 15.1093 23.8499 14.4081L16.5841 7.54597C16.2129 7.19534 15.7216 7 15.2109 7H9C7.89543 7 7 7.89543 7 9V18.5C7 19.8807 5.88071 21 4.5 21C3.11929 21 2 19.8807 2 18.5V6ZM10.0001 27.8183L6.09125 23.9093C5.21259 23.0306 3.78797 23.0306 2.90927 23.9092C2.03057 24.7879 2.03054 26.2125 2.90921 27.0912L8.40897 32.5912L8.40898 32.5912C9.28764 33.4699 10.7123 33.4699 11.5909 32.5913L11.5927 32.5895L17.0912 27.0913C17.9699 26.2126 17.97 24.788 17.0913 23.9093C16.2126 23.0306 14.788 23.0306 13.9093 23.9092L10.0001 27.8183ZM10.0001 40.6416L6.09933 44.5827C5.22518 45.4659 3.80058 45.4732 2.9174 44.5991C2.03421 43.7249 2.02688 42.3003 2.90103 41.4171L8.40051 35.8608L8.40085 35.8604C8.40626 35.855 8.41169 35.8496 8.41714 35.8442C9.1899 35.0792 10.3772 34.9892 11.2476 35.5703C11.3689 35.6512 11.484 35.7452 11.591 35.8522C11.5947 35.8559 11.5983 35.8596 11.602 35.8633L17.0994 41.4171C17.9736 42.3002 17.9663 43.7248 17.0832 44.599C16.2 45.4732 14.7754 45.4659 13.9012 44.5828L10.0001 40.6416Z" fill="#081E40"/>
</svg>
