<svg width="48" height="48" viewBox="0 0 48 48" fill="none" xmlns="http://www.w3.org/2000/svg">
<g clip-path="url(#clip0_2209_6004)">
<path fill-rule="evenodd" clip-rule="evenodd" d="M24.4213 0C24.2667 0 24.1131 0.00155394 23.9605 0.00464008C23.808 0.00155394 23.6544 0 23.4998 0C23.3419 0 23.1875 0.0146272 23.0378 0.0426C14.9278 0.548982 9.92095 5.50361 8.26747 11.3503C2.6893 14.2833 -0.139361 19.0426 0.00528048 24.0288C0.154601 29.1763 3.46348 33.9434 8.8503 36.4971C10.0979 37.0886 11.5888 36.5566 12.1802 35.309C12.7717 34.0614 12.2397 32.5705 10.9921 31.9791C7.0502 30.1104 5.09032 26.8879 5.00318 23.8838C4.91856 20.9669 6.58923 17.6381 11.2465 15.4518C12.0826 15.0593 12.7127 14.2935 12.9162 13.3609C13.8449 9.10414 17.3073 5.17908 23.9605 5.00595C30.6137 5.17908 34.0761 9.10414 35.0049 13.3609C35.2083 14.2935 35.8384 15.0593 36.6746 15.4518C41.3318 17.6381 43.0025 20.9669 42.9179 23.8838C42.8307 26.8879 40.8708 30.1104 36.9289 31.9791C35.6813 32.5705 35.1494 34.0614 35.7408 35.309C36.3323 36.5566 37.8231 37.0886 39.0707 36.4971C44.4576 33.9434 47.7664 29.1763 47.9158 24.0288C48.0604 19.0426 45.2317 14.2833 39.6536 11.3503C38.0001 5.50361 32.9932 0.548982 24.8833 0.0426C24.7335 0.0146272 24.5791 0 24.4213 0ZM22.2449 28.9724C22.7357 28.5007 23.3692 28.2692 24 28.275C24.6308 28.2692 25.2643 28.5007 25.7551 28.9724L32.2321 35.1976C33.2276 36.1544 33.259 37.737 32.3022 38.7325C31.3455 39.7279 29.7628 39.7593 28.7674 38.8025L26.5 36.6233L26.5 45.5C26.5 46.8807 25.3807 48 24 48C22.6193 48 21.5 46.8807 21.5 45.5L21.5 36.6233L19.2326 38.8025C18.2372 39.7593 16.6545 39.7279 15.6978 38.7325C14.741 37.737 14.7724 36.1544 15.7679 35.1976L22.2449 28.9724Z" fill="#081E40"/>
</g>
<defs>
<clipPath id="clip0_2209_6004">
<rect width="48" height="48" fill="white"/>
</clipPath>
</defs>
</svg>
