<svg width="48" height="48" viewBox="0 0 48 48" fill="none" xmlns="http://www.w3.org/2000/svg">
<path fill-rule="evenodd" clip-rule="evenodd" d="M41 19.5C41 20.8807 42.1193 22 43.5 22C44.8807 22 46 20.8807 46 19.5V6.5C46 4.01472 43.9853 2 41.5 2L6.5 2C4.01472 2 2 4.01472 2 6.5V19.5C2 20.8807 3.11929 22 4.5 22C5.88071 22 7 20.8807 7 19.5L7 9C7 7.89543 7.89543 7 9 7L39 7C40.1046 7 41 7.89543 41 9V19.5ZM24.2322 11.4393C25.6129 11.4393 26.7322 12.5586 26.7322 13.9393L26.7322 37.9038L35.9645 28.6716C36.9408 27.6953 38.5237 27.6953 39.5 28.6716C40.4763 29.6479 40.4763 31.2308 39.5 32.2071L26.7071 45C25.3403 46.3668 23.1242 46.3668 21.7574 45L8.96446 32.2071C7.98815 31.2308 7.98815 29.6479 8.96446 28.6716C9.94078 27.6953 11.5237 27.6953 12.5 28.6716L21.7322 37.9038L21.7322 13.9393C21.7322 12.5586 22.8515 11.4393 24.2322 11.4393Z" fill="#081E40"/>
</svg>
