<svg width="42" height="48" viewBox="0 0 42 48" fill="none" xmlns="http://www.w3.org/2000/svg">
<path d="M37.7998 0C40.1194 0 42 1.79086 42 4V44C42 46.2091 40.1194 48 37.7998 48H4.2002C1.8806 48 0 46.2091 0 44V4C0 1.79086 1.8806 0 4.2002 0H37.7998ZM5.25 4C4.6701 4 4.2002 4.44772 4.2002 5V43C4.2002 43.5523 4.6701 44 5.25 44H36.75C37.3299 44 37.7998 43.5523 37.7998 43V5C37.7998 4.44772 37.3299 4 36.75 4H5.25ZM21 18C22.1598 18 23.0996 18.8954 23.0996 20V34.2432L26.9404 30.5859C27.7606 29.8051 29.0901 29.805 29.9102 30.5859C30.7298 31.3669 30.7298 32.6331 29.9102 33.4141L23.0996 39.8994V40H22.9941L22.8486 40.1377C22.767 40.2606 22.6721 40.3782 22.5596 40.4854C22.14 40.8849 21.587 41.0787 21.0371 41.0693C20.4876 41.0785 19.935 40.8846 19.5156 40.4854C19.4023 40.3774 19.3047 40.2596 19.2227 40.1357L19.0801 40H18.9004V39.8281L12.165 33.4141L12.0205 33.2627C11.3478 32.4772 11.3963 31.3182 12.165 30.5859C12.9339 29.8537 14.1508 29.8076 14.9756 30.4482L15.1348 30.5859L18.9004 34.1719V20C18.9004 18.8954 19.8402 18 21 18ZM31.7139 10.0107C32.773 10.113 33.5996 10.9643 33.5996 12C33.5996 13.0357 32.773 13.887 31.7139 13.9893L31.5 14H10.5C9.34021 14 8.40039 13.1046 8.40039 12C8.40039 10.8954 9.34021 10 10.5 10H31.5L31.7139 10.0107Z" fill="#081E40"/>
</svg>
