<svg width="48" height="48" viewBox="0 0 48 48" fill="none" xmlns="http://www.w3.org/2000/svg">
<path fill-rule="evenodd" clip-rule="evenodd" d="M31.5701 7.52151C33.151 8.86285 34.1449 10.7122 34.5486 12.7305L34.8009 13.9921L35.9742 14.52C40.2052 16.424 41.5672 19.3165 41.4409 21.8008C41.3077 24.4191 39.4937 27.3038 35.9356 28.9782C34.6863 29.5661 34.1501 31.0554 34.738 32.3047C35.3259 33.554 36.8153 34.0902 38.0646 33.5023C43.0066 31.1767 46.1926 26.8114 46.4344 22.0547C46.6664 17.4923 44.1687 13.1764 39.1489 10.51C38.4153 7.97428 36.9946 5.56682 34.805 3.70896C32.2413 1.53368 28.7742 0.240234 24.5 0.240234C24.3198 0.240234 24.144 0.259308 23.9746 0.295547C23.8052 0.259313 23.6294 0.240242 23.4492 0.240242C19.175 0.240241 15.708 1.53369 13.1442 3.70897C10.9546 5.56682 9.53395 7.97429 8.80036 10.51C3.78052 13.1764 1.28282 17.4923 1.5148 22.0547C1.75666 26.8114 4.94265 31.1767 9.88463 33.5023C11.1339 34.0902 12.6233 33.554 13.2112 32.3047C13.7991 31.0554 13.2629 29.5661 12.0136 28.9782C8.45552 27.3038 6.64148 24.4191 6.50835 21.8008C6.38204 19.3165 7.74405 16.424 11.9751 14.52L13.1483 13.9921L13.4006 12.7305C13.8043 10.7122 14.7983 8.86285 16.3791 7.52152C17.9404 6.1968 20.2234 5.24024 23.4492 5.24024C23.6294 5.24024 23.8052 5.22117 23.9746 5.18493C24.144 5.22116 24.3198 5.24023 24.5 5.24023C27.7258 5.24023 30.0088 6.19679 31.5701 7.52151ZM25.2553 46.5278C24.7645 46.9995 24.131 47.231 23.5001 47.2252C22.8692 47.2311 22.2357 46.9995 21.7448 46.5278L15.2678 40.3026C14.2723 39.3458 14.2409 37.7632 15.1977 36.7677C16.1544 35.7723 17.737 35.7409 18.7325 36.6977L20.9998 38.8768V18.0001C20.9998 16.6194 22.1191 15.5001 23.4998 15.5001C24.8805 15.5001 25.9998 16.6194 25.9998 18.0001V38.8773L28.2676 36.6977C29.2631 35.7409 30.8457 35.7723 31.8025 36.7677C32.7592 37.7632 32.7278 39.3458 31.7324 40.3026L25.2553 46.5278Z" fill="#081E40"/>
</svg>
