<svg width="48" height="48" viewBox="0 0 48 48" fill="none" xmlns="http://www.w3.org/2000/svg">
<g clip-path="url(#clip0_2221_1325)">
<path fill-rule="evenodd" clip-rule="evenodd" d="M24 43C34.4934 43 43 34.4934 43 24C43 13.5066 34.4934 5 24 5C13.5066 5 5 13.5066 5 24C5 34.4934 13.5066 43 24 43ZM24 48C37.2548 48 48 37.2548 48 24C48 10.7452 37.2548 0 24 0C10.7452 0 0 10.7452 0 24C0 37.2548 10.7452 48 24 48ZM23.86 19.6224C25.9649 19.6224 27.6712 17.916 27.6712 15.8112C27.6712 13.7063 25.9649 12 23.86 12C21.7552 12 20.0488 13.7063 20.0488 15.8112C20.0488 17.916 21.7552 19.6224 23.86 19.6224ZM23.86 24.6224C28.7263 24.6224 32.6712 20.6775 32.6712 15.8112C32.6712 10.9449 28.7263 7 23.86 7C18.9937 7 15.0488 10.9449 15.0488 15.8112C15.0488 20.6775 18.9937 24.6224 23.86 24.6224ZM13.5767 34.9401C16.7285 32.3788 25.4767 28.6461 34.5604 35.0439C35.6893 35.839 37.2489 35.5684 38.0439 34.4396C38.839 33.3107 38.5684 31.7511 37.4396 30.9561C25.9519 22.8651 14.7001 27.5843 10.4233 31.0599C9.35182 31.9307 9.1891 33.5052 10.0599 34.5767C10.9307 35.6482 12.5052 35.8109 13.5767 34.9401Z" fill="#081E40"/>
</g>
<defs>
<clipPath id="clip0_2221_1325">
<rect width="48" height="48" fill="white"/>
</clipPath>
</defs>
</svg>
