<svg width="48" height="48" viewBox="0 0 48 48" fill="none" xmlns="http://www.w3.org/2000/svg">
<path d="M32.1943 23.499C36.1676 21.5667 40.9553 23.2211 42.8877 27.1943C44.3176 30.1347 43.7808 33.5192 41.7959 35.8643L42.333 36.6543L43.9873 35.5312C45.1292 34.7551 46.6847 35.0515 47.4609 36.1934C48.2367 37.3351 47.9403 38.8898 46.7988 39.666L45.1436 40.79L46.2686 42.4443C47.0447 43.5862 46.7483 45.1418 45.6064 45.918C44.4647 46.6938 42.91 46.3973 42.1338 45.2559L37.5264 38.4785C33.9631 39.321 30.1675 37.6226 28.499 34.1924C26.5666 30.2191 28.2211 25.4315 32.1943 23.499ZM24 0C30.0751 0 35 4.92487 35 11C35 17.0751 30.0751 22 24 22C23.2333 22 22.4851 21.9208 21.7627 21.7715C21.4705 22.0627 21.103 22.2865 20.6777 22.4062C12.0057 24.8492 5.5 32.5101 5.5 43.5C5.5 44.8807 4.38071 46 3 46C1.61929 46 0.5 44.8807 0.5 43.5C0.5 31.6117 6.95987 22.6168 16.1543 18.708C14.204 16.7231 13 14.0025 13 11C13 4.92487 17.9249 0 24 0ZM38.3906 29.3809C37.6659 27.8911 35.8707 27.2705 34.3809 27.9951C32.8911 28.7197 32.2708 30.515 32.9951 32.0049C33.7198 33.4947 35.515 34.1151 37.0049 33.3906C38.4948 32.666 39.1152 30.8708 38.3906 29.3809ZM24 5C20.6863 5 18 7.68629 18 11C18 14.3137 20.6863 17 24 17C27.3137 17 30 14.3137 30 11C30 7.68629 27.3137 5 24 5Z" fill="#081E40"/>
</svg>
