<svg width="48" height="48" viewBox="0 0 48 48" fill="none" xmlns="http://www.w3.org/2000/svg">
<path fill-rule="evenodd" clip-rule="evenodd" d="M13.2939 2.5C11.9681 2.5 10.7284 3.15692 9.98401 4.25399L1.15194 17.2697C0.371408 18.4199 0.483296 19.9557 1.4223 20.9807L23.3743 44.9426C24.1886 45.8314 25.5982 45.8033 26.3764 44.8827L46.6557 20.8922C47.5243 19.8646 47.6025 18.3844 46.847 17.271L38.014 4.254C37.2696 3.15693 36.0299 2.5 34.7041 2.5H13.2939ZM13.2287 8.377C13.601 7.82846 14.2208 7.5 14.8837 7.5H33.1144C33.7773 7.5 34.3971 7.82846 34.7693 8.377L41.0275 17.5996C41.5282 18.3375 41.4799 19.3178 40.909 20.0029L25.6417 38.3236C25.2542 38.7887 24.5455 38.8055 24.1364 38.3592L7.24638 19.9337C6.62003 19.2505 6.54527 18.2263 7.06574 17.4593L13.2287 8.377ZM19.2459 26.7923C19.3956 26.9256 19.5959 27.0001 19.8043 27H29.0518C29.2646 27 29.4686 26.9223 29.6191 26.7839C29.7695 26.6455 29.854 26.4578 29.854 26.2621L29.9864 24.2925C29.9864 24.0968 29.9019 23.9091 29.7514 23.7707C29.601 23.6324 29.3969 23.5546 29.1842 23.5546H24.6266C24.7858 23.4208 24.9282 23.3246 25.104 23.2058C25.2577 23.102 25.4369 22.9809 25.6752 22.8024C26.6266 22.0897 27.6727 21.1467 28.5142 20.3254C29.0343 19.808 29.303 19.4373 29.6192 18.7954C29.8816 18.2314 29.9972 17.5292 29.9995 16.9158C30.0102 16.3459 29.8628 15.3358 29.6192 14.8117C29.3756 14.2875 28.8783 13.6077 28.423 13.221C27.4147 12.385 26.0889 11.9481 24.7328 12.005C23.4041 11.9499 22.1003 12.3495 21.0731 13.1266C20.097 13.9614 19.313 15.6862 19.2548 16.9109C19.2351 17.1047 19.2994 17.2977 19.4337 17.4481C19.568 17.5985 19.7615 17.6939 19.972 17.7137L21.9106 17.878C22.0217 17.8885 22.1339 17.8775 22.2401 17.8458C22.3463 17.8141 22.4441 17.7623 22.5274 17.6939C22.6106 17.6254 22.6773 17.5417 22.7234 17.4481C22.7694 17.3545 22.7937 17.2532 22.7946 17.1505C22.7772 16.9053 22.8132 16.6595 22.9006 16.4274C22.9879 16.1952 23.1248 15.9815 23.3032 15.7987C23.4884 15.6393 23.707 15.5163 23.9456 15.4374C24.1843 15.3585 24.438 15.3253 24.6911 15.3398C24.9313 15.327 25.1719 15.3586 25.3986 15.4326C25.6254 15.5066 25.8338 15.6215 26.0115 15.7707C26.1685 15.9004 26.2928 16.06 26.3759 16.2384C26.4591 16.4168 26.499 16.6097 26.4929 16.8037C26.4482 17.3324 26.2236 17.8348 25.8511 18.2395C24.991 19.1852 24.1897 19.891 22.9551 20.7896C22.0316 21.4616 21.3452 22.0705 20.6383 22.8024C20.1055 23.3646 19.5478 24.0071 19.2525 24.7017C19.0706 25.1377 18.9854 25.819 19.0021 26.2858C19.0087 26.4773 19.0962 26.659 19.2459 26.7923Z" fill="#081E40"/>
</svg>
