<svg width="48" height="48" viewBox="0 0 48 48" fill="none" xmlns="http://www.w3.org/2000/svg">
<g clip-path="url(#clip0_5181_44)">
<path fill-rule="evenodd" clip-rule="evenodd" d="M23 27L25.489 43.5934C25.7827 45.5514 27.4648 47 29.4447 47H44C46.2091 47 48 45.2091 48 43V11C48 8.79086 46.2091 7 44 7H19L23 27ZM26.3188 12C25.6878 12 25.2145 12.5773 25.3382 13.1961L27.9267 26.1384L30.1782 41.1483C30.2516 41.6379 30.6721 42 31.1671 42H42C42.5523 42 43 41.5523 43 41V13C43 12.4477 42.5523 12 42 12H26.3188Z" fill="#081E40"/>
<path d="M19.6396 1C21.5826 1.00021 23.2442 2.39666 23.5791 4.31055L30 41H4C1.79086 41 -1.93129e-07 39.2091 0 37V5C8.37342e-07 2.79086 1.79086 1 4 1H19.6396ZM6.00781 26H12.7842V23.8164H8.45801V22.0664H12.1543V19.8818H8.45801V18.2158H12.7842V16.0322H6.00781V26ZM18.8584 18.3838C18.2565 18.3838 17.5704 18.6221 17.1084 19.084V18.4678H14.8682V26H17.1641V21.4922C17.1641 20.6244 17.7798 20.4562 18.0879 20.4561C18.3959 20.4561 19.0117 20.6242 19.0117 21.4922V26H21.3086V21.1836C21.3086 20.3858 21.1956 19.6722 20.5518 19.0283C20.1458 18.6224 19.5723 18.3838 18.8584 18.3838Z" fill="#081E40"/>
<path d="M38.674 21.236L40.466 21.754C38.702 26.794 35.44 29.734 30.428 31.302C30.232 30.882 29.7 30.07 29.364 29.664C34.208 28.39 37.218 25.8 38.674 21.236ZM33.27 21.348C34.684 25.492 37.708 28.474 42.692 29.594C42.286 29.986 41.74 30.784 41.474 31.274C36.224 29.902 33.34 26.696 31.59 21.852L33.27 21.348ZM29.616 20.326H42.44V21.978H29.616V20.326ZM35.118 18.114H36.854V21.334H35.118V18.114Z" fill="#081E40"/>
</g>
<defs>
<clipPath id="clip0_5181_44">
<rect width="48" height="48" fill="white"/>
</clipPath>
</defs>
</svg>
