<svg width="48" height="48" viewBox="0 0 48 48" fill="none" xmlns="http://www.w3.org/2000/svg">
<rect width="48" height="48" fill="white"/>
<path d="M32.1265 25.9562C32.1266 22.8634 34.8091 20.9433 37.3236 21.3869C37.7156 21.4561 38.1319 21.3619 38.4013 21.0689L41.7831 17.3907C42.135 17.008 42.1349 16.4196 41.7831 16.037L34.8827 8.53362C34.6934 8.3277 34.4264 8.21053 34.1467 8.21053H31.0622C30.7362 8.21053 30.4327 8.37082 30.2357 8.63062C29.1362 10.081 27.5444 11.5883 25.5776 12.161C24.1515 12.5761 22.5785 12.4784 21.046 11.5874C19.9623 10.9573 18.9813 9.97937 18.0917 8.67298C17.8982 8.38879 17.5806 8.21053 17.2368 8.21053H13.8533C13.5736 8.21053 13.3066 8.32769 13.1173 8.53357L6.21605 16.037C5.86412 16.4196 5.86407 17.0081 6.21593 17.3908L9.59758 21.0688C9.86704 21.3618 10.2835 21.456 10.6756 21.3867C13.1903 20.9426 15.8734 22.8631 15.8735 25.9562V38.7895C15.8735 39.3418 16.3212 39.7895 16.8735 39.7895H31.1265C31.6788 39.7895 32.1265 39.3418 32.1265 38.7895V25.9562ZM36.1652 42C36.1652 43.1046 35.2697 44 34.1652 44H13.8348C12.7303 44 11.8348 43.1046 11.8348 42V25.9562C11.8348 25.8318 11.8026 25.7628 11.7717 25.7177C11.7341 25.6628 11.6713 25.6068 11.5854 25.5707C11.4993 25.5346 11.4164 25.5294 11.3527 25.5419C11.3005 25.5522 11.2312 25.5795 11.1486 25.6694C10.3643 26.5225 9.01824 26.5225 8.23388 25.6695L1.24478 18.0686C0.54107 17.3033 0.54108 16.1264 1.24481 15.3611L11.0976 4.64625C11.4764 4.23438 12.0103 4 12.5698 4H18.9143C19.6518 4 20.3295 4.40589 20.6776 5.05611L20.69 5.07936C21.5965 6.77299 22.4163 7.56235 23.013 7.90933C23.5518 8.22263 24.0181 8.24334 24.491 8.10567C25.6431 7.77028 26.9146 6.44056 27.733 5.02076L27.7437 5.00215C28.1006 4.38214 28.7616 4 29.477 4H35.4302C35.9897 4 36.5237 4.23438 36.9024 4.64625L46.7552 15.3611C47.4589 16.1264 47.4589 17.3033 46.7552 18.0686L39.7661 25.6695C38.9818 26.5225 37.6357 26.5225 36.8514 25.6694C36.7688 25.5795 36.6995 25.5522 36.6473 25.5419C36.5836 25.5294 36.5007 25.5346 36.4146 25.5707C36.3287 25.6068 36.2659 25.6628 36.2283 25.7177C36.1974 25.7628 36.1652 25.8318 36.1652 25.9562V42Z" fill="#081E40"/>
</svg>
