<svg width="48" height="48" viewBox="0 0 48 48" fill="none" xmlns="http://www.w3.org/2000/svg">
<path d="M37.4506 20.2437C40.7315 21.2731 43.3215 23.8606 44.352 27.1381H48V32.4074H44.624C43.8577 36.1784 41.0757 39.2171 37.4506 40.3547V44H32.1759V40.6264C28.0426 39.788 24.7866 36.5366 23.9476 32.4074H20.5716V27.1381H24.2196C25.3582 23.5166 28.4011 20.7376 32.1759 19.972V16.5994H37.4506V20.2437ZM26.8394 3C31.2361 3 35.2083 4.68381 38.1862 7.48614C38.214 7.50856 38.2374 7.52754 38.2614 7.54686C38.2953 7.57415 38.3546 7.62163 38.418 7.67654C38.4852 7.73475 38.5486 7.79318 38.6044 7.84738L38.8156 8.05836L38.8785 8.1304L40.6123 10.1342C41.5647 11.235 41.4433 12.899 40.3414 13.8505C39.2394 14.8017 37.5737 14.6805 36.6213 13.5798L34.9503 11.6491C34.9494 11.6483 34.949 11.6469 34.9482 11.646C34.9161 11.6202 34.8623 11.578 34.7916 11.5205L34.7102 11.4546L34.634 11.3815C32.5978 9.43572 29.8829 8.26934 26.8394 8.26934C21.0017 8.26955 16.1813 12.6553 15.4947 18.2965C15.2724 20.1192 13.7948 21.4775 12.0455 21.6485C8.20904 22.0235 5.22157 25.2807 5.27597 29.2345L5.29143 29.6102C5.55089 33.4643 8.91482 36.6269 12.8748 36.627H15.2484C16.705 36.627 17.8858 37.8066 17.8858 39.2617C17.8854 40.7164 16.7047 41.8964 15.2484 41.8964H12.8748C5.9655 41.8963 0.101882 36.2746 0.0012736 29.3107V29.3097C-0.0870526 22.9732 4.42881 17.681 10.4291 16.5624C11.8959 8.84924 18.6806 3.0002 26.8394 3ZM34.2858 23.9765C30.7901 23.9766 27.9561 26.8076 27.9561 30.2997C27.9561 33.7918 30.7901 36.6228 34.2858 36.6229C37.7815 36.6229 40.6154 33.7919 40.6154 30.2997C40.6154 26.8075 37.7815 23.9765 34.2858 23.9765ZM34.2858 27.1381C36.0337 27.1381 37.4506 28.5536 37.4506 30.2997C37.4506 32.0458 36.0337 33.4613 34.2858 33.4613C32.538 33.4612 31.121 32.0457 31.121 30.2997C31.121 28.5537 32.538 27.1382 34.2858 27.1381Z" fill="#081E40"/>
</svg>
