<svg width="48" height="48" viewBox="0 0 48 48" fill="none" xmlns="http://www.w3.org/2000/svg">
<path d="M6.12747 24.9246C7.53749 24.9248 8.6807 26.0477 8.6807 27.4328V41.4787C8.68097 42.3096 9.36673 42.9836 10.2126 42.9836H18.383C19.793 42.9837 20.9362 44.1066 20.9362 45.4918C20.9359 46.8768 19.7928 47.9999 18.383 48H10.2126C6.54652 48 3.57452 45.0801 3.57425 41.4787V27.4328C3.57425 26.0476 4.71736 24.9246 6.12747 24.9246ZM42.3833 41.9803C43.5113 41.9804 44.4258 42.8788 44.4258 43.9869V45.9934C44.4256 47.1013 43.5111 47.9999 42.3833 48H24C22.8721 48 21.9577 47.1014 21.9575 45.9934V43.9869C21.9575 42.8787 22.872 41.9803 24 41.9803H42.3833ZM29.1065 33.9541C30.2345 33.9542 31.1491 34.8526 31.1491 35.9607V38.9705C31.1488 40.0784 30.2343 40.977 29.1065 40.9771H24C22.8721 40.9771 21.9577 40.0785 21.9575 38.9705V35.9607C21.9575 34.8525 22.872 33.9541 24 33.9541H29.1065ZM42.3833 25.9279C43.5113 25.928 44.4258 26.8264 44.4258 27.9345V38.9705C44.4256 40.0784 43.5111 40.977 42.3833 40.9771H35.2342C34.1063 40.9771 33.1919 40.0785 33.1917 38.9705V27.9345C33.1917 26.8263 34.1062 25.9279 35.2342 25.9279H42.3833ZM29.1065 25.9279C30.2345 25.928 31.1491 26.8264 31.1491 27.9345V30.9443C31.1488 32.0522 30.2343 32.9508 29.1065 32.9509H24C22.8721 32.9509 21.9577 32.0523 21.9575 30.9443V27.9345C21.9575 26.8263 22.872 25.9279 24 25.9279H29.1065ZM19.3055 1.91004C21.898 -0.636681 26.1021 -0.636681 28.6946 1.91004L47.2523 20.1415C48.2491 21.121 48.2493 22.7088 47.2523 23.6882C46.2554 24.6674 44.639 24.6673 43.6419 23.6882L25.0832 5.45678C24.485 4.86934 23.5152 4.86947 22.9169 5.45678L4.35817 23.6882C3.36117 24.6674 1.74482 24.6673 0.747746 23.6882C-0.249299 22.7087 -0.249198 21.121 0.747746 20.1415L19.3055 1.91004Z" fill="#081E40"/>
</svg>
