<svg width="48" height="48" viewBox="0 0 48 48" fill="none" xmlns="http://www.w3.org/2000/svg">
<path fill-rule="evenodd" clip-rule="evenodd" d="M24.9999 6.35736C24.3811 6.00009 23.6187 6.00009 22.9999 6.35736L9.30264 14.2655C8.68384 14.6227 8.30264 15.283 8.30264 15.9975V31.8137C8.30264 32.5282 8.68384 33.1885 9.30264 33.5457L22.9999 41.4538C23.6187 41.8111 24.3811 41.8111 24.9999 41.4538L38.6971 33.5457C39.3159 33.1885 39.6971 32.5282 39.6971 31.8137V15.9975C39.6971 15.283 39.3159 14.6227 38.6971 14.2655L24.9999 6.35736ZM25.4916 0.899699C24.5685 0.366767 23.4312 0.366767 22.5082 0.899699L4.82202 11.1108C3.89895 11.6437 3.33032 12.6286 3.33032 13.6945V34.1167C3.33032 35.1826 3.89895 36.1675 4.82202 36.7004L22.5082 46.9115C23.4312 47.4444 24.5685 47.4444 25.4916 46.9115L43.1777 36.7004C44.1008 36.1675 44.6694 35.1826 44.6694 34.1167V13.6945C44.6694 12.6286 44.1008 11.6437 43.1777 11.1108L25.4916 0.899699Z" fill="#081E40"/>
<path fill-rule="evenodd" clip-rule="evenodd" d="M23.9999 21.0518C22.3522 21.0518 21.0165 22.3875 21.0165 24.0352C21.0165 25.6828 22.3522 27.0186 23.9999 27.0186C25.6476 27.0186 26.9833 25.6828 26.9833 24.0352C26.9833 22.3875 25.6476 21.0518 23.9999 21.0518ZM30.9612 24.0352C30.9612 27.8798 27.8445 30.9964 23.9999 30.9964C20.1553 30.9964 17.0387 27.8798 17.0387 24.0352C17.0387 20.1906 20.1553 17.0739 23.9999 17.0739C27.8445 17.0739 30.9612 20.1906 30.9612 24.0352Z" fill="#081E40"/>
</svg>
