<svg width="48" height="48" viewBox="0 0 48 48" fill="none" xmlns="http://www.w3.org/2000/svg">
<path fill-rule="evenodd" clip-rule="evenodd" d="M23.2381 1.53927C24.2524 0.899789 25.5501 0.92572 26.5381 1.60521L45.8078 14.8584C46.9245 15.6264 47.213 17.1512 46.454 18.2741C45.6863 19.4099 44.1401 19.7024 43.0106 18.9255L25.8786 7.14271C25.22 6.68972 24.3548 6.67243 23.6786 7.09875L4.70244 19.0624C3.54262 19.7936 2.00915 19.4397 1.28702 18.2742C0.57282 17.1215 0.921958 15.6086 2.06904 14.8854L23.2381 1.53927ZM4.24146 25.6941C4.24146 24.3391 5.33996 23.2406 6.69503 23.2406C8.0501 23.2406 9.1486 24.3391 9.1486 25.6941V41.0504C9.1486 41.6027 9.59631 42.0504 10.1486 42.0504H38.5729C39.1251 42.0504 39.5729 41.6027 39.5729 41.0504V25.6941C39.5729 24.3391 40.6714 23.2406 42.0264 23.2406C43.3815 23.2406 44.48 24.3391 44.48 25.6941V42.0004C44.48 44.7618 42.2414 47.0004 39.48 47.0004H9.24146C6.48004 47.0004 4.24146 44.7618 4.24146 42.0004V25.6941Z" fill="#081E40"/>
<path fill-rule="evenodd" clip-rule="evenodd" d="M11.6023 17.8156C11.6023 16.711 12.4977 15.8156 13.6023 15.8156H21.3794C22.484 15.8156 23.3794 16.711 23.3794 17.8156V25.6955C23.3794 26.8001 22.484 27.6955 21.3794 27.6955H13.6023C12.4977 27.6955 11.6023 26.8001 11.6023 25.6955V17.8156ZM16.528 19.7756C15.9757 19.7756 15.528 20.2233 15.528 20.7756V22.7355C15.528 23.2878 15.9757 23.7355 16.528 23.7355H18.4537C19.006 23.7355 19.4537 23.2878 19.4537 22.7355V20.7756C19.4537 20.2233 19.006 19.7756 18.4537 19.7756H16.528Z" fill="#081E40"/>
<path fill-rule="evenodd" clip-rule="evenodd" d="M11.6023 30.6855C11.6023 29.5809 12.4977 28.6855 13.6023 28.6855H21.3794C22.484 28.6855 23.3794 29.5809 23.3794 30.6855V38.5654C23.3794 39.67 22.484 40.5654 21.3794 40.5654H13.6023C12.4977 40.5654 11.6023 39.67 11.6023 38.5654V30.6855ZM16.528 32.6455C15.9757 32.6455 15.528 33.0932 15.528 33.6455V35.6054C15.528 36.1577 15.9757 36.6054 16.528 36.6054H18.4537C19.006 36.6054 19.4537 36.1577 19.4537 35.6054V33.6455C19.4537 33.0932 19.006 32.6455 18.4537 32.6455H16.528Z" fill="#081E40"/>
<path fill-rule="evenodd" clip-rule="evenodd" d="M25.3422 30.6855C25.3422 29.5809 26.2377 28.6855 27.3422 28.6855H35.1194C36.2239 28.6855 37.1194 29.5809 37.1194 30.6855V38.5654C37.1194 39.67 36.2239 40.5654 35.1194 40.5654H27.3422C26.2377 40.5654 25.3422 39.67 25.3422 38.5654V30.6855ZM30.268 32.6455C29.7157 32.6455 29.268 33.0932 29.268 33.6455V35.6054C29.268 36.1577 29.7157 36.6054 30.268 36.6054H32.1937C32.746 36.6054 33.1937 36.1577 33.1937 35.6054V33.6455C33.1937 33.0932 32.746 32.6455 32.1937 32.6455H30.268Z" fill="#081E40"/>
</svg>
