<svg width="48" height="48" viewBox="0 0 48 48" fill="none" xmlns="http://www.w3.org/2000/svg">
<path fill-rule="evenodd" clip-rule="evenodd" d="M32.29 23.1798C32.8099 22.9471 33.4043 22.9471 33.9241 23.1798L44.8929 28.0893C45.6815 28.4423 45.6815 29.5618 44.8929 29.9148L33.9241 34.8243C33.4043 35.057 32.8099 35.057 32.29 34.8243L21.3213 29.9148C20.5326 29.5618 20.5326 28.4423 21.3213 28.0893L32.29 23.1798ZM29.0606 29.0021L33.1071 30.8132L37.1535 29.0021L33.1071 27.1909L29.0606 29.0021Z" fill="#081E40"/>
<path fill-rule="evenodd" clip-rule="evenodd" d="M33.1247 36.5772L42.8504 31.8758C43.8473 31.3939 45.0459 31.815 45.5224 32.8146L-nan -nanL45.5224 32.8146C45.9951 33.8064 45.5779 34.9938 44.5887 35.4719L33.9775 40.6014C33.4174 40.8721 32.7632 40.8668 32.2076 40.587L22.078 35.4864C21.0969 34.9923 20.699 33.7987 21.1875 32.8148L-nan -nanL21.1875 32.8148C21.6799 31.823 22.8853 31.4212 23.8742 31.9192L33.1247 36.5772Z" fill="#081E40"/>
<path fill-rule="evenodd" clip-rule="evenodd" d="M33.1247 42.3765L42.8504 37.6752C43.8473 37.1933 45.0459 37.6144 45.5224 38.614L-nan -nanL45.5224 38.614C45.9951 39.6058 45.5779 40.7931 44.5887 41.2713L33.9775 46.4007C33.4174 46.6715 32.7632 46.6662 32.2076 46.3864L22.078 41.2858C21.0969 40.7917 20.699 39.598 21.1875 38.6141L-nan -nanL21.1875 38.6141C21.6799 37.6224 22.8853 37.2206 23.8742 37.7186L33.1247 42.3765Z" fill="#081E40"/>
<path fill-rule="evenodd" clip-rule="evenodd" d="M23.0324 1.09062C24.0583 0.431137 25.3814 0.458374 26.3793 1.15952L45.4074 14.5289C46.5291 15.317 46.8044 16.8628 46.0237 17.9897L-nan -nanL46.0237 17.9897C45.2356 19.1272 43.6721 19.4057 42.5399 18.6101L24.6065 6.00987L4.78291 18.7528C3.61872 19.5012 2.06786 19.1588 1.32696 17.9898L-nan -nanL1.32696 17.9898C0.592744 16.8314 0.93138 15.2975 2.08508 14.5559L23.0324 1.09062Z" fill="#081E40"/>
<path fill-rule="evenodd" clip-rule="evenodd" d="M4.81049 14.0037H9.77479V37.5011H16.7073C18.0878 37.5011 19.207 38.6203 19.207 40.0009C19.207 41.3814 18.0878 42.5006 16.7073 42.5006H7.68978C6.09959 42.5006 4.81049 41.2115 4.81049 39.6213V14.0037Z" fill="#081E40"/>
<path fill-rule="evenodd" clip-rule="evenodd" d="M41.05 14.0037C42.4208 14.0037 43.5321 15.115 43.5321 16.4859V21.5205C43.5321 22.8913 42.4208 24.0026 41.05 24.0026C39.6791 24.0026 38.5678 22.8913 38.5678 21.5205V16.4859C38.5678 15.115 39.6791 14.0037 41.05 14.0037Z" fill="#081E40"/>
<rect x="17.2214" y="15.0036" width="14.8929" height="4.99945" rx="2.49973" fill="#081E40"/>
</svg>
