<svg width="48" height="48" viewBox="0 0 48 48" fill="none" xmlns="http://www.w3.org/2000/svg">
<path d="M32.3796 25.0403C32.7418 24.7782 33.2567 24.7781 33.6189 25.0403C33.8009 25.1721 34.0227 25.324 34.282 25.4866C35.463 26.2198 36.7402 26.782 38.0759 27.1575C40.3657 27.8085 42.1811 27.9445 43.2976 27.9446C43.3802 27.9446 43.46 27.944 43.5349 27.9426C44.0628 27.9335 44.529 28.3598 44.4978 28.8918C44.4213 30.1942 44.2085 32.7127 43.6189 36.2424C42.6639 41.948 39.6913 45.2346 37.3835 46.4924C34.9228 47.8338 33.0561 47.844 32.9988 47.844C32.7606 47.8382 32.523 47.8166 32.2878 47.7786C31.5184 47.6653 30.1875 47.3507 28.613 46.4924C27.9968 46.1494 27.4226 45.7342 26.9021 45.2561C25.0142 43.5469 23.1094 40.5999 22.3796 36.2424C21.7911 32.7129 21.5776 30.1943 21.5007 28.8918C21.4695 28.3597 21.9364 27.9333 22.4646 27.9426C22.5392 27.9439 22.6177 27.9446 22.6999 27.9446C23.8151 27.9446 25.6307 27.8095 27.9206 27.1584C29.2569 26.7829 30.535 26.2201 31.7165 25.4866C31.9757 25.324 32.1976 25.1721 32.3796 25.0403ZM6.99974 24.843C8.3802 24.8431 9.49947 25.9626 9.49974 27.343V41.343C9.49974 42.1714 10.1713 42.843 10.9997 42.843H18.9997C20.3802 42.8431 21.4995 43.9626 21.4997 45.343C21.4997 46.7237 20.3804 47.8429 18.9997 47.843H10.9997C7.40989 47.843 4.49974 44.9329 4.49974 41.343V27.343C4.5 25.9625 5.61919 24.843 6.99974 24.843ZM26.3161 36.6272C25.6193 36.6275 25.1422 37.3192 25.4158 37.9602C26.0232 39.3836 27.061 41.5807 28.0837 42.6672C29.0451 43.6885 30.6477 44.4231 31.7605 44.843C32.3765 45.0751 32.9984 44.6068 32.9988 43.9485V36.6272H26.3161ZM34.5749 28.5266C33.8869 28.1308 32.9988 28.6194 32.9988 29.4133V36.6272H39.8835C40.3555 36.6271 40.7628 36.2968 40.8611 35.8352L41.7243 31.7698C41.8546 31.1562 41.3953 30.57 40.7702 30.5188C39.82 30.4411 38.4918 30.2787 37.487 29.9407C36.6073 29.6447 35.4796 29.0475 34.5749 28.5266ZM19.9031 1.90356C22.4414 -0.634458 26.5581 -0.634584 29.0964 1.90356L47.2673 20.0754C48.2435 21.0516 48.2433 22.6343 47.2673 23.6106C46.291 24.5869 44.7085 24.5869 43.7322 23.6106L25.5603 5.4397C24.9746 4.85417 24.025 4.8543 23.4392 5.4397L5.26731 23.6106C4.291 24.5869 2.70847 24.5869 1.73216 23.6106C0.755996 22.6343 0.755898 21.0517 1.73216 20.0754L19.9031 1.90356Z" fill="#081E40"/>
</svg>
