<svg width="48" height="48" viewBox="0 0 48 48" fill="none" xmlns="http://www.w3.org/2000/svg">
<path d="M32.1648 35.3007V28.8846C32.1648 28.1759 32.7368 27.6014 33.4423 27.6014H39.8297V35.3007H43.6621C44.3676 35.3007 44.9396 35.8752 44.9396 36.5839V41.7168C44.9396 42.4255 44.3676 43 43.6621 43H38.5522C37.8467 43 37.2747 42.4255 37.2747 41.7168V35.3007H34.7198V41.7168C34.7198 42.4255 34.1478 43 33.4423 43H28.3324C27.6269 43 27.0549 42.4255 27.0549 41.7168V36.5839C27.0549 35.8752 27.6269 35.3007 28.3324 35.3007H32.1648ZM44.9396 26.3181C44.9396 27.0268 44.3676 27.6014 43.6621 27.6014H39.8297V25.3474C39.8297 24.8186 39.6202 24.3112 39.2471 23.9364L26.3066 10.9377C25.3088 9.93547 23.6911 9.93547 22.6934 10.9377L9.75293 23.9364C9.3798 24.3112 9.17031 24.8186 9.17031 25.3474V36.9994C9.17031 37.4786 9.5588 37.8671 10.038 37.8671H21.9336C23.351 37.8671 24.5 39.0162 24.5 40.4336C24.5 41.851 23.351 43 21.9336 43H6.61536C5.2043 43 4.06042 41.851 4.06042 40.4336V25.0349C3.11758 25.0349 2.6454 23.8899 3.31209 23.2202L22.6934 3.75169C23.6911 2.74943 25.3088 2.74944 26.3066 3.75169L45.6879 23.2202C46.3546 23.8899 45.8824 25.0349 44.9396 25.0349V26.3181Z" fill="#081E40"/>
</svg>
