<svg width="44" height="41" viewBox="0 0 44 41" fill="none" xmlns="http://www.w3.org/2000/svg">
<path d="M3.00049 19.1035C3.00049 17.7228 4.11978 16.6035 5.50049 16.6035C6.8812 16.6035 8.00049 17.7228 8.00049 19.1035V35.1035H20.5005C21.8812 35.1035 23.0005 36.2228 23.0005 37.6035C23.0005 38.9842 21.8812 40.1035 20.5005 40.1035H6.50049C4.5679 40.1035 3.00049 38.5368 3.00049 36.6035V19.1035Z" fill="#081E40"/>
<path d="M19.6879 0.872958C21.008 -0.290982 22.9929 -0.290989 24.3129 0.872958L24.4428 0.993075L43.2456 19.3124L43.4194 19.5009C44.2327 20.4723 44.1947 21.9216 43.2915 22.8485C42.3881 23.7756 40.94 23.8514 39.9477 23.0634L39.7553 22.8944L22.0004 5.59366L4.24556 22.8944C3.25666 23.858 1.67298 23.8374 0.709428 22.8485C-0.254118 21.8596 -0.233568 20.276 0.755326 19.3124L19.5581 0.993075L19.6879 0.872958Z" fill="#081E40"/>
<path d="M29.0005 25.1035C29.0005 24.5512 29.4482 24.1035 30.0005 24.1035H36.0005C36.5528 24.1035 37.0005 24.5512 37.0005 25.1035V32.1035H29.0005V25.1035Z" fill="#081E40"/>
<path d="M34.0005 32.1035H41.0005C41.5528 32.1035 42.0005 32.5512 42.0005 33.1035V39.1035C42.0005 39.6558 41.5528 40.1035 41.0005 40.1035H35.0005C34.4482 40.1035 34.0005 39.6558 34.0005 39.1035V32.1035Z" fill="#081E40"/>
<path d="M24.0005 33.1035C24.0005 32.5512 24.4482 32.1035 25.0005 32.1035H32.0005V39.1035C32.0005 39.6558 31.5528 40.1035 31.0005 40.1035H25.0005C24.4482 40.1035 24.0005 39.6558 24.0005 39.1035V33.1035Z" fill="#081E40"/>
</svg>
