<svg width="48" height="48" viewBox="0 0 48 48" fill="none" xmlns="http://www.w3.org/2000/svg">
<path fill-rule="evenodd" clip-rule="evenodd" d="M48 12.3334V35.6666C48 36.474 47.5145 37.2023 46.7692 37.5128L25.5385 46.359C24.5538 46.7692 23.4462 46.7692 22.4615 46.359L1.23077 37.5128C0.485475 37.2023 0 36.474 0 35.6666V12.3334V12.2706L0.000967736 12.271C0.0252519 11.4886 0.504726 10.7897 1.23077 10.4872L22.4615 1.64107C23.4462 1.23081 24.5538 1.23081 25.5385 1.64107L46.7692 10.4872C47.4133 10.7556 47.8634 11.3359 47.9737 12.0097L48 12V12.3334ZM5.35095 14.1871C11.8618 16.5237 22.2114 20.2547 24 21C24.746 20.6891 26.9816 19.8372 29.8068 18.7744L12.324 11.2817L5.35095 14.1871ZM36.1766 16.3906C38.3548 15.5785 40.5197 14.7737 42.3902 14.0793L24 6.41671L17.5476 9.10522L36.1766 16.3906ZM5 18.5L22 25.5833V40.75L5 33.6666V18.5ZM43 18.5L27 25.1666V40.3333L43 33.6666V18.5Z" fill="#081E40"/>
</svg>
