<svg width="48" height="48" viewBox="0 0 48 48" fill="none" xmlns="http://www.w3.org/2000/svg">
<path fill-rule="evenodd" clip-rule="evenodd" d="M30.4997 6.5C24.4246 6.5 19.4997 11.4249 19.4997 17.5C19.4997 18.8393 19.6117 20.336 19.876 21.2217C19.9102 21.3264 19.9373 21.4329 19.9573 21.5405C20.025 21.8996 20.0113 22.2592 19.9275 22.5979C19.8444 22.9371 19.6892 23.2624 19.462 23.5493C19.392 23.6382 19.3158 23.7225 19.2338 23.8015L6.54785 36.5329V41.5001L11.4305 41.5L11.4305 39.4168C11.4305 38.0085 12.5721 36.8668 13.9805 36.8668H16.9996L16.9996 34.6651C16.9996 33.2567 18.1413 32.1151 19.5496 32.1151L21.9996 32.1151L21.9996 29.5469C21.9959 29.3567 22.0139 29.1647 22.0549 28.9746C22.1225 28.6588 22.2497 28.3652 22.4241 28.106C22.6251 27.8058 22.8836 27.5607 23.1772 27.378C23.7425 27.0265 24.438 26.9069 25.1045 27.0737C25.292 27.1203 25.4711 27.1881 25.6392 27.2743C27.1719 28.02 28.8584 28.5 30.4997 28.5C30.878 28.5 31.2519 28.4809 31.6204 28.4436C30.8173 29.3622 30.2456 30.4882 29.9964 31.7308C29.9049 32.1873 29.8569 32.6595 29.8569 33.1429C29.8569 33.2577 29.8596 33.3718 29.8649 33.4852C28.8802 33.4393 27.92 33.2894 26.9996 33.0638L26.9996 34.5651C26.9996 35.9734 25.8579 37.115 24.4496 37.1151H24.4496H21.9996L21.9996 39.3168C21.9996 40.7251 20.8579 41.8668 19.4496 41.8668H16.4305L16.4305 41.9239V41.9239L16.4305 43.95C16.4305 45.3585 15.2887 46.5 13.8805 46.5L4.09786 46.5001H4.09779C2.68951 46.5 1.54789 45.3584 1.54785 43.9501V43.9501V35.5207V35.5206C1.54787 34.8459 1.81527 34.1987 2.29151 33.7208L14.763 21.2046C14.5509 19.897 14.4997 18.5123 14.4997 17.5C14.4997 8.66345 21.6631 1.5 30.4997 1.5C39.3363 1.5 46.4997 8.66345 46.4997 17.5C46.4997 21.6771 44.899 25.4804 42.2775 28.3299C41.0687 27.0051 39.3679 26.1371 37.4642 26.0149C39.9276 23.9976 41.4997 20.9324 41.4997 17.5C41.4997 11.4249 36.5748 6.5 30.4997 6.5ZM37 14C37 15.6569 35.6569 17 34 17C32.3431 17 31 15.6569 31 14C31 12.3431 32.3431 11 34 11C35.6569 11 37 12.3431 37 14ZM37.6219 34.1019L37 34.5089L36.3781 34.1019C36.0554 33.8908 35.8571 33.5385 35.8571 33.1429C35.8571 32.5118 36.369 32 36.9999 32C37.6311 32 38.1429 32.5118 38.1429 33.1429C38.1429 33.5385 37.9446 33.8908 37.6219 34.1019ZM31.8571 33.1429C31.8571 33.4442 31.883 33.7394 31.9328 34.0265C32.123 35.1246 32.6616 36.1034 33.4307 36.8449C33.6631 37.069 33.9165 37.2714 34.1877 37.4489C33.1879 37.7776 32.2654 38.2767 31.4546 38.9118C31.1542 39.1472 30.8691 39.4012 30.6011 39.6722C29.6654 40.6181 28.938 41.7704 28.4932 43.0546C27.951 44.6202 29.3431 46 31 46H43C44.6569 46 46.049 44.6202 45.5068 43.0546C45.062 41.7704 44.3346 40.6181 43.399 39.6721C43.1309 39.4012 42.8458 39.1471 42.5454 38.9118C41.7346 38.2767 40.8121 37.7776 39.8123 37.4489C40.0835 37.2714 40.3369 37.069 40.5693 36.8449C41.3384 36.1034 41.877 35.1246 42.0672 34.0265C42.117 33.7394 42.1429 33.4442 42.1429 33.1429C42.1429 30.3027 39.8403 28 36.9999 28C34.1599 28 31.8571 30.3027 31.8571 33.1429ZM38.5631 41.2488L37 40.7349L35.437 41.2488C34.9156 41.4202 34.4313 41.6761 34.0004 42H39.9996C39.5688 41.6761 39.0844 41.4202 38.5631 41.2488Z" fill="#081E40"/>
</svg>
