<svg width="48" height="48" viewBox="0 0 48 48" fill="none" xmlns="http://www.w3.org/2000/svg">
<path d="M29 24.2621C29 27.0236 26.7614 29.2621 24 29.2621C21.2386 29.2621 19 27.0236 19 24.2621C19 21.5007 21.2386 19.2621 24 19.2621C26.7614 19.2621 29 21.5007 29 24.2621Z" fill="#081E40"/>
<path fill-rule="evenodd" clip-rule="evenodd" d="M25.0345 6.88934C24.3944 6.51978 23.6057 6.51978 22.9656 6.88934L8.70662 15.1218C8.06652 15.4914 7.6722 16.1743 7.6722 16.9135V31.3784C7.6722 32.1175 8.06652 32.8005 8.70662 33.17L22.9656 41.4025C23.6057 41.772 24.3944 41.772 25.0345 41.4025L39.2935 33.17C39.9336 32.8005 40.3279 32.1175 40.3279 31.3784V16.9135C40.3279 16.1743 39.9336 15.4914 39.2935 15.1218L25.0345 6.88934ZM25.5517 1.21574C24.5915 0.661402 23.4086 0.661402 22.4484 1.21574L4.05175 11.8371C3.0916 12.3914 2.50012 13.4159 2.50012 14.5246V33.7672C2.50012 34.8759 3.0916 35.9004 4.05175 36.4547L22.4484 47.0761C23.4086 47.6304 24.5915 47.6304 25.5517 47.0761L43.9484 36.4547C44.9085 35.9004 45.5 34.8759 45.5 33.7672V14.5246C45.5 13.4159 44.9085 12.3914 43.9484 11.8371L25.5517 1.21574Z" fill="#081E40"/>
</svg>
