<svg width="48" height="48" viewBox="0 0 48 48" fill="none" xmlns="http://www.w3.org/2000/svg">
<path fill-rule="evenodd" clip-rule="evenodd" d="M23.9999 5.7735L8.21533 14.8868V33.1132L23.9999 42.2265L39.7845 33.1132V14.8868L23.9999 5.7735ZM44.7845 13.1547C44.7845 12.4402 44.4033 11.7799 43.7845 11.4226L24.9999 0.57735C24.3811 0.220085 23.6187 0.220085 22.9999 0.577351L4.21533 11.4226C3.59653 11.7799 3.21533 12.4402 3.21533 13.1547V34.8453C3.21533 35.5598 3.59653 36.2201 4.21533 36.5774L22.9999 47.4226C23.6187 47.7799 24.3811 47.7799 24.9999 47.4226L43.7845 36.5774C44.4033 36.2201 44.7845 35.5598 44.7845 34.8453V13.1547Z" fill="#081E40"/>
<path fill-rule="evenodd" clip-rule="evenodd" d="M24.5 15C25.8807 15 27 16.1193 27 17.5C27 18.8807 25.8807 20 24.5 20C23.1193 20 22 18.8807 22 17.5C22 16.1193 23.1193 15 24.5 15ZM24.5 10C28.6421 10 32 13.3579 32 17.5C32 21.6421 28.6421 25 24.5 25C20.3579 25 17 21.6421 17 17.5C17 13.3579 20.3579 10 24.5 10Z" fill="#081E40"/>
<path fill-rule="evenodd" clip-rule="evenodd" d="M24.5 39C25.8807 39 27 37.8807 27 36.5L27 24H22L22 36.5C22 37.8807 23.1193 39 24.5 39Z" fill="#081E40"/>
<path fill-rule="evenodd" clip-rule="evenodd" d="M33 30.5C33 29.1193 31.8807 28 30.5 28H26V33H30.5C31.8807 33 33 31.8807 33 30.5Z" fill="#081E40"/>
</svg>
