<svg width="48" height="48" viewBox="0 0 48 48" fill="none" xmlns="http://www.w3.org/2000/svg">
<path fill-rule="evenodd" clip-rule="evenodd" d="M8 2C4.68629 2 2 4.68629 2 8V40C2 44.3223 6.43205 47.2266 10.395 45.5013L23.2234 40.0752C24.0045 39.7351 24.8934 39.7432 25.6682 40.0974L37.5055 45.4569C41.4793 47.2734 46 44.3693 46 40V8.00001C46 4.6863 43.3137 2 40 2H8ZM7 10C7 8.34315 8.34315 7 10 7H38C39.6569 7 41 8.34315 41 10V36.8867C41 39.0713 38.7396 40.5234 36.7528 39.6151L26.9353 35.179C25.3857 34.4706 23.608 34.4545 22.0458 35.1346L11.1975 39.6986C9.21603 40.5612 7 39.1091 7 36.948V10ZM21.2498 25.4285C20.8592 25.038 20.2301 25.0506 19.7593 25.3392C19.1166 25.7332 18.3606 25.9604 17.5515 25.9604C15.2152 25.9604 13.3213 24.0664 13.3213 21.7302C13.3213 19.3939 15.2152 17.5 17.5515 17.5C18.2974 17.5 18.9983 17.6931 19.6068 18.032C20.1157 18.3154 20.7886 18.2864 21.1576 17.8355L23.033 15.5433C23.374 15.1265 23.3267 14.5095 22.8876 14.1979C21.381 13.1286 19.5396 12.5 17.5515 12.5C12.4538 12.5 8.32129 16.6325 8.32129 21.7302C8.32129 26.8279 12.4538 30.9604 17.5515 30.9604C19.7408 30.9604 21.7521 30.1982 23.3344 28.9246C23.7647 28.5783 23.7616 27.9403 23.3711 27.5498L21.2498 25.4285ZM37.1716 25.4285C36.7811 25.038 36.152 25.0506 35.6812 25.3392C35.0385 25.7332 34.2824 25.9604 33.4733 25.9604C31.1371 25.9604 29.2432 24.0664 29.2432 21.7302C29.2432 19.3939 31.1371 17.5 33.4733 17.5C34.2193 17.5 34.9201 17.6931 35.5286 18.032C36.0376 18.3154 36.7105 18.2864 37.0794 17.8355L38.9549 15.5433C39.2959 15.1265 39.2486 14.5095 38.8095 14.1979C37.3029 13.1286 35.4615 12.5 33.4733 12.5C28.3757 12.5 24.2432 16.6325 24.2432 21.7302C24.2432 26.8279 28.3757 30.9604 33.4733 30.9604C35.6626 30.9604 37.6739 30.1982 39.2563 28.9246C39.6865 28.5783 39.6835 27.9403 39.293 27.5498L37.1716 25.4285Z" fill="#081E40"/>
</svg>
