<svg width="48" height="48" viewBox="0 0 48 48" fill="none" xmlns="http://www.w3.org/2000/svg">
<path fill-rule="evenodd" clip-rule="evenodd" d="M5 1C2.79086 1 1 2.79086 1 5V34C1 36.2091 2.79086 38 5 38H21.5V42H9C7.61929 42 6.5 43.1193 6.5 44.5C6.5 45.8807 7.61929 47 9 47H39C40.3807 47 41.5 45.8807 41.5 44.5C41.5 43.1193 40.3807 42 39 42H26.5V38H43C45.2091 38 47 36.2091 47 34V5C47 2.79086 45.2091 1 43 1H5ZM6 8C6 6.89543 6.89543 6 8 6H40C41.1046 6 42 6.89543 42 8V31C42 32.1046 41.1046 33 40 33H8C6.89543 33 6 32.1046 6 31V8ZM20.2144 24.9944C19.8932 26.0835 20.5008 27.2312 21.5714 27.558C22.6421 27.8847 23.7704 27.2667 24.0916 26.1776L27.786 13.651C28.1072 12.5619 27.4996 11.4141 26.4289 11.0874C25.3583 10.7606 24.2299 11.3787 23.9087 12.4678L20.2144 24.9944ZM15.4707 12.7344C16.2611 11.9303 17.5426 11.9303 18.333 12.7344C19.1234 13.5384 19.1234 14.842 18.333 15.646L14.7186 19.3226L18.333 22.9992C19.1234 23.8032 19.1234 25.1068 18.333 25.9108C17.5426 26.7149 16.2611 26.7149 15.4707 25.9108L10.7114 21.0696C9.76288 20.1047 9.76288 18.5405 10.7114 17.5756L15.4707 12.7344ZM32.5294 12.7344C31.739 11.9303 30.4575 11.9303 29.6671 12.7344C28.8767 13.5384 28.8767 14.842 29.6671 15.646L33.2814 19.3226L29.6671 22.9992C28.8767 23.8032 28.8767 25.1068 29.6671 25.9108C30.4575 26.7149 31.739 26.7149 32.5294 25.9108L37.2887 21.0696C38.2371 20.1047 38.2371 18.5405 37.2887 17.5756L32.5294 12.7344Z" fill="#0D1F3E"/>
</svg>
