<svg width="48" height="48" viewBox="0 0 48 48" fill="none" xmlns="http://www.w3.org/2000/svg">
<path fill-rule="evenodd" clip-rule="evenodd" d="M14.8653 4.07275C14.1556 4.32959 13.1103 4.85606 12.5337 5.23444C11.3486 6.01221 11.0928 7.35783 12.0559 8.39793L18.3907 15.2388C19.1412 16.0493 19.0925 17.3147 18.2821 18.0652C17.4716 18.8157 16.2062 18.7671 15.4557 17.9566L9.11964 11.1142C8.18989 10.1102 6.76654 10.2663 5.93017 11.3494C5.48516 11.9257 4.89725 12.911 4.59303 13.5849C1.70586 19.9806 2.72522 27.7576 7.7927 33.23C12.1102 37.8925 18.3213 39.7535 24.1461 38.7252C24.3162 38.6952 24.4906 38.7518 24.6079 38.8786L29.3169 43.9637C31.5683 46.3951 35.3645 46.5409 37.7959 44.2895L42.932 39.5334C45.3634 37.2819 45.5092 33.4857 43.2577 31.0544L38.5488 25.9692C38.4315 25.8425 38.3884 25.6642 38.4313 25.4969C39.9034 19.7682 38.5245 13.4327 34.207 8.77014C29.1395 3.29775 21.4636 1.68476 14.8653 4.07275ZM34.0114 28.4282C33.1578 27.5064 33.0022 26.1588 33.3839 24.9618C34.7607 20.6444 33.8371 15.7297 30.5383 12.1673C27.5011 8.88745 23.1633 7.52652 19.0519 8.14485C18.8955 8.16836 18.8321 8.35655 18.9395 8.47254L22.0593 11.8416C24.686 14.6782 24.5159 19.1071 21.6793 21.7338C18.8427 24.3605 14.4138 24.1904 11.7871 21.3538L8.66729 17.9847C8.55988 17.8687 8.36737 17.9175 8.33194 18.0716C7.4 22.1235 8.42414 26.5529 11.4614 29.8328C14.7601 33.3952 19.5894 34.6931 23.9998 33.6515C25.2225 33.3628 26.5542 33.6214 27.4079 34.5432L32.3061 39.8328C33.0566 40.6433 34.322 40.6919 35.1324 39.9414L38.8011 36.5442C39.6115 35.7937 39.6601 34.5283 38.9096 33.7178L34.0114 28.4282Z" fill="#081E40"/>
</svg>
