<svg width="48" height="48" viewBox="0 0 48 48" fill="none" xmlns="http://www.w3.org/2000/svg">
<path fill-rule="evenodd" clip-rule="evenodd" d="M7 41V7H41V41H7ZM2 6C2 3.79086 3.79086 2 6 2H42C44.2091 2 46 3.79086 46 6V42C46 44.2091 44.2091 46 42 46H6C3.79086 46 2 44.2091 2 42V6ZM12.5 34.5C12.5 35.8807 13.6193 37 15 37C16.3807 37 17.5 35.8807 17.5 34.5L17.5 14.5C17.5 13.1193 16.3807 12 15 12C13.6193 12 12.5 13.1193 12.5 14.5L12.5 34.5ZM24 37C22.6193 37 21.5 35.8807 21.5 34.5V23.5C21.5 22.1193 22.6193 21 24 21C25.3807 21 26.5 22.1193 26.5 23.5V34.5C26.5 35.8807 25.3807 37 24 37ZM30.5 34.5C30.5 35.8807 31.6193 37 33 37C34.3807 37 35.5 35.8807 35.5 34.5V29.5C35.5 28.1193 34.3807 27 33 27C31.6193 27 30.5 28.1193 30.5 29.5V34.5Z" fill="#081E40"/>
</svg>
