<svg width="48" height="48" viewBox="0 0 48 48" fill="none" xmlns="http://www.w3.org/2000/svg">
<g clip-path="url(#clip0_3718_527)">
<path fill-rule="evenodd" clip-rule="evenodd" d="M29 10C29 12.7614 26.7614 15 24 15C21.2386 15 19 12.7614 19 10C19 7.23858 21.2386 5 24 5C26.7614 5 29 7.23858 29 10ZM44.5 27C44.5 19.2922 40.2461 12.5779 33.958 9.07678C33.492 3.9867 29.2116 0 24 0C18.7884 0 14.508 3.98671 14.0421 9.07678C7.75389 12.5779 3.5 19.2922 3.5 27C3.5 27.7753 3.54304 28.5406 3.62687 29.2936C1.41142 31.1278 0 33.8991 0 37C0 42.5228 4.47715 47 10 47C11.9135 47 13.7014 46.4626 15.2211 45.5305C17.8822 46.7934 20.8586 47.5 24 47.5C27.1414 47.5 30.1178 46.7934 32.7789 45.5305C34.2986 46.4626 36.0865 47 38 47C43.5228 47 48 42.5228 48 37C48 33.8991 46.5886 31.1278 44.3731 29.2936C44.457 28.5406 44.5 27.7753 44.5 27ZM39.4996 27.1117C39.4999 27.0745 39.5 27.0373 39.5 27C39.5 21.7931 36.9326 17.1859 32.9946 14.3752L32.9952 14.374C31.3725 17.7048 27.9543 20 24 20C20.0462 20 16.6283 17.7054 15.0054 14.3752C11.0674 17.1859 8.5 21.7931 8.5 27C8.5 27.0373 8.50013 27.0745 8.50039 27.1117C8.98956 27.0381 9.49033 27 10 27C15.5228 27 20 31.4772 20 37C20 38.6705 19.5904 40.2454 18.8661 41.6296C20.4729 42.1934 22.2006 42.5 24 42.5C25.7994 42.5 27.5271 42.1934 29.1339 41.6296C28.4096 40.2454 28 38.6705 28 37C28 31.4772 32.4772 27 38 27C38.5097 27 39.0104 27.0381 39.4996 27.1117ZM15 37C15 39.7614 12.7614 42 10 42C7.23858 42 5 39.7614 5 37C5 34.2386 7.23858 32 10 32C12.7614 32 15 34.2386 15 37ZM43 37C43 39.7614 40.7614 42 38 42C35.2386 42 33 39.7614 33 37C33 34.2386 35.2386 32 38 32C40.7614 32 43 34.2386 43 37Z" fill="#081E40"/>
</g>
<defs>
<clipPath id="clip0_3718_527">
<rect width="48" height="48" fill="white"/>
</clipPath>
</defs>
</svg>
