<svg width="48" height="48" viewBox="0 0 48 48" fill="none" xmlns="http://www.w3.org/2000/svg">
<path fill-rule="evenodd" clip-rule="evenodd" d="M6 2C3.79086 2 2 3.79086 2 6V42C2 44.2091 3.79086 46 6 46H42C44.2091 46 46 44.2091 46 42V6C46 3.79086 44.2091 2 42 2H6ZM7 9C7 7.89543 7.89543 7 9 7H39C40.1046 7 41 7.89543 41 9V39C41 40.1046 40.1046 41 39 41H9C7.89543 41 7 40.1046 7 39V9ZM23.2285 13.0596C24.024 14.0143 23.8951 15.433 22.9404 16.2286L16.7764 21.3652C16.0208 21.995 14.9194 21.9817 14.1791 21.3339L10.0184 17.6934C9.08321 16.8751 8.98845 15.4536 9.80673 14.5184C10.625 13.5832 12.0465 13.4885 12.9817 14.3068L14.893 15.9792C15.2632 16.3031 15.8139 16.3097 16.1917 15.9948L20.0596 12.7716C21.0142 11.976 22.433 12.105 23.2285 13.0596ZM36.5 18.5L28.5 18.5C27.1193 18.5 26 17.3807 26 16C26 14.6193 27.1193 13.5 28.5 13.5H36.5C37.8807 13.5 39 14.6193 39 16C39 17.3807 37.8807 18.5 36.5 18.5ZM26 32C26 30.6193 27.1193 29.5 28.5 29.5H36.5C37.8807 29.5 39 30.6193 39 32C39 33.3807 37.8807 34.5 36.5 34.5H28.5C27.1193 34.5 26 33.3807 26 32ZM19 31.5C19 32.8807 17.8807 34 16.5 34C15.1193 34 14 32.8807 14 31.5C14 30.1193 15.1193 29 16.5 29C17.8807 29 19 30.1193 19 31.5ZM23 31.5C23 35.0899 20.0899 38 16.5 38C12.9101 38 10 35.0899 10 31.5C10 27.9101 12.9101 25 16.5 25C20.0899 25 23 27.9101 23 31.5Z" fill="#081E40"/>
</svg>
