<svg width="48" height="48" viewBox="0 0 48 48" fill="none" xmlns="http://www.w3.org/2000/svg">
<path fill-rule="evenodd" clip-rule="evenodd" d="M37.3235 4.68662C36.7644 3.07813 35.2482 2 33.5453 2H14.4548C12.7519 2 11.2357 3.07813 10.6766 4.68661L6.3962 17H6C3.79086 17 2 18.7909 2 21V42C2 44.2091 3.79086 46 6 46H42C44.2091 46 46 44.2091 46 42V21C46 18.7909 44.2091 17 42 17H41.6039L37.3235 4.68662ZM36.7533 17L33.4345 8.28801C33.1391 7.5125 32.3954 7 31.5655 7H16.4346C15.6047 7 14.861 7.5125 14.5656 8.28801L11.2467 17H15.7935L17.0061 12.0485C17.4444 10.2588 19.0486 9 20.8913 9H27.1088C28.9514 9 30.5556 10.2588 30.9939 12.0485L32.2066 17H36.7533ZM27.0588 17L26.5107 14.7621C26.4012 14.3147 26.0001 14 25.5394 14H22.4606C21.9999 14 21.5989 14.3147 21.4893 14.7621L20.9412 17H27.0588ZM14.5 22H7V41H41V22H33.5V30C33.5 31.6569 32.1569 33 30.5 33H17.5C15.8431 33 14.5 31.6569 14.5 30V22ZM28.5 22V27C28.5 27.5523 28.0523 28 27.5 28H20.5C19.9477 28 19.5 27.5523 19.5 27V22H28.5Z" fill="#081E40"/>
</svg>
