<svg width="48" height="48" viewBox="0 0 48 48" fill="none" xmlns="http://www.w3.org/2000/svg">
<path fill-rule="evenodd" clip-rule="evenodd" d="M6.50194 32C5.94965 32 5.50194 32.4477 5.50194 33L5.50194 40L3.50194 40C2.54093 40 2.13313 41.2234 2.90194 41.8L7.90194 45.55C8.25749 45.8167 8.74638 45.8167 9.10194 45.55L14.1019 41.8C14.8707 41.2234 14.463 40 13.5019 40H11.5019L11.5019 33C11.5019 32.4477 11.0542 32 10.5019 32H6.50194Z" fill="#016BFF"/>
<path fill-rule="evenodd" clip-rule="evenodd" d="M7.90194 2.45C8.25749 2.18333 8.74638 2.18333 9.10194 2.45L14.1019 6.2C14.8707 6.77661 14.463 8 13.5019 8L11.5019 8L11.5019 27C11.5019 27.5523 11.0542 28 10.5019 28H6.50194C5.94966 28 5.50194 27.5523 5.50194 27L5.50194 8L3.50194 8C2.54093 8 2.13313 6.7766 2.90194 6.2L7.90194 2.45ZM21.002 4.5C19.6212 4.5 18.502 5.61929 18.502 7C18.502 8.38071 19.6212 9.5 21.002 9.5L43.002 9.5C44.3827 9.5 45.502 8.38071 45.502 7C45.502 5.61929 44.3827 4.5 43.002 4.5L21.002 4.5ZM21.002 21.5C19.6212 21.5 18.502 22.6193 18.502 24C18.502 25.3807 19.6212 26.5 21.002 26.5L43.002 26.5C44.3827 26.5 45.502 25.3807 45.502 24C45.502 22.6193 44.3827 21.5 43.002 21.5L21.002 21.5ZM18.502 41C18.502 39.6193 19.6212 38.5 21.002 38.5H43.002C44.3827 38.5 45.502 39.6193 45.502 41C45.502 42.3807 44.3827 43.5 43.002 43.5H21.002C19.6212 43.5 18.502 42.3807 18.502 41Z" fill="#081E40"/>
</svg>
