<svg width="48" height="48" viewBox="0 0 48 48" fill="none" xmlns="http://www.w3.org/2000/svg">
<path fill-rule="evenodd" clip-rule="evenodd" d="M9.10194 2.45C8.74638 2.18333 8.25749 2.18333 7.90194 2.45L2.90194 6.2C2.13313 6.77661 2.54093 8 3.50194 8L5.50195 8L5.50195 15C5.50195 15.5523 5.94967 16 6.50195 16H10.502C11.0542 16 11.502 15.5523 11.502 15L11.502 8H13.5019C14.4629 8 14.8707 6.77661 14.1019 6.2L9.10194 2.45Z" fill="#016BFF"/>
<path fill-rule="evenodd" clip-rule="evenodd" d="M6.50192 20C5.94964 20 5.50192 20.4477 5.50192 21V40H3.50194C2.54093 40 2.13313 41.2234 2.90194 41.8L7.90194 45.55C8.25749 45.8167 8.74638 45.8167 9.10194 45.55L14.1019 41.8C14.8707 41.2234 14.463 40 13.5019 40H11.5019V21C11.5019 20.4477 11.0542 20 10.5019 20H6.50192Z" fill="#081E40"/>
<path fill-rule="evenodd" clip-rule="evenodd" d="M18.5019 7C18.5019 5.61929 19.6212 4.5 21.0019 4.5L43.0019 4.5C44.3826 4.5 45.5019 5.61929 45.5019 7C45.5019 8.38071 44.3826 9.5 43.0019 9.5L21.0019 9.5C19.6212 9.5 18.5019 8.38071 18.5019 7ZM18.5019 24C18.5019 22.6193 19.6212 21.5 21.0019 21.5L43.0019 21.5C44.3826 21.5 45.5019 22.6193 45.5019 24C45.5019 25.3807 44.3826 26.5 43.0019 26.5L21.0019 26.5C19.6212 26.5 18.5019 25.3807 18.5019 24ZM21.0019 38.5C19.6212 38.5 18.5019 39.6193 18.5019 41C18.5019 42.3807 19.6212 43.5 21.0019 43.5L43.0019 43.5C44.3826 43.5 45.5019 42.3807 45.5019 41C45.5019 39.6193 44.3826 38.5 43.0019 38.5L21.0019 38.5Z" fill="#081E40"/>
</svg>
