<svg width="48" height="48" viewBox="0 0 48 48" fill="none" xmlns="http://www.w3.org/2000/svg">
<path fill-rule="evenodd" clip-rule="evenodd" d="M13.2934 2.5C11.9676 2.5 10.7279 3.15692 9.9835 4.25399L1.15685 17.2617C0.373832 18.4156 0.489189 19.9569 1.43525 20.9814L23.4645 44.8374C24.28 45.7206 25.6848 45.6899 26.461 44.772L46.6546 20.8922C47.5235 19.8647 47.6019 18.3842 46.8462 17.2706L38.0135 4.254C37.2691 3.15693 36.0294 2.5 34.7036 2.5H13.2934ZM13.2282 8.377C13.6004 7.82846 14.2203 7.5 14.8832 7.5H33.1139C33.7768 7.5 34.3966 7.82846 34.7688 8.377L41.027 17.5996C41.5277 18.3375 41.4794 19.3178 40.9085 20.0029L25.6412 38.3236C25.2536 38.7887 24.5449 38.8055 24.1358 38.3592L7.24588 19.9337C6.61952 19.2505 6.54476 18.2263 7.06523 17.4593L13.2282 8.377ZM19.0035 22.638C19.0943 23.856 19.8898 25.4316 20.7825 26.2497C21.7009 27.0765 22.8951 27.5164 24.1216 27.4798C24.7917 27.4995 25.4591 27.385 26.0857 27.1426C26.1242 27.1277 26.1628 27.1128 26.2015 27.0979C26.7931 26.8702 27.4059 26.6343 27.8634 26.1954C28.3356 25.7529 28.7464 24.982 29 24.3824C29.2536 23.7827 29.2915 23.0518 29.2825 22.3992C29.31 21.4703 29.0316 20.5586 28.4915 19.8086C28.255 19.4927 27.9689 19.2186 27.6447 18.9972C27.8041 18.833 27.9472 18.6532 28.0719 18.4604C28.4511 17.8745 28.6513 17.1877 28.647 16.4864C28.6466 15.7475 28.4497 14.7289 28.07 14.0986C27.6695 13.4308 27.0898 12.8929 26.399 12.548C25.687 12.1823 24.8992 11.9951 24.1015 12.002C22.9864 11.9691 21.8978 12.3509 21.0401 13.0756C20.1829 13.8483 19.3344 14.947 19.1711 16.0995C19.1534 16.1989 19.1553 16.3009 19.1765 16.3996C19.1978 16.4983 19.238 16.5918 19.2949 16.6746C19.3517 16.7573 19.424 16.8277 19.5077 16.882C19.5914 16.9362 19.6847 16.9731 19.7825 16.9906L21.6575 17.4865C21.7567 17.5042 21.8583 17.5016 21.9565 17.4787C22.0546 17.4559 22.1473 17.4134 22.229 17.3537C22.3107 17.2939 22.3799 17.2182 22.4324 17.1309C22.4848 17.0436 22.5196 16.9465 22.5346 16.8453C22.5746 16.3489 22.774 15.8795 23.1022 15.5094C23.2398 15.3788 23.4018 15.2776 23.5787 15.2117C23.7555 15.1458 23.9435 15.1167 24.1317 15.126C24.3149 15.1149 24.4985 15.1416 24.6713 15.2046C24.8441 15.2677 25.0025 15.3656 25.137 15.4925C25.2581 15.6111 25.3529 15.7545 25.4154 15.9131C25.4779 16.0718 25.5064 16.2421 25.4993 16.4128C25.5215 16.6105 25.4892 16.8105 25.4061 16.9906C25.3229 17.1707 25.1921 17.3238 25.0283 17.4328C24.7822 17.5965 24.4973 17.5698 24.1681 17.539C24.0421 17.5272 23.9096 17.5148 23.7702 17.5123C23.7127 17.5117 23.6552 17.5076 23.5982 17.5C23.401 17.4774 23.2031 17.5346 23.0472 17.6592C22.8912 17.7838 22.8021 17.9534 22.7771 18.1534L22.4152 19.9329C22.4 20.0568 22.4149 20.1826 22.4585 20.2994C22.5021 20.4161 22.5731 20.5203 22.6654 20.6028C22.7576 20.6854 22.8683 20.7438 22.9878 20.7729C23.1073 20.8021 23.232 20.8012 23.3511 20.7703C23.6543 20.6811 23.967 20.6296 24.2825 20.6169C24.5197 20.6064 24.7687 20.6332 24.9905 20.7195C25.2122 20.8058 25.4142 20.9374 25.5838 21.1062C25.7499 21.2752 25.8797 21.4773 25.9649 21.6999C26.0501 21.9225 26.089 22.1606 26.0789 22.3992C26.087 22.6614 26.042 22.9224 25.9467 23.1662C25.8514 23.41 25.7079 23.6313 25.525 23.8164C25.3493 24.001 25.1378 24.1465 24.904 24.244C24.6702 24.3414 24.419 24.3885 24.1664 24.3824C23.7623 24.3961 23.3689 24.2498 23.0689 23.9744C22.6831 23.5376 22.4386 22.991 22.3685 22.4084C22.3317 22.2168 22.2245 22.0467 22.0685 21.9327C21.9126 21.8187 21.7197 21.7694 21.5292 21.7949L19.6542 21.8036C19.4605 21.8301 19.2845 21.9318 19.1632 22.0875C19.0418 22.2431 18.9846 22.4404 19.0035 22.638Z" fill="#081E40"/>
</svg>
