<svg width="48" height="48" viewBox="0 0 48 48" fill="none" xmlns="http://www.w3.org/2000/svg">
<g clip-path="url(#clip0_2275_2786)">
<path fill-rule="evenodd" clip-rule="evenodd" d="M24 48C37.2548 48 48 37.2548 48 24C48 10.7452 37.2548 0 24 0C10.7452 0 0 10.7452 0 24C0 37.2548 10.7452 48 24 48ZM22 14.5H30.5V26C30.5 28.7502 29.5517 30.6043 28.3119 31.7789C27.0382 32.9855 25.2975 33.625 23.5 33.625C21.7025 33.625 19.9618 32.9855 18.6881 31.7789C17.6048 30.7525 16.744 29.2074 16.544 26.9988C16.4942 26.4488 16.0523 26 15.5 26H12.5C11.9477 26 11.4965 26.4486 11.5304 26.9998C11.7483 30.5364 13.1235 33.3947 15.2494 35.4086C17.5382 37.577 20.5475 38.625 23.5 38.625C26.4525 38.625 29.4618 37.577 31.7506 35.4086C34.0733 33.2082 35.5 29.9998 35.5 26V10.5C35.5 9.94772 35.0523 9.5 34.5 9.5H22C21.4477 9.5 21 9.94771 21 10.5V13.5C21 14.0523 21.4477 14.5 22 14.5Z" fill="#081E40"/>
</g>
<defs>
<clipPath id="clip0_2275_2786">
<rect width="48" height="48" fill="white"/>
</clipPath>
</defs>
</svg>
