<svg width="44" height="44" viewBox="0 0 44 44" fill="none" xmlns="http://www.w3.org/2000/svg">
<path d="M44 40C44 42.2091 42.2091 44 40 44H16V39H37C38.1046 39 39 38.1046 39 37V7C39 5.89543 38.1046 5 37 5H7C5.89543 5 5 5.89543 5 7V37C5 38.1046 5.89543 39 7 39H16V44H4C1.79086 44 0 42.2091 0 40V4C0 1.79086 1.79086 0 4 0H40C42.2091 0 44 1.79086 44 4V40Z" fill="#081E40"/>
<path d="M17 0V44H12V0H17Z" fill="#081E40"/>
<path d="M33 7.5C34.3807 7.5 35.5 8.61929 35.5 10C35.5 11.3807 34.3807 12.5 33 12.5H23C21.6193 12.5 20.5 11.3807 20.5 10C20.5 8.61929 21.6193 7.5 23 7.5H33Z" fill="#081E40"/>
</svg>
