<svg width="48" height="48" viewBox="0 0 48 48" fill="none" xmlns="http://www.w3.org/2000/svg">
<path fill-rule="evenodd" clip-rule="evenodd" d="M2 6.00001C2 3.79086 3.79086 2 6 2H33.8798C34.8992 2 35.8802 2.38922 36.6223 3.08814L44.7425 10.7359C45.545 11.4918 46 12.5454 46 13.6478V42C46 44.2091 44.2092 46 42 46H6.00005C3.79091 46 2.00005 44.2091 2.00005 42L2 6.00001ZM9 7C7.89543 7 7 7.89543 7 9L7.00004 39C7.00004 40.1046 7.89547 41 9.00004 41H39C40.1046 41 41 40.1046 41 39V14.9434C41 14.3922 40.7725 13.8654 40.3713 13.4875L37 10.3123V18.5C37 20.7091 35.2091 22.5 33 22.5H15C12.7909 22.5 11 20.7091 11 18.5V7H9ZM16 7V15.5C16 16.6046 16.8954 17.5 18 17.5H30C31.1046 17.5 32 16.6046 32 15.5V7H16ZM11 33C11 31.6193 12.1193 30.5 13.5 30.5L34.5 30.5C35.8807 30.5 37 31.6193 37 33C37 34.3807 35.8807 35.5 34.5 35.5H13.5C12.1193 35.5 11 34.3807 11 33Z" fill="#081E40"/>
</svg>
