<svg width="48" height="48" viewBox="0 0 48 48" fill="none" xmlns="http://www.w3.org/2000/svg">
<path fill-rule="evenodd" clip-rule="evenodd" d="M3 4.75C1.34315 4.75 0 6.09315 0 7.75V40.25C0 41.9069 1.34315 43.25 3 43.25H45C46.6569 43.25 48 41.9069 48 40.25V7.75C48 6.09315 46.6569 4.75 45 4.75H3ZM17.8744 23.6004L5 34.3291V12.0134L17.8744 23.6004ZM21.6293 26.9798L8.10513 38.25H39.8949L26.3889 26.995L25.9604 27.3623C24.816 28.3432 23.1215 28.3227 22.0012 27.3144L21.6293 26.9798ZM30.239 23.6949L43 34.3291V12.757L30.239 23.6949ZM38.8252 9.75L24.0402 22.4228L9.95934 9.75H38.8252Z" fill="#081E40"/>
</svg>
