<svg width="48" height="48" viewBox="0 0 48 48" fill="none" xmlns="http://www.w3.org/2000/svg">
<g clip-path="url(#clip0_2209_6019)">
<path fill-rule="evenodd" clip-rule="evenodd" d="M26.5 2.5C26.5 1.11929 25.3807 0 24 0C22.6193 0 21.5 1.11929 21.5 2.5L21.5 28.5C21.5 29.8807 22.6193 31 24 31C25.3807 31 26.5 29.8807 26.5 28.5L26.5 2.5ZM36.6989 9.8669C35.6617 8.93429 35.3651 7.36684 36.1714 6.2286C36.9606 5.11443 38.5087 4.83189 39.5484 5.71692C44.7198 10.1191 48 16.6765 48 24C48 37.2548 37.2548 48 24 48C10.7452 48 0 37.2548 0 24C0 16.6765 3.28022 10.1191 8.45159 5.71692C9.49126 4.83189 11.0394 5.11443 11.8286 6.2286C12.6349 7.36684 12.3383 8.9343 11.3011 9.86691C7.43272 13.345 5 18.3884 5 24C5 34.4934 13.5066 43 24 43C34.4934 43 43 34.4934 43 24C43 18.3884 40.5673 13.345 36.6989 9.8669Z" fill="#081E40"/>
</g>
<defs>
<clipPath id="clip0_2209_6019">
<rect width="48" height="48" fill="white"/>
</clipPath>
</defs>
</svg>
