<svg width="48" height="48" viewBox="0 0 48 48" fill="none" xmlns="http://www.w3.org/2000/svg">
<path fill-rule="evenodd" clip-rule="evenodd" d="M32 46H2V12H32V46ZM7 41H27V17H7V41ZM46 38H36C34.6193 38 33.5 36.8807 33.5 35.5C33.5 34.1193 34.6193 33 36 33H41V7H20V8C20 9.38071 18.8807 10.5 17.5 10.5C16.1193 10.5 15 9.38071 15 8V2H46V38ZM17 21.5C18.3807 21.5 19.5 22.6193 19.5 24V26.5H22C23.3807 26.5 24.5 27.6193 24.5 29C24.5 30.3807 23.3807 31.5 22 31.5H19.5V34C19.5 35.3807 18.3807 36.5 17 36.5C15.6193 36.5 14.5 35.3807 14.5 34V31.5H12C10.6193 31.5 9.5 30.3807 9.5 29C9.5 27.6193 10.6193 26.5 12 26.5H14.5V24C14.5 22.6193 15.6193 21.5 17 21.5Z" fill="#081E40"/>
</svg>
