<svg width="48" height="48" viewBox="0 0 48 48" fill="none" xmlns="http://www.w3.org/2000/svg">
<path fill-rule="evenodd" clip-rule="evenodd" d="M5 2C3.34315 2 2 3.34315 2 5V14.5C2 15.8807 3.11929 17 4.5 17C5.88071 17 7 15.8807 7 14.5V10.5355L15.2322 18.7678C16.2085 19.7441 17.7915 19.7441 18.7678 18.7678C19.7441 17.7915 19.7441 16.2085 18.7678 15.2322L10.5355 7H14.5C15.8807 7 17 5.88071 17 4.5C17 3.11929 15.8807 2 14.5 2H5ZM5 46C3.34315 46 2 44.6569 2 43V33.5C2 32.1193 3.11929 31 4.5 31C5.88071 31 7 32.1193 7 33.5V37.4645L15.2322 29.2322C16.2085 28.2559 17.7915 28.2559 18.7678 29.2322C19.7441 30.2085 19.7441 31.7915 18.7678 32.7678L10.5355 41H14.5C15.8807 41 17 42.1193 17 43.5C17 44.8807 15.8807 46 14.5 46H5ZM46 5C46 3.34315 44.6569 2 43 2H33.5C32.1193 2 31 3.11929 31 4.5C31 5.88071 32.1193 7 33.5 7H37.4645L28.2322 16.2322C27.2559 17.2085 27.2559 18.7915 28.2322 19.7678C29.2085 20.7441 30.7915 20.7441 31.7678 19.7678L41 10.5355V14.5C41 15.8807 42.1193 17 43.5 17C44.8807 17 46 15.8807 46 14.5V5ZM43 46C44.6569 46 46 44.6569 46 43V33.5C46 32.1193 44.8807 31 43.5 31C42.1193 31 41 32.1193 41 33.5V37.4645L31.7678 28.2322C30.7915 27.2559 29.2085 27.2559 28.2322 28.2322C27.2559 29.2085 27.2559 30.7915 28.2322 31.7678L37.4645 41H33.5C32.1193 41 31 42.1193 31 43.5C31 44.8807 32.1193 46 33.5 46H43Z" fill="#081E40"/>
</svg>
