<svg width="48" height="48" viewBox="0 0 48 48" fill="none" xmlns="http://www.w3.org/2000/svg">
<path d="M24 0C37.2548 0 48 10.7452 48 24C48 37.2548 37.2548 48 24 48C10.7452 48 0 37.2548 0 24C0 10.7452 10.7452 0 24 0ZM32.707 7.69531L32.6211 7.77539L32.5283 7.84766C31.6905 8.4946 30.9904 9.30484 30.6123 10.3311L30.6113 10.3301C30.1987 11.5018 29.5856 12.4845 28.749 13.2285C27.8958 13.9873 26.9354 14.3883 26.0166 14.5693C25.1309 14.7438 24.2506 14.7124 23.499 14.6182L23.5215 14.6719C23.7105 15.1444 23.9274 15.6859 24.0928 16.1328L24.2383 16.543L24.2529 16.585L24.2646 16.6279C25.1229 19.5461 24.4707 23.3683 21.4053 25.084C20.6377 25.5688 19.7932 25.833 18.7998 25.833C16.8841 25.8329 15.1538 24.755 13.8936 23.1348L13.8574 23.0889L13.8242 23.042C12.891 21.72 11.7937 21.5442 10.1221 21.2656C9.72397 21.1993 8.64478 21.0319 7.49707 20.5684C6.89941 20.327 6.20605 19.9736 5.54785 19.457C5.19066 20.9128 5 22.4341 5 24C5 34.4934 13.5066 43 24 43C25.917 43 27.7671 42.7146 29.5117 42.1865C29.1586 41.3774 28.62 40.4645 27.791 39.4404L27.7812 39.4287C27.2401 38.7523 26.7872 38.1896 26.2324 37.6348L26.2109 37.6133L26.1904 37.5908C24.7965 36.1272 23.4862 34.5062 22.7422 32.7998C21.9749 31.0395 21.7313 28.96 22.8594 26.9639H22.8574C23.6327 25.4994 24.6278 24.393 25.8711 23.6523C27.0926 22.9247 28.3719 22.6601 29.542 22.5752C29.5464 22.5749 29.5513 22.5745 29.5557 22.5742C30.9724 22.4684 32.214 22.8501 33.1104 23.2861C33.5666 23.5081 33.9718 23.7612 34.3066 24.0166C34.5657 24.2142 34.9168 24.5164 35.1992 24.9014L35.2002 24.9004C35.5614 25.3821 35.8286 25.9336 35.9697 26.2158C36.0656 26.4076 36.1304 26.5329 36.1758 26.6162L36.2676 26.7676L36.3828 26.9209L36.4727 27.0908C36.7793 27.6655 37.2956 28.2228 38.0498 28.8213C38.848 29.4545 39.6364 29.9337 40.6152 30.6055C40.9547 30.8384 41.2677 31.0659 41.5537 31.2783C42.4843 29.0364 43 26.5786 43 24C43 16.8062 39.0017 10.5469 33.1064 7.32129L32.707 7.69531ZM29.9258 27.5596L29.9121 27.5605C29.2194 27.61 28.7699 27.7456 28.4297 27.9482C28.1063 28.1409 27.7009 28.5018 27.2764 29.3037L27.25 29.3535L27.2217 29.4014C27.0799 29.6426 26.9717 29.9907 27.3252 30.8018C27.7146 31.6948 28.5385 32.8069 29.8105 34.1426C30.5638 34.9014 31.1623 35.6521 31.6758 36.2939C32.7767 37.654 33.536 38.9319 34.0615 40.1182C35.9687 38.9251 37.6487 37.4035 39.0225 35.6318C38.6437 35.3427 38.2436 35.0425 37.7861 34.7285C37.0653 34.2338 35.9189 33.513 34.9424 32.7383C33.9617 31.9602 32.9077 30.9498 32.1523 29.6074C31.8495 29.1688 31.6239 28.7039 31.498 28.4521C31.3641 28.1844 31.2881 28.0477 31.2432 27.9717C31.1716 27.9202 31.0628 27.8499 30.9238 27.7822C30.59 27.6198 30.2363 27.5358 29.9258 27.5596ZM24 5C17.1459 5 11.1397 8.62954 7.79785 14.0713L8.33203 15.2041C8.48694 15.4428 8.80383 15.7033 9.36914 15.9316C9.9543 16.168 10.5421 16.2669 10.9443 16.334C12.4594 16.5865 15.5862 16.9418 17.8486 20.0762C18.3377 20.7009 18.6928 20.81 18.7822 20.8291L18.8447 20.7881L18.9482 20.7324C19.2721 20.558 19.9258 19.6379 19.4756 18.0684C19.3682 17.7576 19.1594 17.2323 18.9072 16.6016C18.2621 15.2664 17.8743 13.673 18.0371 12.0996C18.0609 11.5037 18.2269 10.5947 18.9902 9.87109C19.8491 9.0571 20.8706 9.03708 21.3418 9.07129C21.8206 9.10613 22.2641 9.23674 22.4609 9.29395L22.8906 9.41504L22.9268 9.42285L22.9619 9.43066C23.9108 9.64964 24.5573 9.76091 25.0498 9.66406C25.2308 9.62841 25.3374 9.57076 25.4258 9.49219C25.5199 9.40851 25.717 9.19026 25.9043 8.64941L25.9121 8.62598L25.9209 8.60254C26.3931 7.32088 27.0866 6.26097 27.8584 5.3916C26.6125 5.13461 25.322 5 24 5Z" fill="#081E40"/>
</svg>
