<svg width="48" height="48" viewBox="0 0 48 48" fill="none" xmlns="http://www.w3.org/2000/svg">
<path fill-rule="evenodd" clip-rule="evenodd" d="M33.5 7L33.5 10.9645L42.2322 2.23223C43.2085 1.25592 44.7915 1.25592 45.7678 2.23223C46.7441 3.20854 46.7441 4.79146 45.7678 5.76777L37.0355 14.5L41 14.5C42.3807 14.5 43.5 15.6193 43.5 17C43.5 18.3807 42.3807 19.5 41 19.5L31.5 19.5C29.8431 19.5 28.5 18.1569 28.5 16.5L28.5 7C28.5 5.61929 29.6193 4.5 31 4.5C32.3807 4.5 33.5 5.61929 33.5 7ZM5.76777 2.23223L14.5 10.9645V7C14.5 5.61929 15.6193 4.5 17 4.5C18.3807 4.5 19.5 5.61929 19.5 7V16.5C19.5 18.1569 18.1569 19.5 16.5 19.5H7C5.61929 19.5 4.5 18.3807 4.5 17C4.5 15.6193 5.61929 14.5 7 14.5H10.9645L2.23223 5.76777C1.25592 4.79146 1.25592 3.20854 2.23223 2.23223C3.20854 1.25592 4.79146 1.25592 5.76777 2.23223ZM19.5 31.5C19.5 29.8431 18.1569 28.5 16.5 28.5H7C5.61929 28.5 4.5 29.6193 4.5 31C4.5 32.3807 5.61929 33.5 7 33.5H10.9645L2.23223 42.2322C1.25592 43.2085 1.25592 44.7915 2.23223 45.7678C3.20854 46.7441 4.79146 46.7441 5.76777 45.7678L14.5 37.0355V41C14.5 42.3807 15.6193 43.5 17 43.5C18.3807 43.5 19.5 42.3807 19.5 41V31.5ZM28.5 31.5C28.5 29.8431 29.8431 28.5 31.5 28.5L41 28.5C42.3807 28.5 43.5 29.6193 43.5 31C43.5 32.3807 42.3807 33.5 41 33.5H37.0355L45.7678 42.2322C46.7441 43.2085 46.7441 44.7915 45.7678 45.7678C44.7915 46.7441 43.2085 46.7441 42.2322 45.7678L33.5 37.0355L33.5 41C33.5 42.3807 32.3807 43.5 31 43.5C29.6193 43.5 28.5 42.3807 28.5 41L28.5 31.5Z" fill="#081E40"/>
</svg>
