<svg width="48" height="48" viewBox="0 0 48 48" fill="none" xmlns="http://www.w3.org/2000/svg">
<path d="M3.24841 26.0703C3.42843 25.5372 4.03377 25.2894 4.52963 25.5458L10.5826 28.6757C11.2801 29.0364 11.2356 30.0593 10.5095 30.3566L2.25907 33.7345C1.53302 34.0318 0.797782 33.3281 1.05097 32.5782L3.24841 26.0703Z" fill="#081E40"/>
<path fill-rule="evenodd" clip-rule="evenodd" d="M42.8654 25.3223C44.1209 25.4543 45.0329 26.591 44.9024 27.8611C44.2835 33.8852 39.3919 44.2677 27.6787 45.7673C20.7447 46.655 15.4488 44.9226 11.4839 41.9353C7.58268 38.9961 5.13032 34.9658 3.57508 31.4774C3.0561 30.3134 3.56817 28.9441 4.71881 28.419C5.86944 27.894 7.22294 28.412 7.74192 29.5761C9.12238 32.6724 11.1673 35.9309 14.2142 38.2265C17.1973 40.4741 21.3002 41.9227 27.1048 41.1795C35.9694 40.0446 39.8685 32.1263 40.3559 27.383C40.4864 26.1129 41.61 25.1903 42.8654 25.3223Z" fill="#081E40"/>
<path d="M44.7516 22.0975C44.5716 22.6306 43.9662 22.8785 43.4704 22.6221L37.4174 19.4921C36.72 19.1314 36.7645 18.1085 37.4905 17.8112L45.7409 14.4333C46.467 14.136 47.2022 14.8397 46.949 15.5896L44.7516 22.0975Z" fill="#081E40"/>
<path fill-rule="evenodd" clip-rule="evenodd" d="M5.27623 22.6777C4.02073 22.5457 3.10874 21.409 3.23924 20.1389C3.85819 14.1148 8.74976 3.73228 20.463 2.2327C27.397 1.34498 32.6929 3.07736 36.6578 6.06466C40.559 9.00394 43.0114 13.0342 44.5666 16.5226C45.0856 17.6866 44.5735 19.0559 43.4229 19.581C42.2722 20.106 40.9187 19.588 40.3998 18.4239C39.0193 15.3275 36.9744 12.0691 33.9275 9.77349C30.9444 7.52593 26.8415 6.07734 21.0369 6.82048C12.1723 7.95536 8.27316 15.8737 7.7858 20.617C7.6553 21.8871 6.53173 22.8097 5.27623 22.6777Z" fill="#081E40"/>
</svg>
