<svg width="48" height="48" viewBox="0 0 48 48" fill="none" xmlns="http://www.w3.org/2000/svg">
<path fill-rule="evenodd" clip-rule="evenodd" d="M6 7.5C6 6.94771 6.44772 6.5 7 6.5H16C16.5523 6.5 17 6.94772 17 7.5V16.5C17 17.0523 16.5523 17.5 16 17.5H7C6.44771 17.5 6 17.0523 6 16.5V7.5ZM1 3.5C1 2.39543 1.89543 1.5 3 1.5H20C21.1046 1.5 22 2.39543 22 3.5V20.5C22 21.6046 21.1046 22.5 20 22.5H3C1.89543 22.5 1 21.6046 1 20.5V3.5ZM31 7.5C31 6.94771 31.4477 6.5 32 6.5H41C41.5523 6.5 42 6.94772 42 7.5V16.5C42 17.0523 41.5523 17.5 41 17.5H32C31.4477 17.5 31 17.0523 31 16.5V7.5ZM26 3.5C26 2.39543 26.8954 1.5 28 1.5H45C46.1046 1.5 47 2.39543 47 3.5V20.5C47 21.6046 46.1046 22.5 45 22.5H28C26.8954 22.5 26 21.6046 26 20.5V3.5ZM7 30.5C6.44772 30.5 6 30.9477 6 31.5V40.5C6 41.0523 6.44771 41.5 7 41.5H16C16.5523 41.5 17 41.0523 17 40.5V31.5C17 30.9477 16.5523 30.5 16 30.5H7ZM3 25.5C1.89543 25.5 1 26.3954 1 27.5V44.5C1 45.6046 1.89543 46.5 3 46.5H20C21.1046 46.5 22 45.6046 22 44.5V27.5C22 26.3954 21.1046 25.5 20 25.5H3ZM31 31.5C31 30.9477 31.4477 30.5 32 30.5H41C41.5523 30.5 42 30.9477 42 31.5V40.5C42 41.0523 41.5523 41.5 41 41.5H32C31.4477 41.5 31 41.0523 31 40.5V31.5ZM26 27.5C26 26.3954 26.8954 25.5 28 25.5H45C46.1046 25.5 47 26.3954 47 27.5V44.5C47 45.6046 46.1046 46.5 45 46.5H28C26.8954 46.5 26 45.6046 26 44.5V27.5Z" fill="#081E40"/>
</svg>
