<svg width="48" height="48" viewBox="0 0 48 48" fill="none" xmlns="http://www.w3.org/2000/svg">
<path d="M30.3389 19C32.7352 19 34.6785 20.9426 34.6787 23.3389L34.6729 23.5625C34.5861 25.2739 33.5069 26.7225 32 27.3477V34.165C33.2385 33.6717 34.6573 33.5656 35.7598 33.4697C37.2383 33.3412 38.282 33.2249 38.999 32.8301C39.5297 32.5377 39.8472 32.0215 39.9561 31.4512C38.3055 30.896 37.0978 29.3772 37.0059 27.5625L37 27.3389C37.0002 24.9426 38.9435 23 41.3398 23C43.736 23.0003 45.6785 24.9427 45.6787 27.3389C45.6787 29.1518 44.5664 30.7045 42.9873 31.3535C42.9256 32.2592 42.6238 32.7838 42.2295 33.5234C41.7783 34.3696 41.128 34.9602 40.3945 35.3643C39.0326 36.1142 37.3041 36.2391 36.0107 36.3516C34.5321 36.4801 33.4876 36.5964 32.7705 36.9912C32.4931 37.144 32.2899 37.3306 32.1387 37.5811C33.8073 38.1856 34.9998 39.7839 35 41.6611C34.9999 43.9827 33.1765 45.879 30.8838 45.9951L30.6611 46.001C28.3396 46.0009 26.4434 44.1774 26.3271 41.8848L26.3213 41.6611C26.3215 39.8532 27.4277 38.3034 29 37.6514V27.4658C27.2592 26.9012 26 25.2678 26 23.3389C26.0002 20.9427 27.9427 19.0002 30.3389 19ZM23 2C34.0113 2 43.0411 10.475 43.9268 21.2578C43.147 20.9755 42.3059 20.8213 41.4287 20.8213C40.8973 20.8213 40.3791 20.8778 39.8799 20.9854C39.2643 15.7725 36.2919 11.2819 32.0557 8.61035C32.0242 8.66053 31.9929 8.71152 31.9609 8.7627C30.9919 10.3127 29.8129 12.2718 28.9072 14.002C28.955 14.1553 29.0702 14.3753 29.3643 14.8486C29.5197 15.0989 29.791 15.4973 30.0361 16.0068C28.6039 16.0651 27.2781 16.5341 26.1719 17.2988C26.1125 17.1986 26.045 17.0859 25.9668 16.96C25.5192 16.2395 24.2139 14.3485 25.3389 12.1934C26.2707 10.4082 27.4509 8.44027 28.4199 6.88281C26.7176 6.31059 24.8951 6 23 6C17.7456 6 13.0481 8.38381 9.92969 12.1289C9.93442 12.1392 9.93921 12.15 9.94434 12.1611C10.0167 12.318 10.1279 12.5515 10.2773 12.8379C10.578 13.4139 11.0233 14.1886 11.5977 14.9873C12.8016 16.6613 14.3243 18.0901 16.0049 18.4766C16.4416 18.577 16.7881 18.5076 17.6768 18.3389C18.5043 18.1817 19.7903 17.9578 21.2461 18.5938C22.5277 19.1536 23.1382 20.1862 23.4121 20.5947C23.44 20.6363 23.4661 20.672 23.4883 20.7041C23.1735 21.522 23.0001 22.4101 23 23.3389C23 23.8823 23.0599 24.4115 23.1719 24.9209C22.9684 24.8858 22.7612 24.8424 22.5518 24.7812C21.1111 24.3607 20.4353 23.3367 20.0898 22.8213C19.7134 22.2597 19.6915 22.2793 19.6445 22.2588C19.3784 22.1426 19.1458 22.1313 18.4229 22.2686C17.7605 22.3943 16.5231 22.7003 15.1084 22.375C11.9753 21.6546 9.7199 19.2277 8.34961 17.3223C8.02806 16.8751 7.74251 16.4364 7.49121 16.0264C6.53293 18.1542 6 20.5149 6 23C6 31.818 12.7139 39.067 21.3086 39.916C21.3475 39.8404 21.4015 39.7363 21.4648 39.6084C21.6098 39.3155 21.8066 38.9039 22.0107 38.4326C22.4397 37.4424 22.8249 36.3643 22.9346 35.582C22.9808 35.2524 22.9323 35.03 22.8291 34.3506C22.7299 33.6975 22.6185 32.738 23.04 31.6035C23.4597 30.4742 24.1791 29.3589 25.1338 28.5088C25.2993 28.6754 25.4716 28.8352 25.6523 28.9854V36.0146C24.0339 37.3595 23 39.3885 23 41.6621L23.0098 42.04C23.0443 42.7205 23.1733 43.376 23.3809 43.9951C23.2542 43.9974 23.1272 44 23 44C11.402 44 2 34.598 2 23C2 11.402 11.402 2 23 2ZM30.6611 40.2148C29.8626 40.2149 29.2151 40.8626 29.2148 41.6611C29.215 42.4598 29.8625 43.1074 30.6611 43.1074C31.4596 43.1072 32.1073 42.4596 32.1074 41.6611C32.1072 40.8627 31.4596 40.2151 30.6611 40.2148ZM41.3398 25.8926C40.5412 25.8926 39.8938 26.5403 39.8936 27.3389C39.8936 28.1376 40.5411 28.7852 41.3398 28.7852C42.1384 28.7849 42.7861 28.1374 42.7861 27.3389C42.7859 26.5405 42.1382 25.8928 41.3398 25.8926ZM30.3389 21.8926C29.5404 21.8928 28.8928 22.5404 28.8926 23.3389C28.8926 24.1375 29.5403 24.7849 30.3389 24.7852C31.1376 24.7851 31.7851 24.1376 31.7852 23.3389C31.7849 22.5403 31.1375 21.8926 30.3389 21.8926Z" fill="#081E40"/>
</svg>
