<svg width="48" height="48" viewBox="0 0 48 48" fill="none" xmlns="http://www.w3.org/2000/svg">
<path d="M24.3457 1.25C28.2106 1.25 31.8148 3.20128 33.9277 6.4375L34.0938 6.69141C34.8481 7.84741 34.523 9.39661 33.3672 10.1514C32.2111 10.9062 30.6611 10.5809 29.9062 9.4248L29.7412 9.1709C28.5515 7.34873 26.5219 6.25 24.3457 6.25C23.1808 6.25006 22.0377 6.56598 21.0381 7.16406L20.627 7.41016C19.6333 8.00468 18.777 8.80372 18.1152 9.75391L18.0547 9.83984C17.0424 11.2934 16.5001 13.0226 16.5 14.7939V16.75H42C44.2091 16.75 46 18.5409 46 20.75V42.75C46 44.89 44.3194 46.6379 42.2061 46.7451L42 46.75H6L5.79395 46.7451C3.7488 46.6413 2.10865 45.0012 2.00488 42.9561L2 42.75V20.75C2 18.5409 3.79086 16.75 6 16.75H11.5V14.7939C11.5001 12.0009 12.3559 9.27444 13.9521 6.98242L14.0127 6.89648C15.0791 5.3652 16.4583 4.07724 18.0596 3.11914L18.4707 2.87305C20.2462 1.81079 22.2767 1.25006 24.3457 1.25ZM7 40.75C7 41.3023 7.44772 41.75 8 41.75H40C40.5523 41.75 41 41.3023 41 40.75V22.75C41 22.1977 40.5523 21.75 40 21.75H8C7.44772 21.75 7 22.1977 7 22.75V40.75ZM24 25.4932C25.6372 25.4932 26.9647 26.8199 26.9648 28.457V35.8691C26.9648 37.5064 25.6373 38.8339 24 38.834C22.3626 38.834 21.0352 37.5065 21.0352 35.8691V28.457C21.0353 26.8198 22.3628 25.4932 24 25.4932Z" fill="#081E40"/>
</svg>
