<svg width="48" height="48" viewBox="0 0 48 48" fill="none" xmlns="http://www.w3.org/2000/svg">
<path d="M42 2.5C43.3807 2.5 44.5 3.61929 44.5 5C44.5 6.38071 43.3807 7.5 42 7.5L11.2607 7.5L26.7217 22.1875C26.7295 22.195 26.7364 22.2034 26.7441 22.2109C26.7517 22.2183 26.7601 22.2249 26.7676 22.2324C26.7892 22.254 26.8085 22.2776 26.8291 22.2998C26.8591 22.3321 26.889 22.364 26.917 22.3975C26.9462 22.4324 26.973 22.4688 27 22.5049C27.0224 22.5348 27.0455 22.564 27.0664 22.5947C27.0901 22.6294 27.1111 22.6656 27.1328 22.7012C27.1555 22.7385 27.1786 22.7753 27.1992 22.8135C27.2153 22.8433 27.2293 22.874 27.2441 22.9043C27.2656 22.9483 27.2869 22.9921 27.3057 23.0371C27.3188 23.0687 27.33 23.1008 27.3418 23.1328C27.3567 23.1731 27.372 23.213 27.3848 23.2539C27.3978 23.2955 27.4082 23.3377 27.4189 23.3799C27.4286 23.4176 27.4384 23.4551 27.4463 23.4932C27.4538 23.5298 27.4589 23.5667 27.4648 23.6035C27.4716 23.6458 27.4788 23.6879 27.4834 23.7305C27.4875 23.7688 27.4898 23.8072 27.4922 23.8457C27.4947 23.8861 27.4975 23.9264 27.498 23.9668C27.4985 24.0043 27.4963 24.0416 27.4951 24.0791C27.4937 24.1244 27.4931 24.1697 27.4893 24.2148C27.4866 24.2459 27.4814 24.2766 27.4775 24.3076C27.4717 24.3546 27.4665 24.4016 27.458 24.4482C27.4504 24.4902 27.4404 24.5316 27.4307 24.5732C27.4229 24.6062 27.4154 24.6392 27.4062 24.6719C27.3933 24.7183 27.3779 24.7638 27.3623 24.8096C27.3507 24.8435 27.3393 24.8776 27.3262 24.9111C27.3127 24.9455 27.2972 24.9789 27.2822 25.0127C27.2644 25.0528 27.2476 25.0935 27.2275 25.1328C27.2053 25.1766 27.1803 25.219 27.1553 25.2617C27.1402 25.2875 27.1255 25.3135 27.1094 25.3389C27.0827 25.3808 27.0538 25.4213 27.0244 25.4619C27.0033 25.491 26.9825 25.5204 26.96 25.5488C26.9318 25.5843 26.9014 25.6181 26.8711 25.6523C26.8511 25.6749 26.8334 25.6997 26.8125 25.7217C26.8049 25.7297 26.7958 25.7363 26.7881 25.7441C26.7809 25.7516 26.7749 25.7602 26.7676 25.7676L11.0352 41.5H42C43.3807 41.5 44.5 42.6193 44.5 44C44.5 45.3807 43.3807 46.5 42 46.5H5C4.91946 46.5 4.83903 46.495 4.75879 46.4873C4.70675 46.4823 4.65555 46.4739 4.60449 46.4658C4.57389 46.4609 4.54313 46.4572 4.5127 46.4512C4.47442 46.4436 4.43704 46.4331 4.39941 46.4238C4.35606 46.4131 4.31238 46.4037 4.26953 46.3906C4.23912 46.3813 4.20959 46.3698 4.17969 46.3594C4.13285 46.3431 4.08604 46.3267 4.04004 46.3076C4.00985 46.295 3.98075 46.2803 3.95117 46.2666C3.90674 46.246 3.86177 46.2264 3.81836 46.2031C3.78886 46.1873 3.7612 46.1684 3.73242 46.1514C3.69192 46.1275 3.65072 46.1045 3.61133 46.0781C3.58516 46.0606 3.56061 46.0409 3.53516 46.0225C3.4298 45.946 3.32741 45.8626 3.23242 45.7676C3.1371 45.6723 3.05327 45.5696 2.97656 45.4639C2.95811 45.4384 2.9384 45.4139 2.9209 45.3877C2.89454 45.3483 2.87154 45.3071 2.84766 45.2666C2.83068 45.2378 2.81174 45.2102 2.7959 45.1807C2.77262 45.1373 2.75295 45.0923 2.73242 45.0479C2.71873 45.0183 2.70396 44.9892 2.69141 44.959C2.67232 44.913 2.65587 44.8662 2.63965 44.8193C2.62927 44.7894 2.61766 44.7599 2.6084 44.7295C2.59537 44.6867 2.58587 44.643 2.5752 44.5996C2.56593 44.562 2.5554 44.5246 2.54785 44.4863C2.54185 44.4559 2.53807 44.4251 2.5332 44.3945C2.51279 44.2659 2.5 44.1344 2.5 44C2.5 43.8653 2.51269 43.7334 2.5332 43.6045C2.53808 43.5739 2.54183 43.5431 2.54785 43.5127C2.55541 43.4744 2.56591 43.437 2.5752 43.3994C2.58589 43.3561 2.59536 43.3124 2.6084 43.2695C2.61767 43.2391 2.62926 43.2096 2.63965 43.1797C2.65588 43.1329 2.67231 43.086 2.69141 43.04C2.70397 43.0099 2.71872 42.9807 2.73242 42.9512C2.75296 42.9068 2.77261 42.8618 2.7959 42.8184C2.81174 42.7889 2.83068 42.7612 2.84766 42.7324C2.87154 42.6919 2.89453 42.6507 2.9209 42.6113C2.93841 42.5852 2.95811 42.5606 2.97656 42.5352C3.05315 42.4296 3.13729 42.3275 3.23242 42.2324L21.418 24.0459L3.27832 6.8125C3.27016 6.80474 3.26292 6.79592 3.25488 6.78809C3.22569 6.75959 3.19867 6.7291 3.1709 6.69922C3.14058 6.66665 3.10932 6.63534 3.08105 6.60156C3.05872 6.57483 3.0388 6.54622 3.01758 6.51855C2.9904 6.48316 2.96254 6.4486 2.9375 6.41211C2.91467 6.37883 2.89428 6.34398 2.87305 6.30957C2.85081 6.27351 2.82786 6.2381 2.80762 6.20117C2.79116 6.17121 2.77696 6.14007 2.76172 6.10938C2.74129 6.06815 2.72017 6.02743 2.70215 5.98535C2.68612 5.94802 2.67342 5.90934 2.65918 5.87109C2.64528 5.83365 2.63022 5.79674 2.61816 5.75879C2.60569 5.71959 2.59553 5.67966 2.58496 5.63965C2.57467 5.60065 2.56404 5.56183 2.55566 5.52246C2.54683 5.48093 2.54092 5.43876 2.53418 5.39648C2.52819 5.35903 2.52089 5.32183 2.5166 5.28418C2.51185 5.24221 2.51046 5.1998 2.50781 5.15723C2.50519 5.11555 2.50152 5.07398 2.50098 5.03223C2.50084 5.0215 2.5 5.01076 2.5 5C2.5 4.97384 2.50213 4.94784 2.50293 4.92188C2.50437 4.87526 2.5067 4.82873 2.51074 4.78223C2.51411 4.74316 2.51927 4.70454 2.52441 4.66602C2.52993 4.62491 2.53541 4.58382 2.54297 4.54297C2.55094 4.49982 2.56113 4.45738 2.57129 4.41504C2.57966 4.38013 2.58776 4.34515 2.59766 4.31055C2.61061 4.26534 2.62523 4.22088 2.64062 4.17676C2.65203 4.14401 2.66395 4.11145 2.67676 4.0791C2.69251 4.03941 2.70985 4.00058 2.72754 3.96191C2.74505 3.92359 2.76267 3.88526 2.78223 3.84766C2.79949 3.8145 2.81823 3.78227 2.83691 3.75C2.85859 3.71257 2.88051 3.67519 2.9043 3.63867C2.92566 3.60586 2.94787 3.57372 2.9707 3.54199C2.9964 3.50632 3.02297 3.47112 3.05078 3.43652C3.07524 3.40607 3.10112 3.37692 3.12695 3.34766C3.14719 3.32475 3.16628 3.30066 3.1875 3.27832C3.19508 3.27034 3.20328 3.26274 3.21094 3.25488C3.23942 3.22569 3.26994 3.19868 3.2998 3.1709C3.33236 3.14058 3.3637 3.10932 3.39746 3.08105C3.42418 3.05872 3.45282 3.0388 3.48047 3.01758C3.51079 2.99427 3.54015 2.96997 3.57129 2.94824L3.60254 2.92676C3.63075 2.90771 3.66044 2.89096 3.68945 2.87305C3.7255 2.8508 3.76094 2.82787 3.79785 2.80762C3.8315 2.78913 3.8668 2.7738 3.90137 2.75684C3.93439 2.74067 3.96642 2.72264 4 2.70801L4.02734 2.69629C4.06598 2.67996 4.10591 2.66676 4.14551 2.65234C4.17614 2.64122 4.20633 2.62903 4.2373 2.61914C4.27999 2.60548 4.32353 2.59441 4.36719 2.58301C4.4036 2.57351 4.43982 2.5635 4.47656 2.55566C4.51809 2.54681 4.56027 2.54094 4.60254 2.53418C4.63999 2.52817 4.6772 2.52091 4.71484 2.5166C4.75681 2.51184 4.79922 2.51047 4.8418 2.50781C4.88347 2.50518 4.92504 2.50154 4.9668 2.50098C4.97785 2.50083 4.98891 2.5 5 2.5L42 2.5Z" fill="#081E40"/>
</svg>
