<svg width="48" height="48" viewBox="0 0 48 48" fill="none" xmlns="http://www.w3.org/2000/svg">
<path fill-rule="evenodd" clip-rule="evenodd" d="M23.9993 7.49583C20.2093 3.52941 14.1656 2.58274 9.32587 4.23425C6.31759 5.26079 3.58726 7.32807 1.97823 10.4721C0.36357 13.6272 0.0121337 17.6007 1.26627 22.199L1.28831 22.2798L1.3157 22.3589C6.19704 36.461 19.7718 42.791 23.9422 44.3549C24.2284 44.4622 24.5219 44.5137 24.8107 44.5147C25.1874 44.571 25.5827 44.5417 25.9687 44.413C26.9325 44.0918 27.8376 43.6316 28.5628 43.2361C28.9298 43.0359 29.2185 42.8719 29.4659 42.7313L29.466 42.7313L29.466 42.7312L29.4662 42.7311C29.7849 42.5501 30.0352 42.4079 30.2962 42.2774C31.5311 41.6599 32.0317 40.1582 31.4142 38.9233C30.7968 37.6883 29.2951 37.1878 28.0601 37.8053C27.7118 37.9794 27.2437 38.2435 26.8117 38.4872C26.5786 38.6187 26.3561 38.7443 26.1685 38.8466C25.7706 39.0636 25.3932 39.2565 25.0373 39.4144C20.679 37.6391 9.995 32.0281 6.06835 20.8031C5.09999 17.1927 5.49949 14.5667 6.42922 12.75C7.37146 10.9089 8.99372 9.63069 10.9406 8.96633C15.004 7.57975 19.7207 9.01922 21.5974 12.6596C22.0702 13.5766 23.0315 14.0775 23.9993 14.0082C24.9671 14.0775 25.9284 13.5766 26.4011 12.6596C28.2779 9.01922 32.9945 7.57975 37.0579 8.96633C39.0048 9.63069 40.6271 10.9089 41.5693 12.75C42.5059 14.5802 42.9044 17.2317 41.9085 20.8834C41.5452 22.2154 42.3305 23.5898 43.6625 23.9531C44.9946 24.3164 46.369 23.5311 46.7323 22.199C47.9864 17.6007 47.635 13.6272 46.0203 10.4721C44.4113 7.32807 41.6809 5.26079 38.6727 4.23425C33.8329 2.58274 27.7893 3.52941 23.9993 7.49583ZM46.6782 31.0413C46.6782 32.422 45.5589 33.5413 44.1782 33.5413H39.6782V38.0413C39.6782 39.422 38.5589 40.5413 37.1782 40.5413C35.7975 40.5413 34.6782 39.422 34.6782 38.0413V33.5413H30.1782C28.7975 33.5413 27.6782 32.422 27.6782 31.0413C27.6782 29.6605 28.7975 28.5413 30.1782 28.5413H34.6782V24.0413C34.6782 22.6605 35.7975 21.5413 37.1782 21.5413C38.5589 21.5413 39.6782 22.6605 39.6782 24.0413V28.5413H44.1782C45.5589 28.5413 46.6782 29.6605 46.6782 31.0413Z" fill="#081E40"/>
</svg>
