<svg width="48" height="40" viewBox="0 0 48 40" fill="none" xmlns="http://www.w3.org/2000/svg">
<path d="M5 33C5 34.1046 5.89543 35 7 35H41C42.1046 35 43 34.1046 43 33V7C43 5.89543 42.1046 5 41 5H7C5.89543 5 5 5.89543 5 7V33ZM48 36L47.9951 36.2061C47.8913 38.2512 46.2512 39.8913 44.2061 39.9951L44 40H4L3.79395 39.9951C1.7488 39.8913 0.108652 38.2512 0.00488281 36.2061L0 36V4C5.15413e-07 1.79086 1.79086 6.44256e-08 4 0H44C46.2091 0 48 1.79086 48 4V36Z" fill="#081E40"/>
<path d="M9 12C9 11.4477 9.44772 11 10 11H14C14.5523 11 15 11.4477 15 12V30C15 30.5523 14.5523 31 14 31H10C9.44772 31 9 30.5523 9 30V12Z" fill="#081E40"/>
<path d="M19 20C19 19.4477 19.4477 19 20 19H24C24.5523 19 25 19.4477 25 20V30C25 30.5523 24.5523 31 24 31H20C19.4477 31 19 30.5523 19 30V20Z" fill="#081E40"/>
<path d="M33.5716 8.71186C33.7659 8.38895 34.2341 8.38895 34.4284 8.71186L35.8657 11.1002C35.9355 11.2162 36.0494 11.2989 36.1813 11.3295L38.8969 11.9584C39.2641 12.0435 39.4088 12.4887 39.1617 12.7733L37.3344 14.8783C37.2457 14.9806 37.2022 15.1144 37.2139 15.2493L37.4549 18.0264C37.4875 18.4018 37.1087 18.677 36.7617 18.53L34.195 17.4426C34.0704 17.3898 33.9296 17.3898 33.805 17.4426L31.2383 18.53C30.8913 18.677 30.5125 18.4018 30.5451 18.0264L30.7861 15.2493C30.7978 15.1144 30.7543 14.9806 30.6656 14.8783L28.8383 12.7733C28.5912 12.4887 28.7359 12.0435 29.1031 11.9584L31.8187 11.3295C31.9506 11.2989 32.0645 11.2162 32.1343 11.1002L33.5716 8.71186Z" fill="#081E40"/>
</svg>
