<svg width="48" height="48" viewBox="0 0 48 48" fill="none" xmlns="http://www.w3.org/2000/svg">
<path fill-rule="evenodd" clip-rule="evenodd" d="M6 2C3.79086 2 2 3.79086 2 6V42C2 44.2091 3.79086 46 6 46H43.5C44.8807 46 46 44.8807 46 43.5C46 42.1193 44.8807 41 43.5 41H9C7.89543 41 7 40.1046 7 39V9C7 7.89543 7.89543 7 9 7H39C40.1046 7 41 7.89543 41 9V28.6429C41 30.0236 42.1193 31.1429 43.5 31.1429C44.8807 31.1429 46 30.0236 46 28.6429V6C46 3.79086 44.2091 2 42 2H6ZM25.9251 18.8859C25.151 17.7994 23.5503 17.761 22.725 18.8091L19.0428 23.4848C18.834 23.7499 18.4279 23.7363 18.2374 23.4578L14.5635 18.0883C13.7838 16.9488 12.228 16.6571 11.0885 17.4368C9.94902 18.2164 9.6573 19.7722 10.437 20.9117L16.8013 30.2135C17.5636 31.3276 19.188 31.3821 20.0232 30.3215L23.7633 25.5721C23.9697 25.3101 24.3698 25.3197 24.5634 25.5913L27.8997 30.2739C28.7065 31.4063 30.394 31.3902 31.1792 30.2427L37.5635 20.9117C38.3432 19.7722 38.0515 18.2164 36.9119 17.4368C35.7724 16.6571 34.2166 16.9488 33.437 18.0883L29.8831 23.2825C29.6868 23.5694 29.2649 23.5734 29.0632 23.2903L25.9251 18.8859Z" fill="#081E40"/>
</svg>
