<svg width="48" height="48" viewBox="0 0 48 48" fill="none" xmlns="http://www.w3.org/2000/svg">
<path fill-rule="evenodd" clip-rule="evenodd" d="M39.047 16.7945L39.0425 16.799L35.1534 20.6881C34.1771 21.6644 34.1771 23.2473 35.1534 24.2236C36.1297 25.2 37.7126 25.2 38.6889 24.2236L42.578 20.3346L42.5848 20.3278L42.6037 20.3089L42.6037 20.3089C46.8738 16.0111 46.8652 9.06543 42.578 4.77822C38.2823 0.482455 31.3174 0.482455 27.0217 4.77822L27.0217 4.77827L19.9507 11.8493L19.9506 11.8493L19.9223 11.8777L19.9198 11.8802C15.0904 16.7435 15.0453 24.8039 20.6699 29C21.7765 29.8257 23.343 29.5978 24.1686 28.4911C24.9942 27.3845 24.7663 25.818 23.6597 24.9924C20.3956 22.5573 20.8483 18.0449 23.4646 15.4065L30.5771 8.29393C32.9218 5.97063 36.706 5.97724 39.0425 8.31376C41.3841 10.6554 41.3856 14.451 39.047 16.7945ZM24.5139 32.6153L17.4429 39.6863L17.4428 39.6863C15.0997 42.0294 11.3007 42.0294 8.95755 39.6863C6.61576 37.3445 6.61441 33.5486 8.95349 31.2051L8.95755 31.201L12.8466 27.3119C13.823 26.3356 13.823 24.7527 12.8466 23.7764C11.8703 22.8001 10.2874 22.8001 9.31111 23.7764L5.42202 27.6655L5.41652 27.671L5.39122 27.6963L5.39128 27.6963C1.12628 31.9945 1.13652 38.9363 5.42202 43.2218C9.70753 47.5073 16.6493 47.5176 20.9475 43.2525L20.9476 43.2526L28.0495 36.1508L28.0495 36.1507C32.9094 31.2907 32.7768 23.205 27.1403 19C26.0336 18.1744 24.4672 18.4022 23.6415 19.5089C22.8159 20.6156 23.0438 22.182 24.1504 23.0076C27.4235 25.4494 27.1492 29.9799 24.5139 32.6152L24.5139 32.6153Z" fill="#081E40"/>
</svg>
