<svg width="48" height="48" viewBox="0 0 48 48" fill="none" xmlns="http://www.w3.org/2000/svg">
<g clip-path="url(#clip0_5540_2603)">
<path fill-rule="evenodd" clip-rule="evenodd" d="M0 8C0 5.79086 1.79086 4 4 4H28C30.2091 4 32 5.79086 32 8V9.77273C32 11.1534 30.8807 12.2727 29.5 12.2727C28.1193 12.2727 27 11.1534 27 9.77273C27 9.34596 26.654 9 26.2273 9H7C5.89543 9 5 9.89543 5 11V25C5 26.1046 5.89543 27 7 27H26.0963C26.6138 27 27.0271 26.5892 27.2556 26.1248C27.663 25.297 28.515 24.7273 29.5 24.7273C30.8807 24.7273 32 25.8466 32 27.2273V28C32 30.2091 30.2091 32 28 32H4C1.79086 32 0 30.2091 0 28V8Z" fill="#081E40"/>
<path fill-rule="evenodd" clip-rule="evenodd" d="M48 20C48 17.7909 46.2091 16 44 16H20C17.7909 16 16 17.7909 16 20V21.7727C16 23.1534 17.1193 24.2727 18.5 24.2727C19.8807 24.2727 21 23.1534 21 21.7727C21 21.346 21.346 21 21.7727 21H41C42.1046 21 43 21.8954 43 23V37C43 38.1046 42.1046 39 41 39H21.9037C21.3862 39 20.9729 38.5892 20.7444 38.1248C20.337 37.297 19.485 36.7273 18.5 36.7273C17.1193 36.7273 16 37.8466 16 39.2273V40C16 42.2091 17.7909 44 20 44H44C46.2091 44 48 42.2091 48 40V20Z" fill="#081E40"/>
</g>
<defs>
<clipPath id="clip0_5540_2603">
<rect width="48" height="48" fill="white"/>
</clipPath>
</defs>
</svg>
