<svg width="48" height="48" viewBox="0 0 48 48" fill="none" xmlns="http://www.w3.org/2000/svg">
<rect width="48" height="48" fill="white"/>
<path d="M42 0C43.6569 5.79839e-07 45 1.34315 45 3V45C45 46.6569 43.6569 48 42 48H6C4.34315 48 3 46.6569 3 45L3 3C3 1.34315 4.34315 7.24799e-08 6 0L42 0ZM10 5C8.89543 5 8 5.89543 8 7L8 41C8 42.1046 8.89543 43 10 43H38C39.1046 43 40 42.1046 40 41V7C40 5.89543 39.1046 5 38 5L10 5ZM23.5 9C27.9183 9 31.5 12.5817 31.5 17C31.5 21.4183 27.9183 25 23.5 25C23.3376 25 23.1766 24.9929 23.0166 24.9834C22.7821 25.1628 22.5137 25.3062 22.2139 25.3955C18.3472 26.5477 15 31.0571 15 37C15 38.3807 13.8807 39.5 12.5 39.5C11.1193 39.5 10 38.3807 10 37C10 30.8119 12.8568 25.1205 17.4004 22.1738C16.2159 20.7788 15.5 18.9734 15.5 17C15.5 12.5817 19.0817 9 23.5 9ZM28.001 26.5195C28.2761 26.4986 28.5 26.724 28.5 27V29C28.5 29.2761 28.2752 29.4967 28.002 29.5361C27.7135 29.5776 27.4304 29.6546 27.1602 29.7666C26.7357 29.9425 26.3503 30.2005 26.0254 30.5254C25.7005 30.8503 25.4425 31.2357 25.2666 31.6602C25.0907 32.0848 25 32.5404 25 33C25 33.4596 25.0907 33.9152 25.2666 34.3398C25.4425 34.7643 25.7005 35.1497 26.0254 35.4746C26.3503 35.7995 26.7357 36.0575 27.1602 36.2334C27.4304 36.3454 27.7135 36.4224 28.002 36.4639C28.2752 36.5033 28.5 36.7239 28.5 37V39C28.5 39.276 28.2761 39.5014 28.001 39.4805C27.3185 39.4278 26.6471 39.2677 26.0127 39.0049C25.2241 38.6782 24.5069 38.2003 23.9033 37.5967C23.2997 36.9931 22.8218 36.2759 22.4951 35.4873C22.1685 34.6987 22 33.8536 22 33C22 32.1464 22.1685 31.3013 22.4951 30.5127C22.8218 29.7241 23.2997 29.0069 23.9033 28.4033C24.5069 27.7997 25.2241 27.3218 26.0127 26.9951C26.6471 26.7323 27.3185 26.5722 28.001 26.5195ZM31.999 26.5195C32.6815 26.5722 33.3529 26.7323 33.9873 26.9951C34.7759 27.3218 35.4931 27.7997 36.0967 28.4033C36.7003 29.0069 37.1782 29.7241 37.5049 30.5127C37.8315 31.3013 38 32.1464 38 33C38 33.8536 37.8315 34.6987 37.5049 35.4873C37.1782 36.2759 36.7003 36.9931 36.0967 37.5967C35.4931 38.2003 34.7759 38.6782 33.9873 39.0049C33.3529 39.2677 32.6815 39.4278 31.999 39.4805C31.7239 39.5014 31.5 39.276 31.5 39V37C31.5 36.7239 31.7248 36.5033 31.998 36.4639C32.2865 36.4224 32.5696 36.3454 32.8398 36.2334C33.2643 36.0575 33.6497 35.7995 33.9746 35.4746C34.2995 35.1497 34.5575 34.7643 34.7334 34.3398C34.9093 33.9152 35 33.4596 35 33C35 32.5404 34.9093 32.0848 34.7334 31.6602C34.5575 31.2357 34.2995 30.8503 33.9746 30.5254C33.6497 30.2005 33.2643 29.9425 32.8398 29.7666C32.5696 29.6546 32.2865 29.5776 31.998 29.5361C31.7248 29.4967 31.5 29.2761 31.5 29V27C31.5 26.724 31.7239 26.4986 31.999 26.5195ZM32.5 31.5C33.3284 31.5 34 32.1716 34 33C34 33.8284 33.3284 34.5 32.5 34.5H27.5C26.6716 34.5 26 33.8284 26 33C26 32.1716 26.6716 31.5 27.5 31.5H32.5ZM23.5 14C21.8431 14 20.5 15.3431 20.5 17C20.5 18.6569 21.8431 20 23.5 20C25.1569 20 26.5 18.6569 26.5 17C26.5 15.3431 25.1569 14 23.5 14Z" fill="#081E40"/>
</svg>
