<svg width="48" height="48" viewBox="0 0 48 48" fill="none" xmlns="http://www.w3.org/2000/svg">
<path d="M40.8787 45.1213C42.0503 46.2929 43.9497 46.2929 45.1213 45.1213C46.2929 43.9497 46.2929 42.0503 45.1213 40.8787L28.2426 24L45.1213 7.12132C46.2929 5.94975 46.2929 4.05025 45.1213 2.87868C43.9497 1.70711 42.0503 1.70711 40.8787 2.87868L24 19.7574L7.12132 2.87868C5.94975 1.70711 4.05025 1.70711 2.87868 2.87868C1.70711 4.05025 1.70711 5.94975 2.87868 7.12132L19.7574 24L2.87868 40.8787C1.70711 42.0503 1.70711 43.9497 2.87868 45.1213C4.05025 46.2929 5.94975 46.2929 7.12132 45.1213L24 28.2426L40.8787 45.1213Z" fill="#081E40"/>
</svg>
