<svg width="48" height="48" viewBox="0 0 48 48" fill="none" xmlns="http://www.w3.org/2000/svg">
<g clip-path="url(#clip0_2105_1085)">
<path fill-rule="evenodd" clip-rule="evenodd" d="M24 43C34.4934 43 43 34.4934 43 24C43 13.5066 34.4934 5 24 5C13.5066 5 5 13.5066 5 24C5 34.4934 13.5066 43 24 43ZM24 48C37.2548 48 48 37.2548 48 24C48 10.7452 37.2548 0 24 0C10.7452 0 0 10.7452 0 24C0 37.2548 10.7452 48 24 48ZM33.7678 14.2322C34.7441 15.2085 34.7441 16.7915 33.7678 17.7678L27.5355 24L33.7678 30.2322C34.7441 31.2085 34.7441 32.7915 33.7678 33.7678C32.7915 34.7441 31.2085 34.7441 30.2322 33.7678L24 27.5355L17.7678 33.7678C16.7915 34.7441 15.2085 34.7441 14.2322 33.7678C13.2559 32.7915 13.2559 31.2085 14.2322 30.2322L20.4645 24L14.2322 17.7678C13.2559 16.7915 13.2559 15.2085 14.2322 14.2322C15.2085 13.2559 16.7915 13.2559 17.7678 14.2322L24 20.4645L30.2322 14.2322C31.2085 13.2559 32.7915 13.2559 33.7678 14.2322Z" fill="#081E40"/>
</g>
<defs>
<clipPath id="clip0_2105_1085">
<rect width="48" height="48" fill="white"/>
</clipPath>
</defs>
</svg>
