<svg width="48" height="48" viewBox="0 0 48 48" fill="none" xmlns="http://www.w3.org/2000/svg">
<path fill-rule="evenodd" clip-rule="evenodd" d="M8 0C5.79086 0 4 1.79086 4 4V44C4 46.2091 5.79086 48 8 48H40C42.2091 48 44 46.2091 44 44V18.534C44 17.613 43.6821 16.7201 43.1 16.0062L31.2488 1.4722C30.4892 0.540591 29.3508 0 28.1488 0H8ZM9 7C9 5.89543 9.89543 5 11 5H24V17.5C24 19.1569 25.3431 20.5 27 20.5H39V41C39 42.1046 38.1046 43 37 43H11C9.89543 43 9 42.1046 9 41V7ZM36.2357 15.5L29 6.62633V14.5C29 15.0523 29.4477 15.5 30 15.5H36.2357ZM12.5 27C12.5 25.6193 13.6193 24.5 15 24.5L33 24.5C34.3807 24.5 35.5 25.6193 35.5 27C35.5 28.3807 34.3807 29.5 33 29.5L15 29.5C13.6193 29.5 12.5 28.3807 12.5 27ZM15 33.5C13.6193 33.5 12.5 34.6193 12.5 36C12.5 37.3807 13.6193 38.5 15 38.5H33C34.3807 38.5 35.5 37.3807 35.5 36C35.5 34.6193 34.3807 33.5 33 33.5H15Z" fill="#081E40"/>
</svg>
