<svg width="48" height="48" viewBox="0 0 48 48" fill="none" xmlns="http://www.w3.org/2000/svg">
<path d="M44.5713 39.4287L44.5645 39.6494C44.2827 44.2788 35.1713 47.9999 24 48L22.9424 47.9883C12.259 47.7622 3.70838 44.1319 3.43555 39.6494L3.42871 39.4287V28.7656C7.85157 32.3998 15.943 34.2851 24 34.2852C32.057 34.2851 40.1484 32.3998 44.5713 28.7656V39.4287ZM39.5713 36.9365C34.7229 38.5662 29.173 39.2851 24 39.2852C18.8269 39.2851 13.2771 38.5662 8.42871 36.9365V39.0693C8.4607 39.1054 8.50177 39.1491 8.55371 39.2002C8.99091 39.6304 9.88085 40.2478 11.3818 40.873C14.362 42.1144 18.8223 43 24 43C29.178 43 33.639 42.1145 36.6191 40.873C38.12 40.2478 39.0092 39.6304 39.4463 39.2002C39.4982 39.1491 39.5393 39.1054 39.5713 39.0693V36.9365ZM44.5713 22.2861C44.5708 27.0174 35.3482 30.8574 24 30.8574C12.6517 30.8574 3.42922 27.0174 3.42871 22.2861V15.0518C4.58572 15.9707 5.85283 16.7422 7.2002 17.3486C12.5125 19.588 18.2361 20.6859 24 20.5713C29.7639 20.6859 35.4875 19.5881 40.7998 17.3486C42.1472 16.7422 43.4142 15.9707 44.5713 15.0518V22.2861ZM24 0C29.4557 2.69494e-05 34.6881 0.903386 38.5459 2.51074C42.4036 4.11816 44.5712 6.2981 44.5713 8.57129C44.5713 10.8445 42.4037 13.0254 38.5459 14.6328L37.8076 14.9258C34.034 16.3495 29.1149 17.1426 24 17.1426C18.8854 17.1426 13.9669 16.3494 10.1934 14.9258L9.4541 14.6328C5.59621 13.0254 3.42871 10.8446 3.42871 8.57129C3.42879 6.44004 5.33386 4.3907 8.75098 2.81836L9.4541 2.51074C13.3119 0.90337 18.5443 1.5236e-05 24 0ZM24 5C19.0124 5.00002 14.4702 5.83715 11.377 7.12598C10.1109 7.65351 9.29543 8.1721 8.81348 8.57129C9.2954 8.97048 10.1108 9.48903 11.377 10.0166C14.4702 11.3054 19.0124 12.1426 24 12.1426C28.9876 12.1426 33.5298 11.3055 36.623 10.0166C37.8886 9.48925 38.7036 8.97041 39.1855 8.57129C38.7035 8.17218 37.8885 7.65328 36.623 7.12598C33.5298 5.83715 28.9876 5.00003 24 5Z" fill="#081E40"/>
</svg>
