<svg width="48" height="48" viewBox="0 0 48 48" fill="none" xmlns="http://www.w3.org/2000/svg">
<path fill-rule="evenodd" clip-rule="evenodd" d="M40.4864 33.4509C37.2083 39.1571 31.0529 43 24 43C23.6851 43 23.372 42.9923 23.0609 42.9772C23.5616 41.7712 24.0737 40.3132 24.2655 38.9873C24.4233 37.8971 24.2608 36.9383 24.1581 36.3323C24.1441 36.2495 24.1312 36.1733 24.1203 36.1042C24.0261 35.5028 24.03 35.239 24.1535 34.9172C25.0044 32.6988 26.7374 31.7309 28.2785 32.1354L28.284 32.1368C28.3824 32.1624 28.47 32.1853 28.9241 32.8192C28.9467 32.8508 28.9706 32.8845 28.9958 32.9202C29.4078 33.5021 30.1836 34.5978 31.6416 35.0942C33.0302 35.5669 34.2657 35.2804 35.2417 34.7637C36.0731 34.3236 36.8001 33.6669 37.3142 33.2026L37.3968 33.128C38.0113 32.5741 38.3757 32.2666 38.6982 32.1043C38.9025 32.0014 38.9482 32.0197 39.0392 32.0562L39.0428 32.0576C39.3923 32.1975 39.9236 32.6866 40.4864 33.4509ZM42.2166 29.4169C41.7235 28.9832 41.1585 28.596 40.5295 28.3441C39.1586 27.7953 37.9065 28.0244 36.8992 28.5316C36.0406 28.964 35.2971 29.6349 34.7779 30.1035L34.7187 30.1568C34.1004 30.7142 33.722 31.0423 33.3703 31.2285C33.1177 31.3622 33.0352 31.3432 32.9307 31.3076C32.7746 31.2544 32.6736 31.1848 32.176 30.4901L32.1376 30.4363C31.7014 29.8256 30.8863 28.6843 29.2938 28.2664C25.069 27.1577 21.7029 30.1373 20.4188 33.4845C19.9128 34.8035 20.0426 35.9201 20.1686 36.7237C20.1853 36.83 20.2011 36.9285 20.2159 37.0207C20.3169 37.6486 20.3699 37.9783 20.3068 38.4145C20.154 39.4703 19.6281 40.8833 19.0644 42.1437C19.0362 42.2066 19.0082 42.2687 18.9803 42.3299C10.9227 40.1284 5 32.7558 5 24C5 22.1474 5.26516 20.3567 5.75959 18.6638C7.29121 20.8385 9.63373 23.3437 12.798 24.1402C14.2302 24.5008 15.5001 24.2245 16.2806 24.0546C16.3579 24.0378 16.4304 24.022 16.4978 24.008C17.3115 23.8388 17.5912 23.8462 17.9233 24.005C18.0483 24.0648 18.1228 24.1275 18.5492 24.824L18.5666 24.8523C18.9379 25.4592 19.6457 26.6163 21.1774 27.1058C23.5391 27.8606 25.5515 26.9212 26.9316 25.5672C28.2611 24.2629 29.1716 22.4536 29.6932 20.8036C30.3616 18.6895 29.6239 17.015 29.099 15.8974L29.0187 15.7267C28.502 14.6284 28.2374 14.0659 28.2826 13.322C28.3819 11.687 29.4651 9.57942 30.7838 7.66829C31.0539 7.27681 31.3231 6.90866 31.5794 6.57196C38.3008 9.49915 43 16.2008 43 24C43 25.8821 42.7263 27.7003 42.2166 29.4169ZM27.5383 5.32887C26.3919 5.11295 25.2091 5 24 5C17.085 5 11.0328 8.69411 7.70914 14.2165C7.98288 14.7228 8.30641 15.2773 8.67703 15.8415C10.0657 17.9557 11.8324 19.7724 13.7745 20.2613C14.2697 20.3859 14.6649 20.3037 15.6052 20.1081L15.6836 20.0917C16.6147 19.8981 18.0436 19.6286 19.6492 20.3965C20.9208 21.0046 21.5603 22.0695 21.8897 22.618C21.9152 22.6603 21.9387 22.6996 21.9606 22.7354C22.296 23.2831 22.363 23.2914 22.389 23.2946C22.3913 23.2948 22.3933 23.2951 22.3951 23.2957C22.9387 23.4694 23.4667 23.363 24.1304 22.7118C24.8446 22.0111 25.4815 20.8561 25.8793 19.5979C26.0537 19.0463 25.9566 18.6161 25.4784 17.5977C25.4379 17.5115 25.3936 17.4196 25.3466 17.322C24.8898 16.3747 24.1793 14.901 24.2899 13.0795C24.4608 10.2657 26.1275 7.37334 27.4914 5.39666C27.507 5.37399 27.5227 5.35139 27.5383 5.32887ZM48 24C48 37.2548 37.2548 48 24 48C10.7452 48 0 37.2548 0 24C0 10.7452 10.7452 0 24 0C37.2548 0 48 10.7452 48 24Z" fill="#081E40"/>
</svg>
