<svg width="48" height="48" viewBox="0 0 48 48" fill="none" xmlns="http://www.w3.org/2000/svg">
<g clip-path="url(#clip0_2341_66)">
<path fill-rule="evenodd" clip-rule="evenodd" d="M43 24C43 34.4934 34.4934 43 24 43C13.5066 43 5 34.4934 5 24C5 13.5066 13.5066 5 24 5C34.4934 5 43 13.5066 43 24ZM48 24C48 37.2548 37.2548 48 24 48C10.7452 48 0 37.2548 0 24C0 10.7452 10.7452 0 24 0C37.2548 0 48 10.7452 48 24ZM26.5109 15.5272C27.2139 14.8243 28.3536 14.8243 29.0565 15.5272L33.3765 19.8472C34.5105 20.9811 33.7074 22.92 32.1037 22.92H16.9837C15.9896 22.92 15.1837 22.1141 15.1837 21.12C15.1837 20.1259 15.9896 19.32 16.9837 19.32H27.3236C27.484 19.32 27.5643 19.1261 27.4509 19.0127L26.5109 18.0728C25.808 17.3698 25.808 16.2302 26.5109 15.5272ZM22.3964 32.4728C21.6935 33.1757 20.5538 33.1757 19.8508 32.4728L15.5308 28.1528C14.3969 27.0189 15.2 25.08 16.8036 25.08L31.9236 25.08C32.9177 25.08 33.7236 25.8859 33.7236 26.88C33.7236 27.8741 32.9177 28.68 31.9236 28.68H21.5838C21.4234 28.68 21.3431 28.8739 21.4565 28.9873L22.3964 29.9272C23.0993 30.6302 23.0993 31.7698 22.3964 32.4728Z" fill="#081E40"/>
</g>
<defs>
<clipPath id="clip0_2341_66">
<rect width="48" height="48" fill="white"/>
</clipPath>
</defs>
</svg>
