<svg width="48" height="48" viewBox="0 0 48 48" fill="none" xmlns="http://www.w3.org/2000/svg">
<path fill-rule="evenodd" clip-rule="evenodd" d="M34.7165 2.61421C33.4566 1.35428 31.3023 2.24661 31.3023 4.02842V9.55397C24.366 11.6796 17.6476 19.2387 17.2577 28.7667L17.1718 30.8659C17.1142 32.2744 18.8551 32.9774 19.7917 31.9238L21.1875 30.3535C24.9619 26.1073 28.1951 23.9278 31.3023 22.7461V27.1426C31.3023 28.9244 33.4566 29.8168 34.7165 28.5569L44.8594 18.414C46.4215 16.8519 46.4215 14.3192 44.8594 12.7571L34.7165 2.61421ZM35.8023 11.5462V10.064L41.3239 15.5855L35.8023 21.1071V19.4227C35.8023 18.1426 34.6165 17.1921 33.3671 17.4706L33.0627 17.5385C29.8783 18.2485 26.7986 19.5501 23.5972 21.9477C25.9708 17.2897 30.2149 14.1456 33.9078 13.5547L34.1183 13.521C35.0885 13.3658 35.8023 12.5288 35.8023 11.5462ZM6 3.00005C3.79086 3.00005 2 4.79091 2 7.00005V42C2 44.2092 3.79086 46 6 46H41C43.2091 46 45 44.2092 45 42V32.5C45 31.1193 43.8807 30 42.5 30C41.1193 30 40 31.1193 40 32.5V39C40 40.1046 39.1046 41 38 41H9C7.89543 41 7 40.1046 7 39V10C7 8.89548 7.89543 8.00005 9 8.00005H19.9186C21.2993 8.00005 22.4186 6.88076 22.4186 5.50005C22.4186 4.11933 21.2993 3.00005 19.9186 3.00005H6Z" fill="#081E40"/>
</svg>
