<svg width="48" height="48" viewBox="0 0 48 48" fill="none" xmlns="http://www.w3.org/2000/svg">
<path d="M45 38.5C46.3807 38.5 47.5 39.6193 47.5 41C47.5 42.3807 46.3807 43.5 45 43.5H3C1.61929 43.5 0.5 42.3807 0.5 41C0.5 39.6193 1.61929 38.5 3 38.5H45ZM11 21.5C12.3807 21.5 13.5 22.6193 13.5 24C13.5 25.3807 12.3807 26.5 11 26.5H3C1.61929 26.5 0.5 25.3807 0.5 24C0.5 22.6193 1.61929 21.5 3 21.5H11ZM27 21.5C28.3807 21.5 29.5 22.6193 29.5 24C29.5 25.3807 28.3807 26.5 27 26.5H21C19.6193 26.5 18.5 25.3807 18.5 24C18.5 22.6193 19.6193 21.5 21 21.5H27ZM45 21.5C46.3807 21.5 47.5 22.6193 47.5 24C47.5 25.3807 46.3807 26.5 45 26.5H37C35.6193 26.5 34.5 25.3807 34.5 24C34.5 22.6193 35.6193 21.5 37 21.5H45ZM45 4.5C46.3807 4.5 47.5 5.61929 47.5 7C47.5 8.38071 46.3807 9.5 45 9.5L3 9.5C1.61929 9.5 0.5 8.38071 0.5 7C0.5 5.61929 1.61929 4.5 3 4.5L45 4.5Z" fill="#081E40"/>
</svg>
