<svg width="48" height="48" viewBox="0 0 48 48" fill="none" xmlns="http://www.w3.org/2000/svg">
<path d="M18.2061 0.00488281C20.2512 0.108651 21.8913 1.7488 21.9951 3.79395L22 4L22 44L21.9951 44.2061C21.8913 46.2512 20.2512 47.8913 18.2061 47.9951L18 48H7C4.79086 48 3 46.2091 3 44L3 4C3 1.79086 4.79086 9.65645e-08 7 0L18 0L18.2061 0.00488281ZM41.2061 0.00488281C43.2512 0.108651 44.8913 1.7488 44.9951 3.79395L45 4V44L44.9951 44.2061C44.8913 46.2512 43.2512 47.8913 41.2061 47.9951L41 48H30C27.7909 48 26 46.2091 26 44L26 4C26 1.79086 27.7909 9.65645e-08 30 0L41 0L41.2061 0.00488281ZM10 5C8.89543 5 8 5.89543 8 7L8 41C8 42.1046 8.89543 43 10 43H15C16.1046 43 17 42.1046 17 41V7C17 5.89543 16.1046 5 15 5L10 5ZM33 5C31.8954 5 31 5.89543 31 7L31 41C31 42.1046 31.8954 43 33 43H38C39.1046 43 40 42.1046 40 41V7C40 5.89543 39.1046 5 38 5H33Z" fill="#081E40"/>
</svg>
