<svg width="48" height="48" viewBox="0 0 48 48" fill="none" xmlns="http://www.w3.org/2000/svg">
<path d="M25 1.63672C29.4726 1.63673 33.9463 1.96432 38.4189 2.50977C43.5457 3.27369 47.3641 7.63678 47.3643 12.7637V31.5273L47.3516 32.0361C47.0968 37.2639 42.939 41.5743 37.6553 41.8916L34.4814 42.0518C31.3212 42.2052 28.191 42.3271 25 42.3271H24.6729L19.7637 45.6006L19.5469 45.7373C17.3568 47.0415 14.561 46.4435 13.1377 44.3926L13 44.1826C12.891 43.9646 12.7819 43.8546 12.6729 43.6367L11.8008 41.7822C6.56454 41.1277 2.6369 36.7635 2.63672 31.5273V12.7637C2.63688 7.6366 6.45496 3.27346 11.582 2.50977C16.0546 1.85526 20.5275 1.63673 25 1.63672ZM25 6.63672C20.685 6.63673 16.4679 6.84811 12.3066 7.45703C9.58074 7.86898 7.63688 10.1726 7.63672 12.7637V31.5273C7.6369 34.0962 9.5014 36.3276 12.1611 36.7822L12.4209 36.8203L15.1523 37.1621L17.0898 41.2803C17.1028 41.3004 17.1172 41.3224 17.1318 41.3457L23.1592 37.3271H25C29.096 37.3271 33.1036 37.1175 37.376 36.8984C40.144 36.7213 42.3641 34.3661 42.3643 31.5273V12.7637C42.3641 10.1811 40.4324 7.88497 37.7207 7.46191C33.4365 6.94245 29.2002 6.63673 25 6.63672ZM22.5 24C23.8807 24 25 25.1193 25 26.5C25 27.8807 23.8807 29 22.5 29H15.5C14.1193 29 13 27.8807 13 26.5C13 25.1193 14.1193 24 15.5 24H22.5ZM31.5 24C32.8807 24 34 25.1193 34 26.5C34 27.8807 32.8807 29 31.5 29C30.1193 29 29 27.8807 29 26.5C29 25.1193 30.1193 24 31.5 24ZM31.5 14C32.8807 14 34 15.1193 34 16.5C34 17.8807 32.8807 19 31.5 19H15.5C14.1193 19 13 17.8807 13 16.5C13 15.1193 14.1193 14 15.5 14H31.5Z" fill="#081E40"/>
</svg>
