<svg width="48" height="48" viewBox="0 0 48 48" fill="none" xmlns="http://www.w3.org/2000/svg">
<path fill-rule="evenodd" clip-rule="evenodd" d="M0 8C0 5.79086 1.79086 4 4 4H44C46.2091 4 48 5.79086 48 8V40C48 42.2091 46.2091 44 44 44H4C1.79086 44 0 42.2091 0 40V8ZM7 9C5.89543 9 5 9.89543 5 11V18H43V11C43 9.89543 42.1046 9 41 9H26.5V15.3382C26.5 15.7842 26.0306 16.0743 25.6317 15.8749L24 15.059L22.3683 15.8749C21.9694 16.0743 21.5 15.7842 21.5 15.3382V9H19.5V13.5C19.5 14.8807 18.3807 16 17 16C15.6193 16 14.5 14.8807 14.5 13.5V9H12.5V13.5C12.5 14.8807 11.3807 16 10 16C8.61929 16 7.5 14.8807 7.5 13.5V9H7ZM5 37V23H43V37C43 38.1046 42.1046 39 41 39H7C5.89543 39 5 38.1046 5 37Z" fill="#081E40"/>
</svg>
