<svg width="48" height="48" viewBox="0 0 48 48" fill="none" xmlns="http://www.w3.org/2000/svg">
<g clip-path="url(#clip0_2209_6018)">
<path fill-rule="evenodd" clip-rule="evenodd" d="M1.71058 30.0544C2.18242 31.352 3.61683 32.0214 4.91442 31.5495C6.212 31.0777 6.88139 29.6432 6.40954 28.3457C4.64745 23.4999 4.74152 13.9353 12.9264 8.59361C18.2859 5.09579 23.0071 4.54297 27.0041 5.3025C30.4272 5.95299 33.4773 7.59866 36.0365 9.49938L34.308 11.4158C33.7342 12.052 34.1738 13.0681 35.0304 13.0854L42.4646 13.2353C43.0737 13.2476 43.5521 12.7172 43.4772 12.1127L42.5636 4.73325C42.4584 3.88299 41.4025 3.55015 40.8286 4.18635L39.3984 5.77204C36.3737 3.46293 32.5026 1.25788 27.9375 0.390403C22.625 -0.619113 16.5961 0.228065 10.1937 4.40643C-0.621406 11.4647 -0.527327 23.9001 1.71058 30.0544ZM5.53536 34.9958C4.92635 34.9835 4.44793 35.5139 4.52277 36.1184L5.43636 43.4978C5.54163 44.3481 6.59753 44.6809 7.17136 44.0447L8.74955 42.295C11.7612 44.5797 15.6016 46.7506 20.1226 47.6097C25.4351 48.6192 31.464 47.7721 37.8663 43.5937C48.6815 36.5354 48.5874 24.1 46.3495 17.9458C45.8776 16.6482 44.4432 15.9788 43.1456 16.4506C41.8481 16.9225 41.1787 18.3569 41.6505 19.6545C43.4126 24.5002 43.3185 34.0648 35.1337 39.4065C29.7741 42.9043 25.053 43.4572 21.056 42.6976C17.6724 42.0547 14.6533 40.4394 12.1125 38.5665L13.692 36.8153C14.2658 36.1791 13.8262 35.163 12.9696 35.1457L5.53536 34.9958Z" fill="#081E40"/>
</g>
<defs>
<clipPath id="clip0_2209_6018">
<rect width="48" height="48" fill="white"/>
</clipPath>
</defs>
</svg>
