<svg width="48" height="48" viewBox="0 0 48 48" fill="none" xmlns="http://www.w3.org/2000/svg">
<path fill-rule="evenodd" clip-rule="evenodd" d="M19 15.5C20.3807 15.5 21.5 16.6193 21.5 18L21.5 36C21.5 37.3807 20.3807 38.5 19 38.5C17.6193 38.5 16.5 37.3807 16.5 36L16.5 18C16.5 16.6193 17.6193 15.5 19 15.5Z" fill="#081E40"/>
<path fill-rule="evenodd" clip-rule="evenodd" d="M29 15.5C30.3807 15.5 31.5 16.6193 31.5 18L31.5 36C31.5 37.3807 30.3807 38.5 29 38.5C27.6193 38.5 26.5 37.3807 26.5 36L26.5 18C26.5 16.6193 27.6193 15.5 29 15.5Z" fill="#081E40"/>
<path fill-rule="evenodd" clip-rule="evenodd" d="M15.5 5.5C15.5 3.29086 17.2909 1.5 19.5 1.5H28.5C30.7091 1.5 32.5 3.29086 32.5 5.5V8.5L44 8.5C45.3807 8.5 46.5 9.61929 46.5 11C46.5 12.3807 45.3807 13.5 44 13.5H41.5V42.5C41.5 44.7091 39.7091 46.5 37.5 46.5H10.5C8.29086 46.5 6.5 44.7091 6.5 42.5V13.5H4C2.61929 13.5 1.5 12.3807 1.5 11C1.5 9.61929 2.61929 8.5 4 8.5L15.5 8.5V5.5ZM11.5 13.5V39.5C11.5 40.6046 12.3954 41.5 13.5 41.5H34.5C35.6046 41.5 36.5 40.6046 36.5 39.5V13.5L11.5 13.5ZM27.5 6.5V8.5L20.5 8.5V6.5H27.5Z" fill="#081E40"/>
</svg>
