<svg width="48" height="48" viewBox="0 0 48 48" fill="none" xmlns="http://www.w3.org/2000/svg">
<path fill-rule="evenodd" clip-rule="evenodd" d="M22.5664 2.20702C23.4868 1.85482 24.5049 1.85482 25.4254 2.20702L41.9969 8.54799C43.6219 9.1698 43.7328 11.4266 42.1766 12.2048L25.7847 20.4007C24.6586 20.9638 23.3331 20.9638 22.207 20.4007L5.81512 12.2048C4.25884 11.4266 4.36974 9.1698 5.99481 8.54799L22.5664 2.20702ZM14.6599 10.6637C14.4987 10.727 14.4886 10.9513 14.6435 11.0288L23.5486 15.4813C23.8301 15.6221 24.1615 15.6221 24.443 15.4813L33.3482 11.0288C33.5031 10.9513 33.493 10.727 33.3318 10.6637L24.3612 7.1434C24.1264 7.05125 23.8654 7.05125 23.6306 7.1434L14.6599 10.6637Z" fill="#081E40"/>
<path fill-rule="evenodd" clip-rule="evenodd" d="M3.25 15.6911C3.25 14.2043 4.81463 13.2373 6.14443 13.9022L21.0389 21.3494C22.394 22.027 23.25 23.412 23.25 24.9271V43.8334C23.25 45.3432 21.641 46.3086 20.3088 45.5981L5.36765 37.6295C4.06419 36.9343 3.25 35.5773 3.25 34.1001V15.6911ZM8.97361 20.907C8.64116 20.7407 8.25 20.9825 8.25 21.3542V32.9001C8.25 33.2694 8.45355 33.6086 8.77941 33.7824L17.5147 38.4412C17.8478 38.6189 18.25 38.3775 18.25 38.0001V26.1632C18.25 25.7844 18.036 25.4382 17.6972 25.2688L8.97361 20.907Z" fill="#081E40"/>
<path fill-rule="evenodd" clip-rule="evenodd" d="M41.8556 13.9022C43.1854 13.2373 44.75 14.2043 44.75 15.6911L44.75 34.1001C44.75 35.5773 43.9358 36.9343 42.6324 37.6295L27.6912 45.5981C26.359 46.3086 24.75 45.3432 24.75 43.8334L24.75 24.9271C24.75 23.412 25.606 22.027 26.9611 21.3494L41.8556 13.9022ZM39.75 21.3542C39.75 20.9825 39.3588 20.7407 39.0264 20.907L30.3028 25.2688C29.964 25.4382 29.75 25.7844 29.75 26.1632L29.75 38.0001C29.75 38.3775 30.1522 38.6189 30.4853 38.4412L39.2206 33.7824C39.5465 33.6086 39.75 33.2694 39.75 32.9001L39.75 21.3542Z" fill="#081E40"/>
</svg>
