<svg width="48" height="48" viewBox="0 0 48 48" fill="none" xmlns="http://www.w3.org/2000/svg">
<path d="M30.5457 2.78075C30.5458 0.307942 33.0242 -0.92989 34.4737 0.818682L47.3261 16.3233C48.2246 17.4072 48.2247 19.1645 47.3261 20.2485L34.4737 35.7531C33.0241 37.5014 30.5457 36.2627 30.5457 33.7899V26.2859H24.0002L24.0006 21.7144H32.7286C33.9333 21.7144 34.9101 22.7374 34.9104 23.9994L34.9116 27.6771L42.6982 18.2853L34.9116 8.89351L34.9102 12.572C34.9098 13.834 33.9331 14.8569 32.7284 14.8569H26.1821C24.9771 14.8569 24.0002 13.8335 24.0002 12.5711C24.0002 11.3087 24.9771 10.2854 26.1821 10.2854H30.5457V2.78075Z" fill="#081E40"/>
<path d="M17.4543 45.2192C17.4542 47.6921 14.9758 48.9299 13.5263 47.1813L0.673906 31.6767C-0.224613 30.5928 -0.224658 28.8355 0.673906 27.7515L13.5263 12.2469C14.9759 10.4986 17.4543 11.7373 17.4543 14.2101V21.7141L24.0006 21.7144L24.0002 26.2859L15.2714 26.2856C14.0667 26.2856 13.0899 25.2626 13.0895 24.0006L13.0884 20.3229L5.30179 29.7147L13.0884 39.1065L13.0898 35.428C13.0902 34.166 14.0669 33.1431 15.2716 33.1431H21.8179C23.0229 33.1431 23.9998 34.1665 23.9998 35.4289C23.9998 36.6913 23.0229 37.7146 21.8179 37.7146H17.4543V45.2192Z" fill="#081E40"/>
</svg>
