<svg width="48" height="48" viewBox="0 0 48 48" fill="none" xmlns="http://www.w3.org/2000/svg">
<path d="M2.18164 28.3633C3.38663 28.3633 4.36328 29.3409 4.36328 30.5459V42.5459C4.36352 43.148 4.85196 43.6365 5.4541 43.6367H17.4541C18.6591 43.6367 19.6367 44.6134 19.6367 45.8184C19.6366 47.0233 18.659 48 17.4541 48H4.36328C1.95359 47.9998 0.00019171 46.0464 0 43.6367V30.5459C0 29.341 0.976737 28.3634 2.18164 28.3633ZM45.8184 28.3633C47.0233 28.3634 48 29.341 48 30.5459V43.6367C47.9998 46.0464 46.0464 47.9998 43.6367 48H30.5459C29.341 48 28.3634 47.0233 28.3633 45.8184C28.3633 44.6134 29.3409 43.6367 30.5459 43.6367H42.5459C43.148 43.6365 43.6365 43.148 43.6367 42.5459V30.5459C43.6367 29.3409 44.6134 28.3633 45.8184 28.3633ZM32.3564 15.5645C33.4 14.9621 34.7354 15.3198 35.3379 16.3633C35.9403 17.4068 35.5816 18.7423 34.5381 19.3447L26.1816 24.168V33.8184C26.1815 35.0233 25.2049 36 24 36C22.7951 35.9999 21.8185 35.0232 21.8184 33.8184V24.3828L13.0908 19.3447L12.9033 19.2227C12.0066 18.5758 11.7273 17.3415 12.292 16.3633C12.8568 15.3853 14.0647 15.0109 15.0732 15.4639L15.2725 15.5645L23.8145 20.4961L32.3564 15.5645ZM17.4541 0C18.659 0 19.6366 0.976737 19.6367 2.18164C19.6367 3.38663 18.6591 4.36328 17.4541 4.36328H5.4541C4.85196 4.36352 4.36352 4.85196 4.36328 5.4541V17.4541C4.36328 18.6591 3.38663 19.6367 2.18164 19.6367C0.976737 19.6366 0 18.659 0 17.4541V4.36328C0.000191968 1.95359 1.95359 0.000191967 4.36328 0H17.4541ZM43.6367 0C46.0464 0.00019171 47.9998 1.95359 48 4.36328V17.4541C48 18.659 47.0233 19.6366 45.8184 19.6367C44.6134 19.6367 43.6367 18.6591 43.6367 17.4541V5.4541C43.6365 4.85196 43.148 4.36352 42.5459 4.36328H30.5459C29.3409 4.36328 28.3633 3.38663 28.3633 2.18164C28.3634 0.976737 29.341 0 30.5459 0H43.6367Z" fill="#081E40"/>
</svg>
