<svg width="48" height="48" viewBox="0 0 48 48" fill="none" xmlns="http://www.w3.org/2000/svg">
<path d="M43.3812 15.8758L26.3088 25.151V42.7081L43.3812 33.9471V15.8758ZM17.8392 18.3868L23.8134 21.6947L40.5531 12.6009L34.3511 9.41827L17.8392 18.3868ZM7.41645 12.6159L13.4527 15.959L29.7966 7.08067L23.9994 4.10554L7.41645 12.6159ZM21.69 42.7081V25.3565L4.61879 15.9038V33.9471L21.69 42.7081ZM47.9899 34.2197C47.8881 35.5802 47.0305 36.8149 45.6906 37.5026L26.3088 47.4495L26.0382 47.5788C24.7537 48.1404 23.2463 48.1404 21.9618 47.5788L21.69 47.4495L2.30939 37.5026C0.969496 36.8149 0.111934 35.5802 0.0101487 34.2197L0 33.9471V14.0524C6.4988e-05 12.6772 0.7736 11.3998 2.04778 10.6412L2.30939 10.4969L21.69 0.550014C23.119 -0.183381 24.8798 -0.183294 26.3088 0.550014L45.6906 10.4969C47.1195 11.2303 47.9999 12.5856 48 14.0524V33.9471L47.9899 34.2197Z" fill="#081E40"/>
</svg>
