<svg width="48" height="48" viewBox="0 0 48 48" fill="none" xmlns="http://www.w3.org/2000/svg">
<path d="M12.5 19C12.5 17.6193 13.6193 16.5 15 16.5H33C34.3807 16.5 35.5 17.6193 35.5 19C35.5 20.3807 34.3807 21.5 33 21.5H15C13.6193 21.5 12.5 20.3807 12.5 19Z" fill="#081E40"/>
<path d="M12.5 28C12.5 26.6193 13.6193 25.5 15 25.5H24C25.3807 25.5 26.5 26.6193 26.5 28C26.5 29.3807 25.3807 30.5 24 30.5H15C13.6193 30.5 12.5 29.3807 12.5 28Z" fill="#081E40"/>
<path fill-rule="evenodd" clip-rule="evenodd" d="M26.0798 1.33919C24.8023 0.56158 23.1977 0.561579 21.9202 1.33919L5.42021 11.3827C4.22777 12.1085 3.5 13.4035 3.5 14.7995V33.2004C3.5 34.5964 4.22777 35.8914 5.42021 36.6172L21.9202 46.6607C23.1977 47.4383 24.8023 47.4383 26.0798 46.6607L42.5798 36.6172C43.7722 35.8914 44.5 34.5964 44.5 33.2004V14.7995C44.5 13.4035 43.7722 12.1085 42.5798 11.3827L26.0798 1.33919ZM8.5 16.4854C8.5 15.7875 8.86389 15.14 9.46011 14.777L22.9601 6.55965C23.5989 6.17084 24.4011 6.17084 25.0399 6.55965L38.5399 14.777C39.1361 15.14 39.5 15.7874 39.5 16.4854V31.5145C39.5 32.2124 39.1361 32.8599 38.5399 33.2229L25.0399 41.4403C24.4011 41.8291 23.5989 41.8291 22.9601 41.4403L9.46011 33.2229C8.86389 32.8599 8.5 32.2125 8.5 31.5145V16.4854Z" fill="#081E40"/>
</svg>
