<svg width="48" height="48" viewBox="0 0 48 48" fill="none" xmlns="http://www.w3.org/2000/svg">
<path fill-rule="evenodd" clip-rule="evenodd" d="M23.071 1.93492C23.7044 1.5549 24.4956 1.5549 25.129 1.93492L33.729 7.09492C34.3314 7.45636 34.7 8.10738 34.7 8.8099V18.2861C34.7 18.9886 34.3314 19.6396 33.729 20.0011L25.129 25.1611C24.4956 25.5411 23.7044 25.5411 23.071 25.1611L14.471 20.0011C13.8686 19.6396 13.5 18.9886 13.5 18.2861V8.8099C13.5 8.10738 13.8686 7.45636 14.471 7.09492L23.071 1.93492ZM18.9855 10.2172C18.6843 10.3979 18.5 10.7234 18.5 11.0747V16.0213C18.5 16.3726 18.6843 16.6981 18.9855 16.8788L23.5855 19.6388C23.9022 19.8288 24.2978 19.8288 24.6145 19.6388L29.2145 16.8788C29.5157 16.6981 29.7 16.3726 29.7 16.0213V11.0747C29.7 10.7234 29.5157 10.3979 29.2145 10.2172L24.6145 7.45717C24.2978 7.26716 23.9022 7.26716 23.5855 7.45717L18.9855 10.2172ZM34.3708 22.8502C35.0042 22.4702 35.7954 22.4702 36.4288 22.8502L45.0288 28.0102C45.6312 28.3716 45.9998 29.0227 45.9998 29.7252V39.2014C45.9998 39.9039 45.6312 40.5549 45.0288 40.9164L36.4288 46.0764C35.7954 46.4564 35.0042 46.4564 34.3708 46.0764L25.7708 40.9164C25.1684 40.5549 24.7998 39.9039 24.7998 39.2014V29.7252C24.7998 29.0227 25.1684 28.3716 25.7708 28.0102L34.3708 22.8502ZM30.2853 31.1325C29.9841 31.3132 29.7998 31.6387 29.7998 31.9899V36.9366C29.7998 37.2879 29.9841 37.6134 30.2853 37.7941L34.8853 40.5541C35.202 40.7441 35.5976 40.7441 35.9143 40.5541L40.5143 37.7941C40.8155 37.6134 40.9998 37.2879 40.9998 36.9366V31.9899C40.9998 31.6387 40.8155 31.3132 40.5143 31.1325L35.9143 28.3725C35.5976 28.1824 35.202 28.1824 34.8853 28.3725L30.2853 31.1325ZM13.629 22.8502C12.9956 22.4702 12.2044 22.4702 11.571 22.8502L2.97101 28.0102C2.3686 28.3716 2 29.0227 2 29.7252V39.2014C2 39.9039 2.3686 40.5549 2.97101 40.9164L11.571 46.0764C12.2044 46.4564 12.9956 46.4564 13.629 46.0764L22.229 40.9164C22.8314 40.5549 23.2 39.9039 23.2 39.2014V29.7252C23.2 29.0227 22.8314 28.3716 22.229 28.0102L13.629 22.8502ZM7 31.9899C7 31.6387 7.1843 31.3132 7.4855 31.1325L12.0855 28.3725C12.4022 28.1824 12.7978 28.1824 13.1145 28.3725L17.7145 31.1325C18.0157 31.3132 18.2 31.6387 18.2 31.9899V36.9366C18.2 37.2879 18.0157 37.6134 17.7145 37.7941L13.1145 40.5541C12.7978 40.7441 12.4022 40.7441 12.0855 40.5541L7.4855 37.7941C7.1843 37.6134 7 37.2879 7 36.9366V31.9899Z" fill="#081E40"/>
</svg>
