<svg width="48" height="49" viewBox="0 0 48 49" fill="none" xmlns="http://www.w3.org/2000/svg">
<path fill-rule="evenodd" clip-rule="evenodd" d="M0.583866 20.8754C0.584027 19.2509 2.29098 18.1851 3.76099 18.8919L21.4724 27.41C22.2369 27.7777 22.7229 28.5477 22.7232 29.3925V45.794L22.7178 45.9457C22.6192 47.4347 21.0746 48.3988 19.6844 47.8389L19.5461 47.7776L1.83461 39.2594C1.11786 38.9147 0.645456 38.2163 0.589272 37.4341L0.583866 37.277V20.8754ZM5.01173 35.8948L18.2953 42.2831V30.7736L5.01173 24.3853V35.8948Z" fill="#081E40"/>
<path fill-rule="evenodd" clip-rule="evenodd" d="M36.0068 23.9722C42.1203 23.9722 47.0762 28.6442 47.0764 34.4072L47.0624 34.9439C46.9321 37.3676 45.9232 39.5719 44.3317 41.2828L47.4418 44.5904L47.5866 44.7614C48.2589 45.6405 48.1014 46.8376 47.1856 47.5237C46.2697 48.2098 44.9211 48.1404 44.0679 47.3968L43.9047 47.2397L40.7189 43.8503C39.289 44.4855 37.6922 44.8421 36.0068 44.8421L35.4371 44.8281C29.7768 44.5575 25.2379 40.2797 24.9512 34.9439L24.9371 34.4072C24.9373 28.6443 29.8933 23.9723 36.0068 23.9722ZM36.0068 28.3781C32.1102 28.3782 29.3651 31.299 29.365 34.4072C29.365 37.5155 32.11 40.4362 36.0068 40.4362C39.9035 40.4362 42.6485 37.5155 42.6485 34.4072C42.6484 31.2989 39.9034 28.3781 36.0068 28.3781Z" fill="#081E40"/>
<path fill-rule="evenodd" clip-rule="evenodd" d="M22.8399 0.232553C23.4632 -0.0775292 24.1971 -0.0775064 24.8204 0.232553L46.4375 10.9869C48.0689 11.7988 48.0688 14.1162 46.4375 14.9281L24.8204 25.6825C24.1971 25.9926 23.4632 25.9926 22.8399 25.6825L1.22383 14.9281C-0.407944 14.1163 -0.407944 11.7988 1.22383 10.9869L22.8399 0.232553ZM24.8204 5.15905C24.1971 4.84899 23.4632 4.84897 22.8399 5.15905L7.16512 12.9575L22.8399 20.756C23.4632 21.0661 24.1971 21.0661 24.8204 20.756L40.4952 12.9575L24.8204 5.15905Z" fill="#081E40"/>
</svg>
