<svg width="48" height="48" viewBox="0 0 48 48" fill="none" xmlns="http://www.w3.org/2000/svg">
<g clip-path="url(#clip0_1754_893)">
<path d="M24.2818 5.5C13.7091 5.5 5.75 13.4525 5.75 24C5.75 29.3736 7.62532 33.9773 10.8019 37.2269C13.9697 40.4675 18.5659 42.5 24.2818 42.5C28.892 42.5 31.5146 41.6368 33.8905 40.0553C35.0398 39.2902 36.5918 39.6017 37.3569 40.7511C38.1219 41.9004 37.8104 43.4524 36.6611 44.2175C33.301 46.4541 29.6613 47.5 24.2818 47.5C17.3262 47.5 11.4066 44.9984 7.22635 40.722C3.05484 36.4545 0.75 30.5582 0.75 24C0.75 10.6839 10.9548 0.5 24.2818 0.5C30.0235 0.5 34.3055 1.94661 38.3441 5.07453L39.9849 3.25537C40.5587 2.61917 41.6146 2.95201 41.7199 3.80227L42.6335 11.1817C42.7083 11.7862 42.2299 12.3166 41.6209 12.3044L34.1866 12.1544C33.3301 12.1371 32.8904 11.121 33.4642 10.4848L34.9842 8.79967C31.9214 6.51215 28.7621 5.5 24.2818 5.5Z" fill="#081E40"/>
<path d="M43.25 38.5C43.25 39.8807 42.1307 41 40.75 41C39.3693 41 38.25 39.8807 38.25 38.5C38.25 37.1193 39.3693 36 40.75 36C42.1307 36 43.25 37.1193 43.25 38.5Z" fill="#081E40"/>
<path d="M43.75 34C45.1307 34 46.25 32.8807 46.25 31.5C46.25 30.1193 45.1307 29 43.75 29C42.3693 29 41.25 30.1193 41.25 31.5C41.25 32.8807 42.3693 34 43.75 34Z" fill="#081E40"/>
<path d="M47.25 23.5C47.25 24.8807 46.1307 26 44.75 26C43.3693 26 42.25 24.8807 42.25 23.5C42.25 22.1193 43.3693 21 44.75 21C46.1307 21 47.25 22.1193 47.25 23.5Z" fill="#081E40"/>
</g>
<defs>
<clipPath id="clip0_1754_893">
<rect width="48" height="48" fill="white"/>
</clipPath>
</defs>
</svg>
