<svg width="48" height="48" viewBox="0 0 48 48" fill="none" xmlns="http://www.w3.org/2000/svg">
<g clip-path="url(#clip0_1754_886)">
<path d="M0 25C0 22.7909 1.79086 21 4 21C6.20914 21 8 22.7909 8 25C8 27.2091 6.20914 29 4 29C1.79086 29 0 27.2091 0 25Z" fill="#081E40"/>
<path d="M40 25C40 22.7909 41.7909 21 44 21C46.2091 21 48 22.7909 48 25C48 27.2091 46.2091 29 44 29C41.7909 29 40 27.2091 40 25Z" fill="#081E40"/>
<path d="M20 44C20 41.7909 21.7909 40 24 40C26.2091 40 28 41.7909 28 44C28 46.2091 26.2091 48 24 48C21.7909 48 20 46.2091 20 44Z" fill="#081E40"/>
<path d="M20 4C20 1.79086 21.7909 0 24 0C26.2091 0 28 1.79086 28 4C28 6.20914 26.2091 8 24 8C21.7909 8 20 6.20914 20 4Z" fill="#081E40"/>
<path d="M35 11C35 8.79086 36.7909 7 39 7C41.2091 7 43 8.79086 43 11C43 13.2091 41.2091 15 39 15C36.7909 15 35 13.2091 35 11Z" fill="#081E40"/>
<path d="M34 38C34 35.7909 35.7909 34 38 34C40.2091 34 42 35.7909 42 38C42 40.2091 40.2091 42 38 42C35.7909 42 34 40.2091 34 38Z" fill="#081E40"/>
<path d="M5 11C5 8.79086 6.79086 7 9 7C11.2091 7 13 8.79086 13 11C13 13.2091 11.2091 15 9 15C6.79086 15 5 13.2091 5 11Z" fill="#081E40"/>
<path d="M6 38C6 35.7909 7.79086 34 10 34C12.2091 34 14 35.7909 14 38C14 40.2091 12.2091 42 10 42C7.79086 42 6 40.2091 6 38Z" fill="#081E40"/>
</g>
<defs>
<clipPath id="clip0_1754_886">
<rect width="48" height="48" fill="white"/>
</clipPath>
</defs>
</svg>
