<svg width="48" height="48" viewBox="0 0 48 48" fill="none" xmlns="http://www.w3.org/2000/svg">
<rect width="48" height="48" fill="white"/>
<path d="M38 37C39.1046 37 40 37.8954 40 39C40 40.1046 39.1046 41 38 41C36.8954 41 36 40.1046 36 39C36 37.8954 36.8954 37 38 37Z" fill="#081E40"/>
<path fill-rule="evenodd" clip-rule="evenodd" d="M37 30.5771C37.6188 30.22 38.3812 30.22 39 30.5771L44.7939 33.9229C45.4126 34.2801 45.7938 34.9399 45.7939 35.6543V42.3457C45.7938 43.0601 45.4126 43.7199 44.7939 44.0771L39 47.4229C38.3812 47.78 37.6188 47.78 37 47.4229L31.2061 44.0771C30.5874 43.7199 30.2062 43.0601 30.2061 42.3457V35.6543C30.2062 34.9399 30.5874 34.2801 31.2061 33.9229L37 30.5771ZM38.5 33.752C38.1905 33.5732 37.8095 33.5732 37.5 33.752L33.7061 35.9424C33.3967 36.121 33.2061 36.4514 33.2061 36.8086V41.1904C33.2061 41.5476 33.3967 41.878 33.7061 42.0566L37.5 44.2471C37.8095 44.4258 38.1905 44.4258 38.5 44.2471L42.2939 42.0566C42.6033 41.878 42.7939 41.5476 42.7939 41.1904V36.8086C42.7939 36.4514 42.6033 36.121 42.2939 35.9424L38.5 33.752Z" fill="#081E40"/>
<path d="M24 0.5C25.3807 0.5 26.5 1.61929 26.5 3V4.15527C35.5467 5.28342 42.7166 12.4533 43.8447 21.5H45C46.3807 21.5 47.5 22.6193 47.5 24C47.5 25.3807 46.3807 26.5 45 26.5H43.8447C43.6707 27.893 43.3535 29.2414 42.9082 30.5303C42.7106 31.1022 42.0378 31.3308 41.5137 31.0283L38.8438 29.4873C38.4248 29.2455 38.2421 28.7391 38.3799 28.2754C38.5516 27.6975 38.6873 27.1047 38.7891 26.5H35C33.6193 26.5 32.5 25.3807 32.5 24C32.5 22.6193 33.6193 21.5 35 21.5H38.791C37.7371 15.2189 32.7811 10.2618 26.5 9.20801V13C26.5 14.3807 25.3807 15.5 24 15.5C22.6193 15.5 21.5 14.3807 21.5 13V9.20801C15.2189 10.2618 10.2629 15.2189 9.20898 21.5H13C14.3807 21.5 15.5 22.6193 15.5 24C15.5 25.3807 14.3807 26.5 13 26.5H9.20898C10.2629 32.7811 15.2189 37.7371 21.5 38.791V35C21.5 33.6193 22.6193 32.5 24 32.5C25.3807 32.5 26.5 33.6193 26.5 35V38.792C26.9956 38.7087 27.4831 38.6013 27.9609 38.4707C28.6366 38.2861 29.3398 38.7713 29.3398 39.4717V42.5166C29.3397 42.9661 29.0401 43.3626 28.6025 43.4658C27.9148 43.628 27.2131 43.7525 26.5 43.8418V45C26.5 46.3807 25.3807 47.5 24 47.5C22.6193 47.5 21.5 46.3807 21.5 45V43.8438C12.4533 42.7156 5.28341 35.5467 4.15527 26.5H3C1.61929 26.5 0.5 25.3807 0.5 24C0.5 22.6193 1.61929 21.5 3 21.5H4.15527C5.28342 12.4533 12.4533 5.28342 21.5 4.15527V3C21.5 1.61929 22.6193 0.5 24 0.5Z" fill="#081E40"/>
</svg>
