<svg width="48" height="48" viewBox="0 0 48 48" fill="none" xmlns="http://www.w3.org/2000/svg">
<path fill-rule="evenodd" clip-rule="evenodd" d="M4.25 1.75C2.86929 1.75 1.75 2.86929 1.75 4.25C1.75 5.63071 2.86929 6.75 4.25 6.75L43.25 6.75C44.6307 6.75 45.75 5.63072 45.75 4.25C45.75 2.86929 44.6307 1.75 43.25 1.75L4.25 1.75ZM4.25 21.75C2.86929 21.75 1.75 22.8693 1.75 24.25C1.75 25.6307 2.86929 26.75 4.25 26.75L27.25 26.75C28.6307 26.75 29.75 25.6307 29.75 24.25C29.75 22.8693 28.6307 21.75 27.25 21.75L4.25 21.75ZM1.75 43.25C1.75 41.8693 2.86929 40.75 4.25 40.75H21.25C22.6307 40.75 23.75 41.8693 23.75 43.25C23.75 44.6307 22.6307 45.75 21.25 45.75H4.25C2.86929 45.75 1.75 44.6307 1.75 43.25ZM35.6396 19.4089L29.6701 28.3632C28.9042 29.5121 29.2147 31.0642 30.3635 31.8301C31.5123 32.596 33.0645 32.2856 33.8303 31.1367L35.25 29.0073V43.75C35.25 45.1307 36.3693 46.25 37.75 46.25C39.1307 46.25 40.25 45.1307 40.25 43.75V29.0066L41.6701 31.1368C42.436 32.2856 43.9882 32.596 45.137 31.8301C46.2858 31.0643 46.5962 29.5121 45.8303 28.3633L39.8619 19.4106C39.6964 19.1493 39.4796 18.915 39.2149 18.7239C39.0275 18.5882 38.8206 18.4779 38.5991 18.3979C38.3154 18.2953 38.02 18.2469 37.727 18.2498C37.5245 18.2515 37.3212 18.2778 37.1218 18.3296C36.9108 18.3842 36.7106 18.4657 36.525 18.5702C36.3251 18.6823 36.1389 18.8231 35.973 18.9911C35.8456 19.1196 35.7342 19.2598 35.6396 19.4089Z" fill="#081E40"/>
</svg>
