<svg width="48" height="48" viewBox="0 0 48 48" fill="none" xmlns="http://www.w3.org/2000/svg">
<path fill-rule="evenodd" clip-rule="evenodd" d="M2 6C2 3.79086 3.79086 2 6 2H42C44.2091 2 46 3.79086 46 6V42C46 44.2091 44.2091 46 42 46H6C3.79086 46 2 44.2091 2 42V6ZM9 7C7.89543 7 7 7.89543 7 9V39C7 40.1046 7.89543 41 9 41H39C40.1046 41 41 40.1046 41 39V9C41 7.89543 40.1046 7 39 7H9Z" fill="#081E40"/>
<path fill-rule="evenodd" clip-rule="evenodd" d="M9.5 34C9.5 32.6193 10.6193 31.5 12 31.5L36 31.5C37.3807 31.5 38.5 32.6193 38.5 34C38.5 35.3807 37.3807 36.5 36 36.5H12C10.6193 36.5 9.5 35.3807 9.5 34Z" fill="#081E40"/>
<path fill-rule="evenodd" clip-rule="evenodd" d="M16.5077 11.7635C17.841 11.0016 19.5 11.9644 19.5 13.5V27C19.5 28.1046 18.6046 29 17.5 29C16.3954 29 15.5 28.1046 15.5 27V16.9464L14.9923 17.2365C14.0332 17.7845 12.8115 17.4513 12.2635 16.4923C11.7155 15.5332 12.0487 14.3115 13.0077 13.7635L16.5077 11.7635Z" fill="#081E40"/>
<path fill-rule="evenodd" clip-rule="evenodd" d="M28.0017 16.0262C27.6092 16.4331 27.5 16.8544 27.5 17C27.5 18.1046 26.6046 19 25.5 19C24.3954 19 23.5 18.1046 23.5 17C23.5 14.4634 25.8287 11.4 29.5 11.4C33.5988 11.4 36.1092 15.0093 35.2403 18.4851C34.9051 19.8259 33.8878 20.9046 33.0437 21.6702C32.1774 22.4559 31.1242 23.2266 30.19 23.9101C30.1471 23.9415 30.1044 23.9728 30.062 24.0038C29.8284 24.1748 29.6034 24.34 29.388 24.5H33.5C34.6046 24.5 35.5 25.3954 35.5 26.5C35.5 27.6046 34.6046 28.5 33.5 28.5H25C23.8954 28.5 23 27.6046 23 26.5C23 25.6792 23.3088 24.9851 23.6363 24.4666C23.9662 23.9444 24.3922 23.4783 24.8145 23.0749C25.6494 22.2775 26.7338 21.483 27.6992 20.7762L27.7433 20.744C28.7459 20.01 29.6493 19.3487 30.3565 18.7073C30.7091 18.3875 30.9669 18.1129 31.1414 17.882C31.2266 17.7692 31.282 17.6798 31.3167 17.6135C31.3337 17.5811 31.3445 17.5565 31.3512 17.5396C31.3577 17.5228 31.3597 17.5149 31.3597 17.5149C31.608 16.5216 30.9533 15.4 29.5 15.4C28.8473 15.4 28.3519 15.6633 28.0017 16.0262Z" fill="#081E40"/>
</svg>
