<svg width="48" height="48" viewBox="0 0 48 48" fill="none" xmlns="http://www.w3.org/2000/svg">
<g clip-path="url(#clip0_3634_12)">
<path fill-rule="evenodd" clip-rule="evenodd" d="M41.9085 1.3852C41.0167 0.331181 39.4392 0.199727 38.3852 1.09159C37.3312 1.98345 37.1997 3.56089 38.0916 4.61491L39.6867 6.50006H5.00002C2.51474 6.50006 0.50002 8.51478 0.50002 11.0001V24.0001C0.50002 25.3808 1.61931 26.5001 3.00002 26.5001C4.38073 26.5001 5.50002 25.3808 5.50002 24.0001V11.5001H40.5329L38.0916 14.3852C37.1997 15.4392 37.3312 17.0167 38.3852 17.9085C39.4392 18.8004 41.0167 18.6689 41.9085 17.6149L46.3154 12.4068C47.7351 10.729 47.7351 8.27112 46.3154 6.59331L41.9085 1.3852ZM46.5 37.0001C46.5 39.4853 44.4853 41.5001 42 41.5001L7.8133 41.5001L9.40843 43.3852C10.3003 44.4392 10.1688 46.0167 9.11482 46.9085C8.06081 47.8004 6.48336 47.6689 5.5915 46.6149L1.18463 41.4068C-0.235047 39.729 -0.235047 37.2711 1.18463 35.5933L5.5915 30.3852C6.48336 29.3312 8.06081 29.1997 9.11482 30.0916C10.1688 30.9835 10.3003 32.5609 9.40843 33.6149L6.96717 36.5001L41.5 36.5001V24.0001C41.5 22.6193 42.6193 21.5001 44 21.5001C45.3807 21.5001 46.5 22.6193 46.5 24.0001V37.0001Z" fill="#081E40"/>
</g>
<defs>
<clipPath id="clip0_3634_12">
<rect width="48" height="48" fill="white"/>
</clipPath>
</defs>
</svg>
