<svg width="48" height="48" viewBox="0 0 48 48" fill="none" xmlns="http://www.w3.org/2000/svg">
<g clip-path="url(#clip0_13867_335)">
<path d="M0 32.2891C0.000221602 30.6324 1.34328 29.2891 3 29.2891C4.65672 29.2891 5.99978 30.6324 6 32.2891V42H16.8154C18.4723 42 19.8154 43.3431 19.8154 45C19.8154 46.6569 18.4723 48 16.8154 48H5C2.23857 48 0 45.7614 0 43V32.2891ZM0 15.1582V5C0 2.23858 2.23858 0 5 0H16.2627C17.9195 0 19.2627 1.34315 19.2627 3C19.2627 4.65685 17.9195 6 16.2627 6H6V15.1582C5.99983 16.8149 4.65675 18.1582 3 18.1582C1.34325 18.1582 0.000166978 16.8149 0 15.1582ZM48 43C48 45.7614 45.7614 48 43 48H32.8418C31.1851 47.9998 29.8418 46.6568 29.8418 45C29.8418 43.3432 31.1851 42.0002 32.8418 42H42V32.2891C42.0002 30.6324 43.3433 29.2891 45 29.2891C46.6567 29.2891 47.9998 30.6324 48 32.2891V43ZM48 15.1582C47.9998 16.8149 46.6567 18.1582 45 18.1582C43.3433 18.1582 42.0002 16.8149 42 15.1582V6H32.2891C30.6324 5.99978 29.2891 4.65672 29.2891 3C29.2891 1.34328 30.6324 0.000221602 32.2891 0H43C45.7614 0 48 2.23858 48 5V15.1582Z" fill="#081E40"/>
</g>
<defs>
<clipPath id="clip0_13867_335">
<rect width="48" height="48" fill="white"/>
</clipPath>
</defs>
</svg>
