<svg width="48" height="48" viewBox="0 0 48 48" fill="none" xmlns="http://www.w3.org/2000/svg">
<g clip-path="url(#clip0_3718_526)">
<path fill-rule="evenodd" clip-rule="evenodd" d="M4 4C4 1.79086 5.79086 0 8 0H39C41.2091 0 43 1.79086 43 4V19.5C43 20.8807 41.8807 22 40.5 22C39.1193 22 38 20.8807 38 19.5V7C38 5.89543 37.1046 5 36 5H11C9.89543 5 9 5.89543 9 7V41C9 42.1046 9.89543 43 11 43L17 43C18.3807 43 19.5 44.1193 19.5 45.5C19.5 46.8807 18.3807 48 17 48L8 48C5.79086 48 4 46.2091 4 44V4ZM14 10C12.6193 10 11.5 11.1193 11.5 12.5C11.5 13.8807 12.6193 15 14 15H32C33.3807 15 34.5 13.8807 34.5 12.5C34.5 11.1193 33.3807 10 32 10H14ZM14 19C12.6193 19 11.5 20.1193 11.5 21.5C11.5 22.8807 12.6193 24 14 24H23C24.3807 24 25.5 22.8807 25.5 21.5C25.5 20.1193 24.3807 19 23 19H14ZM39.8826 23.6075C38.8374 22.7054 37.2587 22.8213 36.3565 23.8665C35.4544 24.9117 35.5703 26.4904 36.6155 27.3925L38.4779 29H26.2003C24.8196 29 23.7003 30.1193 23.7003 31.5C23.7003 32.8808 24.8196 34 26.2003 34H42.5113C45.7547 34 47.2535 29.9698 44.7983 27.8505L39.8826 23.6075ZM29.8179 47.3925C30.8631 48.2947 32.4417 48.1788 33.3439 47.1336C34.2461 46.0884 34.1301 44.5097 33.0849 43.6075L31.2226 42H43.5002C44.8809 42 46.0002 40.8808 46.0002 39.5C46.0002 38.1193 44.8809 37 43.5002 37H27.1891C23.9457 37 22.4469 41.0303 24.9022 43.1496L29.8179 47.3925Z" fill="#081E40"/>
</g>
<defs>
<clipPath id="clip0_3718_526">
<rect width="48" height="48" fill="white"/>
</clipPath>
</defs>
</svg>
