<svg width="48" height="48" viewBox="0 0 48 48" fill="none" xmlns="http://www.w3.org/2000/svg">
<path d="M20.1461 3.11364C25.137 2.27594 30.2635 3.26892 34.5807 5.90953C37.5999 7.75641 40.082 10.3226 41.8238 13.349C42.0304 13.708 42.543 14.7253 42.564 14.7669L44.5015 14.0462C45.1376 13.8095 45.7619 14.4229 45.5357 15.0628L43.4322 21.013C43.2708 21.4695 42.7439 21.679 42.313 21.4583L36.4762 18.4662C35.8573 18.1488 35.9104 17.247 36.5621 17.0042L38.5562 16.2611C38.5474 16.244 38.251 15.6684 38.1363 15.4691C36.7473 13.0563 34.7683 11.01 32.3609 9.53745C28.9182 7.43172 24.8302 6.63994 20.8502 7.30796C16.8702 7.97608 13.2654 10.0597 10.6989 13.1742C8.13249 16.2886 6.77669 20.2249 6.88154 24.2591C6.98647 28.2935 8.54526 32.1543 11.2702 35.1312C13.9951 38.108 17.7032 40.0009 21.7125 40.4612C25.7218 40.9215 29.7628 39.9188 33.0914 37.637C35.419 36.0414 37.2896 33.8952 38.5513 31.4134C38.7753 30.9728 38.9798 30.5214 39.1646 30.0609C39.219 29.9253 39.2849 29.7952 39.3599 29.6732C39.8881 28.8144 40.8923 28.3187 41.8873 28.5775C43.0237 28.8734 43.7163 30.0401 43.3072 31.1409C43.2444 31.3098 43.1788 31.4779 43.1119 31.6448C42.8804 32.2216 42.6237 32.7865 42.3433 33.3382C40.7611 36.4512 38.4161 39.1434 35.4967 41.1448C31.3226 44.0062 26.2548 45.264 21.2272 44.6868C16.1997 44.1095 11.5495 41.736 8.13251 38.0032C4.71565 34.2704 2.76129 29.4292 2.6296 24.3704C2.49803 19.3114 4.19829 14.3746 7.41669 10.4691C10.635 6.56366 15.1553 3.95143 20.1461 3.11364ZM22.4996 10.5003C23.6042 10.5003 24.4996 11.3958 24.4996 12.5003V22.7337C24.4996 23.0968 24.6969 23.4314 25.0143 23.6077L32.4713 27.7523L32.6451 27.8607C33.4766 28.4401 33.7504 29.5669 33.2476 30.472C32.7446 31.3765 31.6435 31.739 30.7125 31.3392L30.5279 31.2484L22.0426 26.5345C21.15 26.0386 20.5751 25.1252 20.5065 24.1156L20.4996 23.9115V12.5003C20.4996 11.3959 21.3952 10.5005 22.4996 10.5003Z" fill="#081E40"/>
</svg>
