<svg width="48" height="48" viewBox="0 0 48 48" fill="none" xmlns="http://www.w3.org/2000/svg">
<path d="M21.8135 33.5479C23.0118 32.5892 24.6829 32.5294 25.9404 33.3682L26.1865 33.5479L35.5615 41.0479C36.6396 41.9104 36.8145 43.4835 35.9521 44.5616C35.0897 45.6395 33.5166 45.8145 32.4385 44.9522L24 38.2012L15.5615 44.9522C14.4834 45.8145 12.9103 45.6396 12.0479 44.5616C11.1855 43.4835 11.3605 41.9104 12.4385 41.0479L21.8135 33.5479ZM44 25.5001C45.3807 25.5001 46.5 26.6193 46.5 28.0001C46.4999 29.3807 45.3807 30.5001 44 30.5001H4C2.61933 30.5001 1.50006 29.3807 1.5 28.0001C1.5 26.6193 2.61929 25.5001 4 25.5001H44ZM44 17.5001C45.3807 17.5001 46.5 18.6193 46.5 20.0001C46.4999 21.3807 45.3807 22.5001 44 22.5001H4C2.61933 22.5001 1.50006 21.3807 1.5 20.0001C1.5 18.6193 2.61929 17.5001 4 17.5001H44ZM32.4385 3.04791C33.5166 2.18549 35.0897 2.36042 35.9521 3.43853C36.8146 4.51669 36.6396 6.08972 35.5615 6.95221L26.1865 14.4522L25.9404 14.6319C24.6829 15.4707 23.0118 15.4109 21.8135 14.4522L12.4385 6.95221C11.3604 6.08972 11.1854 4.51669 12.0479 3.43853C12.9103 2.36042 14.4834 2.18549 15.5615 3.04791L24 9.79889L32.4385 3.04791Z" fill="#081E40"/>
</svg>
