<svg width="48" height="48" viewBox="0 0 48 48" fill="none" xmlns="http://www.w3.org/2000/svg">
<path fill-rule="evenodd" clip-rule="evenodd" d="M11.5 4.5C11.5 3.11929 10.3807 2 9 2C7.61929 2 6.5 3.11929 6.5 4.5L6.5 33.5H5C3.61929 33.5 2.5 34.6193 2.5 36C2.5 37.3807 3.61929 38.5 5 38.5H6.5L6.5 43.5C6.5 44.8807 7.61929 46 9 46C10.3807 46 11.5 44.8807 11.5 43.5V38.5H13C14.3807 38.5 15.5 37.3807 15.5 36C15.5 34.6193 14.3807 33.5 13 33.5H11.5L11.5 4.5ZM26.5 4.5C26.5 3.11929 25.3807 2 24 2C22.6193 2 21.5 3.11929 21.5 4.5V9.5H20C18.6193 9.5 17.5 10.6193 17.5 12C17.5 13.3807 18.6193 14.5 20 14.5H21.5L21.5 43.5C21.5 44.8807 22.6193 46 24 46C25.3807 46 26.5 44.8807 26.5 43.5L26.5 14.5H28C29.3807 14.5 30.5 13.3807 30.5 12C30.5 10.6193 29.3807 9.5 28 9.5H26.5V4.5ZM39 2C40.3807 2 41.5 3.11929 41.5 4.5L41.5 33.5H43C44.3807 33.5 45.5 34.6193 45.5 36C45.5 37.3807 44.3807 38.5 43 38.5H41.5V43.5C41.5 44.8807 40.3807 46 39 46C37.6193 46 36.5 44.8807 36.5 43.5V38.5H35C33.6193 38.5 32.5 37.3807 32.5 36C32.5 34.6193 33.6193 33.5 35 33.5H36.5L36.5 4.5C36.5 3.11929 37.6193 2 39 2Z" fill="#081E40"/>
</svg>
