<svg width="48" height="48" viewBox="0 0 48 48" fill="none" xmlns="http://www.w3.org/2000/svg">
<path fill-rule="evenodd" clip-rule="evenodd" d="M6.12132 27.4071C4.94975 28.5786 3.05025 28.5786 1.87868 27.4071C0.707107 26.2355 0.707107 24.336 1.87868 23.1644L21.1716 3.87152C22.7337 2.30943 25.2663 2.30943 26.8284 3.87153L46.1213 23.1644C47.2929 24.336 47.2929 26.2355 46.1213 27.4071C44.9497 28.5786 43.0503 28.5786 41.8787 27.4071L24.7071 10.2355C24.3166 9.84496 23.6834 9.84496 23.2929 10.2355L6.12132 27.4071ZM6.12132 44.4071C4.94975 45.5786 3.05025 45.5786 1.87868 44.4071C0.707107 43.2355 0.707107 41.336 1.87868 40.1644L21.1716 20.8715C22.7337 19.3094 25.2663 19.3094 26.8284 20.8715L46.1213 40.1644C47.2929 41.336 47.2929 43.2355 46.1213 44.4071C44.9497 45.5786 43.0503 45.5786 41.8787 44.4071L24.7071 27.2355C24.3166 26.845 23.6834 26.845 23.2929 27.2355L6.12132 44.4071Z" fill="#081E40"/>
</svg>
