<svg width="48" height="48" viewBox="0 0 48 48" fill="none" xmlns="http://www.w3.org/2000/svg">
<path fill-rule="evenodd" clip-rule="evenodd" d="M1.87868 20.5786C3.05025 19.4071 4.94975 19.4071 6.12132 20.5786L23.2929 37.7502C23.6834 38.1407 24.3166 38.1407 24.7071 37.7502L41.8787 20.5786C43.0503 19.4071 44.9497 19.4071 46.1213 20.5786C47.2929 21.7502 47.2929 23.6497 46.1213 24.8213L26.8284 44.1142C25.2663 45.6763 22.7337 45.6763 21.1716 44.1142L1.87868 24.8213C0.707107 23.6497 0.707107 21.7502 1.87868 20.5786Z" fill="#081E40"/>
<path fill-rule="evenodd" clip-rule="evenodd" d="M1.87868 3.57863C3.05025 2.40706 4.94975 2.40706 6.12132 3.57863L23.2929 20.7502C23.6834 21.1407 24.3166 21.1407 24.7071 20.7502L41.8787 3.57863C43.0503 2.40706 44.9497 2.40706 46.1213 3.57863C47.2929 4.7502 47.2929 6.6497 46.1213 7.82127L26.8284 27.1142C25.2663 28.6763 22.7337 28.6763 21.1716 27.1142L1.87868 7.82127C0.707107 6.6497 0.707107 4.7502 1.87868 3.57863Z" fill="#081E40"/>
</svg>
