<svg width="48" height="48" viewBox="0 0 48 48" fill="none" xmlns="http://www.w3.org/2000/svg">
<path fill-rule="evenodd" clip-rule="evenodd" d="M27.4071 1.87868C28.5786 3.05025 28.5786 4.94975 27.4071 6.12132L10.2355 23.2929C9.84496 23.6834 9.84496 24.3166 10.2355 24.7071L27.4071 41.8787C28.5786 43.0503 28.5786 44.9497 27.4071 46.1213C26.2355 47.2929 24.336 47.2929 23.1644 46.1213L3.87153 26.8284C2.30943 25.2663 2.30943 22.7337 3.87152 21.1716L23.1644 1.87868C24.336 0.707107 26.2355 0.707107 27.4071 1.87868Z" fill="#081E40"/>
<path fill-rule="evenodd" clip-rule="evenodd" d="M44.4071 1.87868C45.5786 3.05025 45.5786 4.94975 44.4071 6.12132L27.2355 23.2929C26.845 23.6834 26.845 24.3166 27.2355 24.7071L44.4071 41.8787C45.5786 43.0503 45.5786 44.9497 44.4071 46.1213C43.2355 47.2929 41.336 47.2929 40.1644 46.1213L20.8715 26.8284C19.3094 25.2663 19.3094 22.7337 20.8715 21.1716L40.1644 1.87868C41.336 0.707107 43.2355 0.707107 44.4071 1.87868Z" fill="#081E40"/>
</svg>
