<svg width="48" height="48" viewBox="0 0 48 48" fill="none" xmlns="http://www.w3.org/2000/svg">
<path fill-rule="evenodd" clip-rule="evenodd" d="M20.5786 1.87868C19.4071 3.05025 19.4071 4.94975 20.5786 6.12132L37.7502 23.2929C38.1407 23.6834 38.1407 24.3166 37.7502 24.7071L20.5786 41.8787C19.4071 43.0503 19.4071 44.9497 20.5786 46.1213C21.7502 47.2929 23.6497 47.2929 24.8213 46.1213L44.1142 26.8284C45.6763 25.2663 45.6763 22.7337 44.1142 21.1716L24.8213 1.87868C23.6497 0.707107 21.7502 0.707107 20.5786 1.87868Z" fill="#081E40"/>
<path fill-rule="evenodd" clip-rule="evenodd" d="M3.57863 1.87868C2.40706 3.05025 2.40706 4.94975 3.57863 6.12132L20.7502 23.2929C21.1407 23.6834 21.1407 24.3166 20.7502 24.7071L3.57863 41.8787C2.40706 43.0503 2.40706 44.9497 3.57863 46.1213C4.7502 47.2929 6.6497 47.2929 7.82127 46.1213L27.1142 26.8284C28.6763 25.2663 28.6763 22.7337 27.1142 21.1716L7.82127 1.87868C6.6497 0.707107 4.75021 0.707107 3.57863 1.87868Z" fill="#081E40"/>
</svg>
