<svg width="48" height="48" viewBox="0 0 48 48" fill="none" xmlns="http://www.w3.org/2000/svg">
<path fill-rule="evenodd" clip-rule="evenodd" d="M35.3728 11.3882L9.3518 25.8808L15.118 28.7639C16.3529 29.3814 16.8535 30.8831 16.236 32.118C15.6186 33.353 14.1169 33.8535 12.8819 33.2361L3.72869 28.6594C1.57221 27.5812 1.50422 24.5284 3.61059 23.3553L41.4333 2.28946C43.5667 1.10123 46.1501 2.82367 45.8737 5.24994L41.562 43.0976C41.331 45.1254 39.1865 46.3356 37.3313 45.4853L25.9583 40.2727C24.7032 39.6974 24.152 38.2135 24.7273 36.9584C25.3026 35.7032 26.7864 35.1521 28.0416 35.7273L36.9064 39.7904L39.8726 13.7541L22.5 35.8647V43.5C22.5 44.8807 21.3807 46 20 46C18.6192 46 17.5 44.8807 17.5 43.5V35.3459C17.5 34.5616 17.7633 33.8001 18.2478 33.1835L35.3728 11.3882Z" fill="#081E40"/>
</svg>
