<svg width="48" height="48" viewBox="0 0 48 48" fill="none" xmlns="http://www.w3.org/2000/svg">
<path fill-rule="evenodd" clip-rule="evenodd" d="M24 48C37.2548 48 48 37.2548 48 24C48 10.7452 37.2548 0 24 0C10.7452 0 0 10.7452 0 24C0 37.2548 10.7452 48 24 48ZM24.6795 12.0095C24.5496 11.9969 24.4187 11.9968 24.2889 12.0095C24.258 12.0125 24.2274 12.0173 24.197 12.0221C24.1905 12.0231 24.184 12.0241 24.1775 12.0251C24.169 12.0265 24.1604 12.0277 24.1518 12.0289C24.1333 12.0316 24.1148 12.0342 24.0965 12.0378C24.0721 12.0426 24.0481 12.049 24.0242 12.0553C24.0141 12.058 24.004 12.0607 23.994 12.0632C23.9837 12.0658 23.9734 12.0682 23.9631 12.0707C23.9423 12.0756 23.9216 12.0804 23.9012 12.0866C23.8863 12.0912 23.8717 12.0967 23.8571 12.1021C23.8481 12.1055 23.839 12.1089 23.8299 12.112C23.8228 12.1145 23.8157 12.1169 23.8085 12.1194C23.7777 12.1299 23.7468 12.1405 23.7166 12.1531C23.7013 12.1594 23.6863 12.1666 23.6714 12.1738C23.6634 12.1777 23.6553 12.1816 23.6473 12.1853C23.6102 12.2024 23.5731 12.2195 23.5369 12.239C23.5248 12.2455 23.513 12.2527 23.5013 12.2599C23.494 12.2644 23.4867 12.2689 23.4793 12.2732C23.4721 12.2773 23.465 12.2815 23.4578 12.2856C23.4331 12.2998 23.4084 12.3141 23.3846 12.3298L23.367 12.3415C23.3341 12.3638 23.3026 12.388 23.2712 12.4122L23.2654 12.4167C23.259 12.4217 23.2525 12.4264 23.2459 12.4312C23.2367 12.4379 23.2274 12.4446 23.2186 12.4519C23.1672 12.494 23.118 12.5388 23.0711 12.5857L14.5857 21.071C13.8047 21.852 13.8048 23.1181 14.5857 23.8991C15.3668 24.6802 16.6328 24.6802 17.4139 23.8991L22.4852 18.8279V33.7995C22.4854 34.9039 23.3807 35.7995 24.4852 35.7995C25.5895 35.7994 26.4849 34.9038 26.4852 33.7995V18.8279L31.5565 23.8991C32.3375 24.6802 33.6035 24.6802 34.3846 23.8991C35.1653 23.1181 35.1655 21.852 34.3846 21.071L25.8992 12.5857C25.8061 12.4926 25.7035 12.409 25.5936 12.3357C25.5745 12.3229 25.5548 12.3114 25.5351 12.2998C25.5273 12.2952 25.5194 12.2906 25.5115 12.2859C25.5035 12.281 25.4955 12.2761 25.4875 12.2712C25.4678 12.2591 25.448 12.247 25.4275 12.2361C25.4098 12.2266 25.3916 12.2183 25.3734 12.21C25.3641 12.2057 25.3548 12.2014 25.3455 12.197C25.3364 12.1927 25.3274 12.1882 25.3184 12.1838C25.2951 12.1724 25.2719 12.161 25.2479 12.1511C25.2235 12.1411 25.1988 12.1325 25.174 12.1239C25.1664 12.1213 25.1588 12.1186 25.1512 12.1159C25.1421 12.1127 25.133 12.1094 25.124 12.106C25.1055 12.0992 25.0871 12.0924 25.0682 12.0866C25.0477 12.0804 25.0269 12.0755 25.0061 12.0706C24.9959 12.0682 24.9856 12.0658 24.9754 12.0632C24.9647 12.0605 24.954 12.0576 24.9433 12.0548C24.9203 12.0486 24.8973 12.0424 24.8738 12.0378C24.8558 12.0343 24.8375 12.0318 24.8193 12.0293C24.8095 12.028 24.7996 12.0266 24.7899 12.0251C24.7818 12.0239 24.7737 12.0226 24.7656 12.0213C24.7371 12.0168 24.7085 12.0123 24.6795 12.0095Z" fill="#081E40"/>
</svg>
