<svg width="48" height="48" viewBox="0 0 48 48" fill="none" xmlns="http://www.w3.org/2000/svg">
<g clip-path="url(#clip0_8016_95)">
<path fill-rule="evenodd" clip-rule="evenodd" d="M43 24C43 34.4934 34.4934 43 24 43C13.5066 43 5 34.4934 5 24C5 13.5066 13.5066 5 24 5C34.4934 5 43 13.5066 43 24ZM48 24C48 37.2548 37.2548 48 24 48C10.7452 48 0 37.2548 0 24C0 10.7452 10.7452 0 24 0C37.2548 0 48 10.7452 48 24ZM27.2226 11.7036C26.5924 11.0745 25.5161 11.5208 25.5161 12.4113V16.6133C24.9263 16.7938 24.2545 16.9539 23.533 17.126C18.8254 18.2484 12 19.8758 12 30.9315V32.676C12 33.7201 13.399 34.0656 13.885 33.1415L14.5144 31.9451C16.7102 26.4804 21.0752 25.8127 23.7864 25.398C24.5014 25.2887 25.1013 25.1969 25.5161 25.0394V28.5203C25.5161 29.4108 26.5924 29.8571 27.2226 29.228L35.2911 21.1735C35.6824 20.7828 35.6824 20.1487 35.2911 19.7581L27.2226 11.7036Z" fill="#081E40"/>
</g>
<defs>
<clipPath id="clip0_8016_95">
<rect width="48" height="48" fill="white"/>
</clipPath>
</defs>
</svg>
