<svg width="48" height="48" viewBox="0 0 48 48" fill="none" xmlns="http://www.w3.org/2000/svg">
<path d="M7.50033 3C10.5377 3.00018 13.0003 5.46255 13.0003 8.50001C13.0003 8.78696 12.9773 9.06867 12.9349 9.34376L16.0951 11.168C20.0294 5.98882 26.8405 3.42161 33.5111 5.20899C42.3132 7.56762 47.5366 16.6149 45.1781 25.417C42.8195 34.2192 33.7722 39.4425 24.9701 37.0841C22.5093 36.4247 20.3289 35.2419 18.515 33.6885L16.8519 34.9942C17.493 36.5398 17.6495 38.3008 17.1829 40.0421C16.0576 44.2412 11.7416 46.7335 7.54232 45.6085C3.34284 44.4832 0.850667 40.1664 1.97592 35.9669C3.10116 31.7675 7.4172 29.2755 11.6165 30.4004C12.3173 30.5882 12.9699 30.8667 13.5667 31.2169L15.2513 29.8946C12.9101 26.149 12.0697 21.4792 13.3031 16.876C13.4226 16.4298 13.5592 15.9928 13.7122 15.5655L10.2503 13.5674C10.1617 13.5162 10.0782 13.4584 9.99838 13.3985C9.24853 13.7817 8.40022 14 7.50033 14C4.46276 14 2.00033 11.5376 2.00033 8.50001C2.00033 5.46244 4.46276 3 7.50033 3ZM10.3226 35.2305C8.7905 34.8201 7.21558 35.7287 6.80502 37.2608C6.39448 38.793 7.30412 40.3678 8.83627 40.7784C10.3683 41.1889 11.9431 40.28 12.3538 38.7481C12.7644 37.216 11.8548 35.6411 10.3226 35.2305ZM32.2171 10.0381C26.0823 8.39427 19.776 12.0351 18.1322 18.17C16.4883 24.3048 20.1291 30.6111 26.264 32.2549C32.3988 33.8987 38.7051 30.2579 40.349 24.1231C41.9928 17.9883 38.3519 11.682 32.2171 10.0381ZM29.5316 12.5449C34.0141 12.6534 36.0557 15.284 36.9144 16.668L36.9134 16.669C37.7185 17.9545 38.0555 19.3254 38.0101 21.2071C37.9501 23.6877 37.0065 25.8273 35.4017 27.3301C33.8023 28.8278 31.641 29.6044 29.304 29.5479C24.4914 29.4314 20.8957 25.6133 21.0121 20.7959C21.0174 20.5736 21.0285 20.3559 21.0462 20.1426C20.5419 20.1204 20.0527 19.8766 19.7367 19.4336C19.1915 18.6693 19.3689 17.6087 20.1331 17.0635L23.0902 14.9541C23.3005 14.8041 23.5334 14.7095 23.7718 14.666C24.6752 14.4284 25.6027 14.9659 25.846 15.8692L26.804 19.4278C27.0478 20.334 26.511 21.2665 25.6048 21.5108C25.1934 21.6215 24.7767 21.5702 24.4212 21.3975C24.5953 24.0983 26.6457 26.0821 29.3861 26.1485C30.9118 26.1853 32.1844 25.6837 33.0765 24.8487C33.9631 24.0184 34.571 22.768 34.6107 21.1241C34.6436 19.7588 34.4119 19.0777 34.0296 18.4688L34.0247 18.461C33.4729 17.5715 32.3159 16.0136 29.4486 15.9444C28.5103 15.9214 27.7679 15.1424 27.7904 14.2041C27.8132 13.2657 28.5931 12.5224 29.5316 12.5449ZM7.50033 7.00001C6.6719 7.00001 6.00033 7.67158 6.00033 8.50001C6.00033 9.32844 6.6719 10 7.50033 10C8.32861 9.99984 9.00033 9.32833 9.00033 8.50001C9.00033 7.67169 8.32861 7.00019 7.50033 7.00001Z" fill="#081E40"/>
</svg>
