<svg width="48" height="48" viewBox="0 0 48 48" fill="none" xmlns="http://www.w3.org/2000/svg">
<g clip-path="url(#clip0_15572_316)">
<rect width="48" height="48" fill="white"/>
<path fill-rule="evenodd" clip-rule="evenodd" d="M43.2988 15.4853C44.5664 14.9379 46.0521 15.5193 46.4619 16.8379C47.7905 21.1125 47.8751 25.6966 46.6787 30.0459C45.2603 35.2022 42.1252 39.7204 37.792 42.8545C33.4589 45.9884 28.1866 47.5505 22.8457 47.2832C17.5992 47.0205 12.5953 45.0072 8.6299 41.5703L7.22853 43.1055C6.65067 43.738 5.59696 43.3987 5.49708 42.5478L4.63087 35.1631C4.55988 34.5581 5.04149 34.0307 5.6504 34.0469L13.084 34.2441C13.9402 34.2672 14.3727 35.2855 13.7949 35.918L12.0029 37.8779C15.1086 40.5315 19.0083 42.0853 23.0947 42.29C27.2995 42.5005 31.451 41.27 34.8623 38.8027C38.2734 36.3355 40.7408 32.7787 41.8574 28.7197C42.7518 25.4682 42.7366 22.0499 41.8369 18.832C41.4653 17.5023 42.0314 16.0329 43.2988 15.4853ZM23 11.5C24.3807 11.5 25.5 12.6193 25.5 14V23.8398L31.1152 28.5918C32.1689 29.4837 32.3 31.0613 31.4082 32.1152C30.5163 33.1688 28.9386 33.2999 27.8848 32.4082L21.916 27.3574C21.018 26.5974 20.5 25.4802 20.5 24.3037V14C20.5 12.6193 21.6194 11.5001 23 11.5ZM9.94826 5.16406C14.2347 1.96635 19.4837 0.326234 24.8281 0.514643C30.0578 0.699045 35.0729 2.62351 39.0811 5.97753L40.5693 4.25781C41.1298 3.60998 42.1924 3.92083 42.3154 4.76855L43.3818 12.1279C43.469 12.7305 43.0025 13.2709 42.3936 13.2715L34.958 13.2754C34.1013 13.2759 33.6397 12.2691 34.2002 11.6211L35.8096 9.75976C32.6648 7.15177 28.7419 5.65601 24.6524 5.51171C20.445 5.3634 16.3119 6.65451 12.9375 9.17187C9.56329 11.6892 7.14827 15.2823 6.09181 19.3574C5.24558 22.6217 5.31178 26.039 6.2588 29.2432C6.65019 30.5673 6.106 32.045 4.84669 32.6113C3.58733 33.1774 2.09334 32.618 1.66408 31.3057C0.272566 27.0512 0.119996 22.469 1.25197 18.1025C2.59402 12.9259 5.66187 8.3618 9.94826 5.16406Z" fill="#081E40"/>
</g>
<defs>
<clipPath id="clip0_15572_316">
<rect width="48" height="48" fill="white"/>
</clipPath>
</defs>
</svg>
