<svg width="48" height="48" viewBox="0 0 48 48" fill="none" xmlns="http://www.w3.org/2000/svg">
<path fill-rule="evenodd" clip-rule="evenodd" d="M10 42C8.34315 42 7 40.6569 7 39C7 37.3431 8.34315 36 10 36C11.6569 36 13 37.3431 13 39C13 40.6569 11.6569 42 10 42ZM38 13C36.3431 13 35 11.6569 35 10C35 8.34315 36.3431 7 38 7C39.6569 7 41 8.34315 41 10C41 11.6569 39.6569 13 38 13ZM30 10C30 5.58172 33.5817 2 38 2C42.4183 2 46 5.58172 46 10C46 13.5452 43.6939 16.5518 40.5 17.6016V40.5C40.5 41.6046 39.6046 42.5 38.5 42.5H30V44.8964C30 45.7263 29.0476 46.195 28.39 45.6888L22.0294 40.7924C21.5094 40.3921 21.5094 39.6079 22.0294 39.2076L28.39 34.3112C29.0476 33.805 30 34.2738 30 35.1036V37.5H34.5C35.0523 37.5 35.5 37.0523 35.5 36.5V17.6016C32.3061 16.5518 30 13.5452 30 10ZM12.5 31.3984V11.5C12.5 10.9477 12.9477 10.5 13.5 10.5H18V12.8964C18 13.7263 18.9524 14.195 19.61 13.6888L25.9706 8.79242C26.4906 8.39211 26.4906 7.60791 25.9706 7.2076L19.61 2.31118C18.9524 1.80498 18 2.27375 18 3.10359V5.50001H9.5C8.39543 5.50001 7.5 6.39544 7.5 7.50001V31.3984C4.30607 32.4482 2 35.4548 2 39C2 43.4183 5.58172 47 10 47C14.4183 47 18 43.4183 18 39C18 35.4548 15.6939 32.4482 12.5 31.3984Z" fill="#081E40"/>
</svg>
