<svg width="48" height="48" viewBox="0 0 48 48" fill="none" xmlns="http://www.w3.org/2000/svg">
<g clip-path="url(#clip0_15590_295)">
<rect width="48" height="48" fill="white"/>
<path d="M43.5 19.6045C43.5 20.9852 42.3807 22.1045 41 22.1045C39.6193 22.1045 38.5 20.9852 38.5 19.6045V5.5L9.5 5.5L9.5 42.5H17.5C18.8807 42.5 20 43.6193 20 45C20 46.3807 18.8807 47.5 17.5 47.5H4.5L4.5 0.5L43.5 0.5V19.6045ZM42.5049 31.2158C42.9827 30.9393 43.5985 31.1009 43.8311 31.6016C44.8003 33.689 45.0994 36.0352 44.6719 38.3135C44.1824 40.9209 42.7738 43.2676 40.7021 44.9248C38.6306 46.5818 36.0329 47.4405 33.3818 47.3457C31.6551 47.2838 29.9809 46.8177 28.4844 46.0039L28.1475 46.6318C27.7421 47.3866 26.6372 47.3152 26.332 46.5146L24.6953 42.2227C24.4785 41.6535 24.8168 41.024 25.4111 40.8906L29.8926 39.8848C30.7285 39.6971 31.3986 40.5792 30.9932 41.334L30.8496 41.5996C31.6768 42.0543 32.6038 42.3153 33.5605 42.3496C35.0158 42.4017 36.442 41.9301 37.5791 41.0205C38.7162 40.1109 39.4891 38.8227 39.7578 37.3916C39.9645 36.2902 39.8616 35.1598 39.4707 34.123C39.276 33.6064 39.4306 32.9966 39.9082 32.7197L42.5049 31.2158ZM38.0068 24.5732C38.3934 23.8087 39.4993 23.8528 39.8242 24.6455L41.5664 28.8955C41.7974 29.4591 41.4756 30.0969 40.8848 30.2451L36.4287 31.3623C35.5978 31.5705 34.9065 30.705 35.293 29.9404L35.4092 29.71C34.5917 29.335 33.6948 29.1435 32.7822 29.1572C31.3263 29.1792 29.9263 29.7232 28.8369 30.6895C27.7476 31.6557 27.0403 32.9809 26.8447 34.4238C26.6943 35.5341 26.8548 36.6574 27.2979 37.6729C27.5187 38.179 27.3949 38.7969 26.9316 39.0977L24.416 40.7314C23.9528 41.0322 23.3291 40.9015 23.0713 40.4131C21.9971 38.3775 21.5794 36.0491 21.8906 33.752C22.247 31.1232 23.534 28.7086 25.5186 26.9482C27.5031 25.188 30.0536 24.1983 32.7061 24.1582C34.4336 24.1322 36.1291 24.5125 37.665 25.249L38.0068 24.5732ZM23.5 19.0586C24.8807 19.0586 26 20.1779 26 21.5586C25.9998 22.9391 24.8806 24.0586 23.5 24.0586H14.5C13.1194 24.0586 12.0002 22.9391 12 21.5586C12 20.1779 13.1193 19.0586 14.5 19.0586H23.5ZM32.5 10.2676C33.8807 10.2676 35 11.3869 35 12.7676C34.9999 14.1482 33.8807 15.2676 32.5 15.2676L14.5 15.2676C13.1193 15.2676 12.0001 14.1482 12 12.7676C12 11.3869 13.1193 10.2676 14.5 10.2676L32.5 10.2676Z" fill="#081E40"/>
</g>
<defs>
<clipPath id="clip0_15590_295">
<rect width="48" height="48" fill="white"/>
</clipPath>
</defs>
</svg>
