<svg width="48" height="48" viewBox="0 0 48 48" fill="none" xmlns="http://www.w3.org/2000/svg">
<g clip-path="url(#clip0_3555_45)">
<path fill-rule="evenodd" clip-rule="evenodd" d="M23.9048 5.5C18.5465 5.5 13.7217 7.71596 10.3065 11.2687C9.82483 11.7698 9.37142 12.2973 8.94874 12.8487L10.1406 13.6287C11.4201 14.466 11.3248 16.3712 9.96814 17.0766L3.42079 20.4812C2.08983 21.1733 0.498957 20.2081 0.498091 18.7079L0.493653 11.0156C0.492735 9.42542 2.25824 8.4702 3.58884 9.34098L4.75584 10.1047C5.35534 9.29654 6.0056 8.52802 6.70187 7.80369C11.0271 3.30419 17.1397 0.5 23.9048 0.5C30.6699 0.5 36.7825 3.30419 41.1078 7.80369C43.429 10.2184 45.2396 13.1253 46.3615 16.3545C46.8147 17.6587 46.1247 19.0834 44.8205 19.5365C43.5163 19.9897 42.0916 19.2997 41.6385 17.9955C40.7589 15.4637 39.3361 13.1756 37.5031 11.2687C34.088 7.71596 29.2632 5.5 23.9048 5.5ZM3.11606 29.0115C4.40759 28.5233 5.85033 29.1745 6.33851 30.466C8.99156 37.4849 15.8479 42.5 23.9048 42.5C29.957 42.5 35.3317 39.6701 38.7562 35.2868L37.8627 34.7043C36.5818 33.8692 36.6738 31.9639 38.0293 31.2561L44.5707 27.8402C45.9005 27.1458 47.493 28.1082 47.4965 29.6084L47.5142 37.3007C47.5179 38.8909 45.754 39.8491 44.4219 38.9807L42.9565 38.0252C38.6259 43.7796 31.7002 47.5 23.9048 47.5C13.7294 47.5 5.03585 41.1611 1.66148 32.2339C1.1733 30.9424 1.82453 29.4996 3.11606 29.0115ZM23.6026 12.511C27.3491 12.2954 30.5087 15.2658 30.4866 19.0225C30.4847 20.4134 30.0446 21.706 29.2952 22.766C29.508 22.8398 29.7182 22.918 29.9245 23.0005C30.9096 23.3942 31.9645 23.9483 32.8134 24.7304C33.6792 25.5282 34.4932 26.7291 34.4932 28.3122V30.3322C34.4932 32.0802 33.0734 33.5 31.3254 33.5H16.6678C14.9198 33.5 13.5001 32.0802 13.5001 30.3322V28.3289C13.5001 26.7471 14.3086 25.544 15.1755 24.7414C16.0246 23.9554 17.0803 23.3989 18.0662 23.0035C18.2677 22.9227 18.4729 22.8461 18.6806 22.7736C17.8474 21.5967 17.3946 20.1331 17.4951 18.5693L17.4956 18.562C17.7138 15.3167 20.3577 12.7018 23.5994 12.5112L23.6026 12.511ZM25.4866 18.9954C25.4928 18.1493 24.7822 17.4522 23.8915 17.5026C23.1617 17.5464 22.5353 18.1679 22.4846 18.8939C22.4284 19.8004 23.1331 20.5201 23.9799 20.5201C24.8128 20.5201 25.4866 19.8432 25.4866 19.0135V19.0044L25.4866 18.9954ZM18.5 28.4822V28.5H29.4932V28.4742C29.4762 28.4561 29.4539 28.4339 29.4253 28.4075C29.1922 28.1927 28.7488 27.9152 28.0686 27.6432C26.7044 27.0979 25.0207 26.8223 23.9966 26.8223C22.9726 26.8223 21.2899 27.0979 19.9272 27.6443C19.2478 27.9167 18.8052 28.1949 18.5722 28.4106C18.5412 28.4393 18.5177 28.4631 18.5 28.4822Z" fill="#081E40"/>
</g>
<defs>
<clipPath id="clip0_3555_45">
<rect width="48" height="48" fill="white"/>
</clipPath>
</defs>
</svg>
