<svg width="48" height="48" viewBox="0 0 48 48" fill="none" xmlns="http://www.w3.org/2000/svg">
<g clip-path="url(#clip0_14351_327)">
<path d="M25.9999 21.5002C27.3806 21.5002 28.4999 22.6195 28.4999 24.0002V37.6418L31.3036 34.8391C32.2799 33.8629 33.8625 33.8628 34.8387 34.8391C35.8149 35.8153 35.8149 37.3979 34.8387 38.3742L27.7675 45.4455C26.7912 46.4217 25.2086 46.4217 24.2323 45.4455L17.161 38.3742C16.1849 37.3979 16.1848 35.8153 17.161 34.8391C18.1373 33.8628 19.7198 33.8629 20.6962 34.8391L23.4999 37.6418V24.0002C23.4999 22.6195 24.6192 21.5002 25.9999 21.5002ZM16.6561 4.09198C19.6833 3.78883 22.739 4.23702 25.5516 5.39667C28.3642 6.55629 30.8473 8.39191 32.7811 10.7404C34.3076 12.5943 35.4531 14.7234 36.163 17.0051C38.0007 16.9513 39.8373 17.3386 41.5135 18.1506C43.9423 19.3271 45.8798 21.3204 46.9872 23.7814C48.0945 26.2427 48.3008 29.0154 47.5702 31.6135C46.8394 34.2116 45.2181 36.4701 42.9901 37.9933C41.8504 38.7723 40.2948 38.4805 39.5155 37.341C38.7363 36.2013 39.0292 34.6457 40.1688 33.8664C41.428 33.0055 42.3437 31.7283 42.7567 30.2599C43.1697 28.7915 43.0535 27.2244 42.4276 25.8332C41.8018 24.4422 40.7066 23.3156 39.3339 22.6506C37.961 21.9856 36.3974 21.8242 34.9178 22.1955C33.5788 22.5314 32.2208 21.7181 31.8846 20.3791C31.8748 20.34 31.8691 20.3 31.8612 20.2609C31.8094 20.1279 31.7653 19.9897 31.7362 19.8449C31.2996 17.6683 30.3328 15.6329 28.9218 13.9191C27.5105 12.2053 25.6979 10.866 23.6454 10.0197C21.5931 9.17359 19.364 8.84644 17.1552 9.06757C14.9462 9.28879 12.8252 10.0509 10.9813 11.2873C9.13759 12.5236 7.62717 14.196 6.58386 16.1555C5.54058 18.1151 4.99625 20.3026 4.99988 22.5226C5.0036 24.7424 5.55485 26.927 6.60437 28.883C7.65411 30.8392 9.17052 32.5071 11.0184 33.7375C12.1672 34.5027 12.4785 36.0542 11.7137 37.2033C10.9485 38.3524 9.39614 38.6646 8.24695 37.8996C5.71461 36.2135 3.63665 33.928 2.19812 31.2473C0.759807 28.5667 0.00488633 25.5725 -0.00012207 22.5305C-0.00509161 19.4882 0.7401 16.4912 2.1698 13.8058C3.59954 11.1205 5.67036 8.8293 8.19714 7.13495C10.7238 5.44076 13.6292 4.39518 16.6561 4.09198Z" fill="#081E40"/>
</g>
<defs>
<clipPath id="clip0_14351_327">
<rect width="48" height="48" fill="white"/>
</clipPath>
</defs>
</svg>
