<svg width="48" height="48" viewBox="0 0 48 48" fill="none" xmlns="http://www.w3.org/2000/svg">
<path d="M27 7.58569L27 34.5857C27 35.9664 25.8807 37.0857 24.5 37.0857C23.1193 37.0857 22 35.9664 22 34.5857L22 7.58569C22 6.20498 23.1193 5.08569 24.5 5.08569C25.8807 5.08569 27 6.20498 27 7.58569Z" fill="#081E40"/>
<path d="M41.5 45.5857L7.5 45.5857C6.11929 45.5857 5 44.4664 5 43.0857C5 41.705 6.11929 40.5857 7.5 40.5857L41.5 40.5857C42.8807 40.5857 44 41.7049 44 43.0857C44 44.4664 42.8807 45.5857 41.5 45.5857Z" fill="#081E40"/>
<path d="M12.7675 19.3533C11.7912 20.3296 10.2087 20.3296 9.23237 19.3533C8.25606 18.377 8.25606 16.7944 9.23237 15.8181L22.0253 3.02515C23.3922 1.65841 25.6077 1.65842 26.9746 3.02515L39.7675 15.8181C40.7438 16.7944 40.7438 18.377 39.7675 19.3533C38.7912 20.3296 37.2087 20.3296 36.2324 19.3533L24.4999 7.62085L12.7675 19.3533Z" fill="#081E40"/>
</svg>
