<svg width="48" height="48" viewBox="0 0 48 48" fill="none" xmlns="http://www.w3.org/2000/svg">
<path d="M22 40L22 13C22 11.6193 23.1193 10.5 24.5 10.5C25.8807 10.5 27 11.6193 27 13L27 40C27 41.3807 25.8807 42.5 24.5 42.5C23.1193 42.5 22 41.3807 22 40Z" fill="#081E40"/>
<path d="M7.5 2L41.5 2C42.8807 2 44 3.11929 44 4.5C44 5.88071 42.8807 7 41.5 7L7.5 7C6.11929 7 5 5.88071 5 4.5C5 3.11929 6.11929 2 7.5 2Z" fill="#081E40"/>
<path d="M36.2325 28.2324C37.2088 27.2561 38.7913 27.2561 39.7676 28.2324C40.7439 29.2087 40.7439 30.7912 39.7676 31.7675L26.9747 44.5605C25.6078 45.9273 23.3923 45.9272 22.0254 44.5605L9.23248 31.7675C8.25617 30.7912 8.25617 29.2087 9.23248 28.2324C10.2088 27.2561 11.7913 27.2561 12.7676 28.2324L24.5001 39.9648L36.2325 28.2324Z" fill="#081E40"/>
</svg>
