<svg width="48" height="48" viewBox="0 0 48 48" fill="none" xmlns="http://www.w3.org/2000/svg">
<path fill-rule="evenodd" clip-rule="evenodd" d="M43 24C43 34.4934 34.4934 43 24 43C13.5066 43 5 34.4934 5 24C5 13.5066 13.5066 5 24 5C34.4934 5 43 13.5066 43 24ZM48 24C48 37.2548 37.2548 48 24 48C10.7452 48 0 37.2548 0 24C0 10.7452 10.7452 0 24 0C37.2548 0 48 10.7452 48 24ZM24 7.5C25.3807 7.5 26.5 8.61929 26.5 10V21.5H38C39.3807 21.5 40.5 22.6193 40.5 24C40.5 25.3807 39.3807 26.5 38 26.5H24C22.6193 26.5 21.5 25.3807 21.5 24V10C21.5 8.61929 22.6193 7.5 24 7.5Z" fill="#081E40"/>
</svg>
