<svg width="48" height="48" viewBox="0 0 48 48" fill="none" xmlns="http://www.w3.org/2000/svg">
<path d="M13.4203 28.4883C12.9375 27.8155 12.0366 26.5351 11.0339 24.9848L9.46794 22.457C7.80257 19.6332 6.29182 16.5489 6.29182 14.6521C6.29182 10.4259 9.87349 7 14.2918 7C18.7101 7 22.2918 10.4259 22.2918 14.6521C22.2918 16.1819 21.1782 18.4839 19.7572 20.7987L17.9949 23.4782C16.4439 25.7051 14.9013 27.6426 14.1933 28.5123C13.9893 28.7629 13.6087 28.7508 13.4203 28.4883Z" fill="#081E40"/>
<path d="M32.3508 28.4529C31.8182 27.6747 30.7826 26.1323 29.6266 24.2548L27.865 21.2673C25.9914 17.9301 24.2918 14.2851 24.2918 12.0434C24.2918 7.04883 28.3212 3 33.2918 3C38.2624 3 42.2918 7.04883 42.2918 12.0434C42.2918 13.8513 41.039 16.5719 39.4404 19.3076L37.4578 22.4743C35.6822 25.1524 33.9163 27.4764 33.1398 28.4767C32.9356 28.7398 32.5389 28.7277 32.3508 28.4529Z" fill="#081E40"/>
<path fill-rule="evenodd" clip-rule="evenodd" d="M32.2249 24.7744C31.757 25.0197 31.2548 25.4161 30.5773 25.9868C28.6088 27.6447 26.5787 28.3493 24.657 28.2322C22.7857 28.1182 21.3166 27.2412 20.3989 26.2868C20.3833 26.2706 20.3712 26.2583 20.3616 26.2486C20.3585 26.2455 20.3558 26.2429 20.3535 26.2406C18.4298 24.7939 16.8983 24.482 15.6855 24.629C14.411 24.7835 13.0696 25.4961 11.6795 26.8587C9.81027 28.691 8.15467 31.4036 6.79429 34.3626C8.24237 33.5955 9.62657 33.1876 10.9366 33.0986C13.4621 32.9269 15.454 33.9704 16.598 35.3877C21.3436 40.7347 23.6386 40.6495 24.5478 40.4141C24.9106 40.3202 25.389 39.9575 26.1684 38.9286C28.4636 35.8989 30.0813 34.2087 31.213 33.3773C32.8011 32.2105 34.5659 32.7256 35.2332 32.9466C37.5624 33.7181 39.6181 34.719 41.3523 35.7554C38.802 27.1973 34.9693 24.9767 32.9593 24.582C32.8473 24.56 32.6479 24.5526 32.2249 24.7744ZM29.903 20.3462C30.9639 19.7899 32.3419 19.3653 33.9228 19.6757C39.0073 20.6742 44.4387 25.7994 47.0949 38.053C47.5055 39.947 46.3216 41.3363 45.2633 41.9198C44.2164 42.4972 42.5631 42.7252 41.1816 41.6674C39.4272 40.3242 36.8926 38.7813 33.7805 37.7329C33.1213 38.328 31.9538 39.5718 30.1539 41.9478C29.3515 43.0071 27.974 44.6921 25.8007 45.2546C22.0289 46.2309 17.9082 44.4135 12.8109 38.653L12.76 38.5955L12.7127 38.5349C12.6058 38.398 12.1974 38.0244 11.2757 38.087C10.3083 38.1528 8.5511 38.7292 6.04902 41.0844C4.75892 42.2987 3.02214 42.2707 1.82506 41.6142C0.580678 40.9318 -0.439864 39.3343 0.193405 37.4672C1.83531 32.6265 4.48813 26.9064 8.17948 23.288C10.0542 21.4504 12.3601 19.9956 15.0837 19.6654C17.8627 19.3284 20.6703 20.2106 23.3997 22.2754C23.6722 22.4816 23.8861 22.6996 24.003 22.8211C24.1762 23.0013 24.5115 23.2141 24.9611 23.2415C25.3604 23.2658 26.1677 23.1635 27.3563 22.1625C27.9983 21.6217 28.8868 20.879 29.903 20.3462Z" fill="#081E40"/>
<path d="M18.2918 15C18.2918 17.2091 16.501 19 14.2918 19C12.0827 19 10.2918 17.2091 10.2918 15C10.2918 12.7909 12.0827 11 14.2918 11C16.501 11 18.2918 12.7909 18.2918 15Z" fill="white"/>
<path d="M38.2918 11C38.2918 13.7614 36.0532 16 33.2918 16C30.5304 16 28.2918 13.7614 28.2918 11C28.2918 8.23858 30.5304 6 33.2918 6C36.0532 6 38.2918 8.23858 38.2918 11Z" fill="white"/>
</svg>
