<svg width="48" height="48" viewBox="0 0 48 48" fill="none" xmlns="http://www.w3.org/2000/svg">
<path d="M22.712 47.552C19.96 47.552 17.32 47.136 14.792 46.304C12.264 45.472 10.008 44.192 8.024 42.464C6.072 40.736 4.52 38.576 3.368 35.984C2.216 33.36 1.64 30.272 1.64 26.72C1.64 22.848 2.296 19.344 3.608 16.208C4.92 13.072 6.728 10.384 9.032 8.14401C11.368 5.87201 14.04 4.12801 17.048 2.91201C20.088 1.69601 23.304 1.08801 26.696 1.08801C30.696 1.08801 34.152 1.93601 37.064 3.63201C40.008 5.29601 42.28 7.61601 43.88 10.592C45.48 13.536 46.28 16.944 46.28 20.816C46.28 23.344 45.896 25.568 45.128 27.488C44.392 29.376 43.4 30.96 42.152 32.24C40.904 33.488 39.528 34.432 38.024 35.072C36.552 35.68 35.08 35.984 33.608 35.984C32.04 35.984 30.648 35.632 29.432 34.928C28.248 34.192 27.512 33.152 27.224 31.808H27.08C26.344 32.896 25.336 33.776 24.056 34.448C22.776 35.12 21.576 35.456 20.456 35.456C18.28 35.456 16.52 34.704 15.176 33.2C13.832 31.664 13.16 29.632 13.16 27.104C13.16 25.408 13.448 23.76 14.024 22.16C14.6 20.528 15.384 19.072 16.376 17.792C17.4 16.48 18.584 15.456 19.928 14.72C21.304 13.952 22.776 13.568 24.344 13.568C25.24 13.568 26.04 13.792 26.744 14.24C27.448 14.656 28.024 15.344 28.472 16.304H28.568L29.432 14H34.616L32.072 26.24C31.336 29.248 32.136 30.752 34.472 30.752C35.592 30.752 36.648 30.352 37.64 29.552C38.632 28.752 39.432 27.632 40.04 26.192C40.68 24.72 41 23.008 41 21.056C41 19.136 40.728 17.296 40.184 15.536C39.64 13.744 38.776 12.16 37.592 10.784C36.408 9.37601 34.856 8.27201 32.936 7.47201C31.016 6.64001 28.696 6.22401 25.976 6.22401C23.64 6.22401 21.368 6.70401 19.16 7.66401C16.952 8.59201 14.952 9.95201 13.16 11.744C11.4 13.536 9.992 15.68 8.936 18.176C7.88 20.64 7.352 23.408 7.352 26.48C7.352 29.2 7.784 31.568 8.648 33.584C9.512 35.568 10.696 37.216 12.2 38.528C13.704 39.84 15.416 40.816 17.336 41.456C19.256 42.096 21.272 42.416 23.384 42.416C24.792 42.416 26.248 42.208 27.752 41.792C29.256 41.408 30.552 40.928 31.64 40.352L33.464 44.96C31.8 45.856 30.088 46.512 28.328 46.928C26.568 47.344 24.696 47.552 22.712 47.552ZM22.328 30.128C22.872 30.128 23.416 29.952 23.96 29.6C24.504 29.248 25.112 28.624 25.784 27.728L27.08 20.528C26.824 20.016 26.488 19.632 26.072 19.376C25.656 19.12 25.176 18.992 24.632 18.992C23.864 18.992 23.16 19.232 22.52 19.712C21.88 20.192 21.336 20.832 20.888 21.632C20.472 22.4 20.136 23.232 19.88 24.128C19.656 24.992 19.544 25.824 19.544 26.624C19.544 27.776 19.784 28.656 20.264 29.264C20.776 29.84 21.464 30.128 22.328 30.128Z" fill="#081E40"/>
</svg>
