<svg width="48" height="48" viewBox="0 0 48 48" fill="none" xmlns="http://www.w3.org/2000/svg">
<g clip-path="url(#clip0_14986_2577)">
<path d="M16.0332 4.51572C18.1272 2.34334 21.743 3.87115 21.7436 6.79178V12.4105H31.0318C35.7959 12.4105 40.1176 14.3323 43.2363 17.4312C46.354 20.5293 48.2862 24.8158 48.2863 29.5442V29.6551L48.277 29.7641L48.1318 31.4791C47.8344 35.0217 46.8653 38.4724 45.2891 41.6458C43.8254 44.5911 39.5753 43.7965 39.0427 40.7734L39.022 40.6552L39.0126 40.536L39.0023 40.4107L38.9929 40.3028V36.137C38.9929 34.4238 38.3401 32.8704 37.2678 31.6979L37.0366 31.4575C35.911 30.3443 34.3934 29.6338 32.7092 29.5472L32.3319 29.538L21.7436 29.5431V34.7344L21.7363 34.832L21.7291 34.9358L21.7218 35.0355L21.7063 35.1341C21.3446 37.5043 18.6048 38.7152 16.5837 37.3722L16.5029 37.3187L16.4251 37.2581L16.3422 37.1944L16.2603 37.1307L0.972668 23.2029C0.0967269 22.4048 0.0532558 21.0493 0.876297 20.1977L16.0332 4.51572ZM6.95757 21.5096L16.4355 30.1443V27.2373C16.4355 25.8028 17.4629 24.6159 18.8189 24.3385L19.0833 24.284L32.392 24.2769L32.4262 24.2779L32.9052 24.2902L32.9726 24.2923C35.841 24.4369 38.4399 25.5877 40.4184 27.3852L40.8062 27.7531L40.828 27.7747L40.8487 27.7973L41.1794 28.1405L41.2012 28.1641C41.8553 28.8793 42.4193 29.6772 42.8838 30.5368L42.9751 29.4589C42.952 26.2118 41.6239 23.2792 39.4781 21.1469C37.3141 18.9966 34.3285 17.6717 31.0318 17.6717H19.2834L19.1466 17.6573L19.0802 17.6511L18.9485 17.6367L18.8189 17.611C17.6462 17.3713 16.7371 16.4606 16.4977 15.3082L16.4707 15.1798L16.4572 15.0493L16.4355 14.8479V11.7035L6.95757 21.5096Z" fill="#081E40"/>
</g>
<defs>
<clipPath id="clip0_14986_2577">
<rect width="48" height="48" fill="white"/>
</clipPath>
</defs>
</svg>
