<svg width="48" height="48" viewBox="0 0 48 48" fill="none" xmlns="http://www.w3.org/2000/svg">
<path d="M23.7388 0.00884763C25.0517 -0.0627433 27.353 0.263801 28.545 2.33773L36.724 16.5198C37.4764 17.8245 37.0292 19.4916 35.725 20.2443C34.4208 20.997 32.7543 20.5497 32.0019 19.245L24.0497 5.45604C24.0452 5.45623 24.0405 5.45579 24.0359 5.45604C24.0039 5.45779 23.9724 5.46049 23.9422 5.46457L17.6162 16.0127C16.8415 17.3043 15.1672 17.7231 13.876 16.9481C12.5849 16.1731 12.1663 14.4982 12.941 13.2065L19.4597 2.33773C19.996 1.37253 20.8597 0.83237 21.4842 0.547921C22.1959 0.223833 22.9824 0.050149 23.7388 0.00884763Z" fill="#081E40"/>
<path d="M36.8007 24.4067C38.0814 23.6151 39.761 24.0121 40.5526 25.2931L47.2587 36.1502C49.2894 39.4378 46.9029 43.6365 43.0744 43.6365H25.0934C23.5877 43.6365 22.3671 42.4154 22.3671 40.9092C22.3671 39.4029 23.5877 38.1818 25.0934 38.1818H42.1053L35.9146 28.161C35.1231 26.8797 35.5198 25.1985 36.8007 24.4067Z" fill="#081E40"/>
<path d="M9.65715 21.526C10.4205 20.2279 12.0911 19.7943 13.3888 20.5575C14.6866 21.3213 15.1203 22.9933 14.3569 24.2916L5.86798 38.7273H16.3686C17.8743 38.7273 19.0949 39.9484 19.0949 41.4546C19.0949 42.9609 17.8743 44.1819 16.3686 44.1819H4.91483C1.1197 44.1819 -1.23924 40.0566 0.684755 36.7841L9.65715 21.526Z" fill="#081E40"/>
<path d="M27.5279 34.6171C28.5926 33.552 30.3184 33.552 31.3831 34.6171C32.4478 35.6822 32.4478 37.4087 31.3831 38.4737L28.9486 40.9092L31.3831 43.3446C32.4478 44.4097 32.4478 46.1361 31.3831 47.2012C30.3184 48.2663 28.5926 48.2663 27.5279 47.2012L23.1658 42.8375C22.1011 41.7724 22.1011 40.0459 23.1658 38.9809L27.5279 34.6171Z" fill="#081E40"/>
<path d="M33.2873 12.6027C33.6772 11.1481 35.1718 10.2847 36.626 10.6744C38.0804 11.0642 38.9433 12.5604 38.5536 14.0154L36.9572 19.9761C36.77 20.6747 36.3129 21.27 35.6867 21.6317C35.0606 21.9933 34.3168 22.0915 33.6185 21.9044L27.6589 20.3074C26.2047 19.9174 25.3416 18.4213 25.7313 16.9664C26.1212 15.5117 27.6168 14.6483 29.0711 15.0381L32.3949 15.9288L33.2873 12.6027Z" fill="#081E40"/>
<path d="M11.5352 20.2156C12.8991 19.9946 14.2358 20.8388 14.6013 22.2025L16.1977 28.1642C16.5872 29.6191 15.7244 31.1143 14.2701 31.5041C12.8158 31.8939 11.3212 31.0306 10.9314 29.5758L10.0389 26.2487L6.71516 27.1404C5.2608 27.5303 3.76517 26.667 3.37541 25.2121C2.98573 23.7573 3.84878 22.2611 5.30301 21.8711L11.2626 20.2742L11.5352 20.2156Z" fill="#081E40"/>
</svg>
