<svg width="48" height="48" viewBox="0 0 48 48" fill="none" xmlns="http://www.w3.org/2000/svg">
<path fill-rule="evenodd" clip-rule="evenodd" d="M18.3813 22.4684C21.8243 22.4684 24.6154 19.6772 24.6154 16.2342C24.6154 12.7911 21.8243 10 18.3813 10C14.9382 10 12.1471 12.7911 12.1471 16.2342C12.1471 19.6772 14.9382 22.4684 18.3813 22.4684ZM29.6154 16.2342C29.6154 19.6243 28.1138 22.6638 25.7393 24.7236C31.3773 27.4139 34.9386 33.4598 34.9386 40.6142C34.9386 41.9949 33.8193 43.1142 32.4386 43.1142C31.0579 43.1142 29.9386 41.9949 29.9386 40.6142C29.9386 33.3534 24.9876 28.1709 18.8304 28.1709C11.9699 28.1709 7.40002 33.9247 7.40002 40.5C7.40002 41.8807 6.28074 43 4.90002 43C3.51931 43 2.40002 41.8807 2.40002 40.5C2.40002 34.2045 5.65195 27.9494 11.3177 24.9704C8.77359 22.9108 7.14709 19.7624 7.14709 16.2342C7.14709 10.0297 12.1768 5 18.3813 5C24.5857 5 29.6154 10.0297 29.6154 16.2342ZM31.6699 5.96182C30.338 5.59792 28.9633 6.38264 28.5994 7.71453C28.2355 9.04643 29.0202 10.4211 30.3521 10.785C35.4232 12.1706 35.4767 19.3832 31.2111 21.2294C31.0303 21.2754 30.8572 21.3411 30.6942 21.4243C30.3707 21.5886 30.0937 21.8184 29.8754 22.0921C29.6463 22.3784 29.4786 22.7167 29.393 23.0876C29.3286 23.3642 29.3108 23.6547 29.3459 23.9476C29.38 24.2371 29.4637 24.5121 29.5887 24.7635C29.759 25.1079 30.0031 25.4007 30.2955 25.6273C30.5701 25.8409 30.8907 25.9986 31.2411 26.083C31.4174 26.1258 31.5995 26.1496 31.7844 26.1528C32.8748 26.2058 34.0033 26.8124 36.2611 28.4529C38.4517 30.0444 40.4442 33.9304 40.6395 37.2182C40.7213 38.5964 41.905 39.6474 43.2833 39.5655C44.6616 39.4836 45.7125 38.3 45.6307 36.9217C45.2982 31.3243 42.3787 26.7172 39.2001 24.4078C38.3504 23.7904 37.4697 23.2709 36.5963 22.8407C41.5607 17.4913 39.6095 8.13109 31.6699 5.96182Z" fill="#081E40"/>
</svg>
