<svg width="48" height="48" viewBox="0 0 48 48" fill="none" xmlns="http://www.w3.org/2000/svg">
<path d="M44 4C46.2091 4 48 5.79086 48 8V40L47.9951 40.2061C47.8913 42.2512 46.2512 43.8913 44.2061 43.9951L44 44H4L3.79395 43.9951C1.68056 43.8879 0 42.14 0 40L0 8C5.92725e-07 5.79086 1.79086 4 4 4L44 4ZM34.0596 25.8779C33.6087 25.5774 33.0309 25.5435 32.5479 25.7891L6.91602 38.8223C6.80661 38.8779 6.69364 38.9201 6.58008 38.9541C6.71559 38.9831 6.85584 39 7 39H41C42.1046 39 43 38.1046 43 37V31.7266C42.8092 31.671 42.6233 31.5868 42.4492 31.4707L34.0596 25.8779ZM7 9C5.89543 9 5 9.89543 5 11L5 34.1865L30.2812 21.332C32.3745 20.2677 34.8791 20.4152 36.833 21.7178L43 25.8281V11C43 9.89543 42.1046 9 41 9L7 9ZM13.5 13C15.433 13 17 14.567 17 16.5C17 18.433 15.433 20 13.5 20C11.567 20 10 18.433 10 16.5C10 14.567 11.567 13 13.5 13Z" fill="#081E40"/>
</svg>
