<svg width="48" height="48" viewBox="0 0 48 48" fill="none" xmlns="http://www.w3.org/2000/svg">
<path fill-rule="evenodd" clip-rule="evenodd" d="M34.4997 27.6836C34.3494 27.8304 34.2491 28.0208 34.2131 28.2279L32.3903 38.7089C31.7656 42.3007 27.3527 43.6977 24.7748 41.1198L17.5998 33.9448L6.45771 45.0869C5.4814 46.0632 3.89849 46.0632 2.92217 45.0869C1.94586 44.1106 1.94586 42.5277 2.92217 41.5514L14.0643 30.4093L7.43351 23.7785C4.92952 21.2745 6.16508 16.9932 9.6182 16.2084L19.7042 13.9161C19.8921 13.8734 20.0636 13.7774 20.1982 13.6395L22.1598 11.6301C22.2461 11.5417 22.3153 11.438 22.3638 11.3244L25.099 4.92301C26.3507 1.99351 30.1664 1.25649 32.419 3.50912L44.4999 15.59C46.7525 17.8426 46.0155 21.6583 43.086 22.91L36.6845 25.6452C36.5709 25.6937 36.4673 25.7629 36.3789 25.8492L34.4997 27.6836Z" fill="#081E40"/>
</svg>
