<svg width="48" height="48" viewBox="0 0 48 48" fill="none" xmlns="http://www.w3.org/2000/svg">
<path fill-rule="evenodd" clip-rule="evenodd" d="M34.2233 28.2379C34.2593 28.0308 34.3596 27.8404 34.51 27.6936L36.3892 25.8592C36.4776 25.7729 36.5812 25.7037 36.6948 25.6552L43.0962 22.92C46.0257 21.6683 46.7628 17.8526 44.5101 15.6L32.4293 3.51913C30.1767 1.2665 26.3609 2.00352 25.1092 4.93302L22.3741 11.3345C22.3255 11.4481 22.2563 11.5517 22.17 11.6401L20.2084 13.6496C20.0739 13.7874 19.9023 13.8835 19.7145 13.9261L9.62845 16.2184C6.17533 17.0032 4.93978 21.2845 7.44377 23.7885L14.0745 30.4193L2.93243 41.5614C1.95612 42.5377 1.95612 44.1206 2.93243 45.0969C3.90874 46.0732 5.49165 46.0732 6.46796 45.0969L17.6101 33.9548L24.7851 41.1298C27.363 43.7077 31.7759 42.3107 32.4005 38.7189L34.2233 28.2379ZM29.6409 25.7196C29.6777 25.5145 29.7776 25.326 29.9267 25.1804L33.5652 21.6285C33.6536 21.5422 33.7573 21.4731 33.8709 21.4245L39.7718 18.9032C40.0973 18.7641 40.1792 18.3401 39.9289 18.0898L29.9394 8.10032C29.6891 7.85003 29.2651 7.93192 29.1261 8.25742L26.6072 14.1527C26.5571 14.27 26.4849 14.3766 26.3947 14.4669L22.8154 18.0462C22.6855 18.1761 22.5222 18.2678 22.3435 18.311L12.5029 20.6927C12.1192 20.7799 11.9819 21.2556 12.2601 21.5338L26.9584 36.2321C27.2448 36.5185 27.7352 36.3633 27.8046 35.9642L29.6409 25.7196Z" fill="#081E40"/>
</svg>
