<svg width="48" height="48" viewBox="0 0 48 48" fill="none" xmlns="http://www.w3.org/2000/svg">
<path d="M24 0C37.2548 0 48 10.7452 48 24C48 37.2548 37.2548 48 24 48C10.7452 48 0 37.2548 0 24C0 10.7452 10.7452 0 24 0ZM24 5C13.5066 5 5 13.5066 5 24C5 34.4934 13.5066 43 24 43C34.4934 43 43 34.4934 43 24C43 13.5066 34.4934 5 24 5ZM33 29.5C34.3807 29.5 35.5 30.6193 35.5 32C35.5 33.3807 34.3807 34.5 33 34.5H16C14.6193 34.5 13.5 33.3807 13.5 32C13.5 30.6193 14.6193 29.5 16 29.5L33 29.5ZM33 21.5C34.3807 21.5 35.5 22.6193 35.5 24C35.5 25.3807 34.3807 26.5 33 26.5L16 26.5C14.6193 26.5 13.5 25.3807 13.5 24C13.5 22.6193 14.6193 21.5 16 21.5L33 21.5ZM33 13.5C34.3807 13.5 35.5 14.6193 35.5 16C35.5 17.3807 34.3807 18.5 33 18.5L16 18.5C14.6193 18.5 13.5 17.3807 13.5 16C13.5 14.6193 14.6193 13.5 16 13.5L33 13.5Z" fill="#081E40"/>
</svg>
