<svg width="48" height="48" viewBox="0 0 48 48" fill="none" xmlns="http://www.w3.org/2000/svg">
<path fill-rule="evenodd" clip-rule="evenodd" d="M13.5 2H6C3.79086 2 2 3.79086 2 6V42C2 44.2091 3.79086 46 6 46H13.5C14.8807 46 16 44.8807 16 43.5C16 42.1193 14.8807 41 13.5 41H9C7.89543 41 7 40.1046 7 39V36.5H41V39C41 40.1046 40.1046 41 39 41H34.5C33.1193 41 32 42.1193 32 43.5C32 44.8807 33.1193 46 34.5 46H42C44.2091 46 46 44.2091 46 42V6C46 3.79086 44.2091 2 42 2H34.5C33.1193 2 32 3.11929 32 4.5C32 5.88071 33.1193 7 34.5 7H39C40.1046 7 41 7.89543 41 9V10.5H7V9C7 7.89543 7.89543 7 9 7H13.5C14.8807 7 16 5.88071 16 4.5C16 3.11929 14.8807 2 13.5 2ZM41 31.5V15.5H7V31.5H41ZM11 20C11 18.8954 11.8954 18 13 18H20C21.1046 18 22 18.8954 22 20V27C22 28.1046 21.1046 29 20 29H13C11.8954 29 11 28.1046 11 27V20ZM29 18C27.8954 18 27 18.8954 27 20V27C27 28.1046 27.8954 29 29 29H36C37.1046 29 38 28.1046 38 27V20C38 18.8954 37.1046 18 36 18H29Z" fill="#081E40"/>
</svg>
