<svg width="48" height="48" viewBox="0 0 48 48" fill="none" xmlns="http://www.w3.org/2000/svg">
<path d="M46 25.5C46 26.8807 44.8807 28 43.5 28C42.1193 28 41 26.8807 41 25.5V17.5352L27.5049 31.0312C26.098 32.438 23.8027 32.3903 22.4551 30.9268L18.4775 26.6055L6.26464 38.7715C5.28642 39.7458 3.70287 39.7428 2.72851 38.7646C1.7542 37.7864 1.75721 36.2029 2.73534 35.2285L16.0547 21.9629L16.1894 21.8359C17.5595 20.606 19.6562 20.6513 20.9717 21.9395L21.1006 22.0723L25.0742 26.3887L37.4648 14H29.5C28.1193 14 27 12.8807 27 11.5C27 10.1193 28.1193 9 29.5 9H43.5C44.8807 9 46 10.1193 46 11.5V25.5Z" fill="#081E40"/>
</svg>
