<svg width="48" height="48" viewBox="0 0 48 48" fill="none" xmlns="http://www.w3.org/2000/svg">
<path fill-rule="evenodd" clip-rule="evenodd" d="M6 2.5C3.51472 2.5 1.5 4.51472 1.5 7V37C1.5 39.4853 3.51472 41.5 6 41.5H16.5V43C16.5 45.4853 18.5147 47.5 21 47.5H42C44.4853 47.5 46.5 45.4853 46.5 43V26.728C46.5 25.4219 45.9325 24.1803 44.945 23.3255L37.1719 16.5975C36.354 15.8896 35.3086 15.5 34.2269 15.5H33.5V7C33.5 4.51472 31.4853 2.5 29 2.5H6ZM16.5 20V36.5H6.5V7.5H28.5V15.5H21C18.5147 15.5 16.5 17.5147 16.5 20ZM10 10C8.89543 10 8 10.8954 8 12C8 13.1046 8.89543 14 10 14H25C26.1046 14 27 13.1046 27 12C27 10.8954 26.1046 10 25 10H10ZM21.5 20.5V42.5H41.5V31.5H33C31.067 31.5 29.5 29.933 29.5 28V20.5H21.5ZM34.5 20.8977V26.5H40.9726L34.5 20.8977Z" fill="#081E40"/>
</svg>
