<svg width="48" height="48" viewBox="0 0 48 48" fill="none" xmlns="http://www.w3.org/2000/svg">
<path fill-rule="evenodd" clip-rule="evenodd" d="M19 2C16.7909 2 15 3.79086 15 6V8C15 9.38071 16.1193 10.5 17.5 10.5C18.8807 10.5 20 9.38071 20 8C20 7.44772 20.4477 7 21 7H40C40.5523 7 41 7.44772 41 8V32C41 32.5523 40.5523 33 40 33H36C34.6193 33 33.5 34.1193 33.5 35.5C33.5 36.8807 34.6193 38 36 38H42C44.2091 38 46 36.2091 46 34V6C46 3.79086 44.2091 2 42 2H19ZM6 12C3.79086 12 2 13.7909 2 16V42C2 44.2091 3.79086 46 6 46H28C30.2091 46 32 44.2091 32 42V16C32 13.7909 30.2091 12 28 12H6ZM7 19C7 17.8954 7.89543 17 9 17H25C26.1046 17 27 17.8954 27 19V39C27 40.1046 26.1046 41 25 41H9C7.89543 41 7 40.1046 7 39V19Z" fill="#081E40"/>
</svg>
