<svg width="48" height="48" viewBox="0 0 48 48" fill="none" xmlns="http://www.w3.org/2000/svg">
<path fill-rule="evenodd" clip-rule="evenodd" d="M7 1.5C4.51472 1.5 2.5 3.51472 2.5 6V38C2.5 40.4853 4.51472 42.5 7 42.5L13.5 42.5V43C13.5 45.4853 15.5147 47.5 18 47.5L42 47.5C44.4853 47.5 46.5 45.4853 46.5 43L46.5 14C46.5 11.5147 44.4853 9.5 42 9.5H37.5V6C37.5 3.51472 35.4853 1.5 33 1.5H7ZM32.5 9.5V6.5H7.5V37.5L13.5 37.5V37C13.5 35.6193 14.6193 34.5 16 34.5C17.3807 34.5 18.5 35.6193 18.5 37L18.5 42.5L41.5 42.5L41.5 14.5L18.5 14.5L18.5 16C18.5 17.3807 17.3807 18.5 16 18.5C14.6193 18.5 13.5 17.3807 13.5 16V14C13.5 11.5147 15.5147 9.5 18 9.5L32.5 9.5ZM17.4488 21.0577C16.5224 20.4897 15.312 20.7654 14.7228 21.6785L14.1557 22.5576L20.7592 26.5729L14.2073 30.596L14.6121 31.2709C15.1836 32.2236 16.422 32.5279 17.37 31.9487L23.4702 28.2213L28.6307 31.3592C28.5452 31.7256 28.5 32.1075 28.5 32.5C28.5 35.2614 30.7386 37.5 33.5 37.5C36.2614 37.5 38.5 35.2614 38.5 32.5C38.5 29.7386 36.2614 27.5 33.5 27.5C32.1933 27.5 31.0037 28.0013 30.1129 28.822L26.3065 26.4883L29.5189 24.5255C30.4322 25.7254 31.8756 26.5 33.5 26.5C36.2614 26.5 38.5 24.2614 38.5 21.5C38.5 18.7386 36.2614 16.5 33.5 16.5C30.7386 16.5 28.5 18.7386 28.5 21.5C28.5 21.6054 28.5033 21.71 28.5097 21.8138L23.5996 24.8287L17.4488 21.0577ZM31.5 32.5C31.5 31.3954 32.3954 30.5 33.5 30.5C34.6046 30.5 35.5 31.3954 35.5 32.5C35.5 33.6046 34.6046 34.5 33.5 34.5C32.3954 34.5 31.5 33.6046 31.5 32.5ZM33.5 19.5C32.3954 19.5 31.5 20.3954 31.5 21.5C31.5 22.6046 32.3954 23.5 33.5 23.5C34.6046 23.5 35.5 22.6046 35.5 21.5C35.5 20.3954 34.6046 19.5 33.5 19.5Z" fill="#081E40"/>
</svg>
