<svg width="48" height="48" viewBox="0 0 48 48" fill="none" xmlns="http://www.w3.org/2000/svg">
<path fill-rule="evenodd" clip-rule="evenodd" d="M37.8967 1.81696C37.5299 1.07371 36.47 1.07371 36.1032 1.81696L34.2937 5.48344C34.148 5.77859 33.8665 5.98316 33.5408 6.03048L29.4946 6.61843C28.6743 6.73762 28.3468 7.74559 28.9403 8.32413L31.8682 11.1781C32.1039 11.4078 32.2114 11.7388 32.1558 12.0632L31.4646 16.0931C31.3245 16.91 32.182 17.5329 32.9156 17.1473L36.5346 15.2446C36.8259 15.0915 37.174 15.0915 37.4653 15.2446L41.0843 17.1473C41.818 17.5329 42.6754 16.91 42.5353 16.0931L41.8441 12.0632C41.7885 11.7388 41.896 11.4078 42.1317 11.1781L45.0596 8.32413C45.6531 7.74559 45.3256 6.73762 44.5054 6.61843L40.4592 6.03048C40.1334 5.98316 39.8519 5.77859 39.7062 5.48344L37.8967 1.81696ZM7.44833 26.9085C7.26493 26.5368 6.735 26.5368 6.5516 26.9085L5.05905 29.9327C4.98622 30.0803 4.84544 30.1825 4.68258 30.2062L1.34515 30.6912C0.935041 30.7508 0.771286 31.2547 1.06804 31.544L3.48303 33.898C3.60088 34.0129 3.65465 34.1784 3.62683 34.3406L3.05673 37.6646C2.98667 38.073 3.41539 38.3845 3.78221 38.1916L6.76729 36.6223C6.91296 36.5457 7.08697 36.5457 7.23264 36.6223L10.2177 38.1916C10.5845 38.3845 11.0133 38.073 10.9432 37.6646L10.3731 34.3406C10.3453 34.1784 10.3991 34.0129 10.5169 33.898L12.9319 31.544C13.2286 31.2547 13.0649 30.7508 12.6548 30.6912L9.31735 30.2062C9.15449 30.1825 9.01371 30.0803 8.94088 29.9327L7.44833 26.9085ZM16.5516 39.9085C16.735 39.5368 17.2649 39.5368 17.4483 39.9085L18.3531 41.7417C18.4259 41.8893 18.5667 41.9916 18.7296 42.0152L20.7527 42.3092C21.1628 42.3688 21.3265 42.8728 21.0298 43.162L19.5658 44.589C19.448 44.7039 19.3942 44.8694 19.422 45.0316L19.7676 47.0465C19.8377 47.455 19.409 47.7665 19.0422 47.5736L17.2326 46.6223C17.087 46.5457 16.913 46.5457 16.7673 46.6223L14.9578 47.5736C14.591 47.7665 14.1622 47.455 14.2323 47.0465L14.5779 45.0316C14.6057 44.8694 14.5519 44.7039 14.4341 44.589L12.9702 43.162C12.6734 42.8728 12.8372 42.3688 13.2473 42.3092L15.2704 42.0152C15.4332 41.9916 15.574 41.8893 15.6468 41.7417L16.5516 39.9085ZM4.82831 14.3138C3.26621 12.7517 3.26622 10.2191 4.82831 8.65698L7.65674 5.82856C9.21884 4.26646 11.7515 4.26646 13.3136 5.82856L42.8814 35.3963C44.4435 36.9584 44.4435 39.4911 42.8814 41.0532L40.0529 43.8816C38.4908 45.4437 35.9582 45.4437 34.3961 43.8816L4.82831 14.3138ZM7.21989 13.2152C7.02463 13.02 7.02463 12.7034 7.21989 12.5081L11.5082 8.21979C11.7035 8.02453 12.0201 8.02453 12.2153 8.21979L17.1651 13.1695C17.3604 13.3648 17.3604 13.6814 17.1651 13.8766L12.8767 18.165C12.6815 18.3603 12.3649 18.3603 12.1696 18.165L7.21989 13.2152Z" fill="#081E40"/>
</svg>
