<svg width="48" height="48" viewBox="0 0 48 48" fill="none" xmlns="http://www.w3.org/2000/svg">
<path fill-rule="evenodd" clip-rule="evenodd" d="M14 6C14 3.79086 15.7909 2 18 2H30C32.2091 2 34 3.79086 34 6V9C34 11.2091 32.2091 13 30 13H18C15.7909 13 14 11.2091 14 9V6ZM14 22.5C14 20.2909 15.7909 18.5 18 18.5H30C32.2091 18.5 34 20.2909 34 22.5V25.5C34 27.7091 32.2091 29.5 30 29.5H18C15.7909 29.5 14 27.7091 14 25.5V22.5ZM18 35C15.7909 35 14 36.7909 14 39V42C14 44.2091 15.7909 46 18 46H30C32.2091 46 34 44.2091 34 42V39C34 36.7909 32.2091 35 30 35H18ZM34 10C34 8.61929 35.1193 7.5 36.5 7.5H38.25C42.8064 7.5 46.5 11.1937 46.5 15.75C46.5 20.3063 42.8064 24 38.25 24H36.5C35.1193 24 34 22.8807 34 21.5C34 20.1193 35.1193 19 36.5 19H38.25C40.0449 19 41.5 17.5449 41.5 15.75C41.5 13.9551 40.0449 12.5 38.25 12.5H36.5C35.1193 12.5 34 11.3807 34 10ZM11.5 23.5C12.8807 23.5 14 24.6193 14 26C14 27.3807 12.8807 28.5 11.5 28.5H9.5C7.84315 28.5 6.5 29.8431 6.5 31.5C6.5 33.1569 7.84315 34.5 9.5 34.5H11.5C12.8807 34.5 14 35.6193 14 37C14 38.3807 12.8807 39.5 11.5 39.5H9.5C5.08172 39.5 1.5 35.9183 1.5 31.5C1.5 27.0817 5.08172 23.5 9.5 23.5H11.5Z" fill="#081E40"/>
</svg>
