<svg width="48" height="48" viewBox="0 0 48 48" fill="none" xmlns="http://www.w3.org/2000/svg">
<g clip-path="url(#clip0_2221_769)">
<path fill-rule="evenodd" clip-rule="evenodd" d="M42.6591 20.3936C40.4364 23.5042 36.7954 25.5319 32.6809 25.5319C25.9124 25.5319 20.4255 20.045 20.4255 13.2766C20.4255 10.0878 21.6434 7.18348 23.6394 5.00335C23.7569 4.87497 23.8772 4.74911 24 4.62584C24.8295 3.79352 25.7778 3.07978 26.8175 2.51227C27.7631 1.9961 27.7488 0.266622 26.6781 0.147741C25.7988 0.0501215 24.9053 0 24 0C23.1582 0 22.3265 0.0433427 21.507 0.127917C9.42363 1.375 0 11.587 0 24C0 37.2548 10.7452 48 24 48C37.2548 48 48 37.2548 48 24C48 23.1468 47.9555 22.3039 47.8686 21.4737C47.6842 19.7106 47.3088 18.0043 46.7637 16.3758C46.4223 15.3562 44.737 15.7018 44.4345 16.7336C44.0521 18.0378 43.4551 19.2795 42.6591 20.3936ZM15.4255 13.2766C15.4255 10.8279 15.9353 8.49883 16.8544 6.38944C9.90224 9.21313 5 16.0341 5 24C5 34.4934 13.5066 43 24 43C33.3613 43 41.1413 36.23 42.7111 27.3189C39.8845 29.3415 36.4217 30.5319 32.6809 30.5319C23.151 30.5319 15.4255 22.8064 15.4255 13.2766ZM34.5 3C35.8807 3 37 4.11929 37 5.5V9.5H41C42.3807 9.5 43.5 10.6193 43.5 12C43.5 13.3807 42.3807 14.5 41 14.5H37V18.5C37 19.8807 35.8807 21 34.5 21C33.1193 21 32 19.8807 32 18.5V14.5H28C26.6193 14.5 25.5 13.3807 25.5 12C25.5 10.6193 26.6193 9.5 28 9.5H32V5.5C32 4.11929 33.1193 3 34.5 3Z" fill="#081E40"/>
</g>
<defs>
<clipPath id="clip0_2221_769">
<rect width="48" height="48" fill="white"/>
</clipPath>
</defs>
</svg>
