<svg width="48" height="48" viewBox="0 0 48 48" fill="none" xmlns="http://www.w3.org/2000/svg">
<g clip-path="url(#clip0_2221_765)">
<path fill-rule="evenodd" clip-rule="evenodd" d="M24 0.5C25.3807 0.5 26.5 1.61929 26.5 3V8C26.5 9.38071 25.3807 10.5 24 10.5C22.6193 10.5 21.5 9.38071 21.5 8V3C21.5 1.61929 22.6193 0.5 24 0.5ZM24 32C28.4183 32 32 28.4183 32 24C32 19.5817 28.4183 16 24 16C19.5817 16 16 19.5817 16 24C16 28.4183 19.5817 32 24 32ZM24 37C31.1797 37 37 31.1797 37 24C37 16.8203 31.1797 11 24 11C16.8203 11 11 16.8203 11 24C11 31.1797 16.8203 37 24 37ZM26.5 40C26.5 38.6193 25.3807 37.5 24 37.5C22.6193 37.5 21.5 38.6193 21.5 40V45C21.5 46.3807 22.6193 47.5 24 47.5C25.3807 47.5 26.5 46.3807 26.5 45V40ZM0.5 24C0.5 22.6193 1.61929 21.5 3 21.5H8C9.38071 21.5 10.5 22.6193 10.5 24C10.5 25.3807 9.38071 26.5 8 26.5H3C1.61929 26.5 0.5 25.3807 0.5 24ZM40 21.5C38.6193 21.5 37.5 22.6193 37.5 24C37.5 25.3807 38.6193 26.5 40 26.5H45C46.3807 26.5 47.5 25.3807 47.5 24C47.5 22.6193 46.3807 21.5 45 21.5H40ZM41.3034 8.23223C42.2797 9.20854 42.2797 10.7915 41.3034 11.7678L37.7679 15.3033C36.7916 16.2796 35.2087 16.2796 34.2323 15.3033C33.256 14.327 33.256 12.7441 34.2323 11.7678L37.7679 8.23223C38.7442 7.25592 40.3271 7.25592 41.3034 8.23223ZM14.3034 36.7678C15.2797 35.7915 15.2797 34.2085 14.3034 33.2322C13.3271 32.2559 11.7442 32.2559 10.7679 33.2322L7.23234 36.7678C6.25603 37.7441 6.25603 39.327 7.23234 40.3033C8.20865 41.2796 9.79157 41.2796 10.7679 40.3033L14.3034 36.7678ZM13.3034 15.3034C14.2797 14.3271 14.2797 12.7442 13.3034 11.7679L9.76788 8.23234C8.79157 7.25603 7.20865 7.25603 6.23234 8.23234C5.25603 9.20865 5.25603 10.7916 6.23234 11.7679L9.76788 15.3034C10.7442 16.2797 12.3271 16.2797 13.3034 15.3034ZM40.3034 36.7679C41.2797 37.7442 41.2797 39.3271 40.3034 40.3034C39.3271 41.2797 37.7442 41.2797 36.7679 40.3034L33.2323 36.7679C32.256 35.7916 32.256 34.2087 33.2323 33.2323C34.2087 32.256 35.7916 32.256 36.7679 33.2323L40.3034 36.7679Z" fill="#081E40"/>
</g>
<defs>
<clipPath id="clip0_2221_765">
<rect width="48" height="48" fill="white"/>
</clipPath>
</defs>
</svg>
