<svg width="48" height="48" viewBox="0 0 48 48" fill="none" xmlns="http://www.w3.org/2000/svg">
<path fill-rule="evenodd" clip-rule="evenodd" d="M13.5 1C11.567 1 10 2.567 10 4.5V12.5C10 14.433 11.567 16 13.5 16H21V21H11.5C9.01472 21 7 23.0147 7 25.5V30.5V32H5.5C3.567 32 2 33.567 2 35.5V43.5C2 45.433 3.567 47 5.5 47H18.5C20.433 47 22 45.433 22 43.5V35.5C22 33.567 20.433 32 18.5 32H12V30.5V26H35V30.5V32H29.5C27.567 32 26 33.567 26 35.5V43.5C26 45.433 27.567 47 29.5 47H41.5C43.433 47 45 45.433 45 43.5V35.5C45 33.567 43.433 32 41.5 32H40V30.5V25.5C40 23.0147 37.9853 21 35.5 21H26V16H33.5C35.433 16 37 14.433 37 12.5V4.5C37 2.567 35.433 1 33.5 1H13.5ZM15 11V6H32V11H15ZM7 42V37H17V42H7ZM31 37V42H40V37H31Z" fill="#081E40"/>
</svg>
