<svg width="48" height="48" viewBox="0 0 48 48" fill="none" xmlns="http://www.w3.org/2000/svg">
<path fill-rule="evenodd" clip-rule="evenodd" d="M11 5C9.89543 5 9 5.89543 9 7V41C9 42.1046 9.89543 43 11 43H37C38.1046 43 39 42.1046 39 41V7C39 5.89543 38.1046 5 37 5H11ZM8 0C5.79086 0 4 1.79086 4 4V44C4 46.2091 5.79086 48 8 48H40C42.2091 48 44 46.2091 44 44V4C44 1.79086 42.2091 0 40 0H8ZM22 19H18C16.3431 19 15 17.6569 15 16V12C15 10.3431 16.3431 9 18 9H30C31.6569 9 33 10.3431 33 12V16C33 17.6569 31.6569 19 30 19H26V22H30C32.2091 22 34 23.7909 34 26V28C35.6569 28 37 29.3431 37 31V35C37 36.6569 35.6569 38 34 38H29C27.3431 38 26 36.6569 26 35V31C26 29.3431 27.3431 28 29 28H30V27C30 26.4477 29.5523 26 29 26H18V28H19C20.6569 28 22 29.3431 22 31V35C22 36.6569 20.6569 38 19 38H13C11.3431 38 10 36.6569 10 35V31C10 29.3431 11.3431 28 13 28H14V26C14 23.7909 15.7909 22 18 22H22V19ZM19 13.5C19 13.2239 19.2239 13 19.5 13H28.5C28.7761 13 29 13.2239 29 13.5V14.5C29 14.7761 28.7761 15 28.5 15H19.5C19.2239 15 19 14.7761 19 14.5V13.5ZM14.5 32C14.2239 32 14 32.2239 14 32.5V33.5C14 33.7761 14.2239 34 14.5 34H17.5C17.7761 34 18 33.7761 18 33.5V32.5C18 32.2239 17.7761 32 17.5 32H14.5ZM30 32.5C30 32.2239 30.2239 32 30.5 32H32.5C32.7761 32 33 32.2239 33 32.5V33.5C33 33.7761 32.7761 34 32.5 34H30.5C30.2239 34 30 33.7761 30 33.5V32.5Z" fill="#081E40"/>
</svg>
