<svg width="48" height="48" viewBox="0 0 48 48" fill="none" xmlns="http://www.w3.org/2000/svg">
<path fill-rule="evenodd" clip-rule="evenodd" d="M25.2393 5.44214C25.0658 5.31851 24.8364 5.3137 24.6581 5.42995L4.02634 18.8776C2.80775 19.6719 1.18933 19.307 0.411499 18.0627C-0.366328 16.8183 -0.00901449 15.1657 1.20958 14.3714L21.8413 0.92371C23.8032 -0.355037 26.326 -0.302142 28.2348 1.05776L46.8799 14.341C48.0655 15.1857 48.3561 16.8519 47.5289 18.0627C46.7017 19.2734 45.07 19.5701 43.8844 18.7254L25.2393 5.44214Z" fill="#081E40"/>
<path fill-rule="evenodd" clip-rule="evenodd" d="M4.07619 39.4466V14.8551H9.31146V39.4466C9.31146 39.7418 9.54585 39.9812 9.83499 39.9812H11.3502C12.8265 39.9812 14.0232 41.1779 14.0232 42.6542C14.0232 44.1304 12.8265 45.3272 11.3502 45.3272H9.83499C6.65449 45.3272 4.07619 42.6943 4.07619 39.4466Z" fill="#081E40"/>
<path fill-rule="evenodd" clip-rule="evenodd" d="M44.9113 14.8551V21.8048C44.9113 23.2811 43.7393 24.4778 42.2937 24.4778C40.848 24.4778 39.676 23.2811 39.676 21.8048V14.8551H44.9113Z" fill="#081E40"/>
<path d="M17.1644 18.5968C17.1644 17.1207 18.361 15.9241 19.8371 15.9241H30.0854C31.5615 15.9241 32.7581 17.1207 32.7581 18.5968C32.7581 20.0729 31.5615 21.2695 30.0854 21.2695H19.8371C18.361 21.2695 17.1644 20.0729 17.1644 18.5968Z" fill="#081E40"/>
<path fill-rule="evenodd" clip-rule="evenodd" d="M36.8165 33.671C36.9875 32.9222 36.5318 32.1736 35.7986 31.9989C35.0653 31.8242 34.3322 32.2895 34.1611 33.0383L32.2524 41.3914C32.0813 42.1402 32.537 42.8888 33.2703 43.0635C34.0035 43.2382 34.7367 42.7729 34.9078 42.0241L36.8165 33.671ZM30.5203 34.2664C31.0134 33.6854 30.9519 32.8061 30.3829 32.3026C29.8139 31.799 28.9529 31.8618 28.4597 32.4429L24.7602 36.8018C24.405 37.2204 24.405 37.842 24.7602 38.2606L28.4597 42.6195C28.9529 43.2005 29.8139 43.2633 30.3829 42.7598C30.9519 42.2562 31.0134 41.377 30.5203 40.7959L28.0589 37.8959C27.8813 37.6866 27.8813 37.3758 28.0589 37.1665L30.5203 34.2664Z" fill="#081E40"/>
<path d="M41.4349 26.6162C43.6441 26.6162 45.4349 28.4071 45.4349 30.6162V44.0001C45.4349 46.2093 43.6441 48.0001 41.4349 48.0001H20.1174C17.9083 48.0001 16.1174 46.2093 16.1174 44.0001V30.6162C16.1174 28.4071 17.9083 26.6162 20.1174 26.6162H41.4349ZM20.3056 41.7233C20.3056 42.8279 21.2011 43.7233 22.3056 43.7233H39.2467C40.3513 43.7233 41.2467 42.8279 41.2467 41.7233V32.893C41.2467 31.7884 40.3513 30.893 39.2467 30.893H22.3056C21.2011 30.893 20.3056 31.7884 20.3056 32.893V41.7233Z" fill="#081E40"/>
</svg>
