<svg width="48" height="48" viewBox="0 0 48 48" fill="none" xmlns="http://www.w3.org/2000/svg">
<rect width="48" height="48" fill="white"/>
<path fill-rule="evenodd" clip-rule="evenodd" d="M24.712 6.19626C24.5463 6.08064 24.3273 6.07614 24.1569 6.18486L4.45239 18.7622C3.28856 19.5051 1.74287 19.1638 0.999999 18C0.257127 16.8362 0.598383 15.2905 1.76222 14.5476L21.4668 1.97025C23.3405 0.774263 25.7499 0.823735 27.573 2.09563L45.3801 14.5192C46.5125 15.3093 46.79 16.8677 46 18C45.21 19.1324 43.6516 19.4099 42.5192 18.6199L24.712 6.19626Z" fill="#081E40"/>
<path fill-rule="evenodd" clip-rule="evenodd" d="M4.5 38V15H9.5V38C9.5 38.2762 9.72386 38.5 10 38.5H11.5C12.8807 38.5 14 39.6193 14 41C14 42.3807 12.8807 43.5 11.5 43.5H10C6.96243 43.5 4.5 41.0376 4.5 38Z" fill="#081E40"/>
<path fill-rule="evenodd" clip-rule="evenodd" d="M43.5 15V21.5C43.5 22.8807 42.3807 24 41 24C39.6193 24 38.5 22.8807 38.5 21.5V15H43.5Z" fill="#081E40"/>
<path d="M22 33C22 31.8954 22.8954 31 24 31H32C33.1046 31 34 31.8954 34 33C34 34.1046 33.1046 35 32 35H24C22.8954 35 22 34.1046 22 33Z" fill="#081E40"/>
<path d="M22 39C22 37.8954 22.8954 37 24 37H39C40.1046 37 41 37.8954 41 39C41 40.1046 40.1046 41 39 41H24C22.8954 41 22 40.1046 22 39Z" fill="#081E40"/>
<path fill-rule="evenodd" clip-rule="evenodd" d="M20.5 25C19.9477 25 19.5 25.4477 19.5 26V42.5C19.5 43.0523 19.9477 43.5 20.5 43.5H43C43.5523 43.5 44 43.0523 44 42.5V30.5C44 29.9477 43.5523 29.5 43 29.5H36.9673C35.4243 29.5 33.9678 28.7876 33.0205 27.5697L31.3221 25.3861C31.1326 25.1425 30.8413 25 30.5327 25H20.5ZM15.5 26C15.5 23.2386 17.7386 21 20.5 21H30.5327C32.0757 21 33.5322 21.7124 34.4795 22.9303L36.1779 25.1139C36.3674 25.3575 36.6587 25.5 36.9673 25.5H43C45.7614 25.5 48 27.7386 48 30.5V42.5C48 45.2614 45.7614 47.5 43 47.5H20.5C17.7386 47.5 15.5 45.2614 15.5 42.5V26Z" fill="#081E40"/>
</svg>
