<svg width="48" height="48" viewBox="0 0 48 48" fill="none" xmlns="http://www.w3.org/2000/svg">
<path d="M12.2222 10.6429C12.3702 10.2557 12.7417 10 13.1562 10H17.0997C17.5142 10 17.8857 10.2557 18.0338 10.6429L28.1891 37.2029C28.4394 37.8576 27.956 38.56 27.255 38.56H24.4087C23.9881 38.56 23.6124 38.2967 23.4688 37.9013L21.3472 32.0587C21.2036 31.6633 20.8279 31.4 20.4072 31.4H9.84873C9.42806 31.4 9.05237 31.6633 8.90879 32.0587L6.78716 37.9013C6.64357 38.2967 6.26788 38.56 5.84721 38.56H3.00093C2.29999 38.56 1.81655 37.8576 2.06688 37.2029L12.2222 10.6429ZM10.548 27.56H19.708L15.255 15.1154C15.2388 15.0702 15.1959 15.04 15.1479 15.04C15.0999 15.04 15.0571 15.07 15.0408 15.1151L10.548 27.56Z" fill="#081E40"/>
<path fill-rule="evenodd" clip-rule="evenodd" d="M35.7559 22.2817C37.4246 22.2817 38.9737 22.8018 40.2559 23.6909V23.518C40.2559 22.9657 40.7036 22.518 41.2559 22.518H43.2559C43.8081 22.518 44.2559 22.9657 44.2559 23.518V37.518C44.2556 38.0701 43.808 38.518 43.2559 38.518H41.2559C40.7037 38.518 40.2561 38.0701 40.2559 37.518V37.1489C38.9736 38.0384 37.4249 38.56 35.7559 38.56L35.3438 38.5493C31.117 38.3311 27.7559 34.7748 27.7559 30.4203C27.756 25.9255 31.3377 22.2817 35.7559 22.2817ZM35.7559 26.2817C33.6115 26.2817 31.756 28.0694 31.7559 30.4203C31.7559 32.7714 33.6114 34.56 35.7559 34.56C37.9003 34.56 39.7559 32.7714 39.7559 30.4203C39.7557 28.0694 37.9003 26.2817 35.7559 26.2817Z" fill="#081E40"/>
</svg>
