<svg width="48" height="48" viewBox="0 0 48 48" fill="none" xmlns="http://www.w3.org/2000/svg">
<path fill-rule="evenodd" clip-rule="evenodd" d="M2 6C2 3.79086 3.79086 2 6 2H35C37.2091 2 39 3.79086 39 6V23H42C44.2091 23 46 24.7909 46 27V42C46 44.2091 44.2091 46 42 46H14C11.7909 46 10 44.2091 10 42V41H6C3.79086 41 2 39.2091 2 37V6ZM15 36V39C15 40.1046 15.8954 41 17 41H39C40.1046 41 41 40.1046 41 39V30C41 28.8954 40.1046 28 39 28H34H17C15.8954 28 15 28.8954 15 30V36ZM34 23H14C11.7909 23 10 24.7909 10 27V36H9C7.89543 36 7 35.1046 7 34V9C7 7.89543 7.89543 7 9 7H32C33.1046 7 34 7.89543 34 9V23ZM12 9C10.6193 9 9.5 10.1193 9.5 11.5C9.5 12.8807 10.6193 14 12 14H29C30.3807 14 31.5 12.8807 31.5 11.5C31.5 10.1193 30.3807 9 29 9H12ZM9.5 18.5C9.5 17.1193 10.6193 16 12 16H29C30.3807 16 31.5 17.1193 31.5 18.5C31.5 19.8807 30.3807 21 29 21H12C10.6193 21 9.5 19.8807 9.5 18.5ZM19.5 32C19.5 30.6193 20.6193 29.5 22 29.5L34 29.5C35.3807 29.5 36.5 30.6193 36.5 32C36.5 33.3807 35.3807 34.5 34 34.5H30.5V37C30.5 38.3807 29.3807 39.5 28 39.5C26.6193 39.5 25.5 38.3807 25.5 37V34.5H22C20.6193 34.5 19.5 33.3807 19.5 32Z" fill="#081E40"/>
</svg>
