<svg width="48" height="48" viewBox="0 0 48 48" fill="none" xmlns="http://www.w3.org/2000/svg">
<rect width="48" height="48" fill="white"/>
<path d="M24.5 5.03633e-07C24.8643 -0.000230307 25.2303 0.0788712 25.5703 0.240235C25.757 0.328495 25.9346 0.440465 26.0977 0.576172C28.2954 2.32323 31.6162 3.95011 34.917 5.15039C38.2899 6.37691 41.2023 7 42.5 7C43.8807 7 45 8.11933 45 9.5C45 9.58436 44.9955 9.66779 44.9873 9.75C44.9955 9.83224 45 9.91562 45 10V20.7314C45 22.271 43.3333 23.2336 42 22.4639L41 21.8857C40.3814 21.5285 40.0001 20.8686 40 20.1543V11.7441C38.0036 11.3955 35.586 10.7143 33.208 9.84961C30.2728 8.78227 27.0959 7.32708 24.5 5.59082C21.9041 7.32708 18.7272 8.78227 15.792 9.84961C13.414 10.7143 10.9964 11.3955 9 11.7441V25.9404C9.22695 30.4939 11.9537 34.6403 15.4697 37.7529C17.212 39.2953 19.0722 40.5125 20.748 41.333C22.4848 42.1833 23.8018 42.5 24.5 42.5C24.8633 42.5 25.412 42.4023 26.1182 42.1719C26.7095 41.9789 27.3588 42.0103 27.8975 42.3213L30.4961 43.8223C31.2554 44.2607 31.2627 45.3501 30.4805 45.7461C28.467 46.7654 26.3304 47.5 24.5 47.5C22.6982 47.5 20.5776 46.8166 18.5488 45.8232C16.4592 44.8001 14.2254 43.3296 12.1553 41.4971C8.06029 37.872 4.29499 32.5385 4.00293 26.1133L4 26.0566V9.5C4.00001 9.155 4.06989 8.82631 4.19629 8.52734C4.25953 8.37775 4.3369 8.23558 4.42676 8.10254C4.60657 7.83632 4.83631 7.60656 5.10254 7.42676C5.23558 7.3369 5.37775 7.25953 5.52734 7.19629C5.82631 7.06991 6.15501 7 6.5 7L6.76172 6.99316C8.16321 6.9203 10.9207 6.30032 14.083 5.15039C17.3838 3.95011 20.7046 2.32323 22.9023 0.576172C23.0654 0.440465 23.243 0.328495 23.4297 0.240235C23.7697 0.0788712 24.1357 -0.000230307 24.5 5.03633e-07Z" fill="#081E40"/>
<path d="M36 30C37.6569 30 39 31.3431 39 33C39 34.6569 37.6569 36 36 36C34.3431 36 33 34.6569 33 33C33 31.3431 34.3431 30 36 30Z" fill="#081E40"/>
<path fill-rule="evenodd" clip-rule="evenodd" d="M35 21.5771C35.6188 21.2199 36.3812 21.2199 37 21.5771L45.3926 26.4229C46.0112 26.7801 46.3924 27.44 46.3926 28.1543V37.8457C46.3924 38.56 46.0112 39.2199 45.3926 39.5771L37 44.4229C36.3812 44.7801 35.6188 44.7801 35 44.4229L26.6074 39.5771C25.9888 39.2199 25.6076 38.56 25.6074 37.8457V28.1543C25.6076 27.44 25.9888 26.7801 26.6074 26.4229L35 21.5771ZM36.5 27.0615C36.1905 26.8828 35.8095 26.8828 35.5 27.0615L31.1074 29.5977C30.7981 29.7763 30.6075 30.1067 30.6074 30.4639V35.5352C30.6075 35.8923 30.7981 36.2227 31.1074 36.4014L35.5 38.9375C35.8095 39.1162 36.1905 39.1162 36.5 38.9375L40.8926 36.4014C41.2019 36.2227 41.3925 35.8923 41.3926 35.5352V30.4639C41.3925 30.1067 41.2019 29.7763 40.8926 29.5977L36.5 27.0615Z" fill="#081E40"/>
</svg>
