<svg width="48" height="48" viewBox="0 0 48 48" fill="none" xmlns="http://www.w3.org/2000/svg">
<path fill-rule="evenodd" clip-rule="evenodd" d="M14.9653 31.5848C15.1946 32.9463 14.2767 34.236 12.9152 34.4653C11.5706 34.6917 9.98223 35.0768 8.79349 35.6674C7.62279 36.2489 7.51162 36.6616 7.50109 36.7593C7.51617 36.8111 7.59233 37.0087 7.92547 37.339C8.40365 37.8132 9.26565 38.4013 10.6448 38.9709C13.395 40.1065 17.7948 41 24 41C29.0498 41 33.5054 40.289 36.6089 39.1988C38.1718 38.6498 39.2551 38.052 39.8998 37.5104C40.2141 37.2465 40.3716 37.0396 40.4442 36.9127C40.4788 36.8522 40.4918 36.8142 40.4963 36.798C40.4987 36.7896 40.4995 36.7848 40.4997 36.7831L40.5 36.78C40.5 36.7803 40.5 36.7799 40.5 36.78C40.5009 36.7713 40.5095 36.6855 40.322 36.4773C40.0998 36.2305 39.6962 35.9281 39.0763 35.6204C37.8318 35.0029 36.2421 34.6211 35.1696 34.4781C33.801 34.2956 32.8395 33.0382 33.0219 31.6696C33.2044 30.301 34.4618 29.3395 35.8304 29.5219C37.2579 29.7123 39.4182 30.2084 41.2987 31.1416C43 31.9857 45.5 33.7236 45.5 36.78C45.5 38.7429 44.3862 40.2718 43.1158 41.339C41.8387 42.4117 40.1407 43.2577 38.266 43.9162C34.4946 45.241 29.4502 46 24 46C17.3802 46 12.28 45.0556 8.73643 43.5923C6.96873 42.8624 5.48541 41.9608 4.405 40.8896C3.33084 39.8245 2.5 38.423 2.5 36.78C2.5 33.7641 4.8328 32.0519 6.56901 31.1894C8.41777 30.271 10.5794 29.7883 12.0848 29.5347C13.4463 29.3054 14.736 30.2233 14.9653 31.5848ZM7.49774 36.7455C7.49777 36.7455 7.49796 36.7464 7.49821 36.7481L7.49774 36.7455Z" fill="#081E40"/>
<path fill-rule="evenodd" clip-rule="evenodd" d="M24 14.75C23.3096 14.75 22.75 15.3096 22.75 16C22.75 16.6904 23.3096 17.25 24 17.25C24.6904 17.25 25.25 16.6904 25.25 16C25.25 15.3096 24.6904 14.75 24 14.75ZM18.25 16C18.25 12.8244 20.8244 10.25 24 10.25C27.1756 10.25 29.75 12.8244 29.75 16C29.75 19.1756 27.1756 21.75 24 21.75C20.8244 21.75 18.25 19.1756 18.25 16Z" fill="#081E40"/>
<path fill-rule="evenodd" clip-rule="evenodd" d="M24 2C20.7293 2 16.8236 3.15799 13.8493 5.71662C10.7644 8.37042 8.79487 12.4502 9.52242 17.8348C9.70529 19.1881 10.4287 20.8112 11.2331 22.3277C12.0842 23.9324 13.1999 25.7317 14.4221 27.5301C16.8481 31.1002 19.8192 34.8506 22.2133 37.2487C22.2196 37.2551 22.2258 37.2615 22.2322 37.2678C22.6593 37.695 23.2027 37.9352 23.7605 37.9886C23.9717 38.0088 24.1851 38.0022 24.395 37.9688C24.8976 37.8888 25.3805 37.6552 25.7679 37.2678C25.7742 37.2614 25.7805 37.2551 25.7867 37.2487C28.1808 34.8505 31.1519 31.1002 33.5779 27.5301C34.8001 25.7317 35.9158 23.9324 36.7669 22.3277C37.5713 20.8112 38.2947 19.1881 38.4776 17.8348C39.2052 12.4502 37.2357 8.37042 34.1507 5.71662C31.1764 3.15799 27.2707 2 24 2ZM24 7C21.7707 7 19.066 7.82448 17.11 9.50708C15.2647 11.0945 13.9841 13.5147 14.4774 17.1652C14.531 17.5619 14.8633 18.5013 15.6502 19.9848C16.3903 21.3801 17.4013 23.0183 18.5576 24.7199C20.1536 27.0685 21.9659 29.4495 23.6257 31.3918C23.8226 31.6222 24.1774 31.6222 24.3743 31.3918C26.0341 29.4495 27.8464 27.0685 29.4424 24.7199C30.5987 23.0183 31.6097 21.3801 32.3498 19.9848C33.1367 18.5013 33.469 17.5619 33.5226 17.1652C34.0159 13.5147 32.7353 11.0945 30.89 9.50708C28.934 7.82448 26.2294 7 24 7Z" fill="#081E40"/>
</svg>
