<svg width="45" height="45" viewBox="0 0 45 45" fill="none" xmlns="http://www.w3.org/2000/svg">
<path fill-rule="evenodd" clip-rule="evenodd" d="M4 0C1.79086 0 0 1.79086 0 4V40C0 42.2091 1.79086 44 4 44H18.1C19.4807 44 20.6 42.8807 20.6 41.5C20.6 40.1193 19.4807 39 18.1 39H7C5.89543 39 5 38.1046 5 37V7C5 5.89543 5.89543 5 7 5H37C38.1046 5 39 5.89543 39 7V17.9186C39 19.2993 40.1193 20.4186 41.5 20.4186C42.8807 20.4186 44 19.2993 44 17.9186V4C44 1.79086 42.2091 0 40 0H4ZM10.5 14C9.11929 14 8 15.1193 8 16.5C8 17.8807 9.11929 19 10.5 19L30.5 19C31.8807 19 33 17.8807 33 16.5C33 15.1193 31.8807 14 30.5 14L10.5 14ZM8 26.5C8 25.1193 9.11929 24 10.5 24L24.5 24C25.8807 24 27 25.1193 27 26.5C27 27.8807 25.8807 29 24.5 29L10.5 29C9.11929 29 8 27.8807 8 26.5ZM44.5114 29.985C45.3316 28.8743 45.0961 27.309 43.9854 26.4888C42.8747 25.6686 41.3094 25.9041 40.4892 27.0148L32.2798 38.1318L27.8501 35.2904C26.6879 34.5449 25.1415 34.8827 24.396 36.0449C23.6505 37.207 23.9883 38.7535 25.1505 39.4989L31.9446 43.857C32.8314 44.4258 34.0074 44.2092 34.6333 43.3616L44.5114 29.985Z" fill="#081E40"/>
</svg>
