<svg width="48" height="48" viewBox="0 0 48 48" fill="none" xmlns="http://www.w3.org/2000/svg">
<rect width="48" height="48" fill="white"/>
<path d="M24 1C30.0751 1 35 5.92487 35 12C35 18.0751 30.0751 23 24 23C23.2333 23 22.4851 22.9208 21.7627 22.7715C21.4705 23.0627 21.103 23.2865 20.6777 23.4062C12.0057 25.8492 5.5 33.5101 5.5 44.5C5.5 45.8807 4.38071 47 3 47C1.61929 47 0.500001 45.8807 0.5 44.5C0.5 32.6117 6.95987 23.6168 16.1543 19.708C14.204 17.7231 13 15.0025 13 12C13 5.92487 17.9249 1 24 1ZM45.0498 41.5C46.4305 41.5 47.5498 42.6193 47.5498 44C47.5498 45.3807 46.4305 46.5 45.0498 46.5H30C28.6193 46.5 27.5 45.3807 27.5 44C27.5 42.6193 28.6193 41.5 30 41.5H45.0498ZM45.0498 33.5C46.4305 33.5 47.5498 34.6193 47.5498 36C47.5498 37.3807 46.4305 38.5 45.0498 38.5H30C28.6193 38.5 27.5 37.3807 27.5 36C27.5 34.6193 28.6193 33.5 30 33.5H45.0498ZM45.0498 25.5C46.4305 25.5 47.5498 26.6193 47.5498 28C47.5498 29.3807 46.4305 30.5 45.0498 30.5L30 30.5C28.6193 30.5 27.5 29.3807 27.5 28C27.5 26.6193 28.6193 25.5 30 25.5L45.0498 25.5ZM24 6C20.6863 6 18 8.68629 18 12C18 15.3137 20.6863 18 24 18C27.3137 18 30 15.3137 30 12C30 8.68629 27.3137 6 24 6Z" fill="#081E40"/>
</svg>
