<svg width="48" height="48" viewBox="0 0 48 48" fill="none" xmlns="http://www.w3.org/2000/svg">
<path d="M38.8085 45H10.192C8.5498 45 6.97484 44.3329 5.8136 43.1454C4.65237 41.958 4 40.3474 4 38.6681V34.3319C4 32.6526 4.65237 31.042 5.8136 29.8546C6.97484 28.6671 8.5498 28 10.192 28H38.8085C39.6216 28 40.4268 28.1638 41.178 28.482C41.9292 28.8002 42.6118 29.2666 43.1867 29.8546C43.7617 30.4426 44.2177 31.1406 44.5288 31.9088C44.84 32.6771 45.0001 33.5004 45 34.3319V38.6681C45.0001 39.4996 44.84 40.3229 44.5288 41.0912C44.2177 41.8594 43.7617 42.5574 43.1867 43.1454C42.6118 43.7334 41.9292 44.1998 41.178 44.518C40.4268 44.8362 39.6216 45 38.8085 45ZM40.9003 38.6394V34.3606C40.9003 34.0834 40.8469 33.8089 40.7432 33.5528C40.6395 33.2968 40.4874 33.0641 40.2957 32.8681C40.104 32.6721 39.8764 32.5167 39.626 32.4106C39.3755 32.3046 39.1071 32.2501 38.836 32.2501H10.164C9.89295 32.2501 9.62454 32.3046 9.37412 32.4106C9.12369 32.5167 8.89615 32.6721 8.70449 32.8681C8.51283 33.0641 8.36081 33.2968 8.25712 33.5529C8.15342 33.809 8.10008 34.0834 8.10015 34.3606V38.6394C8.10008 38.9166 8.15342 39.191 8.25712 39.4471C8.36081 39.7032 8.51283 39.9359 8.70449 40.1319C8.89615 40.3279 9.12369 40.4833 9.37412 40.5894C9.62454 40.6954 9.89295 40.7499 10.164 40.7499H38.836C39.1071 40.7499 39.3755 40.6954 39.626 40.5894C39.8764 40.4833 40.104 40.3279 40.2957 40.1319C40.4874 39.9359 40.6395 39.7032 40.7432 39.4472C40.8469 39.1911 40.9003 38.9166 40.9003 38.6394Z" fill="#081E40"/>
<path d="M38.8085 32H10.192C8.5498 32 6.97484 31.3329 5.8136 30.1454C4.65237 28.958 4 27.3474 4 25.6681V21.3319C4 19.6526 4.65237 18.042 5.8136 16.8546C6.97484 15.6671 8.5498 15 10.192 15H38.8085C39.6216 15 40.4268 15.1638 41.178 15.482C41.9292 15.8002 42.6118 16.2666 43.1867 16.8546C43.7617 17.4426 44.2177 18.1406 44.5288 18.9088C44.84 19.6771 45.0001 20.5004 45 21.3319V25.6681C45.0001 26.4996 44.84 27.3229 44.5288 28.0912C44.2177 28.8594 43.7617 29.5574 43.1867 30.1454C42.6118 30.7334 41.9292 31.1998 41.178 31.518C40.4268 31.8362 39.6216 32 38.8085 32ZM40.9003 25.6394V21.3606C40.9003 21.0834 40.8469 20.8089 40.7432 20.5528C40.6395 20.2968 40.4874 20.0641 40.2957 19.8681C40.104 19.6721 39.8764 19.5167 39.626 19.4106C39.3755 19.3046 39.1071 19.2501 38.836 19.2501H10.164C9.89295 19.2501 9.62454 19.3046 9.37412 19.4106C9.12369 19.5167 8.89615 19.6721 8.70449 19.8681C8.51283 20.0641 8.36081 20.2968 8.25712 20.5529C8.15342 20.809 8.10008 21.0834 8.10015 21.3606V25.6394C8.10008 25.9166 8.15342 26.191 8.25712 26.4471C8.36081 26.7032 8.51283 26.9359 8.70449 27.1319C8.89615 27.3279 9.12369 27.4833 9.37412 27.5894C9.62454 27.6954 9.89295 27.7499 10.164 27.7499H38.836C39.1071 27.7499 39.3755 27.6954 39.626 27.5894C39.8764 27.4833 40.104 27.3279 40.2957 27.1319C40.4874 26.9359 40.6395 26.7032 40.7432 26.4472C40.8469 26.1911 40.9003 25.9166 40.9003 25.6394Z" fill="#081E40"/>
<path d="M38.8085 19H10.192C8.5498 19 6.97484 18.3329 5.8136 17.1454C4.65237 15.958 4 14.3474 4 12.6681V8.33193C4 6.6526 4.65237 5.04205 5.8136 3.85458C6.97484 2.66711 8.5498 2 10.192 2H38.8085C39.6216 2 40.4268 2.16378 41.178 2.482C41.9292 2.80022 42.6118 3.26663 43.1867 3.85461C43.7617 4.44259 44.2177 5.14062 44.5288 5.90884C44.84 6.67706 45.0001 7.50043 45 8.33193V12.6681C45.0001 13.4996 44.84 14.3229 44.5288 15.0912C44.2177 15.8594 43.7617 16.5574 43.1867 17.1454C42.6118 17.7334 41.9292 18.1998 41.178 18.518C40.4268 18.8362 39.6216 19 38.8085 19ZM40.9004 12.6394V8.3606C40.9004 8.08341 40.847 7.80893 40.7432 7.55284C40.6395 7.29675 40.4874 7.06407 40.2957 6.86809C40.104 6.67211 39.8764 6.51666 39.626 6.41063C39.3755 6.3046 39.1071 6.25006 38.836 6.25013H10.164C9.89295 6.25006 9.62455 6.3046 9.37412 6.41064C9.12369 6.51668 8.89615 6.67213 8.70449 6.86812C8.51283 7.06411 8.36081 7.29679 8.25712 7.55288C8.15342 7.80896 8.10008 8.08343 8.10015 8.3606V12.6394C8.10008 12.9166 8.15342 13.191 8.25712 13.4471C8.36081 13.7032 8.51283 13.9359 8.70449 14.1319C8.89615 14.3279 9.12369 14.4833 9.37412 14.5894C9.62455 14.6954 9.89295 14.7499 10.164 14.7499H38.836C39.1071 14.7499 39.3755 14.6954 39.626 14.5894C39.8764 14.4833 40.104 14.3279 40.2957 14.1319C40.4874 13.9359 40.6395 13.7032 40.7432 13.4472C40.847 13.1911 40.9004 12.9166 40.9004 12.6394Z" fill="#081E40"/>
<path fill-rule="evenodd" clip-rule="evenodd" d="M12 10C12 10.5304 12.2107 11.0391 12.5858 11.4142C12.9609 11.7893 13.4696 12 14 12C14.5304 12 15.0391 11.7893 15.4142 11.4142C15.7893 11.0391 16 10.5304 16 10C16 9.46957 15.7893 8.96086 15.4142 8.58579C15.0391 8.21071 14.5304 8 14 8C13.4696 8 12.9609 8.21071 12.5858 8.58579C12.2107 8.96086 12 9.46957 12 10ZM12 23C12 23.5304 12.2107 24.0391 12.5858 24.4142C12.9609 24.7893 13.4696 25 14 25C14.5304 25 15.0391 24.7893 15.4142 24.4142C15.7893 24.0391 16 23.5304 16 23C16 22.4696 15.7893 21.9609 15.4142 21.5858C15.0391 21.2107 14.5304 21 14 21C13.4696 21 12.9609 21.2107 12.5858 21.5858C12.2107 21.9609 12 22.4696 12 23ZM12.5858 38.4142C12.2107 38.0391 12 37.5304 12 37C12 36.4696 12.2107 35.9609 12.5858 35.5858C12.9609 35.2107 13.4696 35 14 35C14.5304 35 15.0391 35.2107 15.4142 35.5858C15.7893 35.9609 16 36.4696 16 37C16 37.5304 15.7893 38.0391 15.4142 38.4142C15.0391 38.7893 14.5304 39 14 39C13.4696 39 12.9609 38.7893 12.5858 38.4142Z" fill="#081E40"/>
</svg>
