<svg width="48" height="48" viewBox="0 0 48 48" fill="none" xmlns="http://www.w3.org/2000/svg">
<path fill-rule="evenodd" clip-rule="evenodd" d="M33 24C33 28.9706 28.9706 33 24 33C19.0294 33 15 28.9706 15 24C15 19.0294 19.0294 15 24 15C28.9706 15 33 19.0294 33 24ZM28 24C28 26.2091 26.2091 28 24 28C21.7909 28 20 26.2091 20 24C20 21.7909 21.7909 20 24 20C26.2091 20 28 21.7909 28 24Z" fill="#081E40"/>
<path fill-rule="evenodd" clip-rule="evenodd" d="M48 24C48 33.9411 37.2548 42 24 42C10.7452 42 0 33.9411 0 24C0 14.0589 10.7452 6 24 6C37.2548 6 48 14.0589 48 24ZM43 24C43 27.0439 41.3666 30.1809 37.9706 32.7279C34.573 35.2761 29.6502 37 24 37C18.3498 37 13.427 35.2761 10.0294 32.7279C6.63342 30.1809 5 27.0439 5 24C5 20.9561 6.63342 17.8191 10.0294 15.2721C13.427 12.7239 18.3498 11 24 11C29.6502 11 34.573 12.7239 37.9706 15.2721C41.3666 17.8191 43 20.9561 43 24Z" fill="#081E40"/>
</svg>
