<svg width="48" height="48" viewBox="0 0 48 48" fill="none" xmlns="http://www.w3.org/2000/svg">
<path fill-rule="evenodd" clip-rule="evenodd" d="M33 41H15C11.134 41 8 37.866 8 34V24H40V34C40 37.866 36.866 41 33 41ZM15 46C8.37258 46 3 40.6274 3 34V22C3 20.3431 4.34315 19 6 19H42C43.6569 19 45 20.3431 45 22V34C45 40.6274 39.6274 46 33 46H15Z" fill="#081E40"/>
<path fill-rule="evenodd" clip-rule="evenodd" d="M28 7H20C16.134 7 13 10.134 13 14V19H35V14C35 10.134 31.866 7 28 7ZM20 2C13.3726 2 8 7.37258 8 14V24H40V14C40 7.37258 34.6274 2 28 2H20Z" fill="#081E40"/>
<path d="M22 30C22 28.8954 22.8954 28 24 28C25.1046 28 26 28.8954 26 30V34C26 35.1046 25.1046 36 24 36C22.8954 36 22 35.1046 22 34V30Z" fill="#081E40"/>
</svg>
