<svg width="48" height="48" viewBox="0 0 48 48" fill="none" xmlns="http://www.w3.org/2000/svg">
<path fill-rule="evenodd" clip-rule="evenodd" d="M1.6445 9.89931C2.8047 9.15079 4.35203 9.48453 5.10055 10.6447C8.21245 15.4682 13.8429 20.6545 20.4551 22.0543C26.7583 23.3887 34.6882 21.4238 43.0102 10.4863C43.8463 9.38744 45.4148 9.17443 46.5136 10.0105C47.6124 10.8465 47.8254 12.4151 46.9894 13.5139C45.111 15.9826 43.2091 18.0803 41.2979 19.8396L46.8981 26.3731C47.7966 27.4214 47.6752 28.9996 46.6269 29.8982C45.5786 30.7967 44.0004 30.6753 43.1018 29.627L37.3936 22.9674C35.8408 24.032 34.2881 24.8894 32.7431 25.5568L35.4118 35.3421C35.7751 36.6742 34.9897 38.0485 33.6577 38.4118C32.3256 38.7751 30.9512 37.9897 30.588 36.6577L27.9652 27.041C25.2567 27.5612 22.5969 27.5367 20.028 27.066L17.412 36.6577C17.0488 37.9897 15.6744 38.7751 14.3423 38.4118C13.0103 38.0485 12.2249 36.6742 12.5882 35.3421L15.2338 25.6417C13.5556 24.948 11.9702 24.0828 10.4916 23.1013L4.89819 29.627C3.99963 30.6753 2.42138 30.7967 1.37307 29.8982C0.324752 28.9996 0.203348 27.4214 1.1019 26.3731L6.55314 20.0133C4.23484 17.8938 2.32157 15.5603 0.899071 13.3554C0.15055 12.1952 0.484288 10.6478 1.6445 9.89931Z" fill="#081E40"/>
</svg>
