<svg width="48" height="48" viewBox="0 0 48 48" fill="none" xmlns="http://www.w3.org/2000/svg">
<path d="M24 1C25.5863 1 26.8723 2.28718 26.8723 3.875V44.125C26.8723 45.7128 25.5863 47 24 47C22.4137 47 21.1277 45.7128 21.1277 44.125V3.875C21.1277 2.28718 22.4137 1 24 1ZM13.4681 7.22917C14.79 7.22917 15.8617 8.30182 15.8617 9.625C15.8617 10.9482 14.79 12.0208 13.4681 12.0208H6.28723V35.9792H13.4681C14.79 35.9792 15.8617 37.0518 15.8617 38.375C15.8617 39.6982 14.79 40.7708 13.4681 40.7708H3.89362C2.57166 40.7708 1.5 39.6982 1.5 38.375V9.625L1.51216 9.3798C1.63483 8.17179 2.65435 7.22917 3.89362 7.22917H13.4681ZM44.3514 7.24133C45.5582 7.36412 46.5 8.38459 46.5 9.625V38.375C46.5 39.6982 45.4283 40.7708 44.1064 40.7708H34.5319C33.21 40.7708 32.1383 39.6982 32.1383 38.375C32.1383 37.0518 33.21 35.9792 34.5319 35.9792H41.7128V12.0208H34.5319C33.21 12.0208 32.1383 10.9482 32.1383 9.625C32.1383 8.30182 33.21 7.22917 34.5319 7.22917H44.1064L44.3514 7.24133Z" fill="#081E40"/>
</svg>
