<svg width="48" height="48" viewBox="0 0 48 48" fill="none" xmlns="http://www.w3.org/2000/svg">
<path fill-rule="evenodd" clip-rule="evenodd" d="M6 2C3.79086 2 2 3.79086 2 6V31C2 33.2091 3.79086 35 6 35H21.5V41H8C6.61929 41 5.5 42.1193 5.5 43.5C5.5 44.8807 6.61929 46 8 46H40C41.3807 46 42.5 44.8807 42.5 43.5C42.5 42.1193 41.3807 41 40 41H26.5V35H42C44.2091 35 46 33.2091 46 31V6C46 3.79086 44.2091 2 42 2H6ZM7 9C7 7.89543 7.89543 7 9 7H39C40.1046 7 41 7.89543 41 9V28C41 29.1046 40.1046 30 39 30H9C7.89543 30 7 29.1046 7 28V9ZM12 22.5C10.6193 22.5 9.5 23.6193 9.5 25C9.5 26.3807 10.6193 27.5 12 27.5H36C37.3807 27.5 38.5 26.3807 38.5 25C38.5 23.6193 37.3807 22.5 36 22.5H12Z" fill="#081E40"/>
</svg>
