<svg width="48" height="48" viewBox="0 0 48 48" fill="none" xmlns="http://www.w3.org/2000/svg">
<path fill-rule="evenodd" clip-rule="evenodd" d="M7 28.3C7 26.9193 5.88071 25.8 4.5 25.8C3.11929 25.8 2 26.9193 2 28.3L2 41.3C2 43.7853 4.01472 45.8 6.5 45.8L41.5 45.8001C43.9853 45.8001 46 43.7853 46 41.3001L46 28.3001C46 26.9193 44.8807 25.8001 43.5 25.8001C42.1193 25.8001 41 26.9193 41 28.3001L41 38.8001C41 39.9046 40.1046 40.8001 39 40.8001L9 40.8C7.89543 40.8 7 39.9046 7 38.8L7 28.3ZM24 36.8C22.6193 36.8 21.5 35.6808 21.5 34.3L21.5 10.3356L12.2678 19.5678C11.2915 20.5441 9.70855 20.5441 8.73224 19.5678C7.75593 18.5915 7.75593 17.0086 8.73224 16.0323L21.5251 3.23938C22.892 1.87255 25.108 1.87255 26.4749 3.23938L39.2678 16.0323C40.2441 17.0086 40.2441 18.5915 39.2678 19.5678C38.2915 20.5441 36.7085 20.5441 35.7322 19.5678L26.5 10.3356L26.5 34.3C26.5 35.6808 25.3807 36.8 24 36.8Z" fill="#081E40"/>
</svg>
