<svg width="48" height="48" viewBox="0 0 48 48" fill="none" xmlns="http://www.w3.org/2000/svg">
<g clip-path="url(#clip0_2211_6354)">
<path fill-rule="evenodd" clip-rule="evenodd" d="M7.88989 0C5.68075 0 3.88989 1.79086 3.88989 4V44C3.88989 46.2091 5.68075 48 7.88989 48L16.8899 48C18.2706 48 19.3899 46.8807 19.3899 45.5C19.3899 44.1193 18.2706 43 16.8899 43L10.8899 43C9.78532 43 8.88989 42.1046 8.88989 41V7C8.88989 5.89543 9.78532 5 10.8899 5H35.8899C36.9945 5 37.8899 5.89543 37.8899 7V19.5C37.8899 20.8807 39.0092 22 40.3899 22C41.7706 22 42.8899 20.8807 42.8899 19.5V4C42.8899 1.79086 41.099 0 38.8899 0H7.88989ZM36.0546 23.9142C34.7946 22.6543 32.6403 23.5466 32.6403 25.3284V28.5414C27.2571 30.1926 22.3901 35.7249 21.7417 43.4533L21.6558 45.5526C21.6174 46.4916 22.778 46.9602 23.4024 46.2578L24.7982 44.6875C27.7246 41.3954 30.2315 39.7045 32.6403 38.7873V41.1213C32.6403 42.9031 34.7946 43.7955 36.0546 42.5355L43.2439 35.3462C44.4155 34.1746 44.4155 32.2751 43.2439 31.1036L36.0546 23.9142ZM36.1403 29.9249V28.9497L40.4155 33.2249L36.1403 37.5V36.4446C36.1403 35.3245 35.1027 34.4928 34.0095 34.7365C31.5424 35.2865 29.1563 36.2941 26.6765 38.1484C28.5194 34.5433 31.8065 32.1105 34.6668 31.6529C35.5158 31.5171 36.1403 30.7846 36.1403 29.9249ZM11.3899 12.5C11.3899 11.1193 12.5092 10 13.8899 10H31.8899C33.2706 10 34.3899 11.1193 34.3899 12.5C34.3899 13.8807 33.2706 15 31.8899 15H13.8899C12.5092 15 11.3899 13.8807 11.3899 12.5ZM13.8899 19C12.5092 19 11.3899 20.1193 11.3899 21.5C11.3899 22.8807 12.5092 24 13.8899 24H22.8899C24.2706 24 25.3899 22.8807 25.3899 21.5C25.3899 20.1193 24.2706 19 22.8899 19H13.8899Z" fill="#081E40"/>
</g>
<defs>
<clipPath id="clip0_2211_6354">
<rect width="48" height="48" fill="white"/>
</clipPath>
</defs>
</svg>
