<svg width="48" height="48" viewBox="0 0 48 48" fill="none" xmlns="http://www.w3.org/2000/svg">
<path fill-rule="evenodd" clip-rule="evenodd" d="M24 2C25.3807 2 26.5 3.11929 26.5 4.5V28.9645L35.7322 19.7322C36.7085 18.7559 38.2915 18.7559 39.2678 19.7322C40.2441 20.7085 40.2441 22.2915 39.2678 23.2678L26.4749 36.0607C25.108 37.4275 22.892 37.4275 21.5251 36.0607L8.73223 23.2678C7.75592 22.2915 7.75592 20.7085 8.73223 19.7322C9.70854 18.7559 11.2915 18.7559 12.2678 19.7322L21.5 28.9645V4.5C21.5 3.11929 22.6193 2 24 2ZM7 28.5C7 27.1193 5.88071 26 4.5 26C3.11929 26 2 27.1193 2 28.5V41.5C2 43.9853 4.01472 46 6.5 46H41.5C43.9853 46 46 43.9853 46 41.5V28.5C46 27.1193 44.8807 26 43.5 26C42.1193 26 41 27.1193 41 28.5V39C41 40.1046 40.1046 41 39 41H9C7.89543 41 7 40.1046 7 39V28.5Z" fill="#081E40"/>
</svg>
