<svg width="48" height="48" viewBox="0 0 48 48" fill="none" xmlns="http://www.w3.org/2000/svg">
<path fill-rule="evenodd" clip-rule="evenodd" d="M24.0096 48C36.1357 48 45.9659 38.7403 45.9659 27.3179C45.6719 20.7505 42.7313 14.034 35.8046 9.87041C33.4336 8.44521 29.491 4.99626 26.7538 2.60171C25.4927 1.4985 24.4874 0.619089 24.0096 0.264504C22.4944 -0.859718 21.3098 1.87884 21.3098 3.25111C20.7217 6.28971 22.9762 11.2887 22.9762 11.2887C20.9917 10.5708 20.5139 8.79679 20.1388 7.40429C19.7729 6.0456 19.5047 5.05016 18.0304 5.7535C11.4631 8.302 1.171 17.6139 2.05319 27.3179C2.05319 38.7403 11.8834 48 24.0096 48ZM13.5662 20.7505C10.3181 20.7505 7.68506 23.3836 7.68506 26.6317V27.4158C7.68506 32.8293 12.0735 37.2178 17.487 37.2178H30.8177C36.2311 37.2178 40.6196 32.8293 40.6196 27.4158V26.6317C40.6196 23.3836 37.9865 20.7505 34.7384 20.7505H32.1873C32.1468 20.7505 32.1071 20.7535 32.0685 20.7593C31.6664 20.82 31.5337 21.2955 31.4036 21.762C31.2699 22.2412 31.1388 22.7109 30.721 22.7109H17.1916C16.7738 22.7109 16.6427 22.2412 16.509 21.762C16.3789 21.2955 16.2462 20.82 15.8441 20.7593C15.8055 20.7535 15.7658 20.7505 15.7253 20.7505H13.5662ZM15.9188 25.8475C14.8361 25.8475 13.9584 26.7252 13.9584 27.8079V29.7682C13.9584 30.8509 14.8361 31.7286 15.9188 31.7286H16.3109C17.3936 31.7286 18.2713 30.8509 18.2713 29.7682V27.8079C18.2713 26.7252 17.3936 25.8475 16.3109 25.8475H15.9188ZM30.0335 27.8079C30.0335 26.7252 30.9112 25.8475 31.9939 25.8475H32.386C33.4687 25.8475 34.3464 26.7252 34.3464 27.8079V29.7682C34.3464 30.8509 33.4687 31.7286 32.386 31.7286H31.9939C30.9112 31.7286 30.0335 30.8509 30.0335 29.7682V27.8079Z" fill="#081E40"/>
</svg>
