<svg width="48" height="48" viewBox="0 0 48 48" fill="none" xmlns="http://www.w3.org/2000/svg">
<path fill-rule="evenodd" clip-rule="evenodd" d="M4.5 2C3.11929 2 2 3.11929 2 4.5C2 5.88071 3.11929 7 4.5 7L43.5 7C44.8807 7 46 5.88072 46 4.5C46 3.11929 44.8807 2 43.5 2L4.5 2ZM4.5 41C3.11929 41 2 42.1193 2 43.5C2 44.8807 3.11929 46 4.5 46L43.5 46C44.8807 46 46 44.8807 46 43.5C46 42.1193 44.8807 41 43.5 41L4.5 41ZM18.5 24C18.5 22.6193 19.6193 21.5 21 21.5L43.5 21.5C44.8807 21.5 46 22.6193 46 24C46 25.3807 44.8807 26.5 43.5 26.5L21 26.5C19.6193 26.5 18.5 25.3807 18.5 24ZM15.6709 24.8441C16.2894 24.4513 16.2894 23.5486 15.6709 23.1558L3.53617 15.4492C2.87041 15.0264 2.00007 15.5047 2.00007 16.2934L2.00007 31.7065C2.00007 32.4952 2.87041 32.9735 3.53617 32.5507L15.6709 24.8441Z" fill="#081E40"/>
</svg>
