<svg width="48" height="48" viewBox="0 0 48 48" fill="none" xmlns="http://www.w3.org/2000/svg">
<path fill-rule="evenodd" clip-rule="evenodd" d="M4.5 21C5.88071 21 7 19.8807 7 18.5L7 8.5C7 7.67157 7.67157 7 8.5 7L18.5 7C19.8807 7 21 5.88071 21 4.5C21 3.11929 19.8807 2 18.5 2L6.5 2C4.01472 2 2 4.01472 2 6.5L2 18.5C2 19.8807 3.11929 21 4.5 21ZM4.5 27C5.88071 27 7 28.1193 7 29.5L7 39.5C7 40.3284 7.67157 41 8.5 41H18.5C19.8807 41 21 42.1193 21 43.5C21 44.8807 19.8807 46 18.5 46H6.5C4.01472 46 2 43.9853 2 41.5L2 29.5C2 28.1193 3.11929 27 4.5 27ZM41 18.5C41 19.8807 42.1193 21 43.5 21C44.8807 21 46 19.8807 46 18.5L46 6.5C46 4.01472 43.9853 2 41.5 2L29.5 2C28.1193 2 27 3.11929 27 4.5C27 5.88071 28.1193 7 29.5 7L39.5 7C40.3284 7 41 7.67157 41 8.5V18.5ZM43.5 27C42.1193 27 41 28.1193 41 29.5V39.5C41 40.3284 40.3284 41 39.5 41H29.5C28.1193 41 27 42.1193 27 43.5C27 44.8807 28.1193 46 29.5 46H41.5C43.9853 46 46 43.9853 46 41.5L46 29.5C46 28.1193 44.8807 27 43.5 27Z" fill="#081E40"/>
</svg>
