<svg width="48" height="48" viewBox="0 0 48 48" fill="none" xmlns="http://www.w3.org/2000/svg">
<path d="M44 4C46.2091 4 48 5.79086 48 8V40L47.9951 40.2061C47.8913 42.2512 46.2512 43.8913 44.2061 43.9951L44 44H4L3.79395 43.9951C1.68056 43.8879 0 42.14 0 40L0 8C5.92725e-07 5.79086 1.79086 4 4 4L44 4ZM5 37C5 38.1046 5.89543 39 7 39H41C42.1046 39 43 38.1046 43 37V23.5L5 23.5L5 37ZM7 9C5.89543 9 5 9.89543 5 11L5 18.5H43V11C43 9.89543 42.1046 9 41 9L7 9ZM14 11.5C15.3807 11.5 16.5 12.6193 16.5 14C16.5 15.3807 15.3807 16.5 14 16.5H10C8.61929 16.5 7.5 15.3807 7.5 14C7.5 12.6193 8.61929 11.5 10 11.5H14Z" fill="#081E40"/>
</svg>
