<svg width="48" height="48" viewBox="0 0 48 48" fill="none" xmlns="http://www.w3.org/2000/svg">
<path fill-rule="evenodd" clip-rule="evenodd" d="M14.6149 19.7132L21.7343 23.8243V31.0093C21.7343 31.6076 21.9719 32.1813 22.395 32.6043C22.818 33.0273 23.3917 33.2649 23.9899 33.2649C24.5881 33.2649 25.1619 33.0273 25.5849 32.6043C26.0079 32.1813 26.2455 31.6076 26.2455 31.0093V23.8226L33.3592 19.7165L33.3605 19.7157C33.6186 19.5688 33.8451 19.3723 34.027 19.1376C34.2093 18.9025 34.3433 18.6337 34.4212 18.3466C34.4991 18.0595 34.5195 17.7599 34.4812 17.4649C34.4428 17.1699 34.3465 16.8854 34.1978 16.6278C34.0491 16.3702 33.8508 16.1445 33.6145 15.9638C33.3782 15.7831 33.1085 15.651 32.8209 15.5749C32.5333 15.4989 32.2335 15.4805 31.9388 15.5208C31.6447 15.561 31.3614 15.6589 31.1052 15.8088L31.1036 15.8097L23.9882 19.9136L16.8732 15.808L16.8705 15.8064C16.3527 15.512 15.7395 15.4344 15.1646 15.5904C14.5898 15.7465 14.1 16.1236 13.8022 16.6394C13.5044 17.1553 13.4227 17.768 13.5749 18.3438C13.7272 18.9197 14.101 19.4119 14.6149 19.7132ZM40.0345 14.4538C40.1893 14.5432 40.2845 14.7082 40.2845 14.8868V33.1133C40.2845 33.292 40.1893 33.457 40.0346 33.5464L24.2499 42.6596C24.0952 42.7489 23.9046 42.7489 23.7499 42.6596L7.96533 33.5464C7.81063 33.457 7.71533 33.292 7.71533 33.1133L7.71533 14.8868C7.71533 14.7082 7.81063 14.5431 7.96533 14.4538L23.7499 5.34058C23.9046 5.25127 24.0952 5.25127 24.2499 5.34058L40.0345 14.4538ZM26.2499 0.721782C24.8576 -0.0820652 23.1422 -0.0820656 21.7499 0.721782L4.96533 10.4124C3.57303 11.2162 2.71533 12.7018 2.71533 14.3095V33.6907C2.71533 35.2984 3.57303 36.784 4.96533 37.5878L21.7499 47.2784C23.1422 48.0823 24.8576 48.0823 26.2499 47.2784L43.0345 37.5878C44.4269 36.784 45.2845 35.2984 45.2845 33.6907V14.3095C45.2845 12.7018 44.4269 11.2162 43.0345 10.4124L26.2499 0.721782Z" fill="#081E40"/>
</svg>
