<svg width="48" height="48" viewBox="0 0 48 48" fill="none" xmlns="http://www.w3.org/2000/svg">
<path d="M40 0C42.2091 0 44 1.79086 44 4V44C44 46.2091 42.2091 48 40 48H8C5.79086 48 4 46.2091 4 44V4C4 3.9309 4.00142 3.86219 4.00488 3.79395C4.11211 1.68056 5.85996 0 8 0H40ZM11 5C9.89543 5 9 5.89543 9 7V41C9 42.1046 9.89543 43 11 43H37C38.1046 43 39 42.1046 39 41V7C39 5.89543 38.1046 5 37 5H36V11C36 12.1046 35.1046 13 34 13H14C12.8954 13 12 12.1046 12 11V5H11ZM30.9893 19.5146C31.8095 18.4042 33.3748 18.1691 34.4854 18.9893C35.5958 19.8095 35.8309 21.3748 35.0107 22.4854L25.4111 35.4854L24.0205 37.3682L22.0498 36.1045L15.6504 31.999C14.4882 31.2536 14.1501 29.7071 14.8955 28.5449C15.6409 27.3829 17.1875 27.0448 18.3496 27.79L22.7793 30.6309L30.9893 19.5146ZM16.8398 8H31.1602V5H16.8398V8Z" fill="#081E40"/>
</svg>
