<svg width="48" height="48" viewBox="0 0 48 48" fill="none" xmlns="http://www.w3.org/2000/svg">
<path fill-rule="evenodd" clip-rule="evenodd" d="M12.8391 2.73223C13.8154 3.70854 13.8154 5.29146 12.8391 6.26777L5.76801 13.3388C4.7917 14.3151 3.20879 14.3151 2.23248 13.3388C1.25617 12.3625 1.25617 10.7796 2.23248 9.8033L9.30354 2.73223C10.2799 1.75592 11.8628 1.75592 12.8391 2.73223ZM8.94433 36.0914L3.23248 41.8033C2.25617 42.7796 2.25617 44.3625 3.23248 45.3388C4.20879 46.3151 5.7917 46.3151 6.76801 45.3388L12.4893 39.6176C15.6835 42.0535 19.6729 43.5 24 43.5C28.3455 43.5 32.3502 42.0412 35.5512 39.5867L41.3033 45.3388C42.2796 46.3151 43.8625 46.3151 44.8389 45.3388C45.8152 44.3625 45.8152 42.7796 44.8389 41.8033L39.0867 36.0511C41.5412 32.8501 43 28.8454 43 24.5C43 14.0066 34.4934 5.5 24 5.5C13.5066 5.5 5.00002 14.0066 5.00002 24.5C5.00002 28.8637 6.47108 32.8838 8.94433 36.0914ZM35.2323 2.73223C34.2559 3.70854 34.2559 5.29146 35.2323 6.26777L42.3033 13.3388C43.2796 14.3151 44.8625 14.3151 45.8389 13.3388C46.8152 12.3625 46.8152 10.7796 45.8389 9.8033L38.7678 2.73223C37.7915 1.75592 36.2086 1.75592 35.2323 2.73223ZM38 24.5C38 32.232 31.732 38.5 24 38.5C16.268 38.5 10 32.232 10 24.5C10 16.768 16.268 10.5 24 10.5C31.732 10.5 38 16.768 38 24.5Z" fill="#081E40"/>
</svg>
