<svg width="48" height="48" viewBox="0 0 48 48" fill="none" xmlns="http://www.w3.org/2000/svg">
<g clip-path="url(#clip0_3718_580)">
<path d="M4 4C4 1.79086 5.79086 0 8 0H39C41.2091 0 43 1.79086 43 4V19C43 20.3807 41.8807 21.5 40.5 21.5C39.1193 21.5 38 20.3807 38 19V7C38 5.89543 37.1046 5 36 5H11C9.89543 5 9 5.89543 9 7V41C9 42.1046 9.89543 43 11 43L17 43C18.3807 43 19.5 44.1193 19.5 45.5C19.5 46.8807 18.3807 48 17 48L8 48C5.79086 48 4 46.2091 4 44V4Z" fill="#081E40"/>
<path d="M14 10C12.6193 10 11.5 11.1193 11.5 12.5C11.5 13.8807 12.6193 15 14 15H32C33.3807 15 34.5 13.8807 34.5 12.5C34.5 11.1193 33.3807 10 32 10H14Z" fill="#081E40"/>
<path d="M14 19C12.6193 19 11.5 20.1193 11.5 21.5C11.5 22.8807 12.6193 24 14 24H23C24.3807 24 25.5 22.8807 25.5 21.5C25.5 20.1193 24.3807 19 23 19H14Z" fill="#081E40"/>
<path d="M28.7678 25.2322C29.7441 26.2085 29.7441 27.7915 28.7678 28.7678L25.7678 31.7678C24.7915 32.7441 23.2085 32.7441 22.2322 31.7678C21.2559 30.7915 21.2559 29.2085 22.2322 28.2322L25.2322 25.2322C26.2085 24.2559 27.7915 24.2559 28.7678 25.2322Z" fill="#081E40"/>
<path d="M39.2322 25.2322C40.2085 24.2559 41.7915 24.2559 42.7678 25.2322L45.7678 28.2322C46.7441 29.2085 46.7441 30.7915 45.7678 31.7678C44.7915 32.7441 43.2085 32.7441 42.2322 31.7678L39.2322 28.7678C38.2559 27.7915 38.2559 26.2085 39.2322 25.2322Z" fill="#081E40"/>
<path fill-rule="evenodd" clip-rule="evenodd" d="M30.6754 45.366L28.8119 47.3258C27.8605 48.3264 26.2781 48.3663 25.2775 47.4149C24.2769 46.4635 24.2371 44.8811 25.1885 43.8805L26.7105 42.2797C25.6345 40.7967 25 38.9724 25 37C25 32.0294 29.0294 28 34 28C38.9706 28 43 32.0294 43 37C43 38.9559 42.3761 40.7661 41.3164 42.2424L42.959 43.7759C43.9683 44.7181 44.0227 46.3 43.0805 47.3093C42.1383 48.3186 40.5563 48.373 39.547 47.4308L37.3321 45.363C36.3015 45.774 35.1772 46 34 46C32.8257 46 31.7039 45.7751 30.6754 45.366ZM38 37C38 39.2091 36.2091 41 34 41C31.7909 41 30 39.2091 30 37C30 34.7909 31.7909 33 34 33C36.2091 33 38 34.7909 38 37Z" fill="#081E40"/>
</g>
<defs>
<clipPath id="clip0_3718_580">
<rect width="48" height="48" fill="white"/>
</clipPath>
</defs>
</svg>
