<svg width="48" height="48" viewBox="0 0 48 48" fill="none" xmlns="http://www.w3.org/2000/svg">
<path d="M42 2C44.2091 2 46 3.79086 46 6V42C46 44.14 44.3194 45.8879 42.2061 45.9951L42 46H6L5.79395 45.9951C3.7488 45.8913 2.10865 44.2512 2.00488 42.2061L2 42L2 6C2 3.79086 3.79086 2 6 2L42 2ZM33.9854 14.4893C32.8748 13.6693 31.3095 13.9043 30.4893 15.0146L22.2793 26.1309L17.8496 23.29C16.6875 22.545 15.1409 22.8829 14.3955 24.0449C13.6503 25.207 13.9885 26.7536 15.1504 27.499L21.5498 31.6045L22.7324 32.3623C23.1758 32.6466 23.7642 32.5389 24.0771 32.1152L24.9111 30.9854L34.5107 17.9854C35.3309 16.8748 35.0958 15.3095 33.9854 14.4893Z" fill="#081E40"/>
</svg>
