<svg width="48" height="48" viewBox="0 0 48 48" fill="none" xmlns="http://www.w3.org/2000/svg">
<path fill-rule="evenodd" clip-rule="evenodd" d="M9 7C7.89543 7 7 7.89543 7 9V39C7 40.1046 7.89543 41 9 41H39C40.1046 41 41 40.1046 41 39V9C41 7.89543 40.1046 7 39 7H9ZM6 2C3.79086 2 2 3.79086 2 6V42C2 44.2091 3.79086 46 6 46H42C44.2091 46 46 44.2091 46 42V6C46 3.79086 44.2091 2 42 2H6Z" fill="#081E40"/>
<path d="M17.0425 21C20.3562 21 23.0425 18.3137 23.0425 15C23.0425 11.6863 20.3562 9 17.0425 9C13.7288 9 11.0425 11.6863 11.0425 15C11.0425 18.3137 13.7288 21 17.0425 21Z" fill="#081E40"/>
<path fill-rule="evenodd" clip-rule="evenodd" d="M25.5425 16C25.5425 14.6193 26.6618 13.5 28.0425 13.5H38.0425C39.4232 13.5 40.5425 14.6193 40.5425 16C40.5425 17.3807 39.4232 18.5 38.0425 18.5H28.0425C26.6618 18.5 25.5425 17.3807 25.5425 16ZM25.5425 22.8824C25.5425 21.5017 26.6618 20.3824 28.0425 20.3824H38.0425C39.4232 20.3824 40.5425 21.5017 40.5425 22.8824C40.5425 24.2631 39.4232 25.3824 38.0425 25.3824H28.0425C26.6618 25.3824 25.5425 24.2631 25.5425 22.8824Z" fill="#081E40"/>
<path fill-rule="evenodd" clip-rule="evenodd" d="M15.4021 27.998C15.1101 28.1845 14.5425 28.6467 14.5425 30.4839V42C14.5425 43.3807 13.4232 44.5 12.0425 44.5C10.6618 44.5 9.54248 43.3807 9.54248 42V30.4839C9.54248 27.3855 10.6415 25.1058 12.7107 23.7842C14.5417 22.6147 16.7097 22.5 18.1536 22.5C20.0045 22.5 22.0113 23.0452 23.5982 24.4027C25.2468 25.8131 26.2091 27.9048 26.2091 30.4839V32.1297L30.0901 27.2772C30.9525 26.199 32.5257 26.024 33.604 26.8863C34.6822 27.7487 34.8572 29.3219 33.9949 30.4002L26.2091 40.1348V42C26.2091 43.3807 25.0899 44.5 23.7091 44.5C22.3284 44.5 21.2091 43.3807 21.2091 42V39.278C21.209 39.2636 21.209 39.2493 21.2091 39.235V30.4839C21.2091 29.2242 20.7826 28.574 20.3479 28.2021C19.8514 27.7774 19.0805 27.5 18.1536 27.5C16.8197 27.5 15.9322 27.6595 15.4021 27.998Z" fill="#081E40"/>
</svg>
