<svg width="48" height="48" viewBox="0 0 48 48" fill="none" xmlns="http://www.w3.org/2000/svg">
<path fill-rule="evenodd" clip-rule="evenodd" d="M37.469 2.42354C37.3164 2.11103 36.9688 1.94266 36.6284 2.01776L34.7243 2.43444C34.3779 2.51075 34.1308 2.8172 34.1296 3.1721L34.1235 4.6777C33.6293 4.98173 33.1739 5.34391 32.7669 5.75211L31.3509 5.36692C31.0154 5.27486 30.6593 5.42507 30.4909 5.7291L29.5437 7.43335C29.3717 7.74223 29.4383 8.13103 29.7036 8.36602L30.7925 9.33504C30.675 9.85952 30.612 10.4046 30.612 10.9642V10.9727L29.4323 11.5311C29.1173 11.6801 28.9453 12.0253 29.0156 12.3669L29.4056 14.2758C29.4771 14.6235 29.7799 14.8754 30.1336 14.8815L31.7543 14.9105C32.0038 15.3042 32.2909 15.6736 32.6082 16.0116L32.1746 17.3864C32.0704 17.7195 32.2061 18.0804 32.5041 18.2609L34.1695 19.2723C34.4724 19.4564 34.8624 19.4067 35.1083 19.15L36.1136 18.1034C36.6478 18.2439 37.205 18.3251 37.7779 18.3421L38.4877 19.6127C38.6573 19.9167 39.0134 20.0657 39.3501 19.9724L41.2276 19.4552C41.5704 19.3607 41.8005 19.0422 41.7836 18.6885L41.7169 17.3391C42.1445 17.0884 42.5442 16.7965 42.9112 16.4682L44.4108 16.9055C44.7463 17.0024 45.1036 16.8582 45.2781 16.5566L46.2531 14.8693C46.43 14.5617 46.3706 14.1729 46.109 13.933L45.0915 12.9967C45.2551 12.4238 45.3507 11.8218 45.3713 11.2004L46.6286 10.5596C46.9399 10.401 47.1022 10.0509 47.0223 9.71175L46.5765 7.81491C46.4954 7.4697 46.1853 7.22743 45.8304 7.23106L44.372 7.24681C44.1068 6.7938 43.7955 6.37106 43.4442 5.98588L43.8621 4.43667C43.9529 4.09994 43.8015 3.74503 43.4963 3.57666L41.7908 2.6343C41.4795 2.46351 41.0919 2.53013 40.8569 2.79661L39.9339 3.84072C39.3295 3.67599 38.6948 3.58757 38.0395 3.58273L37.469 2.42354ZM31.0227 13.3964C31.0554 13.4206 31.0953 13.434 31.1377 13.434L33.0746 13.4013C33.421 14.1002 33.914 14.7155 34.5111 15.2073L33.9297 16.828C33.8982 16.9152 33.9345 17.0133 34.0169 17.0569L34.4941 17.3197C34.5717 17.3621 34.6686 17.3452 34.7267 17.2785L35.8471 16.0164C36.5061 16.2974 37.2316 16.4525 37.9935 16.4525C38.1546 16.4525 38.3133 16.4452 38.4707 16.4319L39.2411 17.9678C39.2799 18.0453 39.3659 18.0865 39.4507 18.0683L40.0248 17.9435C40.1157 17.9242 40.1798 17.8406 40.1738 17.7461L40.0575 16.0515C40.8363 15.7354 41.5256 15.246 42.0779 14.6307L43.81 15.2327C43.8924 15.2618 43.9832 15.2303 44.0317 15.1576L44.343 14.678C44.3951 14.5992 44.3805 14.495 44.3103 14.4333L42.9827 13.2547C43.3037 12.557 43.4817 11.7818 43.4817 10.9642C43.4817 10.7849 43.4733 10.6081 43.4563 10.4337L45.0285 9.65845C45.1061 9.61969 45.1485 9.5337 45.1303 9.44891L45.008 8.88323C44.9886 8.79118 44.905 8.72819 44.8117 8.73425L43.059 8.8469C42.7065 8.00506 42.1506 7.26984 41.4529 6.70296L42.1215 5.11982C42.1554 5.03867 42.13 4.94541 42.0573 4.89332L41.6152 4.57354C41.5389 4.51903 41.4347 4.52751 41.3693 4.59413L40.0854 5.88897C39.441 5.62249 38.7348 5.47595 37.9935 5.47595C37.7367 5.47595 37.4848 5.49289 37.2377 5.52681L36.5763 4.00182C36.5412 3.92066 36.4552 3.87464 36.3692 3.89039L35.8314 3.99091C35.7393 4.00787 35.6739 4.08903 35.6763 4.1823L35.7248 5.96529C34.8781 6.34926 34.1465 6.94279 33.5954 7.67925L32.0304 7.10873C31.9481 7.07845 31.856 7.10873 31.8076 7.18262L31.4999 7.64895C31.4478 7.72647 31.4611 7.83064 31.5302 7.89362L32.8371 9.07704C32.6227 9.66572 32.5053 10.3016 32.5053 10.9642C32.5053 11.2525 32.5271 11.5371 32.5707 11.8133L30.9173 12.5231C30.8591 12.5485 30.8204 12.5982 30.8071 12.6563C30.8664 12.9083 30.9379 13.1554 31.0227 13.3964ZM37.9935 14.3703C39.8746 14.3703 41.3996 12.8453 41.3996 10.9642C41.3996 9.0831 39.8746 7.55689 37.9935 7.55689C36.1124 7.55689 34.5862 9.0831 34.5862 10.9642C34.5862 12.8453 36.1124 14.3703 37.9935 14.3703ZM37.9935 12.4783C38.8293 12.4783 39.5076 11.8 39.5076 10.9642C39.5076 10.1284 38.8293 9.45011 37.9935 9.45011C37.1577 9.45011 36.4794 10.1284 36.4794 10.9642C36.4794 11.8 37.1577 12.4783 37.9935 12.4783ZM1 43.5C1 42.1193 2.11929 41 3.5 41H42.5C43.8807 41 45 42.1193 45 43.5C45 44.8807 43.8807 46 42.5 46H3.5C2.11929 46 1 44.8807 1 43.5ZM6 30V9C6 7.89543 6.89543 7 8 7H26.5C27.8807 7 29 5.88071 29 4.5C29 3.11929 27.8807 2 26.5 2H5C2.79086 2 1 3.79086 1 6V33C1 35.2091 2.79086 37 5 37H41C43.2091 37 45 35.2091 45 33V24.5C45 23.1193 43.8807 22 42.5 22C41.1193 22 40 23.1193 40 24.5V30C40 31.1046 39.1046 32 38 32H8C6.89543 32 6 31.1046 6 30Z" fill="#081E40"/>
</svg>
