<svg width="49" height="48" viewBox="0 0 49 48" fill="none" xmlns="http://www.w3.org/2000/svg">
<path d="M8.39365 13.5C11.4312 13.5 13.8937 11.0376 13.8937 8C13.8937 4.96243 11.4312 2.5 8.39365 2.5C5.35609 2.5 2.89365 4.96243 2.89365 8C2.89365 11.0376 5.35609 13.5 8.39365 13.5Z" fill="#081E40"/>
<path d="M11.3164 45.4984C10.7901 45.4984 10.3538 45.0904 10.3186 44.5653L9.49325 32.2475C9.45807 31.7223 9.02182 31.3143 8.49549 31.3143H8.41175C7.88054 31.3143 7.44203 31.7297 7.41322 32.2601L6.74567 44.5526C6.71687 45.0831 6.27836 45.4984 5.74714 45.4984H3.13438C2.55807 45.4984 2.10105 45.0126 2.13624 44.4373L3.08965 28.8553L0.421444 26.9625C0.100273 26.7346 -0.0572883 26.3395 0.0189691 25.9532L2.17455 15.0329C2.26705 14.5643 2.678 14.2266 3.15562 14.2266H7.05881C7.30386 14.2266 7.45342 14.4959 7.32384 14.7039C7.26541 14.7977 7.26089 14.9154 7.31197 15.0134L7.60043 15.5668C7.69797 15.7539 7.73381 15.9671 7.70282 16.1759L6.6893 23.0029C6.64167 23.3238 6.75264 23.6478 6.98699 23.8722L8.37682 25.2025C8.38621 25.2115 8.39152 25.2239 8.39152 25.2369V25.2833C8.39152 25.3085 8.42194 25.3212 8.43982 25.3034C8.45072 25.2926 8.46826 25.2924 8.47936 25.3031L8.48013 25.3038C8.49885 25.3217 8.52989 25.3084 8.52989 25.2825V25.2374C8.52989 25.2241 8.53533 25.2114 8.54494 25.2022L9.93614 23.8725C10.171 23.648 10.2822 23.3234 10.2343 23.0021L9.21652 16.1779C9.1852 15.9679 9.22153 15.7534 9.32023 15.5654L9.60982 15.014C9.66141 14.9157 9.65679 14.7975 9.5977 14.7035C9.46729 14.4963 9.61624 14.2266 9.86111 14.2266H14.6477L24.835 14.6805C25.5933 14.7143 26.039 15.5474 25.6462 16.1969L24.5287 18.0449C24.3505 18.3396 24.0332 18.5219 23.6888 18.5274L13.6725 18.6858L14.0367 28.8553L14.6732 44.4577C14.6963 45.0255 14.2423 45.4984 13.674 45.4984H11.3164Z" fill="#081E40"/>
<path fill-rule="evenodd" clip-rule="evenodd" d="M40.634 11.8294C41.8328 12.5144 42.2493 14.0416 41.5643 15.2403L37.7036 21.9966C36.783 23.6076 34.5492 23.8314 33.3273 22.435L32.8855 21.9301L31.3416 26.562C30.807 28.1658 28.9467 28.8894 27.4689 28.0684L24.1896 26.2465L21.2715 27.3408C19.9787 27.8256 18.5376 27.1706 18.0528 25.8778C17.568 24.585 18.223 23.144 19.5158 22.6592L23.4293 21.1916C24.1706 20.9137 24.9965 20.975 25.6886 21.3595L27.4745 22.3517L29.4116 16.5406C30.0713 14.5612 32.6311 14.0463 34.005 15.6164L34.9642 16.7127L37.223 12.7597C37.9081 11.5609 39.4352 11.1444 40.634 11.8294Z" fill="#081E40"/>
<path fill-rule="evenodd" clip-rule="evenodd" d="M13.8937 4.5C13.8937 3.11929 15.0129 2 16.3937 2H41.8229C45.4573 2 48.3856 4.98011 48.3219 8.61402L47.9622 29.114C47.9 32.6589 45.0086 35.5 41.4632 35.5H17.3937C16.0129 35.5 14.8937 34.3807 14.8937 33C14.8937 31.6193 16.0129 30.5 17.3937 30.5H41.4632C42.2814 30.5 42.9486 29.8444 42.963 29.0263L43.3226 8.52631C43.3373 7.68772 42.6616 7 41.8229 7H16.3937C15.0129 7 13.8937 5.88071 13.8937 4.5Z" fill="#081E40"/>
<path d="M25.8937 32.5H30.8937V39C30.8937 40.3807 29.7744 41.5 28.3937 41.5Lnan nanL28.3937 41.5C27.0129 41.5 25.8937 40.3807 25.8937 39V32.5Z" fill="#081E40"/>
<path fill-rule="evenodd" clip-rule="evenodd" d="M25.8937 32.5V39C25.8937 40.3807 27.0129 41.5 28.3937 41.5C29.7744 41.5 30.8937 40.3807 30.8937 39V32.5H25.8937Z" fill="#081E40"/>
<path fill-rule="evenodd" clip-rule="evenodd" d="M18.3937 44.5C18.3937 43.1193 19.5129 42 20.8937 42H36.3937C37.7744 42 38.8937 43.1193 38.8937 44.5C38.8937 45.8807 37.7744 47 36.3937 47H20.8937C19.5129 47 18.3937 45.8807 18.3937 44.5Z" fill="#081E40"/>
</svg>
