<svg width="48" height="48" viewBox="0 0 48 48" fill="none" xmlns="http://www.w3.org/2000/svg">
<path d="M18.9999 7.45018C17.0845 7.88676 15.2459 8.63568 13.5604 9.67381L12.9999 10.0332C10.2247 11.8875 8.02345 14.4747 6.63658 17.5009L6.36998 18.1113C5.0076 21.4003 4.65103 25.02 5.34556 28.5116L5.48814 29.163C6.25801 32.4015 7.91238 35.3675 10.2723 37.7274L10.7518 38.1903C13.1912 40.4555 16.2147 42.003 19.4882 42.6542L20.1444 42.7723C23.4311 43.3004 26.8052 42.907 29.8886 41.6298C33.1776 40.2674 35.989 37.9599 37.9668 34.9999L38.3261 34.4394C39.3642 32.7539 40.1122 30.9153 40.5488 28.9999H20.9999C19.8953 28.9999 18.9999 28.1045 18.9999 26.9999V7.45018ZM43 24.9999C44.1046 24.9999 45.0094 25.8972 44.9091 26.9972C44.5767 30.6435 43.3379 34.1607 41.292 37.2226L41.0625 37.5595C38.6594 41.0155 35.3132 43.712 31.4189 45.3251L31.041 45.4774C27.249 46.9664 23.1179 47.3738 19.1083 46.6532L18.7079 46.577C14.5736 45.7547 10.7655 43.7627 7.73424 40.8417L7.44323 40.5565C4.46269 37.576 2.40331 33.8039 1.50571 29.6913L1.4227 29.2919C0.600339 25.1577 0.983665 20.8772 2.52231 16.9589L2.67466 16.581C4.28772 12.6868 6.98425 9.34058 10.4403 6.93749L10.7772 6.708C13.8391 4.66213 17.3563 3.42331 21.0026 3.09086C22.1026 2.99056 22.9999 3.89543 22.9999 5V24.9999H43Z" fill="#081E40"/>
<path d="M34.3749 22.625C33.8226 22.625 33.3749 22.1773 33.3749 21.625V16.271C33.3749 16.1254 33.3431 15.9816 33.2818 15.8496L28.4355 5.42144C28.1274 4.75859 28.6114 4 29.3423 4H31.8309C32.2483 4 32.6217 4.25916 32.7677 4.65011L34.0749 8.15C34.5749 9.55 35.0499 10.85 35.5749 12.3H35.6749C36.1999 10.85 36.6999 9.55 37.2249 8.15L38.5321 4.65011C38.6781 4.25916 39.0516 4 39.4689 4H41.8795C42.6112 4 43.0951 4.76 42.7856 5.42299L37.9188 15.8489C37.8569 15.9814 37.8249 16.1257 37.8249 16.2719V21.625C37.8249 22.1773 37.3772 22.625 36.8249 22.625H34.3749Z" fill="#081E40"/>
</svg>
