<svg width="48" height="48" viewBox="0 0 48 48" fill="none" xmlns="http://www.w3.org/2000/svg">
<g clip-path="url(#clip0_2272_2748)">
<path fill-rule="evenodd" clip-rule="evenodd" d="M24 45C35.598 45 45 35.598 45 24C45 12.402 35.598 3 24 3C12.402 3 3 12.402 3 24C3 35.598 12.402 45 24 45ZM24 48C37.2548 48 48 37.2548 48 24C48 10.7452 37.2548 0 24 0C10.7452 0 0 10.7452 0 24C0 37.2548 10.7452 48 24 48ZM24 36.5C30.9036 36.5 36.5 30.9036 36.5 24C36.5 17.0964 30.9036 11.5 24 11.5C17.0964 11.5 11.5 17.0964 11.5 24C11.5 30.9036 17.0964 36.5 24 36.5ZM29.4214 39.5887C28.4049 39.9422 27.3432 40.199 26.2472 40.3483L25.9029 42.1843C25.8143 42.6573 25.4013 43 24.9201 43H23.0799C22.5987 43 22.1857 42.6573 22.0971 42.1843L21.7528 40.3483C20.7547 40.2123 19.785 39.9872 18.8519 39.681L17.7392 41.1782C17.4522 41.5644 16.9308 41.6914 16.4983 41.4805L14.8443 40.6738C14.4118 40.4628 14.1909 39.9738 14.3185 39.5098L14.814 37.7085C13.9876 37.1537 13.2142 36.5261 12.5028 35.8349L10.8423 36.6949C10.415 36.9162 9.89064 36.8018 9.59438 36.4226L8.46147 34.9725C8.1652 34.5933 8.18103 34.0569 8.49914 33.6958L9.73343 32.2948C9.33169 31.6053 8.97849 30.8841 8.67853 30.1357L6.81661 30.2457C6.33623 30.2741 5.90377 29.9563 5.78735 29.4894L5.34218 27.7039C5.22576 27.237 5.45841 26.7533 5.89588 26.5529L7.59431 25.7746C7.53197 25.1916 7.5 24.5995 7.5 24C7.5 23.4985 7.52238 23.0022 7.56618 22.5121L5.85416 21.7634C5.41326 21.5706 5.17221 21.0911 5.28046 20.6222L5.6944 18.8292C5.80265 18.3603 6.2295 18.0351 6.7103 18.055L8.57374 18.1325C8.89517 17.2879 9.28398 16.4765 9.7336 15.7049L8.49945 14.304C8.18134 13.943 8.16551 13.4065 8.46177 13.0273L9.59468 11.5773C9.89095 11.1981 10.4153 11.0837 10.8426 11.305L12.503 12.1649C13.1456 11.5405 13.839 10.968 14.5762 10.4542L14.0493 8.66174C13.9136 8.20005 14.126 7.70718 14.5547 7.48872L16.1943 6.65331C16.6231 6.43484 17.1467 6.55274 17.4404 6.9339L18.5789 8.41122C19.5953 8.0578 20.6569 7.80098 21.7528 7.65175L22.0971 5.81571C22.1857 5.34274 22.5987 5 23.0799 5H24.9201C25.4013 5 25.8143 5.34274 25.9029 5.81571L26.2472 7.65175C27.2454 7.78768 28.2152 8.01288 29.1483 8.31905L30.2611 6.82179C30.5481 6.43556 31.0695 6.30855 31.5021 6.5195L33.156 7.32617C33.5885 7.53712 33.8094 8.0262 33.6818 8.49018L33.1863 10.2916C34.0126 10.8465 34.786 11.4741 35.4973 12.1652L37.1579 11.3052C37.5852 11.0839 38.1095 11.1983 38.4058 11.5775L39.5387 13.0276C39.835 13.4068 39.8191 13.9432 39.501 14.3043L38.2667 15.7054C38.6684 16.3949 39.0216 17.1161 39.3215 17.8645L41.184 17.7544C41.6644 17.7261 42.0969 18.0439 42.2133 18.5108L42.6584 20.2963C42.7749 20.7632 42.5422 21.2468 42.1047 21.4473L40.4057 22.2259C40.468 22.8087 40.5 23.4006 40.5 24C40.5 24.5013 40.4776 24.9975 40.4339 25.4874L42.1466 26.2364C42.5875 26.4292 42.8285 26.9087 42.7203 27.3776L42.3063 29.1706C42.1981 29.6394 41.7712 29.9647 41.2904 29.9447L39.4264 29.8673C39.105 30.7117 38.7163 31.523 38.2668 32.2945L39.5013 33.6958C39.8195 34.0569 39.8353 34.5933 39.539 34.9725L38.4061 36.4226C38.1098 36.8018 37.5855 36.9162 37.1582 36.6949L35.4974 35.8347C34.8547 36.4591 34.1614 37.0317 33.4242 37.5456L33.9512 39.3384C34.0869 39.8001 33.8746 40.293 33.4458 40.5115L31.8062 41.3469C31.3774 41.5653 30.8539 41.4474 30.5601 41.0663L29.4214 39.5887ZM23.2552 22.0929C24.0822 23.8273 24.6221 25.6846 24.8537 27.5921C24.8558 27.6075 24.8577 27.6232 24.8596 27.6392C24.865 27.6836 24.8706 27.7294 24.8795 27.7729V27.8072C24.88 27.8129 24.88 27.8186 24.8795 27.8243C24.8993 27.9835 24.8277 28.1402 24.6945 28.2294C24.5612 28.3186 24.389 28.325 24.2495 28.246L24.2289 28.2358C23.4092 27.7254 22.4394 27.5116 21.481 27.6298C21.4232 27.6366 21.3669 27.6456 21.3106 27.6545L21.2668 27.6615C21.2305 27.6676 21.1937 27.6691 21.1571 27.6658C20.8409 27.6635 20.5752 27.4275 20.5357 27.1138C20.5253 27.0276 20.5323 26.9402 20.5562 26.8567C20.8898 25.6088 20.9797 24.3082 20.8211 23.0263C20.7367 22.3259 20.5784 21.6363 20.3488 20.9692C20.3415 20.9459 20.3336 20.9244 20.3256 20.9027L20.3214 20.8912C20.2862 20.7884 20.2477 20.6873 20.2083 20.587C20.2066 20.5814 20.2046 20.576 20.2022 20.5707C19.7762 19.4898 19.1389 18.5046 18.3278 17.6728C18.1546 17.4954 18.3749 17.1757 18.6055 17.282C18.8635 17.402 19.118 17.534 19.364 17.6771C20.5848 18.3885 21.6284 19.3676 22.4161 20.5407C22.7216 21.0438 23.0016 21.5618 23.2552 22.0929ZM28.7544 28.5177C28.3577 27.2876 27.849 26.0963 27.2348 24.9591C26.8965 24.3305 26.5294 23.7254 26.1334 23.1437C25.3864 22.1427 24.4774 21.2736 23.4438 20.5724C23.3996 20.5374 23.3427 20.5225 23.287 20.5313C23.2349 20.5403 23.1885 20.5696 23.1581 20.6129C23.1277 20.6562 23.1158 20.7098 23.125 20.7618C23.1301 20.7904 23.1412 20.8175 23.1575 20.8415C23.2775 21.0344 23.3941 21.2298 23.5064 21.4295C24.5009 23.1847 25.185 25.0984 25.5283 27.0864C25.554 27.2372 25.5789 27.3872 25.6003 27.5381L25.6208 27.6238V27.6829C25.6879 28.0651 26.0171 28.3458 26.4051 28.3515H26.4102C27.1053 28.359 27.7904 28.5181 28.4176 28.8177H28.4287C28.4747 28.8438 28.5283 28.8532 28.5804 28.8443C28.6415 28.8338 28.6959 28.7995 28.7316 28.7488C28.7673 28.6982 28.7814 28.6354 28.7707 28.5743C28.7673 28.5549 28.7618 28.536 28.7544 28.5177ZM26.9931 20.9555C27.8114 20.4816 28.7405 20.2327 29.6861 20.2338L29.6912 20.2441C32.5918 20.2395 34.9748 22.5334 35.0806 25.432C35.1864 28.3307 32.977 30.7922 30.0838 30.9991C30.0692 31.0003 30.0546 31.0003 30.0401 30.9991H29.9921H29.9724H23.5818C23.92 30.764 24.1816 30.5352 24.4142 30.3318L24.4142 30.3318L24.4142 30.3318C24.8676 29.9352 25.2108 29.6351 25.7966 29.5728C26.3489 29.4997 26.9588 29.5292 27.6003 29.5602H27.6004C28.3047 29.5943 29.0473 29.6302 29.7941 29.5343C29.8221 29.5254 29.8508 29.5185 29.8798 29.5137C31.4626 29.2679 32.752 28.1126 33.1695 26.5661C33.587 25.0197 33.0542 23.3725 31.8101 22.3635C30.566 21.3545 28.8443 21.1732 27.4173 21.9009C27.3921 21.9131 27.3661 21.9234 27.3393 21.9318C27.2888 21.9487 27.2358 21.9574 27.1825 21.9575C26.9437 21.9568 26.7361 21.7933 26.6795 21.5612C26.6228 21.3292 26.7317 21.0885 26.9434 20.9778H26.9519C26.9656 20.9692 26.9794 20.9624 26.9931 20.9555ZM24.0001 17C23.0881 16.999 22.199 17.2851 21.4588 17.8177C21.3065 17.9099 21.2343 18.0924 21.2822 18.2639C21.3301 18.4354 21.4864 18.554 21.6645 18.5539C21.6934 18.5535 21.7221 18.5498 21.7502 18.5428C21.7849 18.5334 21.8187 18.5211 21.8513 18.5059C22.7537 18.0035 23.8458 17.9778 24.7708 18.4374C25.6958 18.897 26.335 19.7828 26.4797 20.8055C26.9843 20.447 27.5422 20.1701 28.133 19.9853C27.5411 18.2047 25.8765 17.0023 24.0001 17ZM19.9472 29.1045C20.4919 28.8151 20.8963 28.6002 21.4116 28.9317C21.2351 28.9994 20.6745 29.5574 20.5159 29.7177L20.4834 29.7485L20.4697 29.7623C19.6508 30.5537 18.5563 30.9957 17.4175 30.9948H17.3901C14.958 30.9872 12.9924 29.0094 13 26.5773C13.0076 24.1451 14.9854 22.1796 17.4175 22.1872C17.8444 22.1874 18.2689 22.2504 18.6775 22.374L18.7032 22.38L18.7349 22.3877H18.7452L18.764 22.3946C18.9761 22.4745 19.1 22.6953 19.0577 22.9179C19.0154 23.1406 18.8192 23.3005 18.5926 23.2971H18.5686H18.53L18.494 23.2911C17.2935 23.0172 16.0411 23.4438 15.2573 24.3936C14.4736 25.3434 14.2926 26.654 14.7895 27.7808C15.2864 28.9075 16.3762 29.6576 17.6061 29.7194C17.6764 29.7263 17.7458 29.7263 17.8169 29.7263C18.7932 29.7175 19.4328 29.3778 19.9472 29.1045Z" fill="#081E40"/>
</g>
<defs>
<clipPath id="clip0_2272_2748">
<rect width="48" height="48" fill="white"/>
</clipPath>
</defs>
</svg>
