<svg width="48" height="48" viewBox="0 0 48 48" fill="none" xmlns="http://www.w3.org/2000/svg">
<rect width="48" height="48" fill="white"/>
<path d="M1 3C1 1.89543 1.89543 1 3 1H20C21.1046 1 22 1.89543 22 3V20C22 21.1046 21.1046 22 20 22H3C1.89543 22 1 21.1046 1 20V3Z" fill="#081E40"/>
<path d="M26 3C26 1.89543 26.8954 1 28 1H45C46.1046 1 47 1.89543 47 3V20C47 21.1046 46.1046 22 45 22H28C26.8954 22 26 21.1046 26 20V3Z" fill="#081E40"/>
<path d="M1 28C1 26.8954 1.89543 26 3 26H20C21.1046 26 22 26.8954 22 28V45C22 46.1046 21.1046 47 20 47H3C1.89543 47 1 46.1046 1 45V28Z" fill="#081E40"/>
<path d="M26 28C26 26.8954 26.8954 26 28 26H45C46.1046 26 47 26.8954 47 28V45C47 46.1046 46.1046 47 45 47H28C26.8954 47 26 46.1046 26 45V28Z" fill="#081E40"/>
</svg>
