<svg width="48" height="48" viewBox="0 0 48 48" fill="none" xmlns="http://www.w3.org/2000/svg">
<path fill-rule="evenodd" clip-rule="evenodd" d="M6 2C3.79086 2 2 3.79086 2 6V31C2 33.2091 3.79086 35 6 35H21.5V41H8C6.61929 41 5.5 42.1193 5.5 43.5C5.5 44.8807 6.61929 46 8 46H40C41.3807 46 42.5 44.8807 42.5 43.5C42.5 42.1193 41.3807 41 40 41H26.5V35H42C44.2091 35 46 33.2091 46 31V6C46 3.79086 44.2091 2 42 2H6ZM7 9C7 7.89543 7.89543 7 9 7H39C40.1046 7 41 7.89543 41 9V28C41 29.1046 40.1046 30 39 30H9C7.89543 30 7 29.1046 7 28V9ZM32.5 25C32.5 26.3807 33.6193 27.5 35 27.5C36.3807 27.5 37.5 26.3807 37.5 25V12C37.5 10.6193 36.3807 9.5 35 9.5C33.6193 9.5 32.5 10.6193 32.5 12V25ZM10.5 25C10.5 26.3807 11.6193 27.5 13 27.5C14.3807 27.5 15.5 26.3807 15.5 25V16C15.5 14.6193 14.3807 13.5 13 13.5C11.6193 13.5 10.5 14.6193 10.5 16V25ZM24 27.5C22.6193 27.5 21.5 26.3807 21.5 25V19.5C21.5 18.1193 22.6193 17 24 17C25.3807 17 26.5 18.1193 26.5 19.5V25C26.5 26.3807 25.3807 27.5 24 27.5Z" fill="#081E40"/>
</svg>
