<svg width="48" height="48" viewBox="0 0 48 48" fill="none" xmlns="http://www.w3.org/2000/svg">
<path fill-rule="evenodd" clip-rule="evenodd" d="M0 8C0 5.79086 1.79086 4 4 4H44C46.2091 4 48 5.79086 48 8V40C48 42.2091 46.2091 44 44 44H4C1.79086 44 0 42.2091 0 40V8ZM7 9C5.89543 9 5 9.89543 5 11V14.5H43V11C43 9.89543 42.1046 9 41 9H21V10.5C21 11.8807 19.8807 13 18.5 13C17.1193 13 16 11.8807 16 10.5V9H13V10.5C13 11.8807 11.8807 13 10.5 13C9.11929 13 8 11.8807 8 10.5V9H7ZM5 37V19.5H43V37C43 38.1046 42.1046 39 41 39H7C5.89543 39 5 38.1046 5 37ZM19.8196 33.1025C19.3239 34.3911 19.9666 35.8376 21.2553 36.3334C22.5439 36.8291 23.9905 36.1863 24.4862 34.8977L28.3332 24.8977C28.8289 23.609 28.1861 22.1625 26.8975 21.6668C25.6088 21.171 24.1623 21.8138 23.6666 23.1024L19.8196 33.1025ZM16.6724 22.1418C17.6987 23.0655 17.7819 24.6462 16.8582 25.6725L13.9449 28.9094L16.7677 31.7323C17.7441 32.7086 17.7441 34.2915 16.7677 35.2678C15.7914 36.2441 14.2085 36.2441 13.2322 35.2678L9.06765 31.1032C7.9394 29.975 7.8917 28.161 8.95909 26.975L13.1417 22.3276C14.0654 21.3014 15.6461 21.2182 16.6724 22.1418ZM31.3276 22.1418C30.3013 23.0655 30.2181 24.6462 31.1418 25.6725L34.0551 28.9094L31.2322 31.7323C30.2559 32.7086 30.2559 34.2915 31.2322 35.2678C32.2085 36.2441 33.7915 36.2441 34.7678 35.2678L38.9323 31.1032C40.0606 29.975 40.1083 28.161 39.0409 26.975L34.8582 22.3276C33.9346 21.3014 32.3539 21.2182 31.3276 22.1418Z" fill="#081E40"/>
</svg>
