<svg width="48" height="48" viewBox="0 0 48 48" fill="none" xmlns="http://www.w3.org/2000/svg">
<path d="M15.3008 1.5C16.9142 1.5 18.3953 2.36259 19.1953 3.74512L19.3457 4.0293L28.1543 22.1064H40.2363L34.5752 13.9053C33.7908 12.769 34.0766 11.2121 35.2129 10.4277C36.3491 9.64352 37.9061 9.92824 38.6904 11.0645L47.6182 23.9991C47.8451 24.3279 47.8546 24.7603 47.6422 25.0987L38.75 39.2686C38.016 40.4378 36.4731 40.7905 35.3037 40.0566C34.1344 39.3227 33.7808 37.7798 34.5146 36.6104L40.4795 27.1064H28.1123L19.3301 44.0693C18.5568 45.5624 17.0155 46.5 15.334 46.5H4C2.61929 46.5 1.5 45.3807 1.5 44C1.5 42.6193 2.61929 41.5 4 41.5H15.0303L23.7939 24.5723L14.9883 6.5H4C2.61929 6.5 1.5 5.38071 1.5 4C1.5 2.61929 2.61929 1.5 4 1.5H15.3008ZM11.6279 9.7832C12.7151 8.17259 15.3292 9.02072 15.1768 11.041L14.4844 20.21L16.8896 21.9814C17.707 22.5835 17.9258 23.7123 17.3926 24.5762L9.66992 37.0869C8.55514 38.8926 5.76546 37.87 6.08203 35.7715L7.44531 26.7373L5.10449 25.0137C4.31455 24.432 4.07925 23.3536 4.55566 22.4961L11.5273 9.94727L11.6279 9.7832ZM8.27734 23.0029L10.2734 24.4736C10.8561 24.9027 11.1539 25.6194 11.0459 26.335L10.6738 28.7949L13.6631 23.9531L11.7178 22.5205C11.177 22.1222 10.8793 21.4734 10.9297 20.8037L11.1543 17.8252L8.27734 23.0029Z" fill="#081E40"/>
</svg>
