<svg width="48" height="48" viewBox="0 0 48 48" fill="none" xmlns="http://www.w3.org/2000/svg">
<path fill-rule="evenodd" clip-rule="evenodd" d="M13.3 15C13.3 18.866 16.4341 22 20.3 22C24.166 22 27.3 18.866 27.3 15C27.3 11.134 24.166 8 20.3 8C16.4341 8 13.3 11.134 13.3 15ZM20.3 3C13.6726 3 8.30005 8.37258 8.30005 15C8.30005 21.6274 13.6726 27 20.3 27C26.9275 27 32.3 21.6274 32.3 15C32.3 8.37258 26.9275 3 20.3 3Z" fill="#081E40"/>
<path fill-rule="evenodd" clip-rule="evenodd" d="M1.80005 42C1.80005 31.7827 10.0828 23.5 20.3 23.5C30.5173 23.5 38.8 31.7827 38.8 42C38.8 43.1046 37.9046 44 36.8 44H35.8C34.6955 44 33.8 43.1046 33.8 42C33.8 34.5442 27.7559 28.5 20.3 28.5C12.8442 28.5 6.80005 34.5442 6.80005 42C6.80005 43.1046 5.90462 44 4.80005 44H3.80005C2.69548 44 1.80005 43.1046 1.80005 42Z" fill="#081E40"/>
<path d="M39.4227 9.21721C39.4226 9.20958 39.4217 9.20198 39.42 9.19454C39.4107 9.16387 40.116 11.2972 39.392 9.10387C39.3773 9.05783 39.3617 9.01204 39.3454 8.96654C38.6441 6.97454 37.5067 6.20254 36.6734 6.04521C35.6027 5.84121 34.4427 6.31587 34.4427 7.70921C34.4427 7.91721 34.4827 8.14387 34.556 8.37721L34.5494 8.37587C34.5534 8.38787 34.56 8.39987 34.5667 8.41187C34.6427 8.64921 34.752 8.89321 34.884 9.13587C35.5294 10.7305 35.884 12.4745 35.884 14.2999C35.884 17.427 34.8414 20.3125 33.0846 22.6277C32.7016 23.1325 32.8121 23.8736 33.3442 24.2177C35.7683 25.7851 38.4454 28.0002 39.928 30.5C40.9729 32.2616 41.2105 34.1645 41.5097 36.0817C41.6673 37.0922 42.5486 37.8065 43.5712 37.8065C44.9218 37.8065 45.9654 36.5837 45.7832 35.2455C45.4927 33.1109 45.166 30.9791 44.1128 29C42.7849 26.5047 40.1117 24.252 38.1667 22.5425C39.4701 19.9907 40.1474 17.1653 40.1427 14.2999C40.1453 12.5801 39.9029 10.8686 39.4227 9.21721Z" fill="#081E40"/>
<path d="M41.8 41.25C41.8 40.0074 42.8074 39 44.05 39C45.2927 39 46.3 40.0074 46.3 41.25C46.3 42.4926 45.2927 43.5 44.05 43.5C42.8074 43.5 41.8 42.4926 41.8 41.25Z" fill="#081E40"/>
</svg>
