<svg width="48" height="48" viewBox="0 0 48 48" fill="none" xmlns="http://www.w3.org/2000/svg">
<path fill-rule="evenodd" clip-rule="evenodd" d="M2 6C2 3.79086 3.79086 2 6 2H30.5C32.7091 2 34.5 3.79086 34.5 6V33C34.5 35.2091 32.7091 37 30.5 37H6C3.79086 37 2 35.2091 2 33V6ZM9 7C7.89543 7 7 7.89543 7 9V30C7 31.1046 7.89543 32 9 32H27.5C28.6046 32 29.5 31.1046 29.5 30V9C29.5 7.89543 28.6046 7 27.5 7H9ZM26.0491 12.5378C27.1328 13.3933 27.3178 14.9654 26.4622 16.0491L18.9622 25.5491L18.6897 25.8943C18.0663 26.6839 16.9535 26.8876 16.0909 26.37L15.7138 26.1437L10.7138 23.1437C9.52981 22.4334 9.1459 20.8977 9.85627 19.7138C10.5666 18.5298 12.1023 18.1459 13.2862 18.8563L16.4005 20.7248L22.5378 12.9509C23.3933 11.8672 24.9654 11.6822 26.0491 12.5378ZM38.5 12.5C37.1193 12.5 36 13.6193 36 15C36 16.3807 37.1193 17.5 38.5 17.5H40C40.5523 17.5 41 17.9477 41 18.5V40C41 40.5523 40.5523 41 40 41H20.5C19.9477 41 19.5186 40.5349 19.3033 40.0263C18.9236 39.1293 18.0353 38.5 17 38.5C15.6193 38.5 14.5 39.6193 14.5 41V42C14.5 44.2091 16.2909 46 18.5 46H42C44.2091 46 46 44.2091 46 42V16.5C46 14.2909 44.2091 12.5 42 12.5H38.5Z" fill="#081E40"/>
</svg>
