<svg width="48" height="48" viewBox="0 0 48 48" fill="none" xmlns="http://www.w3.org/2000/svg">
<path fill-rule="evenodd" clip-rule="evenodd" d="M9 2C6.79086 2 5 3.79086 5 6V24.626C3.27477 25.0701 2 26.6362 2 28.5V42C2 44.2091 3.79086 46 6 46H42C44.2091 46 46 44.2091 46 42V28.5C46 26.6362 44.7252 25.0701 43 24.626V6C43 3.79086 41.2091 2 39 2H9ZM38 24.5V9C38 7.89543 37.1046 7 36 7H12C10.8954 7 10 7.89543 10 9V24.5H14.7C16.9091 24.5 18.7 26.2909 18.7 28.5V30.5C18.7 31.0523 19.1477 31.5 19.7 31.5H28.7875C29.3398 31.5 29.7875 31.0523 29.7875 30.5V28.5C29.7875 26.2909 31.5784 24.5 33.7875 24.5H38ZM7 30.5C7 29.9477 7.44772 29.5 8 29.5H12.7C13.2523 29.5 13.7 29.9477 13.7 30.5V32.5C13.7 34.7091 15.4909 36.5 17.7 36.5H30.7875C32.9966 36.5 34.7875 34.7091 34.7875 32.5V30.5C34.7875 29.9477 35.2352 29.5 35.7875 29.5H40C40.5523 29.5 41 29.9477 41 30.5V40C41 40.5523 40.5523 41 40 41H8C7.44772 41 7 40.5523 7 40V30.5Z" fill="#081E40"/>
</svg>
