<svg width="48" height="48" viewBox="0 0 48 48" fill="none" xmlns="http://www.w3.org/2000/svg">
<path fill-rule="evenodd" clip-rule="evenodd" d="M21.9712 15.3112C21.9712 17.416 20.2648 19.1224 18.16 19.1224C16.0551 19.1224 14.3488 17.416 14.3488 15.3112C14.3488 13.2063 16.0551 11.5 18.16 11.5C20.2648 11.5 21.9712 13.2063 21.9712 15.3112ZM26.9712 15.3112C26.9712 20.1775 23.0263 24.1224 18.16 24.1224C13.2937 24.1224 9.34879 20.1775 9.34879 15.3112C9.34879 10.4449 13.2937 6.5 18.16 6.5C23.0263 6.5 26.9712 10.4449 26.9712 15.3112ZM39.8737 16.5C39.8737 15.1193 38.7544 14 37.3737 14C35.993 14 34.8737 15.1193 34.8737 16.5V20.0732H31.3C29.9193 20.0732 28.8 21.1925 28.8 22.5732C28.8 23.954 29.9193 25.0732 31.3 25.0732H34.8737V28.6469C34.8737 30.0276 35.993 31.1469 37.3737 31.1469C38.7544 31.1469 39.8737 30.0276 39.8737 28.6469V25.0732H43.4469C44.8276 25.0732 45.9469 23.954 45.9469 22.5732C45.9469 21.1925 44.8276 20.0732 43.4469 20.0732H39.8737V16.5ZM6.90194 39.6938C8.04334 35.743 11.375 30.7 18.3002 30.7C25.1671 30.7 28.2509 35.658 29.6285 39.7905C30.0651 41.1004 31.4809 41.8083 32.7907 41.3717C34.1006 40.935 34.8085 39.5192 34.3719 38.2094C32.7494 33.342 28.4332 25.7 18.3002 25.7C8.22532 25.7 3.55707 33.257 2.09838 38.3061C1.71516 39.6325 2.47982 41.0185 3.80629 41.4017C5.13275 41.7849 6.51872 41.0203 6.90194 39.6938Z" fill="#081E40"/>
</svg>
