<svg width="48" height="48" viewBox="0 0 48 48" fill="none" xmlns="http://www.w3.org/2000/svg">
<path fill-rule="evenodd" clip-rule="evenodd" d="M5 2C3.61929 2 2.5 3.11929 2.5 4.5C2.5 5.88071 3.61929 7 5 7H6.50682C6.59682 10.3488 7.58696 14.9293 10.0009 18.8184C11.2306 20.7996 12.8524 22.6258 14.9138 24C12.8524 25.3742 11.2306 27.2004 10.0009 29.1816C7.58696 33.0707 6.59682 37.6512 6.50682 41H5C3.61929 41 2.5 42.1193 2.5 43.5C2.5 44.8807 3.61929 46 5 46H43C44.3807 46 45.5 44.8807 45.5 43.5C45.5 42.1193 44.3807 41 43 41H41.4953C41.4103 36.5023 40.1733 31.7702 37.3705 28.0565C36.1632 26.4569 34.6861 25.0762 32.9377 24C34.6861 22.9238 36.1632 21.5431 37.3705 19.9435C40.1733 16.2298 41.4103 11.4977 41.4953 7H43C44.3807 7 45.5 5.88071 45.5 4.5C45.5 3.11929 44.3807 2 43 2H5ZM36.4942 41C36.4091 37.3178 35.3821 33.7219 33.3795 31.0685C31.3557 28.387 28.222 26.5 23.5 26.5C19.0501 26.5 16.1502 28.7555 14.2491 31.8184C12.407 34.7863 11.6017 38.4025 11.5091 41H36.4942ZM23.5 21.5C28.222 21.5 31.3557 19.613 33.3795 16.9315C35.3821 14.2781 36.4091 10.6822 36.4942 7H11.5091C11.6017 9.59752 12.407 13.2137 14.2491 16.1816C16.1502 19.2445 19.0501 21.5 23.5 21.5Z" fill="#081E40"/>
</svg>
