<svg width="48" height="48" viewBox="0 0 48 48" fill="none" xmlns="http://www.w3.org/2000/svg">
<path fill-rule="evenodd" clip-rule="evenodd" d="M7.50012 7.2639L7.50012 25.2048C8.9719 25.0035 10.6435 24.9202 12.5181 25.0937C15.8815 25.4051 19.7645 26.5298 24.2405 29.0875C27.5985 31.0063 30.8609 30.9485 33.7788 30.0241C36.4808 29.1681 38.8442 27.5725 40.5001 26.1491V9.34045C35.9314 12.1953 28.9935 14.5622 21.7598 10.4287C15.3316 6.75546 10.7521 6.69403 7.50012 7.2639ZM7.50012 30.2645C8.8327 30.0316 10.3361 29.9131 12.0572 30.0724C14.6354 30.3111 17.8358 31.1864 21.7598 33.4287C26.5608 36.1721 31.3159 36.0493 35.2888 34.7907C39.1935 33.5537 42.3852 31.2179 44.3766 29.3932C45.1158 28.7158 45.5001 27.7756 45.5001 26.8295V6.59142C45.5001 3.41877 41.8617 2.11662 39.6957 3.80808C35.8869 6.78253 30.0768 9.4225 24.2405 6.08748C15.7505 1.23606 9.53203 1.62152 5.18123 2.63787C3.5676 3.01481 2.50012 4.45486 2.50012 6.03069L2.50012 28.2014C2.49931 28.2379 2.49931 28.2746 2.50012 28.3114L2.50012 43.2581C2.50012 44.6388 3.61941 45.7581 5.00012 45.7581C6.38084 45.7581 7.50012 44.6388 7.50012 43.2581L7.50012 30.2645Z" fill="#081E40"/>
</svg>
