<svg width="48" height="48" viewBox="0 0 48 48" fill="none" xmlns="http://www.w3.org/2000/svg">
<g clip-path="url(#clip0_2209_6021)">
<path fill-rule="evenodd" clip-rule="evenodd" d="M43 24C43 34.4934 34.4934 43 24 43C13.5066 43 5 34.4934 5 24C5 13.5066 13.5066 5 24 5C34.4934 5 43 13.5066 43 24ZM48 24C48 37.2548 37.2548 48 24 48C10.7452 48 0 37.2548 0 24C0 10.7452 10.7452 0 24 0C37.2548 0 48 10.7452 48 24ZM22.3291 12.6376C20.3563 11.12 17.5 12.5264 17.5 15.0154V32.9846C17.5 35.4736 20.3563 36.88 22.3291 35.3624L34.0091 26.3779C35.5702 25.177 35.5702 22.823 34.0091 21.6221L22.3291 12.6376ZM22.5 21.108C22.5 20.2784 23.4521 19.8095 24.1097 20.3154L27.8693 23.2074C28.3897 23.6077 28.3897 24.3923 27.8693 24.7926L24.1097 27.6846C23.4521 28.1905 22.5 27.7217 22.5 26.892V21.108Z" fill="#081E40"/>
</g>
<defs>
<clipPath id="clip0_2209_6021">
<rect width="48" height="48" fill="white"/>
</clipPath>
</defs>
</svg>
