<svg width="48" height="48" viewBox="0 0 48 48" fill="none" xmlns="http://www.w3.org/2000/svg">
<g clip-path="url(#clip0_1754_970)">
<path d="M24 27C25.6569 27 27 25.6569 27 24C27 22.3431 25.6569 21 24 21C22.3431 21 21 22.3431 21 24C21 25.6569 22.3431 27 24 27Z" fill="#081E40"/>
<path d="M37 24C37 25.6569 35.6569 27 34 27C32.3431 27 31 25.6569 31 24C31 22.3431 32.3431 21 34 21C35.6569 21 37 22.3431 37 24Z" fill="#081E40"/>
<path d="M14 27C15.6569 27 17 25.6569 17 24C17 22.3431 15.6569 21 14 21C12.3431 21 11 22.3431 11 24C11 25.6569 12.3431 27 14 27Z" fill="#081E40"/>
<path fill-rule="evenodd" clip-rule="evenodd" d="M48 24C48 37.2548 37.2548 48 24 48C10.7452 48 0 37.2548 0 24C0 10.7452 10.7452 0 24 0C37.2548 0 48 10.7452 48 24ZM43 24C43 34.4934 34.4934 43 24 43C13.5066 43 5 34.4934 5 24C5 13.5066 13.5066 5 24 5C34.4934 5 43 13.5066 43 24Z" fill="#081E40"/>
</g>
<defs>
<clipPath id="clip0_1754_970">
<rect width="48" height="48" fill="white"/>
</clipPath>
</defs>
</svg>
