<svg width="48" height="48" viewBox="0 0 48 48" fill="none" xmlns="http://www.w3.org/2000/svg">
<path fill-rule="evenodd" clip-rule="evenodd" d="M38.1015 0.720114C39.1232 -0.208654 40.7043 -0.133362 41.6331 0.888282L45.2996 4.92146C46.4745 6.2138 46.675 8.119 45.7949 9.62763L42.8494 14.6771C42.1537 15.8697 40.6229 16.2726 39.4303 15.5769C38.2377 14.8812 37.8348 13.3504 38.5305 12.1577L39.4829 10.5251C36.1249 11.102 32.9257 12.655 30.3449 15.1356C29.3495 16.0924 27.7669 16.061 26.8101 15.0656C25.8533 14.0701 25.8846 12.4875 26.8801 11.5307C30.3222 8.22235 34.614 6.2 39.0902 5.52417L37.9334 4.25165C37.0046 3.23 37.0799 1.64888 38.1015 0.720114ZM38.6582 31.689C39.7189 30.8051 41.2953 30.9484 42.1792 32.0091L45.8805 36.4507C47.0312 37.8315 47.1195 39.8104 46.0964 41.2883L42.2456 46.8504C41.4597 47.9856 39.9024 48.2688 38.7671 47.4829C37.6319 46.697 37.3488 45.1396 38.1347 44.0044L39.0474 42.686C30.1717 41.0697 22.7731 34.1698 20.9748 24.7728L20.9959 24.7687C19.3646 16.5983 12.2392 10.8371 4.14855 10.7031C2.76803 10.6803 1.66743 9.54262 1.69029 8.16209C1.71315 6.78157 2.85082 5.68097 4.23134 5.70383C14.8453 5.8796 24.1668 13.5759 26.0161 24.4222L26.0091 24.4234C27.6443 31.6362 33.5657 36.8501 40.5519 37.8666L38.3381 35.21C37.4542 34.1493 37.5975 32.5729 38.6582 31.689ZM20.5806 34.8338C21.5448 35.822 21.5254 37.4048 20.5371 38.3691C16.004 42.7922 10.0759 44.9156 4.21202 44.7566C2.83182 44.7191 1.74329 43.5699 1.78072 42.1897C1.81816 40.8095 2.96738 39.721 4.34759 39.7584C8.91597 39.8823 13.5189 38.2311 17.0453 34.7904C18.0335 33.8261 19.6163 33.8456 20.5806 34.8338ZM1.18994 24.9274C1.18994 23.5466 2.30923 22.4274 3.68994 22.4274H15.6899C17.0707 22.4274 18.1899 23.5466 18.1899 24.9274C18.1899 26.3081 17.0707 27.4274 15.6899 27.4274H3.68994C2.30923 27.4274 1.18994 26.3081 1.18994 24.9274Z" fill="#081E40"/>
</svg>
