<svg width="48" height="48" viewBox="0 0 48 48" fill="none" xmlns="http://www.w3.org/2000/svg">
<path fill-rule="evenodd" clip-rule="evenodd" d="M6 48C3.79086 48 2 46.2091 2 44V23C2 20.7909 3.79086 19 6 19H20.5462C22.0223 19 23.3785 19.813 24.0742 21.1149L26.1568 25.0125C26.5047 25.6635 27.1827 26.0699 27.9208 26.0699H42C44.2091 26.0699 46 27.8608 46 30.0699V44C46 46.2091 44.2091 48 42 48H6ZM26.3423 31.0699C24.8662 31.0699 23.51 30.257 22.8144 28.9551L20.7317 25.0574C20.3839 24.4065 19.7058 24 18.9677 24H9C7.89543 24 7 24.8954 7 26V41C7 42.1046 7.89543 43 9 43H39C40.1046 43 41 42.1046 41 41V33.0699C41 31.9654 40.1046 31.0699 39 31.0699H26.3423Z" fill="#081E40"/>
<path fill-rule="evenodd" clip-rule="evenodd" d="M6.5 4.00244C6.5 1.7933 8.29086 0.00244141 10.5 0.00244141H37.5C39.7091 0.00244141 41.5 1.7933 41.5 4.00244V26.5H36.5V6.49999C36.5 5.39542 35.6046 4.49999 34.5 4.49999H13.5C12.3954 4.49999 11.5 5.39542 11.5 6.49999V22.7692H6.5V4.00244Z" fill="#081E40"/>
<path fill-rule="evenodd" clip-rule="evenodd" d="M14 9C14 7.89543 14.9733 7 16.1739 7H31.8261C33.0267 7 34 7.89543 34 9C34 10.1046 33.0267 11 31.8261 11H16.1739C14.9733 11 14 10.1046 14 9Z" fill="#081E40"/>
<path fill-rule="evenodd" clip-rule="evenodd" d="M14 15C14 13.8954 14.9733 13 16.1739 13H24.8261C26.0267 13 27 13.8954 27 15C27 16.1046 26.0267 17 24.8261 17H16.1739C14.9733 17 14 16.1046 14 15Z" fill="#081E40"/>
</svg>
