<svg width="48" height="48" viewBox="0 0 48 48" fill="none" xmlns="http://www.w3.org/2000/svg">
<g clip-path="url(#clip0_2211_6353)">
<path fill-rule="evenodd" clip-rule="evenodd" d="M7.84009 0C5.63095 0 3.84009 1.79086 3.84009 4V44C3.84009 46.2091 5.63095 48 7.84009 48L16.8401 48C18.2208 48 19.3401 46.8807 19.3401 45.5C19.3401 44.1193 18.2208 43 16.8401 43L10.8401 43C9.73552 43 8.84009 42.1046 8.84009 41V7C8.84009 5.89543 9.73552 5 10.8401 5H35.8401C36.9447 5 37.8401 5.89543 37.8401 7V19.5C37.8401 20.8807 38.9594 22 40.3401 22C41.7208 22 42.8401 20.8807 42.8401 19.5V4C42.8401 1.79086 41.0492 0 38.8401 0H7.84009ZM13.8401 10C12.4594 10 11.3401 11.1193 11.3401 12.5C11.3401 13.8807 12.4594 15 13.8401 15H31.8401C33.2208 15 34.3401 13.8807 34.3401 12.5C34.3401 11.1193 33.2208 10 31.8401 10H13.8401ZM11.3401 21.5C11.3401 20.1193 12.4594 19 13.8401 19H22.8401C24.2208 19 25.3401 20.1193 25.3401 21.5C25.3401 22.8807 24.2208 24 22.8401 24H13.8401C12.4594 24 11.3401 22.8807 11.3401 21.5ZM24.8401 33.5C23.4594 33.5 22.3401 34.6193 22.3401 36C22.3401 37.3807 23.4594 38.5 24.8401 38.5H36.0661L33.9777 40.8323C33.0566 41.8609 33.1438 43.4414 34.1723 44.3624C35.2009 45.2835 36.7815 45.1963 37.7025 44.1677L43.503 37.6901C43.9388 37.2162 44.1604 36.6093 44.1606 36C44.1607 35.6322 44.0802 35.2635 43.9173 34.9228C43.8126 34.7032 43.6744 34.4962 43.503 34.3099L37.7025 27.8323C36.7815 26.8037 35.2009 26.7165 34.1723 27.6376C33.1438 28.5586 33.0566 30.1391 33.9777 31.1677L36.0661 33.5H24.8401Z" fill="#081E40"/>
</g>
<defs>
<clipPath id="clip0_2211_6353">
<rect width="48" height="48" fill="white"/>
</clipPath>
</defs>
</svg>
