<svg width="48" height="48" viewBox="0 0 48 48" fill="none" xmlns="http://www.w3.org/2000/svg">
<g clip-path="url(#clip0_2268_2675)">
<path fill-rule="evenodd" clip-rule="evenodd" d="M4 8C4 5.79086 5.79086 4 8 4H12C13.3807 4 14.5 5.11929 14.5 6.5C14.5 7.88071 13.3807 9 12 9H11C9.89543 9 9 9.89543 9 11V41C9 42.1046 9.89543 43 11 43H37C38.1046 43 39 42.1046 39 41V11C39 9.89543 38.1046 9 37 9H36C34.6193 9 33.5 7.88071 33.5 6.5C33.5 5.11929 34.6193 4 36 4H40C42.2091 4 44 5.79086 44 8V44C44 46.2092 42.2091 48 40 48H8C5.79086 48 4 46.2092 4 44V8Z" fill="#081E40"/>
<path fill-rule="evenodd" clip-rule="evenodd" d="M27.5 4C27.2239 4 27 3.77614 27 3.5V3C27 1.34315 25.6569 0 24 0C22.3431 0 21 1.34315 21 3V3.5C21 3.77614 20.7761 4 20.5 4H18C16.6193 4 15.5 5.11929 15.5 6.5C15.5 7.88071 16.6193 9 18 9H30C31.3807 9 32.5 7.88071 32.5 6.5C32.5 5.11929 31.3807 4 30 4H27.5Z" fill="#081E40"/>
<path d="M12 36.5C12 35.1193 13.1193 34 14.5 34H33.5C34.8807 34 36 35.1193 36 36.5C36 37.8807 34.8807 39 33.5 39H14.5C13.1193 39 12 37.8807 12 36.5Z" fill="#081E40"/>
<path d="M12 26.5C12 25.1193 13.1193 24 14.5 24H33.5C34.8807 24 36 25.1193 36 26.5C36 27.8807 34.8807 29 33.5 29H14.5C13.1193 29 12 27.8807 12 26.5Z" fill="#081E40"/>
<path d="M12 16.5C12 15.1193 13.1193 14 14.5 14H33.5C34.8807 14 36 15.1193 36 16.5C36 17.8807 34.8807 19 33.5 19H14.5C13.1193 19 12 17.8807 12 16.5Z" fill="#081E40"/>
</g>
<defs>
<clipPath id="clip0_2268_2675">
<rect width="48" height="48" fill="white"/>
</clipPath>
</defs>
</svg>
