<svg width="48" height="48" viewBox="0 0 48 48" fill="none" xmlns="http://www.w3.org/2000/svg">
<g clip-path="url(#clip0_2268_2673)">
<path fill-rule="evenodd" clip-rule="evenodd" d="M22.9085 0.490367C24.0478 0.438207 25 1.3478 25 2.48827V20.9771C25 22.0817 25.8954 22.9771 27 22.9771H45.4889C46.6293 22.9771 47.5389 23.9293 47.4868 25.0686L47.4748 25.33C46.8977 37.9357 36.4971 47.9771 23.75 47.9771C10.6332 47.9771 0 37.3439 0 24.2271C0 11.48 10.0414 1.07947 22.6471 0.502336L22.9085 0.490367ZM20.5 5.25013C11.4169 6.79414 4.5 14.7034 4.5 24.2271C4.5 34.8586 13.1185 43.4771 23.75 43.4771C33.2737 43.4771 41.183 36.5602 42.727 27.4771H24.5C22.2909 27.4771 20.5 25.6863 20.5 23.4771V5.25013Z" fill="#081E40"/>
<path fill-rule="evenodd" clip-rule="evenodd" d="M26.5284 2.33402C26.5284 1.06066 27.7026 0.111532 28.9477 0.378449L29.2501 0.443277C38.4104 2.40705 45.6062 9.6459 47.5069 18.8298L47.5691 19.1304C47.826 20.3717 46.8782 21.5358 45.6106 21.5358H29.5284C27.8716 21.5358 26.5284 20.1926 26.5284 18.5357V2.33402ZM31.0284 5.6423V16.0358C31.0284 16.588 31.4761 17.0358 32.0284 17.0358H42.3285C40.4033 11.7882 36.2558 7.60946 31.0284 5.6423Z" fill="#081E40"/>
</g>
<defs>
<clipPath id="clip0_2268_2673">
<rect width="48" height="48" fill="white"/>
</clipPath>
</defs>
</svg>
