<svg width="48" height="48" viewBox="0 0 48 48" fill="none" xmlns="http://www.w3.org/2000/svg">
<path fill-rule="evenodd" clip-rule="evenodd" d="M19.4114 36.4815C19.0489 36.1708 18.5872 36 18.1098 36H6C5.44772 36 5 35.5523 5 35V10C5 9.44771 5.44772 9 6 9H42C42.5523 9 43 9.44771 43 10V35C43 35.5523 42.5523 36 42 36H29.8902C29.4128 36 28.9511 36.1708 28.5886 36.4815L24.6508 39.8568C24.2763 40.1778 23.7237 40.1778 23.3492 39.8568L19.4114 36.4815ZM44 41H31L26.6032 44.7687C25.1052 46.0527 22.8948 46.0527 21.3968 44.7687L17 41H4C1.79086 41 0 39.2091 0 37V8C0 5.79086 1.79086 4 4 4H44C46.2091 4 48 5.79086 48 8V37C48 39.2091 46.2091 41 44 41ZM12 26C14.2091 26 16 24.2091 16 22C16 19.7909 14.2091 18 12 18C9.79086 18 8 19.7909 8 22C8 24.2091 9.79086 26 12 26ZM28 22C28 24.2091 26.2091 26 24 26C21.7909 26 20 24.2091 20 22C20 19.7909 21.7909 18 24 18C26.2091 18 28 19.7909 28 22ZM36 26C38.2091 26 40 24.2091 40 22C40 19.7909 38.2091 18 36 18C33.7909 18 32 19.7909 32 22C32 24.2091 33.7909 26 36 26Z" fill="#081E40"/>
</svg>
