<svg width="48" height="48" viewBox="0 0 48 48" fill="none" xmlns="http://www.w3.org/2000/svg">
<path d="M12 42C12 39.7909 13.7909 38 16 38C18.2091 38 20 39.7909 20 42C20 44.2091 18.2091 46 16 46C13.7909 46 12 44.2091 12 42Z" fill="#081E40"/>
<path d="M12 6C12 3.79086 13.7909 2 16 2C18.2091 2 20 3.79086 20 6C20 8.20914 18.2091 10 16 10C13.7909 10 12 8.20914 12 6Z" fill="#081E40"/>
<path d="M12 24C12 21.7909 13.7909 20 16 20C18.2091 20 20 21.7909 20 24C20 26.2091 18.2091 28 16 28C13.7909 28 12 26.2091 12 24Z" fill="#081E40"/>
<path d="M28 42C28 39.7909 29.7909 38 32 38C34.2091 38 36 39.7909 36 42C36 44.2091 34.2091 46 32 46C29.7909 46 28 44.2091 28 42Z" fill="#081E40"/>
<path d="M28 6C28 3.79086 29.7909 2 32 2C34.2091 2 36 3.79086 36 6C36 8.20914 34.2091 10 32 10C29.7909 10 28 8.20914 28 6Z" fill="#081E40"/>
<path d="M28 24C28 21.7909 29.7909 20 32 20C34.2091 20 36 21.7909 36 24C36 26.2091 34.2091 28 32 28C29.7909 28 28 26.2091 28 24Z" fill="#081E40"/>
</svg>
