<svg width="48" height="48" viewBox="0 0 48 48" fill="none" xmlns="http://www.w3.org/2000/svg">
<g clip-path="url(#clip0_2225_1791)">
<path fill-rule="evenodd" clip-rule="evenodd" d="M10.3776 4.37666C18.7754 -1.60637 30.8218 -2.12389 41.6725 7.64176C42.0163 7.95115 42.2542 8.33426 42.384 8.74556C42.4227 8.86815 42.4523 8.99483 42.4719 9.12478C42.5798 9.83881 42.3791 10.5938 41.8583 11.1724C41.6042 11.4548 41.3004 11.6657 40.972 11.804C40.6732 11.9302 40.3447 12 39.9998 12H28.2495C26.8688 12 25.7495 10.8808 25.7495 9.50005C25.7495 8.11934 26.8688 7.00005 28.2495 7.00005H31.9285C24.9388 3.67432 18.2238 4.92578 13.2788 8.44885C6.6591 13.1651 3.0744 21.9972 5.98946 30.4904C6.43768 31.7964 5.74237 33.2184 4.43644 33.6666C3.1305 34.1148 1.70848 33.4195 1.26026 32.1136C-2.44955 21.3048 2.15342 10.236 10.3776 4.37666ZM6.32747 40.4166C17.1782 50.1822 29.2246 49.6647 37.6224 43.6817C45.8466 37.8224 50.4495 26.7535 46.7397 15.9447C46.2915 14.6388 44.8695 13.9435 43.5636 14.3917C42.2576 14.8399 41.5623 16.2619 42.0105 17.5679C44.9256 26.0611 41.3409 34.8933 34.7212 39.6095C29.7762 43.1325 23.0612 44.384 16.0715 41.0583H19.7505C21.1312 41.0583 22.2505 39.939 22.2505 38.5583C22.2505 37.1776 21.1312 36.0583 19.7505 36.0583H8.00015C7.65577 36.0583 7.32766 36.1279 7.02912 36.2539C6.70032 36.3921 6.39606 36.6032 6.14165 36.8859C5.62086 37.4646 5.42016 38.2195 5.52813 38.9335C5.54769 39.0635 5.57726 39.1902 5.61602 39.3128C5.74576 39.7241 5.98371 40.1072 6.32747 40.4166ZM16.7645 19.0753C20.0472 15.5431 25.3109 18.4047 24.6442 22.5976C23.9124 27.2005 24.958 30.4602 27.404 32.2301C28.5367 33.0496 29.7797 33.3909 30.8457 33.4768C31.8725 33.5596 32.9191 33.4198 33.7471 33.0674C36.365 31.953 37.4795 29.4729 37.4632 27.3162C37.4481 25.2994 36.338 22.6181 33.4903 22.0486C32.1364 21.7778 30.8193 22.6559 30.5485 24.0098C30.2866 25.3196 31.0999 26.595 32.3791 26.9218C32.4156 26.9994 32.4618 27.1452 32.4634 27.3538C32.4674 27.8816 32.2158 28.285 31.7887 28.4668C31.8015 28.4614 31.7987 28.462 31.7814 28.4656C31.7281 28.4766 31.5368 28.5163 31.2473 28.493C30.9038 28.4653 30.5852 28.3603 30.335 28.1792C30.0152 27.9478 29.0089 26.989 29.5822 23.3827C31.0911 13.8923 19.4559 8.83458 13.102 15.6715C10.4401 18.5358 9.90186 22.6841 11.1205 25.9775C11.7434 27.6607 12.858 29.2168 14.4947 30.2735C16.1526 31.344 18.1927 31.8016 20.461 31.52C21.8312 31.3499 22.8041 30.1012 22.6339 28.731C22.4638 27.3608 21.2152 26.388 19.845 26.5581C18.6334 26.7085 17.7917 26.4506 17.2068 26.0729C16.6006 25.6815 16.1113 25.057 15.8098 24.2423C15.1798 22.54 15.5117 20.4234 16.7645 19.0753Z" fill="#081E40"/>
</g>
<defs>
<clipPath id="clip0_2225_1791">
<rect width="48" height="48" fill="white"/>
</clipPath>
</defs>
</svg>
