<svg width="48" height="48" viewBox="0 0 48 48" fill="none" xmlns="http://www.w3.org/2000/svg">
<path d="M42 3C44.2091 3 46 4.79086 46 7V17C46 19.2091 44.2091 21 42 21H26.5V22H35.9932L36.1719 22.0039C37.0607 22.0436 37.9128 22.3788 38.5918 22.959L44.4424 27.959C46.3106 29.5557 46.3106 32.4443 44.4424 34.041L38.5918 39.041L38.4541 39.1533C37.7993 39.6643 37.0016 39.9591 36.1719 39.9961L35.9932 40H26.5V43C26.5 44.3807 25.3807 45.5 24 45.5C22.6193 45.5 21.5 44.3807 21.5 43V40H6C3.79086 40 2 38.2091 2 36V26C2 23.7909 3.79086 22 6 22H21.5V21H12.0068L11.8281 20.9961C10.9984 20.9591 10.2007 20.6643 9.5459 20.1533L9.4082 20.041L3.55762 15.041C1.68944 13.4443 1.68944 10.5557 3.55762 8.95898L9.4082 3.95898C10.0872 3.37883 10.9393 3.04358 11.8281 3.00391L12.0068 3H42ZM7 35H35.625L40.3047 31L35.625 27H7V35ZM7.69531 12L12.375 16H41V8H12.375L7.69531 12Z" fill="#081E40"/>
</svg>
