<svg width="48" height="48" viewBox="0 0 48 48" fill="none" xmlns="http://www.w3.org/2000/svg">
<path d="M40.2061 0.00488281C42.3194 0.112115 44 1.85996 44 4V44C44 46.14 42.3194 47.8879 40.2061 47.9951L40 48H8C5.85996 48 4.11211 46.3194 4.00488 44.2061L4 44V4C4 1.79086 5.79086 3.22128e-08 8 0H40L40.2061 0.00488281ZM9 43H39V34.5H9V43ZM33.5 37C34.8807 37 36 38.1193 36 39.5C36 40.8807 34.8807 42 33.5 42C32.1193 42 31 40.8807 31 39.5C31 38.1193 32.1193 37 33.5 37ZM9 29.5H39V20.5H9V29.5ZM33.5 23C34.8807 23 36 24.1193 36 25.5C36 26.8807 34.8807 28 33.5 28C32.1193 28 31 26.8807 31 25.5C31 24.1193 32.1193 23 33.5 23ZM9 15.5H26V5H9V15.5ZM33.8262 10.5L37.584 5H29.7266L33.8262 10.5Z" fill="#081E40"/>
</svg>
