<svg width="48" height="48" viewBox="0 0 48 48" fill="none" xmlns="http://www.w3.org/2000/svg">
<path fill-rule="evenodd" clip-rule="evenodd" d="M41 7.5C41 6.39543 40.1046 5.5 39 5.5H9C7.89543 5.5 7 6.39543 7 7.5V31.5C7 32.6046 7.89543 33.5 9 33.5H39C40.1046 33.5 41 32.6046 41 31.5V7.5ZM6 0.5C3.79086 0.5 2 2.29086 2 4.5V34.5C2 36.7091 3.79086 38.5 6 38.5H42C44.2091 38.5 46 36.7091 46 34.5V4.5C46 2.29086 44.2091 0.5 42 0.5H6ZM41.5 45C41.5 46.3807 40.3807 47.5 39 47.5H10C8.61929 47.5 7.5 46.3807 7.5 45C7.5 43.6193 8.61929 42.5 10 42.5H39C40.3807 42.5 41.5 43.6193 41.5 45ZM10.7041 19.5C10.7041 15.6776 13.8028 12.579 17.6252 12.579C20.3262 12.579 22.2897 14.1437 23.3135 15.1091L25.4092 12.96C24.213 11.8203 21.502 9.57898 17.6252 9.57898C12.1459 9.57898 7.7041 14.0208 7.7041 19.5C7.7041 24.9793 12.1459 29.4211 17.6252 29.4211C19.7512 29.4211 21.0004 28.7642 21.8547 28.2815C22.4012 27.9727 22.9686 27.5842 23.4724 27.0789L31.2152 19.3122C31.3368 19.1903 31.4502 19.0663 31.5403 18.9677L31.5447 18.9629C31.6429 18.8556 31.7163 18.7755 31.7887 18.7024C31.9341 18.5557 32.0021 18.5148 32.0268 18.5029C32.0374 18.4978 32.0442 18.4957 32.0477 18.4948C32.0506 18.4941 32.0536 18.4936 32.0589 18.4936C32.6257 18.4936 33.0852 18.9531 33.0852 19.5199C33.0852 20.0867 32.6257 20.5462 32.0589 20.5462C32.0336 20.5462 32.0084 20.5453 31.9836 20.5435L29.7313 22.8054C30.3882 23.2712 31.1923 23.5462 32.0589 23.5462C34.2826 23.5462 36.0852 21.7435 36.0852 19.5199C36.0852 17.2962 34.2826 15.4936 32.0589 15.4936C31.5333 15.4936 31.0813 15.6276 30.7202 15.8023C30.2499 16.0299 29.9017 16.3446 29.6577 16.5909C29.5404 16.7092 29.4301 16.8298 29.3421 16.9261L29.3421 16.9261L29.331 16.9382C29.2339 17.0444 29.1613 17.1233 29.0907 17.1942L21.3478 24.9608C21.0927 25.2167 20.7682 25.4497 20.3789 25.6696C19.7356 26.0331 19.0152 26.4211 17.6252 26.4211C13.8028 26.4211 10.7041 23.3224 10.7041 19.5ZM32.0589 27.7369C30.0374 27.7369 28.1836 27.007 26.7509 25.7987L28.879 23.6614C29.7611 24.3369 30.8621 24.7369 32.0589 24.7369C34.9511 24.7369 37.2957 22.3923 37.2957 19.5C37.2957 16.6078 34.9511 14.2632 32.0589 14.2632C31.293 14.2632 30.6784 14.3957 30.1512 14.5945C29.981 14.6587 29.7837 14.79 29.5483 15.0326C28.6224 15.9865 26.5504 18.1202 24.6704 20.0492C23.7306 21.0135 22.8376 21.9279 22.1594 22.6185C21.5263 23.2631 20.9922 23.8045 20.8481 23.9276L20.8346 23.9391C20.42 24.2935 19.3472 25.2106 17.6252 25.2106C14.2668 25.2106 11.9146 22.6146 11.9146 19.5C11.9146 16.2927 14.7634 13.7895 17.6252 13.7895C19.9459 13.7895 21.4692 15.183 22.2973 16.1511L20.1897 18.3124C19.5772 17.55 18.7767 16.7895 17.6252 16.7895C16.3112 16.7895 14.9146 18.0566 14.9146 19.5C14.9146 21.0363 16.0011 22.2106 17.6252 22.2106C18.2138 22.2106 18.5708 21.9274 18.8994 21.6466C18.8905 21.6543 18.9009 21.644 18.9364 21.609L18.9365 21.6089L18.9367 21.6087C18.9807 21.5652 19.0629 21.484 19.1943 21.3521C19.4002 21.1452 19.6817 20.8599 20.019 20.5164C20.6931 19.83 21.5829 18.9189 22.522 17.9554C24.3998 16.0286 26.47 13.8967 27.3956 12.9431C27.8205 12.5054 28.3758 12.0578 29.0927 11.7874C29.9523 11.4633 30.9252 11.2632 32.0589 11.2632C36.608 11.2632 40.2957 14.9509 40.2957 19.5C40.2957 24.0491 36.608 27.7369 32.0589 27.7369Z" fill="#081E40"/>
</svg>
