<svg width="48" height="48" viewBox="0 0 48 48" fill="none" xmlns="http://www.w3.org/2000/svg">
<path d="M43 2C45.2091 2 47 3.79086 47 6V42.4629L46.9932 42.6738C46.8534 44.7551 44.6564 46.0636 42.7598 45.1953L42.5713 45.1006L35 41H5L4.79395 40.9951C2.68056 40.8879 1 39.14 1 37V6C1 3.79086 2.79086 2 5 2H43ZM6 36H35C35.8316 36 36.6506 36.2074 37.3818 36.6035L42 39.1045V7H6V36ZM27 27C28.1046 27 29 27.8954 29 29C29 30.1046 28.1046 31 27 31H13C11.8954 31 11 30.1046 11 29C11 27.8954 11.8954 27 13 27H27ZM35 19C36.1046 19 37 19.8954 37 21C37 22.1046 36.1046 23 35 23H13C11.8954 23 11 22.1046 11 21C11 19.8954 11.8954 19 13 19H35ZM35 11C36.1046 11 37 11.8954 37 13C37 14.1046 36.1046 15 35 15H13C11.8954 15 11 14.1046 11 13C11 11.8954 11.8954 11 13 11H35Z" fill="#081E40"/>
</svg>
