<svg width="48" height="49" viewBox="0 0 48 49" fill="none" xmlns="http://www.w3.org/2000/svg">
<path fill-rule="evenodd" clip-rule="evenodd" d="M6.35308 0.154053C4.25057 0.154053 2.54614 2.01457 2.54614 4.30963V42.7488C2.54614 45.0438 4.25057 46.9043 6.35308 46.9043H20.7243C22.0383 46.9043 23.1036 45.7415 23.1036 44.3071C23.1036 42.8727 22.0383 41.7099 20.7243 41.7099H9.20828C8.15703 41.7099 7.30481 40.7796 7.30481 39.6321V7.42632C7.30481 6.27879 8.15703 5.34853 9.20828 5.34853H38.712C39.7633 5.34853 40.6155 6.27879 40.6155 7.42632V21.8863C40.6155 23.3207 41.6808 24.4835 42.9949 24.4835C44.3089 24.4835 45.3742 23.3207 45.3742 21.8863V4.30964C45.3742 2.01457 43.6698 0.154053 41.5673 0.154053H6.35308Z" fill="#081E40"/>
<path fill-rule="evenodd" clip-rule="evenodd" d="M12.0635 16.2569C12.0635 14.8225 13.3063 13.6597 14.8394 13.6597H29.274C30.8071 13.6597 32.0499 14.8225 32.0499 16.2569C32.0499 17.6913 30.8071 18.8541 29.274 18.8541H14.8394C13.3063 18.8541 12.0635 17.6913 12.0635 16.2569Z" fill="#081E40"/>
<path fill-rule="evenodd" clip-rule="evenodd" d="M12.0635 25.607C12.0635 24.1726 13.3224 23.0098 14.8754 23.0098H21.6241C23.1771 23.0098 24.436 24.1726 24.436 25.607C24.436 27.0414 23.1771 28.2042 21.6241 28.2042H14.8754C13.3224 28.2042 12.0635 27.0414 12.0635 25.607Z" fill="#081E40"/>
<path fill-rule="evenodd" clip-rule="evenodd" d="M32.505 23.7094C32.8711 23.3222 33.4619 23.3222 33.828 23.7094L45.9911 36.575C46.5857 37.2039 46.1676 38.2846 45.3296 38.2846H40.2915C39.7731 38.2846 39.3528 38.7323 39.3528 39.2846V47.1541C39.3528 47.7064 38.9325 48.1541 38.414 48.1541H27.919C27.4005 48.1541 26.9802 47.7064 26.9802 47.1541V39.2846C26.9802 38.7323 26.5599 38.2846 26.0415 38.2846H21.0034C20.1654 38.2846 19.7473 37.2039 20.3419 36.575L32.505 23.7094ZM27.97 33.7826C27.8452 33.9064 27.9274 34.129 28.0979 34.129H30.5994C30.7031 34.129 30.7872 34.2185 30.7872 34.329V43.7985C30.7872 43.9089 30.8712 43.9985 30.9749 43.9985H35.3581C35.4618 43.9985 35.5458 43.9089 35.5458 43.7985V34.329C35.5458 34.2185 35.6299 34.129 35.7336 34.129H38.2351C38.4056 34.129 38.4878 33.9064 38.363 33.7826L33.2945 28.7529C33.2224 28.6813 33.1106 28.6813 33.0385 28.7529L27.97 33.7826Z" fill="#081E40"/>
</svg>
