<svg width="48" height="48" viewBox="0 0 48 48" fill="none" xmlns="http://www.w3.org/2000/svg">
<path d="M36.5371 13.7705C37.5131 14.7468 37.5132 16.3304 36.5371 17.3066C35.5609 18.2826 33.9772 18.2826 33.001 17.3066L26.5 10.8057V21.5H37C38.933 21.5 40.5 23.067 40.5 25V29.874C43.9743 30.9416 46.5 34.1757 46.5 38C46.5 42.6944 42.6944 46.5 38 46.5C33.3056 46.5 29.5 42.6944 29.5 38C29.5 34.1757 32.0257 30.9416 35.5 29.874V26.5H12.5V29.874C15.9743 30.9416 18.5 34.1757 18.5 38C18.5 42.6944 14.6944 46.5 10 46.5C5.30558 46.5 1.5 42.6944 1.5 38C1.5 34.1757 4.02573 30.9416 7.5 29.874V25C7.5 23.067 9.067 21.5 11 21.5H21.5V10.8037L14.998 17.3066C14.0218 18.2824 12.4391 18.2824 11.4629 17.3066C10.4867 16.3304 10.4868 14.7468 11.4629 13.7705L23.2929 1.9405C23.6834 1.54998 24.3166 1.54998 24.7071 1.94051L36.5371 13.7705ZM10 34.5C8.067 34.5 6.5 36.067 6.5 38C6.5 39.933 8.067 41.5 10 41.5C11.933 41.5 13.5 39.933 13.5 38C13.5 36.067 11.933 34.5 10 34.5ZM38 34.5C36.067 34.5 34.5 36.067 34.5 38C34.5 39.933 36.067 41.5 38 41.5C39.933 41.5 41.5 39.933 41.5 38C41.5 36.067 39.933 34.5 38 34.5Z" fill="#081E40"/>
</svg>
