<svg width="48" height="48" viewBox="0 0 48 48" fill="none" xmlns="http://www.w3.org/2000/svg">
<g clip-path="url(#clip0_2241_6228)">
<path fill-rule="evenodd" clip-rule="evenodd" d="M24 43C34.4934 43 43 34.4934 43 24C43 13.5066 34.4934 5 24 5C13.5066 5 5 13.5066 5 24C5 34.4934 13.5066 43 24 43ZM24 48C37.2548 48 48 37.2548 48 24C48 10.7452 37.2548 0 24 0C10.7452 0 0 10.7452 0 24C0 37.2548 10.7452 48 24 48Z" fill="#081E40"/>
<path fill-rule="evenodd" clip-rule="evenodd" d="M25.0698 16.0481C26.4902 16.8079 28.3808 16.0421 29.2925 14.3377C30.2043 12.6332 29.792 10.6356 28.3716 9.87576C26.9512 9.11595 25.0607 9.88173 24.1489 11.5862C23.2371 13.2906 23.6494 15.2883 25.0698 16.0481ZM19 22.0508C20.5 19 25.7642 17.2642 27 18.5C28.3188 19.8188 26.5718 26.3081 25.4011 30.657C24.8972 32.5288 24.5 34.0042 24.5 34.5C24.5 35.0037 25.2159 34.5494 26.3371 33.8378C27.0497 33.3856 27.9261 32.8294 28.8864 32.3492C28 35 22.7399 39.8912 20.6477 37.3805C19.1925 35.6342 20.9208 29.7408 22.1221 25.6443C22.7895 23.3684 23.2943 21.6471 23 21.5C22.1761 21.0881 20.2358 21.5016 19 22.0508Z" fill="#081E40"/>
</g>
<defs>
<clipPath id="clip0_2241_6228">
<rect width="48" height="48" fill="white"/>
</clipPath>
</defs>
</svg>
