<svg width="48" height="48" viewBox="0 0 48 48" fill="none" xmlns="http://www.w3.org/2000/svg">
<path d="M5 24.8387V7.16129C5 6.05672 5.89543 5.16129 7 5.16129H41.9677C42.5378 5.16129 43 5.62345 43 6.19355C43 7.33375 43.9243 8.25806 45.0645 8.25806H45.5C46.8807 8.25806 48 7.13878 48 5.75806V4C48 1.79086 46.2091 0 44 0H4C1.79086 0 0 1.84863 0 4.12903V27.871C0 30.1514 1.79086 32 4 32H44C46.2091 32 48 30.1514 48 27.871V26.2419C48 24.8612 46.8807 23.7419 45.5 23.7419H45.0645C43.9243 23.7419 43 24.6663 43 25.8064C43 26.3766 42.5378 26.8387 41.9677 26.8387H7C5.89543 26.8387 5 25.9433 5 24.8387Z" fill="#081E40"/>
<path fill-rule="evenodd" clip-rule="evenodd" d="M31.1539 7.0035C30.1984 6.44928 28.9745 6.77456 28.4203 7.73003L23.445 16.3074C23.3611 16.4522 23.2973 16.6031 23.2528 16.7569L23.1849 16.7176L23.1846 17.1105C23.1714 17.2423 23.1715 17.3743 23.1843 17.5047L23.1803 22.5107C23.1212 22.5036 23.061 22.5 23 22.5L12 22.5C11.1716 22.5 10.5 23.1716 10.5 24C10.5 24.8284 11.1716 25.5 12 25.5L23 25.5C23.5059 25.5 23.9533 25.2495 24.225 24.8658L29.8701 21.6126C30.1606 21.5248 30.4316 21.3711 30.6588 21.1581L30.7606 21.0994L30.7338 21.0839C30.8422 20.9709 30.9389 20.8433 31.0209 20.7018L35.9962 12.1244C36.5504 11.1689 36.2252 9.9451 35.2697 9.39088L31.1539 7.0035ZM30.5136 10.1003L26.5418 16.9477L28.9276 18.3316L32.8994 11.4842L30.5136 10.1003ZM26.7606 21.0963L25.1807 22.0067L25.1822 20.1833L26.7606 21.0963Z" fill="#081E40"/>
<path d="M10.5 34C9.11929 34 8 35.1193 8 36.5C8 37.8807 9.11929 39 10.5 39H37.5C38.8807 39 40 37.8807 40 36.5C40 35.1193 38.8807 34 37.5 34H10.5Z" fill="#081E40"/>
<path d="M2.5 41C1.11929 41 0 42.1193 0 43.5C0 44.8807 1.11929 46 2.5 46H45.5C46.8807 46 48 44.8807 48 43.5C48 42.1193 46.8807 41 45.5 41H2.5Z" fill="#081E40"/>
<path d="M43 18.5C43 17.1193 44.1193 16 45.5 16C46.8807 16 48 17.1193 48 18.5V20.5C48 21.8807 46.8807 23 45.5 23C44.1193 23 43 21.8807 43 20.5V18.5Z" fill="#081E40"/>
<path d="M45.5 15C46.8807 15 48 13.8807 48 12.5C48 11.1193 46.8807 10 45.5 10C44.1193 10 43 11.1193 43 12.5C43 13.8807 44.1193 15 45.5 15Z" fill="#081E40"/>
</svg>
