<svg width="48" height="48" viewBox="0 0 48 48" fill="none" xmlns="http://www.w3.org/2000/svg">
<g clip-path="url(#clip0_1754_897)">
<path fill-rule="evenodd" clip-rule="evenodd" d="M37 21C37 29.8366 29.8366 37 21 37C12.1634 37 5 29.8366 5 21C5 12.1634 12.1634 5 21 5C29.8366 5 37 12.1634 37 21ZM33.9765 37.512C30.4045 40.3231 25.8981 42 21 42C9.40202 42 0 32.598 0 21C0 9.40202 9.40202 0 21 0C32.598 0 42 9.40202 42 21C42 25.8981 40.3231 30.4045 37.512 33.9765L37.7678 34.2322L46.7678 43.2322C47.7441 44.2085 47.7441 45.7915 46.7678 46.7678C45.7915 47.7441 44.2085 47.7441 43.2322 46.7678L34.2322 37.7678L33.9765 37.512Z" fill="#081E40"/>
</g>
<defs>
<clipPath id="clip0_1754_897">
<rect width="48" height="48" fill="white"/>
</clipPath>
</defs>
</svg>
