<svg width="48" height="48" viewBox="0 0 48 48" fill="none" xmlns="http://www.w3.org/2000/svg">
<g clip-path="url(#clip0_3765_109)">
<path fill-rule="evenodd" clip-rule="evenodd" d="M4 4C4 1.79086 5.79086 0 8 0H39C41.2091 0 43 1.79086 43 4V19.5C43 20.8807 41.8807 22 40.5 22C39.1193 22 38 20.8807 38 19.5V7C38 5.89543 37.1046 5 36 5H11C9.89543 5 9 5.89543 9 7V41C9 42.1046 9.89543 43 11 43L17 43C18.3807 43 19.5 44.1193 19.5 45.5C19.5 46.8807 18.3807 48 17 48L8 48C5.79086 48 4 46.2091 4 44V4Z" fill="#081E40"/>
<path fill-rule="evenodd" clip-rule="evenodd" d="M11.5 12.5C11.5 11.1193 12.6193 10 14 10H32C33.3807 10 34.5 11.1193 34.5 12.5C34.5 13.8807 33.3807 15 32 15H14C12.6193 15 11.5 13.8807 11.5 12.5Z" fill="#081E40"/>
<path fill-rule="evenodd" clip-rule="evenodd" d="M11.5 21.5C11.5 20.1193 12.6193 19 14 19H23C24.3807 19 25.5 20.1193 25.5 21.5C25.5 22.8807 24.3807 24 23 24H14C12.6193 24 11.5 22.8807 11.5 21.5Z" fill="#081E40"/>
<path fill-rule="evenodd" clip-rule="evenodd" d="M41.0427 25.3782C40.7465 25.1952 40.4412 25.0255 40.1276 24.8699L39.4816 23.3093C38.9008 22.1404 38.096 22.1404 37.3447 22.1404H32.7064C31.955 22.1404 30.9642 22.1404 30.577 23.3093L29.8864 24.9774C29.6331 25.1098 29.3854 25.2515 29.1438 25.4021L27.0338 25.127C25.7375 25.0487 25.3351 25.7502 24.9595 26.4051L22.6403 30.4478C22.2646 31.1027 21.7692 31.9663 22.5815 32.8882L23.8226 34.5232C23.816 34.6809 23.8127 34.8394 23.8127 34.9986C23.8127 35.0634 23.8133 35.1279 23.8144 35.1924L22.5815 36.8165C21.7692 37.7385 22.2646 38.6021 22.6403 39.257L24.9595 43.2997C25.3351 43.9546 25.7375 44.6561 27.0338 44.5778L28.7694 44.3515C29.1275 44.5948 29.5003 44.8181 29.8863 45.0198L30.577 46.6882C30.9642 47.8571 31.955 47.8571 32.7064 47.8571H37.3447C38.096 47.8571 38.9008 47.8571 39.4816 46.6882L40.1277 45.1273C40.5761 44.9049 41.0076 44.6535 41.4197 44.3758L42.9691 44.5778C44.2654 44.6561 44.6678 43.9546 45.0434 43.2997L47.3626 39.257C47.7383 38.6021 48.2337 37.7385 47.4214 36.8165L46.4025 35.4743C46.409 35.3165 46.4123 35.158 46.4123 34.9986C46.4123 34.747 46.4041 34.4973 46.3879 34.2497L47.4214 32.8882C48.2337 31.9663 47.7383 31.1027 47.3626 30.4478L45.0434 26.4051C44.6678 25.7502 44.2654 25.0487 42.9691 25.127L41.0427 25.3782ZM36.4522 25.724H33.6115C33.3629 25.724 33.1422 25.9047 33.0636 26.1727L32.5361 28C31.7266 28.2851 30.9814 28.7068 30.3282 29.2373L28.3141 28.7344C28.0288 28.6406 27.733 28.7389 27.5993 28.972L26.179 31.448C26.0546 31.6647 26.0998 31.9474 26.2911 32.1499L27.708 33.637C27.6261 34.0784 27.5833 34.5336 27.5833 34.9987C27.5833 35.3749 27.6113 35.7446 27.6653 36.1057L26.2911 37.548C26.0998 37.7505 26.0546 38.0332 26.179 38.2499L27.5993 40.7259C27.733 40.959 28.0288 41.0573 28.3141 40.9635L30.0564 40.5285C30.7723 41.1691 31.6133 41.6728 32.5383 41.9983L33.0636 43.8179C33.1422 44.0859 33.3629 44.2667 33.6115 44.2667H36.4522C36.7197 44.2667 36.9522 44.058 37.0141 43.7624L37.5251 41.9768C38.4261 41.6508 39.246 41.1554 39.9462 40.5289L41.6865 40.9635C41.9719 41.0573 42.2677 40.959 42.4014 40.7259L43.8217 38.2499C43.946 38.0332 43.9009 37.7505 43.7096 37.548L42.3375 36.1079C42.3917 35.7461 42.4198 35.3757 42.4198 34.9987C42.4198 34.5328 42.3769 34.077 42.2947 33.6349L43.7096 32.1499C43.9009 31.9474 43.946 31.6647 43.8217 31.448L42.4014 28.972C42.2677 28.7389 41.9719 28.6406 41.6865 28.7344L39.6743 29.2368C39.0375 28.7197 38.3133 28.3061 37.5273 28.0215L37.0141 26.2282C36.9522 25.9326 36.7197 25.724 36.4522 25.724Z" fill="#081E40"/>
<path fill-rule="evenodd" clip-rule="evenodd" d="M35.0011 40.474C38.0056 40.474 40.4412 38.0384 40.4412 35.034C40.4412 32.0295 38.0056 29.5939 35.0011 29.5939C31.9966 29.5939 29.561 32.0295 29.561 35.034C29.561 38.0384 31.9966 40.474 35.0011 40.474ZM35.001 36.9768C36.074 36.9768 36.9439 36.107 36.9439 35.034C36.9439 33.9609 36.074 33.0911 35.001 33.0911C33.928 33.0911 33.0581 33.9609 33.0581 35.034C33.0581 36.107 33.928 36.9768 35.001 36.9768Z" fill="#081E40"/>
</g>
<defs>
<clipPath id="clip0_3765_109">
<rect width="48" height="48" fill="white"/>
</clipPath>
</defs>
</svg>
