<svg width="48" height="48" viewBox="0 0 48 48" fill="none" xmlns="http://www.w3.org/2000/svg">
<g clip-path="url(#clip0_13438_395)">
<path d="M22.9961 0.601566C23.4253 -0.200855 24.5747 -0.200841 25.0039 0.601566L32.2871 14.2207C32.4465 14.5187 32.7291 14.7314 33.0596 14.7998L47.0908 17.708C47.9541 17.887 48.2961 18.9384 47.7031 19.5918L38.0127 30.2686C37.7892 30.515 37.6844 30.8475 37.7256 31.1778L39.6651 46.7159C39.7796 47.6341 38.8123 48.2991 37.9981 47.8624L24.5381 40.6397C24.2023 40.4595 23.7987 40.4596 23.4629 40.6397L10.0019 47.8624C9.18766 48.2992 8.22038 47.6341 8.33495 46.7159L10.2744 31.1778C10.3156 30.8475 10.2108 30.515 9.9873 30.2686L0.296859 19.5918C-0.296116 18.9384 0.0459263 17.887 0.909164 17.708L14.9404 14.7998C15.2708 14.7314 15.5535 14.5187 15.7129 14.2207L22.9961 0.601566ZM20.1221 16.5791C19.2646 18.1824 17.7394 19.3255 15.9551 19.6954L8.53808 21.2325L13.6894 26.9092C14.8934 28.236 15.4569 30.0215 15.2353 31.7969L14.2207 39.9229L21.0977 36.2335C22.7967 35.3217 24.8183 35.2649 26.5576 36.0626L26.9023 36.2335L33.7783 39.9229L32.7647 31.7969C32.5431 30.0214 33.1066 28.236 34.3106 26.9092L39.4609 21.2325L32.0449 19.6954C30.2606 19.3255 28.7354 18.1824 27.8779 16.5791L24 9.32717L20.1221 16.5791Z" fill="#081E40"/>
</g>
<defs>
<clipPath id="clip0_13438_395">
<rect width="48" height="48" fill="white"/>
</clipPath>
</defs>
</svg>
