<svg width="48" height="48" viewBox="0 0 48 48" fill="none" xmlns="http://www.w3.org/2000/svg">
<path fill-rule="evenodd" clip-rule="evenodd" d="M4.5 2C3.11929 2 2 3.11929 2 4.5C2 5.88071 3.11929 7 4.5 7L43.5 7C44.8807 7 46 5.88072 46 4.5C46 3.11929 44.8807 2 43.5 2L4.5 2ZM32.3291 24.3705C31.7106 23.9776 31.7106 23.075 32.3291 22.6822L44.4638 14.9756C45.1296 14.5528 45.9999 15.0311 45.9999 15.8197V31.2329C45.9999 32.0216 45.1296 32.4998 44.4638 32.077L32.3291 24.3705ZM2 43.5C2 42.1193 3.11929 41 4.5 41L43.5 41C44.8807 41 46 42.1193 46 43.5C46 44.8807 44.8807 46 43.5 46L4.5 46C3.11929 46 2 44.8807 2 43.5ZM4.5 21.5C3.11929 21.5 2 22.6193 2 24C2 25.3807 3.11929 26.5 4.5 26.5L27 26.5C28.3807 26.5 29.5 25.3807 29.5 24C29.5 22.6193 28.3807 21.5 27 21.5L4.5 21.5Z" fill="#081E40"/>
</svg>
