<svg width="48" height="48" viewBox="0 0 48 48" fill="none" xmlns="http://www.w3.org/2000/svg">
<path fill-rule="evenodd" clip-rule="evenodd" d="M17.3145 15.1661C17.0333 15.842 16.4054 16.3103 15.6775 16.387L3.94039 17.6241C2.22242 17.8052 1.52663 19.9324 2.80552 21.0937L11.5695 29.0519C12.1093 29.5422 12.3396 30.2873 12.1704 30.9966L9.24552 43.2582C8.83275 44.9887 10.7152 46.3564 12.2334 45.4291L22.9575 38.8789C23.5975 38.488 24.4025 38.488 25.0425 38.8789L35.7666 45.4291C37.2848 46.3564 39.1673 44.9887 38.7545 43.2582L35.8296 30.9966C35.6605 30.2873 35.8907 29.5422 36.4306 29.0519L45.1945 21.0937C46.4734 19.9324 45.7776 17.8052 44.0596 17.6241L32.3226 16.387C31.5946 16.3103 30.9667 15.842 30.6856 15.1661L25.8466 3.53199C25.1635 1.8894 22.8366 1.8894 22.1534 3.53199L17.3145 15.1661ZM24 12.1119L21.9311 17.0863C20.9472 19.4519 18.7495 21.091 16.2015 21.3595L11.1251 21.8946L14.9307 25.3503C16.8202 27.0661 17.6261 29.6742 17.0339 32.1568L15.7826 37.4024L20.3512 34.6119C22.5913 33.2436 25.4087 33.2436 27.6488 34.6119L32.2174 37.4024L30.9661 32.1568C30.3739 29.6742 31.1798 27.0661 33.0693 25.3503L36.875 21.8946L31.7985 21.3595C29.2505 21.091 27.0529 19.4519 26.069 17.0863L24 12.1119Z" fill="#081E40"/>
</svg>
