<svg width="48" height="48" viewBox="0 0 48 48" fill="none" xmlns="http://www.w3.org/2000/svg">
<path fill-rule="evenodd" clip-rule="evenodd" d="M29 2C30.3807 2 31.5 3.11929 31.5 4.5L31.5 14.5C31.5 15.3284 32.1716 16 33 16L43 16C44.3807 16 45.5 17.1193 45.5 18.5C45.5 19.8807 44.3807 21 43 21L31 21C28.5147 21 26.5 18.9853 26.5 16.5V4.5C26.5 3.11929 27.6193 2 29 2ZM18.5 46C17.1193 46 16 44.8807 16 43.5L16 33.5C16 32.6716 15.3284 32 14.5 32L4.5 32C3.11929 32 2 30.8807 2 29.5C2 28.1193 3.11929 27 4.5 27H16.5C18.9853 27 21 29.0147 21 31.5L21 43.5C21 44.8807 19.8807 46 18.5 46ZM16 4.5C16 3.11929 17.1193 2 18.5 2C19.8807 2 21 3.11929 21 4.5L21 16.5C21 18.9853 18.9853 21 16.5 21L4.5 21C3.11929 21 2 19.8807 2 18.5C2 17.1193 3.11929 16 4.5 16L14.5 16C15.3284 16 16 15.3284 16 14.5L16 4.5ZM29 46C30.3807 46 31.5 44.8807 31.5 43.5L31.5 33.5C31.5 32.6716 32.1716 32 33 32L43 32C44.3807 32 45.5 30.8807 45.5 29.5C45.5 28.1193 44.3807 27 43 27L31 27C28.5147 27 26.5 29.0147 26.5 31.5L26.5 43.5C26.5 44.8807 27.6193 46 29 46Z" fill="#081E40"/>
</svg>
