<svg width="48" height="48" viewBox="0 0 48 48" fill="none" xmlns="http://www.w3.org/2000/svg">
<path fill-rule="evenodd" clip-rule="evenodd" d="M42.5 2C44.433 2 46 3.567 46 5.5V14.5C46 15.8807 44.8807 17 43.5 17C42.1193 17 41 15.8807 41 14.5V10.5355L29.7678 21.7678C28.7915 22.7441 27.2085 22.7441 26.2322 21.7678C25.2559 20.7915 25.2559 19.2085 26.2322 18.2322L37.4645 7H33.5C32.1193 7 31 5.88071 31 4.5C31 3.11929 32.1193 2 33.5 2H42.5ZM5.5 46C3.567 46 2 44.433 2 42.5V33.5C2 32.1193 3.11929 31 4.5 31C5.88071 31 7 32.1193 7 33.5V37.4645L17.2322 27.2322C18.2085 26.2559 19.7915 26.2559 20.7678 27.2322C21.7441 28.2085 21.7441 29.7915 20.7678 30.7678L10.5355 41H14.5C15.8807 41 17 42.1193 17 43.5C17 44.8807 15.8807 46 14.5 46H5.5Z" fill="#081E40"/>
</svg>
