<svg width="48" height="48" viewBox="0 0 48 48" fill="none" xmlns="http://www.w3.org/2000/svg">
<path fill-rule="evenodd" clip-rule="evenodd" d="M39.4679 29.0498C39.7919 29.8532 40.0627 30.6385 40.28 31.3993C41.5991 36.0189 40.7088 38.5596 39.6343 39.6342C38.5597 40.7087 36.019 41.5989 31.3995 40.2799C30.6386 40.0626 29.8533 39.7918 29.0499 39.4678C30.9656 38.071 32.8516 36.4625 34.6572 34.657C36.4627 32.8514 38.0711 30.9655 39.4679 29.0498ZM36.8541 24.0072C35.349 26.3891 33.4345 28.8086 31.1216 31.1214C28.8088 33.4343 26.3893 35.3489 24.0073 36.8539C21.6253 35.3489 19.2058 33.4343 16.8929 31.1214C14.5801 28.8086 12.6655 26.3891 11.1605 24.0072C12.6655 21.6252 14.5801 19.2056 16.893 16.8928C19.2058 14.5799 21.6253 12.6654 24.0073 11.1603C26.3892 12.6654 28.8087 14.5799 31.1216 16.8928C33.4344 19.2056 35.349 21.6252 36.8541 24.0072ZM42.6283 24.0072C46.686 31.7029 47.1736 39.166 43.1698 43.1697C39.1661 47.1734 31.703 46.6858 24.0073 42.6282C16.3115 46.6858 8.84845 47.1734 4.8447 43.1697C0.840958 39.166 1.32857 31.7029 5.3862 24.0072C1.32851 16.3114 0.840862 8.84828 4.84463 4.84451C8.84839 0.840746 16.3115 1.32838 24.0073 5.38606C31.703 1.32838 39.1661 0.840746 43.1699 4.84451C47.1737 8.84828 46.686 16.3114 42.6283 24.0072ZM29.0499 8.54643C29.8533 8.22246 30.6387 7.9516 31.3995 7.73434C36.0191 6.41527 38.5598 7.3055 39.6344 8.38004C40.7089 9.45458 41.5991 11.9953 40.2801 16.6149C40.0628 17.3757 39.7919 18.1611 39.468 18.9645C38.0711 17.0488 36.4627 15.1628 34.6571 13.3572C32.8516 11.5517 30.9656 9.94326 29.0499 8.54643ZM18.9646 8.54643C18.1612 8.22246 17.3758 7.9516 16.615 7.73434C11.9955 6.41527 9.45471 7.3055 8.38017 8.38004C7.30563 9.45458 6.4154 11.9953 7.73447 16.6149C7.95173 17.3757 8.22259 18.1611 8.54656 18.9645C9.9434 17.0488 11.5519 15.1628 13.3574 13.3572C15.163 11.5517 17.049 9.94326 18.9646 8.54643ZM8.54658 29.0498C8.22263 29.8532 7.95179 30.6385 7.73454 31.3993C6.41547 36.0189 7.3057 38.5596 8.38024 39.6342C9.45478 40.7087 11.9955 41.5989 16.6151 40.2799C17.3759 40.0626 18.1612 39.7918 18.9646 39.4678C17.0489 38.071 15.1629 36.4625 13.3574 34.657C11.5518 32.8514 9.9434 30.9655 8.54658 29.0498ZM17.02 20.4944C17.02 19.1137 18.1392 17.9944 19.52 17.9944H28.52C29.9007 17.9944 31.02 19.1137 31.02 20.4944C31.02 21.8751 29.9007 22.9944 28.52 22.9944H26.52V29.4944C26.52 30.8751 25.4007 31.9944 24.02 31.9944C22.6392 31.9944 21.52 30.8751 21.52 29.4944V22.9944H19.52C18.1392 22.9944 17.02 21.8751 17.02 20.4944Z" fill="#081E40"/>
</svg>
