<svg width="48" height="48" viewBox="0 0 48 48" fill="none" xmlns="http://www.w3.org/2000/svg">
<path fill-rule="evenodd" clip-rule="evenodd" d="M32.2383 24.6613C32.3787 26.6909 33.2275 28.5835 34.6086 29.9466C36.0294 31.3244 37.8768 32.0574 39.7742 31.9964C40.811 32.0293 41.8435 31.8384 42.8127 31.4345C43.782 31.0306 44.6691 30.4217 45.4233 29.6425C46.1537 28.9052 46.734 28.0077 47.1263 27.0085C47.5186 26.0093 47.7141 24.9309 47.7002 23.8435C47.7427 22.2957 47.312 20.7766 46.4765 19.5268C46.1107 19.0004 45.668 18.5436 45.1664 18.1748C45.4131 17.9012 45.6345 17.6016 45.8273 17.2803C46.414 16.304 46.7236 15.1595 46.717 13.991C46.7165 12.7598 46.4053 11.5526 45.818 10.5024C45.1983 9.38962 44.3015 8.49328 43.2328 7.91856C42.1313 7.30927 40.9126 6.9973 39.6785 7.00871C37.9534 6.95392 36.2694 7.59007 34.9425 8.79774C33.6163 10.0853 32.75 11.8457 32.4975 13.7661C32.4702 13.9318 32.473 14.1018 32.5059 14.2663C32.5387 14.4307 32.601 14.5865 32.689 14.7245C32.7769 14.8623 32.8888 14.9796 33.0182 15.07C33.1477 15.1603 33.2921 15.2218 33.4433 15.251L35.907 15.7315C36.0604 15.761 36.2177 15.7567 36.3695 15.7187C36.5213 15.6807 36.6647 15.6098 36.7911 15.5102C36.9175 15.4107 37.0245 15.2845 37.1057 15.139C37.1869 14.9935 37.2406 14.8318 37.2638 14.6632C37.3257 13.8359 37.6342 13.0538 38.1419 12.4371C38.3548 12.2195 38.6055 12.0508 38.8791 11.9411C39.1526 11.8313 39.4435 11.7827 39.7345 11.7982C40.018 11.7797 40.302 11.8243 40.5693 11.9293C40.8367 12.0343 41.0818 12.1975 41.2898 12.409C41.4771 12.6067 41.6239 12.8455 41.7205 13.1099C41.8171 13.3742 41.8614 13.658 41.8503 13.9425C41.8847 14.2718 41.8347 14.6052 41.7061 14.9053C41.5774 15.2054 41.3751 15.4605 41.1217 15.6421C40.4695 16.1071 39.7048 16.3475 38.9265 16.3321C38.8375 16.3311 38.7486 16.3243 38.6603 16.3117C38.3554 16.2741 38.0492 16.3694 37.8079 16.577C37.5667 16.7845 37.4098 17.0877 37.3712 17.4209L37.098 19.7875C37.0746 19.994 37.0976 20.2037 37.1651 20.3982C37.2325 20.5928 37.3424 20.7663 37.4851 20.9039C37.6278 21.0414 37.799 21.1387 37.9839 21.1873C38.1687 21.236 38.3617 21.2345 38.5459 21.1829C39.015 21.0343 39.4988 20.9485 39.9868 20.9274C40.3537 20.9099 40.7201 20.975 41.0632 21.1187C41.4062 21.2625 41.7186 21.4818 41.9811 21.7631C42.238 22.0447 42.4388 22.3815 42.5707 22.7524C42.7025 23.1233 42.7626 23.52 42.7471 23.9176C42.7595 24.3545 42.6899 24.7895 42.5425 25.1957C42.3951 25.6019 42.173 25.9707 41.89 26.2791C41.6182 26.5867 41.2911 26.8292 40.9294 26.9915C40.5676 27.1539 40.1791 27.2324 39.7883 27.2222C39.1632 27.245 38.5545 27.0013 38.0905 26.5424C37.4936 25.8146 37.1154 24.9037 37.0069 23.9329C36.95 23.6137 36.784 23.3302 36.5428 23.1403C36.3015 22.9503 36.0032 22.8682 35.7085 22.9106L33.2448 23.271C32.9452 23.3151 32.6729 23.4846 32.4852 23.7439C32.2975 24.0032 32.209 24.3321 32.2383 24.6613ZM13.7485 31.2482C13.9664 31.479 14.2579 31.6081 14.5612 31.6079H27.8256C28.1353 31.6079 28.4323 31.4733 28.6512 31.2336C28.8702 30.994 28.9932 30.6689 28.9932 30.33V27.7385C28.9932 27.3996 28.8702 27.0745 28.6512 26.8349C28.4323 26.5952 28.1353 26.4606 27.8256 26.4606H20.5418C20.9762 26.0261 21.6324 25.4051 22.6272 24.4927C24.012 23.2583 25.321 21.9255 26.5459 20.5031C27.303 19.6071 27.9235 18.5836 28.3837 17.472C28.7657 16.4953 28.9642 15.4445 28.9675 14.3821C28.9831 13.395 28.8079 12.4155 28.4533 11.5077C28.0987 10.5999 27.5729 9.78442 26.9102 9.11465C25.4426 7.66676 23.5128 6.91011 21.539 7.00871C19.6051 6.91325 17.7074 7.60523 16.2122 8.95109C14.7916 10.3969 13.9477 12.3964 13.8629 14.5175C13.8342 14.8531 13.9278 15.1875 14.1233 15.4479C14.3188 15.7083 14.6004 15.8736 14.9068 15.9079L17.4312 16.1839C17.5929 16.202 17.7563 16.183 17.9109 16.1281C18.0654 16.0732 18.2078 15.9836 18.329 15.865C18.4501 15.7464 18.5472 15.6014 18.6142 15.4394C18.6812 15.2773 18.7166 15.1018 18.718 14.9239C18.6926 14.4994 18.745 14.0736 18.8722 13.6716C18.9993 13.2695 19.1986 12.8994 19.4583 12.5828C19.7277 12.3067 20.0459 12.0938 20.3933 11.9571C20.7406 11.8204 21.1099 11.7628 21.4783 11.788C21.8279 11.7659 22.1781 11.8205 22.5081 11.9487C22.8382 12.0769 23.1415 12.2759 23.4002 12.5343C23.6287 12.7589 23.8096 13.0354 23.9306 13.3443C24.0516 13.6532 24.1097 13.9873 24.1008 14.3233C24.0358 15.239 23.709 16.1091 23.1667 16.81C21.9148 18.4478 20.5011 19.9289 18.9515 21.2264C17.7366 22.2784 16.6083 23.4449 15.5794 24.7125C14.8039 25.6861 14.1877 26.7988 13.7578 28.0017C13.4931 28.7569 13.3693 29.5625 13.3935 30.3709C13.4032 30.7027 13.5305 31.0173 13.7485 31.2482ZM5.84848 31.5106C5.99015 31.5748 6.14198 31.6079 6.29532 31.6079H8.75671C8.91004 31.6079 9.06188 31.5748 9.20354 31.5106C9.34521 31.4464 9.47393 31.3523 9.58235 31.2336C9.69078 31.1149 9.77679 30.9741 9.83547 30.819C9.89415 30.664 9.92435 30.4978 9.92435 30.33V8.28659C9.92435 8.11877 9.89415 7.9526 9.83547 7.79756C9.77679 7.64253 9.69078 7.50165 9.58235 7.38299C9.47393 7.26433 9.34521 7.1702 9.20354 7.10598C9.06188 7.04176 8.91004 7.00871 8.75671 7.00871H7.16871C6.95327 7.00752 6.74172 7.07159 6.55749 7.19383C6.37325 7.31607 6.22351 7.49171 6.12484 7.70132C5.63606 8.67742 4.98411 9.54437 4.2029 10.2571C3.20311 11.2211 2.08055 12.0209 0.870453 12.6314C0.668721 12.7353 0.498402 12.9003 0.379632 13.1068C0.260862 13.3134 0.198606 13.5528 0.200226 13.7968V16.4037C0.200646 16.6093 0.24641 16.8118 0.333633 16.994C0.420855 17.1761 0.546959 17.3326 0.701233 17.45C0.855507 17.5674 1.0334 17.6423 1.21979 17.6684C1.40618 17.6945 1.59557 17.6709 1.77187 17.5998C2.73679 17.1936 3.66744 16.6958 4.5532 16.1123C4.75169 15.9845 4.94319 15.8567 5.12768 15.729V30.33C5.12768 30.4978 5.15788 30.664 5.21656 30.819C5.27524 30.9741 5.36124 31.1149 5.46967 31.2336C5.5781 31.3523 5.70682 31.4464 5.84848 31.5106ZM2.5 36.5C1.11929 36.5 0 37.6193 0 39C0 40.3807 1.11929 41.5 2.5 41.5L45.5 41.5C46.8807 41.5 48 40.3807 48 39C48 37.6193 46.8807 36.5 45.5 36.5L2.5 36.5Z" fill="#081E40"/>
</svg>
