<svg width="48" height="48" viewBox="0 0 48 48" fill="none" xmlns="http://www.w3.org/2000/svg">
<rect width="48" height="48" fill="white"/>
<path d="M36.124 32C37.7809 32 39.124 33.3431 39.124 35C39.124 36.6569 37.7809 38 36.124 38C34.4672 38 33.124 36.6569 33.124 35C33.124 33.3431 34.4672 32 36.124 32Z" fill="#081E40"/>
<path fill-rule="evenodd" clip-rule="evenodd" d="M35.124 23.5771C35.7428 23.2199 36.5053 23.2199 37.124 23.5771L45.5166 28.4229C46.1352 28.7801 46.5165 29.44 46.5166 30.1543V39.8457C46.5165 40.56 46.1352 41.2199 45.5166 41.5771L37.124 46.4229C36.5053 46.7801 35.7428 46.7801 35.124 46.4229L26.7314 41.5771C26.1128 41.2199 25.7316 40.56 25.7314 39.8457V30.1543C25.7316 29.44 26.1128 28.7801 26.7314 28.4229L35.124 23.5771ZM36.624 29.0615C36.3146 28.8828 35.9335 28.8828 35.624 29.0615L31.2314 31.5977C30.9221 31.7763 30.7315 32.1067 30.7314 32.4639V37.5352C30.7315 37.8923 30.9221 38.2227 31.2314 38.4014L35.624 40.9375C35.9335 41.1162 36.3146 41.1162 36.624 40.9375L41.0166 38.4014C41.3259 38.2227 41.5166 37.8923 41.5166 37.5352V32.4639C41.5166 32.1067 41.3259 31.7763 41.0166 31.5977L36.624 29.0615Z" fill="#081E40"/>
<path d="M23.4326 32.5C23.7088 32.5 23.9326 32.7239 23.9326 33V37C23.9326 37.2761 23.7088 37.5 23.4326 37.5H8C7.44772 37.5 7 37.9477 7 38.5V40.5C7 41.0523 7.44772 41.5 8 41.5H23.8291C24.18 41.5 24.5252 41.5922 24.8291 41.7676L31.4102 45.5674C31.853 45.8232 31.6717 46.5 31.1602 46.5H6C3.79086 46.5 2 44.7091 2 42.5L2 36.5C2 34.2909 3.79086 32.5 6 32.5H23.4326Z" fill="#081E40"/>
<path d="M10 38C10.8284 38 11.5 38.6716 11.5 39.5C11.5 40.3284 10.8284 41 10 41C9.17157 41 8.5 40.3284 8.5 39.5C8.5 38.6716 9.17157 38 10 38Z" fill="#081E40"/>
<path d="M42 16.5C44.2091 16.5 46 18.2909 46 20.5V26.5C46 26.7246 45.7541 26.8486 45.5596 26.7363L41.5 24.3926C41.1907 24.214 41.0001 23.8836 41 23.5264V22.5C41 21.9477 40.5523 21.5 40 21.5H8C7.44772 21.5 7 21.9477 7 22.5V24.5C7 25.0523 7.44772 25.5 8 25.5H27.084C27.2883 25.5003 27.3606 25.7708 27.1836 25.873L24.1826 27.6055C24.0279 27.6948 23.9326 27.8604 23.9326 28.0391V30C23.9326 30.2761 23.7088 30.5 23.4326 30.5H6C3.79086 30.5 2 28.7091 2 26.5V20.5C2 18.2909 3.79086 16.5 6 16.5H42Z" fill="#081E40"/>
<path d="M10 22C10.8284 22 11.5 22.6716 11.5 23.5C11.5 24.3284 10.8284 25 10 25C9.17157 25 8.5 24.3284 8.5 23.5C8.5 22.6716 9.17157 22 10 22Z" fill="#081E40"/>
<path d="M10 6.5C10.8284 6.5 11.5 7.17157 11.5 8C11.5 8.82843 10.8284 9.5 10 9.5C9.17157 9.5 8.5 8.82843 8.5 8C8.5 7.17157 9.17157 6.5 10 6.5Z" fill="#081E40"/>
<path fill-rule="evenodd" clip-rule="evenodd" d="M42 1C44.2091 1 46 2.79086 46 5V11C46 13.2091 44.2091 15 42 15H6C3.79086 15 2 13.2091 2 11L2 5C2 2.79086 3.79086 1 6 1H42ZM8 6C7.44772 6 7 6.44772 7 7V9C7 9.55228 7.44772 10 8 10H40C40.5523 10 41 9.55228 41 9V7C41 6.44772 40.5523 6 40 6H8Z" fill="#081E40"/>
</svg>
