<svg width="48" height="48" viewBox="0 0 48 48" fill="none" xmlns="http://www.w3.org/2000/svg">
<g clip-path="url(#clip0_2105_1118)">
<path fill-rule="evenodd" clip-rule="evenodd" d="M21 37C29.8366 37 37 29.8366 37 21C37 12.1634 29.8366 5 21 5C12.1634 5 5 12.1634 5 21C5 29.8366 12.1634 37 21 37ZM21 42C25.8981 42 30.4046 40.3231 33.9766 37.512L43.2322 46.7677C44.2085 47.744 45.7915 47.744 46.7678 46.7677C47.7441 45.7913 47.7441 44.2084 46.7678 43.2321L37.5121 33.9764C40.3231 30.4045 42 25.8981 42 21C42 9.40202 32.598 0 21 0C9.40202 0 0 9.40202 0 21C0 32.598 9.40202 42 21 42ZM14.9623 16.451C14.1068 15.3673 12.5347 15.1823 11.451 16.0379C10.3673 16.8934 10.1823 18.4655 11.0379 19.5492L15.8856 25.6896C17.0423 27.1548 19.2422 27.219 20.4824 25.8237L23.6692 22.2387L27.0379 26.5057C27.8934 27.5894 29.4655 27.7744 30.5492 26.9188C31.6329 26.0633 31.8179 24.4912 30.9623 23.4075L26.1147 17.2671C24.9579 15.8019 22.758 15.7377 21.5178 17.133L18.331 20.7181L14.9623 16.451Z" fill="#081E40"/>
</g>
<defs>
<clipPath id="clip0_2105_1118">
<rect width="48" height="48" fill="white"/>
</clipPath>
</defs>
</svg>
