<svg width="48" height="48" viewBox="0 0 48 48" fill="none" xmlns="http://www.w3.org/2000/svg">
<path fill-rule="evenodd" clip-rule="evenodd" d="M6 2C3.79086 2 2 3.79086 2 6V42C2 44.2091 3.79086 46 6 46H20.1C21.4807 46 22.6 44.8807 22.6 43.5C22.6 42.1193 21.4807 41 20.1 41H9C7.89543 41 7 40.1046 7 39V9C7 7.89543 7.89543 7 9 7H39C40.1046 7 41 7.89543 41 9V19.9186C41 21.2993 42.1193 22.4186 43.5 22.4186C44.8807 22.4186 46 21.2993 46 19.9186V6C46 3.79086 44.2091 2 42 2H6ZM37.0002 8.99991C38.1047 9.82834 38.3286 11.3954 37.5002 12.4999L31.8331 20.056C30.4541 20.1891 29.1434 20.5556 27.9409 21.1155L19.8384 18.4146L13.9299 25.5893C13.0522 26.6551 11.4766 26.8076 10.4108 25.9298C9.34499 25.0521 9.19252 23.4765 10.0702 22.4107L17.0703 13.9107L17.2886 13.6456C17.8147 13.0068 18.6798 12.7579 19.4649 13.0196L19.7907 13.1282L28.5813 16.0584L33.5002 9.49991C34.3286 8.39533 35.8956 8.17147 37.0002 8.99991ZM38.5 32C38.5 35.0376 36.0376 37.5 33 37.5C29.9624 37.5 27.5 35.0376 27.5 32C27.5 28.9624 29.9624 26.5 33 26.5C36.0376 26.5 38.5 28.9624 38.5 32ZM43.5 32C43.5 34.2521 42.791 36.3386 41.584 38.0484L45.2678 41.7322C46.2441 42.7085 46.2441 44.2915 45.2678 45.2678C44.2915 46.2441 42.7085 46.2441 41.7322 45.2678L37.8037 41.3392C36.3642 42.0811 34.731 42.5 33 42.5C27.201 42.5 22.5 37.799 22.5 32C22.5 26.201 27.201 21.5 33 21.5C38.799 21.5 43.5 26.201 43.5 32Z" fill="#081E40"/>
</svg>
