<svg width="48" height="48" viewBox="0 0 48 48" fill="none" xmlns="http://www.w3.org/2000/svg">
<path fill-rule="evenodd" clip-rule="evenodd" d="M6 1.5C3.79086 1.5 2 3.29086 2 5.5V11.5C2 13.7091 3.79086 15.5 6 15.5H42C44.2091 15.5 46 13.7091 46 11.5V5.5C46 3.29086 44.2091 1.5 42 1.5H6ZM7 7.5C7 6.94772 7.44772 6.5 8 6.5H40C40.5523 6.5 41 6.94772 41 7.5V9.5C41 10.0523 40.5523 10.5 40 10.5H8C7.44772 10.5 7 10.0523 7 9.5V7.5ZM10 10C10.8284 10 11.5 9.32843 11.5 8.5C11.5 7.67157 10.8284 7 10 7C9.17157 7 8.5 7.67157 8.5 8.5C8.5 9.32843 9.17157 10 10 10ZM10 25.5C10.8284 25.5 11.5 24.8284 11.5 24C11.5 23.1716 10.8284 22.5 10 22.5C9.17157 22.5 8.5 23.1716 8.5 24C8.5 24.8284 9.17157 25.5 10 25.5ZM11.5 40C11.5 40.8284 10.8284 41.5 10 41.5C9.17157 41.5 8.5 40.8284 8.5 40C8.5 39.1716 9.17157 38.5 10 38.5C10.8284 38.5 11.5 39.1716 11.5 40ZM2 21C2 18.7909 3.79086 17 6 17H42C44.2091 17 46 18.7909 46 21V27C46 29.2091 44.2091 31 42 31H6C3.79086 31 2 29.2091 2 27V21ZM8 22C7.44772 22 7 22.4477 7 23V25C7 25.5523 7.44772 26 8 26H40C40.5523 26 41 25.5523 41 25V23C41 22.4477 40.5523 22 40 22H8ZM6 33C3.79086 33 2 34.7909 2 37V43C2 45.2091 3.79086 47 6 47H42C44.2091 47 46 45.2091 46 43V37C46 34.7909 44.2091 33 42 33H6ZM7 39C7 38.4477 7.44772 38 8 38H40C40.5523 38 41 38.4477 41 39V41C41 41.5523 40.5523 42 40 42H8C7.44772 42 7 41.5523 7 41V39Z" fill="#081E40"/>
</svg>
