<svg width="48" height="48" viewBox="0 0 48 48" fill="none" xmlns="http://www.w3.org/2000/svg">
<path fill-rule="evenodd" clip-rule="evenodd" d="M7 7.5C7 7.22386 7.22386 7 7.5 7H40.5C40.7761 7 41 7.22386 41 7.5V14.5H7V7.5ZM7 19.5H41V27.5H7V19.5ZM7 32.5V40.5C7 40.7761 7.22386 41 7.5 41H40.5C40.7761 41 41 40.7761 41 40.5V32.5H7ZM2 6C2 3.79086 3.79086 2 6 2H42C44.2091 2 46 3.79086 46 6V42C46 44.2091 44.2091 46 42 46H6C3.79086 46 2 44.2091 2 42V6ZM11 9C9.89543 9 9 9.89543 9 11C9 12.1046 9.89543 13 11 13H19C20.1046 13 21 12.1046 21 11C21 9.89543 20.1046 9 19 9H11ZM9 24C9 22.8954 9.89543 22 11 22H19C20.1046 22 21 22.8954 21 24C21 25.1046 20.1046 26 19 26H11C9.89543 26 9 25.1046 9 24ZM11 35C9.89543 35 9 35.8954 9 37C9 38.1046 9.89543 39 11 39H19C20.1046 39 21 38.1046 21 37C21 35.8954 20.1046 35 19 35H11Z" fill="#081E40"/>
</svg>
