<svg width="48" height="48" viewBox="0 0 48 48" fill="none" xmlns="http://www.w3.org/2000/svg">
<g clip-path="url(#clip0_8345_2707)">
<path fill-rule="evenodd" clip-rule="evenodd" d="M24.4784 7.72615L7.07239 15.1329L24 23.2288L41.0317 15.0832L24.4784 7.72615ZM23.1209 2.86991C24.0144 2.48973 25.0256 2.49777 25.9129 2.89211L46.0342 11.8349C48.7635 13.0479 48.8172 16.9021 46.1228 18.1907L25.5101 28.049C24.5552 28.5057 23.4449 28.5057 22.4899 28.049L1.91889 18.2106C-0.799161 16.9107 -0.713795 13.0123 2.05854 11.8326L23.1209 2.86991ZM47.8031 24.5275C48.3402 25.7995 47.7444 27.266 46.4724 27.803L24.788 36.9587C23.6193 37.4521 22.2966 37.4294 21.1456 36.8959L1.44884 27.7682C0.196103 27.1877 -0.348822 25.7015 0.231714 24.4488C0.812249 23.196 2.29841 22.6511 3.55114 23.2316L23.0471 32.2663L44.5276 23.1968C45.7995 22.6597 47.2661 23.2555 47.8031 24.5275ZM46.4724 36.803C47.7444 36.266 48.3402 34.7995 47.8031 33.5275C47.2661 32.2555 45.7995 31.6597 44.5276 32.1968L23.0471 41.2663L3.55114 32.2316C2.29841 31.6511 0.812249 32.196 0.231714 33.4488C-0.348822 34.7015 0.196103 36.1877 1.44884 36.7682L21.1456 45.8959C22.2966 46.4294 23.6193 46.4521 24.788 45.9587L46.4724 36.803Z" fill="#081E40"/>
</g>
<defs>
<clipPath id="clip0_8345_2707">
<rect width="48" height="48" fill="white"/>
</clipPath>
</defs>
</svg>
