<svg width="48" height="48" viewBox="0 0 48 48" fill="none" xmlns="http://www.w3.org/2000/svg">
<path fill-rule="evenodd" clip-rule="evenodd" d="M38.5 5.5L35.2003 1.46705C34.4406 0.538507 33.3042 0 32.1045 0H8C5.79086 0 4 1.79086 4 4V44C4 46.2091 5.79086 48 8 48H40C42.2091 48 44 46.2091 44 44V13.4652C44 12.5191 43.6647 11.6037 43.0535 10.8815L38.5 5.5ZM37.4502 12L34.6564 8.69817L32 5.45148V11C32 11.5523 32.4477 12 33 12H37.4502ZM11 5H27V14C27 15.6569 28.3431 17 30 17H39V41C39 42.1046 38.1046 43 37 43H11C9.89543 43 9 42.1046 9 41V7C9 5.89543 9.89543 5 11 5ZM15 15.5C13.6193 15.5 12.5 16.6193 12.5 18C12.5 19.3807 13.6193 20.5 15 20.5H21C22.3807 20.5 23.5 19.3807 23.5 18C23.5 16.6193 22.3807 15.5 21 15.5L15 15.5ZM15 24.5C13.6193 24.5 12.5 25.6193 12.5 27C12.5 28.3807 13.6193 29.5 15 29.5L33 29.5C34.3807 29.5 35.5 28.3807 35.5 27C35.5 25.6193 34.3807 24.5 33 24.5L15 24.5ZM12.5 36C12.5 34.6193 13.6193 33.5 15 33.5H33C34.3807 33.5 35.5 34.6193 35.5 36C35.5 37.3807 34.3807 38.5 33 38.5H15C13.6193 38.5 12.5 37.3807 12.5 36Z" fill="#081E40"/>
</svg>
