<svg width="48" height="48" viewBox="0 0 48 48" fill="none" xmlns="http://www.w3.org/2000/svg">
<g clip-path="url(#clip0_2221_410)">
<path fill-rule="evenodd" clip-rule="evenodd" d="M0 8C0 5.79086 1.79086 4 4 4H21.0721C22.5707 4 23.9436 4.83772 24.6291 6.17041L25.0558 7H39.2709C40.4984 7 41.6579 7.56355 42.4162 8.52871L47.4658 14.9554C47.9242 15.5388 48.0818 16.2625 47.9611 16.9397C47.9867 17.1228 48 17.3098 48 17.5V40C48 42.2091 46.2091 44 44 44H4C1.79086 44 0 42.2091 0 40V8ZM39.9635 13.5L39.0852 12.3822C38.8956 12.1409 38.6057 12 38.2989 12H27.6276L28.12 12.9574C28.2914 13.2906 28.6346 13.5 29.0093 13.5H39.9635ZM7 9C5.89543 9 5 9.89543 5 11V37C5 38.1046 5.89543 39 7 39H41C42.1046 39 43 38.1046 43 37V20.5C43 19.3954 42.1046 18.5 41 18.5H27.9052C26.4066 18.5 25.0336 17.6623 24.3482 16.3296L21.1363 10.0852C20.7936 9.41886 20.1071 9 19.3578 9H7ZM7 34C7 32.6193 8.11929 31.5 9.5 31.5H24.5C25.8807 31.5 27 32.6193 27 34C27 35.3807 25.8807 36.5 24.5 36.5H9.5C8.11929 36.5 7 35.3807 7 34Z" fill="#081E40"/>
</g>
<defs>
<clipPath id="clip0_2221_410">
<rect width="48" height="48" fill="white"/>
</clipPath>
</defs>
</svg>
