<svg width="48" height="48" viewBox="0 0 48 48" fill="none" xmlns="http://www.w3.org/2000/svg">
<path d="M42.2061 2.00488C44.2512 2.10865 45.8913 3.7488 45.9951 5.79395L46 6V42L45.9951 42.2061C45.8879 44.3194 44.14 46 42 46H6C3.85996 46 2.11211 44.3194 2.00488 42.2061L2 42L2 6L2.00488 5.79395C2.11212 3.68056 3.85997 2 6 2L42 2L42.2061 2.00488ZM9 7C7.89543 7 7 7.89543 7 9L7 39C7 40.1046 7.89543 41 9 41H21.5L21.5 7L9 7ZM26.5 41H39C40.1046 41 41 40.1046 41 39V9C41 7.89543 40.1046 7 39 7H26.5L26.5 41ZM12 27.5C13.3807 27.5 14.5 28.6193 14.5 30C14.5 31.3807 13.3807 32.5 12 32.5H11C9.61929 32.5 8.5 31.3807 8.5 30C8.5 28.6193 9.61929 27.5 11 27.5H12ZM13 19.5C14.3807 19.5 15.5 20.6193 15.5 22C15.5 23.3807 14.3807 24.5 13 24.5H11C9.61929 24.5 8.5 23.3807 8.5 22C8.5 20.6193 9.61929 19.5 11 19.5H13ZM17 11.5C18.3807 11.5 19.5 12.6193 19.5 14C19.5 15.3807 18.3807 16.5 17 16.5H11C9.61929 16.5 8.5 15.3807 8.5 14C8.5 12.6193 9.61929 11.5 11 11.5H17Z" fill="#081E40"/>
</svg>
