<svg width="48" height="48" viewBox="0 0 48 48" fill="none" xmlns="http://www.w3.org/2000/svg">
<rect width="48" height="48" fill="white"/>
<path d="M42.0005 23.6837C42.0005 14.5868 34.106 7.00018 24.0981 7.00006C14.0902 7.00006 6.19581 14.5867 6.1958 23.6837C6.1958 27.283 7.41782 30.6209 9.51318 33.3585L9.96367 33.9474C10.0583 34.0711 10.0899 34.2318 10.0491 34.3821L8.97517 38.3413C8.87508 38.7103 9.20933 39.0506 9.58004 38.957L14.2251 37.7851C14.3469 37.7544 14.4758 37.7707 14.5862 37.8306L15.1011 38.1104C17.7386 39.5427 20.8101 40.3672 24.0981 40.3672C25.2026 40.3674 26.0981 41.2628 26.0981 42.3672C26.0981 43.4717 25.2026 44.3671 24.0981 44.3672C20.4232 44.3672 16.9511 43.5105 13.8999 41.9922L6.41569 43.8819C4.93281 44.2563 3.59552 42.8954 3.99579 41.4193L5.62213 35.4218C5.6992 35.1376 5.64592 34.8347 5.48406 34.5887C3.40466 31.4289 2.1958 27.6915 2.1958 23.6837C2.19581 12.1433 12.1229 3.00006 24.0981 3.00006C36.0733 3.00019 46.0005 12.1433 46.0005 23.6837C46.0005 24.7881 45.1048 25.6834 44.0005 25.6837C42.8959 25.6837 42.0005 24.7882 42.0005 23.6837Z" fill="#081E40"/>
<path d="M40.7504 32.2438L40.9555 32.2545C41.9638 32.3571 42.7504 33.2084 42.7504 34.2438C42.7504 35.2792 41.9638 36.1304 40.9555 36.233L40.7504 36.2438H27.7534C26.6488 36.2438 25.7534 35.3483 25.7534 34.2438C25.7534 33.1392 26.6488 32.2438 27.7534 32.2438H40.7504Z" fill="#081E40"/>
<path d="M36.2512 40.7422L36.2405 40.9473C36.1379 41.9556 35.2866 42.7422 34.2512 42.7422C33.2158 42.7422 32.3646 41.9556 32.262 40.9473L32.2512 40.7422L32.2512 27.7452C32.2512 26.6406 33.1467 25.7452 34.2512 25.7452C35.3558 25.7452 36.2512 26.6406 36.2512 27.7452L36.2512 40.7422Z" fill="#081E40"/>
</svg>
