<svg width="48" height="48" viewBox="0 0 48 48" fill="none" xmlns="http://www.w3.org/2000/svg">
<path fill-rule="evenodd" clip-rule="evenodd" d="M8 1.5C4.41015 1.5 1.5 4.41015 1.5 8V40C1.5 43.5898 4.41015 46.5 8 46.5H40C43.5898 46.5 46.5 43.5899 46.5 40V28.5C46.5 27.1193 45.3807 26 44 26C42.6193 26 41.5 27.1193 41.5 28.5V40C41.5 40.8284 40.8284 41.5 40 41.5H8C7.17157 41.5 6.5 40.8284 6.5 40V8C6.5 7.17157 7.17157 6.5 8 6.5H18.5C19.8807 6.5 21 5.38071 21 4C21 2.61929 19.8807 1.5 18.5 1.5H8ZM46.5 5C46.5 3.067 44.933 1.5 43 1.5H29.5C28.1193 1.5 27 2.61929 27 4C27 5.38071 28.1193 6.5 29.5 6.5H37.9645L17.2322 27.2322C16.2559 28.2085 16.2559 29.7915 17.2322 30.7678C18.2085 31.7441 19.7915 31.7441 20.7678 30.7678L41.5 10.0355V17.5C41.5 18.8807 42.6193 20 44 20C45.3807 20 46.5 18.8807 46.5 17.5V5Z" fill="#081E40"/>
</svg>
