<svg width="48" height="48" viewBox="0 0 48 48" fill="none" xmlns="http://www.w3.org/2000/svg">
<g clip-path="url(#clip0_3567_98)">
<path fill-rule="evenodd" clip-rule="evenodd" d="M2 0C0.895429 0 0 0.895432 0 2L6.48797e-05 44C6.82922e-05 46.2091 1.79093 48 4.00007 48H41.7595C45.206 48 48 45.2061 48 41.7595V25.5C48 24.3954 47.1046 23.5 46 23.5H40.5001V2C40.5001 0.89543 39.6046 0 38.5001 0H2ZM43 41.7595C43 42.4446 42.4446 43 41.7594 43C41.0639 43 40.5001 42.4362 40.5001 41.7407V28.5H43V41.7595ZM7.00006 43H35.6268C35.5437 42.5932 35.5001 42.172 35.5001 41.7407V6C35.5001 5.44772 35.0524 5 34.5001 5H6.00001C5.44772 5 5.00001 5.44772 5.00001 6L5.00006 41C5.00006 42.1046 5.89549 43 7.00006 43ZM17.7285 13.5596C18.524 14.5143 18.3951 15.933 17.4404 16.7286L12.4764 20.8652C11.7208 21.495 10.6194 21.4817 9.87906 20.8339L6.5184 17.8934C5.58321 17.0751 5.48845 15.6536 6.30673 14.7184C7.12502 13.7832 8.54648 13.6885 9.48167 14.5068L11.2357 16.0415L14.5596 13.2716C15.5142 12.476 16.933 12.605 17.7285 13.5596ZM31.5 20H22.5C21.1193 20 20 18.8807 20 17.5C20 16.1193 21.1193 15 22.5 15H31.5C32.8807 15 34 16.1193 34 17.5C34 18.8807 32.8807 20 31.5 20ZM20 31C20 29.6193 21.1193 28.5 22.5 28.5H31.5C32.8807 28.5 34 29.6193 34 31C34 32.3807 32.8807 33.5 31.5 33.5H22.5C21.1193 33.5 20 32.3807 20 31ZM14 31C14 32.1046 13.1046 33 12 33C10.8954 33 10 32.1046 10 31C10 29.8954 10.8954 29 12 29C13.1046 29 14 29.8954 14 31ZM18 31C18 34.3137 15.3137 37 12 37C8.68629 37 6 34.3137 6 31C6 27.6863 8.68629 25 12 25C15.3137 25 18 27.6863 18 31Z" fill="#081E40"/>
</g>
<defs>
<clipPath id="clip0_3567_98">
<rect width="48" height="48" fill="white"/>
</clipPath>
</defs>
</svg>
