<svg width="48" height="48" viewBox="0 0 48 48" fill="none" xmlns="http://www.w3.org/2000/svg">
<g clip-path="url(#clip0_2211_6351)">
<path fill-rule="evenodd" clip-rule="evenodd" d="M8 0C5.79086 0 4 1.79086 4 4V44C4 46.2091 5.79086 48 8 48L17 48C18.3807 48 19.5 46.8807 19.5 45.5C19.5 44.1193 18.3807 43 17 43L11 43C9.89543 43 9 42.1046 9 41V7C9 5.89543 9.89543 5 11 5H36C37.1046 5 38 5.89543 38 7V19.5C38 20.8807 39.1193 22 40.5 22C41.8807 22 43 20.8807 43 19.5V4C43 1.79086 41.2091 0 39 0H8ZM32 43.5C36.1421 43.5 39.5 40.1421 39.5 36C39.5 31.8579 36.1421 28.5 32 28.5C27.8579 28.5 24.5 31.8579 24.5 36C24.5 40.1421 27.8579 43.5 32 43.5ZM32 48C38.6274 48 44 42.6274 44 36C44 29.3726 38.6274 24 32 24C25.3726 24 20 29.3726 20 36C20 42.6274 25.3726 48 32 48ZM34 32C34 30.8954 33.1046 30 32 30C30.8954 30 30 30.8954 30 32V36.5C30 37.6046 30.8954 38.5 32 38.5H36C37.1046 38.5 38 37.6046 38 36.5C38 35.3954 37.1046 34.5 36 34.5H34V32ZM11.5 12.5C11.5 11.1193 12.6193 10 14 10H32C33.3807 10 34.5 11.1193 34.5 12.5C34.5 13.8807 33.3807 15 32 15H14C12.6193 15 11.5 13.8807 11.5 12.5ZM14 19C12.6193 19 11.5 20.1193 11.5 21.5C11.5 22.8807 12.6193 24 14 24H23C24.3807 24 25.5 22.8807 25.5 21.5C25.5 20.1193 24.3807 19 23 19H14Z" fill="#081E40"/>
</g>
<defs>
<clipPath id="clip0_2211_6351">
<rect width="48" height="48" fill="white"/>
</clipPath>
</defs>
</svg>
