<svg width="48" height="48" viewBox="0 0 48 48" fill="none" xmlns="http://www.w3.org/2000/svg">
<path fill-rule="evenodd" clip-rule="evenodd" d="M7 6C6.44772 6 6 6.44772 6 7V9C6 9.55228 6.44772 10 7 10H41C41.5523 10 42 9.55228 42 9V7C42 6.44772 41.5523 6 41 6H7ZM4 2C2.89543 2 2 2.89543 2 4V12C2 13.1046 2.89543 14 4 14H44C45.1046 14 46 13.1046 46 12V4C46 2.89543 45.1046 2 44 2H4ZM7 21C6.44772 21 6 21.4477 6 22V25C6 25.5523 6.44772 26 7 26H10C10.5523 26 11 25.5523 11 25V22C11 21.4477 10.5523 21 10 21H7ZM4 17C2.89543 17 2 17.8954 2 19V28C2 29.1046 2.89543 30 4 30H13C14.1046 30 15 29.1046 15 28V19C15 17.8954 14.1046 17 13 17H4ZM37 22C37 21.4477 37.4477 21 38 21H41C41.5523 21 42 21.4477 42 22V25C42 25.5523 41.5523 26 41 26H38C37.4477 26 37 25.5523 37 25V22ZM33 19C33 17.8954 33.8954 17 35 17H44C45.1046 17 46 17.8954 46 19V28C46 29.1046 45.1046 30 44 30H35C33.8954 30 33 29.1046 33 28V19ZM22.5 21C21.9477 21 21.5 21.4477 21.5 22V25C21.5 25.5523 21.9477 26 22.5 26H25.5C26.0523 26 26.5 25.5523 26.5 25V22C26.5 21.4477 26.0523 21 25.5 21H22.5ZM19.5 17C18.3954 17 17.5 17.8954 17.5 19V28C17.5 29.1046 18.3954 30 19.5 30H28.5C29.6046 30 30.5 29.1046 30.5 28V19C30.5 17.8954 29.6046 17 28.5 17H19.5ZM6 38C6 37.4477 6.44772 37 7 37H10C10.5523 37 11 37.4477 11 38V41C11 41.5523 10.5523 42 10 42H7C6.44772 42 6 41.5523 6 41V38ZM2 35C2 33.8954 2.89543 33 4 33H13C14.1046 33 15 33.8954 15 35V44C15 45.1046 14.1046 46 13 46H4C2.89543 46 2 45.1046 2 44V35ZM38 37C37.4477 37 37 37.4477 37 38V41C37 41.5523 37.4477 42 38 42H41C41.5523 42 42 41.5523 42 41V38C42 37.4477 41.5523 37 41 37H38ZM35 33C33.8954 33 33 33.8954 33 35V44C33 45.1046 33.8954 46 35 46H44C45.1046 46 46 45.1046 46 44V35C46 33.8954 45.1046 33 44 33H35ZM21.5 38C21.5 37.4477 21.9477 37 22.5 37H25.5C26.0523 37 26.5 37.4477 26.5 38V41C26.5 41.5523 26.0523 42 25.5 42H22.5C21.9477 42 21.5 41.5523 21.5 41V38ZM17.5 35C17.5 33.8954 18.3954 33 19.5 33H28.5C29.6046 33 30.5 33.8954 30.5 35V44C30.5 45.1046 29.6046 46 28.5 46H19.5C18.3954 46 17.5 45.1046 17.5 44V35Z" fill="#081E40"/>
</svg>
