<svg width="48" height="48" viewBox="0 0 48 48" fill="none" xmlns="http://www.w3.org/2000/svg">
<path fill-rule="evenodd" clip-rule="evenodd" d="M16 1.5C17.3807 1.5 18.5 2.61929 18.5 4V7.5H29.5V4C29.5 2.61929 30.6193 1.5 32 1.5C33.3807 1.5 34.5 2.61929 34.5 4V7.5H42C44.2091 7.5 46 9.29086 46 11.5V42.5C46 44.7091 44.2091 46.5 42 46.5H6C3.79086 46.5 2 44.7091 2 42.5V11.5C2 9.29086 3.79086 7.5 6 7.5H13.5V4C13.5 2.61929 14.6193 1.5 16 1.5ZM29.5 12.5H18.5V17.5H29.5V12.5ZM34.5 17.5V12.5H39C40.1046 12.5 41 13.3954 41 14.5V17.5H34.5ZM9 12.5H13.5L13.5 17.5H7V14.5C7 13.3954 7.89543 12.5 9 12.5ZM41 22.5H7V39.5C7 40.6046 7.89543 41.5 9 41.5H39C40.1046 41.5 41 40.6046 41 39.5V22.5ZM12.5 32C12.5 30.6193 13.6193 29.5 15 29.5H33C34.3807 29.5 35.5 30.6193 35.5 32C35.5 33.3807 34.3807 34.5 33 34.5H15C13.6193 34.5 12.5 33.3807 12.5 32Z" fill="#081E40"/>
</svg>
