<svg width="49" height="49" viewBox="0 0 49 49" fill="none" xmlns="http://www.w3.org/2000/svg">
<path fill-rule="evenodd" clip-rule="evenodd" d="M41.6737 31.3799C40.1807 34.9723 37.6178 38.047 34.3019 40.1647C30.1958 42.7872 25.2442 43.745 20.4564 42.8429C15.6685 41.9408 11.4049 39.2467 8.53467 35.3098C5.66444 31.373 4.40365 26.4897 5.0093 21.6554C5.61496 16.8211 8.04146 12.3997 11.7942 9.29259C15.5469 6.18545 20.3433 4.62645 25.2058 4.93337C30.0682 5.24029 34.6305 7.39002 37.9627 10.9444C40.6537 13.8147 42.3789 17.4265 42.9395 21.2762C42.9571 21.3966 42.9735 21.5172 42.9887 21.638C43.0096 21.8036 43.0445 21.9655 43.0921 22.1221C43.4273 23.2249 44.3943 24.064 45.5697 24.0657C46.9119 24.0676 48.0144 22.9782 47.8806 21.6426C47.8601 21.4377 47.837 21.2333 47.8112 21.0293C47.7798 20.7803 47.7445 20.532 47.7054 20.2845C46.959 15.5663 44.8153 11.1467 41.5088 7.61986C37.3303 3.16282 31.6093 0.467117 25.512 0.0822491C19.4146 -0.302618 13.4001 1.65232 8.69427 5.54858C3.98846 9.44483 0.945705 14.9891 0.186234 21.0511C-0.573237 27.1132 1.00776 33.2367 4.60694 38.1734C8.20613 43.1101 13.5525 46.4884 19.5564 47.6196C25.5602 48.7508 31.7694 47.5498 36.9183 44.2613C40.9926 41.6591 44.1603 37.9049 46.0476 33.5167C46.1466 33.2865 46.2421 33.0546 46.334 32.821C46.4092 32.6297 46.4821 32.4373 46.5525 32.2438C47.0116 30.9825 46.2119 29.6548 44.9107 29.3255C43.7713 29.0372 42.6271 29.6118 42.0302 30.5978C41.9454 30.7378 41.8717 30.8862 41.8106 31.0415C41.766 31.1548 41.7204 31.2676 41.6737 31.3799Z" fill="#081E40"/>
<path fill-rule="evenodd" clip-rule="evenodd" d="M21.5334 14.0471C21.5334 12.9425 22.4288 12.0471 23.5334 12.0471C24.638 12.0471 25.5334 12.9425 25.5334 14.0471V23.575C25.5334 24.3325 25.9614 25.025 26.639 25.3638L32.639 28.3638C33.6269 28.8578 34.0274 30.0591 33.5334 31.0471C33.0394 32.0351 31.8381 32.4355 30.8501 31.9415L22.639 27.836C21.9614 27.4972 21.5334 26.8046 21.5334 26.0471V14.0471Z" fill="#081E40"/>
</svg>
