<svg width="48" height="48" viewBox="0 0 48 48" fill="none" xmlns="http://www.w3.org/2000/svg">
<path d="M10.083 42L10.083 6C10.083 4.38917 11.3892 3.08301 13 3.08301C14.6108 3.08301 15.917 4.38917 15.917 6L15.917 42C15.917 43.6108 14.6108 44.917 13 44.917C11.3892 44.917 10.083 43.6108 10.083 42Z" fill="#081E40"/>
<path d="M32.083 42L32.083 6C32.083 4.38917 33.3892 3.08301 35 3.08301C36.6108 3.08301 37.917 4.38917 37.917 6L37.917 42C37.917 43.6108 36.6108 44.917 35 44.917C33.3892 44.917 32.083 43.6108 32.083 42Z" fill="#081E40"/>
</svg>
