<svg width="48" height="48" viewBox="0 0 48 48" fill="none" xmlns="http://www.w3.org/2000/svg">
<g clip-path="url(#clip0_12044_263)">
<path d="M24 0C37.2548 0 48 10.7452 48 24C48 37.2548 37.2548 48 24 48C10.7452 48 0 37.2548 0 24C0 10.7452 10.7452 0 24 0ZM15.8184 14C14.8142 14 14 14.8142 14 15.8184V32.1816C14 33.1858 14.8142 34 15.8184 34H32.1816C33.1858 34 34 33.1858 34 32.1816V15.8184C34 14.8142 33.1858 14 32.1816 14H15.8184Z" fill="#081E40"/>
</g>
<defs>
<clipPath id="clip0_12044_263">
<rect width="48" height="48" fill="white"/>
</clipPath>
</defs>
</svg>
