<svg width="48" height="48" viewBox="0 0 48 48" fill="none" xmlns="http://www.w3.org/2000/svg">
<path fill-rule="evenodd" clip-rule="evenodd" d="M40 42C40 42.5523 39.5523 43 39 43H9C8.44772 43 8 42.5523 8 42V6C8 5.44772 8.44772 5 9 5H26.5V15C26.5 16.933 28.067 18.5 30 18.5H40V42ZM31.5 5.57107V12.5C31.5 13.0523 31.9477 13.5 32.5 13.5H39.4289L31.5 5.57107ZM3 4C3 1.79086 4.79086 0 7 0H31.3431C32.404 0 33.4214 0.421427 34.1716 1.17157L43.8284 10.8284C44.5786 11.5786 45 12.596 45 13.6569V44C45 46.2091 43.2091 48 41 48H7C4.79086 48 3 46.2091 3 44V4Z" fill="#081E40"/>
</svg>
