<svg width="48" height="48" viewBox="0 0 48 48" fill="none" xmlns="http://www.w3.org/2000/svg">
<path fill-rule="evenodd" clip-rule="evenodd" d="M2 4.5C2 3.11929 3.11929 2 4.5 2L43.5 2C44.8807 2 46 3.11929 46 4.5C46 5.88071 44.8807 7 43.5 7L4.5 7C3.11929 7 2 5.88072 2 4.5ZM2 24.5C2 23.1193 3.11929 22 4.5 22L43.5 22C44.8807 22 46 23.1193 46 24.5C46 25.8807 44.8807 27 43.5 27L4.5 27C3.11929 27 2 25.8807 2 24.5ZM4.5 41C3.11929 41 2 42.1193 2 43.5C2 44.8807 3.11929 46 4.5 46L43.5 46C44.8807 46 46 44.8807 46 43.5C46 42.1193 44.8807 41 43.5 41L4.5 41Z" fill="#081E40"/>
</svg>
