<svg width="48" height="48" viewBox="0 0 48 48" fill="none" xmlns="http://www.w3.org/2000/svg">
<path d="M24 10C21.7909 10 20 8.20914 20 6C20 3.79086 21.7909 2 24 2C26.2091 2 28 3.79086 28 6C28 8.20914 26.2091 10 24 10Z" fill="#081E40"/>
<path d="M24 46C21.7909 46 20 44.2091 20 42C20 39.7909 21.7909 38 24 38C26.2091 38 28 39.7909 28 42C28 44.2091 26.2091 46 24 46Z" fill="#081E40"/>
<path d="M24 28C21.7909 28 20 26.2091 20 24C20 21.7909 21.7909 20 24 20C26.2091 20 28 21.7909 28 24C28 26.2091 26.2091 28 24 28Z" fill="#081E40"/>
</svg>
