<svg width="48" height="48" viewBox="0 0 48 48" fill="none" xmlns="http://www.w3.org/2000/svg">
<path d="M10 24C10 26.2091 8.20914 28 6 28C3.79086 28 2 26.2091 2 24C2 21.7909 3.79086 20 6 20C8.20914 20 10 21.7909 10 24Z" fill="#081E40"/>
<path d="M46 24C46 26.2091 44.2091 28 42 28C39.7909 28 38 26.2091 38 24C38 21.7909 39.7909 20 42 20C44.2091 20 46 21.7909 46 24Z" fill="#081E40"/>
<path d="M28 24C28 26.2091 26.2091 28 24 28C21.7909 28 20 26.2091 20 24C20 21.7909 21.7909 20 24 20C26.2091 20 28 21.7909 28 24Z" fill="#081E40"/>
</svg>
