<svg width="48" height="48" viewBox="0 0 48 48" fill="none" xmlns="http://www.w3.org/2000/svg">
<path fill-rule="evenodd" clip-rule="evenodd" d="M36 9.5C36 8.11929 37.1193 7 38.5 7C39.8807 7 41 8.11929 41 9.5C41 10.8807 39.8807 12 38.5 12C37.1193 12 36 10.8807 36 9.5ZM38.5 17C42.6421 17 46 13.6421 46 9.5C46 5.35786 42.6421 2 38.5 2C34.3579 2 31 5.35786 31 9.5C31 13.6421 34.3579 17 38.5 17ZM4.5 7.5C3.11929 7.5 2 8.61929 2 10C2 11.3807 3.11929 12.5 4.5 12.5L24.5 12.5C25.8807 12.5 27 11.3807 27 10C27 8.61929 25.8807 7.5 24.5 7.5L4.5 7.5ZM2 27C2 25.6193 3.11929 24.5 4.5 24.5L43.5 24.5C44.8807 24.5 46 25.6193 46 27C46 28.3807 44.8807 29.5 43.5 29.5L4.5 29.5C3.11929 29.5 2 28.3807 2 27ZM4.5 41C3.11929 41 2 42.1193 2 43.5C2 44.8807 3.11929 46 4.5 46L43.5 46C44.8807 46 46 44.8807 46 43.5C46 42.1193 44.8807 41 43.5 41L4.5 41Z" fill="#081E40"/>
</svg>
