<svg width="48" height="48" viewBox="0 0 48 48" fill="none" xmlns="http://www.w3.org/2000/svg">
<path d="M18.9999 7.45018C17.0845 7.88676 15.2459 8.63568 13.5604 9.67381L12.9999 10.0332C10.2247 11.8875 8.02345 14.4747 6.63658 17.5009L6.36998 18.1113C5.0076 21.4003 4.65103 25.02 5.34556 28.5116L5.48814 29.163C6.25801 32.4015 7.91238 35.3675 10.2723 37.7274L10.7518 38.1903C13.1912 40.4555 16.2147 42.003 19.4882 42.6542L20.1444 42.7723C23.4311 43.3004 26.8052 42.907 29.8886 41.6298C33.1776 40.2674 35.989 37.9599 37.9668 34.9999L38.3261 34.4394C39.3642 32.7539 40.1122 30.9153 40.5488 28.9999H20.9999C19.8953 28.9999 18.9999 28.1045 18.9999 26.9999V7.45018ZM43 24.9999C44.1046 24.9999 45.0094 25.8972 44.9091 26.9972C44.5767 30.6435 43.3379 34.1607 41.292 37.2226L41.0625 37.5595C38.6594 41.0155 35.3132 43.712 31.4189 45.3251L31.041 45.4774C27.249 46.9664 23.1179 47.3738 19.1083 46.6532L18.7079 46.577C14.5736 45.7547 10.7655 43.7627 7.73424 40.8417L7.44323 40.5565C4.46269 37.576 2.40331 33.8039 1.50571 29.6913L1.4227 29.2919C0.600339 25.1577 0.983665 20.8772 2.52231 16.9589L2.67466 16.581C4.28772 12.6868 6.98425 9.34058 10.4403 6.93749L10.7772 6.708C13.8391 4.66213 17.3563 3.42331 21.0026 3.09086C22.1026 2.99056 22.9999 3.89543 22.9999 5V24.9999H43Z" fill="#081E40"/>
<path d="M28 21.4144C27.4477 21.4144 27 20.9667 27 20.4144V5C27 4.44772 27.4477 4 28 4H30.8128C31.2324 4 31.6074 4.26194 31.7517 4.65592L34.2696 11.5268C34.6203 12.5319 34.9008 13.6305 35.228 14.6824H35.3449C35.6955 13.6305 35.976 12.5319 36.3033 11.5268L38.7321 4.66626C38.8735 4.26692 39.2512 4 39.6748 4H42.5028C43.055 4 43.5028 4.44772 43.5028 5V20.4144C43.5028 20.9667 43.055 21.4144 42.5028 21.4144H40.6926C40.1403 21.4144 39.6926 20.9667 39.6926 20.4144V15.4538C39.6926 13.724 40.0199 11.1294 40.2536 9.423H40.1368L38.6875 13.5838L36.5908 19.2868C36.4461 19.6803 36.0714 19.9418 35.6522 19.9418H34.7546C34.3366 19.9418 33.9627 19.6817 33.8172 19.2899L31.6984 13.5838L30.2959 9.423H30.2024C30.4128 11.1294 30.74 13.724 30.74 15.4538V20.4144C30.74 20.9667 30.2923 21.4144 29.74 21.4144H28Z" fill="#081E40"/>
</svg>
