<svg width="48" height="48" viewBox="0 0 48 48" fill="none" xmlns="http://www.w3.org/2000/svg">
<rect width="48" height="48" fill="white"/>
<path d="M33.5 21C40.4036 21 46 26.5964 46 33.5C46 40.4036 40.4036 46 33.5 46C26.5964 46 21 40.4036 21 33.5C21 26.5964 26.5964 21 33.5 21ZM17 38.5C18.3807 38.5 19.5 39.6193 19.5 41C19.5 42.3807 18.3807 43.5 17 43.5H4C2.61929 43.5 1.5 42.3807 1.5 41C1.5 39.6193 2.61929 38.5 4 38.5H17ZM33.5 25.5C29.0817 25.5 25.5 29.0817 25.5 33.5C25.5 37.9183 29.0817 41.5 33.5 41.5C37.9183 41.5 41.5 37.9183 41.5 33.5C41.5 29.0817 37.9183 25.5 33.5 25.5ZM33.1211 27.333C34.2255 27.333 35.1209 28.2286 35.1211 29.333V31.8789H38.4248C39.5292 31.8791 40.4248 32.7745 40.4248 33.8789C40.4247 34.9833 39.5292 35.8787 38.4248 35.8789L33.1211 35.8779V35.8789C32.0167 35.8788 31.1213 34.9832 31.1211 33.8789V29.333C31.1213 28.2287 32.0167 27.3331 33.1211 27.333ZM17 26.5C18.3807 26.5 19.5 27.6193 19.5 29C19.5 30.3807 18.3807 31.5 17 31.5H4C2.61929 31.5 1.5 30.3807 1.5 29C1.5 27.6193 2.61929 26.5 4 26.5H17ZM44 14.5C45.3807 14.5 46.5 15.6193 46.5 17C46.5 18.3807 45.3807 19.5 44 19.5L4 19.5C2.61929 19.5 1.5 18.3807 1.5 17C1.5 15.6193 2.61929 14.5 4 14.5L44 14.5ZM44 2.5C45.3807 2.5 46.5 3.61929 46.5 5C46.5 6.38071 45.3807 7.5 44 7.5L4 7.5C2.61929 7.5 1.5 6.38071 1.5 5C1.5 3.61929 2.61929 2.5 4 2.5L44 2.5Z" fill="#081E40"/>
</svg>
