<svg width="48" height="48" viewBox="0 0 48 48" fill="none" xmlns="http://www.w3.org/2000/svg">
<rect width="48" height="48" fill="white"/>
<path d="M3.17429 13.1406C4.47726 12.6846 5.90352 13.3709 6.35983 14.6738C7.29361 17.3398 11.4079 24.04 19.8628 27.1465L21.5005 27.748L21.5005 44.5C21.5005 45.8806 20.381 46.9998 19.0005 47C17.6197 47 16.5005 45.8807 16.5005 44.5V31.1807C7.49613 27.255 2.90573 19.9371 1.64108 16.3262C1.18479 15.0231 1.87121 13.597 3.17429 13.1406ZM41.6411 14.6738C42.0975 13.3708 43.5236 12.6843 44.8266 13.1406C46.1294 13.5971 46.816 15.0233 46.3598 16.3262C45.0953 19.937 40.5046 27.2549 31.5005 31.1807L31.5005 44.5C31.5005 45.8806 30.381 46.9998 29.0005 47C27.6197 47 26.5005 45.8807 26.5005 44.5L26.5005 27.748L28.1382 27.1465C36.5929 24.0399 40.7074 17.3397 41.6411 14.6738ZM21.0005 2C22.6571 2.00024 24.0005 3.34329 24.0005 5C24.0005 5.55052 23.8481 6.06432 23.5893 6.50781L29.3276 16.5508L34.104 11.7734C34.0382 11.5264 34.0005 11.2677 34.0005 11C34.0005 9.34315 35.3436 8 37.0005 8C38.6571 8.00024 40.0005 9.34329 40.0005 11C40.0005 12.6567 38.6571 13.9998 37.0005 14C36.7322 14 36.4725 13.9616 36.2251 13.8955L31.6049 18.5156C31.8551 18.9536 32.0005 19.4595 32.0005 20C32.0005 21.6567 30.6571 22.9998 29.0005 23C27.3436 23 26.0005 21.6569 26.0005 20C26.0005 19.2525 26.2748 18.5702 26.727 18.0449L20.9868 7.99902C20.7824 7.99814 20.5829 7.97732 20.3901 7.9375L14.8716 14.1338C14.9542 14.4082 15.0005 14.6987 15.0005 15C15.0005 16.6567 13.6571 17.9998 12.0005 18C10.3436 18 9.00046 16.6569 9.00046 15C9.00046 13.3431 10.3436 12 12.0005 12C12.2354 12 12.4637 12.029 12.6831 12.0801L18.1528 5.94043C18.0551 5.64442 18.0005 5.32875 18.0005 5C18.0005 3.34315 19.3436 2 21.0005 2Z" fill="#081E40"/>
</svg>
