<svg width="48" height="48" viewBox="0 0 48 48" fill="none" xmlns="http://www.w3.org/2000/svg">
<path d="M24.1104 0.503906C24.1566 0.505914 24.2028 0.50909 24.249 0.513672C24.2771 0.516489 24.305 0.520653 24.333 0.524414C24.3853 0.531394 24.4374 0.539486 24.4893 0.549805C24.5197 0.555869 24.5499 0.563118 24.5801 0.570312C24.6232 0.580574 24.6663 0.590905 24.709 0.603516C24.7491 0.615333 24.7886 0.628741 24.8281 0.642578C24.867 0.656238 24.906 0.669874 24.9443 0.685547C24.9767 0.698719 25.0082 0.713956 25.04 0.728516C25.0837 0.748546 25.1271 0.769266 25.1699 0.791992C25.2111 0.813794 25.2509 0.838091 25.291 0.862305C25.3149 0.876786 25.3397 0.889904 25.3633 0.905273C25.4141 0.938384 25.463 0.974626 25.5117 1.01172C25.528 1.0241 25.5455 1.03501 25.5615 1.04785C27.7589 2.80578 31.0982 4.44354 34.417 5.65039C37.7899 6.8769 40.7023 7.5 42 7.5C43.3807 7.5 44.5 8.61929 44.5 10C44.5 10.0844 44.4955 10.1678 44.4873 10.25C44.4955 10.3322 44.5 10.4156 44.5 10.5V27.0625L44.4971 27.125C44.1987 33.0915 40.3853 38.2952 36.3447 41.8721C34.2867 43.694 32.0633 45.1917 29.9805 46.2461C27.967 47.2654 25.8304 48 24 48C22.1982 48 20.0776 47.3166 18.0488 46.3232C15.9592 45.3001 13.7254 43.8297 11.6553 41.9971C7.56027 38.372 3.79499 33.0385 3.50293 26.6133L3.5 26.5566V10C3.5 8.61929 4.61929 7.5 6 7.5L6.26172 7.49316C7.6632 7.42028 10.4207 6.80032 13.583 5.65039C16.9018 4.44354 20.2411 2.80578 22.4385 1.04785C22.4543 1.03517 22.4712 1.02395 22.4873 1.01172C22.536 0.974619 22.5849 0.938393 22.6357 0.905273C22.6593 0.889899 22.6841 0.87679 22.708 0.862305C22.7481 0.838082 22.7879 0.813805 22.8291 0.791992C22.8719 0.769255 22.9153 0.748558 22.959 0.728516C22.9908 0.713947 23.0223 0.698728 23.0547 0.685547C23.093 0.669862 23.132 0.656251 23.1709 0.642578C23.2104 0.628728 23.25 0.615347 23.29 0.603516C23.3327 0.59089 23.3758 0.58059 23.4189 0.570312C23.4492 0.563107 23.4793 0.55588 23.5098 0.549805C23.5617 0.539467 23.6138 0.531413 23.666 0.524414C23.694 0.520642 23.7219 0.516499 23.75 0.513672C23.7962 0.509072 23.8424 0.505932 23.8887 0.503906C23.9258 0.502236 23.9628 0.501001 24 0.500977C24.0368 0.501001 24.0736 0.502265 24.1104 0.503906ZM24 6.08789C21.4039 7.82464 18.2277 9.28207 15.292 10.3496C12.914 11.2143 10.4964 11.8955 8.5 12.2441V26.4316C8.72382 30.9886 11.4514 35.1383 14.9697 38.2529C16.712 39.7953 18.5722 41.0125 20.248 41.833C21.9848 42.6833 23.3018 43 24 43C24.6695 43 25.9706 42.6721 27.7227 41.7852C29.4054 40.9333 31.2759 39.681 33.0303 38.1279C36.6023 34.9658 39.2819 30.9365 39.5 26.917V12.2441C37.5036 11.8955 35.086 11.2143 32.708 10.3496C29.7723 9.28207 26.5961 7.82464 24 6.08789ZM24 31.0742C24.572 31.0742 25.0661 31.2561 25.4561 31.6201C25.82 31.9841 26.0283 32.4525 26.0283 33.0244C26.0282 33.5962 25.82 34.0902 25.4561 34.4541C25.0401 34.8181 24.572 35 24 35C23.428 35 22.9597 34.7917 22.5957 34.4277C22.18 34.0639 21.9981 33.5961 21.998 33.0244C21.998 32.4525 22.1799 31.9841 22.5957 31.6201C22.9597 31.2561 23.428 31.0742 24 31.0742ZM24.4678 16.0723C26.1578 16.0723 27.5362 16.5142 28.5762 17.4502C29.616 18.3602 30.1357 19.6084 30.1357 21.1943C30.1357 22.4941 29.7977 23.5597 29.1738 24.3916C28.9398 24.6516 28.1864 25.3544 26.9385 26.4463C26.4706 26.8102 26.1324 27.2519 25.8984 27.7197C25.6385 28.2396 25.5079 28.8117 25.5078 29.4355V29.7998H22.5176V29.4355C22.5176 28.4477 22.6741 27.5896 23.0381 26.8877C23.3761 26.1858 23.9742 25.458 24.832 24.7041C25.664 23.9501 26.1836 23.4557 26.3916 23.2217C26.8596 22.6497 27.0938 22.026 27.0938 21.376C27.0937 20.518 26.8342 19.8417 26.3662 19.3477C25.8722 18.8537 25.17 18.6201 24.2861 18.6201C23.1681 18.6201 22.3618 18.9582 21.8418 19.6602C21.3999 20.2581 21.1924 21.1165 21.1924 22.2344H18.2275C18.2275 20.3104 18.774 18.802 19.918 17.71C21.0359 16.618 22.5439 16.0723 24.4678 16.0723Z" fill="#081E40"/>
</svg>
