<svg width="48" height="48" viewBox="0 0 48 48" fill="none" xmlns="http://www.w3.org/2000/svg">
<path fill-rule="evenodd" clip-rule="evenodd" d="M24.0031 5C17.1233 5 11.55 10.5715 11.55 17.4394C11.55 22.6852 14.8019 27.1799 19.4134 29.0074L19.55 29.0679V36H28.55V30.0594V29C33.356 27.2717 36.4562 22.8252 36.4562 17.4394C36.4562 10.5715 30.8829 5 24.0031 5ZM6.54999 17.4394C6.54999 23.5936 9.73939 28.9981 14.55 32.1011V36.5C14.55 38.9853 16.5647 41 19.05 41H29.05C31.5353 41 33.55 38.9853 33.55 36.5V32.0401C38.3087 28.9273 41.4562 23.5533 41.4562 17.4394C41.4562 7.80572 33.64 0 24.0031 0C14.3662 0 6.54999 7.80572 6.54999 17.4394ZM20.55 43C19.1693 43 18.05 44.1193 18.05 45.5C18.05 46.8807 19.1693 48 20.55 48H27.55C28.9307 48 30.05 46.8807 30.05 45.5C30.05 44.1193 28.9307 43 27.55 43H20.55Z" fill="#081E40"/>
</svg>
