<svg width="48" height="48" viewBox="0 0 48 48" fill="none" xmlns="http://www.w3.org/2000/svg">
<path fill-rule="evenodd" clip-rule="evenodd" d="M35 12C35 15.5744 33.2952 18.7505 30.6543 20.7598C30.1411 21.0986 28.9962 21.8223 28.4277 22.0725C27.6322 22.5809 25.1571 23.6082 23.9296 24.1058C23.4636 24.2946 22.966 24.3825 22.4639 24.4074C14.8323 24.7873 8.45585 30.8544 8.10506 39.1279C8.06043 40.1803 8.94692 41 10.0003 41H19.5C20.8807 41 22 42.1193 22 43.5C22 44.8807 20.8807 46 19.5 46H7.02858C5.37459 46 3.85112 44.9894 3.48266 43.377C3.16666 41.9941 3 40.5565 3 39.081C3 30.3656 8.81484 22.9725 16.8731 20.3793C14.5032 18.3616 13 15.3563 13 12C13 5.92487 17.9249 1 24 1C30.0751 1 35 5.92487 35 12ZM24 18C27.3137 18 30 15.3137 30 12C30 8.68629 27.3137 6 24 6C20.6863 6 18 8.68629 18 12C18 15.3137 20.6863 18 24 18ZM40.1276 24.8699C40.4412 25.0255 40.7465 25.1952 41.0427 25.3782L42.9691 25.127C44.2654 25.0487 44.6678 25.7502 45.0434 26.4051L47.3626 30.4478C47.7383 31.1027 48.2337 31.9663 47.4214 32.8882L46.3879 34.2497C46.4041 34.4973 46.4123 34.747 46.4123 34.9986C46.4123 35.158 46.409 35.3165 46.4025 35.4743L47.4214 36.8165C48.2337 37.7385 47.7383 38.6021 47.3626 39.257L45.0434 43.2997C44.6678 43.9546 44.2654 44.6561 42.9691 44.5778L41.4197 44.3758C41.0076 44.6535 40.5761 44.9049 40.1278 45.1273L39.4816 46.6882C38.9008 47.8571 38.096 47.8571 37.3447 47.8571H32.7064C31.955 47.8571 30.9642 47.8571 30.577 46.6882L29.8863 45.0198C29.5003 44.8181 29.1275 44.5948 28.7694 44.3515L27.0338 44.5778C25.7375 44.6561 25.3351 43.9546 24.9595 43.2997L22.6403 39.257C22.2646 38.6021 21.7692 37.7385 22.5815 36.8165L23.8144 35.1924C23.8133 35.1279 23.8127 35.0634 23.8127 34.9986C23.8127 34.8394 23.816 34.6809 23.8226 34.5232L22.5815 32.8882C21.7692 31.9663 22.2646 31.1027 22.6403 30.4478L24.9595 26.4051C25.3351 25.7502 25.7375 25.0487 27.0338 25.127L29.1438 25.4021C29.3854 25.2515 29.633 25.1098 29.8864 24.9774L30.577 23.3093C30.9642 22.1404 31.955 22.1404 32.7064 22.1404H37.3447C38.096 22.1404 38.9008 22.1404 39.4816 23.3093L40.1276 24.8699ZM33.6118 25.724H36.4525C36.7199 25.724 36.9524 25.9326 37.0144 26.2282L37.5275 28.0215C38.3135 28.3061 39.0378 28.7197 39.6746 29.2368L41.6868 28.7344C41.9721 28.6406 42.2679 28.7389 42.4016 28.972L43.822 31.448C43.9463 31.6647 43.9011 31.9474 43.7098 32.1499L42.295 33.6349C42.3771 34.077 42.4201 34.5328 42.4201 34.9987C42.4201 35.3757 42.392 35.7461 42.3377 36.1079L43.7098 37.548C43.9011 37.7505 43.9463 38.0332 43.822 38.2499L42.4016 40.7259C42.2679 40.959 41.9721 41.0573 41.6868 40.9635L39.9464 40.5289C39.2462 41.1554 38.4264 41.6508 37.5254 41.9768L37.0144 43.7624C36.9524 44.058 36.7199 44.2667 36.4525 44.2667H33.6118C33.3632 44.2667 33.1424 44.0859 33.0638 43.8179L32.5385 41.9983C31.6136 41.6728 30.7725 41.1691 30.0567 40.5285L28.3144 40.9635C28.029 41.0573 27.7333 40.959 27.5995 40.7259L26.1792 38.2499C26.0549 38.0332 26.1001 37.7505 26.2913 37.548L27.6655 36.1057C27.6115 35.7446 27.5835 35.3749 27.5835 34.9987C27.5835 34.5336 27.6263 34.0784 27.7082 33.637L26.2913 32.1499C26.1001 31.9474 26.0549 31.6647 26.1792 31.448L27.5995 28.972C27.7333 28.7389 28.029 28.6406 28.3144 28.7344L30.3284 29.2373C30.9816 28.7068 31.7268 28.2851 32.5363 28L33.0638 26.1727C33.1424 25.9047 33.3632 25.724 33.6118 25.724ZM40.4412 35.034C40.4412 38.0384 38.0056 40.474 35.0011 40.474C31.9966 40.474 29.561 38.0384 29.561 35.034C29.561 32.0295 31.9966 29.5939 35.0011 29.5939C38.0056 29.5939 40.4412 32.0295 40.4412 35.034ZM36.9441 35.034C36.9441 36.107 36.0743 36.9768 35.0012 36.9768C33.9282 36.9768 33.0583 36.107 33.0583 35.034C33.0583 33.9609 33.9282 33.0911 35.0012 33.0911C36.0743 33.0911 36.9441 33.9609 36.9441 35.034Z" fill="#081E40"/>
</svg>
