<svg width="48" height="48" viewBox="0 0 48 48" fill="none" xmlns="http://www.w3.org/2000/svg">
<path fill-rule="evenodd" clip-rule="evenodd" d="M22.4023 0.826612C20.2045 2.57367 16.8839 4.20033 13.5831 5.40061C10.2102 6.62714 7.29767 7.25009 6 7.25009C4.61929 7.25009 3.5 8.36938 3.5 9.75009V26.2501V26.3069L3.50258 26.3636C3.79464 32.7889 7.56041 38.1219 11.6554 41.747C13.7256 43.5797 15.9593 45.0503 18.0491 46.0735C20.0779 47.0669 22.1982 47.7501 24 47.7501C25.8305 47.7501 27.9671 47.0155 29.9807 45.9962C32.0635 44.9418 34.2865 43.4439 36.3446 41.622C40.3852 38.0451 44.1986 32.8415 44.4969 26.8749L44.5 26.8126V26.7501L44.5 10.2501C44.5 10.1657 44.4958 10.0823 44.4877 10.0001C44.4958 9.91787 44.5 9.83448 44.5 9.75009C44.5 8.36938 43.3807 7.25009 42 7.25009C40.7023 7.25009 37.7898 6.62714 34.4169 5.40061C31.1161 4.20033 27.7955 2.57367 25.5977 0.826612C25.4346 0.6908 25.2571 0.578467 25.0703 0.490159C24.4017 0.174132 23.6131 0.165789 22.9297 0.490159C22.7429 0.578467 22.5654 0.6908 22.4023 0.826612ZM39.5 11.9949C37.5036 11.6463 35.0862 10.9643 32.7081 10.0996C29.7729 9.03223 26.5959 7.57729 24 5.841C21.4041 7.57729 18.2271 9.03223 15.2919 10.0996C12.9138 10.9643 10.4964 11.6463 8.5 11.9949V26.1907C8.72695 30.7442 11.4535 34.8906 14.9696 38.0032C16.7119 39.5455 18.5719 40.7624 20.2478 41.5829C21.9846 42.4333 23.3018 42.7501 24 42.7501C24.6695 42.7501 25.9704 42.4222 27.7224 41.5352C29.4052 40.6834 31.276 39.4313 33.0304 37.8782C36.5974 34.7205 39.2753 30.698 39.5 26.6841L39.5 11.9949ZM24 22.7501C25.6569 22.7501 27 21.4069 27 19.7501C27 18.0932 25.6569 16.7501 24 16.7501C22.3431 16.7501 21 18.0932 21 19.7501C21 21.4069 22.3431 22.7501 24 22.7501ZM32 19.7501C32 23.2953 29.6939 26.3019 26.5 27.3517V28.7501H28.5C29.8807 28.7501 31 29.8694 31 31.2501C31 32.6308 29.8807 33.7501 28.5 33.7501H26.5V35.7501C26.5 37.1308 25.3807 38.2501 24 38.2501C22.6193 38.2501 21.5 37.1308 21.5 35.7501V27.3517C18.3061 26.3019 16 23.2953 16 19.7501C16 15.3318 19.5817 11.7501 24 11.7501C28.4183 11.7501 32 15.3318 32 19.7501Z" fill="#081E40"/>
</svg>
