<svg width="48" height="48" viewBox="0 0 48 48" fill="none" xmlns="http://www.w3.org/2000/svg">
<path fill-rule="evenodd" clip-rule="evenodd" d="M39.6951 16.6001C39.6951 21.6981 35.5624 25.8309 30.4644 25.8309C25.3663 25.8309 21.2336 21.6981 21.2336 16.6001C21.2336 11.5021 25.3663 7.36933 30.4644 7.36933C35.5624 7.36933 39.6951 11.5021 39.6951 16.6001ZM45.4644 16.6001C45.4644 24.8844 38.7486 31.6001 30.4644 31.6001C27.1509 31.6001 24.0884 30.5258 21.6062 28.7064L18.7681 31.5446L24.5411 37.3176C25.5174 38.2939 25.5174 39.8768 24.5411 40.8531C23.5648 41.8295 21.9819 41.8295 21.0056 40.8531L15.2325 35.0801L11.768 38.5447L15.3589 42.1356C16.3352 43.1119 16.3352 44.6948 15.3589 45.6711C14.3825 46.6474 12.7996 46.6474 11.8233 45.6711L8.23242 42.0802L6.76777 43.5449C5.79146 44.5212 4.20854 44.5212 3.23223 43.5449C2.25592 42.5686 2.25592 40.9856 3.23223 40.0093L18.119 25.1226C16.445 22.7022 15.4644 19.7657 15.4644 16.6001C15.4644 8.31583 22.1801 1.6001 30.4644 1.6001C38.7486 1.6001 45.4644 8.31583 45.4644 16.6001Z" fill="#081E40"/>
</svg>
