<svg width="48" height="48" viewBox="0 0 48 48" fill="none" xmlns="http://www.w3.org/2000/svg">
<path fill-rule="evenodd" clip-rule="evenodd" d="M1.5 7C1.5 3.41015 4.41015 0.5 8 0.5H39C42.5899 0.5 45.5 3.41015 45.5 7V16C45.5 17.3807 44.3807 18.5 43 18.5C41.6193 18.5 40.5 17.3807 40.5 16V7C40.5 6.17157 39.8284 5.5 39 5.5H8C7.17157 5.5 6.5 6.17157 6.5 7V41C6.5 41.8284 7.17157 42.5 8 42.5H18.3947C19.7754 42.5 20.8947 43.6193 20.8947 45C20.8947 46.3807 19.7754 47.5 18.3947 47.5H8C4.41014 47.5 1.5 44.5898 1.5 41V7ZM35.0416 35.0416C38.1658 31.9174 38.1658 26.8521 35.0416 23.7279C31.9174 20.6037 26.8521 20.6037 23.7279 23.7279C20.6037 26.8521 20.6037 31.9174 23.7279 35.0416C26.8521 38.1658 31.9174 38.1658 35.0416 35.0416ZM40.4524 36.21C43.549 31.1982 42.9239 24.5391 38.5772 20.1924C33.5003 15.1156 25.2692 15.1156 20.1924 20.1924C15.1156 25.2692 15.1156 33.5003 20.1924 38.5772C24.7882 43.173 31.9691 43.6084 37.0547 39.8833L41.0518 43.8804C42.0281 44.8567 43.611 44.8567 44.5874 43.8804C45.5637 42.9041 45.5637 41.3212 44.5874 40.3449L40.4524 36.21Z" fill="#081E40"/>
</svg>
