<svg width="48" height="48" viewBox="0 0 48 48" fill="none" xmlns="http://www.w3.org/2000/svg">
<path fill-rule="evenodd" clip-rule="evenodd" d="M14.7297 9.00899C15.9305 9.08677 17.1935 9.66442 17.9499 10.6581C18.5391 11.4323 18.3958 12.5426 17.6298 13.1381C16.8637 13.7336 15.765 13.5888 15.1757 12.8146C15.1757 12.8146 15.1748 12.8133 15.1725 12.8107C15.1702 12.8082 15.1668 12.8044 15.1621 12.7997C15.1527 12.7902 15.1388 12.7775 15.1199 12.7625C15.0813 12.7319 15.0278 12.6968 14.9599 12.663C14.8194 12.5931 14.6574 12.5485 14.5058 12.5387C14.3558 12.529 14.2561 12.5551 14.2011 12.5805C14.1602 12.5995 14.11 12.6315 14.0531 12.7273C13.9222 12.9476 13.8971 13.0996 13.8949 13.1903C13.8926 13.2851 13.9138 13.3902 13.9762 13.5127C14.1169 13.7893 14.4351 14.0781 14.8065 14.2282C16.3271 14.8428 17.4052 15.9489 17.8327 17.3465C18.2527 18.7199 17.9759 20.1585 17.2168 21.3092C16.424 22.5109 14.9677 22.9958 13.7873 23C12.5321 23.0044 10.9708 22.4639 10.1851 20.8759C9.75291 20.0023 10.1033 18.9401 10.9677 18.5033C11.8322 18.0665 12.8834 18.4206 13.3156 19.2941C13.3371 19.3377 13.3611 19.3638 13.4143 19.3915C13.4822 19.4269 13.6042 19.4636 13.7752 19.463C13.9465 19.4624 14.1091 19.424 14.2274 19.3709C14.2801 19.3473 14.3102 19.3274 14.3241 19.3171C14.5418 18.9706 14.5647 18.6391 14.4888 18.391C14.4182 18.1601 14.1968 17.7911 13.5067 17.5122C12.4778 17.0963 11.4478 16.2784 10.8635 15.13C10.2344 13.8936 10.183 12.3709 11.0519 10.9076C11.9421 9.4082 13.4469 8.92589 14.7297 9.00899Z" fill="#081E40"/>
<path fill-rule="evenodd" clip-rule="evenodd" d="M24.9989 18.2573C25.4014 17.7268 25.7502 16.8415 25.7502 15.7199C25.7502 14.5983 25.4014 13.713 24.9989 13.1825C24.5992 12.6556 24.2925 12.6251 24.2189 12.6251C24.1453 12.6251 23.8387 12.6556 23.4389 13.1825C23.0365 13.713 22.6877 14.5983 22.6877 15.7199C22.6877 16.8415 23.0365 17.7268 23.4389 18.2573C23.8387 18.7842 24.1453 18.8147 24.2189 18.8147C24.2925 18.8147 24.5992 18.7842 24.9989 18.2573ZM24.2189 22.3517C26.9976 22.3517 29.2501 19.3825 29.2501 15.7199C29.2501 12.0573 26.9976 9.08812 24.2189 9.08812C21.4403 9.08812 19.1878 12.0573 19.1878 15.7199C19.1878 19.3825 21.4403 22.3517 24.2189 22.3517Z" fill="#081E40"/>
<path fill-rule="evenodd" clip-rule="evenodd" d="M25.1718 18.4913C25.8319 17.7778 26.9393 17.7401 27.6453 18.4071L29.0012 19.688C29.7072 20.355 29.7445 21.4741 29.0845 22.1876C28.4245 22.9011 27.3171 22.9388 26.6111 22.2718L25.2551 20.9908C24.5491 20.3239 24.5118 19.2048 25.1718 18.4913Z" fill="#081E40"/>
<path fill-rule="evenodd" clip-rule="evenodd" d="M32.3126 9.08812C33.2791 9.08812 34.0626 9.87989 34.0626 10.8566V18.6482C34.0626 18.8924 34.2584 19.0903 34.5001 19.0903H37.125C38.0915 19.0903 38.875 19.8821 38.875 20.8588C38.875 21.8355 38.0915 22.6273 37.125 22.6273H32.3126C31.3461 22.6273 30.5626 21.8355 30.5626 20.8588V10.8566C30.5626 9.87989 31.3461 9.08812 32.3126 9.08812Z" fill="#081E40"/>
<path fill-rule="evenodd" clip-rule="evenodd" d="M37.6667 38.1705L43.2865 43.7904C44.2378 44.7417 44.2378 46.284 43.2865 47.2353C42.3353 48.1865 40.7929 48.1865 39.8417 47.2353L34.2218 41.6154L37.6667 38.1705Z" fill="#081E40"/>
<path fill-rule="evenodd" clip-rule="evenodd" d="M33.7692 39.6667C35.9217 39.6667 37.6667 37.9217 37.6667 35.7692C37.6667 33.6167 35.9217 31.8718 33.7692 31.8718C31.6167 31.8718 29.8718 33.6167 29.8718 35.7692C29.8718 37.9217 31.6167 39.6667 33.7692 39.6667ZM33.7692 44.5385C38.6123 44.5385 42.5385 40.6123 42.5385 35.7692C42.5385 30.9261 38.6123 27 33.7692 27C28.9261 27 25 30.9261 25 35.7692C25 40.6123 28.9261 44.5385 33.7692 44.5385Z" fill="#081E40"/>
<path fill-rule="evenodd" clip-rule="evenodd" d="M2 4.18182C2 1.87226 3.79086 0 6 0H42C44.2091 0 46 1.87227 46 4.18182V18.7331C46 20.1766 44.8807 21.3467 43.5 21.3467C42.1193 21.3467 41 20.1766 41 18.7331V7.31818C41 6.1634 40.1046 5.22727 39 5.22727H9C7.89543 5.22727 7 6.1634 7 7.31818V38.6818C7 39.8366 7.89543 40.7727 9 40.7727H20.1C21.4807 40.7727 22.6 41.9429 22.6 43.3864C22.6 44.8298 21.4807 46 20.1 46H6C3.79086 46 2 44.1277 2 41.8182V4.18182Z" fill="#081E40"/>
</svg>
