<svg width="42" height="49" viewBox="0 0 42 49" fill="none" xmlns="http://www.w3.org/2000/svg">
<path fill-rule="evenodd" clip-rule="evenodd" d="M4 0C1.79086 0 0 1.79086 0 4V44C0 46.2091 1.79086 48 4 48L13 48C14.3807 48 15.5 46.8807 15.5 45.5C15.5 44.1193 14.3807 43 13 43L7 43C5.89543 43 5 42.1046 5 41V7C5 5.89543 5.89543 5 7 5H32C33.1046 5 34 5.89543 34 7V19.5C34 20.8807 35.1193 22 36.5 22C37.8807 22 39 20.8807 39 19.5V4C39 1.79086 37.2091 0 35 0H4ZM27.5 39C30.5376 39 33 36.5376 33 33.5C33 30.4624 30.5376 28 27.5 28C24.4624 28 22 30.4624 22 33.5C22 36.5376 24.4624 39 27.5 39ZM27.5 44C29.0982 44 30.6129 43.643 31.9689 43.0043L35.7322 46.7677C36.7085 47.744 38.2915 47.744 39.2678 46.7677C40.2441 45.7913 40.2441 44.2084 39.2678 43.2321L35.8728 39.8371C37.2078 38.0759 38 35.8805 38 33.5C38 27.701 33.299 23 27.5 23C21.701 23 17 27.701 17 33.5C17 39.299 21.701 44 27.5 44ZM7.5 12.5C7.5 11.1193 8.61929 10 10 10H28C29.3807 10 30.5 11.1193 30.5 12.5C30.5 13.8807 29.3807 15 28 15H10C8.61929 15 7.5 13.8807 7.5 12.5ZM10 19C8.61929 19 7.5 20.1193 7.5 21.5C7.5 22.8807 8.61929 24 10 24H19C20.3807 24 21.5 22.8807 21.5 21.5C21.5 20.1193 20.3807 19 19 19H10Z" fill="#081E40"/>
</svg>
