<svg width="48" height="48" viewBox="0 0 48 48" fill="none" xmlns="http://www.w3.org/2000/svg">
<path fill-rule="evenodd" clip-rule="evenodd" d="M4 3.38257C4 1.72571 5.34315 0.382568 7 0.382568H41.5C43.1569 0.382568 44.5 1.72572 44.5 3.38257V44.1698C44.5 46.3708 41.9359 47.5762 40.2412 46.1719L26.365 34.6745C25.2668 33.7646 23.6797 33.7536 22.569 34.6484L8.23106 46.1984C6.53009 47.5686 4 46.3578 4 44.1736V3.38257ZM11 5.38257C9.89543 5.38257 9 6.278 9 7.38257V39.1584L23.2498 27.6794C23.9903 27.0829 25.0483 27.0902 25.7805 27.6969L39.5 39.0645V7.38257C39.5 6.278 38.6046 5.38257 37.5 5.38257H11Z" fill="#081E40"/>
<path fill-rule="evenodd" clip-rule="evenodd" d="M24.5 12.3826C23.1193 12.3826 22 13.5019 22 14.8826C22 16.2633 23.1193 17.3826 24.5 17.3826C25.8807 17.3826 27 16.2633 27 14.8826C27 13.5019 25.8807 12.3826 24.5 12.3826ZM18 14.8826C18 11.2927 20.9101 8.38257 24.5 8.38257C28.0899 8.38257 31 11.2927 31 14.8826C31 18.4724 28.0899 21.3826 24.5 21.3826C20.9101 21.3826 18 18.4724 18 14.8826Z" fill="#081E40"/>
</svg>
