<svg width="48" height="48" viewBox="0 0 48 48" fill="none" xmlns="http://www.w3.org/2000/svg">
<path fill-rule="evenodd" clip-rule="evenodd" d="M24.1109 39.9454C23.7204 40.3359 23.0872 40.3359 22.6967 39.9454L8.45978 25.7084C8.07548 25.3241 8.06847 24.7033 8.44399 24.3104L24.2333 7.791C24.4232 7.59232 24.6865 7.48055 24.9614 7.48197L39.7626 7.55836C40.3227 7.56125 40.7712 8.02362 40.7571 8.58358L40.3862 23.2808C40.3797 23.5372 40.275 23.7813 40.0936 23.9627L24.1109 39.9454ZM41.8289 2.56896C44.0694 2.58053 45.8635 4.42997 45.807 6.66982L45.3644 24.2057C45.3386 25.2313 44.9196 26.2078 44.1941 26.9332L26.2322 44.8951C24.6701 46.4572 22.1375 46.4572 20.5754 44.8951L3.54163 27.8614C2.00443 26.3242 1.97638 23.8407 3.47846 22.2691L21.2138 3.71373C21.9734 2.91898 23.0267 2.47192 24.1261 2.47759L41.8289 2.56896ZM27.3035 17.3034C28.2798 16.3271 29.8627 16.3271 30.8391 17.3034C31.8154 18.2797 31.8154 19.8626 30.8391 20.8389C29.8627 21.8152 28.2798 21.8152 27.3035 20.8389C26.3272 19.8626 26.3272 18.2797 27.3035 17.3034ZM34.3746 13.7678C31.4457 10.8389 26.6969 10.8389 23.768 13.7678C20.8391 16.6968 20.8391 21.4455 23.768 24.3744C26.6969 27.3034 31.4457 27.3034 34.3746 24.3744C37.3035 21.4455 37.3035 16.6968 34.3746 13.7678Z" fill="#081E40"/>
</svg>
