<svg width="48" height="48" viewBox="0 0 48 48" fill="none" xmlns="http://www.w3.org/2000/svg">
<path d="M45 38.5C46.3807 38.5 47.5 39.6193 47.5 41C47.5 42.3807 46.3807 43.5 45 43.5H3C1.61929 43.5 0.5 42.3807 0.5 41C0.5 39.6193 1.61929 38.5 3 38.5H45ZM45 27.5C46.3807 27.5 47.5 28.6193 47.5 30C47.5 31.3807 46.3807 32.5 45 32.5H21C19.6193 32.5 18.5 31.3807 18.5 30C18.5 28.6193 19.6193 27.5 21 27.5L45 27.5ZM27 15.5C28.3807 15.5 29.5 16.6193 29.5 18C29.5 19.3807 28.3807 20.5 27 20.5H3C1.61929 20.5 0.5 19.3807 0.5 18C0.5 16.6193 1.61929 15.5 3 15.5L27 15.5ZM45 4.5C46.3807 4.5 47.5 5.61929 47.5 7C47.5 8.38071 46.3807 9.5 45 9.5L3 9.5C1.61929 9.5 0.5 8.38071 0.5 7C0.5 5.61929 1.61929 4.5 3 4.5L45 4.5Z" fill="#081E40"/>
</svg>
