<svg width="48" height="48" viewBox="0 0 48 48" fill="none" xmlns="http://www.w3.org/2000/svg">
<rect width="48" height="48" fill="white"/>
<path fill-rule="evenodd" clip-rule="evenodd" d="M43 1C45.2091 1 47 2.79086 47 5V43C47 45.14 45.3194 46.8879 43.2061 46.9951L43 47H5L4.79395 46.9951C2.7488 46.8913 1.10865 45.2512 1.00488 43.2061L1 43V5C1 2.79086 2.79086 1 5 1H43ZM6 42H42V6H6V42Z" fill="#081E40"/>
<path fill-rule="evenodd" clip-rule="evenodd" d="M18 10C19.1046 10 20 10.8954 20 12V17C20 18.0357 19.2128 18.887 18.2041 18.9893L18 19H15V23H24V22C24 20.8954 24.8954 20 26 20H36C37.1046 20 38 20.8954 38 22V27C38 28.0357 37.2128 28.887 36.2041 28.9893L36 29H26L25.7959 28.9893C24.8543 28.8938 24.1062 28.1457 24.0107 27.2041L24 27V26H15V33.5C15 33.7761 15.2239 34 15.5 34H24V32C24 30.8954 24.8954 30 26 30H36C37.1046 30 38 30.8954 38 32V37C38 38.0357 37.2128 38.887 36.2041 38.9893L36 39H26L25.7959 38.9893C24.8543 38.8938 24.1062 38.1457 24.0107 37.2041L24 37H15.5C13.567 37 12 35.433 12 33.5V19L11.7959 18.9893C10.8543 18.8938 10.1062 18.1457 10.0107 17.2041L10 17V12C10 10.8954 10.8954 10 12 10H18ZM27 36H35V33H27V36ZM27 26H35V23H27V26ZM13 16H17V13H13V16Z" fill="#081E40"/>
<path fill-rule="evenodd" clip-rule="evenodd" d="M36 10C37.1046 10 38 10.8954 38 12V17C38 18.0357 37.2128 18.887 36.2041 18.9893L36 19H26L25.7959 18.9893C24.8543 18.8938 24.1062 18.1457 24.0107 17.2041L24 17V12C24 10.8954 24.8954 10 26 10H36ZM27 16H35V13H27V16Z" fill="#081E40"/>
</svg>
