<svg width="48" height="48" viewBox="0 0 48 48" fill="none" xmlns="http://www.w3.org/2000/svg">
<path fill-rule="evenodd" clip-rule="evenodd" d="M7 11V7H13V11H7ZM2 6C2 3.79086 3.79086 2 6 2H14C16.2091 2 18 3.79086 18 6V12C18 14.2091 16.2091 16 14 16H9.5V22.5H24V22C24 19.7909 25.7909 18 28 18H42C44.2091 18 46 19.7909 46 22V28C46 30.2091 44.2091 32 42 32H28C25.7909 32 24 30.2091 24 28V27.5H9.5V38C9.5 38.8284 10.1716 39.5 11 39.5H24V38C24 35.7909 25.7909 34 28 34H42C44.2091 34 46 35.7909 46 38V44C46 46.2091 44.2091 48 42 48H28C25.9602 48 24.277 46.4732 24.0309 44.5H11C7.41015 44.5 4.5 41.5899 4.5 38V27.5V22.5V15.7092C3.03408 15.1159 2 13.6787 2 12V6ZM29 11V7H41V11H29ZM24 6C24 3.79086 25.7909 2 28 2H42C44.2091 2 46 3.79086 46 6V12C46 14.2091 44.2091 16 42 16H28C25.7909 16 24 14.2091 24 12V6ZM29 23V27H41V23H29ZM29 43V39H41V43H29Z" fill="#081E40"/>
</svg>
