<svg width="48" height="48" viewBox="0 0 48 48" fill="none" xmlns="http://www.w3.org/2000/svg">
<path d="M43.5 40.5C44.8807 40.5001 46 41.6193 46 43C46 44.3807 44.8807 45.4999 43.5 45.5H4.5C3.11929 45.5 2 44.3807 2 43C2 41.6193 3.11929 40.5 4.5 40.5H43.5ZM43.5 27.5C44.8807 27.5 46 28.6193 46 30C46 31.3807 44.8807 32.5 43.5 32.5H26.5C25.1193 32.5 24 31.3807 24 30C24 28.6193 25.1193 27.5 26.5 27.5H43.5ZM11.7021 17.833C12.1373 17.379 12.8627 17.379 13.2979 17.833L22.208 27.1299C22.8814 27.8326 22.3834 28.9998 21.4102 29H3.58984C2.61661 28.9998 2.11855 27.8326 2.79199 27.1299L11.7021 17.833ZM43.5 15.5C44.8807 15.5 46 16.6193 46 18C46 19.3807 44.8807 20.5 43.5 20.5H26.5C25.1193 20.5 24 19.3807 24 18C24 16.6193 25.1193 15.5 26.5 15.5H43.5ZM43.5 2.5C44.8807 2.5 46 3.61929 46 5C46 6.38071 44.8807 7.5 43.5 7.5H4.5C3.11929 7.5 2 6.38071 2 5C2 3.61929 3.11929 2.5 4.5 2.5H43.5Z" fill="#081E40"/>
</svg>
