<svg width="48" height="48" viewBox="0 0 48 48" fill="none" xmlns="http://www.w3.org/2000/svg">
<path fill-rule="evenodd" clip-rule="evenodd" d="M9 6C9 5.44772 9.44772 5 10 5H38C38.5523 5 39 5.44772 39 6V42C39 42.5523 38.5523 43 38 43H10C9.44772 43 9 42.5523 9 42V6ZM4 4C4 1.79086 5.79086 0 8 0H40C42.2091 0 44 1.79086 44 4V44C44 46.2091 42.2091 48 40 48H8C5.79086 48 4 46.2091 4 44V4ZM16 15.5C16 15.2239 16.2239 15 16.5 15H31.5C31.7761 15 32 15.2239 32 15.5V16.5C32 16.7761 31.7761 17 31.5 17H16.5C16.2239 17 16 16.7761 16 16.5V15.5ZM12 13C12 11.8954 12.8954 11 14 11H34C35.1046 11 36 11.8954 36 13V19C36 20.1046 35.1046 21 34 21H19V29.5C19 29.7761 19.2239 30 19.5 30H24V29C24 27.8954 24.8954 27 26 27H34C35.1046 27 36 27.8954 36 29V35C36 36.1046 35.1046 37 34 37H26C24.8954 37 24 36.1046 24 35V34H18C16.3431 34 15 32.6569 15 31V21H14C12.8954 21 12 20.1046 12 19V13ZM28 31.5C28 31.2239 28.2239 31 28.5 31H31.5C31.7761 31 32 31.2239 32 31.5V32.5C32 32.7761 31.7761 33 31.5 33H28.5C28.2239 33 28 32.7761 28 32.5V31.5Z" fill="#081E40"/>
</svg>
