<svg width="48" height="48" viewBox="0 0 48 48" fill="none" xmlns="http://www.w3.org/2000/svg">
<path d="M43.5 40.5C44.8807 40.5001 46 41.6193 46 43C46 44.3807 44.8807 45.4999 43.5 45.5H4.5C3.11929 45.5 2 44.3807 2 43C2 41.6193 3.11929 40.5 4.5 40.5H43.5ZM43.5 27.5C44.8807 27.5 46 28.6193 46 30C46 31.3807 44.8807 32.5 43.5 32.5H26.5C25.1193 32.5 24 31.3807 24 30C24 28.6193 25.1193 27.5 26.5 27.5H43.5ZM21.4102 19C22.3834 19.0002 22.8814 20.1674 22.208 20.8701L13.2979 30.167C12.8627 30.621 12.1373 30.621 11.7021 30.167L2.79199 20.8701C2.11855 20.1674 2.61661 19.0002 3.58984 19H21.4102ZM43.5 15.5C44.8807 15.5 46 16.6193 46 18C46 19.3807 44.8807 20.5 43.5 20.5H26.5C25.1193 20.5 24 19.3807 24 18C24 16.6193 25.1193 15.5 26.5 15.5H43.5ZM43.5 2.5C44.8807 2.5 46 3.61929 46 5C46 6.38071 44.8807 7.5 43.5 7.5H4.5C3.11929 7.5 2 6.38071 2 5C2 3.61929 3.11929 2.5 4.5 2.5H43.5Z" fill="#081E40"/>
</svg>
