<svg width="48" height="48" viewBox="0 0 48 48" fill="none" xmlns="http://www.w3.org/2000/svg">
<path d="M45 33C45.5523 33 46 33.4477 46 34V41.9788C46 44.1871 44.2105 45.9776 42.0022 45.9788L6.00222 45.9988C3.79221 46 2 44.2088 2 41.9988V34.5C2 33.9477 2.44772 33.5 3 33.5H6C6.55228 33.5 7 33.9477 7 34.5V39.9975C7 40.55 7.44805 40.9978 8.00055 40.9975L40.0005 40.98C40.5526 40.9797 41 40.5321 41 39.98V34C41 33.4477 41.4477 33 42 33H45Z" fill="#081E40"/>
<path d="M30 9C31.1046 9 32 9.89543 32 11V36C32 37.1046 31.1046 38 30 38H11C9.89543 38 9 37.1046 9 36V11C9 9.89543 9.89543 9 11 9H30ZM14 33H27V14H14V33Z" fill="#081E40"/>
<path d="M39 29C39 30.1046 38.1046 31 37 31H32V26H34V7H20V9H15V4C15 2.89543 15.8954 2 17 2H37C38.1046 2 39 2.89543 39 4V29Z" fill="#081E40"/>
<path d="M16 18C16 17.4477 16.4477 17 17 17H24C24.5523 17 25 17.4477 25 18V20C25 20.5523 24.5523 21 24 21H17C16.4477 21 16 20.5523 16 20V18Z" fill="#081E40"/>
<path d="M24 17C24.5523 17 25 17.4477 25 18V20C25 20.5523 24.5523 21 24 21H17C16.4477 21 16 20.5523 16 20V18C16 17.4477 16.4477 17 17 17H24Z" fill="#081E40"/>
<path d="M16 25C16 24.4477 16.4477 24 17 24H24C24.5523 24 25 24.4477 25 25V27C25 27.5523 24.5523 28 24 28H17C16.4477 28 16 27.5523 16 27V25Z" fill="#081E40"/>
<path d="M24 24C24.5523 24 25 24.4477 25 25V27C25 27.5523 24.5523 28 24 28H17C16.4477 28 16 27.5523 16 27V25C16 24.4477 16.4477 24 17 24H24Z" fill="#081E40"/>
</svg>
