<svg width="48" height="48" viewBox="0 0 48 48" fill="none" xmlns="http://www.w3.org/2000/svg">
<path fill-rule="evenodd" clip-rule="evenodd" d="M24 14C26.2091 14 28 12.2091 28 10C28 7.79086 26.2091 6 24 6C21.7909 6 20 7.79086 20 10C20 12.2091 21.7909 14 24 14ZM24 19C28.9706 19 33 14.9706 33 10C33 5.02944 28.9706 1 24 1C19.0294 1 15 5.02944 15 10C15 14.9706 19.0294 19 24 19Z" fill="#081E40"/>
<path fill-rule="evenodd" clip-rule="evenodd" d="M9 38C10.6569 38 12 36.6569 12 35C12 33.3431 10.6569 32 9 32C7.34315 32 6 33.3431 6 35C6 36.6569 7.34315 38 9 38ZM9 43C13.4183 43 17 39.4183 17 35C17 30.5817 13.4183 27 9 27C4.58172 27 1 30.5817 1 35C1 39.4183 4.58172 43 9 43Z" fill="#081E40"/>
<path fill-rule="evenodd" clip-rule="evenodd" d="M39 38C40.6569 38 42 36.6569 42 35C42 33.3431 40.6569 32 39 32C37.3431 32 36 33.3431 36 35C36 36.6569 37.3431 38 39 38ZM39 43C43.4183 43 47 39.4183 47 35C47 30.5817 43.4183 27 39 27C34.5817 27 31 30.5817 31 35C31 39.4183 34.5817 43 39 43Z" fill="#081E40"/>
<path fill-rule="evenodd" clip-rule="evenodd" d="M6.99226 28.5104L18.4923 13.0104L22.5077 15.9896L11.0077 31.4896L6.99226 28.5104Z" fill="#081E40"/>
<path fill-rule="evenodd" clip-rule="evenodd" d="M41.5077 28.5104L30.0077 13.0104L25.9923 15.9896L37.4923 31.4896L41.5077 28.5104Z" fill="#081E40"/>
</svg>
