<svg width="48" height="48" viewBox="0 0 48 48" fill="none" xmlns="http://www.w3.org/2000/svg">
<g clip-path="url(#clip0_2225_1780)">
<path fill-rule="evenodd" clip-rule="evenodd" d="M43 24C43 34.4934 34.4934 43 24 43C13.5066 43 5 34.4934 5 24C5 13.5066 13.5066 5 24 5C34.4934 5 43 13.5066 43 24ZM48 24C48 37.2548 37.2548 48 24 48C10.7452 48 0 37.2548 0 24C0 10.7452 10.7452 0 24 0C37.2548 0 48 10.7452 48 24ZM35.819 18.715C36.7662 17.7104 36.7196 16.1282 35.715 15.181C34.7104 14.2338 33.1282 14.2804 32.181 15.285L21.0596 27.0805L15.5491 22.7301C14.4654 21.8745 12.8933 22.0595 12.0378 23.1432C11.1822 24.2269 11.3672 25.799 12.4509 26.6545L19.3991 32.14C20.6196 33.1035 22.3741 32.9748 23.4408 31.8434L35.819 18.715Z" fill="#129A52"/>
</g>
<defs>
<clipPath id="clip0_2225_1780">
<rect width="48" height="48" fill="white"/>
</clipPath>
</defs>
</svg>
