<svg width="48" height="48" viewBox="0 0 48 48" fill="none" xmlns="http://www.w3.org/2000/svg">
<path fill-rule="evenodd" clip-rule="evenodd" d="M26 2.5C26 1.11929 24.8807 0 23.5 0C22.1193 0 21 1.11929 21 2.5V15.5C21 16.8807 22.1193 18 23.5 18C24.8807 18 26 16.8807 26 15.5V2.5ZM34.3515 4.45614C33.1189 3.83398 31.6154 4.32883 30.9932 5.56142C30.371 6.79401 30.8659 8.29759 32.0985 8.91975C37.9773 11.8871 42 17.976 42 25C42 34.9411 33.9411 43 24 43C14.0589 43 6 34.9411 6 25C6 18.2505 9.71377 12.3651 15.2213 9.28164C16.426 8.60714 16.8559 7.08371 16.1814 5.87896C15.5069 4.67422 13.9835 4.24436 12.7787 4.91886C5.75609 8.85058 1 16.3682 1 25C1 37.7025 11.2975 48 24 48C36.7025 48 47 37.7025 47 25C47 16.0166 41.8493 8.24072 34.3515 4.45614Z" fill="#081E40"/>
</svg>
