<svg width="48" height="48" viewBox="0 0 48 48" fill="none" xmlns="http://www.w3.org/2000/svg">
<path fill-rule="evenodd" clip-rule="evenodd" d="M37.3899 2.68768C38.1701 2.03079 39.2346 1.93302 40.0961 2.35256C40.3523 2.47732 40.5905 2.64783 40.798 2.86298C41.2327 3.31277 41.5001 3.92523 41.5001 4.60015V17.7484C41.5001 18.7607 41.0591 19.7802 40.1948 20.4655C37.2862 22.7719 30.5344 26.6573 23.3275 23.0168C18.9556 20.8084 15.7969 20.681 13.5 20.9967L13.5 36.31C13.5 37.6907 12.3807 38.81 11 38.81C9.6193 38.81 8.50001 37.6907 8.50001 36.31V36.0761C8.02394 36.2253 7.67887 36.3943 7.44442 36.5657C7.25588 36.7035 7.16569 36.8234 7.1144 36.9233C7.07219 37.0054 7.02072 37.1432 7.00488 37.3766C7.05096 37.4403 7.1449 37.5507 7.32465 37.705C7.81336 38.1247 8.71141 38.6575 10.156 39.1742C13.0279 40.2013 17.5949 41.0001 24 41.0001C30.5632 41.0001 35.1389 40.3795 37.9857 39.4611C39.4138 39.0003 40.243 38.5158 40.6726 38.1356C40.876 37.9557 40.9545 37.8304 40.9813 37.7777C41.0011 37.7388 41.0003 37.727 41 37.7231L41 37.7223V37.7219L40.9991 37.7182C40.9974 37.7122 40.9896 37.687 40.9632 37.6417C40.9074 37.5454 40.7724 37.367 40.4778 37.131C39.8682 36.6427 38.8134 36.0975 37.233 35.6C34.0965 34.6128 29.4972 34.0001 24 34.0001C22.887 34.0001 21.3144 34.1101 20.2017 34.2478C18.8315 34.4173 17.5832 33.444 17.4137 32.0737C17.2441 30.7034 18.2175 29.4552 19.5878 29.2856C20.8698 29.127 22.6499 29.0001 24 29.0001C29.7923 29.0001 34.943 29.6374 38.7342 30.8307C40.6175 31.4235 42.321 32.2012 43.6036 33.2285C44.8977 34.265 46 35.7669 46 37.7223C46 39.4224 45.171 40.8316 43.9861 41.8801C42.8442 42.8905 41.3 43.6456 39.5209 44.2196C35.9532 45.3706 30.7789 46.0001 24 46.0001C17.2426 46.0001 12.0596 45.1652 8.47217 43.8821C6.68703 43.2437 5.17805 42.4523 4.06715 41.4983C2.98379 40.5679 2 39.225 2 37.5267C2 35.3588 2.94637 33.6605 4.49341 32.5294C5.67564 31.665 7.11082 31.1995 8.50001 30.9334L8.5 5.77935C8.5 5.68882 8.50481 5.59942 8.51419 5.51138C8.37857 4.26944 9.19079 3.09467 10.4382 2.807C13.6415 2.06829 18.8252 1.52733 25.5817 4.94032C30.2625 7.30478 35.0138 4.68811 37.3899 2.68768ZM25.5819 18.5539C20.5107 15.9922 16.5301 15.6572 13.5 15.9637L13.5 7.34377C15.8736 7.08256 19.1537 7.29497 23.3273 9.40324C28.305 11.9177 33.0616 10.8472 36.5001 9.17189V16.9913C33.9085 18.8503 29.7209 20.6447 25.5819 18.5539ZM6.96525 37.3122C6.96551 37.3122 6.96746 37.3158 6.97031 37.3231C6.96642 37.3159 6.96499 37.3122 6.96525 37.3122Z" fill="#081E40"/>
</svg>
