<svg width="48" height="48" viewBox="0 0 48 48" fill="none" xmlns="http://www.w3.org/2000/svg">
<path fill-rule="evenodd" clip-rule="evenodd" d="M43.5 6.5C42.9477 6.5 42.5 6.94772 42.5 7.5V40.5C42.5 41.0523 42.9477 41.5 43.5 41.5H46.5C47.0523 41.5 47.5 41.0523 47.5 40.5V7.5C47.5 6.94772 47.0523 6.5 46.5 6.5H43.5ZM35.5 13.5344C35.5 12.9821 35.9477 12.5344 36.5 12.5344H39.5C40.0523 12.5344 40.5 12.9821 40.5 13.5344V40.4999C40.5 41.0522 40.0523 41.4999 39.5 41.4999H36.5C35.9477 41.4999 35.5 41.0522 35.5 40.4999V13.5344ZM15.5 16.1552C14.9477 16.1552 14.5 16.6029 14.5 17.1552V40.5C14.5 41.0523 14.9477 41.5 15.5 41.5H18.5C19.0523 41.5 19.5 41.0523 19.5 40.5V17.1552C19.5 16.6029 19.0523 16.1552 18.5 16.1552H15.5ZM7.5 24.3966C7.5 23.8443 7.94772 23.3966 8.5 23.3966H11.5C12.0523 23.3966 12.5 23.8443 12.5 24.3966V40.5001C12.5 41.0523 12.0523 41.5001 11.5 41.5001H8.5C7.94772 41.5001 7.5 41.0523 7.5 40.5001V24.3966ZM0.5 29.2241C0.5 28.6718 0.947715 28.2241 1.5 28.2241H4.5C5.05228 28.2241 5.5 28.6718 5.5 29.2241V40.5C5.5 41.0523 5.05228 41.5 4.5 41.5H1.5C0.947715 41.5 0.5 41.0523 0.5 40.5V29.2241ZM21.5 25.6034C21.5 25.0511 21.9477 24.6034 22.5 24.6034H25.5C26.0523 24.6034 26.5 25.0511 26.5 25.6034V40.4999C26.5 41.0522 26.0523 41.4999 25.5 41.4999H22.5C21.9477 41.4999 21.5 41.0522 21.5 40.4999V25.6034ZM29.5 17.3621C28.9477 17.3621 28.5 17.8098 28.5 18.3621V40.5C28.5 41.0523 28.9477 41.5 29.5 41.5H32.5C33.0523 41.5 33.5 41.0523 33.5 40.5V18.3621C33.5 17.8098 33.0523 17.3621 32.5 17.3621H29.5Z" fill="#081E40"/>
</svg>
