<svg width="48" height="48" viewBox="0 0 48 48" fill="none" xmlns="http://www.w3.org/2000/svg">
<path d="M11 1C14.866 1 18 4.13401 18 8C18 10.9849 16.131 13.5315 13.5 14.5381L13.5 18.4609C15.3546 19.1704 16.8296 20.6454 17.5391 22.5H22C22.0104 22.5 22.0208 22.5008 22.0312 22.501C22.2686 20.5942 23.8475 19.1036 25.7939 19.0049L26 19L41 19C43.2091 19 45 20.7909 45 23V28C45 30.2091 43.2091 32 41 32L26 32L25.7939 31.9951C23.6806 31.8879 22 30.14 22 28V27.5H17.5391C16.8242 29.3686 15.3323 30.8515 13.458 31.5547C13.484 31.6993 13.5 31.8479 13.5 32V38.5H22V38C22 35.86 23.6806 34.1121 25.7939 34.0049L26 34H41C43.2091 34 45 35.7909 45 38V43C45 45.2091 43.2091 47 41 47H26L25.7939 46.9951C23.8471 46.8963 22.2682 45.4053 22.0313 43.498C22.0208 43.4982 22.0104 43.5 22 43.5H11C9.61929 43.5 8.5 42.3807 8.5 41V32C8.5 31.8479 8.515 31.6993 8.54102 31.5547C5.88828 30.5591 4 28.0005 4 25C4 22.015 5.86886 19.4675 8.5 18.4609V14.5381C5.86903 13.5315 4 10.9849 4 8C4 4.13401 7.13401 1 11 1ZM28.5 39C27.6716 39 27 39.6716 27 40.5C27 41.3284 27.6716 42 28.5 42H38.5C39.3284 42 40 41.3284 40 40.5C40 39.6716 39.3284 39 38.5 39H28.5ZM11 23C9.89543 23 9 23.8954 9 25C9 26.1046 9.89543 27 11 27C12.1046 27 13 26.1046 13 25C13 23.8954 12.1046 23 11 23ZM28.5 24C27.6716 24 27 24.6716 27 25.5C27 26.3284 27.6716 27 28.5 27L38.5 27C39.3284 27 40 26.3284 40 25.5C40 24.6716 39.3284 24 38.5 24L28.5 24ZM11 6C9.89543 6 9 6.89543 9 8C9 9.10457 9.89543 10 11 10C12.1046 10 13 9.10457 13 8C13 6.89543 12.1046 6 11 6Z" fill="#081E40"/>
</svg>
