<svg width="48" height="48" viewBox="0 0 48 48" fill="none" xmlns="http://www.w3.org/2000/svg">
<path d="M15.3238 28.4432C16.3969 27.5745 16.5626 26.0002 15.6939 24.9271C14.8251 23.8539 13.2509 23.6882 12.1778 24.557L2.6379 32.2797C0.907493 33.6805 0.907482 36.3196 2.63789 37.7204L12.1778 45.4432C13.2509 46.3119 14.8251 46.1462 15.6939 45.0731C16.5626 43.9999 16.3969 42.4257 15.3238 41.557L10.3123 37.5001L42.2508 37.5001C44.4599 37.5001 46.2508 35.7092 46.2508 33.5001V27.0001C46.2508 25.6194 45.1315 24.5001 43.7508 24.5001C42.3701 24.5001 41.2508 25.6194 41.2508 27.0001V30.5001C41.2508 31.6047 40.3553 32.5001 39.2508 32.5001L10.3123 32.5001L15.3238 28.4432Z" fill="#081E40"/>
<path d="M1.75077 21.0001C1.75077 22.3808 2.87005 23.5001 4.25077 23.5001C5.63148 23.5001 6.75077 22.3808 6.75077 21.0001V17.5001C6.75077 16.3955 7.6462 15.5001 8.75077 15.5001L37.6892 15.5001L32.6778 19.557C31.6046 20.4257 31.4389 21.9999 32.3077 23.0731C33.1764 24.1462 34.7506 24.3119 35.8238 23.4432L45.3636 15.7204C47.094 14.3196 47.094 11.6805 45.3636 10.2797L35.8238 2.55697C34.7506 1.68823 33.1764 1.85394 32.3077 2.92709C31.4389 4.00024 31.6046 5.57446 32.6778 6.4432L37.6892 10.5001L5.75077 10.5001C3.54163 10.5001 1.75077 12.2909 1.75077 14.5001L1.75077 21.0001Z" fill="#081E40"/>
</svg>
