<svg width="48" height="48" viewBox="0 0 48 48" fill="none" xmlns="http://www.w3.org/2000/svg">
<g clip-path="url(#clip0_6601_30)">
<path fill-rule="evenodd" clip-rule="evenodd" d="M21 7C21 8.38071 22.1193 9.5 23.5 9.5C24.8807 9.5 26 8.38071 26 7V3C26 1.61929 24.8807 0.5 23.5 0.5C22.1193 0.5 21 1.61929 21 3V7ZM32 24C32 28.4183 28.4183 32 24 32C19.5817 32 16 28.4183 16 24C16 19.5817 19.5817 16 24 16C28.4183 16 32 19.5817 32 24ZM37 24C37 31.1797 31.1797 37 24 37C16.8203 37 11 31.1797 11 24C11 16.8203 16.8203 11 24 11C31.1797 11 37 16.8203 37 24ZM21 45C21 46.3807 22.1193 47.5 23.5 47.5C24.8807 47.5 26 46.3807 26 45V41C26 39.6193 24.8807 38.5 23.5 38.5C22.1193 38.5 21 39.6193 21 41V45ZM35.2322 12.5962C34.2559 11.6199 34.2559 10.037 35.2322 9.06066L38.0607 6.23224C39.037 5.25593 40.6199 5.25593 41.5962 6.23224C42.5725 7.20855 42.5725 8.79146 41.5962 9.76777L38.7678 12.5962C37.7915 13.5725 36.2086 13.5725 35.2322 12.5962ZM41.5961 37.0607C42.5724 38.037 42.5724 39.6199 41.5961 40.5962C40.6198 41.5725 39.0369 41.5725 38.0606 40.5962L35.2322 37.7678C34.2559 36.7915 34.2559 35.2085 35.2322 34.2322C36.2085 33.2559 37.7914 33.2559 38.7677 34.2322L41.5961 37.0607ZM38.5 24C38.5 22.6193 39.6193 21.5 41 21.5H45C46.3807 21.5 47.5 22.6193 47.5 24C47.5 25.3807 46.3807 26.5 45 26.5H41C39.6193 26.5 38.5 25.3807 38.5 24ZM12.7678 9.06066C13.7441 10.037 13.7441 11.6199 12.7678 12.5962C11.7914 13.5725 10.2085 13.5725 9.23222 12.5962L6.40379 9.76777C5.42748 8.79146 5.42748 7.20855 6.40379 6.23224C7.38011 5.25593 8.96302 5.25593 9.93933 6.23224L12.7678 9.06066ZM6.40388 40.5962C5.42756 39.6199 5.42756 38.037 6.40388 37.0607L9.2323 34.2322C10.2086 33.2559 11.7915 33.2559 12.7678 34.2322C13.7441 35.2085 13.7441 36.7915 12.7678 37.7678L9.93941 40.5962C8.9631 41.5725 7.38019 41.5725 6.40388 40.5962ZM7 21.5C8.38071 21.5 9.5 22.6193 9.5 24C9.5 25.3807 8.38071 26.5 7 26.5H3C1.61929 26.5 0.5 25.3807 0.5 24C0.5 22.6193 1.61929 21.5 3 21.5H7Z" fill="#081E40"/>
</g>
<defs>
<clipPath id="clip0_6601_30">
<rect width="48" height="48" fill="white"/>
</clipPath>
</defs>
</svg>
