<svg width="48" height="48" viewBox="0 0 48 48" fill="none" xmlns="http://www.w3.org/2000/svg">
<path fill-rule="evenodd" clip-rule="evenodd" d="M6 2C3.79086 2 2 3.79086 2 6V34C2 36.2091 3.79086 38 6 38H42C44.2091 38 46 36.2091 46 34V6C46 3.79086 44.2091 2 42 2H6ZM7 9C7 7.89543 7.89543 7 9 7H39C40.1046 7 41 7.89543 41 9V31C41 32.1046 40.1046 33 39 33H9C7.89543 33 7 32.1046 7 31V9ZM36.334 12.3015C37.272 13.3146 37.2112 14.8963 36.1981 15.8344L22.3694 28.6387C21.6211 29.3316 20.4714 29.3505 19.7007 28.6826L11.8622 21.8892C10.8188 20.985 10.7061 19.4061 11.6103 18.3627C12.5146 17.3193 14.0935 17.2065 15.1369 18.1108L20.2674 22.5572C20.6527 22.8912 21.2276 22.8817 21.6017 22.5353L32.801 12.1656C33.8141 11.2275 35.3959 11.2884 36.334 12.3015ZM41.5 43.5C41.5 44.8807 40.3807 46 39 46H9C7.61929 46 6.5 44.8807 6.5 43.5C6.5 42.1193 7.61929 41 9 41H39C40.3807 41 41.5 42.1193 41.5 43.5Z" fill="#081E40"/>
</svg>
