<svg width="48" height="48" viewBox="0 0 48 48" fill="none" xmlns="http://www.w3.org/2000/svg">
<path fill-rule="evenodd" clip-rule="evenodd" d="M38.2022 8L37.8206 7.16852C37.5005 6.47107 36.8011 6 36 6C35.1989 6 34.4995 6.47107 34.1794 7.16852L33.7978 8L34.1794 8.83148C34.4995 9.52893 35.1989 10 36 10C36.801 10 37.5005 9.52893 37.8206 8.83148L38.2022 8ZM33.7978 40L34.1794 40.8315C34.4995 41.5289 35.1989 42 36 42C36.8011 42 37.5005 41.5289 37.8206 40.8315L38.2022 40L37.8206 39.1685C37.5005 38.4711 36.8011 38 36 38C35.1989 38 34.4995 38.4711 34.1794 39.1685L33.7978 40ZM10.7978 24L11.1794 24.8315C11.4995 25.5289 12.1989 26 13 26C13.8011 26 14.5005 25.5289 14.8206 24.8315L15.2022 24L14.8206 23.1685C14.5005 22.4711 13.8011 22 13 22C12.1989 22 11.4995 22.4711 11.1794 23.1685L10.7978 24ZM41.456 10.5H44C45.3807 10.5 46.5 9.38072 46.5 8C46.5 6.61929 45.3807 5.5 44 5.5L41.456 5.5C40.508 3.43447 38.4215 2 36 2C33.5785 2 31.492 3.43447 30.544 5.5L4 5.5C2.61929 5.5 1.5 6.61929 1.5 8C1.5 9.38071 2.61929 10.5 4 10.5L30.544 10.5C31.4921 12.5655 33.5785 14 36 14C38.4215 14 40.5079 12.5655 41.456 10.5ZM18.456 21.5C17.508 19.4345 15.4215 18 13 18C10.5785 18 8.49205 19.4345 7.54404 21.5H4C2.61929 21.5 1.5 22.6193 1.5 24C1.5 25.3807 2.61929 26.5 4 26.5H7.54404C8.49205 28.5655 10.5785 30 13 30C15.4215 30 17.5079 28.5655 18.456 26.5L44 26.5C45.3807 26.5 46.5 25.3807 46.5 24C46.5 22.6193 45.3807 21.5 44 21.5L18.456 21.5ZM41.456 37.5H44C45.3807 37.5 46.5 38.6193 46.5 40C46.5 41.3807 45.3807 42.5 44 42.5H41.456C40.5079 44.5655 38.4215 46 36 46C33.5785 46 31.4921 44.5655 30.544 42.5L4 42.5C2.61929 42.5 1.5 41.3807 1.5 40C1.5 38.6193 2.61929 37.5 4 37.5L30.544 37.5C31.492 35.4345 33.5785 34 36 34C38.4215 34 40.508 35.4345 41.456 37.5Z" fill="#081E40"/>
</svg>
