<svg width="48" height="48" viewBox="0 0 48 48" fill="none" xmlns="http://www.w3.org/2000/svg">
<path fill-rule="evenodd" clip-rule="evenodd" d="M9.5 4.5C9.5 3.11929 10.6193 2 12 2H36C37.3807 2 38.5 3.11929 38.5 4.5C38.5 5.88071 37.3807 7 36 7H34.588L34.588 14.3348L45.4104 37.4565C47.2726 41.4349 44.3689 46 39.9762 46H28.0047H20.0047H8.03319C3.64049 46 0.736832 41.4349 2.599 37.4565L13.4213 14.3348L13.4214 7H12C10.6193 7 9.5 5.88071 9.5 4.5ZM18.4214 7L18.4213 15.4314L7.74842 38.1496C7.12529 39.476 8.09314 41 9.55861 41H20.0047H28.0047H38.4508C39.9162 41 40.8841 39.476 40.261 38.1496L29.5881 15.4314L29.588 7H18.4214ZM26.1277 22.8065C26.8006 21.1073 29.2122 21.1263 29.8582 22.836L32.9428 31.0005C33.0898 31.3896 33.4624 31.6471 33.8783 31.6471H34.7998C36.1554 31.6471 37.2543 32.7005 37.2543 34C37.2543 35.2995 36.1554 36.3529 34.7998 36.3529H31.4264C30.3621 36.3529 29.4146 35.6792 29.065 34.674L27.9322 31.4161L24.7986 38.2407C24.1007 39.7608 21.9561 39.8035 21.1982 38.3124L18.838 33.6691L17.798 35.2356C17.3348 35.9335 16.5528 36.3529 15.7152 36.3529H13.2543C11.8987 36.3529 10.7998 35.2995 10.7998 34C10.7998 32.7005 11.8987 31.6471 13.2543 31.6471H13.8498C14.1711 31.6471 14.4728 31.4926 14.6608 31.232L17.5957 27.1628C18.4566 25.9692 20.2683 26.0827 20.9733 27.3745L22.9122 30.9267L26.1277 22.8065Z" fill="#081E40"/>
</svg>
