<svg width="48" height="48" viewBox="0 0 48 48" fill="none" xmlns="http://www.w3.org/2000/svg">
<path fill-rule="evenodd" clip-rule="evenodd" d="M9.5 4.5C9.5 3.11929 10.6193 2 12 2H36C37.3807 2 38.5 3.11929 38.5 4.5C38.5 5.88071 37.3807 7 36 7H34.5879L34.5879 14.3348L45.4103 37.4565C47.2724 41.4349 44.3688 46 39.9761 46H8.03307C3.64037 46 0.73671 41.4349 2.59888 37.4565L13.4212 14.3348L13.4213 7H12C10.6193 7 9.5 5.88071 9.5 4.5ZM18.4213 7H29.5879L29.5879 15.4314L40.2608 38.1496C40.884 39.476 39.9161 41 38.4507 41H9.55849C8.09302 41 7.12517 39.476 7.7483 38.1496L18.4212 15.4314L18.4213 7ZM29.8582 22.836C29.2122 21.1263 26.8006 21.1073 26.1277 22.8065L22.9122 30.9267L20.9733 27.3745C20.2683 26.0827 18.4566 25.9692 17.5957 27.1628L14.6608 31.232C14.4729 31.4926 14.1711 31.6471 13.8498 31.6471H13.2544C11.8987 31.6471 10.7998 32.7005 10.7998 34C10.7998 35.2995 11.8987 36.3529 13.2544 36.3529H15.7152C16.5528 36.3529 17.3348 35.9335 17.798 35.2356L18.838 33.6691L21.1982 38.3124C21.9561 39.8035 24.1007 39.7608 24.7986 38.2407L27.9322 31.4161L29.065 34.674C29.4146 35.6792 30.3621 36.3529 31.4264 36.3529H34.7998C36.1554 36.3529 37.2543 35.2995 37.2543 34C37.2543 32.7005 36.1554 31.6471 34.7998 31.6471H33.8783C33.4624 31.6471 33.0898 31.3896 32.9428 31.0005L29.8582 22.836Z" fill="#081E40"/>
</svg>
