<svg width="48" height="48" viewBox="0 0 48 48" fill="none" xmlns="http://www.w3.org/2000/svg">
<path fill-rule="evenodd" clip-rule="evenodd" d="M4 4C4 1.79086 5.79086 0 8 0H29.0658C30.4465 0 31.5658 1.11929 31.5658 2.5C31.5658 3.88071 30.4465 5 29.0658 5H11C9.89543 5 9 5.89543 9 7V41C9 42.1046 9.89543 43 11 43H37C38.1046 43 39 42.1046 39 41V16.8372C39 15.4565 40.1193 14.3372 41.5 14.3372C42.8807 14.3372 44 15.4565 44 16.8372V44C44 46.2091 42.2091 48 40 48H8C5.79086 48 4 46.2091 4 44V4ZM26.9504 9.33082C27.5301 8.38734 28.8971 8.37559 29.4929 9.30896L32.8944 14.638C33.0781 14.9258 33.3959 15.1 33.7373 15.1H34.5C35.8807 15.1 37 16.2193 37 17.6C37 18.9807 35.8807 20.1 34.5 20.1H31.5451C30.8623 20.1 30.2267 19.7516 29.8593 19.1761L28.2852 16.71L24.6727 22.59C24.1116 23.5033 22.8014 23.5503 22.1762 22.6797L19.1126 18.4132L18.2296 19.4193C17.8499 19.8519 17.3021 20.1 16.7264 20.1H13.5C12.1193 20.1 11 18.9807 11 17.6C11 16.2193 12.1193 15.1 13.5 15.1H14.915C15.2028 15.1 15.4767 14.976 15.6666 14.7596L18.2595 11.8053C18.8962 11.0798 20.0423 11.1358 20.6053 11.9198L23.1676 15.4881L26.9504 9.33082ZM17.5 29.5C17.5 28.1193 16.3807 27 15 27C13.6193 27 12.5 28.1193 12.5 29.5L12.5 37.5C12.5 38.8807 13.6193 40 15 40C16.3807 40 17.5 38.8807 17.5 37.5L17.5 29.5ZM24 29C25.3807 29 26.5 30.1193 26.5 31.5V37.5C26.5 38.8807 25.3807 40 24 40C22.6193 40 21.5 38.8807 21.5 37.5V31.5C21.5 30.1193 22.6193 29 24 29ZM35.5 27.5C35.5 26.1193 34.3807 25 33 25C31.6193 25 30.5 26.1193 30.5 27.5V37.5C30.5 38.8807 31.6193 40 33 40C34.3807 40 35.5 38.8807 35.5 37.5V27.5Z" fill="#081E40"/>
</svg>
