<svg width="48" height="48" viewBox="0 0 48 48" fill="none" xmlns="http://www.w3.org/2000/svg">
<path fill-rule="evenodd" clip-rule="evenodd" d="M44.0213 6.4839C45.117 5.64383 45.3243 4.07455 44.4842 2.9788C43.6441 1.88306 42.0748 1.6758 40.9791 2.51587L28.2212 12.2969C28.0113 12.4579 27.7123 12.4275 27.5391 12.2276L22.5904 6.51759C21.9131 5.73603 20.7516 5.5998 19.9118 6.20341L3.5411 17.9698C2.41994 18.7757 2.16432 20.3378 2.97015 21.459C3.77598 22.5801 5.33812 22.8358 6.45928 22.0299L20.2352 12.1285C20.4451 11.9776 20.7355 12.0117 20.9048 12.207L25.9193 17.993C26.6123 18.7925 27.808 18.9141 28.6476 18.2704L44.0213 6.4839ZM43 14C44.3807 14 45.5 15.1193 45.5 16.5V36.5C45.5 37.8807 44.3807 39 43 39C41.6193 39 40.5 37.8807 40.5 36.5V16.5C40.5 15.1193 41.6193 14 43 14ZM17.75 21C19.1307 21 20.25 22.1193 20.25 23.5V36.5C20.25 37.8807 19.1307 39 17.75 39C16.3693 39 15.25 37.8807 15.25 36.5V23.5C15.25 22.1193 16.3693 21 17.75 21ZM7.5 31C7.5 29.6193 6.38071 28.5 5 28.5C3.61929 28.5 2.5 29.6193 2.5 31V36.5C2.5 37.8807 3.61929 39 5 39C6.38071 39 7.5 37.8807 7.5 36.5V31ZM43.5 46C44.8807 46 46 44.8807 46 43.5C46 42.1193 44.8807 41 43.5 41H4.50002C3.11931 41 2.00002 42.1193 2.00002 43.5C2.00002 44.8807 3.11931 46 4.50002 46H43.5ZM32.75 27C32.75 25.6193 31.6307 24.5 30.25 24.5C28.8693 24.5 27.75 25.6193 27.75 27V36.5C27.75 37.8807 28.8693 39 30.25 39C31.6307 39 32.75 37.8807 32.75 36.5V27Z" fill="#081E40"/>
</svg>
