<svg width="48" height="48" viewBox="0 0 48 48" fill="none" xmlns="http://www.w3.org/2000/svg">
<path fill-rule="evenodd" clip-rule="evenodd" d="M30.9967 7.22817C30.9991 7.15241 31.0003 7.07635 31.0003 7C31.0003 3.13401 27.8663 0 24.0003 0C20.1344 0 17.0003 3.13401 17.0003 7C17.0003 7.07635 17.0016 7.15241 17.004 7.22817C12.2442 9.74253 9.00029 14.7424 9.00029 20.5V28.6738C9.00029 28.829 8.96415 28.9821 8.89472 29.121L5.12601 36.6584C4.12866 38.6531 5.57914 41 7.80929 41H40.1913C42.4214 41 43.8719 38.6531 42.8746 36.6584L39.1059 29.121C39.0364 28.9821 39.0003 28.829 39.0003 28.6738L39.0003 20.5C39.0003 14.7424 35.7565 9.74253 30.9967 7.22817ZM14.0003 29.8541V20.5C14.0003 14.9772 18.4775 10.5 24.0003 10.5C29.5232 10.5 34.0003 14.9772 34.0003 20.5V29.8541C34.0003 30.0093 34.0364 30.1625 34.1059 30.3013L36.5934 35.2764C36.7596 35.6088 36.5179 36 36.1462 36H11.8544C11.4827 36 11.2409 35.6088 11.4072 35.2764L13.8947 30.3013C13.9641 30.1625 14.0003 30.0093 14.0003 29.8541ZM26.7271 5.74723C26.2525 4.71595 25.21 4 24.0003 4C22.7907 4 21.7482 4.71595 21.2736 5.74723C22.1579 5.58485 23.0692 5.5 24.0003 5.5C24.9315 5.5 25.8428 5.58485 26.7271 5.74723ZM16.0001 43C14.6194 43 13.5001 44.1193 13.5001 45.5C13.5001 46.8807 14.6194 48 16.0001 48H32.0001C33.3808 48 34.5001 46.8807 34.5001 45.5C34.5001 44.1193 33.3808 43 32.0001 43H16.0001Z" fill="#081E40"/>
</svg>
