<svg width="48" height="48" viewBox="0 0 48 48" fill="none" xmlns="http://www.w3.org/2000/svg">
<g clip-path="url(#clip0_6601_29)">
<path fill-rule="evenodd" clip-rule="evenodd" d="M37 30C38.8162 30 40.5767 29.7572 42.2501 29.3028C39.9549 37.2157 32.653 43 24 43C13.5066 43 5 34.4934 5 24C5 15.8412 10.1425 8.88353 17.3629 6.19142C17.1248 7.42485 17 8.69825 17 10C17 21.0457 25.9543 30 37 30ZM37 25C39.1327 25 41.1615 24.5549 42.9984 23.7526C43.6929 23.4492 44.36 23.0948 44.9949 22.6941C46.2224 21.9194 48 22.5485 48 24C48 24.951 47.9447 25.8891 47.8371 26.8113C46.4452 38.7414 36.3038 48 24 48C10.7452 48 0 37.2548 0 24C0 12.3068 8.36238 2.56678 19.433 0.433995C20.9115 0.149156 22.4383 0 24 0C24.7227 0 25.0859 0.856882 24.6735 1.45033C24.4347 1.79392 24.2099 2.14797 24 2.51165C23.5396 3.30926 23.1504 4.15319 22.8413 5.03475C22.2963 6.58882 22 8.2598 22 10C22 18.2843 28.7157 25 37 25ZM38.5 17C37.1193 17 36 15.8807 36 14.5V12H33.5C32.1193 12 31 10.8807 31 9.5C31 8.11929 32.1193 7 33.5 7H36V4.5C36 3.11929 37.1193 2 38.5 2C39.8807 2 41 3.11929 41 4.5V7H43.5C44.8807 7 46 8.11929 46 9.5C46 10.8807 44.8807 12 43.5 12H41V14.5C41 15.8807 39.8807 17 38.5 17Z" fill="#081E40"/>
</g>
<defs>
<clipPath id="clip0_6601_29">
<rect width="48" height="48" fill="white"/>
</clipPath>
</defs>
</svg>
