<svg width="48" height="48" viewBox="0 0 48 48" fill="none" xmlns="http://www.w3.org/2000/svg">
<path fill-rule="evenodd" clip-rule="evenodd" d="M9 7C7.89543 7 7 7.89543 7 9V39C7 40.1046 7.89543 41 9 41H39C40.1046 41 41 40.1046 41 39V9C41 7.89543 40.1046 7 39 7H9ZM6 2C3.79086 2 2 3.79086 2 6V42C2 44.2091 3.79086 46 6 46H42C44.2091 46 46 44.2091 46 42V6C46 3.79086 44.2091 2 42 2H6ZM14 23.5C14 22.1193 15.1193 21 16.5 21H21.5V16.5C21.5 15.1193 22.6193 14 24 14C25.3807 14 26.5 15.1193 26.5 16.5V21H31.5C32.8807 21 34 22.1193 34 23.5C34 24.8807 32.8807 26 31.5 26H26.5V31.5C26.5 32.8807 25.3807 34 24 34C22.6193 34 21.5 32.8807 21.5 31.5V26H16.5C15.1193 26 14 24.8807 14 23.5Z" fill="#081E40"/>
</svg>
