<svg width="48" height="48" viewBox="0 0 48 48" fill="none" xmlns="http://www.w3.org/2000/svg">
<path fill-rule="evenodd" clip-rule="evenodd" d="M31.1427 3.68797C29.5587 2.10401 26.9906 2.10401 25.4067 3.68797L1.18797 27.9067C-0.395988 29.4906 -0.395989 32.0587 1.18797 33.6427L11.868 44.3227C12.6286 45.0834 13.6603 45.5107 14.736 45.5107H45.221C46.4655 45.5107 47.4743 44.5018 47.4743 43.2574C47.4743 42.0129 46.4654 41.004 45.221 41.004L32.1084 41.004C31.663 41.004 31.4399 40.4655 31.7549 40.1505L46.812 25.0933C48.396 23.5094 48.396 20.9413 46.812 19.3573L31.1427 3.68797ZM30.1715 33.9463C30.562 34.3368 30.562 34.97 30.1715 35.3605L24.8209 40.7112C24.6333 40.8987 24.379 41.004 24.1138 41.004H15.3369C15.0717 41.004 14.8173 40.8987 14.6298 40.7112L5.40041 31.4818C5.00989 31.0913 5.00989 30.4581 5.40041 30.0676L15.1395 20.3285C15.53 19.938 16.1632 19.938 16.5537 20.3285L30.1715 33.9463Z" fill="#081E40"/>
</svg>
