<svg width="48" height="48" viewBox="0 0 48 48" fill="none" xmlns="http://www.w3.org/2000/svg">
<path fill-rule="evenodd" clip-rule="evenodd" d="M8 7C7.44772 7 7 7.44772 7 8V18C7 18.5523 7.44771 19 8 19H33C33.5523 19 34 18.5523 34 18V8C34 7.44772 33.5523 7 33 7H8ZM6 2C3.79086 2 2 3.79086 2 6V20C2 22.2091 3.79086 24 6 24H9.5V36C9.5 38.4853 11.5147 40.5 14 40.5H22V42C22 44.2091 23.7909 46 26 46H42C44.2091 46 46 44.2091 46 42V34C46 31.7909 44.2091 30 42 30H26C23.7909 30 22 31.7909 22 34V35.5H15.5C14.9477 35.5 14.5 35.0523 14.5 34.5V24H35C37.2091 24 39 22.2091 39 20V6C39 3.79086 37.2091 2 35 2H6ZM28 35C27.4477 35 27 35.4477 27 36V40C27 40.5523 27.4477 41 28 41H40C40.5523 41 41 40.5523 41 40V36C41 35.4477 40.5523 35 40 35H28Z" fill="#081E40"/>
</svg>
