<svg width="48" height="48" viewBox="0 0 48 48" fill="none" xmlns="http://www.w3.org/2000/svg">
<path d="M14 34.5C14 33.1193 15.1193 32 16.5 32H31.5C32.8807 32 34 33.1193 34 34.5C34 35.8807 32.8807 37 31.5 37H16.5C15.1193 37 14 35.8807 14 34.5Z" fill="#081E40"/>
<path fill-rule="evenodd" clip-rule="evenodd" d="M2 6C2 3.79086 3.79086 2 6 2H42C44.2091 2 46 3.79086 46 6V27C46 28.3807 44.8807 29.5 43.5 29.5C42.1193 29.5 41 28.3807 41 27V9C41 7.89543 40.1046 7 39 7H9C7.89543 7 7 7.89543 7 9V39C7 40.1046 7.89543 41 9 41L43.5 41C44.8807 41 46 42.1193 46 43.5C46 44.8807 44.8807 46 43.5 46L6 46C3.79086 46 2 44.2091 2 42V6Z" fill="#081E40"/>
<path fill-rule="evenodd" clip-rule="evenodd" d="M14.3676 16.3014C13.5817 15.1662 13.8648 13.6088 15.0001 12.8229L-nan -nanL15.0001 12.8229C16.1353 12.037 17.6926 12.3202 18.4786 13.4554L23.589 20.8371C23.7878 21.1243 24.2123 21.1243 24.4111 20.8371L29.5215 13.4554C30.3075 12.3202 31.8648 12.037 33.0001 12.8229L-nan -nanL33.0001 12.8229C34.1353 13.6088 34.4184 15.1662 33.6325 16.3014L25.6444 27.8398C24.8491 28.9885 23.151 28.9885 22.3557 27.8397L14.3676 16.3014Z" fill="#081E40"/>
</svg>
