<svg width="48" height="48" viewBox="0 0 48 48" fill="none" xmlns="http://www.w3.org/2000/svg">
<path fill-rule="evenodd" clip-rule="evenodd" d="M6 2C3.79086 2 2 3.79086 2 6V42C2 44.2091 3.79086 46 6 46L43.5 46C44.8807 46 46 44.8807 46 43.5C46 42.1193 44.8807 41 43.5 41L9 41C7.89543 41 7 40.1046 7 39V9C7 7.89543 7.89543 7 9 7H39C40.1046 7 41 7.89543 41 9V27C41 28.3807 42.1193 29.5 43.5 29.5C44.8807 29.5 46 28.3807 46 27V6C46 3.79086 44.2091 2 42 2H6ZM14.3674 16.3017C13.5814 15.1665 13.8646 13.6091 14.9998 12.8232C16.135 12.0372 17.6924 12.3204 18.4783 13.4556L23.5887 20.8373C23.7875 21.1245 24.2121 21.1245 24.4109 20.8373L29.5213 13.4556C30.3072 12.3204 31.8646 12.0372 32.9998 12.8232C34.135 13.6091 34.4182 15.1665 33.6323 16.3017L25.6442 27.84C24.8489 28.9888 23.1507 28.9888 22.3554 27.84L14.3674 16.3017ZM14 34.5C14 33.1193 15.1193 32 16.5 32H31.5C32.8807 32 34 33.1193 34 34.5C34 35.8807 32.8807 37 31.5 37H16.5C15.1193 37 14 35.8807 14 34.5Z" fill="#081E40"/>
</svg>
