<svg width="48" height="48" viewBox="0 0 48 48" fill="none" xmlns="http://www.w3.org/2000/svg">
<g clip-path="url(#clip0_14780_365)">
<path d="M22.8291 2.13281C23.978 1.98858 25.1293 2.34895 25.9883 3.11425L26.1553 3.27246L46.0342 23.1504L46.1758 23.2998C47.5485 24.8192 47.5492 27.1387 46.1768 28.6582L46.0342 28.8076L28.8076 46.0342C27.2455 47.5963 24.7125 47.5963 23.1504 46.0342L3.27247 26.1553L3.11427 25.9883C2.34901 25.1293 1.98768 23.9779 2.13185 22.8291L4.0547 7.52441C4.28269 5.71082 5.71082 4.28261 7.52443 4.05468L22.8291 2.13281ZM21.9951 7.27539L10.46 8.72656C9.5535 8.84079 8.83959 9.55439 8.7256 10.4609L7.2754 21.9951C7.19855 22.6077 7.40918 23.2216 7.84572 23.6582L24.5645 40.377C25.3455 41.158 26.6125 41.158 27.3936 40.377L40.377 27.3926C41.158 26.6115 41.158 25.3455 40.377 24.5645L23.6582 7.8457C23.2216 7.40914 22.6078 7.19848 21.9951 7.27539ZM18 11C21.866 11.0001 25 14.134 25 18C25 21.8659 21.866 24.9999 18 25C14.134 25 11 21.866 11 18C11 14.134 14.134 11 18 11ZM18 16C16.8954 16 16 16.8954 16 18C16 19.1046 16.8955 20 18 20C19.1045 19.9999 20 19.1045 20 18C20 16.8955 19.1045 16.0001 18 16Z" fill="#081E40"/>
</g>
<defs>
<clipPath id="clip0_14780_365">
<rect width="48" height="48" fill="white"/>
</clipPath>
</defs>
</svg>
