<svg width="48" height="48" viewBox="0 0 48 48" fill="none" xmlns="http://www.w3.org/2000/svg">
<path fill-rule="evenodd" clip-rule="evenodd" d="M6 2.5C4.067 2.5 2.5 4.067 2.5 6V12C2.5 13.933 4.06701 15.5 6 15.5H42C43.933 15.5 45.5 13.933 45.5 12V6C45.5 4.067 43.933 2.5 42 2.5H6ZM7.5 8C7.5 7.72386 7.72386 7.5 8 7.5H40C40.2761 7.5 40.5 7.72386 40.5 8V10C40.5 10.2761 40.2761 10.5 40 10.5H8C7.72386 10.5 7.5 10.2761 7.5 10V8ZM6 18.5C4.067 18.5 2.5 20.067 2.5 22V27C2.5 28.933 4.067 30.5 6 30.5H20C21.933 30.5 23.5 28.933 23.5 27V22C23.5 20.067 21.933 18.5 20 18.5H6ZM7.5 24C7.5 23.7239 7.72386 23.5 8 23.5H18C18.2761 23.5 18.5 23.7239 18.5 24V25C18.5 25.2761 18.2761 25.5 18 25.5H8C7.72386 25.5 7.5 25.2761 7.5 25V24ZM2.5 37C2.5 35.067 4.067 33.5 6 33.5H20C21.933 33.5 23.5 35.067 23.5 37V42C23.5 43.933 21.933 45.5 20 45.5H6C4.067 45.5 2.5 43.933 2.5 42V37ZM8 38.5C7.72386 38.5 7.5 38.7239 7.5 39V40C7.5 40.2761 7.72386 40.5 8 40.5H18C18.2761 40.5 18.5 40.2761 18.5 40V39C18.5 38.7239 18.2761 38.5 18 38.5H8ZM30 18.5C28.067 18.5 26.5 20.067 26.5 22V42C26.5 43.933 28.067 45.5 30 45.5H42C43.933 45.5 45.5 43.933 45.5 42V22C45.5 20.067 43.933 18.5 42 18.5H30ZM31.5 24C31.5 23.7239 31.7239 23.5 32 23.5H40C40.2761 23.5 40.5 23.7239 40.5 24V40C40.5 40.2761 40.2761 40.5 40 40.5H32C31.7239 40.5 31.5 40.2761 31.5 40V24Z" fill="#081E40"/>
</svg>
