<svg width="48" height="48" viewBox="0 0 48 48" fill="none" xmlns="http://www.w3.org/2000/svg">
<path fill-rule="evenodd" clip-rule="evenodd" d="M10 3C10 2.44772 10.4477 2 11 2H13C13.5523 2 14 2.44772 14 3V6H18V3C18 2.44772 18.4477 2 19 2H21C21.5523 2 22 2.44772 22 3V6H26V3C26 2.44772 26.4477 2 27 2H29C29.5523 2 30 2.44772 30 3V6H34V3C34 2.44772 34.4477 2 35 2H37C37.5523 2 38 2.44772 38 3V6H40C41.1046 6 42 6.89543 42 8V10H45C45.5523 10 46 10.4477 46 11V13C46 13.5523 45.5523 14 45 14H42V18H45C45.5523 18 46 18.4477 46 19V21C46 21.5523 45.5523 22 45 22H42V26H45C45.5523 26 46 26.4477 46 27V29C46 29.5523 45.5523 30 45 30H42V34H45C45.5523 34 46 34.4477 46 35V37C46 37.5523 45.5523 38 45 38H42V40C42 41.1046 41.1046 42 40 42H38V45C38 45.5523 37.5523 46 37 46H35C34.4477 46 34 45.5523 34 45V42H30V45C30 45.5523 29.5523 46 29 46H27C26.4477 46 26 45.5523 26 45V42H22V45C22 45.5523 21.5523 46 21 46H19C18.4477 46 18 45.5523 18 45V42H14V45C14 45.5523 13.5523 46 13 46H11C10.4477 46 10 45.5523 10 45V42H8C6.89543 42 6 41.1046 6 40V38H3C2.44772 38 2 37.5523 2 37V35C2 34.4477 2.44772 34 3 34H6V30H3C2.44772 30 2 29.5523 2 29V27C2 26.4477 2.44772 26 3 26H6V22H3C2.44772 22 2 21.5523 2 21V19C2 18.4477 2.44772 18 3 18H6V14H3C2.44772 14 2 13.5523 2 13V11C2 10.4477 2.44772 10 3 10L6 10V8C6 6.89543 6.89543 6 8 6H10V3ZM35 12C35.5523 12 36 12.4477 36 13V35C36 35.5523 35.5523 36 35 36H13C12.4477 36 12 35.5523 12 35V13C12 12.4477 12.4477 12 13 12H35Z" fill="#081E40"/>
</svg>
