<svg width="48" height="48" viewBox="0 0 48 48" fill="none" xmlns="http://www.w3.org/2000/svg">
<path fill-rule="evenodd" clip-rule="evenodd" d="M6 2C3.79086 2 2 3.79086 2 6V42C2 44.2091 3.79086 46 6 46H43.5C44.8807 46 46 44.8807 46 43.5C46 42.1193 44.8807 41 43.5 41H9C7.89543 41 7 40.1046 7 39V9C7 7.89543 7.89543 7 9 7H39C40.1046 7 41 7.89543 41 9V28.6429C41 30.0236 42.1193 31.1429 43.5 31.1429C44.8807 31.1429 46 30.0236 46 28.6429V6C46 3.79086 44.2091 2 42 2H6ZM13.5 11.5C12.1193 11.5 11 12.6193 11 14C11 15.3807 12.1193 16.5 13.5 16.5H27.5C28.8807 16.5 30 15.3807 30 14C30 12.6193 28.8807 11.5 27.5 11.5H13.5ZM20.5 21.5C19.1193 21.5 18 22.6193 18 24C18 25.3807 19.1193 26.5 20.5 26.5H34.5C35.8807 26.5 37 25.3807 37 24C37 22.6193 35.8807 21.5 34.5 21.5H20.5ZM11 34C11 32.6193 12.1193 31.5 13.5 31.5H27.5C28.8807 31.5 30 32.6193 30 34C30 35.3807 28.8807 36.5 27.5 36.5H13.5C12.1193 36.5 11 35.3807 11 34Z" fill="#081E40"/>
</svg>
