<svg width="48" height="48" viewBox="0 0 48 48" fill="none" xmlns="http://www.w3.org/2000/svg">
<path fill-rule="evenodd" clip-rule="evenodd" d="M2 6C2 3.79086 3.79086 2 6 2H42C44.2091 2 46 3.79086 46 6V42C46 44.2091 44.2091 46 42 46H6C3.79086 46 2 44.2091 2 42V6ZM9 7C7.89543 7 7 7.89543 7 9V39C7 40.1046 7.89543 41 9 41H39C40.1046 41 41 40.1046 41 39V9C41 7.89543 40.1046 7 39 7H9ZM17.1174 13.1418C18.1436 14.0654 18.2268 15.6462 17.3032 16.6724L14.7072 19.5568C14.5293 19.7545 14.5373 20.0568 14.7253 20.2449L17.2127 22.7323C18.189 23.7086 18.189 25.2915 17.2127 26.2678C16.2364 27.2441 14.6535 27.2441 13.6772 26.2678L9.17717 21.7678C8.23697 20.8276 8.19722 19.3159 9.0867 18.3276L13.5867 13.3276C14.5104 12.3013 16.0911 12.2181 17.1174 13.1418ZM30.6968 16.6724C29.7732 15.6462 29.8564 14.0654 30.8826 13.1418C31.9089 12.2181 33.4896 12.3013 34.4133 13.3276L38.9133 18.3276C39.8028 19.3159 39.763 20.8276 38.8228 21.7678L34.3228 26.2678C33.3465 27.2441 31.7636 27.2441 30.7873 26.2678C29.811 25.2915 29.811 23.7086 30.7873 22.7323L33.2747 20.2449C33.4627 20.0568 33.4707 19.7545 33.2928 19.5568L30.6968 16.6724ZM9 34C9 32.6193 10.1193 31.5 11.5 31.5L36.5 31.5C37.8807 31.5 39 32.6193 39 34C39 35.3807 37.8807 36.5 36.5 36.5L11.5 36.5C10.1193 36.5 9 35.3807 9 34ZM19.8669 24.1024C19.3712 25.391 20.0139 26.8376 21.3026 27.3333C22.5912 27.829 24.0378 27.1863 24.5335 25.8976L28.3805 15.8976C28.8762 14.609 28.2334 13.1624 26.9448 12.6667C25.6561 12.171 24.2096 12.8137 23.7139 14.1024L19.8669 24.1024Z" fill="#081E40"/>
</svg>
