<svg width="48" height="48" viewBox="0 0 48 48" fill="none" xmlns="http://www.w3.org/2000/svg">
<path fill-rule="evenodd" clip-rule="evenodd" d="M7.75 7C7.19772 7 6.75 7.44772 6.75 8V13C6.75 13.5523 7.19772 14 7.75 14H12.75C13.3023 14 13.75 13.5523 13.75 13V8C13.75 7.44772 13.3023 7 12.75 7H7.75ZM1.75 17C1.75 18.1046 2.64543 19 3.75 19H16.75C17.8546 19 18.75 18.1046 18.75 17V4C18.75 2.89543 17.8546 2 16.75 2H3.75C2.64543 2 1.75 2.89543 1.75 4V17ZM7.75 34C7.19772 34 6.75 34.4477 6.75 35V40C6.75 40.5523 7.19772 41 7.75 41H12.75C13.3023 41 13.75 40.5523 13.75 40V35C13.75 34.4477 13.3023 34 12.75 34H7.75ZM1.75 44C1.75 45.1046 2.64543 46 3.75 46H16.75C17.8546 46 18.75 45.1046 18.75 44V31C18.75 29.8954 17.8546 29 16.75 29H3.75C2.64543 29 1.75 29.8954 1.75 31V44ZM21.25 5C21.25 3.61929 22.3693 2.5 23.75 2.5L43.75 2.5C45.1307 2.5 46.25 3.61929 46.25 5C46.25 6.38071 45.1307 7.5 43.75 7.5L23.75 7.5C22.3693 7.5 21.25 6.38071 21.25 5ZM21.25 31C21.25 29.6193 22.3693 28.5 23.75 28.5L43.75 28.5C45.1307 28.5 46.25 29.6193 46.25 31C46.25 32.3807 45.1307 33.5 43.75 33.5L23.75 33.5C22.3693 33.5 21.25 32.3807 21.25 31ZM23.75 14.5C22.3693 14.5 21.25 15.6193 21.25 17C21.25 18.3807 22.3693 19.5 23.75 19.5L43.75 19.5C45.1307 19.5 46.25 18.3807 46.25 17C46.25 15.6193 45.1307 14.5 43.75 14.5L23.75 14.5ZM21.25 43C21.25 41.6193 22.3693 40.5 23.75 40.5L43.75 40.5C45.1307 40.5 46.25 41.6193 46.25 43C46.25 44.3807 45.1307 45.5 43.75 45.5L23.75 45.5C22.3693 45.5 21.25 44.3807 21.25 43Z" fill="#081E40"/>
</svg>
