<svg width="48" height="48" viewBox="0 0 48 48" fill="none" xmlns="http://www.w3.org/2000/svg">
<path d="M23.9519 7.3441L42.381 23.0088C43.433 23.903 45.0107 23.7751 45.9049 22.7231C46.7992 21.6711 46.6712 20.0933 45.6192 19.1991L26.2476 2.73324C24.9705 1.64774 23.1032 1.61996 21.7944 2.66699L2.43835 18.1518C1.3602 19.0143 1.1854 20.5876 2.04792 21.6657C2.76979 22.568 3.98946 22.8376 5.00009 22.3959V42.604C5.00009 44.537 6.56709 46.104 8.50009 46.104H40.5001C41.8808 46.104 43.0001 44.9847 43.0001 43.604C43.0001 42.2233 41.8808 41.104 40.5001 41.104H10.0001V18.604C10.0001 18.5715 9.99947 18.5392 9.99825 18.507L23.9519 7.3441Z" fill="#081E40"/>
<path d="M20.0001 17.604C18.6194 17.604 17.5001 18.7233 17.5001 20.104C17.5001 21.4847 18.6194 22.604 20.0001 22.604H28.0001C29.3808 22.604 30.5001 21.4847 30.5001 20.104C30.5001 18.7233 29.3808 17.604 28.0001 17.604H20.0001Z" fill="#081E40"/>
<path d="M21.5015 34.0181C21.4811 33.4279 21.6685 32.8281 22.0749 32.3375L26.0749 27.509C26.9557 26.4458 28.5317 26.2979 29.595 27.1787C30.6582 28.0595 30.8061 29.6355 29.9253 30.6988L29.1754 31.604L41.0001 31.604C42.3808 31.604 43.5001 32.7233 43.5001 34.104C43.5001 35.4847 42.3808 36.604 41.0001 36.604H24.0001C22.6194 36.604 21.5001 35.4847 21.5001 34.104C21.5001 34.0752 21.5006 34.0466 21.5015 34.0181Z" fill="#081E40"/>
</svg>
