<svg width="48" height="48" viewBox="0 0 48 48" fill="none" xmlns="http://www.w3.org/2000/svg">
<path fill-rule="evenodd" clip-rule="evenodd" d="M16.4137 3.40303C17.7362 2.80898 19.1617 2.5 20.6068 2.5C22.052 2.5 23.4775 2.80898 24.8 3.40303C26.1218 3.99678 27.3091 4.86088 28.2998 5.93527C29.1686 6.87742 29.8724 7.96598 30.3873 9.14908C31.4466 8.74212 32.5783 8.52903 33.7283 8.52838L33.7297 8.52838C39.091 8.52838 43.2688 13.02 43.2688 18.3501C43.2688 21.4505 41.8547 24.2661 39.6173 26.0798C43.8635 29.477 46.4996 35.1798 46.5 41.403C46.5 43.5797 44.6974 45.1374 42.7262 45.1374H34.9701C34.8853 45.1429 34.8001 45.1456 34.7146 45.1456H6.49829C4.40393 45.1456 2.5 43.4921 2.5 41.1936C2.5 33.2347 6.25707 25.1029 12.2701 21.2602C11.5825 20.3672 11.0275 19.3714 10.6213 18.3079C10.0951 16.9304 9.82642 15.4602 9.82642 13.9795C9.82642 12.4989 10.0951 11.0287 10.6213 9.65117C11.1475 8.2735 11.9235 7.00926 12.9138 5.93527C13.9046 4.86088 15.0918 3.99678 16.4137 3.40303ZM37.4304 33.0696C37.6066 33.5738 37.7688 34.0718 37.9207 34.5529C38.4478 36.2234 38.8811 38.1494 38.9325 40.1374H41.4537C41.1157 35.5467 38.9621 31.7788 36.0979 29.6888C36.1362 29.7778 36.1748 29.8679 36.2136 29.9591C36.6813 30.9601 37.0883 32.0011 37.4304 33.0696ZM20.6068 7.5C19.8772 7.5 19.1492 7.65554 18.4624 7.96402C17.775 8.2728 17.1366 8.73156 16.5896 9.32482C16.0421 9.91849 15.5982 10.634 15.2922 11.4353C14.9861 12.2367 14.8264 13.1018 14.8264 13.9795C14.8264 14.8573 14.9861 15.7224 15.2922 16.5238C15.5982 17.325 16.0421 18.0406 16.5896 18.6343C17.1366 19.2275 17.775 19.6863 18.4624 19.9951C19.1492 20.3035 19.8772 20.4591 20.6068 20.4591C21.3365 20.4591 22.0645 20.3035 22.7512 19.9951C23.4386 19.6863 24.077 19.2275 24.6241 18.6343C25.1715 18.0406 25.6154 17.325 25.9215 16.5238C26.2276 15.7224 26.3872 14.8573 26.3872 13.9795C26.3872 13.1018 26.2276 12.2367 25.9215 11.4353C25.6154 10.634 25.1715 9.91849 24.6241 9.32482C24.077 8.73156 23.4386 8.2728 22.7512 7.96402C22.0645 7.65554 21.3365 7.5 20.6068 7.5ZM30.486 21.7233C31.3234 22.6314 32.4818 23.1714 33.7272 23.1714C36.1442 23.1714 38.2688 21.1053 38.2688 18.3501C38.2688 15.5937 36.1457 13.5287 33.7303 13.5284L32.4302 16.8125L32.4303 16.8112L33.7303 13.5284C33.3166 13.5287 32.9074 13.5884 32.5157 13.7032C32.5893 14.3003 32.6175 15.0022 32.5039 15.73C32.4979 16.0917 32.4733 16.4526 32.4303 16.8112L30.486 21.7233ZM32.1298 18.3462C31.7893 19.568 31.2304 20.7113 30.486 21.7233L32.4302 16.8125C32.3687 17.3252 32.2696 17.8332 32.1336 18.3325L32.1317 18.3393L32.1298 18.3462ZM25.7399 25.17C24.2083 26.0414 22.4664 26.5462 20.6062 26.5462C18.7448 26.5462 17.0043 26.0406 15.4735 25.1698C11.2465 27.5649 7.85238 33.4948 7.52576 40.1456H33.6871C33.5981 38.334 33.2816 36.5759 32.7826 34.9281C32.6217 34.4581 32.4545 34.0006 32.2758 33.5585L32.2632 33.5273L32.2515 33.4959C32.0528 32.9637 31.836 32.4401 31.6096 31.9095C30.1595 28.8994 28.077 26.4943 25.7399 25.17Z" fill="#081E40"/>
</svg>
