<svg width="48" height="48" viewBox="0 0 48 48" fill="none" xmlns="http://www.w3.org/2000/svg">
<path fill-rule="evenodd" clip-rule="evenodd" d="M29.2154 16.2342C29.2154 19.4822 27.8371 22.4082 25.6334 24.4593C30.8387 27.3113 34.3608 33.0158 34.3608 39.8291C34.3608 41.2098 33.2415 42.3291 31.8608 42.3291C30.48 42.3291 29.3608 41.2098 29.3608 39.8291C29.3608 32.5683 24.0876 27.5 17.9304 27.5C11.0699 27.5 6.5 33.2538 6.5 39.8291C6.5 41.2098 5.38071 42.3291 4 42.3291C2.61929 42.3291 1.5 41.2098 1.5 39.8291C1.5 33.595 4.68884 27.4004 10.2527 24.3875C8.09361 22.3402 6.74707 19.4444 6.74707 16.2342C6.74707 10.0297 11.7768 5 17.9812 5C24.1857 5 29.2154 10.0297 29.2154 16.2342ZM17.9812 22.4684C21.4243 22.4684 24.2154 19.6772 24.2154 16.2342C24.2154 12.7911 21.4243 10 17.9812 10C14.5382 10 11.7471 12.7911 11.7471 16.2342C11.7471 19.6772 14.5382 22.4684 17.9812 22.4684Z" fill="#081E40"/>
<path d="M27.6804 8.02233C27.9966 6.67832 29.3425 5.84514 30.6866 6.16138C38.6984 8.04651 40.9816 17.3313 36.211 22.8541C37.0993 23.2529 37.9979 23.7408 38.8691 24.3275C42.128 26.5223 45.1023 30.1793 45.6346 35.7693C45.7655 37.1438 44.7574 38.3642 43.3829 38.4951C42.0084 38.626 40.7881 37.6178 40.6572 36.2433C40.2908 32.3966 38.322 29.9872 36.0761 28.4747C33.7601 26.9149 31.2478 26.3873 30.1572 26.3737C29.9701 26.377 29.7852 26.3591 29.6055 26.3216C28.8567 26.1654 28.1988 25.6689 27.8569 24.9491C27.7709 24.7691 27.7059 24.5772 27.6649 24.3765C27.5845 23.9875 27.6001 23.5969 27.6974 23.2318C27.7635 22.982 27.8673 22.7475 28.0024 22.5348C28.2375 22.1636 28.571 21.8524 28.9802 21.6449C29.1153 21.5759 29.2575 21.519 29.4055 21.4753C35.5079 19.5119 34.6599 12.2328 29.5414 11.0285C28.1973 10.7122 27.3642 9.36633 27.6804 8.02233Z" fill="#081E40"/>
</svg>
