<svg width="48" height="48" viewBox="0 0 48 48" fill="none" xmlns="http://www.w3.org/2000/svg">
<path fill-rule="evenodd" clip-rule="evenodd" d="M24 23C28.4183 23 32 19.4183 32 15C32 10.5817 28.4183 7 24 7C19.5817 7 16 10.5817 16 15C16 19.4183 19.5817 23 24 23ZM24 28C31.1797 28 37 22.1797 37 15C37 7.8203 31.1797 2 24 2C16.8203 2 11 7.8203 11 15C11 22.1797 16.8203 28 24 28Z" fill="#081E40"/>
<path fill-rule="evenodd" clip-rule="evenodd" d="M33 35H15C11.4735 35 8.55612 37.6077 8.07089 41H39.9291C39.4439 37.6077 36.5265 35 33 35ZM44.9589 41C44.4508 34.8405 39.2907 30 33 30H15C8.70934 30 3.54922 34.8405 3.04107 41C3.01387 41.3297 3 41.6632 3 42V43C3 44.6569 4.34315 46 6 46H42C43.6569 46 45 44.6569 45 43V42C45 41.6632 44.9861 41.3297 44.9589 41Z" fill="#081E40"/>
</svg>
