<svg width="48" height="48" viewBox="0 0 48 48" fill="none" xmlns="http://www.w3.org/2000/svg">
<path fill-rule="evenodd" clip-rule="evenodd" d="M21.5 5C21.5 3.61929 22.6193 2.5 24 2.5L43.5 2.5C44.8807 2.5 46 3.61929 46 5C46 6.38071 44.8807 7.5 43.5 7.5L24 7.5C22.6193 7.5 21.5 6.38071 21.5 5Z" fill="#081E40"/>
<path fill-rule="evenodd" clip-rule="evenodd" d="M21.5 31C21.5 29.6193 22.6193 28.5 24 28.5L43.5 28.5C44.8807 28.5 46 29.6193 46 31C46 32.3807 44.8807 33.5 43.5 33.5L24 33.5C22.6193 33.5 21.5 32.3807 21.5 31Z" fill="#081E40"/>
<path fill-rule="evenodd" clip-rule="evenodd" d="M21.5 17C21.5 15.6193 22.6193 14.5 24 14.5L43.5 14.5C44.8807 14.5 46 15.6193 46 17C46 18.3807 44.8807 19.5 43.5 19.5L24 19.5C22.6193 19.5 21.5 18.3807 21.5 17Z" fill="#081E40"/>
<path fill-rule="evenodd" clip-rule="evenodd" d="M21.5 43C21.5 41.6193 22.6193 40.5 24 40.5L43.5 40.5C44.8807 40.5 46 41.6193 46 43C46 44.3807 44.8807 45.5 43.5 45.5L24 45.5C22.6193 45.5 21.5 44.3807 21.5 43Z" fill="#081E40"/>
<path fill-rule="evenodd" clip-rule="evenodd" d="M8 7C7.44772 7 7 7.44772 7 8V13C7 13.5523 7.44772 14 8 14H13C13.5523 14 14 13.5523 14 13V8C14 7.44772 13.5523 7 13 7H8ZM4 2C2.89543 2 2 2.89543 2 4V17C2 18.1046 2.89543 19 4 19H17C18.1046 19 19 18.1046 19 17V4C19 2.89543 18.1046 2 17 2H4Z" fill="#081E40"/>
<path fill-rule="evenodd" clip-rule="evenodd" d="M8 34C7.44772 34 7 34.4477 7 35V40C7 40.5523 7.44772 41 8 41H13C13.5523 41 14 40.5523 14 40V35C14 34.4477 13.5523 34 13 34H8ZM4 29C2.89543 29 2 29.8954 2 31V44C2 45.1046 2.89543 46 4 46H17C18.1046 46 19 45.1046 19 44V31C19 29.8954 18.1046 29 17 29H4Z" fill="#081E40"/>
</svg>
