<svg width="48" height="48" viewBox="0 0 48 48" fill="none" xmlns="http://www.w3.org/2000/svg">
<path fill-rule="evenodd" clip-rule="evenodd" d="M11.5 5.5C11.5 3.29086 13.2909 1.5 15.5 1.5H42.5C44.7091 1.5 46.5 3.29086 46.5 5.5V42.5C46.5 44.7091 44.7091 46.5 42.5 46.5H5.5C3.29086 46.5 1.5 44.7091 1.5 42.5V14.5C1.5 12.2909 3.29086 10.5 5.5 10.5H11.5V5.5ZM11.5 15.5H8.5C7.39543 15.5 6.5 16.3954 6.5 17.5V39.5C6.5 40.6046 7.39543 41.5 8.5 41.5H39.5C40.6046 41.5 41.5 40.6046 41.5 39.5V8.5C41.5 7.39543 40.6046 6.5 39.5 6.5H18.5C17.3954 6.5 16.5 7.39543 16.5 8.5V35.5C16.5 36.8807 15.3807 38 14 38L-nan -nanL14 38C12.6193 38 11.5 36.8807 11.5 35.5V15.5Z" fill="#081E40"/>
<path fill-rule="evenodd" clip-rule="evenodd" d="M33.5 18C34.8807 18 36 16.8807 36 15.5C36 14.1193 34.8807 13 33.5 13H24.5C23.1193 13 22 14.1193 22 15.5C22 16.8807 23.1193 18 24.5 18H33.5ZM33.5 30C34.8807 30 36 28.8807 36 27.5C36 26.1193 34.8807 25 33.5 25H24.5C23.1193 25 22 26.1193 22 27.5C22 28.8807 23.1193 30 24.5 30H33.5Z" fill="#081E40"/>
</svg>
