<svg width="48" height="48" viewBox="0 0 48 48" fill="none" xmlns="http://www.w3.org/2000/svg">
<path fill-rule="evenodd" clip-rule="evenodd" d="M2 6C2 3.79086 3.79086 2 6 2H42C44.2091 2 46 3.79086 46 6V23C46 24.3807 44.8807 25.5 43.5 25.5C42.1193 25.5 41 24.3807 41 23V9C41 7.89543 40.1046 7 39 7H9C7.89543 7 7 7.89543 7 9V31.5C7 32.6046 7.89543 33.5 9 33.5H43.5C44.8807 33.5 46 34.6193 46 36C46 37.3807 44.8807 38.5 43.5 38.5H6C3.79086 38.5 2 36.7091 2 34.5V6ZM13.5 29.5C12.1193 29.5 11 28.3807 11 27V17.5C11 16.1193 12.1193 15 13.5 15C14.8807 15 16 16.1193 16 17.5V27C16 28.3807 14.8807 29.5 13.5 29.5ZM21.5 27C21.5 28.3807 22.6193 29.5 24 29.5C25.3807 29.5 26.5 28.3807 26.5 27V22C26.5 20.6193 25.3807 19.5 24 19.5C22.6193 19.5 21.5 20.6193 21.5 22V27ZM34 29.5C32.6193 29.5 31.5 28.3807 31.5 27V14C31.5 12.6193 32.6193 11.5 34 11.5C35.3807 11.5 36.5 12.6193 36.5 14V27C36.5 28.3807 35.3807 29.5 34 29.5ZM40 46C41.3807 46 42.5 44.8807 42.5 43.5C42.5 42.1193 41.3807 41 40 41H8C6.61929 41 5.5 42.1193 5.5 43.5C5.5 44.8807 6.61929 46 8 46H40Z" fill="#081E40"/>
</svg>
