<svg width="48" height="48" viewBox="0 0 48 48" fill="none" xmlns="http://www.w3.org/2000/svg">
<path fill-rule="evenodd" clip-rule="evenodd" d="M37.5832 8.74696C38.8276 9.34521 39.3514 10.839 38.7531 12.0833L26.2531 38.0833C25.6549 39.3277 24.1611 39.8515 22.9168 39.2532C21.6724 38.655 21.1486 37.1612 21.7469 35.9169L34.2469 9.91685C34.8451 8.67248 36.3389 8.1487 37.5832 8.74696ZM25.7126 16.9834C21.8439 16.5357 16.5234 17.7426 12.5737 20.9425C7.56485 25.0005 5 29.9587 5 37C5 38.3807 3.88071 39.5 2.5 39.5C1.11929 39.5 0 38.3807 0 37C0 28.4168 3.27204 22.0434 9.42626 17.0575C14.4766 12.9659 21.1561 11.4227 26.2874 12.0166C27.659 12.1753 28.6422 13.4159 28.4834 14.7874C28.3247 16.159 27.0841 17.1422 25.7126 16.9834ZM40.9531 19.9658C39.8296 19.1632 38.2682 19.4235 37.4657 20.547C36.6631 21.6705 36.9234 23.2319 38.0469 24.0344C39.2224 24.874 40.4961 26.7238 41.4876 29.2317C42.4546 31.6778 43 34.8654 43 37C43 38.3807 44.1193 39.5 45.5 39.5C46.8807 39.5 48 38.3807 48 37C48 34.1346 47.2954 30.3224 46.1374 27.3934C45.0039 24.5263 43.2776 21.6261 40.9531 19.9658Z" fill="#081E40"/>
</svg>
