<svg width="48" height="48" viewBox="0 0 48 48" fill="none" xmlns="http://www.w3.org/2000/svg">
<path fill-rule="evenodd" clip-rule="evenodd" d="M4 4C4 1.79086 5.79086 0 8 0H34C36.2091 0 38 1.79086 38 4V7.5H40C42.2091 7.5 44 9.29086 44 11.5V44C44 46.2091 42.2091 48 40 48H8C5.79086 48 4 46.2091 4 44V4ZM33 7V7.5H9V7C9 5.89543 9.89543 5 11 5H31C32.1046 5 33 5.89543 33 7ZM39 14.5C39 13.3954 38.1046 12.5 37 12.5H11C9.89543 12.5 9 13.3954 9 14.5V41C9 42.1046 9.89543 43 11 43H37C38.1046 43 39 42.1046 39 41V14.5ZM12.5 23C12.5 21.6193 13.6193 20.5 15 20.5H33C34.3807 20.5 35.5 21.6193 35.5 23C35.5 24.3807 34.3807 25.5 33 25.5L15 25.5C13.6193 25.5 12.5 24.3807 12.5 23ZM12.5 34C12.5 32.6193 13.6193 31.5 15 31.5L33 31.5C34.3807 31.5 35.5 32.6193 35.5 34C35.5 35.3807 34.3807 36.5 33 36.5H15C13.6193 36.5 12.5 35.3807 12.5 34Z" fill="#081E40"/>
</svg>
