<svg width="48" height="48" viewBox="0 0 48 48" fill="none" xmlns="http://www.w3.org/2000/svg">
<path d="M40 0C42.2091 0 44 1.79086 44 4V37C44 39.2091 42.2091 41 40 41V44C40 46.2091 38.2091 48 36 48H6C3.79086 48 2 46.2091 2 44V10C2 7.79086 3.79086 6 6 6H10V4C10 1.79086 11.7909 8.05321e-09 14 0H40ZM8.75 10.375C7.64543 10.375 6.75 11.2704 6.75 12.375V41.625C6.75 42.7296 7.64543 43.625 8.75 43.625H33.25C34.3546 43.625 35.25 42.7296 35.25 41.625V41H14C11.7909 41 10 39.2091 10 37V10.375H8.75ZM16.25 4.27148C15.1456 4.27148 14.2503 5.16616 14.25 6.27051V34.7295C14.2501 35.834 15.1455 36.7295 16.25 36.7295H37.75C38.8545 36.7295 39.7499 35.834 39.75 34.7295V6.27051C39.7497 5.16616 38.8544 4.27148 37.75 4.27148H37V12.2764C37 13.0441 36.1705 13.5262 35.5039 13.1455L30.9961 10.5693C30.6887 10.3937 30.3113 10.3937 30.0039 10.5693L25.4961 13.1455C24.8295 13.5262 24 13.0441 24 12.2764V4.27148H16.25ZM26.5 27C27.8807 27 29 28.1193 29 29.5C29 30.8807 27.8807 32 26.5 32H18.5C17.1193 32 16 30.8807 16 29.5C16 28.1193 17.1193 27 18.5 27H26.5ZM33.5 18C34.8807 18 36 19.1193 36 20.5C36 21.8807 34.8807 23 33.5 23H18.5C17.1193 23 16 21.8807 16 20.5C16 19.1193 17.1193 18 18.5 18H33.5Z" fill="#081E40"/>
</svg>
