<svg width="48" height="48" viewBox="0 0 48 48" fill="none" xmlns="http://www.w3.org/2000/svg">
<path fill-rule="evenodd" clip-rule="evenodd" d="M4 4C4 1.79086 5.79086 0 8 0H34C36.2091 0 38 1.79086 38 4V7.5H40C42.2091 7.5 44 9.29086 44 11.5V44C44 46.2091 42.2091 48 40 48H8C5.79086 48 4 46.2091 4 44V13.5V7.5V4ZM9 7.5H33V7C33 5.89543 32.1046 5 31 5H11C9.89543 5 9 5.89543 9 7V7.5ZM15 20.5C13.6193 20.5 12.5 21.6193 12.5 23C12.5 24.3807 13.6193 25.5 15 25.5L33 25.5C34.3807 25.5 35.5 24.3807 35.5 23C35.5 21.6193 34.3807 20.5 33 20.5L15 20.5ZM15 31.5C13.6193 31.5 12.5 32.6193 12.5 34C12.5 35.3807 13.6193 36.5 15 36.5H33C34.3807 36.5 35.5 35.3807 35.5 34C35.5 32.6193 34.3807 31.5 33 31.5L15 31.5ZM37 12.5C38.1046 12.5 39 13.3954 39 14.5V41C39 42.1046 38.1046 43 37 43H11C9.89543 43 9 42.1046 9 41V14.5C9 13.3954 9.89543 12.5 11 12.5H37Z" fill="#081E40"/>
</svg>
