<svg width="43" height="48" viewBox="0 0 43 48" fill="none" xmlns="http://www.w3.org/2000/svg">
<path d="M21.8475 8.60364L34.7372 16.0455V30.9293L21.8475 38.3711L8.95776 30.9293V16.0455L21.8475 8.60364Z" fill="#EAF4FF"/>
<path fill-rule="evenodd" clip-rule="evenodd" d="M19.2813 0.549899C20.5515 -0.1833 22.117 -0.1833 23.3872 0.549899L40.6155 10.4978C41.8858 11.2312 42.6684 12.5866 42.6685 14.0533V33.9471C42.6685 35.4139 41.8858 36.7692 40.6155 37.5026L23.3872 47.4505L23.1456 47.5788C22.0038 48.1404 20.6647 48.1404 19.5229 47.5788L19.2813 47.4505L2.05293 37.5026C0.862018 36.815 0.0996151 35.581 0.00902166 34.2208L0 33.9471V14.0533C0.000104935 12.6782 0.687643 11.4007 1.82037 10.6421L2.05293 10.4978L19.2813 0.549899ZM4.10586 33.9471L18.8132 42.4385C18.7844 42.2846 18.7681 42.1257 18.7681 41.9634V25.1971L4.10586 17.0515V33.9471ZM23.9004 25.1971V41.9634C23.9004 42.1257 23.8831 42.2845 23.8543 42.4385L38.5626 33.9471V17.0515L23.9004 25.1971ZM6.64095 12.5888L21.3342 20.7514L36.0275 12.5898L21.3342 4.10644L6.64095 12.5888Z" fill="#2D8DFE"/>
</svg>
