<svg width="48" height="48" viewBox="0 0 48 48" fill="none" xmlns="http://www.w3.org/2000/svg">
<path fill-rule="evenodd" clip-rule="evenodd" d="M9.81966 45H38.1793C41.9406 45 45 41.9406 45 38.1793V9.81966C45 6.05938 41.9406 3 38.1793 3H9.81966C6.05938 3 3 6.05938 3 9.81966V38.1793C3 41.9406 6.05938 45 9.81966 45ZM7.54035 9.81966C7.54035 8.56251 8.56251 7.54035 9.81966 7.54035H38.1793C39.4365 7.54035 40.4596 8.56251 40.4596 9.81966V38.1793C40.4596 39.4365 39.4365 40.4596 38.1793 40.4596H9.81966C8.56251 40.4596 7.54035 39.4365 7.54035 38.1793V9.81966ZM13.4877 30.3523C13.9386 30.8576 14.572 31.1157 15.2084 31.1157C15.7388 31.1157 16.2723 30.936 16.7028 30.5702C17.6531 29.7647 17.7525 28.3631 16.9265 27.4384L14.3014 24.4996L16.9265 21.5603C17.7525 20.6357 17.6531 19.234 16.7028 18.4285C15.7556 17.6239 14.3147 17.7207 13.4877 18.6464L9.56023 23.0424C8.81326 23.8772 8.81326 25.1215 9.56023 25.9563L13.4877 30.3523ZM30.2972 30.5702C30.7277 30.9355 31.2607 31.1157 31.7916 31.1157C32.4285 31.1157 33.0614 30.8576 33.5123 30.3528L37.4398 25.9568C38.1867 25.122 38.1867 23.8777 37.4398 23.0429L33.5123 18.6469C32.6853 17.7212 31.2444 17.6244 30.2972 18.429C29.3469 19.2345 29.2475 20.6362 30.0735 21.5608L32.6986 24.4996L30.0735 27.4384C29.2475 28.3631 29.3469 29.7647 30.2972 30.5702ZM19.2403 34.8397C19.5185 34.9479 19.8054 35 20.0882 35C20.9921 35 21.8476 34.4719 22.2053 33.6058L29.0264 17.0477C29.4946 15.9091 28.927 14.6171 27.7597 14.1595C26.5908 13.7044 25.2635 14.2563 24.7947 15.3934L17.9736 31.9515C17.5054 33.0901 18.073 34.3821 19.2403 34.8397Z" fill="#081E40"/>
</svg>
