<svg width="48" height="48" viewBox="0 0 48 48" fill="none" xmlns="http://www.w3.org/2000/svg">
<path fill-rule="evenodd" clip-rule="evenodd" d="M15.4852 3.16639C15.0005 1.3431 12.4926 1.14323 11.7252 2.86673L1.90208 24.9303C1.36598 26.1345 1.67862 27.5475 2.67267 28.413L22.6866 45.84C23.4395 46.4955 24.5605 46.4955 25.3134 45.84L45.3273 28.413C46.3213 27.5475 46.634 26.1345 46.0979 24.9303L36.2748 2.86676C35.5075 1.14325 32.9995 1.34312 32.5148 3.16641L28.8491 16.9565H19.1509L15.4852 3.16639ZM14.4947 16.9565L12.9704 11.2223L10.3979 16.9565H14.4947ZM12.0491 21.4565H15.6909L18.1001 30.5197L12.0491 21.4565ZM7.67957 23.016L6.43386 25.7929L13.6001 31.8839L7.67957 23.016ZM27.6529 21.4565L24 35.1983L20.3471 21.4565H27.6529ZM32.3092 21.4565L29.8341 30.7674L36.0504 21.4565H32.3092ZM41.5661 25.7929L34.6301 31.6882L40.3604 23.1053L41.5661 25.7929ZM37.6021 16.9565L35.0297 11.2223L33.5054 16.9565H37.6021Z" fill="#081E40"/>
</svg>
