<svg width="48" height="48" viewBox="0 0 48 48" fill="none" xmlns="http://www.w3.org/2000/svg">
<path d="M24 0C37.2547 2.1647e-05 47.9999 10.7452 47.9999 24C47.9999 37.2547 37.2547 47.9999 24 47.9999C10.7452 47.9999 2.16484e-05 37.2547 0 24C2.12037e-05 10.7452 10.7452 2.12051e-05 24 0ZM8.97166 12.6074C6.56867 15.7724 5.14258 19.7196 5.14257 24C5.14259 34.4146 13.5853 42.8573 24 42.8573C28.2892 42.8573 32.2428 41.4237 35.4111 39.0117L8.97166 12.6074ZM24 5.14257C19.7196 5.14258 15.7724 6.56867 12.6074 8.97166L39.0429 35.371C41.4364 32.2096 42.8573 28.271 42.8573 24C42.8573 13.5853 34.4146 5.14259 24 5.14257Z" fill="#081E40"/>
</svg>
