<svg width="48" height="48" viewBox="0 0 48 48" fill="none" xmlns="http://www.w3.org/2000/svg">
<path d="M20.5879 2.00098C27.7739 2.00102 33.5996 7.76839 33.5996 14.8828V17.6152C32.3377 16.6137 30.7421 16.0146 29.0059 16.0146C28.9879 16.0147 28.97 16.0155 28.9521 16.0156V14.8828C28.9521 10.3093 25.2074 6.6016 20.5879 6.60156C15.9683 6.60156 12.2237 10.3093 12.2236 14.8828V20.4033H22.2471C21.8366 21.3233 21.6065 22.3416 21.6064 23.4141C21.6065 23.9606 21.6679 24.4926 21.7803 25.0049H8.50586C7.47928 25.0049 6.64648 25.8284 6.64648 26.8447V39.7266C6.64674 40.7427 7.47944 41.5674 8.50586 41.5674H21.6396C21.6196 41.7894 21.6065 42.014 21.6064 42.2412C21.6065 43.6839 22.021 45.0296 22.7354 46.168H5.71777C3.66486 46.168 2.00039 44.5197 2 42.4873V24.084C2.00017 22.0514 3.66472 20.4033 5.71777 20.4033H7.57617V14.8828C7.57623 7.76836 13.4019 2.00098 20.5879 2.00098ZM29.3389 19C31.7353 19 33.6785 20.9425 33.6787 23.3389L33.6729 23.5625C33.582 25.3543 32.4037 26.8585 30.7852 27.4307V34.2559C32.0718 33.6843 33.5929 33.5712 34.7598 33.4697C36.2383 33.3412 37.282 33.2249 37.999 32.8301C38.3048 32.6616 38.5216 32.4531 38.6768 32.1621C38.6812 32.1537 38.684 32.1444 38.6885 32.1357C37.2234 31.493 36.1809 30.0649 36.0957 28.3838L36.0898 28.1602C36.0902 25.7639 38.0334 23.8214 40.4297 23.8213C42.8258 23.8215 44.7682 25.764 44.7686 28.1602C44.7686 30.122 43.4666 31.7795 41.6797 32.3164C41.5742 32.7491 41.4273 33.1522 41.2295 33.5234C40.7783 34.3696 40.128 34.9602 39.3945 35.3643C38.0326 36.1142 36.3041 36.2391 35.0107 36.3516C33.5322 36.4801 32.4876 36.5965 31.7705 36.9912C31.4649 37.1596 31.2489 37.3684 31.0938 37.6592C31.0892 37.6677 31.0846 37.6768 31.0801 37.6855C32.61 38.3562 33.6785 39.8838 33.6787 41.6611C33.6786 43.9828 31.8553 45.879 29.5625 45.9951L29.3398 46.001C27.0184 46.0008 25.1221 44.1774 25.0059 41.8848L25 41.6611C25.0002 39.7724 26.2077 38.1653 27.8926 37.5693V27.4307C26.2075 26.8348 25 25.228 25 23.3389C25.0002 20.9427 26.9427 19.0002 29.3389 19ZM29.3398 40.2148C28.5414 40.215 27.8938 40.8627 27.8936 41.6611C27.8936 42.4597 28.5413 43.1073 29.3398 43.1074C30.1384 43.1072 30.786 42.4597 30.7861 41.6611C30.7859 40.8627 30.1383 40.2151 29.3398 40.2148ZM20.5879 28.6846C22.1277 28.6846 23.3759 29.9208 23.376 31.4453C23.3758 32.2627 23.0166 32.9976 22.4463 33.5029V35.126C22.446 36.1421 21.6143 36.9658 20.5879 36.9658C19.5615 36.9658 18.7298 36.1421 18.7295 35.126V33.5029C18.1592 32.9976 17.7999 32.2627 17.7998 31.4453C17.7999 29.9208 19.0481 28.6846 20.5879 28.6846ZM40.4297 26.7139C39.6312 26.7139 38.9837 27.3617 38.9834 28.1602C38.9834 28.9589 39.631 29.6064 40.4297 29.6064C41.2283 29.6062 41.876 28.9588 41.876 28.1602C41.8757 27.3618 41.2281 26.7141 40.4297 26.7139ZM29.3389 21.8926C28.5404 21.8928 27.8928 22.5404 27.8926 23.3389C27.8926 24.1374 28.5403 24.7849 29.3389 24.7852C30.1376 24.7852 30.7851 24.1376 30.7852 23.3389C30.7849 22.5403 30.1375 21.8926 29.3389 21.8926ZM35.7695 20.416C36.5832 20.4829 37.322 20.8095 37.9023 21.3115C37.3271 21.4876 36.7816 21.7313 36.2754 22.0342C36.1688 21.4693 35.9966 20.9277 35.7695 20.416Z" fill="#081E40"/>
</svg>
