<svg width="48" height="48" viewBox="0 0 48 48" fill="none" xmlns="http://www.w3.org/2000/svg">
<path fill-rule="evenodd" clip-rule="evenodd" d="M1 11.8472V36.1527C1 36.9938 1.46525 37.7523 2.17949 38.0758L22.5256 47.2906C23.4692 47.7179 24.5308 47.7179 25.4744 47.2906L45.8205 38.0758C46.5348 37.7523 47 36.9938 47 36.1527V11.8472V11.7819C46.9767 10.967 46.5163 10.2393 45.8205 9.92417L25.4744 0.709429C24.5308 0.282078 23.4692 0.282079 22.5256 0.709429L2.17949 9.92417C1.56222 10.2037 1.13093 10.8082 1.02519 11.5101L1 11.5V11.8472ZM41.872 13.7783C35.6325 16.2122 25.714 20.0987 24 20.875C23.285 20.5512 21.1426 19.6638 18.4351 18.5566L35.1895 10.7518L41.872 13.7783ZM12.3308 16.0735C10.2433 15.2276 8.16863 14.3892 6.37607 13.6659L24 5.68405L30.1836 8.48459L12.3308 16.0735ZM42.2083 18.2708L25.9167 25.6493V41.4479L42.2083 34.0694V18.2708ZM5.79167 18.2708L21.125 25.2152V41.0138L5.79167 34.0694V18.2708Z" fill="#081E40"/>
</svg>
