<svg width="48" height="48" viewBox="0 0 48 48" fill="none" xmlns="http://www.w3.org/2000/svg">
<path fill-rule="evenodd" clip-rule="evenodd" d="M38 19.1812L23.9518 7.24022L9.99812 18.4031C9.99935 18.4353 9.99997 18.4676 9.99997 18.5001V41.0001H38V19.1812ZM43 23.2921C43.9843 23.722 45.1733 23.4798 45.9048 22.6192C46.799 21.5672 46.6711 19.9895 45.6191 19.0952L26.2475 2.62936C24.9704 1.54385 23.103 1.51608 21.7943 2.5631L2.43823 18.0479C1.36008 18.9104 1.18527 20.4837 2.0478 21.5618C2.76966 22.4642 3.98934 22.7338 4.99997 22.2921V42.5001C4.99997 44.4331 6.56697 46.0001 8.49997 46.0001H39.5C41.433 46.0001 43 44.4331 43 42.5001V23.2921ZM27 22.5001C27 24.1569 25.6568 25.5001 24 25.5001C22.3431 25.5001 21 24.1569 21 22.5001C21 20.8432 22.3431 19.5001 24 19.5001C25.6568 19.5001 27 20.8432 27 22.5001ZM32 22.5001C32 24.4923 31.2718 26.3144 30.067 27.7148C33.4315 29.8004 35.5 33.4798 35.5 37.0001C35.5 38.3808 34.3807 39.5001 33 39.5001C31.6193 39.5001 30.5 38.3808 30.5 37.0001C30.5 34.3186 27.8945 31.0001 24 31.0001C20.1054 31.0001 17.5 34.3186 17.5 37.0001C17.5 38.3808 16.3807 39.5001 15 39.5001C13.6193 39.5001 12.5 38.3808 12.5 37.0001C12.5 33.4798 14.5684 29.8004 17.9329 27.7148C16.7282 26.3144 16 24.4923 16 22.5001C16 18.0818 19.5817 14.5001 24 14.5001C28.4182 14.5001 32 18.0818 32 22.5001Z" fill="#081E40"/>
</svg>
