<svg width="48" height="48" viewBox="0 0 48 48" fill="none" xmlns="http://www.w3.org/2000/svg">
<path fill-rule="evenodd" clip-rule="evenodd" d="M23.9519 7.23998L38 19.1809V40.9999H10V18.4999C10 18.4674 9.99938 18.4351 9.99816 18.403L23.9519 7.23998ZM45.9049 22.619C45.1734 23.4796 43.9844 23.7218 43 23.2918V42.4999C43 44.4329 41.433 45.9999 39.5 45.9999H8.5C6.567 45.9999 5 44.4329 5 42.4999V22.2919C3.98938 22.7335 2.76976 22.4639 2.04792 21.5616C1.1854 20.4834 1.3602 18.9102 2.43835 18.0477L21.7944 2.56286C23.1032 1.51583 24.9705 1.54361 26.2476 2.62911L45.6192 19.095C46.6712 19.9892 46.7992 21.567 45.9049 22.619ZM24 25.4999C25.6569 25.4999 27 24.1567 27 22.4999C27 20.843 25.6569 19.4999 24 19.4999C22.3431 19.4999 21 20.843 21 22.4999C21 24.1567 22.3431 25.4999 24 25.4999ZM32 22.4999C32 24.4921 31.2718 26.3142 30.0671 27.7146C33.4315 29.8001 35.5 33.4795 35.5 36.9999C35.5 38.3806 34.3807 39.4999 33 39.4999C31.6193 39.4999 30.5 38.3806 30.5 36.9999C30.5 34.3183 27.8945 30.9999 24 30.9999C20.1055 30.9999 17.5 34.3183 17.5 36.9999C17.5 38.3806 16.3807 39.4999 15 39.4999C13.6193 39.4999 12.5 38.3806 12.5 36.9999C12.5 33.4795 14.5685 29.8001 17.9329 27.7146C16.7282 26.3142 16 24.4921 16 22.4999C16 18.0816 19.5817 14.4999 24 14.4999C28.4183 14.4999 32 18.0816 32 22.4999Z" fill="#081E40"/>
</svg>
