<svg width="48" height="48" viewBox="0 0 48 48" fill="none" xmlns="http://www.w3.org/2000/svg">
<g clip-path="url(#clip0_2209_6006)">
<path fill-rule="evenodd" clip-rule="evenodd" d="M28.2943 9.82744L26.5 8.15285V21.9999L39.4645 21.9999L38.2323 20.7677C37.256 19.7914 37.256 18.2084 38.2323 17.2321C39.2086 16.2558 40.7915 16.2558 41.7678 17.2321L46.9143 22.3786C48.0858 23.5501 48.0858 25.4496 46.9143 26.6212L41.7678 31.7677C40.7915 32.744 39.2086 32.744 38.2323 31.7677C37.256 30.7914 37.256 29.2084 38.2323 28.2321L39.4645 26.9999L26.5 26.9999V39.4644L28.7323 37.2321C29.7086 36.2558 31.2915 36.2558 32.2678 37.2321C33.2441 38.2084 33.2441 39.7914 32.2678 40.7677L26.1214 46.9141C24.9498 48.0857 23.0503 48.0857 21.8787 46.9141L15.7323 40.7677C14.756 39.7914 14.756 38.2084 15.7323 37.2321C16.7086 36.2558 18.2915 36.2558 19.2678 37.2321L21.5 39.4644V26.9999L8.53558 26.9999L9.76781 28.2321C10.7441 29.2084 10.7441 30.7914 9.76781 31.7677C8.7915 32.744 7.20859 32.744 6.23228 31.7677L1.08583 26.6212C-0.0857385 25.4496 -0.0857413 23.5502 1.08583 22.3786L6.23228 17.2321C7.20859 16.2558 8.7915 16.2558 9.76781 17.2321C10.7441 18.2084 10.7441 19.7914 9.76781 20.7677L8.53558 21.9999L21.5 21.9999V8.15285L19.7058 9.82744C18.6965 10.7695 17.1145 10.715 16.1724 9.7056C15.2303 8.69623 15.2849 7.11425 16.2942 6.17217L21.9531 0.890576C23.1057 -0.185206 24.8944 -0.185204 26.047 0.890576L31.7058 6.17217C32.7152 7.11425 32.7698 8.69623 31.8277 9.7056C30.8856 10.715 29.3036 10.7695 28.2943 9.82744Z" fill="#081E40"/>
</g>
<defs>
<clipPath id="clip0_2209_6006">
<rect width="48" height="48" fill="white"/>
</clipPath>
</defs>
</svg>
