<svg width="48" height="48" viewBox="0 0 48 48" fill="none" xmlns="http://www.w3.org/2000/svg">
<path fill-rule="evenodd" clip-rule="evenodd" d="M9 7C7.89543 7 7 7.89543 7 9V39C7 40.1046 7.89543 41 9 41H39C40.1046 41 41 40.1046 41 39V9C41 7.89543 40.1046 7 39 7H9ZM6 2C3.79086 2 2 3.79086 2 6V42C2 44.2091 3.79086 46 6 46H42C44.2091 46 46 44.2091 46 42V6C46 3.79086 44.2091 2 42 2H6Z" fill="#081E40"/>
<path d="M15 24C15 22.6193 16.1193 21.5 17.5 21.5H30.5C31.8807 21.5 33 22.6193 33 24C33 25.3807 31.8807 26.5 30.5 26.5H17.5C16.1193 26.5 15 25.3807 15 24Z" fill="#081E40"/>
</svg>
