<svg width="48" height="48" viewBox="0 0 48 48" fill="none" xmlns="http://www.w3.org/2000/svg">
<path fill-rule="evenodd" clip-rule="evenodd" d="M22.0004 1.15465C23.238 0.440283 24.7629 0.440179 26.0004 1.15465L42.7846 10.8451C44.0221 11.5595 44.7844 12.8801 44.7846 14.3089V33.6908C44.7845 35.1198 44.0222 36.4402 42.7846 37.1546L26.0004 46.8451C24.7629 47.5596 23.238 47.5595 22.0004 46.8451L5.21527 37.1546C3.97773 36.4401 3.21534 35.1198 3.21527 33.6908V14.3089C3.21544 12.8801 3.97779 11.5595 5.21527 10.8451L22.0004 1.15465ZM8.66937 32.2738C8.66949 32.631 8.86101 32.9614 9.17035 33.14L21.8178 40.4408V25.266L8.66937 17.7523V32.2738ZM26.1821 25.266V40.4408L38.8305 33.14C39.1398 32.9614 39.3304 32.631 39.3305 32.2738V17.7523L26.1821 25.266ZM24.5004 6.58727C24.1911 6.40868 23.8098 6.40871 23.5004 6.58727L10.7778 13.931L23.9995 21.4867L37.2221 13.931L24.5004 6.58727Z" fill="#081E40"/>
</svg>
