<svg width="48" height="48" viewBox="0 0 48 48" fill="none" xmlns="http://www.w3.org/2000/svg">
<path fill-rule="evenodd" clip-rule="evenodd" d="M4 4C4 1.79086 5.79086 0 8 0H28.1488C29.3508 0 30.4892 0.540591 31.2488 1.4722L43.1 16.0062C43.6821 16.7201 44 17.613 44 18.534V44C44 46.2091 42.2091 48 40 48H8C5.79086 48 4 46.2091 4 44V4ZM11 5C9.89543 5 9 5.89543 9 7V41C9 42.1046 9.89543 43 11 43H37C38.1046 43 39 42.1046 39 41V20.5H27C25.3431 20.5 24 19.1569 24 17.5V5H11ZM29 6.62633L36.2357 15.5H30C29.4477 15.5 29 15.0523 29 14.5V6.62633ZM12.5 27C12.5 25.6193 13.6193 24.5 15 24.5H33C34.3807 24.5 35.5 25.6193 35.5 27C35.5 28.3807 34.3807 29.5 33 29.5H15C13.6193 29.5 12.5 28.3807 12.5 27ZM12.5 36C12.5 34.6193 13.6193 33.5 15 33.5H33C34.3807 33.5 35.5 34.6193 35.5 36C35.5 37.3807 34.3807 38.5 33 38.5H15C13.6193 38.5 12.5 37.3807 12.5 36Z" fill="#081E40"/>
</svg>
