<svg width="48" height="48" viewBox="0 0 48 48" fill="none" xmlns="http://www.w3.org/2000/svg">
<path fill-rule="evenodd" clip-rule="evenodd" d="M5 2C3.61929 2 2.5 3.11929 2.5 4.5C2.5 5.88071 3.61929 7 5 7L7.80007 7L16.3027 18.4288C16.4311 18.6013 16.5004 18.8106 16.5004 19.0257V37.046C16.4966 37.2078 16.5086 37.3692 16.5357 37.528C16.5696 37.7273 16.627 37.9186 16.705 38.0989C16.8877 38.5226 17.1895 38.9004 17.5987 39.1772C17.617 39.1896 17.6355 39.2017 17.6541 39.2137L26.865 45.2007C28.8608 46.498 31.5 45.0657 31.5 42.6854V19.0257C31.5 18.8106 31.5693 18.6013 31.6977 18.4288L40.1999 7L43 7C44.3807 7 45.5 5.88072 45.5 4.5C45.5 3.11929 44.3807 2 43 2L5 2ZM33.979 7L14.0211 7L20.9106 16.2964C21.2936 16.8132 21.5004 17.4394 21.5004 18.0826V35.2076C21.5004 35.5461 21.6716 35.8616 21.9554 36.0461L25.7275 38.4979C26.0601 38.7141 26.5 38.4754 26.5 38.0787V18.0826C26.5 17.4394 26.7067 16.8132 27.0897 16.2964L33.979 7Z" fill="#081E40"/>
</svg>
