<svg width="48" height="48" viewBox="0 0 48 48" fill="none" xmlns="http://www.w3.org/2000/svg">
<path fill-rule="evenodd" clip-rule="evenodd" d="M14.8655 3.67285C14.1558 3.92969 13.1105 4.45616 12.534 4.83453C11.3489 5.61231 11.093 6.95793 12.0562 7.99803L18.3909 14.8389C19.1414 15.6494 19.0928 16.9148 18.2823 17.6653C17.4719 18.4158 16.2065 18.3672 15.456 17.5567L9.11989 10.7143C8.19013 9.71029 6.76678 9.86644 5.93041 10.9495C5.4854 11.5258 4.89749 12.5111 4.59328 13.185C1.70611 19.5807 2.72546 27.3577 7.79295 32.8301C12.1105 37.4926 18.3215 39.3536 24.1463 38.3253C24.3164 38.2953 24.4908 38.3519 24.6082 38.4787L29.3171 43.5638C31.5686 45.9952 35.3648 46.141 37.7961 43.8896L42.9323 39.1335C45.3636 36.882 45.5095 33.0858 43.258 30.6544L38.5491 25.5693C38.4317 25.4425 38.3886 25.2643 38.4316 25.097C39.9037 19.3683 38.5248 13.0328 34.2072 8.37024C29.1397 2.89785 21.4638 1.28485 14.8655 3.67285ZM34.0117 28.0283C33.158 27.1065 33.0024 25.7589 33.3841 24.5619C34.7609 20.2445 33.8374 15.3298 30.5386 11.7674C27.5014 8.48755 23.1636 7.12662 19.0521 7.74495C18.8958 7.76846 18.8323 7.95665 18.9397 8.07264L22.0596 11.4417C24.6863 14.2783 24.5161 18.7072 21.6795 21.3339C18.8429 23.9606 14.4141 23.7905 11.7873 20.9539L8.66753 17.5848C8.56013 17.4688 8.36762 17.5176 8.33219 17.6717C7.40025 21.7236 8.42438 26.153 11.4616 29.4329C14.7604 32.9953 19.5897 34.2932 24.0001 33.2516C25.2228 32.9629 26.5545 33.2215 27.4081 34.1433L32.3063 39.4329C33.0568 40.2434 34.3222 40.292 35.1327 39.5415L38.8013 36.1443C39.6118 35.3938 39.6604 34.1284 38.9099 33.3179L34.0117 28.0283Z" fill="#081E40"/>
</svg>
