<svg width="48" height="48" viewBox="0 0 48 48" fill="none" xmlns="http://www.w3.org/2000/svg">
<path fill-rule="evenodd" clip-rule="evenodd" d="M8 8C7.44772 8 7 8.44771 7 9L7 24L42 24L42 9C42 8.44771 41.5523 8 41 8L8 8ZM2 24L2 29L2 33C2 35.2091 3.79086 37 6 37L14.857 37L12.1946 43.2122C11.629 44.5319 12.5971 46 14.0329 46L34.9668 46C36.4026 46 37.3707 44.5319 36.805 43.2122L34.1427 37L43 37C45.2091 37 47 35.2091 47 33L47 29L47 24L47 7C47 4.79086 45.2091 3 43 3L6 3C3.79086 3 2 4.79086 2 7L2 24ZM16.9998 32L41 32C41.5523 32 42 31.5523 42 31L42 29L7 29L7 31C7 31.5523 7.44772 32 8 32L16.9998 32ZM20.2968 37L18.8812 40.303C18.7398 40.633 18.9818 41 19.3408 41L29.6589 41C30.0178 41 30.2598 40.633 30.1184 40.303L28.7029 37L20.2968 37Z" fill="#081E40"/>
</svg>
