<svg width="48" height="48" viewBox="0 0 48 48" fill="none" xmlns="http://www.w3.org/2000/svg">
<path d="M39 43C40.3807 43 41.5 44.1193 41.5 45.5C41.5 46.8807 40.3807 48 39 48H9C7.61929 48 6.5 46.8807 6.5 45.5C6.5 44.1193 7.61929 43 9 43H39ZM47.5 35.5C47.5 37.7091 45.7091 39.5 43.5 39.5H4.5C2.29086 39.5 0.5 37.7091 0.5 35.5V4.5C0.5 2.29086 2.29086 0.5 4.5 0.5H43.5C45.7091 0.5 47.5 2.29086 47.5 4.5V35.5ZM36.21 5.95703C35.4843 6.52617 34.9099 7.20331 34.5908 8.00977C34.1623 9.14071 33.5277 10.0778 32.6816 10.7783C31.8247 11.4878 30.8756 11.8522 29.9844 12.0156C29.153 12.1681 28.3254 12.1487 27.6064 12.0703C27.7658 12.4416 27.9362 12.8401 28.0723 13.1826L28.2207 13.5713L28.2363 13.6152L28.251 13.6611C29.1564 16.5278 28.4253 20.2073 25.3408 21.8154C24.5792 22.2639 23.7573 22.5 22.7998 22.5C20.9581 22.4999 19.2374 21.5323 17.9482 19.9893L17.9102 19.9434L17.874 19.8965C16.9591 18.69 15.8512 18.5139 14.1504 18.25C13.7539 18.1885 12.688 18.0339 11.5537 17.6074C10.4841 17.2053 9.04733 16.4479 8.09473 14.9932C8.08514 14.98 8.07272 14.9623 8.05762 14.9414C8.02211 14.8923 7.97233 14.8224 7.91113 14.7363C7.78875 14.5642 7.61981 14.3231 7.43359 14.0479C7.08151 13.5274 6.59249 12.7758 6.26367 12.1182C6.08143 11.7537 5.80183 11.03 5.5 10.2031V34.5H32.4521C32.3584 34.3954 32.2599 34.2889 32.1562 34.1807L32.1455 34.1699C31.6238 33.6182 31.1981 33.1714 30.6758 32.7295L30.6533 32.71L30.6309 32.6895C29.2915 31.4997 27.9738 30.1338 27.208 28.6475C26.3793 27.0389 26.0854 24.999 27.4004 23.0967C28.1913 21.8638 29.177 20.9641 30.3457 20.375C31.5109 19.7877 32.7156 19.5809 33.8115 19.5146C35.1096 19.4324 36.2612 19.7267 37.1152 20.0781C37.5485 20.2565 37.9384 20.4626 38.2656 20.6738C38.5069 20.8296 38.8686 21.0877 39.1748 21.4395L39.1758 21.4385C39.5577 21.8693 39.8394 22.363 39.9717 22.5869C40.0572 22.7316 40.1089 22.8185 40.1572 22.8926L40.2051 22.9619L40.3398 23.1143L40.4482 23.2871C40.6918 23.6735 41.1411 24.0998 41.877 24.5938C42.084 24.7327 42.2906 24.862 42.5 24.9883V5.5H37.4473L36.21 5.95703ZM34.125 24.5039L34.1133 24.5049C33.4094 24.5474 32.9422 24.6658 32.5967 24.8398C32.2827 24.9981 31.938 25.2675 31.5811 25.8379L31.5498 25.8887L31.5146 25.9385C31.5103 25.9447 31.5069 25.9503 31.5039 25.9551C31.5101 26.0009 31.535 26.1296 31.6523 26.3574C31.9794 26.9922 32.7191 27.8567 33.9512 28.9512C34.6881 29.5796 35.274 30.2006 35.7686 30.7236C37.0518 32.0647 37.882 33.3275 38.415 34.5H42.5V30.7324C42.2896 30.6245 42.0676 30.5066 41.8359 30.3721C41.1432 29.9698 40.0345 29.3793 39.0898 28.7451C38.158 28.1195 37.1038 27.2774 36.3271 26.1182C36.0143 25.7311 35.7831 25.3273 35.667 25.1309C35.5863 24.9943 35.5354 24.9093 35.4893 24.8379C35.4227 24.7998 35.3298 24.7503 35.2129 24.7021C34.8803 24.5653 34.4933 24.48 34.125 24.5039ZM9.4248 6.30762C9.70404 7.1143 9.99594 7.94178 10.2461 8.62402C10.3713 8.96555 10.4822 9.26093 10.5742 9.49414C10.6202 9.61067 10.6587 9.70509 10.6895 9.77734C10.72 9.84899 10.7353 9.87955 10.7363 9.88184C10.9075 10.2241 11.2356 10.7451 11.5752 11.2471C11.7347 11.4828 11.8807 11.6912 11.9863 11.8398C12.0389 11.9137 12.0811 11.9726 12.1094 12.0117C12.1233 12.031 12.1339 12.0454 12.1406 12.0547C12.144 12.0593 12.1471 12.0626 12.1484 12.0645L12.1494 12.0664L12.21 12.1494L12.2637 12.2373C12.3803 12.4273 12.684 12.6901 13.3135 12.9268C13.9124 13.1519 14.5136 13.246 14.917 13.3086C16.4002 13.5387 19.5064 13.8567 21.7852 16.7832C22.3614 17.473 22.7734 17.4999 22.7998 17.5C22.8079 17.5 22.8151 17.4992 22.8213 17.499L22.9111 17.4434L23.0127 17.3926C23.1942 17.3016 23.395 17.1092 23.5205 16.7197C23.6467 16.3282 23.6689 15.7921 23.4951 15.2119C23.3924 14.9343 23.1893 14.455 22.9365 13.8662C22.2791 12.5973 21.8706 11.0592 22.0381 9.51953C22.0661 8.90344 22.2547 7.98829 23.0557 7.28125C23.9105 6.52694 24.8952 6.51949 25.3291 6.54883C25.7884 6.57992 26.2171 6.69716 26.416 6.75098C26.7089 6.83021 26.7819 6.85213 26.8574 6.86621L26.8916 6.87305L26.9248 6.87988C27.8668 7.08227 28.5488 7.19536 29.082 7.09766C29.2906 7.05941 29.4085 6.9978 29.4932 6.92773C29.5766 6.85868 29.7525 6.67952 29.9238 6.21875L29.9326 6.19434L29.9424 6.16992C30.0339 5.93875 30.134 5.71575 30.2402 5.5H9.14844C9.2379 5.76104 9.3297 6.03288 9.4248 6.30762Z" fill="#081E40"/>
</svg>
