<svg width="48" height="48" viewBox="0 0 48 48" fill="none" xmlns="http://www.w3.org/2000/svg">
<g clip-path="url(#clip0_3709_43)">
<path fill-rule="evenodd" clip-rule="evenodd" d="M22.3757 1.31835C21.9697 0.491861 21.0519 0.0493731 20.1524 0.246497L15.1239 1.34851C14.2089 1.54905 13.5557 2.35781 13.5521 3.29455L13.537 7.27234C12.2314 8.07762 11.028 9.03253 9.95058 10.1132L6.21266 9.09373C5.32429 8.85145 4.3853 9.24703 3.93811 10.052L1.43811 14.552C0.983185 15.3708 1.15757 16.3957 1.85769 17.0181L4.73638 19.5769C4.42441 20.9616 4.25977 22.4021 4.25977 23.8811C4.25977 23.8883 4.25977 23.8954 4.25978 23.9026L1.14359 25.3795C0.311504 25.7739 -0.143782 26.6855 0.0407372 27.5876L1.07229 32.631C1.26 33.5487 2.05955 34.2132 2.99614 34.2299L7.27743 34.3061C7.93734 35.3473 8.69319 36.3216 9.53253 37.2167L8.38836 40.8483C8.11166 41.7266 8.47037 42.6803 9.25728 43.1585L13.6565 45.8319C14.457 46.3183 15.4879 46.184 16.1371 45.5087L18.7949 42.7434C20.2042 43.1134 21.6758 43.3295 23.1907 43.373L25.0656 46.7282C25.5148 47.5321 26.4547 47.9253 27.3425 47.6809L32.3056 46.3142C33.2087 46.0655 33.8182 45.2233 33.7722 44.2876L33.5967 40.7218C34.7254 40.0611 35.7817 39.2902 36.7508 38.4238L40.7144 39.576C41.5986 39.8331 42.5441 39.4532 43.0046 38.6558L45.5792 34.1981C46.0477 33.3869 45.8904 32.3592 45.2008 31.7253L42.5106 29.2526C42.9437 27.7379 43.1982 26.1478 43.2499 24.5065L46.5735 22.8114C47.3938 22.393 47.8225 21.4687 47.6118 20.5723L46.4344 15.5609C46.2201 14.649 45.4016 14.008 44.4649 14.0185L40.6108 14.0618C39.9115 12.8645 39.0883 11.7483 38.1588 10.7311L39.2631 6.63526C39.5028 5.74619 39.1045 4.80835 38.2983 4.36349L33.7911 1.87651C32.9709 1.42396 31.9465 1.6013 31.3262 2.30323L28.8878 5.0624C27.2908 4.62825 25.6123 4.39195 23.8803 4.38147L22.3757 1.31835ZM5.34346 30.3074C5.42949 30.3709 5.53595 30.407 5.64895 30.4051L10.7639 30.3193C11.6813 32.1676 12.9814 33.7924 14.5606 35.0899L13.0237 39.3717C12.9406 39.6032 13.0383 39.8608 13.254 39.979L14.5166 40.6711C14.7212 40.7832 14.9761 40.7389 15.131 40.5644L18.089 37.2303C19.8309 37.9712 21.7475 38.3811 23.7598 38.3811C24.1845 38.3811 24.605 38.3628 25.0204 38.3271L27.056 42.3841C27.1583 42.588 27.3855 42.6968 27.6084 42.6487L29.1251 42.3214C29.3678 42.269 29.5354 42.0464 29.5184 41.7986L29.213 37.3207C31.269 36.4856 33.0902 35.1924 34.5497 33.5678L39.1274 35.159C39.3446 35.2345 39.5852 35.1522 39.7106 34.9596L40.5358 33.6925C40.6709 33.485 40.6339 33.21 40.4488 33.0457L36.9408 29.932C37.7876 28.0904 38.2598 26.0409 38.2598 23.8811C38.2598 23.4082 38.2371 22.9407 38.1929 22.4794L42.3451 20.4323C42.5505 20.331 42.6609 20.103 42.6129 19.8791L42.2925 18.3835C42.2406 18.1411 42.0189 17.9733 41.7715 17.9893L37.1414 18.2871C36.2111 16.0645 34.7432 14.1227 32.9003 12.6244L34.6657 8.443C34.7564 8.22827 34.6866 7.97938 34.4976 7.84302L33.3265 6.99825C33.1269 6.85428 32.8522 6.87695 32.6789 7.0517L29.2874 10.472C27.5839 9.76894 25.7171 9.3811 23.7598 9.3811C23.0821 9.3811 22.4152 9.4276 21.7622 9.51757L20.0172 5.48788C19.9246 5.27398 19.6965 5.15246 19.4673 5.19494L18.0475 5.45806C17.8055 5.5029 17.6321 5.71716 17.6388 5.96317L17.7659 10.674C15.5295 11.6906 13.5968 13.2586 12.1413 15.2043L8.00537 13.6961C7.78784 13.6167 7.5443 13.6971 7.41676 13.8904L6.6036 15.1226C6.46766 15.3285 6.50235 15.6029 6.68527 15.7686L10.1392 18.8968C9.57024 20.451 9.25977 22.1298 9.25977 23.8811C9.25977 24.6443 9.31874 25.3938 9.43237 26.1252L5.06646 27.9999C4.91359 28.0656 4.80845 28.1998 4.77505 28.3534C4.93112 29.0185 5.12123 29.6705 5.34346 30.3074ZM23.7598 32.8811C28.7303 32.8811 32.7598 28.8517 32.7598 23.8811C32.7598 18.9105 28.7303 14.8811 23.7598 14.8811C18.7892 14.8811 14.7598 18.9105 14.7598 23.8811C14.7598 28.8517 18.7892 32.8811 23.7598 32.8811ZM23.7598 27.8811C25.9689 27.8811 27.7598 26.0902 27.7598 23.8811C27.7598 21.672 25.9689 19.8811 23.7598 19.8811C21.5506 19.8811 19.7598 21.672 19.7598 23.8811C19.7598 26.0902 21.5506 27.8811 23.7598 27.8811Z" fill="#081E40"/>
</g>
<defs>
<clipPath id="clip0_3709_43">
<rect width="48" height="48" fill="white"/>
</clipPath>
</defs>
</svg>
