<svg width="48" height="48" viewBox="0 0 48 48" fill="none" xmlns="http://www.w3.org/2000/svg">
<path fill-rule="evenodd" clip-rule="evenodd" d="M5.55647 30.4222C5.42076 30.4051 5.28244 30.3963 5.14206 30.3965C3.34714 30.3984 1.89361 31.855 1.89552 33.6499C1.89743 35.4449 3.35405 36.8984 5.14898 36.8965C6.9439 36.8946 8.39743 35.4379 8.39552 33.643C8.3954 33.5288 8.38938 33.4159 8.37776 33.3047C12.2745 36.2755 18.1797 37.8827 24.6997 37.8758L24.6977 35.9758C15.6367 35.9854 13.3896 28.3878 13.3896 28.3878C13.3896 28.3878 2.18779 26.6997 9.48279 21.992C9.61114 19.703 9.78296 18.0702 9.94174 16.5613C10.0258 15.7629 10.1061 14.9991 10.1745 14.1912C7.84239 15.3604 3.58061 19.9941 3.58508 24.1982C3.58759 26.5509 4.29578 28.6348 5.55647 30.4222ZM12.2003 24.4001C12.2003 15.3391 19.8003 13.1001 19.8003 13.1001C19.8003 13.1001 21.5003 1.90012 26.2003 9.20012C28.4891 9.33091 30.1217 9.50447 31.6305 9.66486L31.6306 9.66488C32.4289 9.74974 33.1925 9.83092 34.0004 9.90012C32.8337 7.56679 28.2045 3.30007 24.0004 3.30007C21.6476 3.30007 19.5629 4.00609 17.7741 5.26494C17.7914 5.12911 17.8003 4.99066 17.8003 4.85012C17.8003 3.0552 16.3453 1.60012 14.5503 1.60012C12.7554 1.60012 11.3003 3.0552 11.3003 4.85012C11.3003 6.64505 12.7554 8.10012 14.5503 8.10012C14.6647 8.10012 14.7777 8.09421 14.8891 8.08268C11.914 11.9762 10.3003 17.8799 10.3003 24.4001L12.2003 24.4001ZM34.8111 19.5899C34.8111 19.5899 32.6233 11.975 23.5625 11.9141L23.5753 10.0141C30.0952 10.058 35.9877 11.7112 39.8612 14.7122C39.8504 14.6009 39.8453 14.488 39.846 14.3737C39.8581 12.5788 41.3229 11.1336 43.1178 11.1457C44.9127 11.1577 46.3579 12.6225 46.3459 14.4174C46.3338 16.2123 44.869 17.6576 43.0741 17.6455C42.9337 17.6446 42.7954 17.6347 42.6599 17.6165C43.9066 19.4137 44.5985 21.5031 44.5827 23.8557C44.5545 28.0598 40.2567 32.6602 37.9156 33.8111C37.9902 33.0037 38.0765 32.2406 38.1668 31.4429L38.1668 31.4428C38.3373 29.9352 38.5218 28.3038 38.668 26.016C45.9995 21.3652 34.8111 19.5899 34.8111 19.5899ZM28.6359 34.7381C28.6359 34.7381 36.2029 32.3899 36.0725 23.3299L37.9723 23.3026C38.0661 29.8221 36.5377 35.7483 33.6189 39.6843C33.73 39.6711 33.8428 39.6636 33.9571 39.662C35.7519 39.6361 37.2277 41.0701 37.2536 42.8649C37.2794 44.6596 35.8454 46.1355 34.0507 46.1613C32.2559 46.1871 30.7801 44.7531 30.7542 42.9584C30.7522 42.8179 30.7591 42.6794 30.7745 42.5434C29.004 43.8278 26.9298 44.5637 24.5773 44.5976C20.3736 44.6581 15.6835 40.4584 14.4834 38.1421C15.2922 38.1997 16.0569 38.2699 16.8564 38.3432C18.3673 38.4819 20.0022 38.6319 22.2927 38.7298C27.0973 45.9614 28.6359 34.7381 28.6359 34.7381Z" fill="#081E40"/>
</svg>
