<svg width="48" height="49" viewBox="0 0 48 49" fill="none" xmlns="http://www.w3.org/2000/svg">
<path d="M18.8139 6.74175C16.8119 7.19807 14.8902 7.98086 13.1284 9.06593L12.5425 9.44155C9.6419 11.3797 7.34107 14.0839 5.89148 17.247L5.61282 17.885C4.18883 21.3228 3.81613 25.1061 4.54208 28.7556L4.6911 29.4365C5.49579 32.8214 7.22497 35.9215 9.69165 38.3882L10.1928 38.872C12.7425 41.2396 15.9028 42.8572 19.3243 43.5377L20.0102 43.6612C23.4455 44.2132 26.9721 43.802 30.195 42.467C33.6327 41.043 36.5712 38.6312 38.6385 35.5373L39.0141 34.9514C40.0991 33.1898 40.881 31.268 41.3373 29.266H20.8172C19.7108 29.266 18.8139 28.3691 18.8139 27.2627V6.74175ZM43.9864 25.0851C45.0928 25.0851 45.9988 25.9838 45.9025 27.086C45.5669 30.9282 44.2687 34.6359 42.1141 37.8605L41.8742 38.2126C39.3624 41.825 35.8649 44.6434 31.7945 46.3294L31.3995 46.4886C27.4361 48.045 23.1181 48.4708 18.9272 47.7176L18.5087 47.638C14.1874 46.7784 10.2071 44.6964 7.03878 41.6433L6.7346 41.3452C3.61928 38.2299 1.46677 34.2872 0.528575 29.9887L0.441813 29.5712C-0.417735 25.25 -0.0170739 20.776 1.59115 16.6805L1.75039 16.2855C3.43639 12.2151 6.25487 8.71763 9.86722 6.20587L10.2194 5.966C13.444 3.8114 17.1517 2.51318 20.9939 2.17754C22.0961 2.08125 22.9948 2.98724 22.9948 4.09366V25.0851H43.9864Z" fill="#081E40"/>
<path d="M25.0853 2.00321C25.0853 0.896799 25.9839 -0.00918567 27.0861 0.0871083C29.4201 0.291013 31.7132 0.850842 33.885 1.75042C36.6749 2.90602 39.2102 4.59934 41.3455 6.73461C43.4807 8.86989 45.1741 11.4052 46.3297 14.1951C47.2292 16.3669 47.7891 18.66 47.993 20.9939C48.0893 22.0961 47.1833 22.9948 46.0769 22.9948H27.0887C25.9823 22.9948 25.0853 22.0978 25.0853 20.9914V2.00321ZM29.2662 18.8139H43.4277C43.2274 17.9348 42.9643 17.0696 42.6387 16.2253L42.4672 15.7946C41.5808 13.6546 40.3072 11.6981 38.712 10.0224L38.3884 9.69165C36.6415 7.94469 34.568 6.55833 32.2855 5.61284C31.3057 5.207 30.2953 4.88588 29.2662 4.65132V18.8139Z" fill="#081E40"/>
</svg>
