<svg width="48" height="48" viewBox="0 0 48 48" fill="none" xmlns="http://www.w3.org/2000/svg">
<g clip-path="url(#clip0_8170_2613)">
<path fill-rule="evenodd" clip-rule="evenodd" d="M8.5 12C8.5 10.6193 9.61929 9.5 11 9.5H28C29.3807 9.5 30.5 10.6193 30.5 12C30.5 13.3807 29.3807 14.5 28 14.5H11C9.61929 14.5 8.5 13.3807 8.5 12Z" fill="#081E40"/>
<path fill-rule="evenodd" clip-rule="evenodd" d="M8.5 22C8.5 20.6193 9.61929 19.5 11 19.5H21C22.3807 19.5 23.5 20.6193 23.5 22C23.5 23.3807 22.3807 24.5 21 24.5H11C9.61929 24.5 8.5 23.3807 8.5 22Z" fill="#081E40"/>
<path fill-rule="evenodd" clip-rule="evenodd" d="M0.5 4C0.5 2.06701 2.067 0.5 4 0.5H44C45.933 0.5 47.5 2.067 47.5 4V16.8409C47.5 18.2216 46.3807 19.3409 45 19.3409C43.6193 19.3409 42.5 18.2216 42.5 16.8409V7.5C42.5 6.39543 41.6046 5.5 40.5 5.5H7.5C6.39543 5.5 5.5 6.39543 5.5 7.5V40.5C5.5 41.6046 6.39543 42.5 7.5 42.5H12.0682C13.4489 42.5 14.5682 43.6193 14.5682 45C14.5682 46.3807 13.4489 47.5 12.0682 47.5H4C2.067 47.5 0.5 45.933 0.5 44V4Z" fill="#081E40"/>
<path fill-rule="evenodd" clip-rule="evenodd" d="M33.5 43C39.6739 43 43 39.0222 43 36C43 32.9778 39.6739 29 33.5 29C27.3261 29 24 32.9778 24 36C24 39.0222 27.3261 43 33.5 43ZM33.5 48C41.5081 48 48 42.6274 48 36C48 29.3726 41.5081 24 33.5 24C25.4919 24 19 29.3726 19 36C19 42.6274 25.4919 48 33.5 48Z" fill="#081E40"/>
<path fill-rule="evenodd" clip-rule="evenodd" d="M34 35C33.4477 35 33 35.4477 33 36C33 36.5523 33.4477 37 34 37C34.5523 37 35 36.5523 35 36C35 35.4477 34.5523 35 34 35ZM34 40C36.2091 40 38 38.2091 38 36C38 33.7909 36.2091 32 34 32C31.7909 32 30 33.7909 30 36C30 38.2091 31.7909 40 34 40Z" fill="#081E40"/>
</g>
<defs>
<clipPath id="clip0_8170_2613">
<rect width="48" height="48" fill="white"/>
</clipPath>
</defs>
</svg>
