<svg width="48" height="48" viewBox="0 0 48 48" fill="none" xmlns="http://www.w3.org/2000/svg">
<path d="M2 6C2 3.79086 3.79086 2 6 2C8.20914 2 10 3.79086 10 6C10 8.20914 8.20914 10 6 10C3.79086 10 2 8.20914 2 6Z" fill="#081E40"/>
<path d="M2 42C2 39.7909 3.79086 38 6 38C8.20914 38 10 39.7909 10 42C10 44.2091 8.20914 46 6 46C3.79086 46 2 44.2091 2 42Z" fill="#081E40"/>
<path d="M6 20C3.79086 20 2 21.7909 2 24C2 26.2091 3.79086 28 6 28C8.20914 28 10 26.2091 10 24C10 21.7909 8.20914 20 6 20Z" fill="#081E40"/>
<path d="M20 42C20 39.7909 21.7909 38 24 38C26.2091 38 28 39.7909 28 42C28 44.2091 26.2091 46 24 46C21.7909 46 20 44.2091 20 42Z" fill="#081E40"/>
<path d="M24 2C21.7909 2 20 3.79086 20 6C20 8.20914 21.7909 10 24 10C26.2091 10 28 8.20914 28 6C28 3.79086 26.2091 2 24 2Z" fill="#081E40"/>
<path d="M20 24C20 21.7909 21.7909 20 24 20C26.2091 20 28 21.7909 28 24C28 26.2091 26.2091 28 24 28C21.7909 28 20 26.2091 20 24Z" fill="#081E40"/>
<path d="M42 38C39.7909 38 38 39.7909 38 42C38 44.2091 39.7909 46 42 46C44.2091 46 46 44.2091 46 42C46 39.7909 44.2091 38 42 38Z" fill="#081E40"/>
<path d="M38 6C38 3.79086 39.7909 2 42 2C44.2091 2 46 3.79086 46 6C46 8.20914 44.2091 10 42 10C39.7909 10 38 8.20914 38 6Z" fill="#081E40"/>
<path d="M42 20C39.7909 20 38 21.7909 38 24C38 26.2091 39.7909 28 42 28C44.2091 28 46 26.2091 46 24C46 21.7909 44.2091 20 42 20Z" fill="#081E40"/>
</svg>
