<svg width="48" height="48" viewBox="0 0 48 48" fill="none" xmlns="http://www.w3.org/2000/svg">
<path fill-rule="evenodd" clip-rule="evenodd" d="M45.2736 6.26777C46.2499 5.29146 46.2499 3.70854 45.2736 2.73223C44.2973 1.75592 42.7144 1.75592 41.7381 2.73223L21.232 23.2383C20.2557 24.2146 20.2557 25.7976 21.232 26.7739C22.2083 27.7502 23.7912 27.7502 24.7675 26.7739L45.2736 6.26777ZM6 3C3.79086 3 2 4.79086 2 7V42C2 44.2091 3.79086 46 6 46H41C43.2091 46 45 44.2091 45 42V19C45 17.6193 43.8807 16.5 42.5 16.5C41.1193 16.5 40 17.6193 40 19V39C40 40.1046 39.1046 41 38 41H9C7.89543 41 7 40.1046 7 39V10C7 8.89543 7.89543 8 9 8H30C31.3807 8 32.5 6.88071 32.5 5.5C32.5 4.11929 31.3807 3 30 3H6Z" fill="#081E40"/>
</svg>
