<svg width="48" height="48" viewBox="0 0 48 48" fill="none" xmlns="http://www.w3.org/2000/svg">
<path fill-rule="evenodd" clip-rule="evenodd" d="M44.7678 3.23223C43.7915 2.25592 42.2085 2.25592 41.2322 3.23223L30.5 13.9645L30.5 10C30.5 8.61929 29.3807 7.5 28 7.5C26.6193 7.5 25.5 8.61929 25.5 10L25.5 19C25.5 20.933 27.067 22.5 29 22.5L38 22.5C39.3807 22.5 40.5 21.3807 40.5 20C40.5 18.6193 39.3807 17.5 38 17.5L34.0355 17.5L44.7678 6.76777C45.7441 5.79146 45.7441 4.20854 44.7678 3.23223ZM21.4581 29.4569C21.4857 29.6339 21.5 29.8153 21.5 30V39C21.5 40.3807 20.3807 41.5 19 41.5C17.6193 41.5 16.5 40.3807 16.5 39L16.5 35.0355L6.76777 44.7678C5.79146 45.7441 4.20854 45.7441 3.23223 44.7678C2.25592 43.7915 2.25592 42.2085 3.23223 41.2322L12.9645 31.5H9C7.61929 31.5 6.5 30.3807 6.5 29C6.5 27.6193 7.61929 26.5 9 26.5H18C18.1847 26.5 18.3661 26.5143 18.5431 26.5419C19.3251 26.3972 20.1629 26.6273 20.7678 27.2322C21.3727 27.8371 21.6028 28.6749 21.4581 29.4569Z" fill="#081E40"/>
</svg>
