<svg width="48" height="48" viewBox="0 0 48 48" fill="none" xmlns="http://www.w3.org/2000/svg">
<path fill-rule="evenodd" clip-rule="evenodd" d="M24 6.80005C19.6618 6.80005 18 9.38995 18 11.3C18 12.6808 16.8807 13.8 15.5 13.8C14.1193 13.8 13 12.6808 13 11.3C13 6.21015 17.3382 1.80005 24 1.80005C30.0567 1.80005 35 6.1162 35 11.3C35 12.6808 33.8807 13.8 32.5 13.8C31.1193 13.8 30 12.6808 30 11.3C30 9.48389 27.9433 6.80005 24 6.80005ZM6.76776 11.0323C5.79145 10.056 4.20854 10.056 3.23223 11.0323C2.25592 12.0086 2.25592 13.5915 3.23223 14.5678L4.3033 15.6389C5.76674 17.1023 7.5557 18.1654 9.5 18.7577V25.3H4.99999C3.61928 25.3 2.49999 26.4193 2.49999 27.8C2.49999 29.1808 3.61928 30.3 4.99999 30.3H9.5V31.3C9.5 32.2267 9.58402 33.1337 9.74486 34.0139C7.70431 34.422 6.1183 35.3891 4.94939 36.6956C3.46355 38.3562 2.83972 40.3539 2.54854 41.8098C2.27776 43.1637 3.1558 44.4807 4.5097 44.7515C5.8636 45.0223 7.18067 44.1442 7.45145 42.7903C7.66027 41.7462 8.03644 40.7439 8.6756 40.0295C9.18067 39.465 9.99388 38.912 11.5154 38.815C14.1111 43.2903 18.9541 46.3 24.5 46.3C29.9922 46.3 34.795 43.3483 37.4085 38.9447C38.3564 39.1614 38.933 39.592 39.3244 40.0295C39.9636 40.7439 40.3397 41.7462 40.5485 42.7903C40.8193 44.1442 42.1364 45.0223 43.4903 44.7515C44.8442 44.4807 45.7222 43.1637 45.4514 41.8098C45.1603 40.3539 44.5364 38.3562 43.0506 36.6956C42.0706 35.6003 40.7975 34.7435 39.2091 34.2546C39.3999 33.2994 39.5 32.3114 39.5 31.3V30.3H43C44.3807 30.3 45.5 29.1808 45.5 27.8C45.5 26.4193 44.3807 25.3 43 25.3H39.5V18.4061C41.057 17.7833 42.4879 16.8477 43.6967 15.6389L44.7678 14.5678C45.7441 13.5915 45.7441 12.0086 44.7678 11.0323C43.7915 10.056 42.2085 10.056 41.2322 11.0323L40.1612 12.1033C38.7546 13.5099 36.847 14.3 34.8579 14.3H13.1421C11.153 14.3 9.24535 13.5099 7.83883 12.1034L6.76776 11.0323ZM22 40.985C17.6869 39.8749 14.5 35.9596 14.5 31.3V19.3H34.5V31.3C34.5 35.9596 31.3131 39.8749 27 40.985V25.8C27 24.4193 25.8807 23.3 24.5 23.3C23.1193 23.3 22 24.4193 22 25.8V40.985Z" fill="#081E40"/>
</svg>
