<svg width="48" height="48" viewBox="0 0 48 48" fill="none" xmlns="http://www.w3.org/2000/svg">
<path fill-rule="evenodd" clip-rule="evenodd" d="M6.5 3.33786e-06C5.11929 3.46527e-06 4 1.11929 4 2.5C4 3.88072 5.11929 5 6.5 5L41.5 5C42.8807 5 44 3.88071 44 2.5C44 1.11929 42.8807 0 41.5 0L6.5 3.33786e-06ZM26.7465 9.59392C25.2049 8.13799 22.7951 8.13799 21.2535 9.59391L5.19772 24.7577C3.22444 26.6213 4.54336 29.9387 7.25759 29.9387H14L14 44.9387C14 46.5956 15.3432 47.9387 17 47.9387H31C32.6569 47.9387 34 46.5956 34 44.9387L34 29.9387H40.7424C43.4566 29.9387 44.7755 26.6213 42.8022 24.7577L26.7465 9.59392ZM12.7911 24.9387C12.6101 24.9387 12.5222 24.7176 12.6538 24.5933L23.3134 14.5259C23.6987 14.162 24.3012 14.162 24.6866 14.5259L35.3462 24.5933C35.4777 24.7176 35.3898 24.9387 35.2089 24.9387H29.5C29.2238 24.9387 29 25.1626 29 25.4387L29 42.4387C29 42.7149 28.7761 42.9387 28.5 42.9387H19.5C19.2239 42.9387 19 42.7149 19 42.4387L19 25.4387C19 25.1626 18.7761 24.9387 18.5 24.9387H12.7911Z" fill="#081E40"/>
</svg>
