<svg width="48" height="48" viewBox="0 0 48 48" fill="none" xmlns="http://www.w3.org/2000/svg">
<rect width="48" height="48" fill="white"/>
<path d="M43 0C44.6569 5.79839e-07 46 1.34315 46 3V45C46 46.6569 44.6569 48 43 48H7C5.34315 48 4 46.6569 4 45L4 32.5H3C1.61929 32.5 0.5 31.3807 0.5 30C0.5 28.6193 1.61929 27.5 3 27.5H4V20.5H3C1.61929 20.5 0.5 19.3807 0.5 18C0.5 16.6193 1.61929 15.5 3 15.5H4L4 3C4 1.34315 5.34315 7.24799e-08 7 0L43 0ZM11 5C9.89543 5 9 5.89543 9 7V15.5H10C11.3807 15.5 12.5 16.6193 12.5 18C12.5 19.3807 11.3807 20.5 10 20.5H9V27.5H10C11.3807 27.5 12.5 28.6193 12.5 30C12.5 31.3807 11.3807 32.5 10 32.5H9V41C9 42.1046 9.89543 43 11 43H39C40.1046 43 41 42.1046 41 41V7C41 5.89543 40.1046 5 39 5L11 5ZM25 9C29.4183 9 33 12.5817 33 17C33 19.4705 31.8789 21.678 30.1191 23.1455C34.1857 25.0667 37 29.204 37 34V35C37 36.6569 35.6569 38 34 38H16C14.3431 38 13 36.6569 13 35V34C13 29.2043 15.8137 25.0669 19.8799 23.1455C18.1204 21.678 17 19.4703 17 17C17 12.5817 20.5817 9 25 9ZM25 27C21.4736 27 18.5576 29.6078 18.0723 33H31.9277C31.4424 29.6078 28.5264 27 25 27ZM25 14C23.3431 14 22 15.3431 22 17C22 18.6569 23.3431 20 25 20C26.6569 20 28 18.6569 28 17C28 15.3431 26.6569 14 25 14Z" fill="#081E40"/>
</svg>
