<svg width="48" height="48" viewBox="0 0 48 48" fill="none" xmlns="http://www.w3.org/2000/svg">
<path fill-rule="evenodd" clip-rule="evenodd" d="M45.6201 17.4547C45.7022 17.4547 45.7833 17.4599 45.8633 17.4694C46.1035 17.4978 46.3332 17.5679 46.5469 17.6735C47.4008 18.0953 48 19.0821 48 20.232V45.2227C48 46.0853 47.6626 46.8558 47.1338 47.3652C47.0164 47.4783 46.8896 47.5786 46.7549 47.6641C46.4175 47.8781 46.0311 48 45.6201 48H24.1982L23.9551 47.9854C23.7152 47.9569 23.4859 47.8866 23.2725 47.7813C23.2012 47.7461 23.1319 47.7069 23.0645 47.6641C22.8622 47.5358 22.6771 47.375 22.5156 47.1865C22.2463 46.8723 22.0417 46.4829 21.9258 46.0479C21.8563 45.7872 21.8184 45.5101 21.8184 45.2227V20.232C21.8184 18.6987 22.884 17.455 24.1982 17.4547H45.6201ZM28.959 21.6197C27.9731 21.6197 27.1738 22.5525 27.1738 23.7026C27.1739 24.8528 27.9731 25.7856 28.959 25.7856H40.8594C41.5989 25.7856 42.2339 25.2609 42.5049 24.5132C42.5726 24.3263 42.6175 24.1255 42.6357 23.9155C42.6418 23.8455 42.6445 23.7745 42.6445 23.7026C42.6445 23.3435 42.567 23.0054 42.4297 22.7105C42.1275 22.0608 41.5374 21.6197 40.8594 21.6197H28.959Z" fill="#081E40"/>
<path fill-rule="evenodd" clip-rule="evenodd" d="M23.8018 0C25.1162 6.58394e-05 26.1816 1.24374 26.1816 2.77729V15.2731H24.1982C21.3757 15.2734 19.6368 17.8213 19.6367 20.232V30.5453H2.37988C1.06548 30.5451 0 29.3015 0 27.768V2.77729C0 1.24381 1.06548 0.000178118 2.37988 0H23.8018ZM7.14062 4.16495C6.15473 4.16495 5.35547 5.09773 5.35547 6.24792C5.35552 7.39806 6.15476 8.33088 7.14062 8.33088H19.041C20.0269 8.33088 20.8261 7.39806 20.8262 6.24792C20.8262 5.09773 20.0269 4.16495 19.041 4.16495H7.14062Z" fill="#081E40"/>
<path d="M43.9998 0C46.209 0 47.9998 1.79082 47.9998 3.99992V9.81798H43.6362V6.36351C43.6362 5.25896 42.7408 4.36355 41.6362 4.36355H38.1816V0H43.9998Z" fill="#081E40"/>
<path d="M4.00018 47.999C1.79104 47.999 0.000177264 46.2082 0.000177264 43.9991V38.181H4.36381V41.6355C4.36381 42.7401 5.25924 43.6355 6.36381 43.6355H9.81836V47.999H4.00018Z" fill="#081E40"/>
</svg>
