<svg width="48" height="48" viewBox="0 0 48 48" fill="none" xmlns="http://www.w3.org/2000/svg">
<path fill-rule="evenodd" clip-rule="evenodd" d="M11 9C12.1046 9 13 8.10457 13 7C13 5.89543 12.1046 5 11 5C9.89543 5 9 5.89543 9 7C9 8.10457 9.89543 9 11 9ZM13.5 13.5404C16.1314 12.5339 18 9.9852 18 7C18 3.13401 14.866 0 11 0C7.13401 0 4 3.13401 4 7C4 9.9852 5.86863 12.5339 8.5 13.5404V34.4596C5.86863 35.466 4 38.0148 4 41C4 44.866 7.13401 48 11 48C14.866 48 18 44.866 18 41C18 38.2329 16.3944 35.8408 14.0641 34.7045C14.2988 34.5963 14.6079 34.4801 15.0076 34.3664C16.6886 33.8886 19.123 33.6839 21.8962 33.6242C23.7296 33.5847 25.5589 33.6084 27.299 33.6309L27.3 33.6309C28.1822 33.6424 29.0416 33.6535 29.8669 33.6559C31.0545 33.6595 32.1812 33.6442 33.1205 33.5735C33.5909 33.538 34.0606 33.4854 34.4936 33.4021C34.8931 33.3252 35.4263 33.1926 35.928 32.9214C38.0869 31.7544 39.021 29.9609 39.354 28.1827C39.5741 27.0074 39.5382 25.6439 39.5129 24.682L39.5092 24.5369C42.1357 23.528 44 20.9817 44 18C44 14.134 40.866 11 37 11C33.134 11 30 14.134 30 18C30 20.9867 31.8706 23.5366 34.5041 24.5419C34.5079 24.8029 34.5138 25.0414 34.5193 25.2627L34.5193 25.2628L34.5193 25.2631C34.5393 26.0723 34.5537 26.6524 34.4395 27.2623C34.3328 27.8321 34.151 28.1721 33.6391 28.473C33.6171 28.4782 33.5873 28.4848 33.5487 28.4922C33.3732 28.526 33.1108 28.56 32.7448 28.5876C32.0114 28.6429 31.0481 28.6594 29.8817 28.656C29.1531 28.6538 28.3456 28.6435 27.4908 28.6325L27.4905 28.6325C25.7005 28.6096 23.7032 28.5841 21.7886 28.6253C18.9694 28.686 15.9826 28.8912 13.6405 29.557C13.5937 29.5703 13.5469 29.5838 13.5 29.5977V13.5404ZM39 18C39 19.1046 38.1046 20 37 20C35.8954 20 35 19.1046 35 18C35 16.8954 35.8954 16 37 16C38.1046 16 39 16.8954 39 18ZM11 43C12.1046 43 13 42.1046 13 41C13 39.8954 12.1046 39 11 39C9.89543 39 9 39.8954 9 41C9 42.1046 9.89543 43 11 43Z" fill="#081E40"/>
</svg>
