<svg width="48" height="48" viewBox="0 0 48 48" fill="none" xmlns="http://www.w3.org/2000/svg">
<path fill-rule="evenodd" clip-rule="evenodd" d="M28.9497 13.707C28.5592 13.3165 28.5592 12.6833 28.9497 12.2928L34.6066 6.63592C34.9971 6.24539 35.6303 6.24539 36.0208 6.63592L41.6777 12.2928C42.0682 12.6833 42.0682 13.3165 41.6777 13.707L36.0208 19.3638C35.6303 19.7544 34.9971 19.7544 34.6066 19.3638L28.9497 13.707ZM24 15.8283C22.4379 14.2662 22.4379 11.7335 24 10.1714L32.4853 1.68617C34.0474 0.124071 36.58 0.124071 38.1421 1.68617L46.6274 10.1714C48.1895 11.7335 48.1895 14.2662 46.6274 15.8283L38.1421 24.3136C36.58 25.8757 34.0474 25.8757 32.4853 24.3136L24 15.8283ZM5 8.00025C5 7.44797 5.44772 7.00025 6 7.00025H14C14.5523 7.00025 15 7.44797 15 8.00025V16.0002C15 16.5525 14.5523 17.0002 14 17.0002H6C5.44772 17.0002 5 16.5525 5 16.0002V8.00025ZM0 6.00025C0 3.79111 1.79086 2.00025 4 2.00025H16C18.2091 2.00025 20 3.79111 20 6.00025V18.0002C20 20.2094 18.2091 22.0002 16 22.0002H4C1.79086 22.0002 0 20.2094 0 18.0002V6.00025ZM5 33.0003C5 32.448 5.44772 32.0002 6 32.0002H14C14.5523 32.0002 15 32.448 15 33.0003V41.0002C15 41.5525 14.5523 42.0003 14 42.0003H6C5.44772 42.0003 5 41.5525 5 41.0002V33.0003ZM0 31.0002C0 28.7911 1.79086 27.0002 4 27.0002H16C18.2091 27.0002 20 28.7911 20 31.0002V43.0003C20 45.2094 18.2091 47.0003 16 47.0003H4C1.79086 47.0003 0 45.2094 0 43.0003V31.0002ZM31.3137 31.9999C30.7614 31.9999 30.3137 32.4476 30.3137 32.9999V40.9999C30.3137 41.5522 30.7614 41.9999 31.3137 41.9999H39.3137C39.8659 41.9999 40.3137 41.5522 40.3137 40.9999V32.9999C40.3137 32.4476 39.8659 31.9999 39.3137 31.9999H31.3137ZM29.3137 26.9999C27.1045 26.9999 25.3137 28.7907 25.3137 30.9999V42.9999C25.3137 45.209 27.1045 46.9999 29.3137 46.9999H41.3137C43.5228 46.9999 45.3137 45.209 45.3137 42.9999V30.9999C45.3137 28.7907 43.5228 26.9999 41.3137 26.9999H29.3137Z" fill="#081E40"/>
</svg>
