<svg width="48" height="48" viewBox="0 0 48 48" fill="none" xmlns="http://www.w3.org/2000/svg">
<path d="M4.36328 43.6367H7.63672V48H4.36328L4.13867 47.9951C1.83335 47.8781 0.000185716 45.9711 0 43.6367V40.3633H4.36328V43.6367ZM20.7275 48H14.1816V43.6367H20.7275V48ZM33.8184 48H27.2725V43.6367H33.8184V48ZM48 43.6367C47.9998 46.0464 46.0464 47.9998 43.6367 48H40.3633V43.6367H43.6367V40.3633H48V43.6367ZM12.248 14.0195C12.0887 14.4038 12 14.8268 12 15.2725V16.501C12.3486 16.4112 12.7142 16.3633 13.0908 16.3633H27.2725C29.6824 16.3633 31.6367 18.3176 31.6367 20.7275V34.9092C31.6367 37.3191 29.6824 39.2725 27.2725 39.2725H13.0908C10.6809 39.2724 8.72758 37.3191 8.72754 34.9092V20.7275C8.72754 19.4961 9.23813 18.3842 10.0586 17.5908H9.81836V15.2725C9.81839 14.535 9.96516 13.8291 10.2324 13.1846L12.248 14.0195ZM35.9062 38.8584C35.2617 39.1257 34.5558 39.2724 33.8184 39.2725H31.5V37.0908H33.8184C34.2641 37.0908 34.687 37.0021 35.0713 36.8428L35.9062 38.8584ZM39.2725 33.8184C39.2724 34.5558 39.1257 35.2617 38.8584 35.9062L36.8428 35.0713C37.0021 34.687 37.0908 34.2641 37.0908 33.8184V31.5H39.2725V33.8184ZM4.36328 33.8184H0V27.2725H4.36328V33.8184ZM48 33.8184H43.6367V27.2725H48V33.8184ZM39.2725 26.8633H37.0908V22.2275H39.2725V26.8633ZM16.9092 20.7275C16.0056 20.7275 15.2727 21.4597 15.2725 22.3633C15.2725 23.267 16.0054 24 16.9092 24H23.4541C24.3578 24 25.0908 23.267 25.0908 22.3633C25.0906 21.4597 24.3577 20.7275 23.4541 20.7275H16.9092ZM4.36328 20.7275H0V14.1816H4.36328V20.7275ZM48 20.7275H43.6367V14.1816H48V20.7275ZM38.8584 13.1846C39.1257 13.8291 39.2724 14.535 39.2725 15.2725V17.5908H37.0908V15.2725C37.0908 14.8268 37.0021 14.4038 36.8428 14.0195L38.8584 13.1846ZM17.5908 12H15.2725C14.8268 12 14.4038 12.0887 14.0195 12.248L13.1846 10.2324C13.8291 9.96516 14.535 9.8184 15.2725 9.81836H17.5908V12ZM33.8184 9.81836C34.5558 9.81838 35.2617 9.96517 35.9062 10.2324L35.0713 12.248C34.687 12.0887 34.2641 12 33.8184 12H31.5V9.81836H33.8184ZM26.8633 12H22.2275V9.81836H26.8633V12ZM7.63672 4.36328H4.36328V7.63672H0V4.36328C0.000191967 1.95359 1.95359 0.000191968 4.36328 0H7.63672V4.36328ZM43.6367 0C46.0464 0.000191709 47.9998 1.95359 48 4.36328V7.63672H43.6367V4.36328H40.3633V0H43.6367ZM20.7275 4.36328H14.1816V0H20.7275V4.36328ZM33.8184 4.36328H27.2725V0H33.8184V4.36328Z" fill="#081E40"/>
</svg>
