<svg width="48" height="48" viewBox="0 0 48 48" fill="none" xmlns="http://www.w3.org/2000/svg">
<g clip-path="url(#clip0_3718_577)">
<path fill-rule="evenodd" clip-rule="evenodd" d="M32 9C33.1046 9 34 8.10457 34 7C34 5.89543 33.1046 5 32 5C30.8954 5 30 5.89543 30 7C30 8.10457 30.8954 9 32 9ZM39 7C39 10.6871 36.1493 13.7084 32.5317 13.9801L31.0475 18.7298C32.2722 20.3294 33 22.3297 33 24.5C33 25.1339 32.9379 25.7533 32.8195 26.3524L35.1933 27.2002C36.5508 25.8409 38.4272 25 40.5 25C44.6422 25 48 28.3579 48 32.5C48 36.6421 44.6422 40 40.5 40C36.3579 40 33 36.6421 33 32.5C33 32.2434 33.0129 31.9898 33.0381 31.7398L30.5614 30.8552C28.8225 32.786 26.303 34 23.5 34C22.5972 34 21.7239 33.8741 20.8966 33.6388L18.1426 36.3929C18.691 37.4767 19 38.7023 19 40C19 44.4183 15.4183 48 11 48C6.58172 48 3 44.4183 3 40C3 35.5817 6.58172 32 11 32C12.2977 32 13.5232 32.309 14.607 32.8574L16.52 30.9444C14.9557 29.251 14 26.9871 14 24.5C14 23.799 14.0759 23.1158 14.22 22.4581L11.7097 20.708C10.5095 21.5235 9.06039 22 7.5 22C3.35786 22 0 18.6421 0 14.5C0 10.3579 3.35786 7 7.5 7C11.6421 7 15 10.3579 15 14.5C15 15.2589 14.8873 15.9916 14.6776 16.682L16.5703 18.0015C18.3035 16.1541 20.767 15 23.5 15C24.6572 15 25.766 15.2069 26.7915 15.5857L27.7389 12.5541C26.0735 11.2745 25 9.2626 25 7C25 3.13401 28.134 0 32 0C35.866 0 39 3.13401 39 7ZM10 14.5C10 15.8807 8.88071 17 7.5 17C6.11929 17 5 15.8807 5 14.5C5 13.1193 6.11929 12 7.5 12C8.88071 12 10 13.1193 10 14.5ZM23.5 29C25.9853 29 28 26.9853 28 24.5C28 22.0147 25.9853 20 23.5 20C21.0147 20 19 22.0147 19 24.5C19 26.9853 21.0147 29 23.5 29ZM40.5 35C41.8807 35 43 33.8807 43 32.5C43 31.1193 41.8807 30 40.5 30C39.1193 30 38 31.1193 38 32.5C38 33.8807 39.1193 35 40.5 35ZM14 40C14 41.6569 12.6569 43 11 43C9.34315 43 8 41.6569 8 40C8 38.3432 9.34315 37 11 37C12.6569 37 14 38.3432 14 40Z" fill="#081E40"/>
</g>
<defs>
<clipPath id="clip0_3718_577">
<rect width="48" height="48" fill="white"/>
</clipPath>
</defs>
</svg>
