<svg width="48" height="48" viewBox="0 0 48 48" fill="none" xmlns="http://www.w3.org/2000/svg">
<path d="M42.2061 2.00488C44.2512 2.10865 45.8913 3.7488 45.9951 5.79395L46 6V42L45.9951 42.2061C45.8879 44.3194 44.14 46 42 46H6C3.85996 46 2.11211 44.3194 2.00488 42.2061L2 42L2 6L2.00488 5.79395C2.11212 3.68056 3.85997 2 6 2L42 2L42.2061 2.00488ZM7 33.5V39C7 40.1046 7.89543 41 9 41H15.5V33.5H7ZM20.5 33.5L20.5 41H39C40.1046 41 41 40.1046 41 39V33.5H20.5ZM7 28.5H15.5V20.5H7L7 28.5ZM20.5 28.5L41 28.5V20.5L20.5 20.5V28.5ZM9 7C7.89543 7 7 7.89543 7 9L7 15.5H15.5V7L9 7ZM20.5 15.5H41V9C41 7.89543 40.1046 7 39 7L20.5 7V15.5Z" fill="#081E40"/>
</svg>
