<svg width="48" height="48" viewBox="0 0 48 48" fill="none" xmlns="http://www.w3.org/2000/svg">
<path d="M24 0C37.2548 0 48 10.7452 48 24C48 37.2548 37.2548 48 24 48C10.7452 48 0 37.2548 0 24C0 10.7452 10.7452 0 24 0ZM24 5C13.5066 5 5 13.5066 5 24C5 34.4934 13.5066 43 24 43C34.4934 43 43 34.4934 43 24C43 13.5066 34.4934 5 24 5ZM13.0918 28.3848C13.9836 27.331 15.5613 27.2002 16.6152 28.0918C16.6197 28.0956 16.6287 28.1025 16.6406 28.1123C16.6661 28.1332 16.7078 28.1677 16.7646 28.2129C16.8793 28.304 17.0548 28.4398 17.2803 28.6055C17.7339 28.9388 18.3801 29.3839 19.1416 29.8271C20.7442 30.76 22.5294 31.4892 24.0176 31.5C25.5762 31.5112 27.3492 30.7863 28.9043 29.8623C29.6467 29.4211 30.2698 28.9765 30.7051 28.6436C30.9215 28.478 31.0888 28.3423 31.1973 28.252C31.2513 28.207 31.291 28.1735 31.3145 28.1533C31.326 28.1433 31.3333 28.1359 31.3369 28.1328C32.367 27.2159 33.9466 27.306 34.8652 28.335C35.7845 29.365 35.6949 30.9458 34.665 31.8652L33.126 30.1416C34.5932 31.7855 34.6613 31.8623 34.6641 31.8662L34.6631 31.8672C34.6624 31.8678 34.661 31.8684 34.6602 31.8691C34.6584 31.8707 34.6566 31.873 34.6543 31.875C34.6497 31.8791 34.6435 31.8837 34.6367 31.8896C34.623 31.9017 34.6045 31.9181 34.582 31.9375C34.5372 31.9762 34.4753 32.0289 34.3975 32.0938C34.2414 32.2237 34.0201 32.4034 33.7432 32.6152C33.1915 33.0372 32.405 33.5985 31.458 34.1611C29.6338 35.245 26.9062 36.5209 23.9824 36.5C21.1621 36.4797 18.447 35.2079 16.627 34.1484C15.6774 33.5957 14.8808 33.0466 14.3203 32.6348C14.0392 32.4282 13.8139 32.2539 13.6553 32.1279C13.5759 32.0649 13.5121 32.0137 13.4668 31.9766C13.4442 31.958 13.4258 31.9421 13.4121 31.9307C13.4056 31.9253 13.3999 31.9207 13.3955 31.917C13.3934 31.9153 13.3912 31.9134 13.3896 31.9121C13.3888 31.9114 13.3874 31.9107 13.3867 31.9102L13.3857 31.9092C13.3874 31.9063 13.4418 31.8413 14.8584 30.167L13.3848 31.9082C12.3311 31.0163 12.2001 29.4387 13.0918 28.3848ZM15.5 14C17.433 14 19 15.567 19 17.5C19 19.433 17.433 21 15.5 21C13.567 21 12 19.433 12 17.5C12 15.567 13.567 14 15.5 14ZM32.5 14C34.433 14 36 15.567 36 17.5C36 19.433 34.433 21 32.5 21C30.567 21 29 19.433 29 17.5C29 15.567 30.567 14 32.5 14Z" fill="#081E40"/>
</svg>
