<svg width="48" height="48" viewBox="0 0 48 48" fill="none" xmlns="http://www.w3.org/2000/svg">
<path fill-rule="evenodd" clip-rule="evenodd" d="M45.2744 2.73574C46.2503 3.71236 46.2498 5.29528 45.2732 6.27127L31.2672 20.2682C30.2905 21.2442 28.7076 21.2437 27.7316 20.2671C26.7556 19.2904 26.7561 17.7075 27.7328 16.7315L41.7388 2.73459C42.7154 1.7586 44.2984 1.75911 45.2744 2.73574ZM12 25.5L22 25.5C23.3807 25.5 24.5 24.3807 24.5 23C24.5 21.6192 23.3807 20.5 22 20.5L12 20.5C10.6193 20.5 9.5 21.6192 9.5 23C9.5 24.3807 10.6193 25.5 12 25.5ZM12 30.5C10.6193 30.5 9.5 31.6192 9.5 33C9.5 34.3807 10.6193 35.5 12 35.5L36 35.5C37.3807 35.5 38.5 34.3807 38.5 33C38.5 31.6192 37.3807 30.5 36 30.5L12 30.5ZM6 2.99996C3.79086 2.99996 2 4.79082 2 6.99996V42C2 44.2091 3.79086 46 6 46H41C43.2091 46 45 44.2091 45 42V19C45 17.6192 43.8807 16.5 42.5 16.5C41.1193 16.5 40 17.6192 40 19V39C40 40.1045 39.1046 41 38 41H9C7.89543 41 7 40.1045 7 39V9.99996C7 8.89539 7.89543 7.99996 9 7.99996H30C31.3807 7.99996 32.5 6.88067 32.5 5.49996C32.5 4.11925 31.3807 2.99996 30 2.99996H6Z" fill="#081E40"/>
</svg>
