<svg width="48" height="48" viewBox="0 0 48 48" fill="none" xmlns="http://www.w3.org/2000/svg">
<path d="M44 4C46.2091 4 48 5.79086 48 8V40L47.9951 40.2061C47.8913 42.2512 46.2512 43.8913 44.2061 43.9951L44 44H4L3.79395 43.9951C1.68056 43.8879 0 42.14 0 40L0 8C5.92725e-07 5.79086 1.79086 4 4 4L44 4ZM7 9C5.89543 9 5 9.89543 5 11L5 37C5 38.1046 5.89543 39 7 39H41C42.1046 39 43 38.1046 43 37V11C43 9.89543 42.1046 9 41 9L7 9ZM13.5 15.6738C13.5001 13.4907 15.7576 12.0389 17.7441 12.9443L36.0107 21.2705C38.3517 22.3375 38.3517 25.6625 36.0107 26.7295L17.7441 35.0557C15.8196 35.9329 13.641 34.5976 13.5068 32.5283L13.5 32.3262L13.5 15.6738ZM18.5 29.2168L29.9443 24L18.5 18.7832V29.2168Z" fill="#081E40"/>
</svg>
