<svg width="48" height="48" viewBox="0 0 48 48" fill="none" xmlns="http://www.w3.org/2000/svg">
<g clip-path="url(#clip0_4639_28)">
<path fill-rule="evenodd" clip-rule="evenodd" d="M24 5.5C13.7827 5.5 5.5 13.7827 5.5 24C5.5 24.3517 5.50979 24.7009 5.52908 25.0473C5.60585 26.4259 4.73623 27.7386 3.3805 28C2.02476 28.2615 0.699898 27.3739 0.583892 25.9981C0.528321 25.339 0.500002 24.6726 0.500002 24C0.500002 11.0213 11.0213 0.500002 24 0.500002C36.9787 0.500002 47.5 11.0213 47.5 24C47.5 24.6726 47.4717 25.339 47.4161 25.9981C47.3001 27.3739 45.9752 28.2615 44.6195 28C43.2638 27.7386 42.3942 26.4259 42.4709 25.0473C42.4902 24.7009 42.5 24.3517 42.5 24C42.5 13.7827 34.2173 5.5 24 5.5Z" fill="#081E40"/>
<path fill-rule="evenodd" clip-rule="evenodd" d="M14.5448 39.0948C14.2349 39.2795 14.2349 39.7205 14.5448 39.9052C17.3121 41.5541 20.5449 42.5 24 42.5C27.4551 42.5 30.6879 41.5541 33.4552 39.9051C33.7651 39.7205 33.7651 39.2794 33.4552 39.0947C30.6879 37.4458 27.4551 36.4999 24 36.4999C20.545 36.4999 17.3121 37.4458 14.5448 39.0948ZM41.5027 39.4706C41.5009 39.4901 41.5009 39.5098 41.5027 39.5294C41.5109 39.6173 41.4822 39.7048 41.4229 39.7702C37.1265 44.5142 30.9103 47.5 24 47.5C17.1 47.5 10.8921 44.5232 6.59639 39.7915C6.52398 39.7118 6.48438 39.6077 6.48438 39.5C6.48443 39.3922 6.52408 39.2881 6.59654 39.2083C10.8922 34.4767 17.1001 31.4999 24 31.4999C30.9103 31.4999 37.1265 34.4857 41.4229 39.2297C41.4822 39.2951 41.511 39.3826 41.5027 39.4706Z" fill="#081E40"/>
<path fill-rule="evenodd" clip-rule="evenodd" d="M24 24C25.6569 24 27 22.6569 27 21C27 19.3431 25.6569 18 24 18C22.3431 18 21 19.3431 21 21C21 22.6569 22.3431 24 24 24ZM24 29C28.4183 29 32 25.4183 32 21C32 16.5817 28.4183 13 24 13C19.5817 13 16 16.5817 16 21C16 25.4183 19.5817 29 24 29Z" fill="#081E40"/>
</g>
<defs>
<clipPath id="clip0_4639_28">
<rect width="48" height="48" fill="white" transform="translate(2.09815e-06 48) rotate(-90)"/>
</clipPath>
</defs>
</svg>
