<svg width="48" height="48" viewBox="0 0 48 48" fill="none" xmlns="http://www.w3.org/2000/svg">
<path fill-rule="evenodd" clip-rule="evenodd" d="M4 24C4 21.7909 5.79086 20 8 20H40C42.2091 20 44 21.7909 44 24V44C44 46.2091 42.2091 48 40 48H8C5.79086 48 4 46.2091 4 44V24ZM11 25C9.89543 25 9 25.8954 9 27V41C9 42.1046 9.89543 43 11 43H37C38.1046 43 39 42.1046 39 41V27C39 25.8954 38.1046 25 37 25H11Z" fill="#081E40"/>
<path fill-rule="evenodd" clip-rule="evenodd" d="M26 34.2361C26.6138 33.6868 27 32.8885 27 32C27 30.3431 25.6569 29 24 29C22.3431 29 21 30.3431 21 32C21 32.8885 21.3863 33.6868 22 34.2361V36C22 37.1046 22.8954 38 24 38C25.1046 38 26 37.1046 26 36V34.2361Z" fill="#081E40"/>
<path fill-rule="evenodd" clip-rule="evenodd" d="M24 5C28.9706 5 33 9.02944 33 14V14.5C33 15.8807 34.1193 17 35.5 17C36.8807 17 38 15.8807 38 14.5V14C38 6.26801 31.732 0 24 0C16.268 0 10 6.26801 10 14V20H15V14C15 9.02944 19.0294 5 24 5Z" fill="#081E40"/>
</svg>
