<svg width="48" height="48" viewBox="0 0 48 48" fill="none" xmlns="http://www.w3.org/2000/svg">
<path fill-rule="evenodd" clip-rule="evenodd" d="M33.2121 23.7446C32.2426 24.7277 32.2537 26.3105 33.2368 27.28C34.2199 28.2495 35.8028 28.2384 36.7722 27.2553L40.9851 22.9832C43.0791 20.8598 44.9516 18.206 45.5073 15.2034C46.0984 12.0097 45.1273 8.81013 42.2809 6.00314C39.3167 3.08004 36.0014 1.9535 32.7032 2.39668C29.5363 2.82223 26.7688 4.64303 24.6086 6.83365L20.3956 11.1058C19.4262 12.0889 19.4372 13.6718 20.4203 14.6412C21.4034 15.6107 22.9863 15.5997 23.9558 14.6166L28.1687 10.3444C29.8703 8.61889 31.6791 7.57924 33.3691 7.35214C34.9279 7.14269 36.7501 7.57131 38.7701 9.56327C40.5518 11.3203 40.8515 12.8849 40.5908 14.2935C40.2947 15.8931 39.1929 17.6796 37.425 19.4724L33.2121 23.7446ZM12.7877 12.9387C13.764 11.9623 15.3469 11.9623 16.3232 12.9387L34.708 31.3234C35.6843 32.2997 35.6843 33.8827 34.708 34.859C33.7317 35.8353 32.1487 35.8353 31.1724 34.859L12.7877 16.4742C11.8113 15.4979 11.8113 13.915 12.7877 12.9387ZM14.743 20.7157C15.7284 21.6828 15.7433 23.2657 14.7762 24.2511L10.5735 28.5333C8.80985 30.3303 7.71234 32.1195 7.42012 33.7198C7.1628 35.1289 7.46621 36.6929 9.25212 38.4456C11.2769 40.4328 13.1001 40.857 14.6584 40.6438C16.3479 40.4127 18.1542 39.3687 19.8516 37.6391L24.0543 33.3569C25.0214 32.3715 26.6043 32.3566 27.5897 33.3237C28.5751 34.2909 28.59 35.8737 27.6228 36.8591L23.4202 41.1414C21.2652 43.3371 18.502 45.1646 15.3361 45.5977C12.039 46.0488 8.72108 44.9302 5.74989 42.0142C2.89672 39.214 1.91801 36.0168 2.50145 32.8216C3.04998 29.8177 4.91611 27.1594 7.00495 25.0311L11.2076 20.7488C12.1747 19.7634 13.7576 19.7486 14.743 20.7157Z" fill="#081E40"/>
</svg>
