<svg width="48" height="48" viewBox="0 0 48 48" fill="none" xmlns="http://www.w3.org/2000/svg">
<path fill-rule="evenodd" clip-rule="evenodd" d="M20.432 4.03753C21.7919 4.27612 22.701 5.57198 22.4624 6.93193L21.661 11.4999H29.5846L30.5376 6.06793C30.7762 4.70799 32.0721 3.79895 33.432 4.03753C34.7919 4.27612 35.701 5.57198 35.4624 6.93193L34.661 11.4999H40C41.3807 11.4999 42.5 12.6192 42.5 13.9999C42.5 15.3806 41.3807 16.4999 40 16.4999H33.7838L32.5557 23.4999H38C39.3807 23.4999 40.5 24.6192 40.5 25.9999C40.5 27.3806 39.3807 28.4999 38 28.4999H31.6785L30.4624 35.4319C30.2238 36.7919 28.9279 37.7009 27.568 37.4623C26.2081 37.2237 25.299 35.9279 25.5376 34.5679L26.6022 28.4999H18.6785L17.4624 35.4319C17.2238 36.7919 15.9279 37.7009 14.568 37.4623C13.2081 37.2237 12.299 35.9279 12.5376 34.5679L13.6022 28.4999H9C7.61929 28.4999 6.5 27.3806 6.5 25.9999C6.5 24.6192 7.61929 23.4999 9 23.4999H14.4794L15.7074 16.4999H11C9.61929 16.4999 8.5 15.3806 8.5 13.9999C8.5 12.6192 9.61929 11.4999 11 11.4999H16.5846L17.5376 6.06793C17.7762 4.70799 19.0721 3.79895 20.432 4.03753ZM28.7074 16.4999L27.4794 23.4999H19.5557L20.7838 16.4999H28.7074ZM4.5 38.9999C3.11929 38.9999 2 40.1192 2 41.4999C2 42.8806 3.11929 43.9999 4.5 43.9999L43.5 43.9999C44.8807 43.9999 46 42.8806 46 41.4999C46 40.1192 44.8807 38.9999 43.5 38.9999L4.5 38.9999Z" fill="#081E40"/>
</svg>
