<svg width="48" height="48" viewBox="0 0 48 48" fill="none" xmlns="http://www.w3.org/2000/svg">
<path fill-rule="evenodd" clip-rule="evenodd" d="M22.6809 12.599C23.4283 13.326 24.611 13.359 25.368 12.642C26.3097 11.7499 27.22 10.8237 28.1157 9.88707C31.2626 6.79752 36.3182 6.844 39.4077 9.99088L40.1841 10.7817C43.7024 14.3653 43.6495 20.1225 40.0659 23.6408L24.0043 39.4098L7.9427 23.6408C4.35908 20.1225 4.30615 14.3653 7.82446 10.7817L8.60083 9.99089C11.6904 6.84401 16.746 6.79752 19.8929 9.88707L22.6809 12.599ZM24.0043 6.91662L23.3957 6.31918C18.2784 1.29505 10.0571 1.37064 5.03294 6.48801L4.25658 7.27878C-1.19633 12.8329 -1.11428 21.7558 4.43982 27.2087L22.4821 44.9222C23.2563 45.6824 24.4955 45.6865 25.2748 44.9315L43.5687 27.2087C49.1228 21.7558 49.2049 12.8329 43.752 7.27877L42.9756 6.488C37.9515 1.37063 29.7302 1.29505 24.6128 6.31918L24.0043 6.91662Z" fill="#081E40"/>
</svg>
