<svg width="48" height="48" viewBox="0 0 48 48" fill="none" xmlns="http://www.w3.org/2000/svg">
<g clip-path="url(#clip0_2221_1261)">
<path fill-rule="evenodd" clip-rule="evenodd" d="M22.5456 1.34838C22.1396 0.52189 21.2218 0.0794024 20.3223 0.276526L15.2939 1.37854C14.3788 1.57907 13.7256 2.38784 13.722 3.32458L13.7069 7.30237C12.4014 8.10765 11.1979 9.06256 10.1205 10.1432L6.38258 9.12376C5.49421 8.88147 4.55522 9.27706 4.10803 10.082L1.60803 14.582C1.15311 15.4009 1.32749 16.4258 2.02762 17.0481L4.9063 19.6069C4.59434 20.9917 4.42969 22.4322 4.42969 23.9111C4.42969 23.9183 4.42969 23.9255 4.4297 23.9326L1.31352 25.4096C0.481426 25.8039 0.02614 26.7155 0.210659 27.6176L1.24221 32.661C1.42992 33.5788 2.22947 34.2433 3.16606 34.2599L7.44736 34.3361C8.10727 35.3773 8.86311 36.3516 9.70246 37.2467L8.55828 40.8784C8.28158 41.7566 8.64029 42.7103 9.4272 43.1885L13.8264 45.8619C14.6269 46.3484 15.6578 46.2141 16.307 45.5387L18.9649 42.7734C20.3742 43.1434 21.8458 43.3596 23.3607 43.403L25.2355 46.7583C25.6847 47.5621 26.6246 47.9554 27.5124 47.7109L32.4755 46.3442C33.3786 46.0955 33.9881 45.2533 33.9421 44.3177L33.7666 40.7518C34.8953 40.0911 35.9516 39.3202 36.9207 38.4538L40.8843 39.6061C41.7686 39.8631 42.714 39.4832 43.1745 38.6858L45.7491 34.2281C46.2177 33.4169 46.0604 32.3893 45.3707 31.7554L42.6805 29.2826C43.1136 27.7679 43.3681 26.1778 43.4198 24.5365L46.7435 22.8414C47.5638 22.4231 47.9924 21.4987 47.7818 20.6023L46.6043 15.591C46.39 14.6791 45.5715 14.038 44.6348 14.0486L40.7807 14.0919C40.0814 12.8945 39.2583 11.7784 38.3287 10.7611L39.433 6.66529C39.6727 5.77622 39.2744 4.83838 38.4682 4.39352L33.961 1.90654C33.1408 1.45399 32.1164 1.63133 31.4961 2.33326L29.0578 5.09243C27.4608 4.65828 25.7823 4.42198 24.0502 4.4115L22.5456 1.34838ZM5.51338 30.3374C5.59942 30.401 5.70587 30.4371 5.81887 30.4352L10.9338 30.3493C11.8512 32.1976 13.1514 33.8224 14.7305 35.12L13.1936 39.4017C13.1105 39.6332 13.2082 39.8908 13.4239 40.0091L14.6866 40.7011C14.8911 40.8132 15.1461 40.769 15.3009 40.5945L18.2589 37.2603C20.0008 38.0012 21.9174 38.4111 23.9297 38.4111C24.3544 38.4111 24.7749 38.3929 25.1904 38.3571L27.2259 42.4142C27.3282 42.618 27.5554 42.7268 27.7783 42.6787L29.295 42.3514C29.5378 42.299 29.7053 42.0764 29.6884 41.8286L29.3829 37.3508C31.439 36.5157 33.2601 35.2225 34.7196 33.5978L39.2974 35.1891C39.5145 35.2645 39.7551 35.1823 39.8805 34.9897L40.7058 33.7225C40.8408 33.5151 40.8038 33.24 40.6187 33.0757L37.1107 29.962C37.9575 28.1204 38.4297 26.0709 38.4297 23.9111C38.4297 23.4383 38.4071 22.9707 38.3628 22.5094L42.515 20.4623C42.7205 20.361 42.8308 20.1331 42.7828 19.9091L42.4625 18.4135C42.4105 18.1711 42.1888 18.0034 41.9414 18.0193L37.3113 18.3172C36.381 16.0945 34.9132 14.1527 33.0703 12.6544L34.8356 8.47303C34.9263 8.2583 34.8565 8.00941 34.6675 7.87305L33.4964 7.02828C33.2968 6.88431 33.0221 6.90698 32.8488 7.08173L29.4574 10.502C27.7538 9.79897 25.887 9.41113 23.9297 9.41113C23.252 9.41113 22.5851 9.45763 21.9322 9.5476L20.1872 5.51791C20.0945 5.30401 19.8664 5.18249 19.6372 5.22497L18.2174 5.48809C17.9754 5.53293 17.8021 5.74719 17.8087 5.9932L17.9358 10.7041C15.6994 11.7207 13.7667 13.2886 12.3113 15.2343L8.17529 13.7261C7.95776 13.6468 7.71422 13.7272 7.58668 13.9204L6.77352 15.1526C6.63759 15.3586 6.67227 15.6329 6.85519 15.7986L10.3091 18.9268C9.74017 20.481 9.42969 22.1598 9.42969 23.9111C9.42969 24.6744 9.48866 25.4238 9.60229 26.1552L5.23638 28.03C5.08351 28.0956 4.97837 28.2298 4.94497 28.3835C5.10104 29.0485 5.29116 29.7005 5.51338 30.3374ZM23.9297 32.9111C28.9002 32.9111 32.9297 28.8817 32.9297 23.9111C32.9297 18.9406 28.9002 14.9111 23.9297 14.9111C18.9591 14.9111 14.9297 18.9406 14.9297 23.9111C14.9297 28.8817 18.9591 32.9111 23.9297 32.9111ZM23.9297 27.9111C26.1388 27.9111 27.9297 26.1203 27.9297 23.9111C27.9297 21.702 26.1388 19.9111 23.9297 19.9111C21.7205 19.9111 19.9297 21.702 19.9297 23.9111C19.9297 26.1203 21.7205 27.9111 23.9297 27.9111Z" fill="#081E40"/>
</g>
<defs>
<clipPath id="clip0_2221_1261">
<rect width="48" height="48" fill="white"/>
</clipPath>
</defs>
</svg>
