<svg width="48" height="48" viewBox="0 0 48 48" fill="none" xmlns="http://www.w3.org/2000/svg">
<path fill-rule="evenodd" clip-rule="evenodd" d="M16 31.9672C8.18197 31.4526 2 24.9482 2 17C2 8.71573 8.71573 2 17 2C24.9482 2 31.4526 8.18197 31.9672 16H42C44.2091 16 46 17.7909 46 20V42C46 44.2091 44.2091 46 42 46H20C17.7909 46 16 44.2091 16 42V31.9672ZM16 26.9506C10.9467 26.4489 7 22.1853 7 17C7 11.4772 11.4772 7 17 7C22.1853 7 26.4489 10.9467 26.9506 16H20C17.7909 16 16 17.7909 16 20V26.9506ZM39 21C40.1046 21 41 21.8954 41 23V39C41 40.1046 40.1046 41 39 41H23C21.8954 41 21 40.1046 21 39V23C21 21.8954 21.8954 21 23 21H39Z" fill="#081E40"/>
</svg>
