<svg width="48" height="48" viewBox="0 0 48 48" fill="none" xmlns="http://www.w3.org/2000/svg">
<rect width="48" height="48" fill="white"/>
<path d="M24.1104 0.00390625C24.1566 0.00591419 24.2028 0.00908949 24.249 0.0136719C24.2771 0.0164888 24.305 0.0206524 24.333 0.0244141C24.3853 0.0313939 24.4374 0.0394856 24.4893 0.0498047C24.5197 0.0558694 24.5499 0.0631176 24.5801 0.0703125C24.6232 0.0805748 24.6663 0.090904 24.709 0.103516C24.7491 0.115334 24.7886 0.12874 24.8281 0.142578C24.867 0.156239 24.906 0.169873 24.9443 0.185547C24.9767 0.198719 25.0082 0.213955 25.04 0.228516C25.0837 0.248547 25.1271 0.269265 25.1699 0.291992C25.2111 0.313795 25.2509 0.33809 25.291 0.362305C25.3149 0.376786 25.3397 0.389903 25.3633 0.405273C25.4141 0.438385 25.463 0.474624 25.5117 0.511719C25.528 0.524097 25.5455 0.535014 25.5615 0.547852C27.7589 2.30577 31.0982 3.94355 34.417 5.15039C37.7899 6.3769 40.7023 7 42 7C43.3807 7 44.5 8.11929 44.5 9.5C44.5 9.67129 44.482 9.8384 44.4492 10C44.482 10.1616 44.5 10.3287 44.5 10.5V27.0625L44.4971 27.125C44.1987 33.0915 40.3853 38.2952 36.3447 41.8721C34.2867 43.694 32.0633 45.1917 29.9805 46.2461C27.967 47.2654 25.8304 48 24 48C22.1906 48 20.0659 47.3042 18.0371 46.2969C15.9461 45.2587 13.7121 43.767 11.6426 41.9092C7.54635 38.2319 3.79397 32.8346 3.50293 26.3447L3.5 26.2881L3.5 9.5C3.5 9.24121 3.53931 8.99161 3.6123 8.75684C3.63671 8.67833 3.66456 8.60135 3.69629 8.52637C3.98102 7.8535 4.55231 7.33135 5.25684 7.1123C5.49161 7.03931 5.74121 7 6 7C7.29766 7 10.2101 6.3769 13.583 5.15039C16.9018 3.94355 20.2411 2.30577 22.4385 0.547852C22.4543 0.535177 22.4713 0.523945 22.4873 0.511719C22.536 0.474617 22.5849 0.438394 22.6357 0.405273C22.6593 0.389899 22.6841 0.376791 22.708 0.362305C22.7481 0.338081 22.7879 0.313805 22.8291 0.291992C22.8719 0.269254 22.9153 0.248559 22.959 0.228516C22.9908 0.213946 23.0223 0.198729 23.0547 0.185547C23.093 0.169862 23.132 0.156252 23.1709 0.142578C23.2104 0.128727 23.25 0.115347 23.29 0.103516C23.3327 0.0908891 23.3758 0.0805902 23.4189 0.0703125C23.4492 0.0631067 23.4793 0.0558805 23.5098 0.0498047C23.5617 0.0394663 23.6138 0.0314137 23.666 0.0244141C23.694 0.0206417 23.7219 0.0164996 23.75 0.0136719C23.7962 0.00907166 23.8424 0.00593215 23.8887 0.00390625C23.9258 0.00223626 23.9628 0.00100075 24 0.000976562C24.0368 0.00100054 24.0736 0.00226516 24.1104 0.00390625ZM24 5.58789C21.4039 7.32463 18.2277 8.78208 15.292 9.84961C12.914 10.7143 10.4964 11.3955 8.5 11.7441L8.5 26.166C8.72487 30.8127 11.4654 35.0311 14.9824 38.1885C16.7254 39.7531 18.5852 40.9878 20.2598 41.8193C21.9965 42.6817 23.3095 43 24 43C24.6695 43 25.9706 42.6721 27.7227 41.7852C29.4054 40.9333 31.2759 39.681 33.0303 38.1279C36.6023 34.9658 39.2819 30.9365 39.5 26.917V11.7441C37.5036 11.3955 35.086 10.7143 32.708 9.84961C29.7723 8.78208 26.5961 7.32463 24 5.58789ZM20.4795 13.7041C21.4713 12.7437 23.0541 12.769 24.0146 13.7607C24.9749 14.7525 24.9496 16.3354 23.958 17.2959L22.0049 19.1855L23.1396 20.3574C26.1642 18.8898 29.9116 19.4438 32.3779 21.9902C35.4516 25.1639 35.3708 30.2289 32.1973 33.3027C29.0237 36.3764 23.9587 36.2955 20.8848 33.1221C18.4184 30.5756 17.9843 26.812 19.5479 23.8359L13.7041 17.8018C12.7438 16.81 12.7692 15.2281 13.7607 14.2676C14.7525 13.3071 16.3353 13.3315 17.2959 14.3232L18.5273 15.5947L20.4795 13.7041ZM28.7861 25.4688C27.6334 24.2787 25.7341 24.2487 24.5439 25.4014C23.3542 26.5541 23.3241 28.4525 24.4766 29.6426C25.6293 30.8326 27.5286 30.8636 28.7188 29.7109C29.9087 28.5582 29.9387 26.6589 28.7861 25.4688Z" fill="#081E40"/>
</svg>
