<svg width="48" height="48" viewBox="0 0 48 48" fill="none" xmlns="http://www.w3.org/2000/svg">
<path fill-rule="evenodd" clip-rule="evenodd" d="M34.4169 5.40061C31.1161 4.20033 27.7955 2.57367 25.5977 0.826612C25.4346 0.690801 25.2571 0.578469 25.0703 0.490161C24.7303 0.328797 24.3643 0.24977 24 0.250001C23.6357 0.24977 23.2697 0.328797 22.9297 0.490161C22.7429 0.578469 22.5654 0.690801 22.4023 0.826612C20.2045 2.57367 16.8839 4.20033 13.5831 5.40061C10.2248 6.62181 7.32301 7.24466 6.01702 7.25006C6.01135 7.25002 6.00568 7.25 6 7.25C4.61929 7.25 3.5 8.36929 3.5 9.75C3.5 9.75003 3.5 9.75006 3.5 9.75009V26.3068L3.50258 26.3635C3.79464 32.7888 7.56041 38.1218 11.6554 41.7469C13.7256 43.5796 15.9593 45.0502 18.0491 46.0734C20.0779 47.0668 22.1982 47.75 24 47.75C25.8305 47.75 27.9671 47.0154 29.9807 45.9961C32.0635 44.9417 34.2865 43.4438 36.3446 41.6219C40.3852 38.045 44.1986 32.8414 44.4969 26.8748L44.5 26.8125L44.5 10.25C44.5 10.1657 44.4958 10.0823 44.4877 10.0001C44.4958 9.91787 44.5 9.83447 44.5 9.75009C44.5 8.36938 43.3807 7.25009 42 7.25009C40.7023 7.25009 37.7898 6.62714 34.4169 5.40061ZM39.5 11.9949C37.5036 11.6463 35.0862 10.9643 32.7081 10.0996C29.7729 9.03223 26.5959 7.57729 24 5.841C21.4041 7.57729 18.2271 9.03223 15.2919 10.0996C12.9138 10.9643 10.4964 11.6463 8.5 11.9949V26.1906C8.72695 30.7441 11.4535 34.8905 14.9696 38.0031C16.7119 39.5454 18.5719 40.7623 20.2478 41.5828C21.9846 42.4332 23.3018 42.75 24 42.75C24.6695 42.75 25.9704 42.4221 27.7224 41.5351C29.4052 40.6833 31.276 39.4312 33.0304 37.8781C36.5974 34.7205 39.2753 30.6979 39.5 26.684L39.5 11.9949ZM32 19.75C32 23.2952 29.6939 26.3018 26.5 27.3516V28.75H28.5C29.8807 28.75 31 29.8693 31 31.25C31 32.6307 29.8807 33.75 28.5 33.75H26.5V35.75C26.5 37.1307 25.3807 38.25 24 38.25C22.6193 38.25 21.5 37.1307 21.5 35.75V27.3516C18.3061 26.3018 16 23.2952 16 19.75C16 15.3317 19.5817 11.75 24 11.75C28.4183 11.75 32 15.3317 32 19.75ZM24 22.75C25.6569 22.75 27 21.4069 27 19.75C27 18.0931 25.6569 16.75 24 16.75C22.3431 16.75 21 18.0931 21 19.75C21 21.4069 22.3431 22.75 24 22.75Z" fill="#081E40"/>
</svg>
