<svg width="48" height="48" viewBox="0 0 48 48" fill="none" xmlns="http://www.w3.org/2000/svg">
<rect width="48" height="48" fill="white"/>
<path d="M39.5 0.5C41.1569 0.5 42.5 1.84315 42.5 3.5V19.6045C42.5 20.9852 41.3807 22.1045 40 22.1045C38.6193 22.1045 37.5 20.9852 37.5 19.6045V7.5C37.5 6.39543 36.6046 5.5 35.5 5.5L10.5 5.5C9.39543 5.5 8.5 6.39543 8.5 7.5L8.5 40.5C8.5 41.6046 9.39543 42.5 10.5 42.5H16.5C17.8807 42.5 19 43.6193 19 45C19 46.3807 17.8807 47.5 16.5 47.5H6.5C4.84315 47.5 3.5 46.1569 3.5 44.5L3.5 3.5C3.5 1.84315 4.84315 0.5 6.5 0.5L39.5 0.5ZM32 25C39.732 25 46 29.9249 46 36C46 42.0751 39.732 47 32 47C24.268 47 18 42.0751 18 36C18 29.9249 24.268 25 32 25ZM32 30C25.839 30 23 33.7424 23 36C23 38.2576 25.839 42 32 42C38.161 42 41 38.2576 41 36C41 33.7424 38.161 30 32 30ZM32 31C34.7614 31 37 33.2386 37 36C37 38.7614 34.7614 41 32 41C29.2386 41 27 38.7614 27 36C27 33.2386 29.2386 31 32 31ZM22.5 19.0586C23.8807 19.0586 25 20.1779 25 21.5586C24.9998 22.9391 23.8806 24.0586 22.5 24.0586H13.5C12.1194 24.0586 11.0002 22.9391 11 21.5586C11 20.1779 12.1193 19.0586 13.5 19.0586H22.5ZM31.5 10.2676C32.8807 10.2676 34 11.3869 34 12.7676C33.9999 14.1482 32.8807 15.2676 31.5 15.2676L13.5 15.2676C12.1193 15.2676 11.0001 14.1482 11 12.7676C11 11.3869 12.1193 10.2676 13.5 10.2676L31.5 10.2676Z" fill="#081E40"/>
</svg>
