<svg width="48" height="48" viewBox="0 0 48 48" fill="none" xmlns="http://www.w3.org/2000/svg">
<path fill-rule="evenodd" clip-rule="evenodd" d="M26.6513 18.3839C26.2712 18.5715 26 18.9419 26 19.3658V21V23.8186V27H22V23.8186V21V19.3658C22 18.9419 21.7288 18.5715 21.3487 18.3839C19.3648 17.4051 18 15.3619 18 13C18 9.68629 20.6863 7 24 7C27.3137 7 30 9.68629 30 13C30 15.3619 28.6352 17.4051 26.6513 18.3839ZM17 27V21.4857C14.557 19.4681 13 16.4159 13 13C13 6.92487 17.9249 2 24 2C30.0751 2 35 6.92487 35 13C35 16.4159 33.443 19.4681 31 21.4857V27H42C44.2091 27 46 28.7909 46 31V42C46 44.2091 44.2091 46 42 46H6C3.79086 46 2 44.2091 2 42V31C2 28.7909 3.79086 27 6 27H17ZM39 32C40.1046 32 41 32.8954 41 34V39C41 40.1046 40.1046 41 39 41H9C7.89543 41 7 40.1046 7 39V34C7 32.8954 7.89543 32 9 32H39Z" fill="#081E40"/>
</svg>
