<svg width="48" height="48" viewBox="0 0 48 48" fill="none" xmlns="http://www.w3.org/2000/svg">
<path fill-rule="evenodd" clip-rule="evenodd" d="M37 5C38.1046 5 39 5.89543 39 7V41C39 42.1046 38.1046 43 37 43H11C9.89543 43 9 42.1046 9 41V7C9 5.89543 9.89543 5 11 5H37ZM4 4C4 1.79086 5.79086 0 8 0H40C42.2091 0 44 1.79086 44 4V44C44 46.2091 42.2091 48 40 48H8C5.79086 48 4 46.2091 4 44V4ZM14 10.5C12.6193 10.5 11.5 11.6193 11.5 13C11.5 14.3807 12.6193 15.5 14 15.5H34C35.3807 15.5 36.5 14.3807 36.5 13C36.5 11.6193 35.3807 10.5 34 10.5H14ZM14 21.5C12.6193 21.5 11.5 22.6193 11.5 24C11.5 25.3807 12.6193 26.5 14 26.5H34C35.3807 26.5 36.5 25.3807 36.5 24C36.5 22.6193 35.3807 21.5 34 21.5H14ZM11.5 35C11.5 33.6193 12.6193 32.5 14 32.5H25C26.3807 32.5 27.5 33.6193 27.5 35C27.5 36.3807 26.3807 37.5 25 37.5H14C12.6193 37.5 11.5 36.3807 11.5 35Z" fill="#081E40"/>
</svg>
