<svg width="48" height="48" viewBox="0 0 48 48" fill="none" xmlns="http://www.w3.org/2000/svg">
<path fill-rule="evenodd" clip-rule="evenodd" d="M4 5C1.79086 5 0 6.79086 0 9V35.5C0 37.7091 1.79086 39.5 4 39.5H20.4478C20.8948 39.5 21.3289 39.6497 21.6808 39.9253L27.4825 44.4683C28.5696 45.3196 30.1409 45.1284 30.9921 44.0413C31.8434 42.9542 31.6522 41.3829 30.5651 40.5317L23.9487 35.3507C23.2448 34.7995 22.3766 34.5 21.4826 34.5H7C5.89543 34.5 5 33.6046 5 32.5V12C5 10.8954 5.89543 10 7 10H41C42.1046 10 43 10.8954 43 12V32.5C43 33.6046 42.1046 34.5 41 34.5H36.2857C34.905 34.5 33.7857 35.6193 33.7857 37C33.7857 38.3807 34.905 39.5 36.2857 39.5H44C46.2091 39.5 48 37.7091 48 35.5V9C48 6.79086 46.2091 5 44 5H4ZM11.5 25C13.433 25 15 23.433 15 21.5C15 19.567 13.433 18 11.5 18C9.567 18 8 19.567 8 21.5C8 23.433 9.567 25 11.5 25ZM28 21.5C28 23.433 26.433 25 24.5 25C22.567 25 21 23.433 21 21.5C21 19.567 22.567 18 24.5 18C26.433 18 28 19.567 28 21.5ZM37.5 25C39.433 25 41 23.433 41 21.5C41 19.567 39.433 18 37.5 18C35.567 18 34 19.567 34 21.5C34 23.433 35.567 25 37.5 25Z" fill="#081E40"/>
</svg>
