<svg width="48" height="48" viewBox="0 0 48 48" fill="none" xmlns="http://www.w3.org/2000/svg">
<g clip-path="url(#clip0_2211_6352)">
<path fill-rule="evenodd" clip-rule="evenodd" d="M8 0C5.79086 0 4 1.79086 4 4V44C4 46.2091 5.79086 48 8 48L17 48C18.3807 48 19.5 46.8807 19.5 45.5C19.5 44.1193 18.3807 43 17 43L11 43C9.89543 43 9 42.1046 9 41V7C9 5.89543 9.89543 5 11 5H36C37.1046 5 38 5.89543 38 7V19.5C38 20.8807 39.1193 22 40.5 22C41.8807 22 43 20.8807 43 19.5V4C43 1.79086 41.2091 0 39 0H8ZM39.5 36C39.5 40.1421 36.1421 43.5 32 43.5C27.8579 43.5 24.5 40.1421 24.5 36C24.5 31.8579 27.8579 28.5 32 28.5C36.1421 28.5 39.5 31.8579 39.5 36ZM44 36C44 42.6274 38.6274 48 32 48C25.3726 48 20 42.6274 20 36C20 29.3726 25.3726 24 32 24C38.6274 24 44 29.3726 44 36ZM36.4142 34.4142C37.1953 33.6332 37.1953 32.3668 36.4142 31.5858C35.6332 30.8047 34.3668 30.8047 33.5858 31.5858L32 33.1716L30.4142 31.5858C29.6332 30.8047 28.3668 30.8047 27.5858 31.5858C26.8047 32.3668 26.8047 33.6332 27.5858 34.4142L29.1716 36L27.5858 37.5858C26.8047 38.3668 26.8047 39.6332 27.5858 40.4142C28.3668 41.1953 29.6332 41.1953 30.4142 40.4142L32 38.8284L33.5858 40.4142C34.3668 41.1953 35.6332 41.1953 36.4142 40.4142C37.1953 39.6332 37.1953 38.3668 36.4142 37.5858L34.8284 36L36.4142 34.4142ZM11.5 12.5C11.5 11.1193 12.6193 10 14 10H32C33.3807 10 34.5 11.1193 34.5 12.5C34.5 13.8807 33.3807 15 32 15H14C12.6193 15 11.5 13.8807 11.5 12.5ZM14 19C12.6193 19 11.5 20.1193 11.5 21.5C11.5 22.8807 12.6193 24 14 24H23C24.3807 24 25.5 22.8807 25.5 21.5C25.5 20.1193 24.3807 19 23 19H14Z" fill="#081E40"/>
</g>
<defs>
<clipPath id="clip0_2211_6352">
<rect width="48" height="48" fill="white"/>
</clipPath>
</defs>
</svg>
