<svg width="48" height="48" viewBox="0 0 48 48" fill="none" xmlns="http://www.w3.org/2000/svg">
<g clip-path="url(#clip0_1972_655)">
<path fill-rule="evenodd" clip-rule="evenodd" d="M43 24C43 34.4934 34.4934 43 24 43C13.5066 43 5 34.4934 5 24C5 13.5066 13.5066 5 24 5C34.4934 5 43 13.5066 43 24ZM48 24C48 37.2548 37.2548 48 24 48C10.7452 48 0 37.2548 0 24C0 10.7452 10.7452 0 24 0C37.2548 0 48 10.7452 48 24ZM23.903 13.5695C21.4154 13.9631 19.5 15.8016 19.5 18.1676C19.5 19.4102 18.4926 20.4176 17.25 20.4176C16.0074 20.4176 15 19.4102 15 18.1676C15 13.0074 19.1531 9.76507 23.1997 9.12482C25.272 8.79695 27.521 9.09376 29.4477 10.2684C31.4165 11.4686 32.8649 13.4758 33.4497 16.1945C33.9199 18.3806 33.6761 20.1766 32.8565 21.7275C32.1409 23.0818 31.0432 24.1017 30.2106 24.8753L30.0957 24.9822C29.1701 25.8439 28.4479 26.5374 27.9073 27.4409C27.4004 28.2879 27 29.4212 27 31.1673C27 32.41 25.9926 33.4173 24.75 33.4173C23.5074 33.4173 22.5 32.41 22.5 31.1673C22.5 28.6504 23.0996 26.7115 24.0458 25.1302C24.9435 23.6301 26.104 22.5499 26.9858 21.7291L27.0293 21.6886C27.9978 20.787 28.5488 20.2478 28.8779 19.6251C29.1364 19.1357 29.3301 18.4416 29.0503 17.1408C28.7036 15.5287 27.9361 14.6172 27.1053 14.1107C26.2324 13.5785 25.0978 13.3805 23.903 13.5695ZM27.25 37.1414C27.25 38.5221 26.1307 39.6414 24.75 39.6414C23.3693 39.6414 22.25 38.5221 22.25 37.1414C22.25 35.7607 23.3693 34.6414 24.75 34.6414C26.1307 34.6414 27.25 35.7607 27.25 37.1414Z" fill="#081E40"/>
</g>
<defs>
<clipPath id="clip0_1972_655">
<rect width="48" height="48" fill="white"/>
</clipPath>
</defs>
</svg>
