<svg width="48" height="48" viewBox="0 0 48 48" fill="none" xmlns="http://www.w3.org/2000/svg">
<path d="M24 0.500001C24.3643 0.49977 24.7303 0.578871 25.0703 0.740235C25.257 0.828502 25.4346 0.940454 25.5977 1.07617C27.7954 2.82323 31.1162 4.45011 34.417 5.65039C37.7899 6.8769 40.7023 7.5 42 7.5C43.3807 7.5 44.5 8.61929 44.5 10C44.5 10.0844 44.4955 10.1678 44.4873 10.25C44.4955 10.3322 44.5 10.4156 44.5 10.5V27.0625L44.4971 27.125C44.1987 33.0915 40.3853 38.2952 36.3447 41.8721C34.2867 43.694 32.0633 45.1917 29.9805 46.2461C27.967 47.2654 25.8304 48 24 48C22.1982 48 20.0776 47.3166 18.0488 46.3232C15.9592 45.3001 13.7254 43.8297 11.6553 41.9971C7.56027 38.372 3.79499 33.0385 3.50293 26.6133L3.5 26.5566V10C3.5 8.61929 4.61929 7.5 6 7.5L6.26172 7.49219C7.66322 7.41931 10.4207 6.8003 13.583 5.65039C16.8838 4.45011 20.2046 2.82323 22.4023 1.07617C22.5654 0.940454 22.743 0.828502 22.9297 0.740235C23.2697 0.578871 23.6357 0.49977 24 0.500001ZM24 6.09082C21.4041 7.82709 18.2272 9.28226 15.292 10.3496C12.914 11.2143 10.4964 11.8955 8.5 12.2441V26.4404C8.72695 30.9939 11.4537 35.1403 14.9697 38.2529C16.712 39.7953 18.5722 41.0125 20.248 41.833C21.9847 42.6833 23.3018 43 24 43C24.6695 43 25.9706 42.6721 27.7227 41.7852C29.4054 40.9333 31.2759 39.681 33.0303 38.1279C36.5972 34.9703 39.2753 30.9475 39.5 26.9336V12.2441C37.5036 11.8955 35.086 11.2143 32.708 10.3496C29.7728 9.28226 26.5959 7.82709 24 6.09082ZM29.3418 15.6279C30.1786 14.7911 31.5352 14.7911 32.3721 15.6279C33.2089 16.4648 33.2089 17.8214 32.3721 18.6582L27.0303 24L32.3721 29.3418C33.2089 30.1786 33.2089 31.5352 32.3721 32.3721C31.5352 33.2089 30.1786 33.2089 29.3418 32.3721L24 27.0303L18.6582 32.3721C17.8214 33.2089 16.4648 33.2089 15.6279 32.3721C14.7911 31.5352 14.7911 30.1786 15.6279 29.3418L20.9697 24L15.6279 18.6582C14.7911 17.8214 14.7911 16.4648 15.6279 15.6279C16.4648 14.7911 17.8214 14.7911 18.6582 15.6279L24 20.9697L29.3418 15.6279Z" fill="#081E40"/>
</svg>
