<svg width="48" height="48" viewBox="0 0 48 48" fill="none" xmlns="http://www.w3.org/2000/svg">
<path fill-rule="evenodd" clip-rule="evenodd" d="M13.5831 5.40061C16.8839 4.20033 20.2045 2.57367 22.4023 0.826612C22.5654 0.6908 22.7429 0.578466 22.9297 0.490158C23.2697 0.328795 23.6357 0.24977 24 0.250001C24.3643 0.24977 24.7303 0.328795 25.0703 0.490158C25.2571 0.578466 25.4346 0.6908 25.5977 0.826612C27.7955 2.57367 31.1161 4.20033 34.4169 5.40061C37.7898 6.62714 40.7023 7.25009 42 7.25009C43.3807 7.25009 44.5 8.36938 44.5 9.75009C44.5 9.83447 44.4958 9.91787 44.4877 10.0001C44.4958 10.0823 44.5 10.1657 44.5 10.25L44.5 26.8125L44.4969 26.8748C44.1986 32.8414 40.3852 38.045 36.3446 41.6219C34.2865 43.4438 32.0635 44.9417 29.9807 45.9961C27.9671 47.0154 25.8305 47.75 24 47.75C22.1982 47.75 20.0779 47.0668 18.0491 46.0734C15.9593 45.0502 13.7256 43.5796 11.6554 41.7469C7.56041 38.1218 3.79464 32.7888 3.50258 26.3635L3.5 26.3068V9.75009V9.75C3.5 8.36929 4.61929 7.25 6 7.25L6.01702 7.25006C7.32301 7.24466 10.2248 6.62181 13.5831 5.40061ZM15.2919 10.0996C18.2271 9.03223 21.4041 7.57729 24 5.841C26.5959 7.57729 29.7729 9.03223 32.7081 10.0996C35.0862 10.9643 37.5036 11.6463 39.5 11.9949L39.5 26.684C39.2753 30.6979 36.5974 34.7205 33.0304 37.8781C31.276 39.4312 29.4052 40.6833 27.7224 41.5351C25.9704 42.4221 24.6695 42.75 24 42.75C23.3018 42.75 21.9846 42.4332 20.2478 41.5828C18.5719 40.7623 16.7119 39.5454 14.9696 38.0031C11.4535 34.8905 8.72695 30.7441 8.5 26.1906V11.9949C10.4964 11.6463 12.9138 10.9643 15.2919 10.0996ZM35.805 18.9798C36.7603 17.9829 36.7267 16.4004 35.7298 15.445C34.7329 14.4897 33.1504 14.5234 32.1951 15.5202L22.9985 25.1167C22.6298 25.5014 22.0243 25.5294 21.6216 25.1804L16.6374 20.8608C15.594 19.9565 14.0151 20.0693 13.1108 21.1127C12.2065 22.1561 12.3193 23.735 13.3627 24.6392L20.1439 30.5163C21.5532 31.7377 23.6728 31.6395 24.9631 30.293L35.805 18.9798Z" fill="#081E40"/>
</svg>
