<svg width="48" height="48" viewBox="0 0 48 48" fill="none" xmlns="http://www.w3.org/2000/svg">
<g clip-path="url(#clip0_2231_3145)">
<path fill-rule="evenodd" clip-rule="evenodd" d="M31.771 44.3233C31.3827 42.8998 29.8407 42.1459 28.4051 42.4867C26.9914 42.8223 25.5164 43 24 43C13.5066 43 5 34.4934 5 24C5 13.5066 13.5066 5 24 5C34.4934 5 43 13.5066 43 24C43 27.8046 41.8818 31.348 39.956 34.3194L32.1998 26.1362L36.1433 21.8641C36.8388 21.1106 36.8518 19.9532 36.1733 19.1843L28.0497 9.97745C27.3279 9.15938 26.0836 9.07073 25.2531 9.77821L10.9879 21.93C10.1308 22.6602 10.045 23.9536 10.7982 24.7905L20.5089 35.5801C21.2967 36.4554 22.6664 36.464 23.4651 35.5987L28.8008 29.8184L38.1855 39.7198C38.2889 39.8289 38.3998 39.9266 38.5166 40.0128C39.4479 40.953 40.9765 41.0184 41.8809 40.0088C45.686 35.7617 48 30.1511 48 24C48 10.7452 37.2548 0 24 0C10.7452 0 0 10.7452 0 24C0 37.2548 10.7452 48 24 48C26.1492 48 28.2324 47.7175 30.2145 47.1876C31.4497 46.8574 32.1074 45.5569 31.771 44.3233ZM17.2645 24.5009C16.8879 24.0825 16.9308 23.4358 17.3593 23.0707L25.503 16.1335C25.9183 15.7798 26.5404 15.8241 26.9013 16.2331L30.0357 19.7854C30.3749 20.1699 30.3684 20.7486 30.0206 21.1253L22.7677 28.9827C22.3684 29.4153 21.6835 29.411 21.2896 28.9733L17.2645 24.5009Z" fill="#081E40"/>
</g>
<defs>
<clipPath id="clip0_2231_3145">
<rect width="48" height="48" fill="white"/>
</clipPath>
</defs>
</svg>
