<svg width="48" height="48" viewBox="0 0 48 48" fill="none" xmlns="http://www.w3.org/2000/svg">
<path fill-rule="evenodd" clip-rule="evenodd" d="M20.3 18C23.3376 18 25.8 15.5376 25.8 12.5C25.8 9.46243 23.3376 7 20.3 7C17.2624 7 14.8 9.46243 14.8 12.5C14.8 15.5376 17.2624 18 20.3 18ZM27.6236 20.0243C29.583 18.1168 30.8 15.4505 30.8 12.5C30.8 6.70101 26.099 2 20.3 2C14.501 2 9.79999 6.70101 9.79999 12.5C9.79999 15.7837 11.3074 18.7154 13.6679 20.6408C6.97037 23.6181 2.29999 30.3294 2.29999 38.1315C2.29999 39.6691 2.48139 41.1644 2.82397 42.5971C3.02593 43.4418 3.80565 44 4.67409 44H23.8166C22.4997 42.5758 21.475 40.8774 20.8379 39H7.32608C7.30878 38.7131 7.29999 38.4235 7.29999 38.1315C7.29999 30.3269 13.6269 24 21.4315 24C22.4771 24 23.4963 24.1136 24.4772 24.3291C26.0526 22.8383 27.9741 21.7097 30.1086 21.0764C29.311 20.6697 28.481 20.3174 27.6236 20.0243ZM41.3 34C41.3 38.1421 37.9421 41.5 33.8 41.5C29.6579 41.5 26.3 38.1421 26.3 34C26.3 29.8579 29.6579 26.5 33.8 26.5C37.9421 26.5 41.3 29.8579 41.3 34ZM45.8 34C45.8 40.6274 40.4274 46 33.8 46C27.1726 46 21.8 40.6274 21.8 34C21.8 27.3726 27.1726 22 33.8 22C40.4274 22 45.8 27.3726 45.8 34ZM35.8 30C35.8 28.8954 34.9046 28 33.8 28C32.6954 28 31.8 28.8954 31.8 30V34.5V35.3284L32.3858 35.9142L35.3858 38.9142C36.1668 39.6953 37.4332 39.6953 38.2142 38.9142C38.9953 38.1332 38.9953 36.8668 38.2142 36.0858L35.8 33.6716V30Z" fill="#081E40"/>
</svg>
