<svg width="48" height="48" viewBox="0 0 48 48" fill="none" xmlns="http://www.w3.org/2000/svg">
<path fill-rule="evenodd" clip-rule="evenodd" d="M18.5 6.5H41.5V41.5H18.5V25.5H30.0355L26.2322 29.3033C25.2559 30.2796 25.2559 31.8625 26.2322 32.8388C27.2086 33.8151 28.7915 33.8151 29.7678 32.8388L36.1317 26.4749C37.4986 25.108 37.4986 22.892 36.1317 21.5251L29.7678 15.1612C28.7915 14.1849 27.2086 14.1849 26.2322 15.1612C25.2559 16.1375 25.2559 17.7204 26.2322 18.6967L28.0355 20.5H18.5V6.5ZM6.5 44V25.5H13.5V42C13.5 44.4853 15.5147 46.5 18 46.5H42C44.4853 46.5 46.5 44.4853 46.5 42V6C46.5 3.51472 44.4853 1.5 42 1.5H18C15.5147 1.5 13.5 3.51472 13.5 6V20.5H5C3.067 20.5 1.5 22.067 1.5 24V44C1.5 45.3807 2.61929 46.5 4 46.5C5.38071 46.5 6.5 45.3807 6.5 44Z" fill="#081E40"/>
</svg>
