<svg width="48" height="48" viewBox="0 0 48 48" fill="none" xmlns="http://www.w3.org/2000/svg">
<path fill-rule="evenodd" clip-rule="evenodd" d="M30.3923 2.61082C29.3489 1.70655 27.7701 1.81932 26.8658 2.86271C25.9615 3.9061 26.0743 5.48499 27.1177 6.38926L37.0532 15H4.25501C2.87429 15 1.75501 16.1193 1.75501 17.5C1.75501 18.8808 2.87429 20 4.25501 20H43.755C46.0693 20 47.1412 17.1265 45.3923 15.6108L30.3923 2.61082ZM17.6177 45.3892C18.6611 46.2935 20.24 46.1807 21.1442 45.1373C22.0485 44.0939 21.9357 42.515 20.8923 41.6107L10.9568 33L43.255 33C44.6357 33 45.755 31.8807 45.755 30.5C45.755 29.1192 44.6357 28 43.255 28L4.25502 28C1.94076 28 0.868823 30.8735 2.61768 32.3892L17.6177 45.3892Z" fill="#081E40"/>
</svg>
