<svg width="48" height="48" viewBox="0 0 48 48" fill="none" xmlns="http://www.w3.org/2000/svg">
<g clip-path="url(#clip0_2221_413)">
<path fill-rule="evenodd" clip-rule="evenodd" d="M11 4C8.79086 4 7 5.79086 7 8V16.5685C7 17.9492 8.11929 19.0685 9.5 19.0685C10.8807 19.0685 12 17.9492 12 16.5685V11C12 9.89543 12.8954 9 14 9H26.828C27.4379 9 28.0144 9.2783 28.3938 9.75581L34.5922 17.5569C35.3511 18.5119 36.5042 19.0685 37.724 19.0685H41C42.1046 19.0685 43 19.9639 43 21.0685V37C43 38.1046 42.1046 39 41 39H14C12.8954 39 12 38.1046 12 37V34.3082C12 32.9275 10.8807 31.8082 9.5 31.8082C8.11929 31.8082 7 32.9275 7 34.3082V40C7 42.2091 8.79086 44 11 44H44C46.2091 44 48 42.2091 48 40V18.0685C48 15.8594 46.2091 14.0685 44 14.0685H39.172C38.5621 14.0685 37.9856 13.7902 37.6061 13.3127L31.4078 5.51163C30.6489 4.55659 29.4958 4 28.276 4H11ZM2.49945 23C0.928738 23 -0.000549316 24.1193 -0.000549316 25.5C-0.000549316 26.8807 0.928739 28 2.49945 28L14.8943 28L13.1961 29.7683C12.2397 30.7641 12.2717 32.3467 13.2675 33.3031C14.2633 34.2595 15.8459 34.2275 16.8023 33.2317L22.9074 26.8749C23.3777 26.3851 23.609 25.7535 23.6042 25.1242C23.6111 24.4749 23.3667 23.8235 22.871 23.3285L16.766 17.2312C15.7891 16.2555 14.2061 16.2565 13.2304 17.2334C12.2548 18.2103 12.2557 19.7932 13.2327 20.7689L15.4666 23L2.49945 23Z" fill="#081E40"/>
</g>
<defs>
<clipPath id="clip0_2221_413">
<rect width="48" height="48" fill="white"/>
</clipPath>
</defs>
</svg>
