<svg width="48" height="48" viewBox="0 0 48 48" fill="none" xmlns="http://www.w3.org/2000/svg">
<path fill-rule="evenodd" clip-rule="evenodd" d="M25.9948 2.08923C27.1629 2.19422 28 3.21442 28 4.38726C28 5.95996 26.5212 7.11273 24.9508 7.02615C24.6361 7.00879 24.319 7 23.9999 7C21.5649 7 19.2495 7.51194 17.1554 8.43406C18.9062 10.0761 20 12.4103 20 15C20 19.9706 15.9706 24 11 24C6.02944 24 2 19.9706 2 15C2 10.0294 6.02944 6 11 6C11.1134 6 11.2263 6.0021 11.3387 6.00626C14.919 3.48233 19.2864 2 23.9999 2C24.6723 2 25.3377 2.03017 25.9948 2.08923ZM15 15C15 17.2091 13.2091 19 11 19C8.79086 19 7 17.2091 7 15C7 12.7909 8.79086 11 11 11C13.2091 11 15 12.7909 15 15ZM41 15C41 17.2091 39.2091 19 37 19C34.7909 19 33 17.2091 33 15C33 12.7909 34.7909 11 37 11C39.2091 11 41 12.7909 41 15ZM38.9985 23.7773C38.3557 23.9231 37.6869 24 37 24C32.0294 24 28 19.9706 28 15C28 10.0294 32.0294 6 37 6C41.9706 6 46 10.0294 46 15C46 17.2634 45.1645 19.3316 43.7851 20.9131C43.9267 21.9217 43.9999 22.9523 43.9999 24C43.9999 28.0449 42.9083 31.8349 41.0035 35.0914C40.3682 36.1776 38.9656 36.4649 37.8758 35.8358C36.5829 35.0893 36.262 33.3749 36.971 32.061C38.2653 29.6622 38.9999 26.9169 38.9999 24C38.9999 23.9256 38.9995 23.8514 38.9985 23.7773ZM24 41C26.2091 41 28 39.2091 28 37C28 34.7909 26.2091 33 24 33C21.7909 33 20 34.7909 20 37C20 39.2091 21.7909 41 24 41ZM24 46C28.9706 46 33 41.9706 33 37C33 32.0294 28.9706 28 24 28C19.0294 28 15 32.0294 15 37L15 37.0038C11.3653 35.0617 8.51888 31.8375 7.06484 27.9352C6.65017 26.8223 5.63644 26 4.4488 26C2.84299 26 1.62295 27.4637 2.13257 28.9865C4.49285 36.0393 10.3286 41.4997 17.6062 43.334C19.2372 44.9803 21.4995 46 24 46Z" fill="#081E40"/>
</svg>
