<svg width="48" height="48" viewBox="0 0 48 48" fill="none" xmlns="http://www.w3.org/2000/svg">
<path fill-rule="evenodd" clip-rule="evenodd" d="M14.6608 6.97414C15.613 5.97432 15.5744 4.39187 14.5746 3.43966C13.5748 2.48744 11.9923 2.52604 11.0401 3.52587L0.711697 14.3707C-0.0239352 15.1431 -0.0239346 16.3569 0.711698 17.1293L11.0401 27.9741C11.9923 28.974 13.5748 29.0126 14.5746 28.0603C15.5744 27.1081 15.613 25.5257 14.6608 24.5259L8.68378 18.25H31.8502C37.9253 18.25 42.8502 23.1749 42.8502 29.25C42.8502 35.3251 37.9253 40.25 31.8502 40.25H6.35022C4.9695 40.25 3.85022 41.3693 3.85022 42.75C3.85022 44.1307 4.96951 45.25 6.35022 45.25H31.8502C40.6868 45.25 47.8502 38.0866 47.8502 29.25C47.8502 20.4134 40.6868 13.25 31.8502 13.25H8.68379L14.6608 6.97414Z" fill="#081E40"/>
</svg>
