<svg width="48" height="48" viewBox="0 0 48 48" fill="none" xmlns="http://www.w3.org/2000/svg">
<path fill-rule="evenodd" clip-rule="evenodd" d="M6.5 0.5C5.11929 0.5 4 1.61929 4 3C4 4.18841 4.82922 5.18315 5.94064 5.43718C5.65209 6.73531 5.5 8.08395 5.5 9.46665C5.5 16.4907 9.41448 22.6004 15.1809 25.7333C9.41448 28.8662 5.5 34.976 5.5 42C5.5 42.2351 5.5044 42.4692 5.51312 42.7023C4.62317 43.0851 4 43.9698 4 45C4 46.3807 5.11929 47.5 6.5 47.5H41.5C42.8807 47.5 44 46.3807 44 45C44 43.9698 43.3768 43.0851 42.4869 42.7023C42.4956 42.4692 42.5 42.2351 42.5 42C42.5 34.976 38.5855 28.8662 32.8191 25.7333C38.5855 22.6004 42.5 16.4907 42.5 9.46665C42.5 8.08395 42.3479 6.73531 42.0594 5.43718C43.1708 5.18315 44 4.18841 44 3C44 1.61929 42.8807 0.5 41.5 0.5H6.5ZM37.5 42C37.5 42.2791 37.2699 42.5 36.9908 42.5H11.0092C10.7301 42.5 10.5 42.2791 10.5 42C10.5 34.5441 16.5442 28.5 24 28.5C31.4558 28.5 37.5 34.5441 37.5 42ZM37.1058 6.21229C37.0003 5.78585 36.6087 5.5 36.1694 5.5H11.8306C11.3913 5.5 10.9997 5.78585 10.8943 6.21229C10.6367 7.25343 10.5 8.34318 10.5 9.46665C10.5 16.9225 16.5442 22.9667 24 22.9667C31.4558 22.9667 37.5 16.9225 37.5 9.46665C37.5 8.34318 37.3633 7.25343 37.1058 6.21229ZM24.0001 22C19.3976 22 15.3538 19.6083 13.0437 16H34.9564C32.6463 19.6083 28.6025 22 24.0001 22Z" fill="#081E40"/>
</svg>
