<svg width="44" height="48" viewBox="0 0 44 48" fill="none" xmlns="http://www.w3.org/2000/svg">
<path d="M8 16.3633H25C27.2091 16.3633 29 18.3176 29 20.7275V39.2725H32.7275V43.6367H29L28.9951 43.8613C28.8878 46.1668 27.14 48 25 48H4C1.79097 48 0.000170015 46.0465 0 43.6367V20.7275C2.25493e-07 18.3176 1.79086 16.3633 4 16.3633V12.2969H8V16.3633ZM44 39.2725C44 41.6824 42.2091 43.6367 40 43.6367H36.6064V39.2725H40V35.5703H44V39.2725ZM44 31.3389H40V23.9336H44V31.3389ZM10 21.8184C8.89543 21.8184 8.00001 22.795 8 24C8 25.205 8.89543 26.1816 10 26.1816H19C20.1046 26.1816 21 25.205 21 24C21 22.795 20.1046 21.8184 19 21.8184H10ZM44 19.7021H40V12.2969H44V19.7021ZM11.3936 4.36328H8V8.06543H4V4.36328C4.00018 1.95347 5.79097 0 8 0H11.3936V4.36328ZM40 0C42.209 0 43.9998 1.95347 44 4.36328V8.06543H40V4.36328H36.6064V0H40ZM22.0605 4.36328H15.2725V0H22.0605V4.36328ZM32.7275 4.36328H25.9395V0H32.7275V4.36328Z" fill="#081E40"/>
</svg>
