<svg width="48" height="48" viewBox="0 0 48 48" fill="none" xmlns="http://www.w3.org/2000/svg">
<path fill-rule="evenodd" clip-rule="evenodd" d="M6 2C3.79086 2 2 3.79086 2 6V42C2 44.2091 3.79086 46 6 46H42C44.2091 46 46 44.2091 46 42V6C46 3.79086 44.2091 2 42 2H6ZM7 9C7 7.89543 7.89543 7 9 7H39C40.1046 7 41 7.89543 41 9V39C41 40.1046 40.1046 41 39 41H9C7.89543 41 7 40.1046 7 39V9ZM29.9249 10.7932C30.7765 10.0561 32.0778 10.0885 32.8315 10.8654L36.9743 15.1359C37.3382 15.511 37.5079 15.9912 37.4902 16.4705C37.5079 16.9497 37.3382 17.4299 36.9743 17.805L32.8315 22.0755C32.0778 22.8525 30.7765 22.8848 29.9249 22.1477C29.0733 21.4107 28.9939 20.1833 29.7476 19.4064L30.4388 18.6938H16.7017C15.8732 18.6938 15.2017 19.3654 15.2017 20.1938V21.3C15.2017 22.5427 14.1943 23.55 12.9517 23.55C11.709 23.55 10.7017 22.5427 10.7017 21.3V18.1938C10.7017 15.9847 12.4925 14.1938 14.7017 14.1938H30.3872L29.7476 13.5345C28.9939 12.7576 29.0733 11.5303 29.9249 10.7932ZM36.7295 29.8831C36.7295 32.0922 34.9386 33.8831 32.7295 33.8831H18.4725L19.0522 34.4806C19.8059 35.2575 19.7265 36.4849 18.8749 37.2219C18.0233 37.959 16.722 37.9267 15.9683 37.1497L11.8255 32.8792C11.4616 32.5041 11.2919 32.0239 11.3096 31.5447C11.2919 31.0654 11.4616 30.5853 11.8255 30.2101L15.9683 25.9396C16.722 25.1627 18.0233 25.1304 18.8749 25.8674C19.7265 26.6045 19.8059 27.8318 19.0522 28.6087L18.3011 29.3831H30.7295C31.5579 29.3831 32.2295 28.7115 32.2295 27.8831V26.6001C32.2295 25.3574 33.2369 24.3501 34.4795 24.3501C35.7221 24.3501 36.7295 25.3574 36.7295 26.6001V29.8831Z" fill="#081E40"/>
</svg>
