<svg width="48" height="48" viewBox="0 0 48 48" fill="none" xmlns="http://www.w3.org/2000/svg">
<path fill-rule="evenodd" clip-rule="evenodd" d="M2 6C2 3.79086 3.79086 2 6 2H42C44.2091 2 46 3.79086 46 6V25.5C46 26.8807 44.8807 28 43.5 28C42.1193 28 41 26.8807 41 25.5V9C41 7.89543 40.1046 7 39 7H9C7.89543 7 7 7.89543 7 9V31C7 32.1046 7.89543 33 9 33H21C22.3807 33 23.5 34.1193 23.5 35.5C23.5 36.8807 22.3807 38 21 38H6C3.79086 38 2 36.2091 2 34V6ZM43.3429 37.1893C44.2759 36.1715 44.2071 34.5901 43.1894 33.6571L37.2035 28.17C37.0261 28.0046 36.8299 27.8695 36.6218 27.7651C35.9158 27.4103 35.0816 27.4135 34.3816 27.7634C34.1721 27.8681 33.9747 28.0038 33.7963 28.1702L27.8107 33.6571C26.7929 34.5901 26.7241 36.1715 27.6571 37.1893C28.5901 38.2071 30.1715 38.2758 31.1893 37.3429L33 35.683L33 43.5C33 44.8807 34.1193 46 35.5 46C36.8807 46 38 44.8807 38 43.5V35.683L39.8107 37.3429C40.8285 38.2758 42.4099 38.2071 43.3429 37.1893ZM8 41C6.61929 41 5.5 42.1193 5.5 43.5C5.5 44.8807 6.61929 46 8 46H21C22.3807 46 23.5 44.8807 23.5 43.5C23.5 42.1193 22.3807 41 21 41H8ZM31.471 12.9049C30.6735 12.0348 29.2998 12.0411 28.5101 12.9184L21.3031 20.9262C20.9544 21.3137 20.3665 21.3683 19.9524 21.0516L14.0188 16.5141C12.922 15.6754 11.3529 15.8846 10.5142 16.9814C9.67552 18.0782 9.88473 19.6472 10.9815 20.4859L19.8481 27.2663C20.6763 27.8996 21.8521 27.7904 22.5496 27.0155L29.2806 19.5366C29.6754 19.0979 30.3623 19.0948 30.7611 19.5298L33.6572 22.6893C34.5902 23.7071 36.1716 23.7759 37.1894 22.8429C38.2072 21.9099 38.276 20.3285 37.343 19.3107L31.471 12.9049Z" fill="#081E40"/>
</svg>
