<svg width="48" height="48" viewBox="0 0 48 48" fill="none" xmlns="http://www.w3.org/2000/svg">
<path d="M18.8377 42.625C20.2182 42.6253 21.3377 43.7444 21.3377 45.125C21.3377 46.5056 20.2182 47.6247 18.8377 47.625H14.2254C12.8447 47.625 11.7254 46.5057 11.7254 45.125C11.7254 43.7443 12.8447 42.625 14.2254 42.625H18.8377ZM42.9999 42.1748C44.3805 42.1748 45.4997 43.2942 45.4999 44.6748C45.4999 46.0555 44.3806 47.1748 42.9999 47.1748H27.95C26.5693 47.1748 25.45 46.0555 25.45 44.6748C25.4502 43.2942 26.5694 42.1748 27.95 42.1748H42.9999ZM22.4247 0C26.3872 0 29.5994 3.21225 29.5995 7.1748C29.5995 7.38053 29.5875 7.5839 29.5702 7.78516C34.3319 10.3117 37.6077 15.2668 37.745 21H32.6151C32.4177 15.5128 27.9102 11.125 22.3749 11.125C16.8395 11.125 12.332 15.5128 12.1346 21H12.1307C12.131 21.0114 12.1325 21.0228 12.1327 21.0342V29.8115L9.05747 35.9629H19.3622C20.7428 35.963 21.8622 37.0822 21.8622 38.4629C21.862 39.8434 20.7427 40.9628 19.3622 40.9629H6.63071C4.02896 40.9629 2.3365 38.2246 3.49985 35.8975L7.11606 28.6631L7.01255 21.0342C7.01239 21.0228 7.01353 21.0114 7.01352 21H7.00864C7.19129 15.2785 10.496 10.2901 15.2743 7.76172C15.2584 7.56815 15.2499 7.37245 15.2499 7.1748C15.25 3.21232 18.4622 0.000105657 22.4247 0ZM42.9999 33.9502C44.3806 33.9502 45.4999 35.0695 45.4999 36.4502C45.4997 37.8308 44.3805 38.9502 42.9999 38.9502H27.95C26.5694 38.9502 25.4502 37.8308 25.45 36.4502C25.45 35.0695 26.5693 33.9502 27.95 33.9502H42.9999ZM42.9999 25.75C44.3806 25.75 45.4999 26.8693 45.4999 28.25C45.4999 29.6307 44.3806 30.75 42.9999 30.75H27.95C26.5693 30.75 25.45 29.6307 25.45 28.25C25.45 26.8693 26.5693 25.75 27.95 25.75H42.9999ZM22.4247 4C20.9755 4.00009 19.7535 4.97107 19.3729 6.29785C20.3438 6.10247 21.3476 6 22.3749 6C23.4388 6 24.4773 6.10871 25.4803 6.31445C25.1051 4.97923 23.8798 4 22.4247 4Z" fill="#081E40"/>
</svg>
