<svg width="48" height="48" viewBox="0 0 48 48" fill="none" xmlns="http://www.w3.org/2000/svg">
<path fill-rule="evenodd" clip-rule="evenodd" d="M12.2339 6C12.2339 3.79086 14.0247 2 16.2339 2H30.702C32.9111 2 34.702 3.79086 34.702 6V11.1064C34.702 13.3155 32.9111 15.1064 30.702 15.1064H26.2761V21.5H34C37.5899 21.5 40.5 24.4101 40.5 28V32.8936H41.9362C44.1454 32.8936 45.9362 34.6844 45.9362 36.8936V41.9999C45.9362 44.2091 44.1454 45.9999 41.9362 45.9999H34.9575C32.7484 45.9999 30.9575 44.2091 30.9575 41.9999V36.8936C30.9575 34.6844 32.7484 32.8936 34.9575 32.8936H35.5V28C35.5 27.1716 34.8284 26.5 34 26.5H14C13.1716 26.5 12.5 27.1716 12.5 28V32.8936H12.9787C15.1879 32.8936 16.9787 34.6844 16.9787 36.8936V41.9999C16.9787 44.2091 15.1879 45.9999 12.9787 45.9999H6C3.79086 45.9999 2 44.2091 2 41.9999V36.8936C2 34.6844 3.79086 32.8936 6 32.8936H7.5V28C7.5 24.4101 10.4101 21.5 14 21.5H21.5952V15.1064H16.2339C14.0247 15.1064 12.2339 13.3155 12.2339 11.1064V6Z" fill="#081E40"/>
</svg>
