<svg width="48" height="48" viewBox="0 0 48 48" fill="none" xmlns="http://www.w3.org/2000/svg">
<path d="M24 0C33.9222 3.03383e-06 41.9983 8.54816 42 19.0695L41.9874 19.7985C41.8614 23.3987 40.7696 26.89 38.8368 29.8622C38.7474 30.0257 38.626 30.2381 38.4781 30.4487L38.4654 30.4659L27.064 46.3948L27.009 46.4723L26.9477 46.545C26.2096 47.422 25.1898 48 24 48C22.8673 48 21.8363 47.4778 21.1091 46.6215L21.0451 46.545L20.9865 46.4636L9.53275 30.4678L9.51292 30.441C9.35695 30.2168 9.23232 30.0013 9.13432 29.8249C7.08995 26.672 6.00008 22.9387 6 19.0733C6 8.55057 14.0752 0 24 0ZM23.9991 10.8406C26.0611 10.8406 28.0419 11.6944 29.5195 13.2207C30.9971 14.7469 31.8552 16.8248 31.9111 19.0121L31.912 19.0485V19.0848C31.9068 21.308 31.0715 23.4385 29.5889 25.0092C28.1062 26.58 26.0969 27.4633 24.0018 27.4649H23.9991C21.9049 27.4638 19.8944 26.5834 18.4102 25.0112C16.9269 23.4398 16.0917 21.3079 16.0871 19.0839L16.0862 19.0485L16.0871 19.0121C16.1429 16.8248 17.0012 14.7469 18.4787 13.2207C19.9563 11.6944 21.9371 10.8406 23.9991 10.8406ZM23.9991 15.7385C23.1396 15.7386 22.3136 16.0944 21.6977 16.7305C21.0898 17.3586 20.7339 18.2109 20.7025 19.1097C20.7133 20.0238 21.0604 20.8977 21.6707 21.5443C22.2876 22.1979 23.1245 22.565 23.9991 22.566C24.8723 22.5651 25.7095 22.1979 26.3275 21.5434C26.9382 20.8964 27.2843 20.0215 27.2948 19.1068C27.2627 18.209 26.9079 17.3579 26.3005 16.7305C25.6845 16.0943 24.8587 15.7385 23.9991 15.7385ZM10.6154 19.0733C10.6155 21.9805 11.4396 24.7669 12.9745 27.1081L13.0294 27.1923L13.0772 27.2803C13.1511 27.4157 13.1921 27.4828 13.2233 27.5281L24 42.5778L34.7776 27.5214C34.7865 27.5087 34.8028 27.4835 34.8227 27.4496C34.8418 27.4171 34.8552 27.3914 34.8597 27.3827L34.9219 27.2612L34.9967 27.1483C36.5547 24.7816 37.3882 21.9632 37.3846 19.0762V19.0733C37.3846 11.2636 31.3819 4.89796 24 4.89796C16.6169 4.89796 10.6154 11.2634 10.6154 19.0733Z" fill="black"/>
</svg>
