<svg width="48" height="48" viewBox="0 0 48 48" fill="none" xmlns="http://www.w3.org/2000/svg">
<g clip-path="url(#clip0_13616_423)">
<path d="M10.3775 4.3766C18.7752 -1.60637 30.8218 -2.12409 41.6724 7.64125C42.6987 8.5649 42.7816 10.1462 41.858 11.1725C40.9343 12.1985 39.3539 12.2816 38.3277 11.358C29.1785 3.1238 19.7249 3.8564 13.2789 8.44887C6.65916 13.1651 3.07474 21.9976 5.98979 30.4909C6.43767 31.7967 5.74185 33.2185 4.43608 33.6666C3.13035 34.1146 1.7086 33.4195 1.2603 32.1139C-2.44949 21.3052 2.15338 10.2359 10.3775 4.3766Z" fill="#081E40"/>
<path d="M39.9996 6.99999C41.3803 6.99999 42.4996 8.11928 42.4996 9.49999C42.4996 10.8807 41.3803 12 39.9996 12H28.2496C26.8688 12 25.7496 10.8807 25.7496 9.49999C25.7496 8.11928 26.8688 6.99999 28.2496 6.99999H39.9996Z" fill="#081E40"/>
<path d="M37.6226 43.6816C29.2248 49.6646 17.1783 50.1823 6.32766 40.417C5.30139 39.4933 5.21847 37.912 6.14212 36.8857C7.0658 35.8597 8.64621 35.7766 9.67239 36.7002C18.8216 44.9344 28.2752 44.2018 34.7212 39.6093C41.3409 34.8931 44.9253 26.0606 42.0103 17.5674C41.5624 16.2616 42.2582 14.8397 43.564 14.3916C44.8697 13.9436 46.2915 14.6387 46.7398 15.9443C50.4496 26.7531 45.8467 37.8223 37.6226 43.6816Z" fill="#081E40"/>
<path d="M8.00051 41.0582C6.6198 41.0582 5.50051 39.9389 5.50051 38.5582C5.50051 37.1775 6.6198 36.0582 8.00051 36.0582H19.7505C21.1312 36.0582 22.2505 37.1775 22.2505 38.5582C22.2505 39.9389 21.1312 41.0582 19.7505 41.0582H8.00051Z" fill="#081E40"/>
</g>
<defs>
<clipPath id="clip0_13616_423">
<rect width="48" height="48" fill="white"/>
</clipPath>
</defs>
</svg>
