<svg width="48" height="48" viewBox="0 0 48 48" fill="none" xmlns="http://www.w3.org/2000/svg">
<path fill-rule="evenodd" clip-rule="evenodd" d="M37.132 13.0466C36.9167 13.2385 36.6765 13.3868 36.4229 13.4915C36.2391 13.6465 36.0301 13.7771 35.7991 13.8765L25.4886 18.3156C24.2205 18.8616 22.7498 18.2762 22.2038 17.008C21.6578 15.7398 22.2432 14.2692 23.5114 13.7232L28.9552 11.3794C27.3939 10.8781 25.729 10.6073 24 10.6073C15.057 10.6073 7.80731 17.857 7.80731 26.8C7.80731 35.743 15.057 42.9927 24 42.9927C32.943 42.9927 40.1927 35.743 40.1927 26.8C40.1927 26.6751 40.1913 26.5505 40.1885 26.4263C40.1571 25.0389 41.2129 23.7375 42.6846 23.7375C43.8725 23.7375 44.9254 24.6278 44.9796 25.8662C44.9932 26.1758 45 26.4871 45 26.8C45 38.398 35.598 47.8 24 47.8C12.402 47.8 3 38.398 3 26.8C3 15.202 12.402 5.80001 24 5.80001C25.2266 5.80001 26.429 5.90523 27.5985 6.10721L26.1334 4.46345C25.2148 3.43271 25.3057 1.8524 26.3364 0.933747C27.3671 0.0150891 28.9474 0.105954 29.8661 1.1367L37.335 9.51685C38.2536 10.5476 38.1628 12.1279 37.132 13.0466Z" fill="#081E40"/>
</svg>
