<svg width="48" height="48" viewBox="0 0 48 48" fill="none" xmlns="http://www.w3.org/2000/svg">
<path d="M36.3336 39.9356C37.1751 41.0228 37.0188 42.5947 35.8769 43.3604C32.3854 45.7015 28.3161 46.9727 24.1354 46.9996C19.1444 47.0317 14.2914 45.2886 10.373 42.0566C6.45473 38.8246 3.70406 34.2957 2.57269 29.2136C1.44133 24.1316 1.99651 18.7983 4.14708 14.0896C6.29764 9.38097 9.91577 5.57673 14.4074 3.30157C18.899 1.02641 23.9971 0.415567 28.8646 1.56934C33.7321 2.7231 38.0797 5.57291 41.1935 9.65081C43.8076 13.0743 45.4217 17.1925 45.8711 21.5135C46.014 22.8874 44.8802 24.0097 43.4988 24.0091C42.1176 24.0084 41.0158 22.8832 40.8308 21.5144C40.4076 18.3824 39.1898 15.409 37.2842 12.9134C34.8784 9.76265 31.5193 7.5608 27.7585 6.66936C23.9977 5.77793 20.0588 6.24988 16.5884 8.00774C13.1181 9.7656 10.3226 12.7049 8.66101 16.343C6.99941 19.981 6.57046 24.1016 7.44459 28.0282C8.31872 31.9548 10.444 35.4539 13.4714 37.9511C16.4988 40.4483 20.2484 41.795 24.1046 41.7702C27.0748 41.7511 29.9723 40.9191 32.5168 39.379C33.7675 38.6219 35.4388 38.7794 36.3336 39.9356Z" fill="#081E40"/>
<path d="M43.5 2C44.8805 2.00016 45.999 3.11943 45.999 4.5L46 21.499C46 22.8796 44.8806 23.9998 43.5 24C42.1195 23.9998 41.0002 22.8805 41 21.5V4.5C41 3.11939 42.1194 2.00016 43.5 2Z" fill="#081E40"/>
</svg>
