<svg width="48" height="48" viewBox="0 0 48 48" fill="none" xmlns="http://www.w3.org/2000/svg">
<path fill-rule="evenodd" clip-rule="evenodd" d="M7 8C7 7.44772 7.44772 7 8 7H40C40.5523 7 41 7.44772 41 8V40C41 40.5523 40.5523 41 40 41H8C7.44772 41 7 40.5523 7 40V8ZM2 6C2 3.79086 3.79086 2 6 2H42C44.2091 2 46 3.79086 46 6V42C46 44.2091 44.2091 46 42 46H6C3.79086 46 2 44.2091 2 42V6ZM37 16C37 18.7614 34.7614 21 32 21C31.5521 21 31.1179 20.9411 30.7049 20.8306L23.0355 28.5H27.8773C28.6104 27.5855 29.7368 27 31 27C33.2091 27 35 28.7909 35 31C35 33.2091 33.2091 35 31 35C29.7368 35 28.6104 34.4145 27.8773 33.5H20.1227C19.3896 34.4145 18.2632 35 17 35C14.7909 35 13 33.2091 13 31C13 29.7368 13.5855 28.6104 14.5 27.8773V19.1227C13.5855 18.3896 13 17.2632 13 16C13 13.7909 14.7909 12 17 12C19.2091 12 21 13.7909 21 16C21 17.2632 20.4145 18.3896 19.5 19.1227V24.9644L27.1693 17.2951C27.0589 16.882 27 16.4479 27 16C27 13.2386 29.2386 11 32 11C34.7614 11 37 13.2386 37 16Z" fill="#081E40"/>
</svg>
