<svg width="48" height="48" viewBox="0 0 48 48" fill="none" xmlns="http://www.w3.org/2000/svg">
<path fill-rule="evenodd" clip-rule="evenodd" d="M38.3401 16.9369L38.3356 16.9413L34.5 20.7536C33.5371 21.7106 33.5371 23.2622 34.5 24.2192C35.4629 25.1762 37.024 25.1762 37.9869 24.2192L41.8225 20.407L41.8291 20.4004L41.8478 20.3818C46.0592 16.169 46.0507 9.36061 41.8225 5.15814C37.5858 0.947286 30.7168 0.947286 26.4801 5.15814L19.5063 12.0895L19.4784 12.1173L19.4759 12.1197C14.7129 16.8869 14.6684 24.788 20.2156 28.9012C21.3071 29.7105 22.852 29.4871 23.6662 28.4023C24.4805 27.3175 24.2558 25.7821 23.1643 24.9728C19.9451 22.5858 20.3916 18.1626 22.9719 15.5763L29.9866 8.60436C32.2991 6.32698 36.0312 6.33346 38.3356 8.62379C40.645 10.9191 40.6465 14.6397 38.3401 16.9369ZM24.0068 32.4449L17.033 39.3762C14.7221 41.6731 10.9754 41.673 8.66444 39.3762C6.35486 37.0807 6.35353 33.3598 8.66043 31.0626L8.66444 31.0587L12.5 27.2464C13.4629 26.2894 13.4629 24.7378 12.5 23.7808C11.5372 22.8238 9.97601 22.8238 9.01313 23.7808L5.17754 27.593L5.17211 27.5984L5.14716 27.6232C0.940826 31.8364 0.950989 38.6411 5.17754 42.8419C9.4041 47.0427 16.2504 47.0527 20.4895 42.872L27.4938 35.9106C32.2869 31.1466 32.156 23.2207 26.597 19.0988C25.5056 18.2895 23.9607 18.5129 23.1465 19.5977C22.3322 20.6825 22.5569 22.2179 23.6484 23.0272C26.8764 25.4207 26.6059 29.8617 24.0068 32.4449Z" fill="#081E40"/>
</svg>
