<svg width="48" height="48" viewBox="0 0 48 48" fill="none" xmlns="http://www.w3.org/2000/svg">
<path d="M10.4753 1.89705C14.2997 1.89705 17.5337 4.42277 18.6013 7.89705L36.4753 7.89705C37.7229 7.89705 38.9585 8.14229 40.1111 8.61971C41.2637 9.09712 42.311 9.79713 43.1931 10.6793C44.0752 11.5613 44.7743 12.6089 45.2517 13.7613C45.7291 14.9139 45.9753 16.1495 45.9753 17.397C45.9753 18.6446 45.7301 19.8802 45.2527 21.0328C44.7753 22.1854 44.0753 23.2327 43.1931 24.1148C42.311 24.997 41.2637 25.697 40.1111 26.1744C38.9585 26.6518 37.7229 26.897 36.4753 26.897L11.4753 26.897C10.2819 26.897 9.13762 27.3715 8.2937 28.2154C7.44979 29.0593 6.97534 30.2036 6.97534 31.397C6.97534 32.5905 7.44979 33.7348 8.2937 34.5787C9.13761 35.4226 10.2819 35.897 11.4753 35.897H38.5066L36.7839 34.1744C35.9638 33.3543 35.9638 32.0257 36.7839 31.2056C37.604 30.3856 38.9326 30.3856 39.7527 31.2056L45.4099 36.8619L45.5535 37.022C46.2261 37.8468 46.1787 39.0628 45.4099 39.8316L39.7527 45.4879C38.9326 46.308 37.604 46.308 36.7839 45.4879C35.9638 44.6678 35.9638 43.3392 36.7839 42.5191L38.406 40.897H11.4753C8.95579 40.897 6.53916 39.8964 4.75757 38.1148C2.97597 36.3332 1.97534 33.9166 1.97534 31.397C1.97534 28.8775 2.97597 26.4609 4.75757 24.6793C6.53916 22.8977 8.95579 21.897 11.4753 21.897L36.4753 21.897C37.0662 21.897 37.6511 21.7804 38.197 21.5543C38.743 21.3281 39.2391 20.9966 39.657 20.5787C40.0748 20.1608 40.4064 19.6647 40.6326 19.1187C40.8586 18.5728 40.9753 17.9879 40.9753 17.397C40.9753 16.8062 40.8586 16.2213 40.6326 15.6754C40.4064 15.1294 40.0748 14.6333 39.657 14.2154C39.2391 13.7975 38.743 13.466 38.197 13.2398C37.6511 13.0137 37.0662 12.897 36.4753 12.897H18.6013C17.5337 16.3713 14.2997 18.897 10.4753 18.897C5.78092 18.897 1.97534 15.0915 1.97534 10.397C1.97534 5.70263 5.78092 1.89705 10.4753 1.89705ZM10.4753 6.89705C8.54235 6.89705 6.97534 8.46405 6.97534 10.397C6.97534 12.33 8.54235 13.897 10.4753 13.897C12.4083 13.897 13.9753 12.33 13.9753 10.397C13.9753 8.46405 12.4083 6.89705 10.4753 6.89705Z" fill="#081E40"/>
</svg>
