<svg width="48" height="48" viewBox="0 0 48 48" fill="none" xmlns="http://www.w3.org/2000/svg">
<path fill-rule="evenodd" clip-rule="evenodd" d="M38 14C38 6.26801 31.732 0 24 0C16.268 0 10 6.26801 10 14V20H8C5.79086 20 4 21.7909 4 24V44C4 46.2091 5.79086 48 8 48H40C42.2091 48 44 46.2091 44 44V24C44 21.7909 42.2091 20 40 20H38V14ZM15 14C15 9.02944 19.0294 5 24 5C28.9706 5 33 9.02944 33 14V20H15V14ZM11 25C9.89543 25 9 25.8954 9 27V41C9 42.1046 9.89543 43 11 43H37C38.1046 43 39 42.1046 39 41V27C39 25.8954 38.1046 25 37 25H11ZM27 32C27 32.8885 26.6138 33.6868 26 34.2361V36C26 37.1046 25.1046 38 24 38C22.8954 38 22 37.1046 22 36V34.2361C21.3863 33.6868 21 32.8885 21 32C21 30.3431 22.3431 29 24 29C25.6569 29 27 30.3431 27 32Z" fill="#081E40"/>
</svg>
