<svg width="48" height="48" viewBox="0 0 48 48" fill="none" xmlns="http://www.w3.org/2000/svg">
<path fill-rule="evenodd" clip-rule="evenodd" d="M44 36H4L3.79395 35.9951C1.7488 35.8913 0.108652 34.2512 0.00488281 32.2061L0 32V10C0 7.79086 1.79086 6 4 6H44C46.2091 6 48 7.79086 48 10V32C48 34.14 46.3194 35.8879 44.2061 35.9951L44 36ZM44 30C44 31.1046 43.1046 32 42 32H6C4.89543 32 4 31.1046 4 30V12C4 10.8954 4.89543 10 6 10H42C43.1046 10 44 10.8954 44 12V30Z" fill="#081E40"/>
<path d="M24 42L29.1961 38.25H18.8038L24 42Z" fill="#081E40"/>
<path d="M7 13H10V16H7V13Z" fill="#081E40"/>
<path d="M7 19H14V22H7V19Z" fill="#081E40"/>
<path d="M13 25H34V28H13V25Z" fill="#081E40"/>
<path d="M14 13H17V16H14V13Z" fill="#081E40"/>
<path d="M17 19H20V22H17V19Z" fill="#081E40"/>
<path d="M7 25H10V28H7V25Z" fill="#081E40"/>
<path d="M38 25H41V28H38V25Z" fill="#081E40"/>
<path d="M20 13H23V16H20V13Z" fill="#081E40"/>
<path d="M23 19H26V22H23V19Z" fill="#081E40"/>
<path d="M26 13H29V16H26V13Z" fill="#081E40"/>
<path d="M29 19H32V22H29V19Z" fill="#081E40"/>
<path d="M32 13H35V16H32V13Z" fill="#081E40"/>
<path d="M41 22H35V19H38V13H41V22Z" fill="#081E40"/>
</svg>
