<svg width="48" height="48" viewBox="0 0 48 48" fill="none" xmlns="http://www.w3.org/2000/svg">
<path fill-rule="evenodd" clip-rule="evenodd" d="M33.5 6H7.5C6.67157 6 6 6.67157 6 7.5C6 8.32843 6.67157 9 7.5 9H33.5C34.3284 9 35 8.32843 35 7.5C35 6.67157 34.3284 6 33.5 6ZM7.5 2C4.46243 2 2 4.46243 2 7.5C2 10.5376 4.46243 13 7.5 13H33.5C36.5376 13 39 10.5376 39 7.5C39 4.46243 36.5376 2 33.5 2H7.5ZM40.5 22H7.5C6.67157 22 6 22.6716 6 23.5C6 24.3284 6.67157 25 7.5 25H40.5C41.3284 25 42 24.3284 42 23.5C42 22.6716 41.3284 22 40.5 22ZM7.5 18C4.46243 18 2 20.4624 2 23.5C2 26.5376 4.46243 29 7.5 29H40.5C43.5376 29 46 26.5376 46 23.5C46 20.4624 43.5376 18 40.5 18H7.5ZM7.5 39H27.5C28.3284 39 29 39.6716 29 40.5C29 41.3284 28.3284 42 27.5 42H7.5C6.67157 42 6 41.3284 6 40.5C6 39.6716 6.67157 39 7.5 39ZM2 40.5C2 37.4624 4.46243 35 7.5 35H27.5C30.5376 35 33 37.4624 33 40.5C33 43.5376 30.5376 46 27.5 46H7.5C4.46243 46 2 43.5376 2 40.5Z" fill="#081E40"/>
</svg>
