<svg width="48" height="48" viewBox="0 0 48 48" fill="none" xmlns="http://www.w3.org/2000/svg">
<path d="M20.5 0C23.3593 4.87059e-07 26.1092 1.0645 28.2188 2.97461L28.6318 3.36816C30.7885 5.52483 32 8.45001 32 11.5H31.9941L31.9941 33H32C32 34.8565 31.263 36.6374 29.9502 37.9502C28.6374 39.2629 26.8565 40 25 40C23.1435 40 21.3626 39.2629 20.0498 37.9502C18.7371 36.6374 18 34.8565 18 33V16.0518C18.0001 14.7844 19.0275 13.757 20.2949 13.7568C21.5624 13.7568 22.5907 14.7843 22.5908 16.0518L22.5898 33H22.6182L22.6299 33.2354C22.684 33.7805 22.9256 34.2928 23.3164 34.6836C23.763 35.1302 24.3684 35.3818 25 35.3818C25.6316 35.3818 26.237 35.1302 26.6836 34.6836C27.1302 34.237 27.3818 33.6316 27.3818 33H27.4043L27.4043 11.5H27.4004L27.3916 11.1582C27.3071 9.45265 26.5921 7.8343 25.3789 6.62109C24.0849 5.32709 22.33 4.59961 20.5 4.59961C18.67 4.59961 16.9151 5.32709 15.6211 6.62109C14.3271 7.91509 13.5996 9.67001 13.5996 11.5H13.5908L13.5898 33H13.585L13.5859 33.042C13.72 35.7428 14.8522 38.3054 16.7734 40.2266C18.8227 42.2759 21.6018 43.4277 24.5 43.4277C27.3982 43.4277 30.1773 42.2759 32.2266 40.2266C34.2759 38.1773 35.4277 35.3982 35.4277 32.5H35.4268V12.2559C35.4269 10.9931 36.4501 9.96986 37.7129 9.96973C38.9758 9.96973 39.9999 10.993 40 12.2559V32.5C40 36.6109 38.3668 40.5531 35.46 43.46C32.5531 46.3668 28.6109 48 24.5 48C20.3891 48 16.4469 46.3668 13.54 43.46C10.7513 40.6712 9.13649 36.9294 9.00977 33H9L9 11.4834C9.00439 8.4394 10.2154 5.52092 12.3682 3.36816C14.5248 1.2115 17.45 -2.30677e-07 20.5 0Z" fill="#081E40"/>
</svg>
