<svg width="48" height="48" viewBox="0 0 48 48" fill="none" xmlns="http://www.w3.org/2000/svg">
<path fill-rule="evenodd" clip-rule="evenodd" d="M4.25 1.75C2.86929 1.75 1.75 2.86929 1.75 4.25C1.75 5.63071 2.86929 6.75 4.25 6.75L43.25 6.75C44.6307 6.75 45.75 5.63072 45.75 4.25C45.75 2.86929 44.6307 1.75 43.25 1.75L4.25 1.75ZM40.25 20.75C40.25 19.3693 39.1307 18.25 37.75 18.25C36.3693 18.25 35.25 19.3693 35.25 20.75V35.4927L33.8303 33.3633C33.0645 32.2144 31.5123 31.904 30.3635 32.6699C29.2147 33.4358 28.9042 34.9879 29.6701 36.1368L35.6396 45.091C35.7338 45.2394 35.8445 45.3791 35.9711 45.5071C36.1894 45.7285 36.4429 45.9028 36.7166 46.0267C37.0403 46.1742 37.3842 46.2471 37.7259 46.2501C38.0952 46.2541 38.4683 46.1764 38.8169 46.0114C39.0688 45.8929 39.3029 45.7313 39.5073 45.5291C39.6436 45.3947 39.7621 45.247 39.8619 45.0894L45.8303 36.1367C46.5962 34.9879 46.2858 33.4357 45.137 32.6699C43.9882 31.904 42.436 32.2144 41.6701 33.3632L40.25 35.4934V20.75ZM1.75 24.25C1.75 22.8693 2.86929 21.75 4.25 21.75L27.25 21.75C28.6307 21.75 29.75 22.8693 29.75 24.25C29.75 25.6307 28.6307 26.75 27.25 26.75L4.25 26.75C2.86929 26.75 1.75 25.6307 1.75 24.25ZM4.25 40.75C2.86929 40.75 1.75 41.8693 1.75 43.25C1.75 44.6307 2.86929 45.75 4.25 45.75H21.25C22.6307 45.75 23.75 44.6307 23.75 43.25C23.75 41.8693 22.6307 40.75 21.25 40.75H4.25Z" fill="#081E40"/>
</svg>
