<svg width="48" height="48" viewBox="0 0 48 48" fill="none" xmlns="http://www.w3.org/2000/svg">
<path fill-rule="evenodd" clip-rule="evenodd" d="M2 6C2 3.79086 3.79086 2 6 2H42C44.2091 2 46 3.79086 46 6V20C46 21.3807 44.8807 22.5 43.5 22.5C42.1193 22.5 41 21.3807 41 20V9C41 7.89543 40.1046 7 39 7H9C7.89543 7 7 7.89543 7 9V31C7 32.1046 7.89543 33 9 33H22C23.3807 33 24.5 34.1193 24.5 35.5C24.5 36.8807 23.3807 38 22 38H6C3.79086 38 2 36.2091 2 34V6ZM24.5 43.5C24.5 44.8807 23.3807 46 22 46H9C7.61929 46 6.5 44.8807 6.5 43.5C6.5 42.1193 7.61929 41 9 41H22C23.3807 41 24.5 42.1193 24.5 43.5ZM33.4589 14.5281C31.8638 12.7879 29.1164 12.8004 27.5371 14.5551L21.1856 21.6123L14.5188 16.5141C13.422 15.6754 11.8529 15.8846 11.0142 16.9814C10.1755 18.0782 10.3847 19.6472 11.4815 20.4859L18.8816 26.1448C20.5381 27.4115 22.8897 27.1932 24.2846 25.6433L30.5171 18.7183L34.1572 22.6893C35.0902 23.7071 36.6716 23.7759 37.6894 22.8429C38.7072 21.9099 38.776 20.3285 37.843 19.3107L33.4589 14.5281ZM43.5 30C44.8807 30 46 28.8807 46 27.5C46 26.1193 44.8807 25 43.5 25H28.5C27.1193 25 26 26.1193 26 27.5C26 28.8807 27.1193 30 28.5 30H43.5ZM43.5 46C44.8807 46 46 44.8807 46 43.5C46 42.1193 44.8807 41 43.5 41H28.5C27.1193 41 26 42.1193 26 43.5C26 44.8807 27.1193 46 28.5 46H43.5ZM46 35.5C46 36.8807 44.8807 38 43.5 38H28.5C27.1193 38 26 36.8807 26 35.5C26 34.1193 27.1193 33 28.5 33H43.5C44.8807 33 46 34.1193 46 35.5Z" fill="#081E40"/>
</svg>
