<svg width="48" height="48" viewBox="0 0 48 48" fill="none" xmlns="http://www.w3.org/2000/svg">
<path fill-rule="evenodd" clip-rule="evenodd" d="M2 6C2 3.79086 3.79086 2 6 2H42C44.2091 2 46 3.79086 46 6V34C46 36.2091 44.2091 38 42 38H6C3.79086 38 2 36.2091 2 34V6ZM9 7C7.89543 7 7 7.89543 7 9V31C7 32.1046 7.89543 33 9 33H39C40.1046 33 41 32.1046 41 31V9C41 7.89543 40.1046 7 39 7H9ZM41.5 43.5C41.5 44.8807 40.3807 46 39 46H9C7.61929 46 6.5 44.8807 6.5 43.5C6.5 42.1193 7.61929 41 9 41H39C40.3807 41 41.5 42.1193 41.5 43.5ZM31.471 12.9049C30.6735 12.0348 29.2998 12.0411 28.5101 12.9184L21.3031 20.9262C20.9544 21.3137 20.3665 21.3683 19.9524 21.0516L14.0188 16.5141C12.922 15.6754 11.3529 15.8846 10.5142 16.9814C9.67552 18.0782 9.88473 19.6472 10.9815 20.4859L19.8481 27.2663C20.6763 27.8996 21.8521 27.7904 22.5496 27.0155L29.2806 19.5366C29.6754 19.0979 30.3623 19.0948 30.7611 19.5298L33.6572 22.6893C34.5902 23.7071 36.1716 23.7759 37.1894 22.8429C38.2072 21.9099 38.276 20.3285 37.343 19.3107L31.471 12.9049Z" fill="#081E40"/>
</svg>
