<svg width="48" height="48" viewBox="0 0 48 48" fill="none" xmlns="http://www.w3.org/2000/svg">
<path fill-rule="evenodd" clip-rule="evenodd" d="M11.5021 7L6.41123 21H17.5H19.5L19.8382 22.6153C21.424 26.8063 27.2485 26.6355 28.6413 22.6713L29.5 21H31H41.5888L36.4979 7H11.5021ZM5 39V26H15.9405C19.6323 32.1734 28.9893 32.3639 32.6016 26H43V39H5ZM10.8017 2C9.11968 2 7.61736 3.05227 7.04254 4.63302L0.361239 23.0066C0.122253 23.6638 0 24.3577 0 25.0571V40C0 42.2091 1.79086 44 4 44H44C46.2091 44 48 42.2091 48 40V25.0571C48 24.3577 47.8777 23.6638 47.6388 23.0066L40.9575 4.63303C40.3826 3.05227 38.8803 2 37.1983 2H10.8017ZM14 11.5C12.6193 11.5 11.5 12.6193 11.5 14C11.5 15.3807 12.6193 16.5 14 16.5L33 16.5C34.3807 16.5 35.5 15.3807 35.5 14C35.5 12.6193 34.3807 11.5 33 11.5L14 11.5Z" fill="#081E40"/>
</svg>
