<svg width="48" height="48" viewBox="0 0 48 48" fill="none" xmlns="http://www.w3.org/2000/svg">
<path fill-rule="evenodd" clip-rule="evenodd" d="M6 2C3.79086 2 2 3.79086 2 6V42C2 44.2091 3.79086 46 6 46H42C44.2091 46 46 44.2091 46 42V6C46 3.79086 44.2091 2 42 2H6ZM7 9C7 7.89543 7.89543 7 9 7H39C40.1046 7 41 7.89543 41 9V39C41 40.1046 40.1046 41 39 41H9C7.89543 41 7 40.1046 7 39V9ZM12.905 15.9106C14.2774 15.9985 15.7208 16.6518 16.5852 17.7756C17.2587 18.6511 17.0949 19.9068 16.2194 20.5802C15.3439 21.2537 14.0882 21.0899 13.4147 20.2144C13.4147 20.2145 13.4136 20.213 13.411 20.21C13.4084 20.2071 13.4045 20.2029 13.3992 20.1976C13.3883 20.1868 13.3725 20.1724 13.3509 20.1555C13.3067 20.1209 13.2456 20.0812 13.168 20.0429C13.0075 19.9639 12.8223 19.9135 12.6491 19.9024C12.4776 19.8914 12.3637 19.9209 12.3008 19.9497C12.254 19.9711 12.1967 20.0073 12.1316 20.1157C11.9821 20.3648 11.9534 20.5367 11.9509 20.6393C11.9483 20.7465 11.9725 20.8653 12.0437 21.0039C12.2046 21.3168 12.5682 21.6433 12.9927 21.8131C14.7305 22.5082 15.9627 23.759 16.4513 25.3397C16.9313 26.8928 16.615 28.5198 15.7474 29.8211C14.8413 31.1801 13.177 31.7285 11.8279 31.7332C10.3934 31.7382 8.60903 31.1269 7.7111 29.3311C7.21712 28.3431 7.61757 27.1418 8.60552 26.6478C9.59348 26.1538 10.7948 26.5543 11.2888 27.5422C11.3134 27.5915 11.3409 27.621 11.4016 27.6523C11.4792 27.6924 11.6186 27.7339 11.814 27.7332C12.0098 27.7326 12.1957 27.6891 12.3309 27.629C12.3912 27.6023 12.4255 27.5798 12.4414 27.5682C12.6902 27.1764 12.7164 26.8015 12.6296 26.5209C12.5489 26.2597 12.2959 25.8425 11.5072 25.527C10.3313 25.0567 9.15416 24.1316 8.48641 22.8329C7.76745 21.4346 7.7087 19.7126 8.70167 18.0577C9.71907 16.362 11.4389 15.8166 12.905 15.9106ZM24.6414 26.3696C25.1014 25.7697 25.5 24.7684 25.5 23.5C25.5 22.2316 25.1014 21.2303 24.6414 20.6304C24.1846 20.0345 23.8341 20 23.75 20C23.6659 20 23.3154 20.0345 22.8586 20.6304C22.3986 21.2303 22 22.2316 22 23.5C22 24.7684 22.3986 25.7697 22.8586 26.3696C23.3154 26.9655 23.6659 27 23.75 27C23.8341 27 24.1846 26.9655 24.6414 26.3696ZM28.6394 27.4489C29.185 26.302 29.5 24.949 29.5 23.5C29.5 19.3579 26.9256 16 23.75 16C20.5744 16 18 19.3579 18 23.5C18 27.6421 20.5744 31 23.75 31C24.5347 31 25.2827 30.795 25.9642 30.4237L26.4839 30.9096C27.2908 31.6639 28.5564 31.6213 29.3107 30.8144C30.065 30.0075 30.0224 28.7419 29.2155 27.9876L28.6394 27.4489ZM33 16C34.1046 16 35 16.8954 35 18V26.8117C35 27.0878 35.2239 27.3117 35.5 27.3117H38.5C39.6046 27.3117 40.5 28.2071 40.5 29.3117C40.5 30.4163 39.6046 31.3117 38.5 31.3117H33C31.8954 31.3117 31 30.4163 31 29.3117V18C31 16.8954 31.8954 16 33 16Z" fill="#081E40"/>
</svg>
