<svg width="48" height="48" viewBox="0 0 48 48" fill="none" xmlns="http://www.w3.org/2000/svg">
<path fill-rule="evenodd" clip-rule="evenodd" d="M5.93371 6.64255C6.50578 5.05685 8.0106 4 9.69633 4H38.3037C39.9894 4 41.4942 5.05685 42.0663 6.64255L47.7626 22.4319C47.9197 22.8672 48 23.3265 48 23.7893V40C48 42.2091 46.2091 44 44 44H4C1.79086 44 0 42.2091 0 40V23.7893C0 23.3265 0.0803171 22.8672 0.237376 22.4319L5.93371 6.64255ZM11.8033 9C10.9604 9 10.208 9.52843 9.92197 10.3213L5.88901 21.5H18.5C19.0523 21.5 19.5 21.9477 19.5 22.5V24C19.5 24.7666 19.7505 25.9722 20.4288 26.9142C21.0153 27.7288 22.0148 28.5 24 28.5C25.9852 28.5 26.9847 27.7288 27.5712 26.9142C28.2495 25.9722 28.5 24.7666 28.5 24V22.5C28.5 21.9477 28.9477 21.5 29.5 21.5H42.111L38.078 10.3213C37.792 9.52843 37.0396 9 36.1967 9H11.8033ZM43 26.5H33.1695C32.8873 27.5942 32.4018 28.7623 31.6288 29.8358C30.1153 31.9378 27.6148 33.5 24 33.5C20.3852 33.5 17.8847 31.9378 16.3712 29.8358C15.5982 28.7623 15.1127 27.5942 14.8305 26.5H5V37C5 38.1046 5.89543 39 7 39H41C42.1046 39 43 38.1046 43 37V26.5ZM10.5 15C10.5 13.6193 11.6193 12.5 13 12.5L35 12.5C36.3807 12.5 37.5 13.6193 37.5 15C37.5 16.3807 36.3807 17.5 35 17.5L13 17.5C11.6193 17.5 10.5 16.3807 10.5 15Z" fill="#081E40"/>
</svg>
