<svg width="48" height="48" viewBox="0 0 48 48" fill="none" xmlns="http://www.w3.org/2000/svg">
<path fill-rule="evenodd" clip-rule="evenodd" d="M17.5 2H6C3.79086 2 2 3.79086 2 6V17.5C2 18.8807 3.11929 20 4.5 20C5.88071 20 7 18.8807 7 17.5V9C7 7.89543 7.89543 7 9 7H17.5C18.8807 7 20 5.88071 20 4.5C20 3.11929 18.8807 2 17.5 2ZM30.5 2H42C44.2091 2 46 3.79086 46 6V17.5C46 18.8807 44.8807 20 43.5 20C42.1193 20 41 18.8807 41 17.5V9C41 7.89543 40.1046 7 39 7H30.5C29.1193 7 28 5.88071 28 4.5C28 3.11929 29.1193 2 30.5 2ZM46 42C46 44.2091 44.2091 46 42 46H30.5C29.1193 46 28 44.8807 28 43.5C28 42.1193 29.1193 41 30.5 41H39C40.1046 41 41 40.1046 41 39V30.5C41 29.1193 42.1193 28 43.5 28C44.8807 28 46 29.1193 46 30.5V42ZM17.5 46H6C3.79086 46 2 44.2091 2 42V30.5C2 29.1193 3.11929 28 4.5 28C5.88071 28 7 29.1193 7 30.5V39C7 40.1046 7.89543 41 9 41H17.5C18.8807 41 20 42.1193 20 43.5C20 44.8807 18.8807 46 17.5 46ZM23.5 34.1452C33.3226 34.1452 38 24.3226 38 24.3226C38 24.3226 33.3226 14.5 23.5 14.5C13.6774 14.5 9 24.3226 9 24.3226C9 24.3226 13.6774 34.1452 23.5 34.1452ZM23.5 30C26.8137 30 29.5 27.3137 29.5 24C29.5 20.6863 26.8137 18 23.5 18C20.1863 18 17.5 20.6863 17.5 24C17.5 27.3137 20.1863 30 23.5 30ZM23.5 27C25.1569 27 26.5 25.6569 26.5 24C26.5 22.3431 25.1569 21 23.5 21C21.8431 21 20.5 22.3431 20.5 24C20.5 25.6569 21.8431 27 23.5 27Z" fill="#081E40"/>
</svg>
