<svg width="48" height="48" viewBox="0 0 48 48" fill="none" xmlns="http://www.w3.org/2000/svg">
<g clip-path="url(#clip0_2211_6350)">
<path fill-rule="evenodd" clip-rule="evenodd" d="M8 0C5.79086 0 4 1.79086 4 4V44C4 46.2091 5.79086 48 8 48L17 48C18.3807 48 19.5 46.8807 19.5 45.5C19.5 44.1193 18.3807 43 17 43L11 43C9.89543 43 9 42.1046 9 41V7C9 5.89543 9.89543 5 11 5H36C37.1046 5 38 5.89543 38 7V19.5C38 20.8807 39.1193 22 40.5 22C41.8807 22 43 20.8807 43 19.5V4C43 1.79086 41.2091 0 39 0H8ZM33.2462 23.235C32.2818 22.6965 31.0635 23.0418 30.525 24.0062L22.7247 37.9761C22.4584 38.453 22.3988 39.0181 22.5597 39.5401L24.9521 47.3027C25.1009 47.7855 25.5864 48.0815 26.0837 47.9926L34.7233 46.4479C35.3135 46.3423 35.8252 45.9776 36.1175 45.4541L43.9178 31.4843C44.4563 30.5199 44.111 29.3015 43.1466 28.763L33.2462 23.235ZM32.7986 28.1391C32.9333 27.898 33.2378 27.8117 33.4789 27.9463L39.0137 31.0367C39.2548 31.1713 39.3411 31.4759 39.2065 31.717L33.3177 42.2635C33.1716 42.5252 32.9157 42.7076 32.6206 42.7604L28.4283 43.5099C28.1797 43.5544 27.9369 43.4064 27.8625 43.165L26.7601 39.588C26.6796 39.327 26.7094 39.0445 26.8426 38.806L32.7986 28.1391ZM11.5 12.5C11.5 11.1193 12.6193 10 14 10H32C33.3807 10 34.5 11.1193 34.5 12.5C34.5 13.8807 33.3807 15 32 15H14C12.6193 15 11.5 13.8807 11.5 12.5ZM14 19C12.6193 19 11.5 20.1193 11.5 21.5C11.5 22.8807 12.6193 24 14 24H23C24.3807 24 25.5 22.8807 25.5 21.5C25.5 20.1193 24.3807 19 23 19H14Z" fill="#081E40"/>
</g>
<defs>
<clipPath id="clip0_2211_6350">
<rect width="48" height="48" fill="white"/>
</clipPath>
</defs>
</svg>
