<svg width="48" height="48" viewBox="0 0 48 48" fill="none" xmlns="http://www.w3.org/2000/svg">
<path d="M43 2.5C44.3807 2.5 45.5 3.61929 45.5 5V36C45.5 36.1171 45.4882 36.2319 45.4727 36.3447C45.4882 36.5612 45.5 36.7795 45.5 37C45.5 41.9706 41.4706 46 36.5 46C31.5294 46 27.5 41.9706 27.5 37C27.5 32.0294 31.5294 28 36.5 28C37.9372 28 39.2948 28.3384 40.5 28.9375V7.5L20 7.5L20 36.4102C20 36.4771 19.9944 36.5437 19.9893 36.6094C19.9948 36.7389 20 36.8691 20 37C20 41.9706 15.9706 46 11 46C6.02944 46 2 41.9706 2 37C2 32.0294 6.02944 28 11 28C12.4372 28 13.7948 28.3384 15 28.9375L15 7.5H11C9.61929 7.5 8.5 6.38071 8.5 5C8.5 3.61929 9.61929 2.5 11 2.5L43 2.5ZM11 33C8.79086 33 7 34.7909 7 37C7 39.2091 8.79086 41 11 41C13.2091 41 15 39.2091 15 37C15 34.7909 13.2091 33 11 33ZM36.5 33C34.2909 33 32.5 34.7909 32.5 37C32.5 39.2091 34.2909 41 36.5 41C38.7091 41 40.5 39.2091 40.5 37C40.5 34.7909 38.7091 33 36.5 33Z" fill="#081E40"/>
</svg>
