<svg width="48" height="48" viewBox="0 0 48 48" fill="none" xmlns="http://www.w3.org/2000/svg">
<path fill-rule="evenodd" clip-rule="evenodd" d="M43.8069 15.8251C46.6769 17.0238 46.6744 21.0908 43.8029 22.286L25.8361 29.7645C24.9938 30.1151 24.0479 30.1229 23.1999 29.7863L4.36378 22.3097C1.41844 21.1406 1.41888 16.9717 4.3645 15.8032L14.9392 12.8152C16.2226 12.3061 17.6757 12.9338 18.1848 14.2172C18.6939 15.5007 18.0662 16.9538 16.7828 17.4629L10.1905 18.8712C10.0222 18.938 10.0222 19.1762 10.1905 19.243L21.8003 23.8513L21.8003 5.00002C21.8003 3.61931 22.9196 2.50002 24.3003 2.50002C25.681 2.50002 26.8003 3.61931 26.8003 5.00002L26.8003 23.9473L38.1174 19.2367C38.2815 19.1684 38.2816 18.936 38.1176 18.8675L31.9257 17.4459C30.6516 16.9138 30.0502 15.4496 30.5823 14.1755C31.1144 12.9015 32.5786 12.3 33.8527 12.8322L43.8069 15.8251ZM15.7322 35.7323C16.7085 34.756 18.2915 34.756 19.2678 35.7323L21.5 37.9645L21.5 35C21.5 33.6193 22.6193 32.5 24 32.5C25.3807 32.5 26.5 33.6193 26.5 35L26.5 37.9645L28.7322 35.7323C29.7085 34.756 31.2915 34.756 32.2678 35.7323C33.2441 36.7086 33.2441 38.2915 32.2678 39.2678L26.4749 45.0607C25.108 46.4275 22.892 46.4275 21.5251 45.0607L15.7322 39.2678C14.7559 38.2915 14.7559 36.7086 15.7322 35.7323Z" fill="#081E40"/>
</svg>
