<svg width="49" height="48" viewBox="0 0 49 48" fill="none" xmlns="http://www.w3.org/2000/svg">
<path d="M20.6377 0.5C22.0184 0.5 23.1377 1.61929 23.1377 3C23.1377 4.38071 22.0184 5.5 20.6377 5.5H5V42.5H43V27.3652C43 25.9845 44.1193 24.8652 45.5 24.8652C46.8807 24.8652 48 25.9845 48 27.3652V43.1787C47.9998 45.6213 45.9905 47.5 43.6348 47.5H4.36523C2.00947 47.5 0.000217519 45.6213 0 43.1787V4.82129C0.000218173 2.37865 2.00947 0.5 4.36523 0.5H20.6377ZM43.5 0.5C45.9853 0.5 48 2.51472 48 5V18C48 19.3807 46.8807 20.5 45.5 20.5C44.1193 20.5 43 19.3807 43 18V8.4873L26.2432 24.792C25.2536 25.7546 23.6708 25.7326 22.708 24.7432C21.7454 23.7536 21.7673 22.1708 22.7568 21.208L38.9014 5.5H30.5C29.1193 5.5 28 4.38071 28 3C28 1.61929 29.1193 0.5 30.5 0.5H43.5Z" fill="#081E40"/>
</svg>
