<svg width="48" height="45" viewBox="0 0 48 45" fill="none" xmlns="http://www.w3.org/2000/svg">
<path fill-rule="evenodd" clip-rule="evenodd" d="M7 5C5.89543 5 5 5.89543 5 7V25C5 26.1046 5.89543 27 7 27H41C42.1046 27 43 26.1046 43 25V7C43 5.89543 42.1046 5 41 5H7ZM4 0C1.79086 0 0 1.79086 0 4V28C0 30.2091 1.79086 32 4 32H44C46.2091 32 48 30.2091 48 28V4C48 1.79086 46.2091 0 44 0H4Z" fill="#081E40"/>
<path d="M15 32H20V41H15V32Z" fill="#081E40"/>
<path d="M27 32H32V41H27V32Z" fill="#081E40"/>
<path d="M7 42.5C7 41.1193 8.11929 40 9.5 40H37.5C38.8807 40 40 41.1193 40 42.5C40 43.8807 38.8807 45 37.5 45H9.5C8.11929 45 7 43.8807 7 42.5Z" fill="#081E40"/>
<path fill-rule="evenodd" clip-rule="evenodd" d="M13 12V17H15V12H13ZM12 9C10.8954 9 10 9.89543 10 11V18C10 19.1046 10.8954 20 12 20H18V9H12Z" fill="#081E40"/>
<path d="M13 20H16V24.5C16 25.3284 15.3284 26 14.5 26Lnan nanL14.5 26C13.6716 26 13 25.3284 13 24.5V20Z" fill="#081E40"/>
<path fill-rule="evenodd" clip-rule="evenodd" d="M19 12.5021V16.4979L26 17.4313V11.5687L19 12.5021ZM15 20L27.7357 21.6981C28.9346 21.858 30 20.9252 30 19.7156V9.28437C30 8.07479 28.9346 7.14205 27.7357 7.30191L15 9V20Z" fill="#081E40"/>
<path d="M34.3 18.9889C36.369 18.8355 38 17.1082 38 15C38 12.8918 36.369 11.1645 34.3 11.0111C34.1348 10.9988 34 11.1343 34 11.3V18.7C34 18.8657 34.1348 19.0012 34.3 18.9889Z" fill="#081E40"/>
</svg>
