<svg width="48" height="48" viewBox="0 0 48 48" fill="none" xmlns="http://www.w3.org/2000/svg">
<path fill-rule="evenodd" clip-rule="evenodd" d="M21.9481 2.74692C23.2111 1.97948 24.7942 1.97091 26.0654 2.72463L45.3667 14.1689C46.6574 14.9342 46.6769 16.7956 45.4025 17.5878L26.1379 29.5632C24.8313 30.3754 23.1746 30.3662 21.877 29.5396L3.09707 17.5761C1.84762 16.7801 1.867 14.9494 3.13303 14.1801L21.9481 2.74692ZM25.0142 7.97749C24.3879 7.61592 23.6151 7.62069 22.9932 7.98997L10.3193 15.5161C9.99736 15.7072 9.99204 16.1714 10.3095 16.3699L22.9546 24.2766C23.5956 24.6774 24.4077 24.6825 25.0537 24.2899L38.0789 16.3736C38.4036 16.1763 38.3982 15.7033 38.0692 15.5133L25.0142 7.97749ZM45.605 22.543C46.3501 23.7054 46.0119 25.2518 44.8495 25.9969L26.113 37.5756C24.8099 38.3809 23.1614 38.3713 21.8678 37.5508L3.62627 25.9807C2.4728 25.2219 2.15291 23.6716 2.91177 22.5181C3.67063 21.3647 5.22088 21.0448 6.37435 21.8036L22.9648 32.2663C23.6096 32.6729 24.4294 32.6776 25.0788 32.2785L42.1511 21.7875C43.3135 21.0424 44.8599 21.3806 45.605 22.543ZM44.8495 33.9969C46.0119 33.2518 46.3501 31.7054 45.605 30.543C44.8599 29.3806 43.3135 29.0424 42.1511 29.7875L25.0788 40.2785C24.4294 40.6776 23.6096 40.6729 22.9648 40.2663L6.37435 29.8036C5.22088 29.0448 3.67063 29.3647 2.91177 30.5181C2.15291 31.6716 2.4728 33.2219 3.62627 33.9807L21.8678 45.5508C23.1614 46.3713 24.8099 46.3809 26.113 45.5756L44.8495 33.9969Z" fill="#081E40"/>
</svg>
