<svg width="48" height="48" viewBox="0 0 48 48" fill="none" xmlns="http://www.w3.org/2000/svg">
<rect width="48" height="48" fill="white"/>
<path d="M41 0C42.6569 0 44 1.34315 44 3V45C44 46.6569 42.6569 48 41 48H7C5.34315 48 4 46.6569 4 45L4 3C4 1.34315 5.34315 6.44266e-08 7 0L41 0ZM11 5C9.89543 5 9 5.89543 9 7L9 41C9 42.1046 9.89543 43 11 43H37C38.1046 43 39 42.1046 39 41V7C39 5.89543 38.1046 5 37 5L11 5ZM34.5 35C35.8807 35 37 36.1193 37 37.5C37 38.8807 35.8807 40 34.5 40H14.5C13.1193 40 12 38.8807 12 37.5C12 36.1193 13.1193 35 14.5 35H34.5ZM34.5 27C35.8807 27 37 28.1193 37 29.5C37 30.8807 35.8807 32 34.5 32H14.5C13.1193 32 12 30.8807 12 29.5C12 28.1193 13.1193 27 14.5 27H34.5ZM25 8C26.1046 8 27 8.89543 27 10V22C27 23.1046 26.1046 24 25 24H15C13.8954 24 13 23.1046 13 22L13 10C13 8.89543 13.8954 8 15 8H25ZM18.5 13C18.2239 13 18 13.2239 18 13.5V18.5C18 18.7761 18.2239 19 18.5 19H21.5C21.7761 19 22 18.7761 22 18.5V13.5C22 13.2239 21.7761 13 21.5 13L18.5 13Z" fill="#081E40"/>
</svg>
