<svg width="48" height="48" viewBox="0 0 48 48" fill="none" xmlns="http://www.w3.org/2000/svg">
<g clip-path="url(#clip0_1754_943)">
<path d="M27 14C27 15.6569 25.6569 17 24 17C22.3431 17 21 15.6569 21 14C21 12.3431 22.3431 11 24 11C25.6569 11 27 12.3431 27 14Z" fill="#081E40"/>
<path d="M26.4 33.2C26.4 34.415 25.415 35.4 24.2 35.4C22.985 35.4 22 34.415 22 33.2C22 31.985 22.985 31 24.2 31C25.415 31 26.4 31.985 26.4 33.2Z" fill="#081E40" fill-opacity="0.6"/>
<path d="M33 31C33 32.1046 32.1046 33 31 33C29.8954 33 29 32.1046 29 31C29 29.8954 29.8954 29 31 29C32.1046 29 33 29.8954 33 31Z" fill="#081E40" fill-opacity="0.5"/>
<path d="M35.5 23.75C35.5 24.7165 34.7165 25.5 33.75 25.5C32.7835 25.5 32 24.7165 32 23.75C32 22.7835 32.7835 22 33.75 22C34.7165 22 35.5 22.7835 35.5 23.75Z" fill="#081E40" fill-opacity="0.4"/>
<path d="M32.5 17.25C32.5 17.9404 31.9404 18.5 31.25 18.5C30.5596 18.5 30 17.9404 30 17.25C30 16.5596 30.5596 16 31.25 16C31.9404 16 32.5 16.5596 32.5 17.25Z" fill="#081E40" fill-opacity="0.3"/>
<path d="M20 30.5C20 31.8807 18.8807 33 17.5 33C16.1193 33 15 31.8807 15 30.5C15 29.1193 16.1193 28 17.5 28C18.8807 28 20 29.1193 20 30.5Z" fill="#081E40" fill-opacity="0.7"/>
<path d="M17 23.5C17 24.8807 15.8807 26 14.5 26C13.1193 26 12 24.8807 12 23.5C12 22.1193 13.1193 21 14.5 21C15.8807 21 17 22.1193 17 23.5Z" fill="#081E40" fill-opacity="0.8"/>
<path d="M20 17.5C20 18.8807 18.8807 20 17.5 20C16.1193 20 15 18.8807 15 17.5C15 16.1193 16.1193 15 17.5 15C18.8807 15 20 16.1193 20 17.5Z" fill="#081E40" fill-opacity="0.9"/>
<path fill-rule="evenodd" clip-rule="evenodd" d="M24 43C34.4934 43 43 34.4934 43 24C43 13.5066 34.4934 5 24 5C13.5066 5 5 13.5066 5 24C5 34.4934 13.5066 43 24 43ZM24 48C37.2548 48 48 37.2548 48 24C48 10.7452 37.2548 0 24 0C10.7452 0 0 10.7452 0 24C0 37.2548 10.7452 48 24 48Z" fill="#081E40"/>
</g>
<defs>
<clipPath id="clip0_1754_943">
<rect width="48" height="48" fill="white"/>
</clipPath>
</defs>
</svg>
