<svg width="48" height="48" viewBox="0 0 48 48" fill="none" xmlns="http://www.w3.org/2000/svg">
<path d="M21 36.5C22.3807 36.5 23.5 37.6193 23.5 39C23.5 40.3807 22.3807 41.5 21 41.5H4C2.61929 41.5 1.5 40.3807 1.5 39C1.5 37.6193 2.61929 36.5 4 36.5H21ZM45 27.5C46.3807 27.5 47.5 28.6193 47.5 30C47.5 31.3807 46.3807 32.5 45 32.5H4C2.61929 32.5 1.5 31.3807 1.5 30C1.5 28.6193 2.61929 27.5 4 27.5L45 27.5ZM44 4C46.2091 4 48 5.79086 48 8V19L47.9951 19.2061C47.8913 21.2512 46.2512 22.8913 44.2061 22.9951L44 23L4 23L3.79395 22.9951C1.7488 22.8913 0.108652 21.2512 0.00488281 19.2061L0 19L0 8C0 5.79086 1.79086 4 4 4L44 4ZM5 18H43V9L5 9L5 18Z" fill="#081E40"/>
</svg>
