<svg width="48" height="48" viewBox="0 0 48 48" fill="none" xmlns="http://www.w3.org/2000/svg">
<path fill-rule="evenodd" clip-rule="evenodd" d="M13.2949 2.5C11.9691 2.5 10.7294 3.15692 9.98497 4.25399L1.15829 17.2617C0.375282 18.4156 0.490617 19.9569 1.43664 20.9814L23.4648 44.8374C24.2803 45.7206 25.6851 45.6899 26.4613 44.772L46.6559 20.8922C47.5249 19.8647 47.6033 18.3841 46.8477 17.2705L38.015 4.254C37.2706 3.15693 36.0309 2.5 34.7051 2.5H13.2949ZM13.2297 8.377C13.6019 7.82846 14.2217 7.5 14.8846 7.5H33.1153C33.7782 7.5 34.3981 7.82846 34.7703 8.377L41.0284 17.5996C41.5292 18.3375 41.4809 19.3178 40.9099 20.0029L25.6427 38.3236C25.2551 38.7887 24.5464 38.8055 24.1373 38.3592L7.24734 19.9337C6.62099 19.2505 6.54622 18.2263 7.0667 17.4593L13.2297 8.377ZM23.386 27.6812C23.5012 27.7223 23.6247 27.7435 23.7494 27.7435H25.7509C25.8756 27.7435 25.9991 27.7223 26.1143 27.6812C26.2294 27.6401 26.3341 27.5799 26.4223 27.5039C26.5105 27.428 26.5804 27.3378 26.6281 27.2386C26.6758 27.1394 26.7004 27.033 26.7004 26.9256V12.8179C26.7004 12.7105 26.6758 12.6041 26.6281 12.5049C26.5804 12.4057 26.5105 12.3155 26.4223 12.2396C26.3341 12.1636 26.2294 12.1034 26.1143 12.0623C25.9991 12.0212 25.8756 12 25.7509 12H24.4596C24.2844 11.9992 24.1124 12.0403 23.9626 12.1185C23.8127 12.1967 23.691 12.3091 23.6107 12.4433C23.2133 13.068 22.6831 13.6228 22.0479 14.079C21.2349 14.6959 20.529 15.0213 19.545 15.4121C19.381 15.4786 19.2425 15.5842 19.1459 15.7163C19.0493 15.8485 18.9987 16.0018 19 16.1579V17.8263C19.0004 17.9579 19.0376 18.0875 19.1085 18.2041C19.1794 18.3207 19.282 18.4208 19.4074 18.4959C19.5329 18.5711 19.6775 18.619 19.8291 18.6357C19.9807 18.6524 20.1347 18.6374 20.278 18.5918C20.4526 18.534 20.6155 18.4825 20.7712 18.4333L20.7714 18.4332C21.2818 18.2719 21.7153 18.1348 22.2289 17.8791C22.2631 17.862 22.2977 17.8445 22.3327 17.8263C22.4941 17.7445 22.6498 17.6628 22.7999 17.581V26.9256C22.7999 27.033 22.8244 27.1394 22.8721 27.2386C22.9199 27.3378 22.9898 27.428 23.078 27.5039C23.1661 27.5799 23.2708 27.6401 23.386 27.6812Z" fill="#081E40"/>
</svg>
