<svg width="48" height="48" viewBox="0 0 48 48" fill="none" xmlns="http://www.w3.org/2000/svg">
<path fill-rule="evenodd" clip-rule="evenodd" d="M6.5 0.5C5.11929 0.5 4 1.61929 4 3C4 4.38071 5.11929 5.5 6.5 5.5H41.5C42.8807 5.5 44 4.38071 44 3C44 1.61929 42.8807 0.5 41.5 0.5H6.5ZM8.25 6.5C6.04086 6.5 4.25 8.29086 4.25 10.5V43.5C4.25 45.7091 6.04086 47.5 8.25 47.5H16.75C18.9591 47.5 20.75 45.7091 20.75 43.5V39.5H28.25C30.4591 39.5 32.25 37.7091 32.25 35.5V31.5H39.75C41.9591 31.5 43.75 29.7091 43.75 27.5V10.5C43.75 8.29086 41.9591 6.5 39.75 6.5H32.25H27.25H20.75H15.75H8.25ZM27.25 12.5C27.25 11.9477 26.8023 11.5 26.25 11.5H20.75V34.5H26.25C26.8023 34.5 27.25 34.0523 27.25 33.5V31.5V12.5ZM32.25 11.5V26.5H37.75C38.3023 26.5 38.75 26.0523 38.75 25.5V12.5C38.75 11.9477 38.3023 11.5 37.75 11.5H32.25ZM15.75 11.5V39.5V42.5H10.25C9.69772 42.5 9.25 42.0523 9.25 41.5V12.5C9.25 11.9477 9.69772 11.5 10.25 11.5H15.75Z" fill="#081E40"/>
</svg>
