<svg width="48" height="48" viewBox="0 0 48 48" fill="none" xmlns="http://www.w3.org/2000/svg">
<path fill-rule="evenodd" clip-rule="evenodd" d="M30.5 11.5C30.5 15.0899 27.5899 18 24 18C20.4101 18 17.5 15.0899 17.5 11.5C17.5 7.91015 20.4101 5 24 5H30.5V11.5ZM24 23C30.3513 23 35.5 17.8513 35.5 11.5V1C35.5 0.447715 35.0523 0 34.5 0H24C17.6487 0 12.5 5.14873 12.5 11.5C12.5 17.8513 17.6487 23 24 23ZM9 36C9 32.6863 11.6863 30 15 30H33C36.3137 30 39 32.6863 39 36V37C39 40.3137 36.3137 43 33 43H15C11.6863 43 9 40.3137 9 37V36ZM4 36C4 29.9249 8.92487 25 15 25H33C39.0751 25 44 29.9249 44 36V37C44 43.0751 39.0751 48 33 48H15C8.92487 48 4 43.0751 4 37V36Z" fill="#081E40"/>
</svg>
