<svg width="48" height="48" viewBox="0 0 48 48" fill="none" xmlns="http://www.w3.org/2000/svg">
<g clip-path="url(#clip0_3567_86)">
<path fill-rule="evenodd" clip-rule="evenodd" d="M43 24C43 34.4934 34.4934 43 24 43C13.5066 43 5 34.4934 5 24C5 13.5066 13.5066 5 24 5C34.4934 5 43 13.5066 43 24ZM48 24C48 37.2548 37.2548 48 24 48C10.7452 48 0 37.2548 0 24C0 10.7452 10.7452 0 24 0C37.2548 0 48 10.7452 48 24ZM23.86 19.6224C25.9649 19.6224 27.6712 17.916 27.6712 15.8112C27.6712 13.7063 25.9649 12 23.86 12C21.7552 12 20.0488 13.7063 20.0488 15.8112C20.0488 17.916 21.7552 19.6224 23.86 19.6224ZM23.86 24.6224C28.7263 24.6224 32.6712 20.6775 32.6712 15.8112C32.6712 10.9449 28.7263 7 23.86 7C18.9937 7 15.0488 10.9449 15.0488 15.8112C15.0488 20.6775 18.9937 24.6224 23.86 24.6224ZM34.5605 35.0439C25.4768 28.6461 16.7285 32.3788 13.5768 34.9401C12.5053 35.8109 10.9307 35.6482 10.06 34.5767C9.18918 33.5052 9.3519 31.9307 10.4234 31.0599C14.7002 27.5843 25.952 22.8651 37.4397 30.9561C38.5685 31.7511 38.8391 33.3108 38.044 34.4396C37.249 35.5684 35.6893 35.839 34.5605 35.0439Z" fill="#081E40"/>
</g>
<defs>
<clipPath id="clip0_3567_86">
<rect width="48" height="48" fill="white"/>
</clipPath>
</defs>
</svg>
