<svg width="48" height="48" viewBox="0 0 48 48" fill="none" xmlns="http://www.w3.org/2000/svg">
<path fill-rule="evenodd" clip-rule="evenodd" d="M29 10C29 12.7614 26.7614 15 24 15C21.2386 15 19 12.7614 19 10C19 7.23858 21.2386 5 24 5C26.7614 5 29 7.23858 29 10ZM32.9946 14.3753C31.3717 17.7055 27.9538 20 24 20C19.2055 20 16 16.5 15.0054 14.3753C11.0674 17.1859 8.5 21.7932 8.5 27C8.5 27.0373 8.50013 27.0745 8.50039 27.1117C8.98956 27.0381 9.49033 27 10 27C15.5228 27 20 31.4772 20 37C20 38.6705 19.5904 40.2454 18.8661 41.6296C19.716 41.9278 20.5997 42.1541 21.5099 42.3011C22.873 42.5212 24 43.6193 24 45C24 46.3808 22.8753 47.516 21.5047 47.3497C19.2808 47.0798 17.1667 46.4539 15.2211 45.5305C15.2211 45.5305 13.3761 47 10 47C4.47715 47 0 42.5228 0 37C0 33.8991 1.41141 31.1278 3.62687 29.2936C3.54304 28.5406 3.5 27.7754 3.5 27C3.5 19.2922 7.75389 12.5779 14.0421 9.07683C14.508 3.98673 18.7884 0 24 0C29.2115 0 33.4919 3.98665 33.9579 9.07666C38.4223 11.5625 41.8606 15.6681 43.4802 20.5991C43.911 21.9109 43.0146 23.2331 41.6599 23.5C40.3053 23.767 39.0096 22.8737 38.5268 21.5801C37.4369 18.6599 35.4909 16.1568 32.9946 14.3753ZM10 42C12.7614 42 15 39.7614 15 37C15 34.2386 12.7614 32 10 32C7.23858 32 5 34.2386 5 37C5 39.7614 7.23858 42 10 42ZM43.5 30C44.8807 30 46 28.8807 46 27.5C46 26.1193 44.8807 25 43.5 25H28.5C27.1193 25 26 26.1193 26 27.5C26 28.8807 27.1193 30 28.5 30H43.5ZM43.5 46C44.8807 46 46 44.8807 46 43.5C46 42.1193 44.8807 41 43.5 41H28.5C27.1193 41 26 42.1193 26 43.5C26 44.8807 27.1193 46 28.5 46H43.5ZM46 35.5C46 36.8807 44.8807 38 43.5 38H28.5C27.1193 38 26 36.8807 26 35.5C26 34.1193 27.1193 33 28.5 33H43.5C44.8807 33 46 34.1193 46 35.5Z" fill="#081E40"/>
</svg>
