<svg width="48" height="48" viewBox="0 0 48 48" fill="none" xmlns="http://www.w3.org/2000/svg">
<path fill-rule="evenodd" clip-rule="evenodd" d="M27 8C27 7.44772 26.5523 7 26 7H22C21.4477 7 21 7.44772 21 8V12C21 12.5523 21.4477 13 22 13H26C26.5523 13 27 12.5523 27 12V8ZM18.5 2C17.1193 2 16 3.11929 16 4.5V15.5C16 16.8807 17.1193 18 18.5 18H21.5V21.5H10C8.61929 21.5 7.5 22.6193 7.5 24V30H4.5C3.11929 30 2 31.1193 2 32.5V43.5C2 44.8807 3.11929 46 4.5 46H15.5C16.8807 46 18 44.8807 18 43.5V32.5C18 31.1193 16.8807 30 15.5 30H12.5V27.5C12.5 26.9477 12.9477 26.5 13.5 26.5H34.5C35.0523 26.5 35.5 26.9477 35.5 27.5V30H32.5C31.1193 30 30 31.1193 30 32.5V43.5C30 44.8807 31.1193 46 32.5 46H43.5C44.8807 46 46 44.8807 46 43.5V32.5C46 31.1193 44.8807 30 43.5 30H40.5V24C40.5 22.6193 39.3807 21.5 38 21.5H26.5V18H29.5C30.8807 18 32 16.8807 32 15.5V4.5C32 3.11929 30.8807 2 29.5 2H18.5ZM13 36C13 35.4477 12.5523 35 12 35H8C7.44772 35 7 35.4477 7 36V40C7 40.5523 7.44772 41 8 41H12C12.5523 41 13 40.5523 13 40V36ZM40 35C40.5523 35 41 35.4477 41 36V40C41 40.5523 40.5523 41 40 41H36C35.4477 41 35 40.5523 35 40V36C35 35.4477 35.4477 35 36 35H40Z" fill="#081E40"/>
</svg>
