<svg width="48" height="48" viewBox="0 0 48 48" fill="none" xmlns="http://www.w3.org/2000/svg">
<path fill-rule="evenodd" clip-rule="evenodd" d="M28.8349 2.47878C30.0065 1.3072 31.906 1.3072 33.0776 2.47878L41.4415 10.8427C42.6131 12.0143 42.6131 13.9138 41.4415 15.0854L18.4961 38.0308C18.121 38.4059 17.6123 38.6166 17.0819 38.6166H7.30371C6.19914 38.6166 5.30371 37.7212 5.30371 36.6166V26.8384C5.30371 26.308 5.51442 25.7993 5.8895 25.4242L28.8349 2.47878ZM31.6634 8.13563C31.2728 7.74511 30.6397 7.74511 30.2491 8.13563L27.2817 11.1031L32.8172 16.6387L35.7847 13.6712C36.1752 13.2806 36.1752 12.6475 35.7847 12.257L31.6634 8.13563ZM10.5966 27.7882L23.7461 14.6387L29.2817 20.1742L16.1321 33.3237C15.9446 33.5112 15.6902 33.6166 15.425 33.6166H11.3037C10.7514 33.6166 10.3037 33.1689 10.3037 32.6166L10.3037 28.4953C10.3037 28.2301 10.4091 27.9757 10.5966 27.7882ZM42.5 46.3574C43.8807 46.3574 45 45.2381 45 43.8574C45 42.4767 43.8807 41.3574 42.5 41.3574H5.5C4.11929 41.3574 3 42.4767 3 43.8574C3 45.2381 4.11929 46.3574 5.5 46.3574H42.5Z" fill="#081E40"/>
</svg>
