<svg width="48" height="48" viewBox="0 0 48 48" fill="none" xmlns="http://www.w3.org/2000/svg">
<path fill-rule="evenodd" clip-rule="evenodd" d="M29.6112 20.0858C29.8065 19.8905 29.8065 19.5739 29.6112 19.3787L24.5003 14.2678C23.524 13.2915 23.524 11.7085 24.5003 10.7322Lnan nanL24.5003 10.7322C25.4766 9.75592 27.0595 9.75592 28.0358 10.7322L34.9145 17.6109C36.0861 18.7825 36.0861 20.682 34.9145 21.8536L28.0358 28.7322C27.0595 29.7085 25.4766 29.7085 24.5003 28.7322Lnan nanL24.5003 28.7322C23.524 27.7559 23.524 26.173 24.5003 25.1967L29.6112 20.0858Z" fill="#081E40"/>
<path fill-rule="evenodd" clip-rule="evenodd" d="M15.5 22.2324C16.8807 22.2324 18 21.1131 18 19.7324C18 18.3517 16.8807 17.2324 15.5 17.2324C14.1193 17.2324 13 18.3517 13 19.7324C13 21.1131 14.1193 22.2324 15.5 22.2324ZM22.5 22.2324C23.8807 22.2324 25 21.1131 25 19.7324C25 18.3517 23.8807 17.2324 22.5 17.2324C21.1193 17.2324 20 18.3517 20 19.7324C20 21.1131 21.1193 22.2324 22.5 22.2324Z" fill="#081E40"/>
<path fill-rule="evenodd" clip-rule="evenodd" d="M9 33.5C9 34.6046 9.89543 35.5 11 35.5H37C38.1046 35.5 39 34.6046 39 33.5V7C39 5.89543 38.1046 5 37 5H11C9.89543 5 9 5.89543 9 7V33.5ZM9 40.5H40C42.2091 40.5 44 38.7091 44 36.5V4C44 1.79086 42.2091 0 40 0H8C5.79086 0 4 1.79086 4 4V43C4 45.7614 6.23858 48 9 48H41.5C42.8807 48 44 46.8807 44 45.5C44 44.1193 42.8807 43 41.5 43H11C9.89543 43 9 42.1046 9 41V40.5Z" fill="#081E40"/>
</svg>
