<svg width="48" height="48" viewBox="0 0 48 48" fill="none" xmlns="http://www.w3.org/2000/svg">
<path fill-rule="evenodd" clip-rule="evenodd" d="M35 12C35 15.5744 33.2952 18.7505 30.6543 20.7598C30.1411 21.0986 28.9962 21.8223 28.4277 22.0725C27.6322 22.5809 25.1571 23.6082 23.9296 24.1058C23.4636 24.2946 22.966 24.3825 22.4639 24.4074C14.8323 24.7873 8.45585 30.8544 8.10506 39.1279C8.06043 40.1803 8.94692 41 10.0003 41H19.5C20.8807 41 22 42.1193 22 43.5C22 44.8807 20.8807 46 19.5 46H7.02858C5.37459 46 3.85112 44.9894 3.48266 43.377C3.16666 41.9941 3 40.5565 3 39.081C3 30.3656 8.81484 22.9725 16.8731 20.3793C14.5032 18.3616 13 15.3563 13 12C13 5.92487 17.9249 1 24 1C30.0751 1 35 5.92487 35 12ZM24 18C27.3137 18 30 15.3137 30 12C30 8.68629 27.3137 6 24 6C20.6863 6 18 8.68629 18 12C18 15.3137 20.6863 18 24 18ZM43.5 46C44.8807 46 46 44.8807 46 43.5C46 42.1193 44.8807 41 43.5 41H28.5C27.1193 41 26 42.1193 26 43.5C26 44.8807 27.1193 46 28.5 46H43.5ZM46 27.5C46 28.8807 44.8807 30 43.5 30H28.5C27.1193 30 26 28.8807 26 27.5C26 26.1193 27.1193 25 28.5 25H43.5C44.8807 25 46 26.1193 46 27.5ZM43.5 38C44.8807 38 46 36.8807 46 35.5C46 34.1193 44.8807 33 43.5 33H28.5C27.1193 33 26 34.1193 26 35.5C26 36.8807 27.1193 38 28.5 38H43.5Z" fill="#081E40"/>
</svg>
