<svg width="48" height="48" viewBox="0 0 48 48" fill="none" xmlns="http://www.w3.org/2000/svg">
<path fill-rule="evenodd" clip-rule="evenodd" d="M1 5C1 2.79083 2.79086 1 5 1H43C45.2091 1 47 2.79083 47 5V43C47 45.2092 45.2091 47 43 47H5C2.79086 47 1 45.2092 1 43V5ZM7.99985 14C9.02612 13.0764 10.6068 13.1595 11.5305 14.1858L18.557 21.9931C19.5839 23.134 19.5839 24.866 18.557 26.0069L11.5305 33.8141C10.6068 34.8405 9.02612 34.9236 7.99985 34C6.97357 33.0764 6.89038 31.4956 7.81403 30.4694L13.6364 24L7.81403 17.5306C6.89038 16.5043 6.97357 14.9236 7.99985 14ZM37.5 36C38.8807 36 40 34.8807 40 33.5C40 32.1193 38.8807 31 37.5 31H22.5C21.1193 31 20 32.1193 20 33.5C20 34.8807 21.1193 36 22.5 36H37.5Z" fill="white"/>
</svg>
