<svg width="48" height="48" viewBox="0 0 48 48" fill="none" xmlns="http://www.w3.org/2000/svg">
<path d="M0 6C0 3.79086 1.79086 2 4 2H44C46.2091 2 48 3.79086 48 6V11H0V6Z" fill="white"/>
<path fill-rule="evenodd" clip-rule="evenodd" d="M0 16V42C0 44.2091 1.79086 46 4 46H44C46.2091 46 48 44.2091 48 42V16H0ZM21.0002 40C19.6777 39.6032 18.9272 38.2095 19.324 36.8871L23.8872 21.6762C24.284 20.3537 25.6777 19.6032 27.0002 20C28.3226 20.3967 29.0731 21.7904 28.6764 23.1129L24.1131 38.3238C23.7163 39.6463 22.3226 40.3967 21.0002 40ZM16.8703 21.8863C15.8876 21.0264 14.4044 21.0838 13.491 22.017L7.7319 27.9017C6.59067 29.0678 6.59067 30.9322 7.7319 32.0984L13.491 37.983C14.4044 38.9162 15.8876 38.9736 16.8703 38.1138C17.9533 37.1661 17.9956 35.4954 16.9619 34.4942L12.3222 30L16.9619 25.5058C17.9956 24.5046 17.9533 22.8339 16.8703 21.8863ZM31.13 21.8863C32.1127 21.0264 33.5959 21.0838 34.5092 22.017L40.2683 27.9017C41.4096 29.0678 41.4096 30.9322 40.2683 32.0984L34.5092 37.983C33.5959 38.9162 32.1127 38.9736 31.13 38.1138C30.047 37.1661 30.0047 35.4954 31.0383 34.4942L35.6781 30L31.0383 25.5058C30.0047 24.5046 30.047 22.8339 31.13 21.8863Z" fill="white"/>
</svg>
