<svg width="48" height="48" viewBox="0 0 48 48" fill="none" xmlns="http://www.w3.org/2000/svg">
<path fill-rule="evenodd" clip-rule="evenodd" d="M4 2C1.79086 2 0 3.79086 0 6V11H48V6C48 3.79086 46.2091 2 44 2H4ZM48 16H0V42C0 44.2091 1.79086 46 4 46H44C46.2091 46 48 44.2091 48 42V16Z" fill="#8797AA"/>
<path fill-rule="evenodd" clip-rule="evenodd" d="M13.491 22.0169C14.4044 21.0837 15.8876 21.0263 16.8703 21.8862C17.9533 22.8338 17.9956 24.5045 16.9619 25.5057L12.3222 29.9999L16.9619 34.4941C17.9956 35.4953 17.9533 37.166 16.8703 38.1137C15.8876 38.9735 14.4044 38.9161 13.491 37.9829L7.73191 32.0982C6.59067 30.9321 6.59066 29.0677 7.73191 27.9016L13.491 22.0169Z" fill="white"/>
<path fill-rule="evenodd" clip-rule="evenodd" d="M34.5092 22.0169C33.5959 21.0837 32.1127 21.0263 31.13 21.8862C30.047 22.8338 30.0047 24.5045 31.0383 25.5057L35.6781 29.9999L31.0383 34.4941C30.0047 35.4953 30.047 37.166 31.13 38.1137C32.1127 38.9735 33.5959 38.9161 34.5092 37.9829L40.2683 32.0982C41.4096 30.9321 41.4096 29.0677 40.2683 27.9016L34.5092 22.0169Z" fill="white"/>
<path fill-rule="evenodd" clip-rule="evenodd" d="M21.0002 39.9999C19.6777 39.6031 18.9272 38.2094 19.324 36.887L23.8872 21.6761C24.284 20.3536 25.6777 19.6031 27.0002 19.9999C28.3226 20.3966 29.0731 21.7903 28.6764 23.1128L24.1131 38.3237C23.7164 39.6462 22.3226 40.3966 21.0002 39.9999Z" fill="white"/>
</svg>
