<svg width="48" height="48" viewBox="0 0 48 48" fill="none" xmlns="http://www.w3.org/2000/svg">
<path d="M1 5C1 2.79086 2.79086 1 5 1H43C45.2091 1 47 2.79086 47 5V43C47 45.2091 45.2091 47 43 47H5C2.79086 47 1 45.2091 1 43V5Z" fill="#8797AA"/>
<path fill-rule="evenodd" clip-rule="evenodd" d="M13 37.4963C13 38.8771 14.1193 39.9963 15.5 39.9963C16.8807 39.9963 18 38.8771 18 37.4963V35.5404C20.6314 34.5339 22.5 31.9852 22.5 29C22.5 26.0148 20.6314 23.4661 18 22.4596V10.5C18 9.11929 16.8807 8 15.5 8C14.1193 8 13 9.11929 13 10.5V22.4596C10.3686 23.4661 8.5 26.0148 8.5 29C8.5 31.9852 10.3686 34.5339 13 35.5404V37.4963ZM30 37.4835C30 38.8642 31.1193 39.9835 32.5 39.9835C33.8807 39.9835 35 38.8642 35 37.4835V26.5404C37.6314 25.5339 39.5 22.9852 39.5 20C39.5 17.0148 37.6314 14.4661 35 13.4596V10.5C35 9.11929 33.8807 8 32.5 8C31.1193 8 30 9.11929 30 10.5V13.4596C27.3686 14.4661 25.5 17.0148 25.5 20C25.5 22.9852 27.3686 25.5339 30 26.5404V37.4835Z" fill="white"/>
</svg>
