<svg width="48" height="48" viewBox="0 0 48 48" fill="none" xmlns="http://www.w3.org/2000/svg">
<path fill-rule="evenodd" clip-rule="evenodd" d="M24 43C32.8366 43 40 35.8366 40 27C40 18.1634 32.8366 11 24 11C15.1634 11 8 18.1634 8 27C8 35.8366 15.1634 43 24 43ZM24 48C35.598 48 45 38.598 45 27C45 15.402 35.598 6 24 6C12.402 6 3 15.402 3 27C3 38.598 12.402 48 24 48Z" fill="#8797AA"/>
<path fill-rule="evenodd" clip-rule="evenodd" d="M32.5 8.5C32.5 13.1944 28.6944 17 24 17C19.3056 17 15.5 13.1944 15.5 8.5C15.5 3.80558 19.3056 0 24 0C28.6944 0 32.5 3.80558 32.5 8.5ZM17 37.5C17 42.1944 13.1944 46 8.5 46C3.80558 46 0 42.1944 0 37.5C0 32.8056 3.80558 29 8.5 29C13.1944 29 17 32.8056 17 37.5ZM39.5 46C44.1944 46 48 42.1944 48 37.5C48 32.8056 44.1944 29 39.5 29C34.8056 29 31 32.8056 31 37.5C31 42.1944 34.8056 46 39.5 46Z" fill="white"/>
</svg>
