<svg width="48" height="48" viewBox="0 0 48 48" fill="none" xmlns="http://www.w3.org/2000/svg">
<g clip-path="url(#clip0_3578_68)">
<path fill-rule="evenodd" clip-rule="evenodd" d="M22.4738 0.901839C23.4152 0.345545 24.5848 0.345546 25.5262 0.90184L33.5262 5.62911C34.4396 6.16886 35 7.15092 35 8.21189V17.7881C35 18.8491 34.4396 19.8311 33.5262 20.3709L25.5262 25.0982C24.5848 25.6545 23.4152 25.6545 22.4738 25.0982L14.4738 20.3709C13.5604 19.8311 13 18.8491 13 17.7881V8.21189C13 7.15092 13.5604 6.16886 14.4738 5.62911L22.4738 0.901839ZM8.96555 23.9133C9.9111 23.3505 11.0889 23.3505 12.0345 23.9133L19.5345 28.3776C20.4432 28.9185 21 29.898 21 30.9555V40.0444C21 41.102 20.4432 42.0814 19.5345 42.6223L12.0345 47.0866C11.0889 47.6494 9.9111 47.6494 8.96555 47.0866L1.46555 42.6223C0.556809 42.0814 0 41.102 0 40.0444V30.9555C0 29.898 0.55681 28.9185 1.46555 28.3776L8.96555 23.9133ZM39.0345 23.9133C38.0889 23.3505 36.9111 23.3505 35.9655 23.9133L28.4655 28.3776C27.5568 28.9185 27 29.898 27 30.9555V40.0444C27 41.102 27.5568 42.0814 28.4655 42.6223L35.9655 47.0866C36.9111 47.6494 38.0889 47.6494 39.0345 47.0866L46.5345 42.6223C47.4432 42.0814 48 41.102 48 40.0444V30.9555C48 29.898 47.4432 28.9185 46.5345 28.3776L39.0345 23.9133Z" fill="#8797AA"/>
<path fill-rule="evenodd" clip-rule="evenodd" d="M3.50387 34.8772C2.83721 34.4883 2 34.9692 2 35.741V39.4256C2 39.7813 2.18891 40.1102 2.49613 40.2894L6.49613 42.6227C7.16279 43.0116 8 42.5307 8 41.7589V38.0743C8 37.7187 7.81109 37.3898 7.50387 37.2106L3.50387 34.8772ZM30.5039 34.8772C29.8372 34.4883 29 34.9692 29 35.741V39.4256C29 39.7813 29.1889 40.1102 29.4961 40.2894L33.4961 42.6227C34.1628 43.0116 35 42.5307 35 41.7589V38.0743C35 37.7187 34.8111 37.3898 34.5039 37.2106L30.5039 34.8772Z" fill="white"/>
</g>
<defs>
<clipPath id="clip0_3578_68">
<rect width="48" height="48" fill="white"/>
</clipPath>
</defs>
</svg>
