<svg width="48" height="48" viewBox="0 0 48 48" fill="none" xmlns="http://www.w3.org/2000/svg">
<path d="M22.0846 1.04481C23.2785 0.39359 24.7215 0.393591 25.9154 1.04481L43.9154 10.863C45.2005 11.5639 46 12.9108 46 14.3746V33.6255C46 35.0893 45.2005 36.4362 43.9154 37.1371L25.9154 46.9553C24.7215 47.6065 23.2785 47.6065 22.0846 46.9553L4.08459 37.1371C2.79955 36.4362 2 35.0893 2 33.6255V14.3746C2 12.9108 2.79955 11.5639 4.08459 10.863L22.0846 1.04481Z" fill="#8797AA"/>
<path fill-rule="evenodd" clip-rule="evenodd" d="M24.0001 21.1057L32.581 16.1002C33.7736 15.4045 35.3044 15.8074 36.0001 17C36.6958 18.1926 36.293 19.7234 35.1004 20.4191L26.5001 25.4359V34.5C26.5001 35.8807 25.3809 37 24.0001 37C22.6194 37 21.5001 35.8807 21.5001 34.5V25.4359L12.8999 20.4191C11.7073 19.7234 11.3044 18.1926 12.0001 17C12.6958 15.8074 14.2266 15.4045 15.4193 16.1002L24.0001 21.1057Z" fill="white"/>
</svg>
