<svg width="48" height="48" viewBox="0 0 48 48" fill="none" xmlns="http://www.w3.org/2000/svg">
<path d="M7 44.5C7 43.1193 8.11929 42 9.5 42H38.5C39.8807 42 41 43.1193 41 44.5C41 45.8807 39.8807 47 38.5 47H24H9.5C8.11929 47 7 45.8807 7 44.5Z" fill="white"/>
<path fill-rule="evenodd" clip-rule="evenodd" d="M4 1C1.79086 1 0 2.79086 0 5V34C0 36.2091 1.79086 38 4 38H44C46.2091 38 48 36.2091 48 34V5C48 2.79086 46.2091 1 44 1H4ZM41.3004 14.0299C42.3303 13.1103 42.4198 11.5299 41.5002 10.5C40.5806 9.47008 39.0002 9.38063 37.9703 10.3002L27.1548 19.9569L19.034 15.4904C17.8645 14.8472 16.4107 15.054 15.4669 15.9977L7.00019 24.4645C6.02388 25.4408 6.02388 27.0237 7.00019 28C7.9765 28.9763 9.55941 28.9763 10.5357 28L17.9404 20.5953L25.9854 25.02C27.1 25.6331 28.4802 25.4765 29.4292 24.6292L41.3004 14.0299Z" fill="white"/>
</svg>
