<svg width="48" height="48" viewBox="0 0 48 48" fill="none" xmlns="http://www.w3.org/2000/svg">
<path d="M0 5C0 2.79086 1.79086 1 4 1H44C46.2091 1 48 2.79086 48 5V34C48 36.2091 46.2091 38 44 38H4C1.79086 38 0 36.2091 0 34V5Z" fill="#8797AA"/>
<path d="M7 44.5C7 43.1193 8.11929 42 9.5 42H38.5C39.8807 42 41 43.1193 41 44.5C41 45.8807 39.8807 47 38.5 47H9.5C8.11929 47 7 45.8807 7 44.5Z" fill="#8797AA"/>
<path fill-rule="evenodd" clip-rule="evenodd" d="M41.5003 10.5C42.4199 11.5299 42.3304 13.1103 41.3005 14.0299L29.4293 24.6292C28.4803 25.4765 27.1002 25.6331 25.9855 25.02L17.9405 20.5953L10.5358 28C9.55952 28.9763 7.97661 28.9763 7.0003 28C6.02399 27.0237 6.02399 25.4408 7.0003 24.4645L15.467 15.9978C16.4108 15.054 17.8646 14.8472 19.0341 15.4904L27.1549 19.9569L37.9704 10.3002C39.0003 9.38064 40.5807 9.4701 41.5003 10.5Z" fill="white"/>
</svg>
