<svg width="48" height="48" viewBox="0 0 48 48" fill="none" xmlns="http://www.w3.org/2000/svg">
<path d="M0 28C0 26.8954 0.895431 26 2 26H46C47.1046 26 48 26.8954 48 28V46C48 47.1046 47.1046 48 46 48H2C0.895432 48 0 47.1046 0 46V28Z" fill="#8797AA"/>
<path d="M6 2C6 0.89543 6.89543 0 8 0H14C15.1046 0 16 0.895431 16 2V26H6V2Z" fill="#8797AA"/>
<path d="M21 7C21 5.89543 21.8954 5 23 5H27C28.1046 5 29 5.89543 29 7V26H21V7Z" fill="#8797AA"/>
<path d="M34 7C34 5.89543 34.8954 5 36 5H40C41.1046 5 42 5.89543 42 7V26H34V7Z" fill="#8797AA"/>
<path d="M34 35V26H42V35L38 33.5L34 35Z" fill="white"/>
<path d="M6 39.5C6 38.1193 7.11929 37 8.5 37H20.5C21.8807 37 23 38.1193 23 39.5C23 40.8807 21.8807 42 20.5 42H8.5C7.11929 42 6 40.8807 6 39.5Z" fill="white"/>
</svg>
