<svg width="48" height="48" viewBox="0 0 48 48" fill="none" xmlns="http://www.w3.org/2000/svg">
<path d="M12.9999 4C12.9999 2.89543 13.8953 2 14.9999 2H32.9999C34.1045 2 34.9999 2.89543 34.9999 4C34.9999 5.10457 34.1045 6 32.9999 6H14.9999C13.8953 6 12.9999 5.10457 12.9999 4Z" fill="#8797AA"/>
<path d="M31.9999 6H15.9999V12H16.0061L1.91078 40.2122C0.582042 42.8718 2.51605 46 5.48904 46H42.5107C45.4837 46 47.4177 42.8718 46.089 40.2122L31.9937 12H31.9999V6Z" fill="#8797AA"/>
<path fill-rule="evenodd" clip-rule="evenodd" d="M28.0987 27.4826L24.8772 38.4623C24.2735 40.52 21.3828 40.586 20.6857 38.5581L18.0354 30.8481L17.0109 33.0547C16.6011 33.9373 15.7165 34.5019 14.7434 34.5019H11C9.89543 34.5019 9 33.6065 9 32.5019C9 31.3974 9.89543 30.5019 11 30.5019H13.786L16.2894 25.1101C17.1235 23.3134 19.7214 23.4481 20.3653 25.3214L22.6306 31.9114L25.9551 20.5806C26.5701 18.4845 29.5339 18.4691 30.1706 20.5588L33.2001 30.5019H37C38.1046 30.5019 39 31.3974 39 32.5019C39 33.6065 38.1046 34.5019 37 34.5019H32.0891C30.989 34.5019 30.0183 33.7829 29.6976 32.7306L28.0987 27.4826Z" fill="white"/>
</svg>
