<svg width="48" height="48" viewBox="0 0 48 48" fill="none" xmlns="http://www.w3.org/2000/svg">
<path fill-rule="evenodd" clip-rule="evenodd" d="M24 48C37.2548 48 48 37.2548 48 24C48 10.7452 37.2548 0 24 0C10.7452 0 0 10.7452 0 24C0 37.2548 10.7452 48 24 48ZM13.8821 14.3521C13.2647 13.1171 13.7653 11.6155 15.0002 10.998C16.2351 10.3806 17.7368 10.8811 18.3543 12.116L24.0002 23.4078L29.6461 12.116C30.2635 10.8811 31.7653 10.3806 33.0002 10.998C34.2351 11.6155 34.7357 13.1171 34.1182 14.3521L26.6835 29.2216C25.5779 31.4327 22.4225 31.4327 21.3169 29.2216L13.8821 14.3521ZM33 35.5C33 36.8807 31.8807 38 30.5 38H17.5C16.1193 38 15 36.8807 15 35.5C15 34.1193 16.1193 33 17.5 33H30.5C31.8807 33 33 34.1193 33 35.5Z" fill="white"/>
</svg>
