<svg width="48" height="48" viewBox="0 0 48 48" fill="none" xmlns="http://www.w3.org/2000/svg">
<path fill-rule="evenodd" clip-rule="evenodd" d="M6 2C3.79086 2 2 3.79086 2 6V14C2 16.2091 3.79086 18 6 18H18C20.2091 18 22 16.2091 22 14V6C22 3.79086 20.2091 2 18 2H6ZM9 13C7.89543 13 7 12.1046 7 11V9C7 7.89543 7.89543 7 9 7H15C16.1046 7 17 7.89543 17 9V11C17 12.1046 16.1046 13 15 13H9ZM26 42C26 44.2091 27.7909 46 30 46H42C44.2091 46 46 44.2091 46 42V34C46 31.7909 44.2091 30 42 30H30C27.7909 30 26 31.7909 26 34V42ZM41 39C41 40.1046 40.1046 41 39 41H33C31.8954 41 31 40.1046 31 39V37C31 35.8954 31.8954 35 33 35H39C40.1046 35 41 35.8954 41 37V39Z" fill="white"/>
<path d="M18 22H6C3.79086 22 2 23.7909 2 26V42C2 44.2091 3.79086 46 6 46H18C20.2091 46 22 44.2091 22 42V26C22 23.7909 20.2091 22 18 22Z" fill="#8797AA"/>
<path d="M42 26H30C27.7909 26 26 24.2091 26 22V6C26 3.79086 27.7909 2 30 2H42C44.2091 2 46 3.79086 46 6V22C46 24.2091 44.2091 26 42 26Z" fill="#8797AA"/>
</svg>
