<svg width="48" height="48" viewBox="0 0 48 48" fill="none" xmlns="http://www.w3.org/2000/svg">
<path fill-rule="evenodd" clip-rule="evenodd" d="M2 6C2 3.79086 3.79086 2 6 2H18C20.2091 2 22 3.79086 22 6V14C22 16.2091 20.2091 18 18 18H6C3.79086 18 2 16.2091 2 14V6ZM7 11C7 12.1046 7.89543 13 9 13H15C16.1046 13 17 12.1046 17 11V9C17 7.89543 16.1046 7 15 7H9C7.89543 7 7 7.89543 7 9V11ZM30 46C27.7909 46 26 44.2091 26 42V34C26 31.7909 27.7909 30 30 30H42C44.2091 30 46 31.7909 46 34V42C46 44.2091 44.2091 46 42 46H30ZM39 41C40.1046 41 41 40.1046 41 39V37C41 35.8954 40.1046 35 39 35H33C31.8954 35 31 35.8954 31 37V39C31 40.1046 31.8954 41 33 41H39ZM30 26H42C44.2091 26 46 24.2091 46 22V6C46 3.79086 44.2091 2 42 2H30C27.7909 2 26 3.79086 26 6V22C26 24.2091 27.7909 26 30 26ZM6 22H18C20.2091 22 22 23.7909 22 26V42C22 44.2091 20.2091 46 18 46H6C3.79086 46 2 44.2091 2 42V26C2 23.7909 3.79086 22 6 22Z" fill="white"/>
</svg>
