<svg width="48" height="48" viewBox="0 0 48 48" fill="none" xmlns="http://www.w3.org/2000/svg">
<path fill-rule="evenodd" clip-rule="evenodd" d="M18.1216 4.87785C18.4786 4.76823 18.7545 4.47911 18.8327 4.11393L19.5449 0.790471C19.6437 0.3294 20.0512 0 20.5227 0L27.4773 0C27.9488 0 28.3563 0.329399 28.4551 0.79047L29.1673 4.11393C29.2455 4.47911 29.5214 4.76823 29.8784 4.87785C31.1427 5.26605 32.3537 5.77619 33.4975 6.39455C33.8286 6.57356 34.2317 6.56576 34.5478 6.36127L37.1903 4.65137C37.5862 4.3952 38.1073 4.4504 38.4407 4.78383L43.3583 9.70147C43.6918 10.0349 43.747 10.5559 43.4908 10.9518L41.7446 13.6504C41.5423 13.9631 41.5324 14.3614 41.706 14.6909C42.2793 15.779 42.7552 16.9265 43.1222 18.1216C43.2318 18.4786 43.5209 18.7545 43.8861 18.8327L47.2095 19.5449C47.6706 19.6437 48 20.0512 48 20.5227V27.4773C48 27.9488 47.6706 28.3563 47.2095 28.4551L43.8861 29.1673C43.5209 29.2455 43.2318 29.5214 43.1222 29.8784C42.7468 31.1008 42.2575 32.2732 41.6667 33.3834C41.4909 33.7135 41.5 34.1137 41.7032 34.4277L43.4908 37.1903C43.7469 37.5862 43.6917 38.1072 43.3583 38.4407L38.4407 43.3583C38.1073 43.6917 37.5862 43.7469 37.1903 43.4908L34.4277 41.7032C34.1137 41.5 33.7135 41.4909 33.3834 41.6667C32.2732 42.2575 31.1008 42.7468 29.8784 43.1222C29.5214 43.2318 29.2455 43.5209 29.1673 43.8861L28.4551 47.2095C28.3563 47.6706 27.9488 48 27.4773 48H20.5227C20.0512 48 19.6437 47.6706 19.5449 47.2095L18.8327 43.8861C18.7545 43.5209 18.4786 43.2318 18.1216 43.1222C16.9265 42.7552 15.779 42.2793 14.6909 41.706C14.3614 41.5324 13.9631 41.5423 13.6504 41.7446L10.9518 43.4908C10.5559 43.7469 10.0349 43.6917 9.70147 43.3583L4.78383 38.4407C4.4504 38.1072 4.3952 37.5862 4.65137 37.1903L6.36126 34.5478C6.56575 34.2317 6.57356 33.8286 6.39455 33.4975C5.77619 32.3537 5.26605 31.1427 4.87785 29.8784C4.76823 29.5214 4.47911 29.2455 4.11393 29.1673L0.790471 28.4551C0.3294 28.3563 0 27.9488 0 27.4773L0 20.5227C0 20.0512 0.3294 19.6437 0.790471 19.5449L4.11393 18.8327C4.47911 18.7545 4.76823 18.4786 4.87785 18.1216C5.25772 16.8844 5.75434 15.6984 6.35488 14.5763C6.53176 14.2458 6.52312 13.8446 6.31948 13.5298L4.65136 10.9518C4.39519 10.5559 4.45039 10.0349 4.78382 9.70147L9.70146 4.78383C10.0349 4.4504 10.5559 4.3952 10.9518 4.65137L13.5298 6.31949C13.8445 6.52313 14.2457 6.53177 14.5762 6.35489C15.6983 5.75435 16.8844 5.25772 18.1216 4.87785Z" fill="#8797AA"/>
<path fill-rule="evenodd" clip-rule="evenodd" d="M24 18.5C20.9624 18.5 18.5 20.9624 18.5 24C18.5 27.0376 20.9624 29.5 24 29.5C27.0376 29.5 29.5 27.0376 29.5 24C29.5 20.9624 27.0376 18.5 24 18.5ZM13.5 24C13.5 18.201 18.201 13.5 24 13.5C29.799 13.5 34.5 18.201 34.5 24C34.5 29.799 29.799 34.5 24 34.5C18.201 34.5 13.5 29.799 13.5 24Z" fill="white"/>
</svg>
