<svg width="48" height="48" viewBox="0 0 48 48" fill="none" xmlns="http://www.w3.org/2000/svg">
<path fill-rule="evenodd" clip-rule="evenodd" d="M4 9C1.79086 9 0 10.7908 0 13V23C0 25.2092 1.79086 27 4 27H44C46.2091 27 48 25.2092 48 23V13C48 10.7908 46.2091 9 44 9H4ZM17.5 15.5C16.1193 15.5 15 16.6193 15 18C15 19.3807 16.1193 20.5 17.5 20.5H30.5C31.8807 20.5 33 19.3807 33 18C33 16.6193 31.8807 15.5 30.5 15.5H17.5Z" fill="white"/>
<path fill-rule="evenodd" clip-rule="evenodd" d="M4 30C1.79086 30 0 31.7908 0 34V44C0 46.2092 1.79086 48 4 48H44C46.2091 48 48 46.2092 48 44V34C48 31.7908 46.2091 30 44 30H4ZM17.4709 36.5291C16.1063 36.5291 15 37.6354 15 39C15 40.3647 16.1063 41.4709 17.4709 41.4709H30.5291C31.8937 41.4709 33 40.3647 33 39C33 37.6354 31.8937 36.5291 30.5291 36.5291H17.4709Z" fill="white"/>
<path d="M6.80062 1.43926C7.56059 0.527291 8.68638 0 9.8735 0H38.1265C39.3136 0 40.4394 0.527292 41.1994 1.43926L45 6H3L6.80062 1.43926Z" fill="white"/>
</svg>
