<svg width="48" height="48" viewBox="0 0 48 48" fill="none" xmlns="http://www.w3.org/2000/svg">
<path d="M1.37258 35.3139L6.32233 30.3641C6.90502 29.7814 7.95061 30.1065 8.1739 30.8997C8.65135 32.5958 9.58383 35.0398 11.2721 36.7281C12.9603 38.4163 15.4044 39.3488 17.1004 39.8263C17.8937 40.0496 18.2187 41.0952 17.636 41.6778L12.6863 46.6276C12.1036 47.2103 11.1058 46.8777 10.9892 46.0619L10.7252 44.2135C10.6401 43.618 10.0524 43.2318 9.47211 43.3901L4.47514 44.7529C3.72864 44.9565 3.04366 44.2715 3.24725 43.525L4.61006 38.5281C4.76833 37.9478 4.38217 37.3601 3.78672 37.275L1.93827 37.0109C1.12251 36.8944 0.789897 35.8966 1.37258 35.3139Z" fill="white"/>
<path fill-rule="evenodd" clip-rule="evenodd" d="M37.435 28.9499C37.2335 29.1514 37.0322 29.3495 36.831 29.5442L37.4769 34.4767C37.8824 37.573 36.4492 40.6222 33.8065 42.2858L25.7409 47.3631C23.8889 48.5289 21.4522 47.3836 21.1681 45.2138L20.1903 37.747C17.6166 37.5699 15.312 36.5254 13.3934 34.6068C11.4748 32.6882 10.4302 30.3836 10.2532 27.8099L2.7864 26.8321C0.616584 26.548 -0.528713 24.1113 0.637089 22.2593L5.7144 14.1937C7.37797 11.551 10.4272 10.1178 13.5234 10.5232L18.456 11.1692C18.6506 10.968 18.8487 10.7667 19.0503 10.5651C28.9498 0.665637 45.9203 -0.748576 47.3345 0.665638C48.7488 2.07985 47.3345 19.0504 37.435 28.9499ZM28.2426 19.7575C30.9763 22.4912 35.4085 22.4912 38.1421 19.7575C40.8758 17.0239 40.8758 12.5917 38.1421 9.85803C35.4085 7.12436 30.9763 7.12436 28.2426 9.85803C25.509 12.5917 25.509 17.0239 28.2426 19.7575Z" fill="white"/>
</svg>
