<svg width="48" height="48" viewBox="0 0 48 48" fill="none" xmlns="http://www.w3.org/2000/svg">
<path d="M1.3726 35.3139L6.32234 30.3641C6.90503 29.7814 7.95062 30.1065 8.17391 30.8997C8.65136 32.5958 9.58384 35.0398 11.2721 36.7281C12.9603 38.4163 15.4044 39.3488 17.1005 39.8263C17.8937 40.0496 18.2187 41.0951 17.6361 41.6778L12.6863 46.6276C12.1036 47.2103 11.1058 46.8777 10.9892 46.0619L10.7252 44.2134C10.6401 43.618 10.0524 43.2318 9.47212 43.3901L4.47515 44.7529C3.72865 44.9565 3.04367 44.2715 3.24727 43.525L4.61007 38.5281C4.76834 37.9478 4.38218 37.3601 3.78673 37.275L1.93828 37.0109C1.12252 36.8944 0.789908 35.8966 1.3726 35.3139Z" fill="#8797AA"/>
<path d="M36.831 29.5442C37.0322 29.3495 37.2335 29.1514 37.435 28.9499C47.3345 19.0504 48.7488 2.07985 47.3345 0.665638C45.9203 -0.748576 28.9498 0.665637 19.0503 10.5651C18.8487 10.7667 18.6506 10.968 18.456 11.1692L13.5234 10.5232C10.4272 10.1178 7.37797 11.551 5.7144 14.1937L0.637089 22.2593C-0.528713 24.1113 0.616584 26.548 2.7864 26.8321L10.2532 27.8099C10.4302 30.3836 11.4748 32.6882 13.3934 34.6068C15.312 36.5254 17.6166 37.5699 20.1903 37.747L21.1681 45.2138C21.4522 47.3836 23.8889 48.5289 25.7409 47.3631L33.8065 42.2858C36.4492 40.6222 37.8824 37.573 37.4769 34.4767L36.831 29.5442Z" fill="#8797AA"/>
<path d="M38.1421 19.7575C35.4085 22.4912 30.9763 22.4912 28.2427 19.7575C25.509 17.0239 25.509 12.5917 28.2427 9.85803C30.9763 7.12436 35.4085 7.12436 38.1421 9.85803C40.8758 12.5917 40.8758 17.0239 38.1421 19.7575Z" fill="white"/>
</svg>
