<svg width="49" height="49" viewBox="0 0 49 49" fill="none" xmlns="http://www.w3.org/2000/svg">
<path fill-rule="evenodd" clip-rule="evenodd" d="M24 41.0376C33.3888 41.0376 41 33.4264 41 24.0376C41 14.6488 33.3888 7.0376 24 7.0376C14.6112 7.0376 7 14.6488 7 24.0376C7 33.4264 14.6112 41.0376 24 41.0376ZM11.0094 16.5377C13.6327 11.9939 19.5093 10.4754 23.9866 13.0604C28.4639 15.6454 28.9912 19.9913 28.6785 22.3583C28.6455 22.6083 28.6106 22.8607 28.5756 23.1139C28.2794 25.2587 27.9739 27.4713 28.6885 28.9166C28.9137 29.372 29.4785 30.0876 30.1109 30.4527C31.3066 31.1431 32.8356 30.7334 33.526 29.5376C34.2163 28.3419 33.8066 26.8129 32.6109 26.1226C31.5922 25.5344 30.3317 25.7447 29.5538 26.5592C29.2655 25.0211 29.6046 23.38 30.3076 21.9014C30.3076 21.9014 31.5799 20.9085 34.6109 22.6585C37.6419 24.4084 38.785 28.4287 36.9901 31.5376C35.1952 34.6465 31.1543 35.6739 28.1109 33.9168C25.0675 32.1597 24.5571 29.7836 24.4149 27.9175C24.3087 26.5231 24.4486 24.8479 24.5625 23.4847C24.601 23.0236 24.6365 22.5983 24.6585 22.2315C24.7457 20.7804 24.5846 18.0245 21.9866 16.5245C19.3886 15.0245 15.9922 15.907 14.4735 18.5377C12.9547 21.1683 13.856 24.532 16.4866 26.0508C18.5451 27.2393 21.4125 26.4889 22.7713 25.5003C22.5276 27.5497 22.9546 29.7851 22.9546 29.7851C22.9546 29.7851 19.2583 32.2699 14.4866 29.5149C9.71484 26.7599 8.386 21.0814 11.0094 16.5377Z" fill="white"/>
<path d="M40.9826 10.0089C41.7984 10.1256 42.3973 9.26095 42.0012 8.53833L38.3665 1.90679C38.0092 1.25491 37.0908 1.20693 36.6675 1.81804L35.7885 3.08703C24.3437 -3.35517 9.81732 0.602839 3.23512 12.0057C-1.23409 19.7481 -0.822876 28.6303 2.93693 35.5325C3.46236 36.4971 4.71179 36.745 5.63375 36.1479C6.56688 35.5436 6.82895 34.2911 6.31286 33.3064C3.23697 27.4377 3.14184 20.1685 6.69939 14.0054C12.1218 4.61168 24.0139 1.28093 33.4991 6.39244L32.8162 7.37843C32.3929 7.98954 32.7607 8.83245 33.4966 8.93774L40.9826 10.0089Z" fill="white"/>
<path d="M12.8311 45.2362L12.0482 46.3666C11.6249 46.9777 10.7065 46.9297 10.3492 46.2778L6.71445 39.6463C6.31839 38.9237 6.91728 38.059 7.73302 38.1757L15.2191 39.2469C15.955 39.3522 16.3228 40.1951 15.8995 40.8062L15.1285 41.9193C24.5123 46.588 36.0308 43.2038 41.3421 34.0026C44.8995 27.8397 44.7936 20.6086 41.7159 14.7469C41.2024 13.7689 41.4474 12.532 42.3699 11.9243C43.2921 11.3167 44.5403 11.5687 45.0758 12.5345C49.0589 19.7183 49.2877 28.2388 44.8063 36.0023C38.3345 47.214 24.1826 51.2284 12.8311 45.2362Z" fill="white"/>
</svg>
